<svg xmlns="http://www.w3.org/2000/svg" viewBox="0 0 227.3 47"><title>icn_rotator_Asset 58_adj</title><g id="Layer_2" data-name="Layer 2"><g id="Layer_1-2" data-name="Layer 1"><path d="M4,6.6,7.4,7H8.8c1.6,0,2.4.2,2.4.4l-.5.6h0c0,.1.4.3,1.1.5h0a3.7,3.7,0,0,0-1,1.8L7.2,11c0,.1-.2.2-.5.2h0l.2,4.5c0,.9-.2,2.8-.6,5.9v1.2A41.2,41.2,0,0,0,6.7,28H6.5l-.4-1.4H5.9v4.5c0,1.4.1,2.2.3,2.2h.1l.4-4.5h.2v1.4l-.4,4.8A9.7,9.7,0,0,1,7.3,37q.9,0,2.7,3.3a6.1,6.1,0,0,0,4.1,1.1l1.5.4h.5a3.2,3.2,0,0,0,3-2.2c.5-.6,1.3-2.2,2.7-4.6a4.1,4.1,0,0,0,.8-2.7v-1l-.2-6v-.8c.2,0,.2.1.3.4h.1c.3,0,.5-.7.5-1.9s-.8-.2-.8-.6l.4-4.6c-.4-4.1-.9-6.1-1.7-6.1s-3-.7-3-1.2a2.7,2.7,0,0,1-.7-1.7,4.2,4.2,0,0,1,3.6-1.7l4.4-.3q3,0,3,.6V8.8a2.9,2.9,0,0,1-1.9,2.8l-.2.2h0c.4,5.7.7,9.1.9,10.1s-.8,4.9-.8,9.6c0,.6-.9,3.5-2.5,8.7a8.1,8.1,0,0,1-1,1.7.7.7,0,0,0-.6.4v.2h.5a7.9,7.9,0,0,1-1.5,1.3,4.6,4.6,0,0,1-3.1,1H16.9l-3.4.6c-4.3,0-7.2-1-8.8-3.1C4,42,3.6,41.6,3.6,41v-.6c-.6-.8-1.3-2.9-2.1-6.2l-.4-2.4v-.4l.2-1.1L1,30.1v-.6l-.4-.7a5.5,5.5,0,0,1,.9-2.4V23.6L2.3,16V11.6c0-.5-.6-.9-1.9-1a8.7,8.7,0,0,1-.4-3C0,6.9,1.3,6.6,4,6.6Zm-2.4,3h0c.1.2.2.2.5.2h.3A.5.5,0,0,0,2,9.6Zm1.6,7V18h.2c.2,0,.2-.3.2-.8s-.1-.6-.2-.6ZM3.9,11a1.6,1.6,0,0,0-.3.8l.3.3H4c.3-.2.5-.4.5-.6A.6.6,0,0,0,3.9,11ZM3.8,24.7v2.7H4V24.7Zm0-1.4h0Zm.4,12.8v.3a2.8,2.8,0,0,0,.4,1.5,2,2,0,0,0-.2.9v.3c.1.5.3.7.7.7h.2A6.3,6.3,0,0,0,5,37.9v-.5h0c0-.3-.3-.7-.8-1.2Zm.5-20h.1l.2-.7H4.9C4.7,15.5,4.7,15.7,4.7,16.1Zm.7-4.6-.5,1h0c.1.3.3.5.5.5a2,2,0,0,0,.2-.9v-.5Zm-.2,7.3v1.3h.2a4.8,4.8,0,0,0,.3-1.8v-.7H5.5Q5.2,17.6,5.2,18.8Zm.1,22.5a1.7,1.7,0,0,0,.6.9H6V42a.9.9,0,0,0-.6-.8Zm1.9-3.8h0a13.4,13.4,0,0,0,1.2,2.2h.4l.3-.3h0c0-.2-.4-.7-1.2-1.3h0l.2-.2c-.1-.3-.4-.4-.8-.4Zm2,3.9h.5l-.2-.3H9.4Zm4.2.9v.2h.1a.8.8,0,0,0,.6-.2v-.2H14Zm1,.9v.3h.4c.2,0,.4-.1.4-.3h-.8Zm4.3,1.1h.5c.7-.1,1.1-.3,1.1-.7H20C19.3,43.7,18.9,43.9,18.7,44.3Zm.4-2.4h.1a.5.5,0,0,0,.5-.3v-.3h0C19.3,41.4,19.1,41.5,19.1,41.9ZM20.4,9.2h0l.8.2h.4l.2-.2H20.4Zm.3,34.2h.1a.5.5,0,0,0,.5-.3V43h-.1C20.9,43.2,20.7,43.3,20.7,43.4Zm.1-2.5H21c.9-.3,1.3-.7,1.3-1.2h-.2C21.6,39.8,21.2,40.2,20.8,40.9Zm3.3-9.7v.4h0q.3,0,.3-.6v-.4h-.1C24.1,30.6,24.1,30.8,24.1,31.2Zm.2-6.3v.2l.6.3H25l-.6-.3Zm0,5.2h.1c.2,0,.3-.6.4-1.7h-.1C24.5,28.5,24.3,29,24.3,30.1Zm.5-3v.4H25v-.4h-.2Zm.2-11v1.5h.2c.2,0,.2-.2.2-.4V16.1Zm.1,3.8v1.8h.2a3.6,3.6,0,0,0,.2-1.4v-.4ZM25,9.3l.2.2h.3l.2-.2H25Zm1.6-.5a1.6,1.6,0,0,0,1.1.5h.2a.7.7,0,0,0-.8-.7h-.3Z" transform="translate(0 -0.5)" style="fill:#b75326"/><path d="M43.8,2.5l4.2.8c.7,0,1.8.6,3.5,1.8h.2c.1-1.6.3-2.4.5-2.4l2.2.7h2.4v8.3a1.6,1.6,0,0,1-.4,1.2,1.4,1.4,0,0,1,.5.9,3,3,0,0,1-.4,1.1l.2,1c0,.5-.2.7-.4.7l-1.6-.2h-.1l-.8.2h-.1q-.3,0-.9-2.7a2.1,2.1,0,0,0-.7-1.5,4.4,4.4,0,0,1-.8-1.6h.4A2.8,2.8,0,0,1,50.5,9c-1.7-1.7-3.1-2.5-4.4-2.5h-.4L39.6,7.7a9.7,9.7,0,0,0-1.7,2.4A5.3,5.3,0,0,0,36.8,13c.2,2.7.5,4,.9,4s1.2,2.2,2,2.5.6.5,1.4.6a12.8,12.8,0,0,0,3.7,2q0,.3.6.3l.7-.2.5.2h0l-.2.2v.2A2.5,2.5,0,0,0,48.5,24h0l-1.2-1h0c.4,0,1.8.8,4,2.2,3.4,3.2,5.1,5.2,5.1,6.1a33.3,33.3,0,0,1,.8,4.6c-.3,3.2-.7,4.8-1,4.8l-1.5,2.6c-2.8,1.7-4.5,2.5-5,2.5a54.3,54.3,0,0,1-9.4-2.4c-3.3-3-4.9-4.8-4.9-5.3l-.2-.2h-.1v3.7c0,.3-.7.5-2.2.5H31.8l-.9.4a1.9,1.9,0,0,1-1.2-.7h0L30,41c.3-6.9.7-10.4,1.1-10.4h.1l1.1.2h0a.7.7,0,0,0,.6-.2l.8.2h.7a6,6,0,0,1,1.1,1.8,63.6,63.6,0,0,1,4.2,5.7c.2,0,.7.6,1.6,1.7l3.8,1.6h1.1v.2h.5a2.6,2.6,0,0,0,1,.4h.4c1.1-.1,1.7-.3,1.7-.5h-2l4.3-.9c.7,0,1.3-1.1,2-3.4,0-.8.1-1.3.5-1.6v-.3c-.7-2.2-1.4-3.6-2.4-4.3s-2.3-1.9-5.6-3a20,20,0,0,1-5.2-2.9c-1.9-.5-3-1.2-3.3-1.9a11.9,11.9,0,0,0-2.8-2.7,18,18,0,0,0-2.5-5.2,24.9,24.9,0,0,1-.6-5.7C32.5,8,34,6.2,36.6,3.8,38.1,2.9,40.5,2.5,43.8,2.5ZM31.5,34.6a7.5,7.5,0,0,0-.3,2.3v.9h.1a.5.5,0,0,0,.6-.6,10.9,10.9,0,0,1-.3-2.6Zm-.1,4.7h.2q.1,0,.3-1.2h-.2Q31.6,38.1,31.4,39.3ZM33,36.4a4.8,4.8,0,0,1-.6,1.4l.2.6v2c0,.3.1.5.2.5h.4l.2-.2v-.3C33.4,37.7,33.3,36.4,33,36.4Zm.7-27.9H34V8.3h-.2Zm1.6,9.7v.4l.2.3H36v-.3C35.7,18.3,35.5,18.2,35.3,18.2Zm.2-7h.1a2.6,2.6,0,0,0,1.2-1.9h-.3C36.1,9.3,35.7,9.9,35.5,11.2Zm.9,8.7v.2a3.5,3.5,0,0,0,1.7,1h.2v-.3a7.6,7.6,0,0,0-1.8-.9Zm0,18v.2q.1.9.9.9h0c-.3-.7-.6-1-.8-1Zm.1-29.1.4.4h.2c.4,0,.8-.3,1.3-.8h-.8A1.4,1.4,0,0,0,36.5,8.8Zm.1-4.2h.8a29.6,29.6,0,0,0,4.5-1c1-.2,1.5-.3,1.5-.5h-.2C38.8,3.4,36.6,3.9,36.6,4.6Zm.3,1.5h.3c.2,0,.3-.2.4-.4h0C37.2,5.8,37,5.9,36.9,6.1Zm1.6.9h.1a9.3,9.3,0,0,0,2.9-1.2l1.7-.6h0l-.2.4h.8V4.7h-.1L39.5,6.2C38.8,6.4,38.5,6.6,38.5,7Zm0,31.5h0c.3.7.6,1,.9,1v-.2a2,2,0,0,0-.8-.8Zm.3,2.5h0a5,5,0,0,0,3.1,2.1,49.9,49.9,0,0,0,5.8,1.6,2.2,2.2,0,0,0,1.3.4h.5c1.1-.2,1.6-.5,1.6-1h0l-5.6-.3a26,26,0,0,1-6.2-2.7Zm3.4,0h0a.5.5,0,0,0,.5.3h0A.5.5,0,0,0,42.2,41Zm1.4-19a.6.6,0,0,0,.5.2h-.5Zm1.2.8-.2.2a7.1,7.1,0,0,0,2,1.2v-.3A5.4,5.4,0,0,0,44.8,22.8Zm1.1,3.8v.3a6.9,6.9,0,0,0,1.9.4.5.5,0,0,0,.5.3h.5c0-.4-.9-.7-2.6-.9ZM47.8,5.2a4.1,4.1,0,0,0,1.9.6h.5c-.2-.3-.6-.4-1.3-.4Zm.5,38.9h.1c.3.1.4.2.4.3h-.5Zm1.9-15.8h0v.2h.2v-.2h-.3Zm0,14.6h0v.2h.3c1.5,0,2.4-.3,2.5-.7h-.6A6.3,6.3,0,0,0,50.2,42.9ZM51,6.5l.3.2h.4V6.3c0-.1-.1-.2-.4-.3A.5.5,0,0,0,51,6.5Zm2-2.7-.2.3v.2a.6.6,0,0,0,.6.3h1A1.9,1.9,0,0,0,53,3.8Zm0,1.7h0V6h.2l.2-.2V5.5l-.2-.2h-.1Zm.8,4.9h0l.3.2h.2l.2-.2h0l-.2-.2h-.2Zm.2,3.1v1.2h.1a.5.5,0,0,0,.5-.4,3.9,3.9,0,0,1-.3-1.3h-.1A.5.5,0,0,0,54,13.5Zm.1-6.2h.2l-.2.3V8c0,.1.1.2.4.3s.3.5.4.5h.2V8.2h.2l.3.2h.2V8h0c-.3-1.2-.6-1.7-.8-1.7h-.3A1.1,1.1,0,0,0,54.1,7.3Zm0,4.6h0v.2h.2V12h-.3Zm0,3.8.3.2h.2v-.2l-.3-.2h-.1Zm.2,24.2.2.2h.3l.2-.2v-.2h-.4Zm.5-29.8H55V9.9Zm.4.9v.9h.1l.2-1.1h-.2Zm.2-1.6v.2c.1.2.2.4.4.4V9.8l-.2-.4Z" transform="translate(0 -0.5)" style="fill:#b75326"/><path d="M77.2,3.9c2.4.3,3.6.8,3.6,1.4l3,8.8,2,7a153.9,153.9,0,0,0,4,15l1.1,2.6.3,1.4v.7a3.8,3.8,0,0,0,1.6.6H94l.8.3-.4.7v1.1a2.2,2.2,0,0,1-.6,1.3h-.2a1.5,1.5,0,0,0-.8-.5h-.1c-.5,0-.7.1-.7.3s.3.2,1.1.3v.2c0,.1-.3.2-.7.3l-.9-.2h-.6l-3.8.4A6.3,6.3,0,0,1,83.9,44l.4-.5v-.3l-.5-1.3c0-.5.7-.7,2.2-.7h.1v-.2a10.8,10.8,0,0,0-2.5-6.3h-.1l-15,1.3H67.1a37.4,37.4,0,0,0-1.7,4.9h0a1.3,1.3,0,0,0,.8.3h1.2a5.1,5.1,0,0,1,3.7,1.7h0c0,.3-.6.9-1.6,1.6s-3.1.7-9.4.7c-1-.1-1.5-.2-1.5-.4l.2-.8h0a4.1,4.1,0,0,0-.5-1.1c0-.3.4-.6,1.1-.9V40.8c0-.3.2-.5.6-.5l.2.2-.2.7h.1a4.2,4.2,0,0,0,.8-1.4v-.3c0-.2-.1-.4-.2-.4a16.3,16.3,0,0,0,1-2.9L65,27.4l1.2-2.9c0-.4.4-1,1.1-1.9h0l-.2-.6c.4-.3.6-.6.6-.8v-.2a1.9,1.9,0,0,1,.7-1.3v-.4l2.8-8.3A22.5,22.5,0,0,0,73,6.4q.1,0,.9-1.2A18.2,18.2,0,0,1,77.2,3.9ZM62,40.9v.2h.3v-.3Zm.2-3.7v.2c.3,0,.4-.2.5-.4v-.2Zm2.7-.8v.7h.2v-.6h-.3Zm3.4-4.7h.2a95,95,0,0,1,12.7-1.3h2.5l.2-.2h0c-.1-1.5-.5-2.2-1.1-2.2-2-5.9-3.2-9.8-3.8-11.8s-1.1-3.3-1.4-4a2.7,2.7,0,0,0-.8-1.1c.1-.3.1.2,0,1.3-3.1,6.1-5.2,10-6.3,11.8a37.4,37.4,0,0,0-2.2,7.2Zm.6-9v.2H69v-.2Zm.5-2v.6h.1c.1.8.2,1.1.2.8h0Zm4.9,12v.2h.3v-.2ZM76.6,10h0a.5.5,0,0,0,.6-.6V9.2H77A.9.9,0,0,0,76.6,10Zm.2-3.1h0v.2H77V7h-.2Zm1.3-2v.2l.2.3h.5l.2-.2h0l-.5-.2Zm1,26.8v.2h.3q.6,0,.6-.3h-.9Zm4.1-2.6h.1v.6h-.2v-.4Zm3.4,16.1h.2c.3,0,.5,0,.5-.2l-.2-.2A.5.5,0,0,0,86.6,45.2Zm3-10.6v.7l-2.9.7h.1v-.5l2.8-.9Zm-2.5,2.1v.2h0Zm2.8,3.5v.4l.2.2h.1v-.4l-.2-.2Zm1.9,3v.2h.1c.8,0,1.2-.2,1.2-.4l-.3-.2A1.3,1.3,0,0,0,91.8,43.2Z" transform="translate(0 -0.5)" style="fill:#b75326"/><path d="M96.7,5.9l.7.3c2.3-.2,7.2-.3,14.5-.3l3,1A8.6,8.6,0,0,1,118.7,8c3,2.7,4.5,5,4.5,7a35.8,35.8,0,0,1-1.2,5,33.4,33.4,0,0,1-4.1,3.7q0,.6,1.2.9a6.5,6.5,0,0,0,1.9,1l2.4,3.1a8.8,8.8,0,0,1,2.7,5.3v.7c0,.4-.1.6-.4.6h0a6.7,6.7,0,0,0,.6,1.6v.5a8.3,8.3,0,0,1-.9,2.5c0,.5-.4.8-1.3,1s-1,.4-1.6,1.1v.2c0,.1.2.2.5.2h0c0,.2-.2.2-.4.2s-.1-.3-.2-.3-.2.2-.3.5a4.8,4.8,0,0,0-2.6,1h.2l1.8-.6h0a8.2,8.2,0,0,1-3.8,1.5q-3.9,1.8-15.9,1.8h0v-.3a12.1,12.1,0,0,0-5.2,1.1c-.6,0-.9-1.1-.9-3.4q0-.6,3.6-1.5c1.9-.2,2.8-.4,2.8-.6h0q-.4,0-.9-5.1a11.2,11.2,0,0,0-.4-2.8,4.5,4.5,0,0,1,.5-1.8c0-3-.3-4.5-.7-4.5s-.4-3.3-.6-10V11.4a5.9,5.9,0,0,0-1.8-.6h-.4a.6.6,0,0,0-.6.3h0v.5a13.1,13.1,0,0,1-.8,2.1H95.3l-1.1-.3c-.4,0-.6-1.2-.7-3.6a21.7,21.7,0,0,0-.7-2.4,2.6,2.6,0,0,1,2-1.4ZM98,45.4c.1.2.3.2.5.2l.3-.2v-.2h-.5ZM99.6,7.8l1.6.5h.1a.8.8,0,0,0,.7-.4c0-.2-.5-.3-1.5-.4Zm.9,9.1v.6h.4v-.3c0-.2,0-.4-.2-.5Zm.1,27.5v.3h1.1v-.3h-1.1Zm1.8-2.3h0c0,.2.1.2.4.2h0v-.2Zm0-34.1h1.8c1.6,0,2.3-.1,2.3-.4h0l-.3-.2C103.8,7.4,102.5,7.7,102.4,8Zm1.1,1.8v.4h.4c2-.2,3.1-.5,3.3-.8h-.1C104.8,9.4,103.5,9.6,103.5,9.8Zm.5,1.7c.3,8.9.5,13.3.8,13.3h.3l5.6-1.3q3.6-.5,3.6-.9c3-2.4,4.6-4,4.6-4.8v-.4a35.7,35.7,0,0,1-.8-4q0-1.6-2.1-3l-3.1-.2C107,10.6,104,11,104,11.5Zm.4,17.7v1.3q.3,10.7.9,12a1.4,1.4,0,0,0,1.5,1l5.5.3c2.1-.1,4.8-1,8.1-2.8,1.6-1.5,2.4-2.6,2.4-3.2s.3-.2.3-.6v-.3a11.9,11.9,0,0,0-1.7-5.9c-1.1-1.2-2.1-1.9-2.8-1.9h-.4c-.3-.1-.4-.1-.4-.2s.2-.3.4-.3h0a1.7,1.7,0,0,0-1.3-.7h-.1l.3.4h-.1a15.9,15.9,0,0,0-4.6-.9H112a20.9,20.9,0,0,0-7.4,1.2Zm.3-1.3h.1c1.1-.1,1.6-.2,1.6-.4h-.2Zm2,17.3h.3l-.2-.2Zm1-18.1h0ZM108,7.5v.2h.3V7.5Zm.3,17.6h.2c2.5-.1,3.8-.3,3.8-.6H112C109.7,24.5,108.5,24.7,108.3,25.1Zm.3,2.2h.2l3.5-.4h3.4c0-.2-.7-.3-1.9-.3h-1.1C110.5,26.4,109.2,26.7,108.6,27.3Zm6.3-2.3h0a14,14,0,0,1,3.3.7h.1c.1,0,.2-.1.2-.3a1.8,1.8,0,0,0-1.7-.9h-.7C115.3,24.6,114.9,24.8,114.9,25Zm2.1-2.4h.2v-.4h0Zm.2,4.5v.2h.1v-.2Zm.5-16.3V11a3.6,3.6,0,0,1,1.2,2.8,6.8,6.8,0,0,0,.6,2.1h.1v-.5c-.3-3.1-.8-4.6-1.3-4.6Zm.4-1.7h0l.3.3h.5l-.4-.3h-.4Zm.5,34.3v.2h.2c.3,0,.5-.2.8-.5v-.2C118.9,43,118.6,43.2,118.6,43.4Zm.6-17.5h0a2.1,2.1,0,0,0,1.4.9h0C120.6,26.4,120.2,26.2,119.2,25.9Zm1,16.8h.2c.5,0,.9-.4,1.3-1h-.1C120.7,42,120.2,42.3,120.2,42.7Zm.1-28.9V14h.2l.3-.3h-.4Zm.5,1.3h-.1v.4h.2v-.3Zm0,13.2a3.4,3.4,0,0,0,1.5,1.8h.2v-.2a3.2,3.2,0,0,0-1.4-1.8h-.2Zm.7-16.1h0l.3.4h.2v-.3l-.3-.2Z" transform="translate(0 -0.5)" style="fill:#b75326"/><path d="M130.1,2.5a27.4,27.4,0,0,1,8.5,1.1h1.8l.2.3V7.4c-.1.3-.2.4-.5.4l-.7-.7-1.7-.4h-.9v.3a2.4,2.4,0,0,0,1.1.4h0c0,.2-.4.3-1.4.4l-.3,12v1.3l-.2,16.6v1c0,.3,1.2.5,3.5.5h11.9l2,.2a11.2,11.2,0,0,0,.6-3.5c.1-.5.3-.8.5-.8,2.4,0,3.6.3,3.6.7a.6.6,0,0,1-.7.5v.2a1.5,1.5,0,0,1,.6,1.1,22.1,22.1,0,0,1-.4,3.7v1.3a2.7,2.7,0,0,0-.3,1.2c-.1,0-.2.3-.5.8a7.8,7.8,0,0,1-2.6.4h-.3l-5.3-.4h-.3l-12.1.4-8.6-.7c-.3-.3-.5-.5-.5-.8.4-2.4.9-3.7,1.6-3.7a8.7,8.7,0,0,1,2.4-.4c.5-1.4.6-7.4.1-18,.2-2.1.4-6.4.6-12.8V8.2c0-.7-.4-1-1.3-1h-.6V6.9a4.9,4.9,0,0,1,1.8-.5V6.1h-2.3v.2c.2,0,.2.1.2.2a.5.5,0,0,1-.5.3h-.3c-.4-.2-.6-.7-.6-1.4V5a1.8,1.8,0,0,1,.8-1.7c.1,0,.3-.2.4-.6ZM128,42v.4h.3v-.2H128Zm.2-.5c.4,0,.6-.1.6-.4h-.2A.5.5,0,0,0,128.2,41.5Zm1.5-36.8h.3V4.6h-.4Zm4,33.2v.2a4.6,4.6,0,0,0-.4,1.3c0,.6.2,1,.5,1.1h.3c.1,0,.2-.6.2-1.8v-.3a.5.5,0,0,0-.3-.5ZM133.5,5a1.4,1.4,0,0,0,1.3.5h.5l.3-.3a1.7,1.7,0,0,0-1.1-.4H134Zm.1,39.3v.2h.1v-.2Zm.5-24.5a5.3,5.3,0,0,0-.1,3.3c.3.6.5-.2.5-2.4q-.1-.9-.3-.9Zm0,21.6v.3c1,.1,4.7.4,11.1.7h.1l-10.9-.8Zm.5-35.1h0v.2h.8V6.3h-.9Zm0,1.2h0v.9c.1.5.2.8.3.8l.4-.3V8.6C135.2,7.9,135,7.5,134.6,7.5Zm.4,36.7h0c0,.3,1,.5,2.9.5a13,13,0,0,0,3.1-.3v-.2l-4.6-.2H135Zm2.8-39.4V5h.4v.2h-1.3v.5h1.3c.6,0,1-.3,1-.8a1.8,1.8,0,0,0-1-.4H138ZM143,44.4v.2h1.1v-.2H143Zm4.7-3.8h0c0,.1.2.2.6.2h1.3v-.2h-1.9Zm.9,2.1h1.5a.5.5,0,0,0-.5-.3h-.8Zm1.7-2.7h0c0,.1.3.3.9.3s.3.5,1,.6l1.2-.2v-.2A6,6,0,0,1,151,40Zm1.1,3.3h.2a1.4,1.4,0,0,0,1.2-.6c0-.1-.2-.2-.5-.2A1.8,1.8,0,0,0,151.4,43.3Zm.8.3h0a2.1,2.1,0,0,0,1.3.5h.2l.5-.3.7.3h.5c.4,0,.7-.1.8-.3h0c0-.2-.7-.3-2-.3h-2Zm4.6-6a5.3,5.3,0,0,0-.6,1.5l-.4,2.6v.2l.2.2h.2c.5-.2.8-1.4.9-3.5-.1-.6-.1-1-.2-1Z" transform="translate(0 -0.5)" style="fill:#b75326"/><path d="M170.2,2.2c9.4.2,14.1.4,14.1.7s-.1.2-.4.2h.1a6.3,6.3,0,0,1,3.1-.9h.3a1.5,1.5,0,0,1,.2.9,37.4,37.4,0,0,0,.4,6.1l-1.2,2.4a2.7,2.7,0,0,1-1.4.4c-1.3,0-2-.4-2-1.1v-.2c0-.2.3-.5.6-.9a1.1,1.1,0,0,1-.6-1.1c0-.7-.3-1.1-.9-1.1a1.5,1.5,0,0,0-.1-.6h-1.7c0,.1.2.3.7.4v.3h-12c-2.7,0-4,.1-4,.5s.4,3.9.7,11.6a.8.8,0,0,0,.7.4h.4l3.1-.2,5,.6c.4,0,.6-.6.6-1.7s.6-.9,1.6-1.1l.4-.3c.5,0,.8,2.1.8,6.4v2.4c0,.5-.1.7-.3.8a16.7,16.7,0,0,0-2.4-.8q-.1,0-.6-1.8t-4.8-.6c-2.9,0-4.3.1-4.3.4v.9l.4,6.3c-.2,2.3-.3,4.8-.6,7.4h.3l6.8-.6h.1a80.9,80.9,0,0,1,8.8.6h.2q.3,0,.6-.6h.3l.6.6h0v-.3c0-.8-.1-1.1-.4-1.1h-.5a1.8,1.8,0,0,1-.9-1.3c0-.4.7-.8,2.2-.9a5,5,0,0,1,1.6.7c.4,0,.7.4.7,1.3a63.7,63.7,0,0,0,.3,7.1l-.2.6h-.3a11.4,11.4,0,0,0-3.2-.6q0-.1-21.9-.6c-1,0-1.4-.4-1.4-1.2s-.3-.8-.3-2.1l.4-1.4v-.6l.2-.3h.2a1.4,1.4,0,0,0,.9.6h.2c.8-.2,1.3-.5,1.3-1l-.4-13.9a4.6,4.6,0,0,0-.6-1.6c.1,0,.3-3.9.4-11.8a2.1,2.1,0,0,0,.3-1.3V9.2c0-1.1-.7-1.6-2-1.6l-1.6-.5h-.8c-.7,0-1-.9-1-2.7h-.1c.1-1.3.6-1.9,1.4-1.9h0Zm-11.9,1h0l.6,1c.3-.5.6-.7.7-.7h.7a4.8,4.8,0,0,0-1.8-.3Zm2,3.3h0Zm.7,35.9v.7h.1v-.6Zm.3-38.6c0,.1.1.1.3.1h.5V3.5h-.3Zm1.1.3h0c.1.3.3.4.7.4h.8V4.3a2.8,2.8,0,0,0-1.2-.5h0Zm0,37.3h0a.6.6,0,0,0,.6.3h.6l.2-.2h0c0-.1-.2-.2-.4-.2h-1ZM163.5,26v1h.1l.2-.2V26Zm.6-15.7v.6a.7.7,0,0,0,.5.4V11h0c0-.5-.1-.8-.4-.9Zm.2,3.2v.4l.2.2h.3l-.2-.8Zm.3,26.5v.2h.2V40Zm.2-4.8v1.1h.1c.3,0,.4-.3.4-.7s0-.6-.2-.6Zm.1-4.4V31h.2v-.2Zm0,10h0c0,.2.3.3.6.3h.8v-.2l-.5-.2h-.7Zm.3-34.4a.7.7,0,0,0,.7.4h0c1.6,0,2.4-.2,2.4-.4h0q0-.3-1.5-.3h-.2c-.9,0-1.4.1-1.4.3Zm.2-2h0a.5.5,0,0,0,.5.3h.4a.6.6,0,0,0-.6-.3Zm1,17h.5v-.2l-.2-.2h-.1Zm.8-17.8h0Zm1,1.1c0,.2.3.3,1.1.3S168.9,4.7,168.2,4.7Zm.9,36.1V41l.2.2h.6l-.2-.2Zm.5,2.6v.2h.3v-.2h-.2Zm.6-37c.1.2.2.2.5.2h0c.3,0,.5,0,.5-.2h-1Zm.5,15.4h0l.2.2h.2v-.2h-.4Zm.1,19.3h0l1.5.2h3.6q0-.3-3.6-.3Zm.7-19.2v.2h.3v-.2Zm.8,0h0l.2.2h.3l-.2-.2Zm2,21.1v.2h1.1l-.7-.2Zm4-1.6h0a7.4,7.4,0,0,0,2.9.3h0a7.5,7.5,0,0,0-2.3-.3Zm1.8,1.9h.5a.6.6,0,0,0,.5-.2h-.8c-.6.1-.8.1-.8.3Zm-.6-38.7v.2l3.6.4q.3-.2.3-.3V4.6h-3.9Zm3.3,36.6h0c0,.2.1.3.4.3l.6-.3h0v-.2H183Zm1.5-32.3v.2c.2,0,.3-.2.4-.7V8h-.2c-.1,0-.2.3-.2.8Zm.1,33.6v.3h1.1v-.2h-1.1Zm.8-5.3c.2,0,.3-.1.3-.2v-.2h-.2c-.2.1-.3.2-.3.4Zm.5-26.8.2.2h0c.2,0,.3-.2.3-.7H186l-.4.5Z" transform="translate(0 -0.5)" style="fill:#b75326"/><path d="M196.5,37.7c.9.3,2,1.4,3.4,3.3h0c0,.6-1.1,1.8-3.4,3.7h0l1,.2h0l-1,.2a7.7,7.7,0,0,1-4-1.7,3.4,3.4,0,0,1-.8-1.9c0-1.7,1.2-3,3.5-3.8ZM196.6.5h.4a3.8,3.8,0,0,1,2.9,1.4V7l.4,8.3a20.9,20.9,0,0,1-.8,6.6v1l.2.8-.3,1.2v.8a5,5,0,0,0,.3,1.9c-.1,1-.2,1.5-.4,1.5h-.1c-.2-.2-.3-.3-.5-.3a11.9,11.9,0,0,0-2.4,1.7h.1q2.7-.3,2.7-.6h.3l.3.3c0,.6-1.7,1.1-5.1,1.4a.5.5,0,0,1-.5-.3c0-.3.3-.4.8-.5h.3v-.2c0-.1-.3-.2-.8-.4v-.5q0-.3.9-.6a1.3,1.3,0,0,0,.3-.7h0c0-.1-.5-.2-1.4-.3s-.4-5-.7-15.1a56.4,56.4,0,0,1-.2-6.3V4.8a1.9,1.9,0,0,1,.9-1.7l-.7-1c0-.3.2-.4.7-.5h0V1.3h0C194,.7,194.9.5,196.6.5Zm-2.9,40.6.2.3h.1v-.5h-.1C193.8,40.7,193.7,40.9,193.7,41.1ZM194,7h0V8.3h.2V7.6Q194.3,7,194,7Zm0,2v3.7h.3a9.1,9.1,0,0,0,.2-2.1L194.3,9H194Zm.1,4.5v.3h.2l.2-.2v-.2h-.3Zm.7-11.6v.2h.5V1.9h-.5Zm.2,19.4-.2.4v2.9c0,.6.1.9.2.9a1.7,1.7,0,0,0,1-1.4v-.2c0-.1-.1-.2-.4-.4s-.3-.6-.3-1.7v-.2h0A.2.2,0,0,0,195,21.3Zm.2,5.1h.1a.6.6,0,0,0,.3-.6h-.1Q195.2,25.8,195.2,26.4Zm.4,14.4V41h.3l.8-.3-.2-.2h-.4C195.8,40.5,195.6,40.6,195.6,40.8Zm.2-26.5h0v.2h.3V14H196Zm.1,2.9v.3h.1c.1,0,.2-.4.2-1V15.1C196.1,15.1,196,15.8,195.9,17.2Zm.1,22.1c0,.3.4.4,1.3.4h.1c0-.2-.3-.3-.9-.4H196Zm.4-15.6v.2h.3v-.3h-.2Zm0,18.2h0v.2h.2l.2-.2v-.2h-.3ZM197,5.3h-.1V9.2c0,1.3.2,2,.4,2h.1V8.4a1.6,1.6,0,0,1,.4-1.1V7.1c-.3,0-.4-.5-.4-1.7H197Zm0-.7h-.1l.3.3h0l.2-.2V4.6Zm.7,22.7v.2h.1c.7,0,1.1-.3,1.2-.8v-.3h-.3C198.5,26.3,198.2,26.6,197.7,27.3Zm.2-14.9v.7h.2V11.9h-.1C197.9,12,197.9,12.2,197.9,12.4Zm.2-9.4h0c0,.5.1.7.3.7h.1c.2,0,.3-.3.4-1a.3.3,0,0,0-.3-.3C198.3,2.5,198.1,2.6,198.1,3Zm.3,12.5v.4h.1l.3-.2v-.2Z" transform="translate(0 -0.5)" style="fill:#231f20"/><path d="M216.7,3.8A18.7,18.7,0,0,1,222,5.4c3.5,1.6,5.3,3.9,5.3,6.8v2.1a8.6,8.6,0,0,1-1.5,4.6c-.5,2-1,3-1.3,3s-2.5,1.5-2.5,2v.6a25.9,25.9,0,0,0,.5,4.7c-.1,2.1-.4,3.2-.8,3.2a8,8,0,0,0-2.2,1.1h-.6a1,1,0,0,1-1.1-1.1,64.8,64.8,0,0,1-1.1-9.3q0-.6,3-3a9.5,9.5,0,0,0,1.9-2.3c.4-.5.6-.8.7-.8l.6.2c.3,0,.7-.8,1-2.5h0l-.6-1.2v-.2h-.1l.2-.6v-.8a1.9,1.9,0,0,0-1-1.5c-.3-.8-.7-1.3-1.5-1.3a15.2,15.2,0,0,0-4.5-.7h-.7c-2.2,0-4.2,1.5-6.1,4.5L207.2,16h0c-.9,1.1-1.7,1.2-2.4.4s-1.2-1.5-1.2-1.9l.8-2.3A10,10,0,0,1,207,8.9a39.4,39.4,0,0,1,6.3-4.3A6.3,6.3,0,0,1,216.7,3.8Zm-11.5,8.9h.3c.5-.4.8-.8.8-1.1v-.3h-.2Q205.2,12.3,205.2,12.7Zm.8,1.6h.3v-.2h-.2Zm.4,2.8h0Zm.5-6.9h0c.2-.1.4-.2.4-.5h-.1Zm1-.9a4.5,4.5,0,0,0,2.6-1.4l.6-.4h0l-.4-.4h-.1a13.8,13.8,0,0,0-2.3,1.4C208,8.5,207.9,8.8,207.9,9.3Zm.8,2.3h.1c.2,0,.3-.2.5-.5h-.2A.7.7,0,0,0,208.7,11.6Zm3.1-5,.2.2.8-.2V6.2h-.2A.9.9,0,0,0,211.8,6.6Zm1.5-1.1h.7a5.1,5.1,0,0,0,2.8-.7V4.7h-.7A4.9,4.9,0,0,0,213.3,5.5ZM215.7,7v.2h.3V7Zm4.7,29.8a9.7,9.7,0,0,1,3.3,1.4c.7.2,1,.3,1,.4s-.4.3-1.1.4h-.1l.4,1.1a3.3,3.3,0,0,1-1.4,4.4c-2.6.1-4.3-1.1-5.2-3.7l-.2-1C217.1,39.2,218.2,38.1,220.4,36.8Zm-2.1-13.1v.2c0,.9.2,1.4.8,1.4s.1-.2.2-.5-.1-1.9-.3-1.9h-.3C218.4,23,218.3,23.3,218.3,23.7Zm.4,2.6h0a.5.5,0,0,0,.4.6h.1v-.3a.8.8,0,0,0-.4-.7Zm.2-20.8h0c0,.1.1.2.4.2s.7-.1.7-.3h-1.1Zm.3,25.1.3.8-.3,1h.4c.3,0,.5-.2.7-.5v-.2a2.2,2.2,0,0,1-.2-1.2l-.3-.2h-.3Zm.3,10c0,.1.2.2.6.4s.1.3.2.3h.2l.7-.9a.7.7,0,0,0-.4-.5h-1C219.6,40,219.5,40.2,219.5,40.6Zm.5-2.7h0a4.3,4.3,0,0,0,1.9.8h.1v-.2a2.1,2.1,0,0,0-1.6-.6Zm.6-12.7h.3v-.2h-.3Zm2.1-7.5v.2h0ZM223.2,7h-.1a2.7,2.7,0,0,0,1.7,1.4h.3C225.1,8.1,224.5,7.6,223.2,7Zm0,13.6h.1c.4,0,.6-.1.7-.3h-.2C223.4,20.4,223.2,20.4,223.2,20.6Zm2.9-9.8h0a.6.6,0,0,0,.3.6h.1a.5.5,0,0,0-.4-.6Z" transform="translate(0 -0.5)" style="fill:#231f20"/></g></g></svg>