<svg xmlns="http://www.w3.org/2000/svg" viewBox="0 0 400.8 64.9"><title>icn_rotator_Asset 40_adj</title><g id="Layer_2" data-name="Layer 2"><g id="Layer_1-2" data-name="Layer 1"><path d="M13.7,9.4a66.4,66.4,0,0,1,9.2,1.8A26.1,26.1,0,0,0,27,12.9a2.4,2.4,0,0,0,.5-1.8h0v-.5c0-.5.4-.8,1.2-.8a4.1,4.1,0,0,1,2.1-.5c1.2,0,1.8.1,1.8.4l.6,5.8v1.8c0,1.5-.2,2.3-.6,2.6s-.7.6-.9.6c-2.3-.2-3.4-.5-3.4-1A3.5,3.5,0,0,0,26,17.4c-4-2-6.8-3-8.5-3H15.7q-3,0-3.6,1.2a4.6,4.6,0,0,0-.8,2.7h0c0,2.3,1.2,4.1,3.6,5.6A15.2,15.2,0,0,0,21,25.2c0,.4.9.9,2.8,1.4a2.7,2.7,0,0,0,2.4.9c1.3.6,3.1,2.1,5.5,4.7l.2.3v.2h-.3a10.1,10.1,0,0,1,.8,2.2c0,3.7-.6,6.1-1.8,7s-1.6,2.2-3.3,3.3a8.9,8.9,0,0,1-6,2.6H19.2c-3.3-.5-4.9-.9-4.9-1.2-1.9-1.3-2.9-2-3.3-2a11.3,11.3,0,0,1-4.2-2.9H6.6C6,43.3,5.6,44,5.3,44c-2.6-.4-3.9-.8-3.9-1.3A31.5,31.5,0,0,1,1,37.3l.6-3.8c0-1.4.2-2.1.5-2.1L6,30.9c.3,0,.6,1.2.9,3.5l1.8,3.1a49.9,49.9,0,0,0,5.4,3.7A5.3,5.3,0,0,0,18,42.8h2.2a4.7,4.7,0,0,0,4.4-2.2,8.6,8.6,0,0,0,2.1-4.5h0c0-1.3-1-2.8-3.1-4.5a4.3,4.3,0,0,0-3.5-1.6c-.7-.4-2.5-.7-5.5-1.1l-5-2.6L7.2,24.1a8.4,8.4,0,0,1-1.6-3.3v-1l-.2-2.4a3.1,3.1,0,0,1,1.1-2c0-.5,1-1.7,3-3.4s2.9-1.8,3.2-2.4ZM1.9,38.3v1.6H2c.3-.3.4-1.3.4-3v-.5H2.2C2.1,36.3,2,36.9,1.9,38.3Zm1.7,3.2v.2l.3.3h0l.2-.2h0l-.2-.2ZM4,33.3v.3h.4v-.3ZM6.5,17l.3,1.6H7V16.8H6.7Zm.1,22.4v.2a2.4,2.4,0,0,0,1.8,1.2h0v-.2c-.8-.8-1.4-1.2-1.7-1.2Zm.4-24V16H7l.3-.6H7Zm1,7.4H8v.2h.2v-.3H8Zm.1-5.2v.2h.2l.2-.3H8.4Zm.7-2.8h.4v-.2H8.8Zm.4,8.3h0c.3.9.5,1.3.8,1.3h.2l.3-.3h0c-.5-.7-.9-1-1.3-1Zm.1-7.4h.3c1-.6,1.4-1.1,1.4-1.5h-.2q-.6,0-1.5,1.5Zm1.5,6.9h.8c-.1-.2-.3-.3-.7-.3Zm1.5.5h-.1v.4l.4.4h.3v-.3A.7.7,0,0,0,12.3,23.1Zm0,3.2h0c0,.2.3.5.8.7h.1Q13.2,26.6,12.3,26.3Zm.4,18.5h0c0,.2.6.4,1.7.7l.2.2h.3c-.1-.6-.2-.8-.4-.8Zm.6-34.5v.2c0,.2.3.3.8.4s1.7-.2,1.7-.4v-.2c0-.3-.6-.5-1.7-.5A1,1,0,0,0,13.3,10.3Zm1,14.2h-.1A7,7,0,0,0,16.5,26l.2-.2C16.7,25.6,15.9,25.1,14.3,24.5Zm.8-11.6.6.3a1.9,1.9,0,0,0,1.3-.6l-.3-.3H16Q15.1,12.3,15.1,12.9Zm.8,33.6h0l.2.3h.5c0-.1-.2-.2-.6-.2Zm.4-.9v.3h.2v-.2Zm1,1.2a3.7,3.7,0,0,0,2.3.5h2.8c-.2-.3-1.6-.5-4.3-.5C17.5,46.6,17.3,46.7,17.3,46.8Zm.4-32.9c0,.3.7.5,2.2.6v-.2c0-.2-.6-.4-1.9-.6h-.1Zm0,12.2c0,.2,1.4.6,4.4,1.2h1a9.7,9.7,0,0,0-4.6-1.6C18,25.9,17.7,26,17.7,26.1Zm.7,1.8v.2l1,.3h.7A5.4,5.4,0,0,0,18.4,27.9ZM23,46.6v.2h.4c.8,0,1.1-.1,1.1-.3H23Zm.5-33.7h0c0,.2.2.3.7.3h.2Q24.4,12.9,23.5,12.9Zm.7,2.3h-.1a8.2,8.2,0,0,0,2.5,1.1h0Q26.6,16,24.2,15.2Zm.3,13.6h0a19.4,19.4,0,0,0,3.2,1.9,3.8,3.8,0,0,0,1.9,1.1h.1v-.2c-.9-1.3-2.5-2.2-4.8-2.9Zm1.4,12.8v.3H26a2.4,2.4,0,0,0,.9-1.1v-.2A3,3,0,0,0,25.9,41.6Zm.6-9.1v.3c0,.4.4.9,1.1,1.5h.3v-.5c0-.5-.4-1-1.3-1.3Zm.6,11.4h0c0,.1.1.1.2.1s1.3-.6,2.1-1.9h-.2Zm.1-29.2a5.3,5.3,0,0,0,2,.9h.1c0-.3-.6-.5-1.9-.8h-.2Zm.1,22.6v.3h.3v-.4Zm1.5-18.2a2.5,2.5,0,0,0,1.7.4h1.3v-.3h-3Zm.6-9v.2c.5.7.9,1.1,1.2,1.1a1.3,1.3,0,0,0,.8-.7v-.2C31.4,10.3,30.7,10.1,29.4,10.1Zm1.3,27.7v.3l.2.2H31c.3-.1.4-.4.4-1h-.2Zm.8-25.5h.4v-.3h-.3Z" transform="translate(-1 0)" style="fill:#b75326"/><path d="M38.8,15.1h.1a5.4,5.4,0,0,1,3.3.9c.7.1,1.1.2,1.1.3v.2c-.7,0-1,.2-1,.5l1.2.3c.1.2.4.3.9.5h1.5l.7.2,4.8-1.1h.1A21.5,21.5,0,0,1,59.9,21c2.7,2.6,4.2,4.6,4.5,5.9a17.9,17.9,0,0,1,.7,2.9c-.6,4.9-1.1,7.4-1.5,7.4a26.1,26.1,0,0,1-2.8,4.1l-.5.5V42h0a4.9,4.9,0,0,1-2.3,1.7,1.7,1.7,0,0,0-.6,1.2,4,4,0,0,1-2.9.9,27.7,27.7,0,0,1-6.2,1.4,6.6,6.6,0,0,1-2.6-1l-3-.3-.4.2c.3.4.4,1.5.4,3.3v.9l.5,2.8v4.9c0,1,.3,1.5,1,1.5l.4.4h0a.4.4,0,0,0-.4.4,3.2,3.2,0,0,1,.9,2.3l.4,1.2a8,8,0,0,1-2.3.3L39.1,64c-.7.6-1.1.9-1.3.9s-1.8-1.3-2.6-3.1h-.1v-.2l.4-.2h0a1.5,1.5,0,0,1-.5-1V60h.2a.3.3,0,0,1,.1.2H36v-.7a1.6,1.6,0,0,1,1.4-.6,12.4,12.4,0,0,0,.2-3V51.5a55.9,55.9,0,0,0-.4-5.6V20.6H35.6l-.2-.3V16.9a1.3,1.3,0,0,1,1.5-1.5A4,4,0,0,1,38.8,15.1ZM36,16.3a.5.5,0,0,0,.3.5h.3a.6.6,0,0,0,.6-.3v-.2a.6.6,0,0,0-.6-.3h-.1C36.2,16,36,16.1,36,16.3Zm.6,46.1h0c0,.1.3.2.8.3s1.1-.2,1.1-.3H36.7Zm0-44.5v.3a1,1,0,0,0,.5.8h.2v-.6q0-.6-.3-.6h-.5Zm1.1,42.9h0c0,.2.2.3.5.3V61l-.2-.2Zm.8-38.6a3.3,3.3,0,0,0,.3,1.5h0l-.4,1.1.4,1a72.5,72.5,0,0,0-.6,7.7v4.5a14.8,14.8,0,0,0,.3,3.1l-.3,1.9v.6l.2,5.3h.1a.7.7,0,0,0,.6-.7h0l-.3-.6c.2,0,.3-1.7.4-5.2V38.2q.3-9.8.3-14.4h0c0-2.5-.1-3.7-.5-3.7S38.5,20.8,38.5,22.2Zm0,28.8v.9c0,.7.1,1,.3,1a5.2,5.2,0,0,0,.5-2.3v-.3q0-.1-.3-.3A1.1,1.1,0,0,0,38.5,51Zm.6,3.5-.2.3v.8a5.2,5.2,0,0,0,.2,1.1h.3V55.5c0-.7,0-1-.2-1Zm1.4-28.4-.2,4.3v.3h.2V25.9h-.1Zm0,34.7h0l.2.3h.2V61h0l-.2-.3h-.2Zm.1-37.4v.4c.1,0,.2-.4.3-1.1h-.1C40.6,22.8,40.6,23,40.6,23.4ZM42,61h0l.2.2h.4V61H42Zm4.9-37.9c0,.2-.4.6-1.3,1h.6c-1.8.8-2.9,1.6-3.2,2.3s-.4,3.8-.6,11.5v.8c0,.2.9.9,2.7,2.3l2.6,1.2.3.4h.3a9,9,0,0,0,4.2-1.4A8.4,8.4,0,0,1,55.1,40c2.1-1.8,3.2-3.4,3.2-4.9v-.9l-.2-.9h0l.5-.6v-.2c-.4-.2-.5-.6-.5-1.5a4.8,4.8,0,0,0-1.3-3.5,5.6,5.6,0,0,0-2.1-2.7c-.3-.5-1.4-1-3.3-1.4h-.5l-2.9.2h-.2a.9.9,0,0,1-.8-.4ZM42.4,40a.8.8,0,0,0,.8.7h0a.9.9,0,0,0-.6-.6Zm.2-22.1v.2H43v-.2l-.2-.2h-.1Zm.3,25.6h-.1c0,.5,1.2.8,3.7,1l1.2-.7h0l-.2-.3h-.3l-1.8.3A10.8,10.8,0,0,0,42.9,43.5Zm.5-20.7V23h.3l.3-.3v-.2h-.2Zm1-4.3h.5l.2-.2v-.2h-.1C44.6,18.3,44.4,18.4,44.4,18.5Zm3.8.6c0,.2.8.4,2.5.6,0,.1.2.2.6.2h.9l.3-.3H51l.3-.3v-.3H49.7C48.7,18.8,48.2,19,48.2,19.1Zm.7,3.7c0,.2.2.2.8.3h.4v-.2l-.2-.3h0l3.4-.4.3-.2-.2-.3h-.5C50.2,21.8,48.9,22.2,48.9,22.8ZM49.7,44h.2c2.3-.4,3.5-.9,3.5-1.2h-.3C50.8,43.3,49.7,43.7,49.7,44Zm2.5-26.3v.2a2.7,2.7,0,0,0,1.2.3h.3c0-.3-.5-.4-1.4-.5Zm1.1,5h0a1.6,1.6,0,0,0,1.3.5h.7c-.1-.2-.6-.4-1.5-.4Zm1.1-4.2h-.1a3.3,3.3,0,0,0,1.7,1h.2C56.2,19.1,55.6,18.7,54.4,18.5Zm.8,3.5h0l.2.2h.2l-.2-.2Zm.1,21.8h.1c.9-.2,1.3-.5,1.4-.7h0v-.2h-.1C55.7,43.2,55.3,43.5,55.3,43.8Zm.9-20.2h0c0,.5.4.9,1.3,1.2h.2c0-.6-.4-1.1-1.3-1.4Zm.7,16.2H57a2.4,2.4,0,0,0,.9-.8h-.1C57.3,39.3,57,39.5,56.9,39.8Zm.1,2v.3h0c.6-.1.9-.4.9-.7h-.1A.8.8,0,0,0,57,41.8Zm.3-21.4h0c0,.2.2.3.5.5H58v-.2a.5.5,0,0,0-.5-.3Zm.8,6v.3a6.7,6.7,0,0,0,.9,2.1h.1v-.3a2.5,2.5,0,0,0-.7-2.1Zm1,3.3V30h.4v-.3Zm0,5.6h0c.5,0,.8-.3.8-.6v-.5l-.2-.2h-.1A1.7,1.7,0,0,0,59.1,35.3Zm.6-3.4v.9l.2.2H60l.2-.2a1.5,1.5,0,0,0-.4-.9ZM60,21.7h-.1a2.7,2.7,0,0,0,1,1.1H61C61,22.5,60.7,22.1,60,21.7Zm1.3,1.6v.2h.3v-.2Zm.1,13.8h.1a8.3,8.3,0,0,0,1.2-4.4v-.8h-.1C62.2,31.9,61.8,33.6,61.4,37.1Zm.5-10.7.5.8h.3a.9.9,0,0,0-.6-.8Z" transform="translate(-1 0)" style="fill:#b75326"/><path d="M70.3.3l2.5.6L76.9.7c1,0,1.5.3,1.5,1a49.9,49.9,0,0,0-.3,6.2V29.4l-.3,11.7a36.3,36.3,0,0,0,6.3.8h.1v.8c0,.3.2.6.6,1.1a40.2,40.2,0,0,0-1.5,4.3l-.5.5h-.2a1.8,1.8,0,0,0-1.6-.6L70.9,46.7c-3.1,0-4.6-.2-4.6-.5a14.1,14.1,0,0,0,1.1-4.8h1.3a5.6,5.6,0,0,1,1.8-.5l1,.3h.7q.6,0,.6-1.2c.1-1.5.3-6,.6-13.6-.3-2.4-.5-9.2-.7-20.4-.2-.2-.4-.4-.6-.4l-2.8.2c-.5-.1-.7-.2-.7-.5.2-3.2.4-4.8.8-4.8Zm-3,45.4.2.2h.3v-.2l-.2-.2h-.2Zm.8-3h.4v-.3h-.1ZM69.4,3.4v.4l.2.3h1.6V3.8l-1.1-.5-.3-.2h-.1Zm.2-1.6h0a.5.5,0,0,0,.6.6h.2a2.1,2.1,0,0,0,1.4-.7H69.6Zm.3,40.6h0c0,.3.1.5.4.5h.1v-.5l-.2-.2h-.3Zm.7,2.1h0v.2h1c.7,0,1-.1,1-.2h0L71,44.2h-.2Zm.6-1.3h1V43h-.5C71.4,43,71.2,43,71.2,43.2ZM73,1.8l.5.2h.6l.2-.2H73Zm.7,36.5v.2c.1.3.1.4.2.4l.4-.3v-.4c-.1-.6-.2-.8-.4-.8S73.7,37.7,73.7,38.3Zm.2-20v.3h.4v-.3h-.1c0-.2.1-.3.5-.4v-.2h-.3C74.1,17.8,73.9,18,73.9,18.3Zm.3-6.6h.3v-.3h-.2Zm.1-3.4v.2l.2.2h.1V8.1h-.1Zm.6,17.9H75q.3,0,.3-2.4C75.1,23.9,75,24.6,74.9,26.2Zm.2-22.1h.4l1.4-.8a1.3,1.3,0,0,0,.3-.7h-.3a1.3,1.3,0,0,0-1.1.7C75.3,3.5,75.1,3.7,75.1,4.1Zm1.2,25h-.2V40.7h.6c.1,0,.2-.2.2-.6Q76.8,29.1,76.3,29.1ZM77,16.7l-.2,1.2v.8H77c.1,0,.2-.3.2-.8v-1Zm-.1,2.5v.4h.3v-.3Zm0-3.3h0l.2.3h.1V16h-.3Zm2,28.1h0c0,.2.7.4,2.1.4h2.1v-.2h-.6Zm1.6,1.7.2.2H82a.6.6,0,0,0,.6-.3H81.2C80.7,45.5,80.5,45.6,80.5,45.7Zm1.3-3.3h0c.1.3.5.4,1.1.4l.3-.2v-.2H81.8Zm.1,4.6v.2h.9V47h-.9Z" transform="translate(-1 0)" style="fill:#b75326"/><path d="M99.5,15.6c1.7,0,3.8.8,6.3,2.2s3.2,2.7,3.2,3.3c1.6,3.5,2.4,5.6,2.4,6.2v.5a10.8,10.8,0,0,0-1,2.9h-5.6l-1.7.2c-6-.5-10.1-.7-12.5-.7H89.4a4.3,4.3,0,0,0-.8,1.5,4.8,4.8,0,0,1,.5,2.2c0,1.6.2,2.5.7,2.8v.3h0l-.4-.2v.2l.6.6a3.1,3.1,0,0,0,1.1,2c1.3,2.4,2.8,3.9,4.4,4.5a15.8,15.8,0,0,0,4.7.6,5.1,5.1,0,0,0,1.7-.7c.8-.3,2.4-1.6,4.7-4.1h0c0-.1-.3-.2-.8-.3l-.2-.3a7,7,0,0,1,3.5-3.5l2.2,1.7c1,1.4,2.2,3.1,3.7,4.9v.3c-1.4,1.7-2.3,2.5-2.9,2.5H112c0-.9-.6-1.4-1.7-1.5a14.7,14.7,0,0,0-2.7,2,15.5,15.5,0,0,1-4.9,2.1,30.9,30.9,0,0,1-5.7.9l-3.5-1.3c-1.9,0-3.8-1.1-5.4-3.2a7.3,7.3,0,0,1-1.7-2.7c0-.3-.5-2-1.4-5.1a15.5,15.5,0,0,1-.4-3.4h0a21.9,21.9,0,0,1,4.9-14.4,4.4,4.4,0,0,1,2.9-2.3l3.5-.7ZM85.6,31.3h0v.2h0c0,.2-.1.5-.1.9v.3a4.1,4.1,0,0,0,.6,2h.2C86.3,32.7,86.1,31.6,85.6,31.3Zm0-2.3v.4c0,.2.1.4.2.4s.3-.2.3-.6l-.2-.2Zm.8-3.3a5.4,5.4,0,0,0-.8,2.5h.1c.3,0,.6-.7,1.1-2.2S86.6,25.7,86.4,25.7Zm.1,11h0l.2.2h.1v-.2h-.3Zm.7,1.1h-.1c.2.6.4,1,.7,1h0A1.4,1.4,0,0,0,87.2,37.8Zm1.7-8.2H89l1.1-.2h0l-.2-.3h-.2A1,1,0,0,0,88.9,29.6Zm.1-7.4h.2Zm0,3.9v.2l.2.2h0a2.7,2.7,0,0,0,.8-.7v-.2h-.3C89.4,25.6,89.2,25.8,89,26.1Zm.6-1.6v.2c0,.5,3.8,1,11.2,1.5l.7.2h.7a15.2,15.2,0,0,0,3.4.9c0,.1.1.2.4.3a2.5,2.5,0,0,0,.4-1.1V25.3c0-.6-1.1-1.8-3.2-3.6A5.3,5.3,0,0,0,100,20l-2-.3c-3.5.7-5.7,1.5-6.8,2.5A10.6,10.6,0,0,1,89.6,24.5Zm.1-1h0a.5.5,0,0,0,.3-.5h0A.5.5,0,0,0,89.7,23.5Zm.2,21.2v.2c0,.3.4.5,1,.7l.3.3h0a5.3,5.3,0,0,0-1.1-1.1Zm.4-23.9V21h.1c.6-.2.8-.3.8-.5h-.3C90.7,20.4,90.5,20.6,90.3,20.8Zm.3,8.4v.3h.3v-.2h-.3Zm.7-11.3h0l.2.2h.1c.8-.2,1.2-.4,1.2-.7v-.3l-.2-.3h-.2C91.7,17.2,91.3,17.5,91.3,17.9Zm.8,10.7v.2a48.2,48.2,0,0,0,6.6.5H97.4c0,.2.6.3,1.6.3s2.6-.1,2.6-.4S98.4,28.8,92.1,28.6Zm.7-2.1v.2a8.3,8.3,0,0,0,4.2.8h1.4v-.3Zm.1-6.1a9.5,9.5,0,0,1,2.5-1h-.7Q92.9,19.5,92.9,20.4Zm.9-3.4h.1a14.1,14.1,0,0,0,3.7-.7q.6-.2.6-.3H98a11.7,11.7,0,0,0-4.1.9h-.1Zm.5,27.9h0c0,.2.4.4,1.3.6h.1a3.6,3.6,0,0,0-1.3-.5Zm2.2-26.6h0c0,.2.8.4,2.5.7h.1v-.2a1.8,1.8,0,0,0-1.6-.8h-.3C96.7,18,96.5,18.1,96.5,18.3Zm1.3,27.3v.2H98v-.2Zm2.3,1.6H98.6c-.4,0-.6,0-.6.2h0l.2.2h1.1a18.6,18.6,0,0,0,4.5-.6h0c-.1-.2-.3-.3-.7-.3h-.3A6,6,0,0,0,100.1,47.2ZM99,17.3v.2a6.7,6.7,0,0,0,2.5.4h.1v-.2c0-.1-.2-.2-.8-.3Zm1.2,1.4h0a22.8,22.8,0,0,0,3.8,2h.1l.6-.2h.4l-1-.4-1.3-.5c-.2-.7-.9-1.1-2-1.1h-.1C100.4,18.5,100.2,18.5,100.2,18.7Zm3.7,9.4v.2h.2v-.2Zm.1,1.7c0,.1.3.2,1,.2h.7c0-.2-.5-.4-1.3-.4S104,29.7,104,29.8Zm0,14.1h.1a1.3,1.3,0,0,0,.5-.7h0C104.2,43.4,104,43.6,104,43.9Zm.4,2.7c.4,0,.8-.3,1-1h-.1C104.7,46,104.4,46.3,104.4,46.6Zm.6-24.9a.8.8,0,0,0,.7.5h0l.2-.2v-.4l-.3-.3C105.2,21.3,105,21.4,105,21.7Zm.9,20.2h.2c.4,0,.6-.3.8-.8h0A1,1,0,0,0,105.9,41.9Zm.5-19.4c.4,1.3.7,2.1,1,2.2h.3c-.3-1.3-.6-2-1-2h-.3Zm.9,15.9h.4c.3,0,.4-.1.4-.2l-.2-.3h-.1A.5.5,0,0,0,107.3,38.4Zm.3,5.8h.2c.4-.4.7-.7.7-.9h-.1C107.9,43.5,107.6,43.8,107.6,44.2Zm.9-18.8v.4l.2.2c.2,0,.3-.2.3-.4v-.2h-.5Zm.3,17v.2c.7-.2,1-.5,1-.8h-.1C109.2,41.7,108.9,41.9,108.8,42.4Zm1.4-.6h.2a.5.5,0,0,0,.4-.6h-.2A.7.7,0,0,0,110.2,41.8Zm2.2-.6h-.1c.1.5.3.8.5.8h.1v-.2h0Q112.9,41.2,112.4,41.2Z" transform="translate(-1 0)" style="fill:#b75326"/><path d="M116.5,15.4l2.9.2h5.1v.2a6.7,6.7,0,0,0-.3,1.7v1.1c.2,1.2.5,1.7,1,1.7s1.1-.8,2.5-1.3a21.9,21.9,0,0,1,8.1-2.2,8.4,8.4,0,0,1,4.6,1.9,8.1,8.1,0,0,1,3.4,2.9,17,17,0,0,1,2.5,9.5v.5L146,36l.4,3.2-.6,2.9h0v.6h3.4a1.9,1.9,0,0,1,1.3.3c-.3,3-.6,4.5-1,4.5a6,6,0,0,1-2.7.7h-1.2a23.5,23.5,0,0,0-6.2.8c-1.5-.2-2.2-.9-2.2-2.2V44.8a4.1,4.1,0,0,1,1-3.1c.4-1.9.8-3.8,1.3-5.5l.4-5.4c.1,0,.2-.5.2-1.4s-.9-2.7-2.6-4.8a12.1,12.1,0,0,0-2.4-.8,8.8,8.8,0,0,0-6.4,3q-.3,0-3,3c-.7.5-1,1.9-1,4.2.1,4.1.3,6.2.5,6.2s2.4.6,2.4.9v.3h-2.3v.2q0,.3,2.4.6a2.1,2.1,0,0,1,.4,1.5h0a9.4,9.4,0,0,1-.6,3.1h-7.2a1.4,1.4,0,0,1-1.5-1,40.8,40.8,0,0,1-.6-4.6c0-.2.6-.5,1.9-.7l.3-.4h0a1.8,1.8,0,0,0-.6-1V33.7l.3-5.7c0-3.8-.2-5.8-.6-5.8h-.3l-2.9.4c-.3,0-.7-.3-1.1-.8v-.2a1.7,1.7,0,0,0,.3-1V18.3l.9-2.8Zm-.3,4.1h0a.3.3,0,0,0,.3.3,1.9,1.9,0,0,0,1.2-.5h-1.1C116.3,19.4,116.2,19.4,116.2,19.5Zm.4-2.1h0c0,.2.3.2,1,.3,2.7,0,4-.2,4-.6l.2-.4h-.1Zm.1,4.1h.6l.3-.2h-.3Q116.7,21.4,116.7,21.5Zm1.2-2.6.2.2h.1l.8-.3h-.3C118.2,18.7,117.9,18.8,117.9,18.9Zm.5,1.4h1.4c.4,0,.7.1.7.3h0a1.3,1.3,0,0,0-.3.7l.8.2a.2.2,0,0,0,.2-.2V19.1H121l-2.5,1h-.1Zm.6,21.5h0c.1.8.3,1.2.8,1.2h.3l.3-.3h0c-.4-.5-.7-.8-.7-1.2h-.6Zm1.7-19v.3h.1l.2-.9h-.2C120.8,22.2,120.7,22.4,120.7,22.8Zm1,21.7c0,.2.6.3,1.6.3s3.1-.1,3.1-.3-.7-.4-2.1-.4A4.9,4.9,0,0,0,121.7,44.5Zm.8-24V22a1.2,1.2,0,0,1-.3.9v.4l.3.9v.4a.7.7,0,0,0,.4.7c.1,0,.2-.4.4-1.4s.8-.8.8-1.1a3.2,3.2,0,0,0-.7-1.3c-.1-.7-.2-1-.4-1Zm.9,3.9v.4a1.2,1.2,0,0,1-.6.9.7.7,0,0,1,.4.6c0,2.1.1,3.2.4,3.2h.1a7.8,7.8,0,0,0,.4-2.9c0-1.6-.2-2.4-.5-2.4h-.1C123.5,24.2,123.4,24.2,123.4,24.4Zm1.6-3.3v.2a2.7,2.7,0,0,0,1.9-1.1h-.1C126.3,20,125.8,20.4,125,21.1Zm.1,3.4v.2c1.1-.1,2.5-1,4.5-2.7h-.4a5.4,5.4,0,0,0-1.5.8C126,23.4,125.1,24,125.1,24.5Zm.4,1.7.2.2h.2V26h-.1Zm1.5-.3h0v.2h.3v-.7h-.1Zm1.2-.9h.1c.7-.6,1-1,1-1.3h-.1C128.8,23.7,128.5,24.1,128.2,25Zm.5-5.5h.1l.5-.3h-.1C128.8,19.3,128.7,19.4,128.7,19.5Zm1.1-.6v.2c2-.5,2.9-.8,2.9-1h-.1a5.7,5.7,0,0,0-2.9.9Zm.3,5.4c.9-.2,1.3-.4,1.3-.7h-.3C130.5,23.5,130.2,23.7,130.1,24.3Zm2.9-3.5V21h.3c.6-.1.9-.3.9-.4v-.2h-.4C133.3,20.5,133,20.6,133,20.8Zm1-3h0a3.1,3.1,0,0,1,1.5.7l.7.2h2c-.1-.2-.3-.3-.7-.3h-.9a3.8,3.8,0,0,0-1.9-.8C134.3,17.5,134.1,17.6,134,17.8Zm.1,4.3h.1c1,0,1.4-.1,1.4-.2l-.5-.2C134.4,21.9,134.1,22,134.1,22.1Zm2.1,1.2v.2h1.6l.2-.2v-.2l-.3-.3h-.3C136.6,23,136.2,23.1,136.2,23.3Zm1.3-2.7c0,.2.4.3,1.1.4a.9.9,0,0,0,.3-.6c0-.2-.3-.3-1-.5A.8.8,0,0,0,137.5,20.6Zm.5,27.1v.2c0,.2.6.4,1.7.4h.8a2.8,2.8,0,0,0-2-.6h-.2Zm.3-3v.4h.4l-.3-.3Zm.1-23.2h.4Zm1.3-1.1c0,.2.2.3.5.3h.3l.3-.2h0a.8.8,0,0,0-.6-.2h-.3Zm.1,1.7v.2a5,5,0,0,0,.8,1.7c0,.3.1.5.2.5l.3-.2V24a2.6,2.6,0,0,0-1.2-1.9Zm0,24.2a.7.7,0,0,0,.7.5c2.2-.1,3.3-.2,3.3-.4s-.8-.5-1.6-.5S139.8,46.1,139.8,46.3Zm.7-7.5a2.1,2.1,0,0,1,.3,1.2h.1l.2-.8v-1A.5.5,0,0,0,140.5,38.8Zm.3-13.7v.3a16.2,16.2,0,0,0,.9,2.9v-1C141.5,25.9,141.2,25.1,140.8,25.1Zm0,12.7h.1c.2-.1.2-.3.2-.7v-.7h0C141,36.5,140.9,36.9,140.8,37.8Zm2.1,4.7v.3l.2.2h.1v-.2h0l-.2-.3Zm.1-1.1h0l.3-.7h-.1C143,40.7,143,40.9,143,41.4Zm0-3.2v.3h.2v-.3Zm.1-4.9h0l.2.8h.3C143.6,33.6,143.4,33.3,143.1,33.3Zm.4-8q.1,3.3.6,3.3h.1q-.1-3.3-.6-3.3Zm1.1,13.2-.2,1.3v1.5h.1a3.4,3.4,0,0,0,.8-1.8h0C145.3,38.8,145,38.5,144.6,38.5Zm1.8,5.4v.2c1.9,0,2.8-.2,2.8-.4v-.2h-.8C147.1,43.6,146.4,43.7,146.4,43.9Zm.6,1.3v.2a.5.5,0,0,0,.5.3,1.4,1.4,0,0,0,1.3-.5h0c-.1-.2-.3-.3-.7-.3h-.3C147.3,44.8,147.1,44.9,147,45.2Z" transform="translate(-1 0)" style="fill:#b75326"/><path d="M178.7,0a7.6,7.6,0,0,1,2.6.7c.1,0,.2.6.2,1.9a1.6,1.6,0,0,1,.7,1c-.2,2-.4,6-.6,12.1a1.5,1.5,0,0,0-.1.6c-.3.2-.5.4-.5.7v.9a8.8,8.8,0,0,1-.6,2.9v.9c0,.2.2.3.6.4v.4c-.6,5.2-.9,8.7-.9,10.3s-.1,2.8-.4,2.8h0c.2,0,.4.3.5.8v.7c0,.7-.3,2.6-.8,5.6v1.5c2.1.4,3.1,1,3.1,1.7l-.3.4V47l.3.4h0c-.3.9-1.5,1.4-3.5,1.4h-.4l-.3-.6h-.6l-1.7.4h-2.3c-.2,0-.4-1-.6-3.1v-2a5.8,5.8,0,0,0-2.5,1.4,24.9,24.9,0,0,1-9,3,14.8,14.8,0,0,1-6.5-3.5,14.6,14.6,0,0,1-1.9-2.9,5.6,5.6,0,0,1-1.1-1.9v-.2h.1a6.9,6.9,0,0,1,1.6,2.1h.4v-.8a5.8,5.8,0,0,0-1.3-3h-.3c-.3,0-.4.4-.4,1.1H152v-.3a28.4,28.4,0,0,1,.3-3.1h.3v.6h.1a.8.8,0,0,0,.3-.7V33.8c-.1,0-.2.2-.2.6l-.4.4-.2-.5a20.4,20.4,0,0,1,3-9.9,24.5,24.5,0,0,1,2.9-4c1.3-1.2,3.4-1.7,6.2-1.7h.6a16.3,16.3,0,0,1,10.7,3.4l.4.2h.2c.4-1.8.8-6.4,1.1-13.8.2-.3.3-.4.5-.4h0A7.5,7.5,0,0,0,175,6.7c-.4,0-.6-1.4-.7-4.2l1-.3h0c0-.2-.2-.3-.5-.3s-.3-.3-.3-.5.5-.6,1.4-.6V.5l-.2-.3h3Zm-24,32.8c0,.1.1.2.3.2s.4-.4.6-1.3v-.3h-.2C155.2,31.4,154.9,31.9,154.7,32.8Zm.7-5.5v.2h.2c.2-.1.4-.5.8-1.5s2.1-2.5,2.5-2.5l.2-.5h-.4a7.5,7.5,0,0,0-2,1.3A7.3,7.3,0,0,0,155.4,27.3Zm.3,15.8h0c0,.3.6.4,1.9.6v-.2l-1.7-.6Zm.1-7.2v.9c0,.6.7,2.3,2.3,5a8.1,8.1,0,0,0,3.7.9,18.5,18.5,0,0,0,8.3-2c1.1-1.7,2.1-2.5,2.9-2.5s1-2.1,1.5-4.7a5.2,5.2,0,0,0,.5-2.3v-.6c0-1.7-.3-2.6-.7-2.6a6,6,0,0,1-1.4-1.5l.2-.4c0-.2-.6-.4-1.8-.7l-.4-.3H172c0-.4-2.3-.7-6.8-.7l-.9-.2c-3.3.3-4.9.7-4.9,1.3a14.3,14.3,0,0,0-3,6.6A16.1,16.1,0,0,0,155.8,35.9Zm1.3,8.3c0,.4,1.3.9,3.7,1.3h.4c0-.3-1.2-.8-3.6-1.3h-.3Zm1-22v.2h.4c1.4-.4,2.2-.8,2.2-1.4a1,1,0,0,0-.7-.2h-.3C159.1,20.9,158.6,21.3,158.1,22.2ZM161,46.6v.2h.9a13.7,13.7,0,0,0,2.9-.4h0l-1.8-.2C161.6,46.2,161,46.4,161,46.6Zm1.1-26.1v.3l.2.2h.3l.3-.3v-.2l-.2-.2h-.4Zm.1,3h0Zm1.4,19.9v.2h.8q4-.3,4.5-1.2v-.2h-.2C165.5,42.8,163.9,43.1,163.6,43.4Zm.6-20.3h.2Zm.9,21.7h.6c1.3,0,1.9-.2,1.9-.4h-1.3Q165.1,44.5,165.1,44.8Zm.4-21.1h.3l1.3-.2h-.4Q165.5,23.4,165.5,23.7Zm.4-2.7h2.8c-.1-.3-.7-.4-1.9-.5h-.6A.5.5,0,0,0,165.9,21Zm2.8,2.5.2.3h.3l.2-.2-.5-.2h-.2Zm1.1,19.1v.2h0a1.8,1.8,0,0,0,1-.7v-.2h-.2A1.5,1.5,0,0,0,169.8,42.6Zm.7-21h-.1v.2l1.9.6h.1c0-.4-.3-.7-1-.9Zm.9,1.9.2.2.2-.2h-.4Zm.9.4c0,.1.6.4,1.8.7h.1v-.2a1.3,1.3,0,0,0-1.2-.5Zm1.3,2.4v.5l.3.3h.1c.2,0,.3-.2.3-.4a.6.6,0,0,0-.3-.6h-.2Zm.8,15.8v.3c.3,0,.4.2.4.6h.1l.3-.3v-.5c-.2-.1-.2-.3-.2-.6h-.2A.5.5,0,0,0,174.4,42.1Zm.1,2.4h.2l.2-.2h-.1Zm1.4-40.1v.2h.4c.3,0,.4,0,.5-.2l-.2-.2H176Zm.1-1.5h.8l-.2-.2h-.5Zm1.2,19c0,.3,0,.6.2.6h.1v-.5Zm.4-17.4h.2c1,0,1.4-.1,1.4-.3l-.2-.2h-.8A.6.6,0,0,0,177.6,4.5Zm.1,38v1.3l.2.2h.1v-.8a1,1,0,0,0-.2-.7Zm.2,2.2v.2h.4v-.2Zm1.3,2c0,.1.2.2.6.2h1.6c0-.2-.2-.3-.7-.3S179.2,46.5,179.2,46.7Zm.2-43.2h.2Zm1.3,17h.3v.3h-.3Z" transform="translate(-1 0)" style="fill:#b75326"/><path d="M186.5,14.8a1.7,1.7,0,0,0,1.2.4l.8-.3c5.6,0,8.4.1,8.4.5v1.4a6.9,6.9,0,0,1,.5,2.4v1c-.4,5.7-.8,11.1-1,16.3a3.9,3.9,0,0,0-.2,1.3.6.6,0,0,0,.6.3h.2c2.2,0,3.3.2,3.3.7h-.1v.4A11.3,11.3,0,0,1,201,44l.3,2.5h-9.1c-4.6,0-7-.3-7-1.1a3.5,3.5,0,0,0-.3-1.3,2.3,2.3,0,0,1,.7-.7h.1a.7.7,0,0,0,.6.2h.1l4.3-.3h0c-3.6-.2-5.3-.5-5.3-.8V39.8c0-.5,1.5-.7,4.6-.7q.6,0,.6-2.7l.8-16.3h-.1c-1.6,0-2.1-.1-1.6-.4-2.5,0-3.7-.3-3.7-.9s-.2-.2-.2-.5l.3-.7c0-.2-.2-.4-.4-.6h0a3.2,3.2,0,0,0,.7-2h.3Zm.1,26.5h0c.3.4,1.6.6,3.8.6h.4c.4,0,.6-.1.7-.3h0l-4.5-.3Zm.7-25.2v.2h.3c1.1,0,1.6-.1,1.6-.3h-.3C187.8,15.9,187.3,15.9,187.3,16.1Zm.2.9h0c0,.1.3.2.9.2h2.8c.7,0,1-.1,1-.2h0c0-.3-1.2-.3-3.6-.1Zm7.3-14.3a3.9,3.9,0,0,1,3.4,2.2l.4,2.1a7.5,7.5,0,0,1-1.3,3,3.7,3.7,0,0,1-2.5.8q-3.9,0-4.8-1.2a5.1,5.1,0,0,1-.9-3.4.2.2,0,0,1-.2-.2h0C190.1,4,191.4,3,192.7,3Zm-3.3,1.9h0a5.3,5.3,0,0,0,2.1-.5l-.4-.2C192.1,4.1,191.5,4.3,191.5,4.6Zm.3,29.7c0,.3.1.5.2.5s.2-.2.2-.6v-1a6.2,6.2,0,0,0,.6-2.4V29.5c.3-.1.4-.3.4-.4a3.9,3.9,0,0,1-.3-1.4h0q.3,0,.6-6.9c-.1-.4-.2-.5-.3-.5H193c-.5,0-.9,2-1,6.1Zm1.3,9.3h-.9v.2h2.7v-.2h-1.8Zm-.5-37.3h.4c.5,0,.8-.1,1-.5h-.8a.7.7,0,0,0-.7.5Zm.2,35.7.2.2h.1c.4,0,.5-.2.5-.6h-.3C193,41.6,192.9,41.7,192.8,42Zm.6-4.1v.3h.2l.3-.2h0l-.2-.2h-.1Zm.1-1.1v.4h.1c.3-.1.4-.3.4-.8V36h-.2C193.6,36,193.5,36.2,193.5,36.8Zm.1-19.9v.2c.2,0,.5.2,1,.6h.1a.2.2,0,0,0,.2-.2h.1q.1,0,.3.6h.1l.9-.7v-.3h-2.7Zm.3,3.5.3,1-.4,1c.2.5.3.7.4.7h.1v-.8c0-1.5.2-2.3.6-2.3l.2-.2v-.3h-.5C194.1,19.4,193.9,19.8,193.9,20.4Zm.5,10.5a13.2,13.2,0,0,0-.5,3.5h.1c.2,0,.4-.9.7-2.6v-.9ZM194,9.1v.2h1l.2-.2H194Zm.7,11.9v.3a.5.5,0,0,0,.3.5h.2l.2-.2v-.3a.8.8,0,0,0-.4-.4Zm.8-13.2V8h.2a.9.9,0,0,0,.8-.4V7.4h-.2A1,1,0,0,0,195.5,7.8Zm0,8,.2.2h.1v-.4Zm1.3-9.7v.2h.1l.2-.2V5.8H197Zm1.3,35.8c.1.5.4.8,1.1.8h.2v-.4c0-.1.1-.2.5-.3v-.4a.5.5,0,0,0-.3-.5h-.2c-.2,0-.3.2-.4.6Zm.3-2.7a2.8,2.8,0,0,0,1.3.4v-.2c0-.1-.3-.2-.8-.3h-.5Zm.1,4.2h0l.3-.2h-.2Zm1.5,2.5h.4v-.2h-.1Z" transform="translate(-1 0)" style="fill:#b75326"/><path d="M219.5,4.8h.3a37.7,37.7,0,0,1,5.9,1.5,1,1,0,0,0,.8.5l.3-.2,2.9,3.8c.2-.1.2.1.2.6a12.7,12.7,0,0,1,.7,3.6c0,1.1-.8,1.6-2.3,1.6a8,8,0,0,1-2-.5h0c-.2,0-.3.2-.4.7h-.2q-.3,0-.9-2.4c-.6-2.4-1-3.5-1.2-3.6s-1.8-.5-3.6-.5h-.2l-4.7,1.1c-1.1.8-1.7,1.3-1.7,1.6q0,8.4.6,8.4t5.4.9c.5.2.8.4.8.6a3.1,3.1,0,0,1,1.1,2.2c0,1.7-1.2,2.6-3.7,2.6h-.2a3.5,3.5,0,0,1-2-.7H215c-.8.1-1.3.2-1.3.4v8.4a24.5,24.5,0,0,0,.4,3.8l-.2,1.8v1.7c0,.3,1.2.6,3.7,1s3.4.2,3.9.6l.2.2c-.2,0-.5,1.2-.8,3.5l-2.5-.3h-.8a56.1,56.1,0,0,0-7-.6h-5a1.2,1.2,0,0,1-.3-.9V44.8a9.8,9.8,0,0,0-.2-2.7c0-.3.4-.4,1-.4a11.3,11.3,0,0,1,2.4.5h1c.4,0,.7-.1.8-.4h0a12.1,12.1,0,0,1-.6-4.5,12.9,12.9,0,0,1-.3-2.4v-.2c0-1.2.3-3.8.8-7.8,0-.2-.4-.3-1.1-.3h-.2a17.8,17.8,0,0,1-4.5.8l-.9-.2c.2-3.8.4-5.7.8-5.7s.2-.3.4-.3h.3q4.8,0,4.8-.3c0-2.6,0-4.4-.1-5.5V12.5l-.4-1.1h0A14.6,14.6,0,0,1,211,8.9l2.9-3A15.1,15.1,0,0,1,219.5,4.8Zm-15,17.4v.2l.2.2h.3a1.2,1.2,0,0,0,.5-.5l-.2-.3h-.2A.5.5,0,0,0,204.5,22.2Zm.6,3a4.9,4.9,0,0,0-.4,1v.2l.2.2h.6l.2-.2A1.7,1.7,0,0,0,205.1,25.2ZM207,45.3h0c0,.3.8.4,2.6.6h.1a3.8,3.8,0,0,0-2.2-.6H207Zm.2-22.6h0a.8.8,0,0,0,.4.7c.3,0,.6-.2,1.1-.6s-.3-.3-1.1-.4h-.1Zm0,19.9v.2c0,.2.4.3,1,.4h.7v-.2l-1.5-.3Zm.5-18-.2.2h.7C208.2,24.7,208.1,24.6,207.7,24.6Zm1.3,1.1h.8l.2-.2h-.8Zm1.4,19.5h0c.4.5.7.7,1,.7h.5A2.3,2.3,0,0,0,210.4,45.2Zm.8-12.8.2.6v.8c.2,1.3.3,2,.5,2h.1c.2,0,.4-.8.4-2.2v-.3c0-.8-.3-1.2-.7-1.2h-.3A.4.4,0,0,0,211.2,32.4Zm.3-5-.2,1.8v1h.2V27.4Zm.1,13a9.2,9.2,0,0,0-.2,1.9h.3l.3-.3v-.8q-.1-.9-.3-.9Zm0-1.6v.4h.2v-.4Zm.2-14.8v.5h.3v-.4l-.2-.2Zm.1,7.2h-.1v.4h.2v-.5Zm.2-1v.5h.1l.2-.2v-.3Zm.1-1.1v.2h.2v-.2Zm.6,16.7V46c0,.1.4.3,1.1.4h1l.2-.2c0-.2-.5-.4-1.4-.4Zm2-38.7h0a4.8,4.8,0,0,0,3.4-1V6h-.1A5.7,5.7,0,0,0,214.8,7.1Zm0,16.1v.2a.9.9,0,0,0,.9.5h.4v-.2a1.2,1.2,0,0,0-1-.5Zm3.2.7v.2h.2v-.2Zm.1,1.6h.3c1.2-.2,1.8-.4,1.8-.7h-.4C218.7,24.9,218.1,25.1,218.1,25.5Zm.3,19h.6q1.2,0,1.2-.3H219C218.7,44.3,218.4,44.4,218.4,44.5ZM218.7,9h.2V8.9h-.1Zm.8,37h0l.5.5h.2V46l-.2-.3h-.3Zm.1-38.7h0c0,.1.2.2.5.2h1q0-.3-.9-.3Zm4.5-.2a2.7,2.7,0,0,0,2,1.2V7.8a2.6,2.6,0,0,0-1.8-1h0C224.2,6.8,224.1,6.9,224.1,7.1Zm.7,3.3h0a2.4,2.4,0,0,0,.6,1.5h.2v-.4c-.1-.8-.4-1.2-.8-1.2Zm1.3,3.9h.4V13.3h-.1A1.1,1.1,0,0,0,226.1,14.3Z" transform="translate(-1 0)" style="fill:#b75326"/><path d="M243.2,15.6c1.7,0,3.8.8,6.3,2.2s3.2,2.7,3.2,3.3c1.6,3.5,2.4,5.6,2.4,6.2v.5a9.4,9.4,0,0,0-.9,2.9h-5.6l-1.8.2c-5.9-.5-10.1-.7-12.4-.7H233a3.5,3.5,0,0,0-.7,1.5,4.8,4.8,0,0,1,.4,2.2c0,1.6.3,2.5.7,2.8v.3h0l-.4-.2v.2l.7.6a2.7,2.7,0,0,0,1.1,2c1.3,2.4,2.8,3.9,4.4,4.5a15.1,15.1,0,0,0,4.6.6,4.6,4.6,0,0,0,1.8-.7c.8-.3,2.3-1.6,4.6-4.1h0c0-.1-.2-.2-.8-.3v-.3a7.2,7.2,0,0,1,3.4-3.5l2.3,1.7a49.7,49.7,0,0,0,3.6,4.9v.3c-1.3,1.7-2.2,2.5-2.8,2.5h-.3c0-.9-.5-1.4-1.6-1.5a11.7,11.7,0,0,0-2.7,2,15.5,15.5,0,0,1-4.9,2.1,33.5,33.5,0,0,1-5.7.9l-3.5-1.3c-2,0-3.8-1.1-5.4-3.2a7.5,7.5,0,0,1-1.8-2.7,34.5,34.5,0,0,0-1.4-5.1,25.5,25.5,0,0,1-.4-3.4h0a22.4,22.4,0,0,1,4.9-14.4,5,5,0,0,1,2.9-2.3l3.6-.7ZM229.3,31.3h0v.2h0a2.2,2.2,0,0,0-.1.9v.3a4.1,4.1,0,0,0,.6,2h.1C229.9,32.7,229.7,31.6,229.3,31.3Zm0-2.3v.4c0,.2.1.4.2.4s.2-.2.3-.6l-.2-.2Zm.8-3.3a5.4,5.4,0,0,0-.8,2.5h.1c.2,0,.6-.7,1.1-2.2S230.3,25.7,230.1,25.7Zm.1,11h0V37h.2v-.2h-.3Zm.6,1.1h-.1c.3.6.5,1,.7,1h.1A1.3,1.3,0,0,0,230.8,37.8Zm1.8-8.2h.1l1.1-.2h0l-.3-.3h-.1A.9.9,0,0,0,232.6,29.6Zm.1-7.4h.1Zm0,3.9v.4h.1a2.3,2.3,0,0,0,.7-.7v-.2h-.2A.8.8,0,0,0,232.7,26.1Zm.6-1.6v.2c0,.5,3.7,1,11.2,1.5l.6.2h.8a14.9,14.9,0,0,0,3.3.9c0,.1.2.2.4.3a1.7,1.7,0,0,0,.4-1.1V25.3c0-.6-1-1.8-3.1-3.6a5.6,5.6,0,0,0-3.2-1.7l-2.1-.3c-3.4.7-5.6,1.5-6.7,2.5A10.6,10.6,0,0,1,233.3,24.5Zm.1-1h0a.5.5,0,0,0,.3-.5h0A.5.5,0,0,0,233.4,23.5Zm.1,21.2v.2c.1.3.4.5,1.1.7l.3.3h0l-1.1-1.1Zm.5-23.9V21h.1c.5-.2.8-.3.8-.5h-.3A.7.7,0,0,0,234,20.8Zm.3,8.4v.3h.3v-.2h-.3Zm.7-11.3h0l.2.2h0c.9-.2,1.3-.4,1.3-.7v-.3l-.3-.3h-.1C235.4,17.2,235,17.5,235,17.9Zm.8,10.7v.2a47.8,47.8,0,0,0,6.5.5h-1.2c0,.2.5.3,1.6.3s2.6-.1,2.6-.4S242.1,28.8,235.8,28.6Zm.6-2.1v.2a8.5,8.5,0,0,0,4.3.8H242v-.3A53.2,53.2,0,0,0,236.4,26.5Zm.2-6.1a8.4,8.4,0,0,1,2.4-1h-.7C237.2,19.4,236.6,19.8,236.6,20.4Zm.9-3.4h.1a14.1,14.1,0,0,0,3.7-.7q.6-.2.6-.3h-.3a11.3,11.3,0,0,0-4,.9h-.1Zm.5,27.9h0c0,.2.4.4,1.3.6h.1a3.9,3.9,0,0,0-1.4-.5Zm2.2-26.6h0c0,.2.8.4,2.5.7h.1v-.2a1.9,1.9,0,0,0-1.7-.8h-.2C240.4,18,240.2,18.1,240.2,18.3Zm1.3,27.3v.2h.2v-.2Zm2.3,1.6h-1.5c-.4,0-.6,0-.7.2h0l.3.2H243a19.9,19.9,0,0,0,4.5-.6h0c-.1-.2-.3-.3-.8-.3h-.3A5.8,5.8,0,0,0,243.8,47.2Zm-1.1-29.9v.2a6.1,6.1,0,0,0,2.5.4h.1v-.2c0-.1-.3-.2-.8-.3Zm1.2,1.4h0a19.1,19.1,0,0,0,3.8,2h.1l.6-.2h.4l-1-.4-1.3-.5a1.9,1.9,0,0,0-2-1.1h-.2C244,18.5,243.9,18.5,243.9,18.7Zm3.6,9.4v.2h.3v-.2Zm.1,1.7c0,.1.4.2,1.1.2h.6c0-.2-.4-.4-1.2-.4S247.6,29.7,247.6,29.8Zm0,14.1h.2a1.3,1.3,0,0,0,.5-.7h0C247.8,43.4,247.6,43.6,247.6,43.9Zm.5,2.7c.4,0,.7-.3,1-1h-.2C248.4,46,248.1,46.3,248.1,46.6Zm.6-24.9a.6.6,0,0,0,.6.5h.1v-.6l-.3-.3C248.9,21.3,248.7,21.4,248.7,21.7Zm.8,20.2h.2c.4,0,.7-.3.9-.8h0C250.1,41.1,249.8,41.3,249.5,41.9Zm.5-19.4c.4,1.3.8,2.1,1.1,2.2h.3c-.3-1.3-.7-2-1.1-2H250Zm1,15.9h.4c.2,0,.4-.1.4-.2l-.2-.3h-.1C251.2,38,251.1,38.1,251,38.4Zm.3,5.8h.2q.6-.6.6-.9H252A.9.9,0,0,0,251.3,44.2Zm.9-18.8V26a.4.4,0,0,0,.4-.4v-.2h-.5Zm.2,17,.2.2c.6-.2.9-.5.9-.8h0C252.9,41.7,252.5,41.9,252.4,42.4Zm1.5-.6h.2a.7.7,0,0,0,.4-.6h-.2A.7.7,0,0,0,253.9,41.8Zm2.1-.6h-.1c.2.5.4.8.6.8h.1v-.2h0A.7.7,0,0,0,256,41.2Z" transform="translate(-1 0)" style="fill:#b75326"/><path d="M283.3,17.8c1.6,0,2.9,1.2,4,3.4.3,0,.6.3.9.8l.9,4.6c-.4.5-1.5.7-3.3.7h-.6q-2.4-.3-2.4-1.5a3.8,3.8,0,0,0-1.4-2.4c-.1-.2-1-.3-2.6-.3a17.1,17.1,0,0,0-5.7,1.2,20.7,20.7,0,0,0-3.1,3.9c.3,7.4.4,11.9.3,13.2s.3.6.8.6h1.5c.6,0,1,.1,1,.3h0l.2.8-.2,3.4-.3.5-2.9.3h-.3l-1.2.4c-4.7-.2-7.1-.3-7.1-.6s-1.2-.3-1.2-1.1a12.1,12.1,0,0,1-.2-2.3c0-.7.8-1.3,2.4-1.5,0-.4.6-.5,1.7-.5h.2l-.4-16.9c0-1-.2-1.5-.7-1.5h-.4a7.9,7.9,0,0,0-2.5.6h-.1c0-.1.1-.2.5-.3h0c-.5,0-.7-1.2-.7-3.5a5,5,0,0,1-.1-1.1,8.1,8.1,0,0,1,5.1-1.9H267l3.1.6v.2a2.2,2.2,0,0,0-.6,1.2v.4C272.9,17.6,277.5,17.2,283.3,17.8ZM261.3,45l-.2.2v.3h.4v-.4Zm.6-25.9a1.2,1.2,0,0,0,1,.4h.1V19l-.3-.3C262.2,18.8,261.9,18.9,261.9,19.1Zm.7,26.8h0q0,.3,1.8.3h2.3c0-.2-1.1-.3-3.3-.4Zm.2-24.4h.3c.4,0,.6-.1.7-.3h-.2C263.1,21.2,262.9,21.3,262.8,21.5Zm0,23.5h3.6v-.2H263Zm1.7-27.2v.3l.4.4h.5l-.7-.6Zm2.6,9.3v.4a2.5,2.5,0,0,1,.3,1.3,17.2,17.2,0,0,0-.2,2.5l.2,2.5h0c.2,0,.4-1.9.5-5.7.1,0,.1-.4.1-1.3s-.1-.6-.3-.6h-.1A1.1,1.1,0,0,0,267.1,27.1Zm.5-3.2-.3,1.2a.8.8,0,0,0,.4.7h0q.3,0,.3-.9l-.2-1Zm.5,21.4.2.2h.9l.3-.3c0-.1-.1-.2-.3-.2S268.1,45.1,268.1,45.3Zm.4-26.1h0l.2.2.2-.3V19h-.1Zm.2-1.2v.3h.2l.3-.2h-.5Zm0,20.7v.5h.2l.3-.3v-.3l-.2-.2h-.1Zm.1,1.2v.2h.1v-.2Zm1.1-18v.2l.2.2h.2l.2-.2v-.2h-.6Zm4.2-1.4h0q.6,0,1.5-1.8v-.3h-.1A1.7,1.7,0,0,0,274.1,20.5Zm2.3-1.4.3,1.3h.5V18.9h-.2C276.6,18.9,276.4,19,276.4,19.1Zm1.5-.4h0v.2h.7l.5-.2h-1.3Zm2-.2v.2h.4l.2-.3h-.1C280.1,18.3,279.9,18.4,279.9,18.5Zm1.6.4h.2l.2-.2h-.3Zm.5,3.6h.3c.3-.1.7-.6,1.3-1.5h-.3c-.7.3-1.1.7-1.1,1.3S282.1,22.2,282,22.5Zm1.8,1.6v.2h.1l.3-.3h-.1Zm0-5.4h0l.2.2h.2l.2-.2h0l-.2-.2H284Zm1.9,2v.2a1.4,1.4,0,0,0,.9.5h.1v-.2a1,1,0,0,0-.8-.5Z" transform="translate(-1 0)" style="fill:#b75326"/><path d="M307.1,17.9h.5a30.3,30.3,0,0,1,6.6,4.2c2,1.8,3.1,3.1,3.1,4h-.1c-.4-.5-.7-.8-1-.8h-.1a.2.2,0,0,0-.2.2,19.6,19.6,0,0,0,1.1,2.4h.2c.1,0,.2-.2.3-.7h.1A8,8,0,0,1,318,29l.5,1.3v.8l.2,2.2a29.4,29.4,0,0,0-.8,4c-.2.8-2.1,3.8-5.7,8.8a7,7,0,0,1-4.9,2.3,26.3,26.3,0,0,1-4.9.4h-1.1c-.8,0-2.6-.6-5.5-1.8-3.8-3.4-5.6-6-5.6-7.7s-1-2.2-1.4-3.1a31.6,31.6,0,0,1,1.7-5.3,5.5,5.5,0,0,1,1.3-4c1.9-4.2,4.4-6.9,7.4-8.1a19.6,19.6,0,0,1,6.2-1.4ZM289.6,35.8c0,.4.1.6.2.6h.1v-.7h-.1Zm1.4,2.9v.5c0,1.3.4,2.1,1.1,2.3h.1c-.3-1.9-.6-2.9-1-2.9Zm.6-9.8a.5.5,0,0,0,.5-.4h0A.5.5,0,0,0,291.6,28.9Zm1.3-2.1h0c.2,0,.3-.2.3-.5h-.1C292.9,26.4,292.9,26.6,292.9,26.8Zm.1,7.7h.2v-.2h-.1Zm.3,8.3h0a.8.8,0,0,0,.5.5h.2a.8.8,0,0,0-.4-.7h-.1Zm.9-6v.4c.5,1,1.1,2.2,1.9,3.6s.8,1,2.4,1.7,2.1,1.5,4.1,2h1.1a19.5,19.5,0,0,0,4.1-1.1l2.2-1.9c2.3-2.5,3.4-4.5,3.4-6.2v-.6a8.2,8.2,0,0,1-.4-3.2,18.7,18.7,0,0,1,.2-2.7c0-.3-.8-1-2.3-2.2a7.7,7.7,0,0,0-3.7-3h-.7q-7.2.3-7.2,1.2a9.6,9.6,0,0,0-2.3,3.2c-1.3,1.3-1.9,2.2-1.9,2.7A35,35,0,0,0,294.2,36.8Zm.2,8V45a4,4,0,0,0,2.9.9h.7a10.3,10.3,0,0,0-3.2-1Zm.9-18.4v.4h.2c.5-.4.8-.8.8-1.1H296A2.7,2.7,0,0,0,295.3,26.4Zm.7-4.2v.2a29.8,29.8,0,0,0,3.7-2.6l.5-.2h.3c2.8-.3,4.2-.6,4.2-.8h-1a10.6,10.6,0,0,0-7.6,3.2Zm.6,2.8v.2h0Zm0-1.8c.4,0,.7-.2,1.1-.7v-.2C297,22.5,296.6,22.8,296.6,23.2Zm1.1,23.2h1l-.2-.2h-.1A1,1,0,0,0,297.7,46.4Zm1.3-.8h0c0,.3.6.4,1.8.4h.1A4.1,4.1,0,0,0,299,45.6Zm1.9-24.5v.2a22.2,22.2,0,0,0,4.7-.7l-.5-.2H305A8.4,8.4,0,0,0,300.9,21.1Zm0,2.1h0l.2.2h.8l4.4-1h0l-1.2-.2C302.3,22.4,300.9,22.8,300.9,23.2ZM305,47.1h0q0,.3.9.3c.7,0,1.1-.1,1.1-.3h0a.8.8,0,0,0-.5-.5H306A1,1,0,0,0,305,47.1Zm1.1-28.4c.1.6.6.8,1.3.8h.8v-.2c0-.5-.5-.8-1.3-.9S306.1,18.6,306.1,18.7Zm.5,1.9h0l.2.2-.7.6h0c0-.2.3-.4,1.1-.8Zm.6.1h-.1a3.5,3.5,0,0,0,1.9.9h0A3.1,3.1,0,0,0,307.2,20.7Zm1.1,26.8h.1c.7-.3,1.1-.5,1.1-.7h-.1C308.8,47,308.4,47.2,308.3,47.5Zm1-23.9a.9.9,0,0,0,.8.6V24h0c0-.3-.1-.5-.5-.5S309.3,23.5,309.3,23.6Zm.9-3.4h0a1.9,1.9,0,0,0,1.4.8c0-.4-.4-.8-1.1-1h-.3Zm1.1,2.6h0c.1.5.7,1,1.7,1.5h.4A8.7,8.7,0,0,0,311.3,22.8Zm1.1,1.9h0a3.4,3.4,0,0,0,1.8,1.4h.3v-.2h0a2.6,2.6,0,0,0-1.9-1.1Zm2.9,15.1h0c.3,0,.5-.3.8-1h-.2C315.7,38.8,315.5,39.1,315.3,39.8Zm.9-1V38h.1q.3-.2.3.9h-.6Zm.5-3.5c.1,1.3.2,2,.4,2h.1a3,3,0,0,1,.5-1.5v-.2l-.7-.9h0C316.8,34.7,316.8,34.9,316.7,35.3Zm.9-4.2v.5l.3-.2v-.3h-.4Z" transform="translate(-1 0)" style="fill:#b75326"/><path d="M325,16l4.2,1.4a6.4,6.4,0,0,0,.8,2V20c-.4,2.6-.5,8-.3,16.5a2.2,2.2,0,0,0,1.4,2.3l.5,1.1c0,.2,1.4.5,4.1.6h.2c.9,0,1.9-.9,3.2-2.8a10.7,10.7,0,0,0,2-2.3h.3v-.7a4.3,4.3,0,0,0,.5-1.6h.1v-.6l1.1-11.7V19h0a1.8,1.8,0,0,0,.7-1.5c0-.4.1-.7.4-.7l1.4.7h1.4c1.7,0,2.8.3,3.5,1v.3c-.4,0-.7.1-.7.2l.6,1.5h.2a6.6,6.6,0,0,1,.2-.9,1.9,1.9,0,0,1,.4,1l-.7,7.7h.1a67.6,67.6,0,0,0-.8,7.5v1.8c0,2.7.1,4,.3,4h.3a15,15,0,0,0,3.6-.5c.2,0,.6.3,1.1.8-.2,3.6-.4,5.5-.7,5.5l-.8-.6-1.8.2-6.9-.2c-.3,0-.7-.8-1-2.4a1,1,0,0,1-.4-.8V43h-.2a19,19,0,0,0-3.7,1.7c-.1.2-1.5.9-4.2,1.8a11.8,11.8,0,0,1-2.5,1,13.8,13.8,0,0,0-3-1.1c-2.6-2.5-4.2-4.8-4.8-6.8s-1.5-4.7-1.5-9.7l.6-7.2v-.2a20.2,20.2,0,0,0-4.2-.8,8.2,8.2,0,0,1-.4-3.1c0-1.1.2-1.7.6-1.7S321.8,16.1,325,16Zm-4.5,2.9v.2h.9v-.2Zm0,1.9V21h.5l.2-.2-.3-.2h-.3Zm.3-1.3v.2c.1.2.3.3.7.3h.1l-.3-.4Zm1,.8h.1l.5-.3v-.2h-.3Zm1.1,0c0,.3.7.7,2,1.1h.6c.2,0,.2-.2.3-.4a3.7,3.7,0,0,0-1.7-1h-.5C323.2,20,323,20.1,322.9,20.3Zm.9-3.5V17h.4v-.2h-.4Zm1.1,6.7v.6l.9-.3V22.4h-.2C325.4,22.3,325.2,22.7,324.9,23.5Zm0,10.8v.2c0,1.6.9,4.1,2.6,7.5.3.3.5.4.7.4V42l-1.8-4.9c-.6-1.9-1-2.9-1.3-3h0Zm.3-17h0c0,.1.3.3.9.5a3.1,3.1,0,0,0,.1.9h.4c1.1,0,1.7-.2,1.8-.5h0c0-.3-.6-.5-1.8-.7s-.3-.2-.8-.3h-.6Zm.5,13.1-.2.3h0l.2.2.2-.2v-.3Zm1.5,2.2V33a1.6,1.6,0,0,0,.8,1.3h.2c0-1.5-.1-2.3-.4-2.3h-.2A.5.5,0,0,0,327.2,32.6Zm.4-11.8V22h.1c.3-.1.4-.3.4-.7v-.7c0-.3-.1-.5-.2-.5h-.1C327.7,20.2,327.6,20.4,327.6,20.8Zm.7,15.9h0c.2.2.3.3.5.3h0C328.8,36.8,328.7,36.7,328.3,36.7Zm1.2,4.4v.2a.5.5,0,0,0,.5.3v-.3l-.2-.2Zm3.6,4.1h-.5l-2.5-.2H330l-.2.2h0c0,.3,1.1.8,3.4,1.2a12.8,12.8,0,0,0,4.1-1.5h.1v-.2H337A16,16,0,0,1,333.1,45.2Zm-3-5.3h0v.2h.1V40Zm.9,1.7h0c0,.5.8,1.1,2.2,2a10.1,10.1,0,0,0,2.5-1.2h0a26.3,26.3,0,0,1-4.5-.7Zm3.3,2.2V44h.7a6.4,6.4,0,0,0,3.2-1.7v-.2h-.3A19.8,19.8,0,0,0,334.3,43.8Zm5.1-5h.1a7.7,7.7,0,0,0,1.5-2.2h-.1A8.3,8.3,0,0,0,339.4,38.8Zm3.1-1.7c-.2.3-.4.5-.4.7l.3.2h.1l.2-.2v-.4Zm.5,3.8h.1l.4-.4v-.2C343.1,40.4,343,40.6,343,40.9Zm1.2-22.8q0,.6.9.6h.6c0-.2-.5-.3-1.4-.4Zm.3,15.5v.6l.2.2a1,1,0,0,0,.6-.5v-.3l-.2-.2h-.4Zm.1-13.3h0a.6.6,0,0,0,.5.2h0c.3,0,.5-.1.5-.2h0c0-.1-.2-.2-.6-.2h-.2Zm0,20.7v.7c0,2.9.2,4.4.5,4.4h.2c.3-.1.4-.2.4-.4s-.4-2.1-.6-4.5l-.3-.4Zm.1-3v.4h.3v-.2h-.3Zm.1-5.3.3.3c.2,0,.4-.5.4-1.2h-.1A1.1,1.1,0,0,0,344.8,32.7Zm.9-5.9v.3h.1c.4,0,.6-.5.6-1.4s-.1-.6-.2-.6S345.9,25.7,345.7,26.8Zm.3,10v.4a8.1,8.1,0,0,0,.4,2.5h.2a14.1,14.1,0,0,0,.2-1.8v-.4c0-.5-.2-.7-.6-.7Zm0-.8h0l.2.2.2-.2v-.2H346Zm1.2,8.8h0a.8.8,0,0,0,.7.3h.9c0-.2-.3-.3-.9-.4h-.5Zm.7-16V29c0,.2.1.3.2.3h.1v-.5Zm.8,11.1-.6.9V41h.6l.3-.2v-.3A.6.6,0,0,0,348.7,39.9Zm1.8,2.9V43h.6c1,0,1.4-.2,1.4-.4h0Zm1.7.8V44h.3v-.2h0c0-.1-.1-.1-.2-.1Z" transform="translate(-1 0)" style="fill:#b75326"/><path d="M369.5,9.4c1.1,0,4.1.6,9.2,1.8a21.9,21.9,0,0,0,4.2,1.7,3,3,0,0,0,.4-1.8h0v-.5c0-.5.3-.8,1.1-.8a4.1,4.1,0,0,1,2.1-.5c1.2,0,1.9.1,1.9.4l.5,5.8v1.8c0,1.5-.2,2.3-.6,2.6s-.7.6-.9.6c-2.2-.2-3.4-.5-3.4-1a3.3,3.3,0,0,0-2.2-2.1c-3.9-2-6.8-3-8.5-3h-1.7c-2.1,0-3.3.4-3.7,1.2a4.5,4.5,0,0,0-.7,2.7h0c0,2.3,1.1,4.1,3.5,5.6a15.2,15.2,0,0,0,6.1,1.4c0,.4.9.9,2.8,1.4a2.7,2.7,0,0,0,2.4.9,19.3,19.3,0,0,1,5.5,4.7l.2.3v.2h-.3a6.4,6.4,0,0,1,.8,2.2c0,3.7-.6,6.1-1.7,7a8.3,8.3,0,0,1-3.4,3.3,8.9,8.9,0,0,1-6,2.6H375c-3.3-.5-4.9-.9-4.9-1.2-1.8-1.3-2.9-2-3.3-2a11.3,11.3,0,0,1-4.2-2.9h-.2c-.5,1.4-1,2.1-1.2,2.1-2.7-.4-4-.8-4-1.3a31.5,31.5,0,0,1-.4-5.4l.6-3.8q0-2.1.6-2.1l3.9-.5c.3,0,.5,1.2.8,3.5l1.8,3.1a46.7,46.7,0,0,0,5.5,3.7,5,5,0,0,0,3.8,1.6H376a5,5,0,0,0,4.5-2.2,7.9,7.9,0,0,0,2-4.5h0c0-1.3-1-2.8-3.1-4.5a4.3,4.3,0,0,0-3.5-1.6c-.6-.4-2.5-.7-5.5-1.1l-5-2.6L363,24.1a10.2,10.2,0,0,1-1.6-3.3v-1l-.3-2.4a3.1,3.1,0,0,1,1.1-2c0-.5,1-1.7,3-3.4s2.9-1.8,3.2-2.4ZM357.7,38.3v1.6h.1a7.1,7.1,0,0,0,.4-3v-.5H358C357.9,36.3,357.8,36.9,357.7,38.3Zm1.7,3.2v.2l.3.3h0l.2-.2h0l-.2-.2Zm.4-8.2v.3h.4v-.3ZM362.3,17l.3,1.6h.2V16.8h-.2Zm.1,22.4v.2a2.4,2.4,0,0,0,1.8,1.2h.1v-.2q-1.4-1.2-1.8-1.2Zm.4-24V16h.1l.3-.6h-.3Zm1,7.4h0l.2.2h.1v-.3h-.3Zm.2-5.2v.2h.1l.3-.3h-.2Zm.7-2.8h.3v-.2h-.3Zm.3,8.3h0c.3.9.6,1.3.8,1.3h.2l.4-.3h0c-.5-.7-1-1-1.4-1Zm.1-7.4h.3c1-.6,1.4-1.1,1.4-1.5h-.1c-.5,0-1,.5-1.6,1.5Zm1.5,6.9h.8a.6.6,0,0,0-.6-.3Zm1.5.5H368v.4l.4.4h.3v-.3A.5.5,0,0,0,368.1,23.1Zm0,3.2h0c0,.2.3.5.8.7h.1Q369,26.6,368.1,26.3Zm.4,18.5h0c0,.2.6.4,1.7.7l.2.2h.3c-.1-.6-.2-.8-.4-.8Zm.7-34.5v.2c0,.2.2.3.8.4s1.6-.2,1.6-.4v-.2c0-.3-.5-.5-1.7-.5S369.4,10,369.2,10.3Zm.9,14.2H370a6.6,6.6,0,0,0,2.4,1.3v-.2C372.5,25.6,371.7,25.1,370.1,24.5Zm.8-11.6.6.3a1.8,1.8,0,0,0,1.3-.6l-.3-.3h-.7Q370.9,12.3,370.9,12.9Zm.8,33.6h0l.3.3h.4c0-.1-.2-.2-.6-.2Zm.4-.9v.3h.3l-.2-.2Zm1,1.2a3.7,3.7,0,0,0,2.3.5h2.8c-.1-.3-1.6-.5-4.3-.5C373.4,46.6,373.1,46.7,373.1,46.8Zm.4-32.9c0,.3.7.5,2.2.6v-.2c0-.2-.6-.4-1.9-.6h-.1Zm0,12.2c0,.2,1.5.6,4.4,1.2h1a9.7,9.7,0,0,0-4.6-1.6C373.8,25.9,373.5,26,373.5,26.1Zm.7,1.8v.2l1,.3h.7A4.9,4.9,0,0,0,374.2,27.9Zm4.6,18.7v.2h.4q1.2,0,1.2-.3h-1.6Zm.5-33.7h0c0,.2.2.3.8.3h.1Q380.2,12.9,379.3,12.9Zm.8,2.3H380a8.1,8.1,0,0,0,2.4,1.1h0C382.4,16.1,381.6,15.7,380.1,15.2Zm.2,13.6h0a23.9,23.9,0,0,0,3.3,1.9c.8.7,1.4,1.1,1.8,1.1h.1l.2-.2a9.4,9.4,0,0,0-4.8-2.9Zm1.4,12.8v.3h.1a3.6,3.6,0,0,0,1-1.1l-.2-.2A3,3,0,0,0,381.7,41.6Zm.6-9.1v.3c0,.4.4.9,1.1,1.5h.3v-.5c0-.5-.4-1-1.3-1.3Zm.6,11.4h0c0,.1.1.1.3.1s1.2-.6,2-1.9H385Zm.1-29.2a6.1,6.1,0,0,0,2,.9h.1c0-.3-.6-.5-1.8-.8H383Zm.2,22.6v.3h.2l.2-.2v-.2Zm1.4-18.2a2.6,2.6,0,0,0,1.8.4h1.2v-.3h-3Zm.7-9v.2c.4.7.8,1.1,1.2,1.1a1.2,1.2,0,0,0,.7-.7v-.2C387.2,10.3,386.6,10.1,385.3,10.1Zm1.2,27.7v.3l.2.2h.1c.3-.1.4-.4.4-1H387Zm.8-25.5h.4v-.3h-.3Z" transform="translate(-1 0)" style="fill:#b75326"/><path d="M398.1,39.3c.8.3,2,1.4,3.4,3.3v.2c0,.5-1.2,1.8-3.4,3.7h0l.9.2h0l-.9.2a7.2,7.2,0,0,1-4-1.8,3.1,3.1,0,0,1-.8-1.8c0-1.8,1.2-3,3.5-3.9Zm.1-37.1h.4a3.7,3.7,0,0,1,2.9,1.3V8.7l.4,8.2a23.7,23.7,0,0,1-.8,6.6v1.1l.2.7-.3,1.2v.9a4.5,4.5,0,0,0,.3,1.8c-.1,1-.2,1.5-.4,1.5h-.1l-.5-.2a15.5,15.5,0,0,0-2.4,1.6h.1c1.8-.2,2.7-.4,2.7-.7h.3l.3.3q0,.9-5.1,1.5a.5.5,0,0,1-.5-.3c0-.3.3-.5.8-.6h.2c0-.1-.2-.3-.7-.5v-.5c0-.1.3-.3.8-.5a1.7,1.7,0,0,0,.3-.7h0c0-.2-.4-.3-1.3-.4s-.5-5-.7-15.1a51.8,51.8,0,0,1-.3-6.3V6.4a1.9,1.9,0,0,1,1-1.7l-.7-1c0-.2.2-.4.7-.5h0V2.9h0C395.6,2.4,396.4,2.2,398.2,2.2Zm-2.9,40.6.2.3v-.7h-.1C395.3,42.4,395.3,42.5,395.3,42.8Zm.3-34.2h0V9.9h.2V9.2Q395.8,8.6,395.6,8.6Zm0,2.1v3.6h.2a16.9,16.9,0,0,0,.3-2.1l-.3-1.5h-.3Zm.1,4.4v.4h.2l.2-.3V15h-.3Zm.6-11.6v.2h.6V3.5h-.6Zm.2,19.4v3.3c.1.6.1.9.2.9s1.1-.9,1.1-1.4v-.2c0-.1-.2-.2-.5-.3a4.1,4.1,0,0,1-.2-1.7v-.3h-.1C396.7,23,396.7,22.9,396.5,22.9Zm.2,5.2h.2c.2,0,.3-.2.3-.5H397Q396.8,27.5,396.7,28.1Zm.5,14.3v.2h.3c.5,0,.8-.1.8-.3l-.2-.2h-.4C397.3,42.2,397.2,42.3,397.2,42.4Zm.1-26.5h0l.2.2h.3v-.5h-.1Zm.2,3v.2h.1c.1,0,.2-.3.2-1V16.8C397.7,16.8,397.5,17.5,397.5,18.9Zm.1,22.1c0,.2.4.3,1.3.4h.1v-.2c0-.1-.3-.3-.9-.4h-.3Zm.4-15.7v.3h.1l.2-.2v-.3h-.2Zm0,18.3h0v.2h.2l.2-.3h0v-.2h-.2ZM398.6,7h-.1v3.8c0,1.3.1,1.9.4,1.9h.1V10.1a1.9,1.9,0,0,1,.4-1.2h0c-.3,0-.5-.6-.5-1.7h-.1Zm0-.8h-.1l.2.3h.1l.2-.2h-.4Zm.7,22.7v.3h0c.8,0,1.2-.3,1.3-.9v-.2l-.2-.2h-.1C400.1,27.9,399.8,28.2,399.3,28.9Zm.1-14.8v.4l.2.2h.2V13.6h-.1C399.5,13.6,399.4,13.8,399.4,14.1Zm.3-9.5v.2c0,.4.1.6.3.7h.1c.2,0,.3-.3.4-1s-.1-.4-.3-.4S399.7,4.3,399.7,4.6Zm.2,12.5v.4h.2l.2-.2v-.2Z" transform="translate(-1 0)" style="fill:#231f20"/></g></g></svg>