<svg xmlns="http://www.w3.org/2000/svg" xmlns:xlink="http://www.w3.org/1999/xlink" viewBox="0 0 417.7 182.3"><defs><linearGradient id="a" x1="6.15" y1="108.13" x2="412.15" y2="108.13" gradientUnits="userSpaceOnUse"><stop offset="0" stop-color="#48484a"/><stop offset="0" stop-color="#4c4c4e"/><stop offset="0" stop-color="#707172"/><stop offset="0.01" stop-color="#909092"/><stop offset="0.01" stop-color="#abacad"/><stop offset="0.01" stop-color="#c1c2c3"/><stop offset="0.02" stop-color="#d2d3d4"/><stop offset="0.02" stop-color="#dddedf"/><stop offset="0.03" stop-color="#e4e5e6"/><stop offset="0.06" stop-color="#e6e7e8"/><stop offset="0.08" stop-color="#e3e4e5"/><stop offset="0.09" stop-color="#dbdcdd"/><stop offset="0.1" stop-color="#d1d3d4"/><stop offset="0.9" stop-color="#9d9fa2"/><stop offset="0.94" stop-color="#d1d3d4"/><stop offset="0.96" stop-color="#ced0d1"/><stop offset="0.97" stop-color="#c6c7c9"/><stop offset="0.98" stop-color="#b7b9ba"/><stop offset="0.98" stop-color="#a2a3a5"/><stop offset="0.99" stop-color="#878889"/><stop offset="1" stop-color="#666769"/><stop offset="1" stop-color="#48484a"/></linearGradient><linearGradient id="b" x1="209.29" y1="7.2" x2="209.29" y2="-281.27" gradientTransform="matrix(1, 0, 0, 0.36, -0.38, 102.66)" gradientUnits="userSpaceOnUse"><stop offset="0" stop-color="#e6e7e8"/><stop offset="0.32" stop-color="#e3e4e5"/><stop offset="0.53" stop-color="#dadcdd"/><stop offset="0.7" stop-color="#cccdcf"/><stop offset="0.86" stop-color="#b6b8ba"/><stop offset="1" stop-color="#9d9fa2"/></linearGradient><linearGradient id="c" x1="228.31" y1="35.54" x2="228.05" y2="60.02" gradientUnits="userSpaceOnUse"><stop offset="0.12" stop-color="#3e3e3f"/><stop offset="0.5" stop-color="#3c3b3c"/><stop offset="0.74" stop-color="#343233"/><stop offset="0.95" stop-color="#272425"/><stop offset="1" stop-color="#231f20"/></linearGradient></defs><title>adjective_rotatorArtboard 1</title><path d="M388.2,87.7H342.5l-24-29.2C311.4,50,288.3,43.8,266,43.7l-114.8-.6c-22.1-.1-45.4,5.8-52.9,14.2L71,87.7H23.2v64h0c.7,15.5,19.2,27.7,53.1,28L331.7,182c36.7.3,56.8-13.2,56.4-30.3h.1Z" style="fill:#231f20"/><path d="M412.2,81.7H361.4L334.6,51.1c-7.8-8.8-33.5-15.3-58.3-15.4l-127.7-.6C124,35,98.1,41.2,89.7,49.9L59.3,81.7H6.2v67h0c.8,16.6,21.4,29.6,59.1,30l284.1,2.5c40.8.3,63.1-14.2,62.7-32.5h.1Z" style="fill:url(#a)"/><path d="M402.6,67.1c23.6,19.2,2.5,38.6-53.1,38.6l-284.3-.4C10.7,105.3-8.3,86,16.4,67.1L72.3,11.7c8.3-6.4,34.2-11,58.8-11L289.8.4c24.9,0,50.7,4.5,58.5,10.9Z" style="fill:url(#b)"/><path d="M218.3,31.8c2.4-1,3.8-2.5,3.2-3.8a30.4,30.4,0,0,0-10.1,1.8c-2.4.9-4.5,2.4-4,3.9a26,26,0,0,0,10.9-1.9" style="fill:#231f20"/><path d="M335.5,113.7H82.9c-2.7,0-5,1.5-5,3.5s2.3,3.5,5,3.5H335.5c2.8,0,5.2-1.6,5.2-3.5S338.3,113.7,335.5,113.7Z" style="fill:#231f20"/><path d="M349.4,116.9c0,.3-.1.4-.4.4s-.3-.1-.3-.4a.3.3,0,0,1,.3-.3C349.3,116.6,349.4,116.7,349.4,116.9Z" style="fill:#231f20"/><path d="M207.9,35.3c-3,0-7.5-1.2-12.3-1.2-6.4,0-12.7,1.4-17,3.6-9.4,4.9-7.7,13.3-1.7,18.7,3.2,2.9,7.3,6.4,14.1,6.3s9.3-2.1,17.1-2.1,10.1,2.1,17,2a17.5,17.5,0,0,0,4.8-.6,188.6,188.6,0,0,1-17.2-27.2A34,34,0,0,1,207.9,35.3Z" style="fill:#020202"/><path d="M243.8,50.4c-.1-.1-12.6-2.1-13.9-7.6s6.7-5.9,7-6c-5.2-2.4-12.1-2.7-14.6-2.8a55.6,55.6,0,0,0-9.6.8A188.6,188.6,0,0,0,229.9,62c4.1-1,6.9-3.3,9.4-5.5S243.8,50.5,243.8,50.4Z" style="fill:url(#c)"/></svg>