<svg xmlns="http://www.w3.org/2000/svg" viewBox="0 0 257.6 48.8"><title>icn_rotator_Asset 48_adj</title><g id="Layer_2" data-name="Layer 2"><g id="Layer_1-2" data-name="Layer 1"><path d="M24,17.8c1.6,0,2.9,1.2,4,3.4.3,0,.5.3.9.8l.8,4.6c-.3.5-1.4.7-3.2.7h-.7c-1.5-.2-2.3-.7-2.3-1.5a4.4,4.4,0,0,0-1.4-2.4c-.1-.2-1-.3-2.6-.3a16.2,16.2,0,0,0-5.7,1.2,20.7,20.7,0,0,0-3.1,3.9c.3,7.4.4,11.9.3,13.2s.2.6.7.6h1.6q.9,0,.9.3h0l.3.8-.2,3.4-.3.5-2.9.3h-.3l-1.2.4c-4.8-.2-7.1-.3-7.1-.6s-1.3-.3-1.3-1.1-.1-1.3-.1-2.3.8-1.3,2.4-1.5c0-.4.6-.5,1.7-.5h.2L5,24.7c0-1-.3-1.5-.8-1.5H3.8a9.3,9.3,0,0,0-2.5.6H1.2c0-.1.2-.2.5-.3h0c-.4,0-.6-1.2-.6-3.5,0,0-.1-.4-.2-1.1a8.4,8.4,0,0,1,5.2-1.9H7.6a16,16,0,0,1,3.2.6v.2a2.8,2.8,0,0,0-.5,1.2v.4C13.6,17.6,18.2,17.2,24,17.8ZM2,45l-.2.2v.3h.4v-.4Zm.6-25.9a1.2,1.2,0,0,0,1,.4h.1V19l-.3-.3C2.8,18.8,2.6,18.9,2.6,19.1Zm.7,26.8h0q0,.3,1.8.3H7.3c0-.2-1.1-.3-3.3-.4Zm.2-24.4h.2c.5,0,.7-.1.7-.3H4.2C3.8,21.2,3.6,21.3,3.5,21.5ZM3.5,45H7v-.2H3.6ZM5.2,17.8v.3l.4.4h.5l-.7-.6Zm2.6,9.3v.4a2.5,2.5,0,0,1,.3,1.3,8.8,8.8,0,0,0-.2,2.5v2.5h.1c.2,0,.3-1.9.5-5.7.1,0,.1-.4.1-1.3s-.1-.6-.3-.6H8.3A.9.9,0,0,0,7.8,27.1Zm.5-3.2L8,25.1a.8.8,0,0,0,.4.7h0q.3,0,.3-.9l-.2-1Zm.5,21.4v.2h1l.2-.3c0-.1-.1-.2-.3-.2S8.8,45.1,8.8,45.3Zm.4-26.1h0v.2l.3-.3V19H9.4ZM9.3,18v.3h.3l.2-.2H9.3Zm0,20.7v.5h.3l.2-.3v-.3l-.2-.2h0Zm.1,1.2v.2h.2v-.2Zm1.2-18v.2l.2.2H11l.2-.2v-.2h-.6Zm4.2-1.4h0c.4,0,.8-.6,1.4-1.8v-.3h0A1.6,1.6,0,0,0,14.8,20.5Zm2.3-1.4.3,1.3h.5V19.1l-.2-.2h-.1C17.3,18.9,17.1,19,17.1,19.1Zm1.5-.4h0v.2h.6c.3,0,.5-.1.5-.2H18.6Zm2-.2v.2H21l.2-.3h-.1C20.8,18.3,20.6,18.4,20.6,18.5Zm1.5.4h.3v-.2h-.2Zm.6,3.6H23q.5-.2,1.2-1.5H24c-.7.3-1.1.7-1.1,1.3S22.8,22.2,22.7,22.5Zm1.8,1.6v.2h.1l.3-.3h-.1Zm0-5.4h0v.2h.3v-.2h0v-.2h-.3Zm1.9,2v.2c.3.3.5.5.9.5h.1v-.2a1.4,1.4,0,0,0-.9-.5Z" transform="translate(-0.9 0)" style="fill:#b75326"/><path d="M45.8,15.6c1.7,0,3.8.8,6.3,2.2s3.1,2.7,3.1,3.3c1.7,3.5,2.5,5.6,2.5,6.2v.5a9.4,9.4,0,0,0-.9,2.9H51.1l-1.7.2c-6-.5-10.1-.7-12.4-.7H35.6a3.5,3.5,0,0,0-.7,1.5,4.8,4.8,0,0,1,.4,2.2c0,1.6.2,2.5.7,2.8v.3h0l-.4-.2v.2l.6.6a3.1,3.1,0,0,0,1.1,2c1.4,2.4,2.8,3.9,4.4,4.5a16.3,16.3,0,0,0,4.7.6,3.9,3.9,0,0,0,1.7-.7c.8-.3,2.4-1.6,4.7-4.1h0c0-.1-.3-.2-.8-.3v-.3a6.8,6.8,0,0,1,3.4-3.5l2.3,1.7a49.7,49.7,0,0,0,3.6,4.9v.3c-1.3,1.7-2.3,2.5-2.9,2.5h-.2c0-.9-.5-1.4-1.6-1.5s-1.2.7-2.8,2A13.8,13.8,0,0,1,49,47.9a33.5,33.5,0,0,1-5.7.9l-3.5-1.3c-2,0-3.8-1.1-5.5-3.2a7.3,7.3,0,0,1-1.7-2.7c0-.3-.5-2-1.4-5.1a15.5,15.5,0,0,1-.4-3.4h0a21.9,21.9,0,0,1,4.9-14.4,4.7,4.7,0,0,1,2.9-2.3,32.9,32.9,0,0,1,3.6-.7ZM31.9,31.3h-.1v.2h.1a2,2,0,0,0-.2.9v.3a4.4,4.4,0,0,0,.7,2h.1C32.5,32.7,32.3,31.6,31.9,31.3Zm0-2.3v.4c.1.2.1.4.3.4s.2-.2.3-.6l-.3-.2Zm.8-3.3a5.4,5.4,0,0,0-.8,2.5H32c.2,0,.6-.7,1.1-2.2S32.9,25.7,32.7,25.7Zm.1,11h0V37h.2v-.2h-.3Zm.6,1.1h-.1c.2.6.5,1,.7,1h.1A1.5,1.5,0,0,0,33.4,37.8Zm1.8-8.2h.1l1-.2h0l-.2-.3h-.2A.7.7,0,0,0,35.2,29.6Zm.1-7.4h.1Zm0,3.9v.4h.1l.7-.7v-.2h-.3A.6.6,0,0,0,35.3,26.1Zm.6-1.6v.2c0,.5,3.7,1,11.2,1.5l.6.2h.8a13.6,13.6,0,0,0,3.3.9c0,.1.1.2.4.3a1.7,1.7,0,0,0,.4-1.1V25.3c0-.6-1-1.8-3.1-3.6A5.9,5.9,0,0,0,46.3,20l-2.1-.3c-3.4.7-5.6,1.5-6.7,2.5A16,16,0,0,1,35.9,24.5Zm0-1h0a.5.5,0,0,0,.3-.5h0A.5.5,0,0,0,35.9,23.5Zm.2,21.2v.2c0,.3.4.5,1.1.7l.2.3h0c-.5-.6-.8-1-1.1-1.1Zm.5-23.9V21h0c.6-.2.9-.3.9-.5h-.3A.7.7,0,0,0,36.6,20.8Zm.3,8.4v.3h.3v-.2h-.3Zm.7-11.3h0l.2.2h0c.8-.2,1.2-.4,1.2-.7v-.3l-.2-.3h-.1C37.9,17.2,37.6,17.5,37.6,17.9Zm.8,10.7v.2a46.2,46.2,0,0,0,6.5.5H43.7c0,.2.5.3,1.6.3s2.5-.1,2.5-.4S44.7,28.8,38.4,28.6Zm.6-2.1v.2a8.5,8.5,0,0,0,4.3.8h1.3v-.3Zm.1-6.1a9.5,9.5,0,0,1,2.5-1h-.7Q39.1,19.5,39.1,20.4Zm1-3.4h.1a14.8,14.8,0,0,0,3.7-.7c.3-.1.5-.2.5-.3h-.2a10.8,10.8,0,0,0-4,.9h-.1Zm.5,27.9h0q0,.3,1.2.6h.1a3.6,3.6,0,0,0-1.3-.5Zm2.1-26.6h0c0,.2.9.4,2.6.7h.1v-.2a2,2,0,0,0-1.7-.8h-.2C43,18,42.7,18.1,42.7,18.3ZM44,45.6v.2h.3v-.2Zm2.4,1.6H44.8c-.4,0-.6,0-.6.2h0l.2.2h1.1A18.6,18.6,0,0,0,50,47h0c0-.2-.3-.3-.7-.3H49A5.8,5.8,0,0,0,46.4,47.2ZM45.3,17.3v.2a6.1,6.1,0,0,0,2.5.4h0v-.2c0-.1-.2-.2-.7-.3Zm1.2,1.4h0a25,25,0,0,0,3.7,2h.1l.7-.2h.4L50.3,20l-1.2-.5a2,2,0,0,0-2-1.1h-.2C46.6,18.5,46.5,18.5,46.5,18.7Zm3.6,9.4v.2h.2v-.2Zm.1,1.7c0,.1.4.2,1.1.2h.6c0-.2-.4-.4-1.3-.4S50.2,29.7,50.2,29.8Zm0,14.1h.1a1.1,1.1,0,0,0,.6-.7h-.1C50.4,43.4,50.2,43.6,50.2,43.9Zm.4,2.7c.5,0,.8-.3,1.1-1h-.2C50.9,46,50.6,46.3,50.6,46.6Zm.7-24.9a.6.6,0,0,0,.6.5H52v-.6l-.3-.3C51.4,21.3,51.3,21.4,51.3,21.7Zm.8,20.2h.2c.4,0,.7-.3.8-.8h0C52.7,41.1,52.4,41.3,52.1,41.9Zm.5-19.4a5.4,5.4,0,0,0,1,2.2H54c-.3-1.3-.7-2-1.1-2h-.3Zm.9,15.9h.4c.3,0,.5-.1.5-.2l-.2-.3h-.1A.5.5,0,0,0,53.5,38.4Zm.3,5.8h.3q.6-.6.6-.9h-.1C54.1,43.5,53.8,43.8,53.8,44.2Zm1-18.8V26c.2,0,.3-.2.3-.4v-.2h-.4Zm.2,17,.2.2c.6-.2.9-.5.9-.8H56C55.4,41.7,55.1,41.9,55,42.4Zm1.4-.6h.3a.7.7,0,0,0,.4-.6h-.2C56.6,41.4,56.4,41.6,56.4,41.8Zm2.2-.6h-.1c.2.5.3.8.6.8h0l.2-.2h0A.7.7,0,0,0,58.6,41.2Z" transform="translate(-0.9 0)" style="fill:#b75326"/><path d="M81.5,12.3a5,5,0,0,0,2.5.9c.8,0,2.5,1,5.1,2.9l.9.2h.3l1.1.6q1.6,1.2,1.8,1.8h0c0,.3-.2.6-.7,1a12.7,12.7,0,0,1-2.5,4v.9a5.9,5.9,0,0,0-1.7.4c-.3,0-.5-.3-.7-.8s-1.8-1.3-1.8-1.8l.7-2c0-.8-1.3-1.3-4-1.7l-4.1-.2a14.6,14.6,0,0,0-5.7,1.6c-1.3.7-2.3,2.2-3.1,4.4a12,12,0,0,1-1.4,3.5l-.7-.5a2,2,0,0,0-.4,1.4h0l.8-.4c.2,0,.2.2.3.4l-.4,2.8A28.8,28.8,0,0,1,69,35.5l-.3.4v.2c.3.2.4.9.5,2.1s1.6,2.3,3.6,3.3l3.3,2.4a19,19,0,0,0,9.6-2.4q4.2-3.6,4.2-4.8l-.2-.9h0a16.4,16.4,0,0,1,2.7-3,2.9,2.9,0,0,1,1,.9v.2h-.8V34c1.5.2,2.3.6,2.3,1.3A17.1,17.1,0,0,1,97,39.2q.3,0,.6,1.5c.5.2.8.4.9.7s-.3.5-.8.6a5.6,5.6,0,0,0-2.6,2l-2.3-2.2L89.4,44a18.4,18.4,0,0,0-3.1,2l-6.4,2.1h-1A21.7,21.7,0,0,1,73,47c-2.8-1.2-4.3-2.1-4.6-2.8-3.4-4.1-5.2-7.3-5.2-9.6V32.5a26.8,26.8,0,0,0,.5-5.4l1.6-3.9c0-1.2.8-2.6,2.3-4.5s3.2-3.6,6.8-5.2a30.2,30.2,0,0,1,7.2-1.1ZM65.2,31.9v.2a.7.7,0,0,0,.6.7c.2,0,.3-.7.1-2v-.3h-.2C65.5,30.5,65.4,30.9,65.2,31.9Zm2.3-8.1-1,1.9V26l.2.3h.1c.3,0,.6-.7,1-2v-.5ZM67.1,33a1.3,1.3,0,0,0-.3,1,3.1,3.1,0,0,0,.6,1.2c.2.7.5,1,.9,1h0A8.2,8.2,0,0,0,67.2,33Zm-.2,4.9v.3a.9.9,0,0,0,.8.6,1.2,1.2,0,0,0-.6-.9Zm.3,2.9h0c0,.6.6,1.3,1.9,1.9h.6c0-.5-.7-1.2-2.2-2Zm.2-18.3h.2c.5-.4.7-.7.7-1v-.2h-.1A1.4,1.4,0,0,0,67.4,22.5Zm.9,16.7v.4a.8.8,0,0,0,.7.5h.1v-.2C68.8,39.5,68.6,39.2,68.3,39.2Zm1-19.1h.2c.6-.4.8-.7.8-1S69.6,19.4,69.3,20.1Zm.2,23.7c.3.6,1.8,1.5,4.4,2.8l1.3.4h.1v-.3c-2.6-1.1-4.2-2-4.8-2.8l-.6-.3h-.3C69.5,43.6,69.5,43.6,69.5,43.8Zm.4-27.1v.2h.2l.3-.3h-.2Zm1.2-.6,3.2-1.3,2-.9c.8-.1,1.2-.3,1.2-.4h0q-2.7,0-6.3,2.4h-.1Zm.4,27.5h0c0,.3.8.7,2.3,1.2l3,1h.7l.2-.2v-.2h-.1a3.1,3.1,0,0,1-2.2-.9l-1.1-.3h0l-.4.3h-.1a5.7,5.7,0,0,1-2-.9Zm.9-25.2h.3l.2-.2-.2-.2ZM74.7,17v.2h.2c1-.2,1.4-.4,1.4-.6v-.2H76C75.1,16.7,74.7,16.8,74.7,17Zm2.4-1.3V16l.7.2c2.4,0,3.7-.2,4.1-.7l-1.1-.2A17.1,17.1,0,0,0,77.1,15.7Zm1,1.9h.7c1.4,0,2.1-.2,2.1-.4v-.2h-.7C78.8,17.1,78.1,17.3,78.1,17.6Zm.8,29.7h0c0,.3.4.4,1.3.4v-.2h-.1l.3-.2-.3-.3h-.4Zm3.3-30.1h0c0,.1.5.2,1.6.3h0l-1.1-.3Zm.2,27.4h0c.4,0,.7-.1.8-.3h0C82.6,44.4,82.4,44.5,82.4,44.6Zm0-28.9v.2c0,.2.4.3,1.2.4l.2-.2c0-.3-.2-.4-.7-.4Zm.5-1.9h-.1l.2.2h.3v-.3Zm1.2,31.8h.1a6.1,6.1,0,0,0,2.2-1.3h-.1C85.9,44.2,85.2,44.7,84.1,45.6Zm.3-29.3h0l.2.3h.2v-.2l-.3-.2ZM85,43.2h.2c1-.4,1.5-.9,1.5-1.3h0q-1.8.8-1.8,1.2Zm2.6-25.3v.3h.2L88,18h-.4Zm1.2,22.3h.1a2.4,2.4,0,0,0,.8-.9h0C89.3,39.2,89,39.5,88.8,40.2ZM91,19.5h.4l.3-.3v-.5C91.2,18.8,91,19,91,19.5Zm1.7,17.6h0c.3.8.6,1.3.8,1.3v-.4C93.4,37.4,93.1,37.1,92.7,37.1ZM94,35.8v.3c0,.5.7,2,2.3,4.7h.4v-.2a24,24,0,0,1-1.7-3.9l-.9-1Zm.3,6.3v.5h.4q.3,0,.9-.9h0c0-.1-.3-.3-1-.5S94.3,41.5,94.3,42.1Z" transform="translate(-0.9 0)" style="fill:#b75326"/><path d="M110.9,0a3.9,3.9,0,0,1,2.3.7,22.6,22.6,0,0,0-1,6.3l-.5,5.6c0,.3.8.5,2.4.5,4.8,0,7.3.2,7.3.6l.7.4a3.1,3.1,0,0,0-.6,1.2v.2l.2,1.2-.8,2.8q0,.3.9,1.2h0a7.9,7.9,0,0,1-2.4.5c-.6-.1-1-.2-1-.3h1l.3-.2v-.2h-7.9a11.2,11.2,0,0,0-.6,3.5h-.1l-.8-.9-.2.6v.4c.1,1.2.2,1.8.4,1.9s.3-.4.4-1.2v-.4h.2v.2l-.5,5.9c.4,6.5.8,9.8,1.1,9.8s.7,1.9,1.6,1.9a3.3,3.3,0,0,0,1.7.4h4.7c.2,0,.4,1.1.5,3.3s-.5,1.9-2.2,1.9h-4.7a9.6,9.6,0,0,1-6.5-2.1c-1.2-.5-1.8-1.7-1.8-3.8s-.3-4.9-.4-9.8l1-5.4V22.3c-.2-1.7-.7-2.5-1.4-2.5h-4a5.3,5.3,0,0,0-2,.5c-.4-.1-.9-.6-1.5-1.7L98.2,13l7.5-.3a3.2,3.2,0,0,1,.8-2c.2-6.4.4-9.6.7-9.6V.9c0-.1-.1-.2-.3-.2h0C106.9.4,108.2.2,110.9,0ZM98.6,13.7c0,.3.1.5.5.5h.9l4.7-.3h0c0-.3-1-.4-3-.4H99.1C98.7,13.5,98.6,13.6,98.6,13.7Zm.8,1.4v.3q0,.6,4.2.6c1.3,0,2-.1,2-.3s-1.8-.7-5.4-.7h-.8Zm.4,2.2c0,.2.1.2.3.2h3.3a8.5,8.5,0,0,0-2.8-.3H100Zm0,.8h0c0,.3,1.6.4,4.7.4h.5v-.2Zm5.7,13.5.2,1.7v2.8h.2c.3,0,.4-.9.4-2.9V31.8c.2.1.1.2-.1.2A.9.9,0,0,1,105.5,31.6Zm2,8v1.3h0l.2-.2v-1h-.3Zm.3,4.2v.3c.1,1,.5,1.5,1.3,1.5h.8c0-.2-.4-.3-1.2-.5l-.8-1.1Zm.5-22.5v.5h.2c.1,0,.2-.1.2-.4v-.6h-.1C108.4,20.9,108.3,21.1,108.3,21.3Zm.2,1.2v1h.2v-.8l-.2-.2Zm0-20.8V2h.3V1.8h-.3Zm0,25.1v.5l.2.2h.2v-.7Zm.4-22.9a5.1,5.1,0,0,0-.2,1.6v.3h.2V3.9Zm.2,2.8-.2,6.1h.3c.2,0,.4-.5.4-1.5V7l-.2-.3Zm.3,29.8v.9c0,.3.1.5.4.5h0c.2,0,.3-.2.3-.4s-.3-1-.4-1Zm.1,7h-.1v.4a1.2,1.2,0,0,0,.5.5h.4C110.3,43.9,110,43.6,109.5,43.5Zm.6-4.4-.3.8c0,.9.2,1.5.6,1.7l.2-.3v-.5C110.5,39.8,110.3,39.2,110.1,39.1Zm.2-16.9h0l.2.3h.1v-.2l-.3-.2ZM111,2h0l.2,1.5h.1a2.4,2.4,0,0,0,.8-1.3V2l-.3-.2h-.5Zm1.5,13.7h0c0,.2.8.4,2.3.4h1l1.4.3h.2c.3,0,.5-.1.5-.4h-.1l-4.7-.4h-.4Zm.9,2.8h0c.1.2.8.4,2.2.6h.1a3.4,3.4,0,0,0-2-.6Zm3.6-4.6h-1.7V14a6.6,6.6,0,0,0,2.3.4H119c.1,0,.1-.1.1-.2a.6.6,0,0,0-.7-.7h-.6Zm-.7,30.8h.2c1.5-.3,2.3-.6,2.3-.9h-.1Q116.3,44.4,116.3,44.7Zm.6-25.6a8.4,8.4,0,0,0,2.9.5l.3-.2V19l-.2-.2h-1.4C117.4,18.8,116.9,18.9,116.9,19.1Zm2.2-2h0l.2.3h.3a.9.9,0,0,0,.8-.4l-.3-.2h-.8Zm.2-2.8h0l.2.2c.4,0,.6-.1.7-.3h-.7Z" transform="translate(-0.9 0)" style="fill:#b75326"/><path d="M127.1,14.8a1.7,1.7,0,0,0,1.2.4l.8-.3c5.6,0,8.4.1,8.4.5v1.4a6.9,6.9,0,0,1,.5,2.4v1c-.4,5.7-.8,11.1-1,16.3a3.9,3.9,0,0,0-.2,1.3.5.5,0,0,0,.5.3h.3c2.2,0,3.3.2,3.3.7h-.1v.4a11.3,11.3,0,0,1,.7,4.7l.2,2.5h-9c-4.6,0-7-.3-7-1.1a3.5,3.5,0,0,0-.3-1.3,1.6,1.6,0,0,1,.7-.7h.1a.7.7,0,0,0,.6.2h.1l4.3-.3h0c-3.6-.2-5.3-.5-5.3-.8V39.8c0-.5,1.5-.7,4.6-.7q.6,0,.6-2.7l.8-16.3h-.1c-1.6,0-2.1-.1-1.6-.4-2.5,0-3.7-.3-3.7-.9s-.2-.2-.2-.5l.3-.7c0-.2-.2-.4-.4-.6h0a3.2,3.2,0,0,0,.7-2h.3Zm.1,26.5h0c.3.4,1.6.6,3.8.6h.4c.4,0,.6-.1.7-.3h0l-4.5-.3Zm.7-25.2v.2h.3c1.1,0,1.6-.1,1.6-.3h-.3C128.4,15.9,127.9,15.9,127.9,16.1Zm.2.9h0c0,.1.3.2.9.2h2.8c.7,0,1-.1,1-.2h0c0-.3-1.2-.3-3.6-.1Zm7.3-14.3a3.9,3.9,0,0,1,3.4,2.2l.4,2.1a7.5,7.5,0,0,1-1.3,3,3.7,3.7,0,0,1-2.5.8q-3.9,0-4.8-1.2a4.6,4.6,0,0,1-.9-3.4.2.2,0,0,1-.2-.2h0C130.7,4,132,3,133.3,3Zm-3.3,1.9h0a5.3,5.3,0,0,0,2.1-.5l-.4-.2C132.7,4.1,132.1,4.3,132.1,4.6Zm.3,29.7c0,.3.1.5.2.5s.2-.2.2-.6v-1a6.2,6.2,0,0,0,.6-2.4V29.5c.3-.1.4-.3.4-.4a3.9,3.9,0,0,1-.3-1.4h0q.3,0,.6-6.9c-.1-.4-.2-.5-.3-.5h-.1c-.5,0-.9,2-1,6.1Zm1.3,9.3h-.9v.2h2.7v-.2h-1.8Zm-.5-37.3h.4c.5,0,.8-.1,1-.5h-.8a.7.7,0,0,0-.7.5Zm.2,35.7.2.2h.1c.4,0,.5-.2.5-.6h-.3C133.6,41.6,133.5,41.7,133.4,42Zm.6-4.1v.3h.2l.3-.2h0l-.2-.2h-.1Zm.1-1.1v.4h.1c.3-.1.4-.3.4-.8V36h-.2C134.2,36,134.1,36.2,134.1,36.8Zm.1-19.9v.2c.2,0,.5.2,1,.6h.1a.2.2,0,0,0,.2-.2h.1q.2,0,.3.6h.1l.9-.7v-.3h-2.7Zm.3,3.5.3,1-.4,1c.2.5.3.7.4.7h.1v-.8c0-1.5.2-2.3.6-2.3l.2-.2v-.3h-.5C134.7,19.4,134.5,19.8,134.5,20.4Zm.5,10.5a13.2,13.2,0,0,0-.5,3.5h.1c.2,0,.4-.9.7-2.6v-.9Zm-.4-21.8v.2h1l.2-.2h-1.2Zm.7,11.9v.3a.5.5,0,0,0,.3.5h.2l.2-.2v-.3a.8.8,0,0,0-.4-.4Zm.8-13.2V8h.2a.7.7,0,0,0,.7-.4V7.4h-.1A.9.9,0,0,0,136.1,7.8Zm0,8,.2.2h.1v-.2l-.2-.2Zm1.3-9.7v.2h0l.3-.2V5.8h-.1Zm1.3,35.8c0,.5.4.8,1.1.8h.2v-.2l-.2-.2q0-.1.6-.3v-.4a.5.5,0,0,0-.3-.5h-.3c-.1,0-.2.2-.4.6Zm.3-2.7a2.8,2.8,0,0,0,1.3.4v-.2c0-.1-.3-.2-.8-.3H139Zm0,4.2h.1l.3-.2h-.2Zm1.6,2.5h.4v-.2h-.1Z" transform="translate(-0.9 0)" style="fill:#b75326"/><path d="M160.1,4.8h.3a37.7,37.7,0,0,1,5.9,1.5,1,1,0,0,0,.8.5l.3-.2,2.9,3.8c.2-.1.2.1.2.6a12.7,12.7,0,0,1,.7,3.6c0,1.1-.8,1.6-2.3,1.6a8,8,0,0,1-2-.5h0c-.2,0-.3.2-.4.7h-.2q-.3,0-.9-2.4a23.7,23.7,0,0,0-1.2-3.6c-.6-.4-1.8-.5-3.6-.5h-.2l-4.7,1.1c-1.2.8-1.7,1.3-1.7,1.6q0,8.4.6,8.4t5.4.9c.5.2.7.4.7.6a2.9,2.9,0,0,1,1.2,2.2c0,1.7-1.2,2.6-3.7,2.6H158a3.5,3.5,0,0,1-2-.7h-.4c-.8.1-1.3.2-1.3.4v8.4a16.4,16.4,0,0,0,.4,3.8l-.2,1.8v1.7c0,.3,1.2.6,3.7,1s3.4.2,3.9.6l.2.2c-.2,0-.5,1.2-.8,3.5l-2.5-.3h-.8a56.1,56.1,0,0,0-7-.6h-5a1.2,1.2,0,0,1-.3-.9V44.8a9.8,9.8,0,0,0-.2-2.7c0-.3.4-.4,1-.4a11.3,11.3,0,0,1,2.4.5h1c.4,0,.7-.1.8-.4h0a12.1,12.1,0,0,1-.6-4.5,12.9,12.9,0,0,1-.3-2.4v-.2c0-1.2.3-3.8.8-7.8,0-.2-.4-.3-1.1-.3h-.2a17.8,17.8,0,0,1-4.5.8l-.9-.2c.1-3.8.4-5.7.8-5.7s.2-.3.4-.3h.3q4.8,0,4.8-.3c0-2.6,0-4.4-.1-5.5V12.5l-.4-1.1h0a14.6,14.6,0,0,1,1.7-2.4l2.9-3A15.1,15.1,0,0,1,160.1,4.8Zm-15,17.4v.2l.2.2h.3a1.2,1.2,0,0,0,.5-.5l-.2-.3h-.2A.5.5,0,0,0,145.1,22.2Zm.6,3a2.2,2.2,0,0,0-.4,1v.2l.2.2h.6v-.2A1.6,1.6,0,0,0,145.7,25.2Zm1.9,20.1h0c0,.3.8.4,2.6.6h.1a3.8,3.8,0,0,0-2.2-.6h-.5Zm.2-22.6h0a.8.8,0,0,0,.4.7c.3,0,.6-.2,1.1-.6s-.4-.3-1.1-.4h-.1Zm0,19.9v.2c0,.2.3.3,1,.4h.7v-.2l-1.5-.3Zm.5-18-.2.2h.7C148.8,24.7,148.7,24.6,148.3,24.6Zm1.3,1.1h.8l.2-.2h-.8ZM151,45.2h0c.4.5.7.7,1,.7h.5A2.3,2.3,0,0,0,151,45.2Zm.8-12.8.2.6v.8c.2,1.3.3,2,.5,2h.1c.2,0,.3-.8.4-2.2v-.3c0-.8-.3-1.2-.7-1.2h-.3A.4.4,0,0,0,151.8,32.4Zm.3-5-.2,1.8v1h.2V27.4Zm.1,13a9.2,9.2,0,0,0-.2,1.9h.3l.3-.3v-.8q-.2-.9-.3-.9Zm0-1.6v.4h.2v-.4Zm.2-14.8v.5h.3v-.4l-.2-.2Zm.1,7.2h-.1v.4h.2v-.5Zm.2-1v.5h.1l.2-.2v-.3Zm.1-1.1v.2h.2v-.2Zm.6,16.7V46c0,.1.3.3,1.1.4h1l.2-.2c0-.2-.5-.4-1.4-.4Zm2-38.7h0a4.8,4.8,0,0,0,3.4-1V6h-.1A5.7,5.7,0,0,0,155.4,7.1Zm0,16.1v.2a.9.9,0,0,0,.9.5h.4v-.2a1.2,1.2,0,0,0-1-.5Zm3.2.7v.2h.2v-.2Zm.1,1.6h.3c1.2-.2,1.7-.4,1.7-.7h-.4C159.2,24.9,158.7,25.1,158.7,25.5Zm.3,19h.6q1.2,0,1.2-.3h-1.2C159.2,44.3,159,44.4,159,44.5ZM159.3,9h.2V8.9h-.1Zm.8,37h0l.5.5h.1l.2-.2V46l-.2-.3h-.4Zm.1-38.7h0c0,.1.2.2.5.2h1c0-.2-.3-.3-1-.3Zm4.5-.2a2.7,2.7,0,0,0,2,1.2V7.8a2.8,2.8,0,0,0-1.8-1h0C164.8,6.8,164.7,6.9,164.7,7.1Zm.7,3.3h0a3,3,0,0,0,.5,1.5h.3v-.4c-.1-.8-.4-1.2-.8-1.2Zm1.3,3.9h.4V13.3h-.1A1.1,1.1,0,0,0,166.7,14.3Z" transform="translate(-0.9 0)" style="fill:#b75326"/><path d="M169.1,14.8a2,2,0,0,0,1.3.4l.8-.3c5.6,0,8.4.1,8.4.5v1.4a5.2,5.2,0,0,1,.5,2.4v1c-.4,5.7-.7,11.1-.9,16.3a3.5,3.5,0,0,0-.3,1.3.6.6,0,0,0,.6.3h.2c2.3,0,3.4.2,3.4.7H183v.4a11.3,11.3,0,0,1,.7,4.7l.2,2.5h-9c-4.7,0-7-.3-7-1.1a3.5,3.5,0,0,0-.3-1.3,1.3,1.3,0,0,1,.6-.7h.1a.8.8,0,0,0,.6.2h.2l4.2-.3h0c-3.5-.2-5.3-.5-5.3-.8V41.3l-.2-1.5c0-.5,1.6-.7,4.7-.7q.6,0,.6-2.7l.7-16.3h-.1c-1.5,0-2-.1-1.6-.4-2.4,0-3.7-.3-3.7-.9s-.2-.2-.2-.5l.3-.7a.7.7,0,0,0-.4-.6h0c.4-.3.6-.9.7-2h.3Zm.2,26.5h0c.3.4,1.6.6,3.8.6h.4q.6,0,.6-.3h0l-4.4-.3Zm.7-25.2v.2h.3c1,0,1.6-.1,1.6-.3h-.3C170.5,15.9,170,15.9,170,16.1Zm.2.9h0c0,.1.3.2.8.2h2.9c.7,0,1-.1,1-.2h0c0-.3-1.2-.3-3.7-.1Zm7.3-14.3a4,4,0,0,1,3.4,2.2l.4,2.1a9.4,9.4,0,0,1-1.3,3,3.7,3.7,0,0,1-2.5.8c-2.6,0-4.2-.4-4.9-1.2a5.1,5.1,0,0,1-.8-3.4c-.2,0-.2-.1-.2-.2h0C172.8,4,174,3,175.4,3Zm-3.4,1.9h0a5.3,5.3,0,0,0,2.1-.5l-.3-.2C174.7,4.1,174.1,4.3,174.1,4.6Zm.3,29.7c.1.3.2.5.3.5s.2-.2.2-.6v-1a7.7,7.7,0,0,0,.7-2.4V29.5l.4-.4a3.9,3.9,0,0,1-.3-1.4h0q.3,0,.6-6.9c-.1-.4-.2-.5-.3-.5h-.1c-.6,0-.9,2-1,6.1Zm1.4,9.3h-.9v.2h2.7v-.2h-1.8Zm-.5-37.3h.4c.5,0,.8-.1.9-.5h-.8a.6.6,0,0,0-.6.5Zm.2,35.7.2.2h.1c.3,0,.5-.2.5-.6H176C175.7,41.6,175.5,41.7,175.5,42Zm.6-4.1v.3h.2l.2-.2h0v-.2h-.1Zm0-1.1v.4h.2c.2-.1.3-.3.3-.8V36h-.2C176.3,36,176.2,36.2,176.1,36.8Zm.1-19.9v.2c.3,0,.6.2,1,.6h.2a.2.2,0,0,0,.2-.2h0c.2,0,.3.2.4.6h.1l.8-.7v-.3h-2.7Zm.3,3.5.3,1-.4,1a2.2,2.2,0,0,0,.4.7h.1v-.8c0-1.5.2-2.3.7-2.3l.2-.2v-.3h-.6C176.8,19.4,176.5,19.8,176.5,20.4Zm.6,10.5a14.1,14.1,0,0,0-.6,3.5h.1c.2,0,.5-.9.8-2.6v-.9Zm-.5-21.8v.2h1.1l.2-.2h-1.3Zm.8,11.9v.3a.5.5,0,0,0,.3.5h.2l.2-.2v-.3a1,1,0,0,0-.5-.4Zm.8-13.2V8h.2a.8.8,0,0,0,.7-.4V7.4h-.2A.9.9,0,0,0,178.2,7.8Zm0,8,.2.2h.1v-.2l-.2-.2Zm1.2-9.7v.2h.1l.2-.2V5.8h-.1Zm1.4,35.8c0,.5.4.8,1,.8h.2v-.4l.5-.3v-.4a.5.5,0,0,0-.3-.5h-.2c-.1,0-.2.2-.4.6Zm.3-2.7a2.4,2.4,0,0,0,1.3.4v-.2c0-.1-.3-.2-.8-.3h-.5Zm0,4.2h.1l.2-.2h-.1Zm1.5,2.5h.5l-.2-.2h-.1Z" transform="translate(-0.9 0)" style="fill:#b75326"/><path d="M200.8,15.6c1.7,0,3.8.8,6.3,2.2s3.2,2.7,3.2,3.3c1.6,3.5,2.4,5.6,2.4,6.2v.5a8,8,0,0,0-1,2.9h-5.6l-1.7.2c-6-.5-10.2-.7-12.5-.7h-1.3a4.3,4.3,0,0,0-.8,1.5,4.8,4.8,0,0,1,.5,2.2c0,1.6.2,2.5.7,2.8v.3h0l-.4-.2v.2l.6.6a3.1,3.1,0,0,0,1.1,2c1.3,2.4,2.8,3.9,4.4,4.5a15.8,15.8,0,0,0,4.7.6,5.1,5.1,0,0,0,1.7-.7c.8-.3,2.4-1.6,4.7-4.1h0c0-.1-.3-.2-.8-.3l-.2-.3a7,7,0,0,1,3.5-3.5l2.2,1.7a52.5,52.5,0,0,0,3.7,4.9v.3c-1.4,1.7-2.3,2.5-2.9,2.5h-.2c0-.9-.6-1.4-1.7-1.5a14.7,14.7,0,0,0-2.7,2,15.5,15.5,0,0,1-4.9,2.1,30.9,30.9,0,0,1-5.7.9l-3.5-1.3c-2,0-3.8-1.1-5.4-3.2a9.1,9.1,0,0,1-1.8-2.7,42.3,42.3,0,0,0-1.3-5.1,15.5,15.5,0,0,1-.4-3.4h0a21.9,21.9,0,0,1,4.9-14.4,4.4,4.4,0,0,1,2.9-2.3l3.5-.7ZM186.9,31.3h0v.2h0a2.2,2.2,0,0,0-.1.9v.3a4.1,4.1,0,0,0,.6,2h.2C187.6,32.7,187.4,31.6,186.9,31.3Zm0-2.3v.4c0,.2.1.4.2.4s.3-.2.3-.6l-.2-.2Zm.8-3.3a5.4,5.4,0,0,0-.8,2.5h.1c.3,0,.6-.7,1.1-2.2S187.9,25.7,187.7,25.7Zm.1,11h0l.2.2h.1v-.2h-.3Zm.6,1.1h0c.2.6.4,1,.7,1h0A1.3,1.3,0,0,0,188.4,37.8Zm1.8-8.2h.1l1.1-.2h0l-.2-.3H191A.9.9,0,0,0,190.2,29.6Zm.1-7.4h.1Zm0,3.9v.4h.1a1.6,1.6,0,0,0,.7-.7v-.2H191C190.7,25.6,190.5,25.8,190.3,26.1Zm.6-1.6v.2c0,.5,3.8,1,11.2,1.5l.7.2h.7a15.2,15.2,0,0,0,3.4.9c0,.1.1.2.4.3a2.5,2.5,0,0,0,.4-1.1V25.3c0-.6-1.1-1.8-3.2-3.6a5.3,5.3,0,0,0-3.2-1.7l-2-.3c-3.5.7-5.7,1.5-6.8,2.5A10.6,10.6,0,0,1,190.9,24.5Zm.1-1h0a.5.5,0,0,0,.3-.5h0A.5.5,0,0,0,191,23.5Zm.2,21.2v.2c0,.3.3.5,1,.7l.3.3h0l-1.1-1.1Zm.4-23.9V21h.1c.6-.2.8-.3.8-.5h-.3C192,20.4,191.8,20.6,191.6,20.8Zm.3,8.4v.3h.3v-.2h-.3Zm.7-11.3h0l.2.2h0c.9-.2,1.3-.4,1.3-.7v-.3l-.2-.3h-.2C193,17.2,192.6,17.5,192.6,17.9Zm.8,10.7v.2a48.2,48.2,0,0,0,6.6.5h-1.3c0,.2.6.3,1.6.3s2.6-.1,2.6-.4S199.7,28.8,193.4,28.6Zm.7-2.1v.2a8.3,8.3,0,0,0,4.2.8h1.4v-.3Zm.1-6.1a9.5,9.5,0,0,1,2.5-1H196Q194.2,19.5,194.2,20.4Zm.9-3.4h.1a14.1,14.1,0,0,0,3.7-.7q.6-.2.6-.3h-.2a11.3,11.3,0,0,0-4.1.9h-.1Zm.5,27.9h0c0,.2.4.4,1.3.6h.1l-1.3-.5Zm2.2-26.6h0c0,.2.8.4,2.5.7h.1v-.2a1.8,1.8,0,0,0-1.6-.8h-.3C198,18,197.8,18.1,197.8,18.3Zm1.3,27.3v.2h.2v-.2Zm2.3,1.6h-1.5c-.4,0-.6,0-.6.2h0l.2.2h1.1a19.3,19.3,0,0,0,4.5-.6h0c-.1-.2-.3-.3-.7-.3h-.3A6,6,0,0,0,201.4,47.2Zm-1.1-29.9v.2a6.1,6.1,0,0,0,2.5.4h.1v-.2c0-.1-.3-.2-.8-.3Zm1.2,1.4h0a22.8,22.8,0,0,0,3.8,2h.1l.6-.2h.4l-1-.4-1.3-.5a1.9,1.9,0,0,0-2-1.1H202C201.7,18.5,201.5,18.5,201.5,18.7Zm3.7,9.4v.2h.2v-.2Zm.1,1.7c0,.1.3.2,1,.2h.6c0-.2-.4-.4-1.2-.4S205.3,29.7,205.3,29.8Zm0,14.1h.1a1.3,1.3,0,0,0,.5-.7h0C205.5,43.4,205.3,43.6,205.3,43.9Zm.4,2.7c.4,0,.8-.3,1-1h-.2C206,46,205.7,46.3,205.7,46.6Zm.6-24.9a.6.6,0,0,0,.6.5h.1l.2-.2v-.4l-.3-.3C206.5,21.3,206.3,21.4,206.3,21.7Zm.9,20.2h.1c.5,0,.7-.3.9-.8h0C207.7,41.1,207.4,41.3,207.2,41.9Zm.5-19.4c.4,1.3.7,2.1,1,2.2h.3c-.3-1.3-.6-2-1-2h-.3Zm.9,15.9h.4c.3,0,.4-.1.4-.2l-.2-.3h-.1A.5.5,0,0,0,208.6,38.4Zm.3,5.8h.2q.6-.6.6-.9h0C209.2,43.5,208.9,43.8,208.9,44.2Zm.9-18.8v.4l.2.2c.2,0,.3-.2.3-.4v-.2h-.5Zm.3,17v.2c.7-.2,1-.5,1-.8h-.1C210.5,41.7,210.1,41.9,210.1,42.4Zm1.4-.6h.2a.5.5,0,0,0,.4-.6h-.2A.7.7,0,0,0,211.5,41.8Zm2.2-.6h-.1c.1.5.3.8.5.8h.1v-.2h0Q214.2,41.2,213.7,41.2Z" transform="translate(-0.9 0)" style="fill:#b75326"/><path d="M244.3,0a6.7,6.7,0,0,1,2.6.7c.1,0,.2.6.2,1.9s.8.8.8,1c-.3,2-.4,6-.6,12.1-.1,0-.2.2-.2.6a.8.8,0,0,0-.4.7v.9a9.3,9.3,0,0,1-.7,2.9v.9c0,.2.2.3.6.4v.4a95.2,95.2,0,0,0-1,10.3c0,1.8-.1,2.8-.3,2.8h0c.2,0,.3.3.4.8v.7a45.5,45.5,0,0,1-.7,5.6v1.5c2,.4,3.1,1,3.1,1.7l-.3.4V47l.3.4h0c-.3.9-1.5,1.4-3.5,1.4h-.4l-.3-.6h-.7l-1.7.4h-2.3c-.2,0-.3-1-.6-3.1v-2a5.8,5.8,0,0,0-2.5,1.4,23.7,23.7,0,0,1-9,3,14.5,14.5,0,0,1-6.4-3.5,14.5,14.5,0,0,1-2-2.9,8.9,8.9,0,0,1-1.1-1.9v-.2h.2a9,9,0,0,1,1.6,2.1h.3v-.8a5.1,5.1,0,0,0-1.3-3h-.3c-.2,0-.4.4-.4,1.1h-.2v-.3a17.6,17.6,0,0,1,.2-3.1h.3v.6h.1a.8.8,0,0,0,.3-.7V33.8c-.1,0-.2.2-.2.6l-.3.4c-.1,0-.2-.2-.3-.5a19.6,19.6,0,0,1,3.1-9.9,24.7,24.7,0,0,1,2.8-4c1.3-1.2,3.4-1.7,6.2-1.7h.6c4.4,0,8,1.1,10.7,3.4l.4.2h.3c.3-1.8.7-6.4,1.1-13.8.1-.3.2-.4.4-.4h0a7.5,7.5,0,0,0-2.7-1.3c-.4,0-.6-1.4-.7-4.2l1-.3h0c0-.2-.2-.3-.5-.3s-.3-.3-.3-.5.5-.6,1.4-.6V.5l-.2-.3h3ZM220.4,32.8c0,.1,0,.2.2.2s.5-.4.6-1.3v-.3H221C220.8,31.4,220.6,31.9,220.4,32.8Zm.6-5.5v.2h.2c.2-.1.5-.5.8-1.5s2.1-2.5,2.5-2.5l.2-.5h-.4a9.9,9.9,0,0,0-2,1.3A9,9,0,0,0,221,27.3Zm.3,15.8h0c0,.3.7.4,2,.6v-.2a6.9,6.9,0,0,0-1.8-.6Zm.1-7.2v.9c0,.6.8,2.3,2.3,5a8.4,8.4,0,0,0,3.7.9,18.5,18.5,0,0,0,8.3-2c1.1-1.7,2.1-2.5,2.9-2.5s1-2.1,1.5-4.7a5.2,5.2,0,0,0,.5-2.3v-.6c0-1.7-.2-2.6-.7-2.6a10.1,10.1,0,0,1-1.4-1.5l.2-.4c0-.2-.6-.4-1.7-.7l-.4-.3h1c0-.4-2.3-.7-6.7-.7l-1-.2c-3.2.3-4.9.7-4.9,1.3a13.3,13.3,0,0,0-2.9,6.6A12.9,12.9,0,0,0,221.4,35.9Zm1.4,8.3c0,.4,1.2.9,3.6,1.3h.4c0-.3-1.2-.8-3.5-1.3H223Zm.9-22v.2h.4c1.5-.4,2.2-.8,2.2-1.4s-.2-.2-.6-.2h-.3C224.8,20.9,224.2,21.3,223.7,22.2Zm2.9,24.4v.2h.9a13.7,13.7,0,0,0,2.9-.4h0l-1.8-.2C227.3,46.2,226.6,46.4,226.6,46.6Zm1.2-26.1V21h.3l.4-.3v-.2l-.3-.2H228Zm0,3h0Zm1.4,19.9v.2h.8q4-.3,4.5-1.2v-.2h-.2C231.2,42.8,229.5,43.1,229.2,43.4Zm.6-20.3h.2Zm1,21.7h.6c1.2,0,1.9-.2,1.9-.4H232Q230.8,44.5,230.8,44.8Zm.4-21.1h.2l1.3-.2h-.4C231.6,23.4,231.2,23.5,231.2,23.7Zm.4-2.7h2.8c-.1-.3-.8-.4-2-.5h-.6A.6.6,0,0,0,231.6,21Zm2.7,2.5.2.3h.3l.2-.2a.6.6,0,0,0-.5-.2h-.2Zm1.1,19.1v.2h0a2.1,2.1,0,0,0,1.1-.7v-.2h-.3A2.9,2.9,0,0,0,235.4,42.6Zm.8-21H236v.2l1.9.6h.1c0-.4-.3-.7-1-.9Zm.8,1.9.3.2v-.2H237Zm.9.4c0,.1.6.4,1.9.7h0v-.2a1.3,1.3,0,0,0-1.2-.5Zm1.3,2.4v.5l.3.3h.2c.1,0,.2-.2.2-.4a.6.6,0,0,0-.3-.6h-.1Zm.9,15.8v.3q.3,0,.3.6h.1l.3-.3v-.5a.8.8,0,0,1-.2-.6h-.2A.5.5,0,0,0,240.1,42.1Zm0,2.4h.2l.2-.2h-.1Zm1.4-40.1v.2h.4c.3,0,.5,0,.5-.2V4.2h-.6Zm.1-1.5h.8V2.7h-.5Zm1.2,19c0,.3.1.6.2.6h.1v-.5Zm.4-17.4h.2q1.5,0,1.5-.3l-.2-.2h-.8A.8.8,0,0,0,243.2,4.5Zm.1,38v1.3l.2.2h.1v-.8c0-.4,0-.6-.2-.7Zm.2,2.2v.2h.4v-.2Zm1.3,2c0,.1.2.2.6.2h1.7c0-.2-.3-.3-.8-.3S244.8,46.5,244.8,46.7Zm.3-43.2h.1Zm1.2,17h.3v.3h-.3Z" transform="translate(-0.9 0)" style="fill:#b75326"/><path d="M255.7,39.4a4.9,4.9,0,0,1,2.6,1,2,2,0,0,1,.3,1.1v.8c0,1.7-1,2.9-2.9,3.7l-.8.4c-.8,0-1.7-.8-2.5-2.4v-.4c0-1.7.3-2.8.9-3.2A5.2,5.2,0,0,1,255.7,39.4Zm-2,2.7c.1,1.1.2,1.6.4,1.6a7.8,7.8,0,0,0,.6-2.1l.2-.4v-.3h-.1C254.1,41.2,253.7,41.6,253.7,42.1Zm.3,2.7c0,.3.1.4.4.5h.7a1.7,1.7,0,0,0,1.2-.6h0Zm1.3-2.3h0c0,.4.1.7.3.7h.1c.2,0,.5-.4.7-1.3v-.3h-.3C255.6,41.6,255.4,41.9,255.3,42.5Zm1.9.8h.3v-.6h0C257.4,42.8,257.3,43,257.2,43.3Z" transform="translate(-0.9 0)" style="fill:#231f20"/></g></g></svg>