<svg xmlns="http://www.w3.org/2000/svg" viewBox="0 0 270.8 64.9"><title>icn_rotator_Asset 68_adj</title><g id="Layer_2" data-name="Layer 2"><g id="Layer_1-2" data-name="Layer 1"><path d="M5.6,16l4.2,1.4a6.4,6.4,0,0,0,.8,2V20c-.4,2.6-.5,8-.3,16.5a2.2,2.2,0,0,0,1.4,2.3l.5,1.1c0,.2,1.4.5,4.1.6h.2c.9,0,1.9-.9,3.2-2.8a10.7,10.7,0,0,0,2-2.3h.3v-.7a4.3,4.3,0,0,0,.5-1.6h.1v-.6l1.1-11.7V19h0a1.8,1.8,0,0,0,.7-1.5c0-.4.1-.7.4-.7l1.4.7h1.4c1.7,0,2.8.3,3.5,1v.3c-.4,0-.7.1-.7.2l.6,1.5h.2a6.6,6.6,0,0,1,.2-.9,1.9,1.9,0,0,1,.4,1L31,28.2h.1a61.4,61.4,0,0,0-.8,7.4v1.8c0,2.7.1,4,.3,4h.3a15,15,0,0,0,3.6-.5c.2,0,.6.3,1.1.8-.2,3.6-.4,5.5-.7,5.5l-.7-.6-1.9.2-6.9-.2c-.3,0-.7-.8-1-2.4a1,1,0,0,1-.4-.8V43h-.2a19,19,0,0,0-3.7,1.7c-.1.2-1.5.9-4.2,1.8a11.8,11.8,0,0,1-2.5,1,12,12,0,0,0-3-1.1c-2.6-2.5-4.2-4.8-4.8-6.8s-1.5-4.7-1.5-9.7l.6-7.2v-.2a20.2,20.2,0,0,0-4.2-.8,8.2,8.2,0,0,1-.4-3.1c0-1.1.2-1.7.6-1.7S2.4,16.1,5.6,16ZM1.1,18.9v.2H2v-.2Zm0,1.9V21h.5l.2-.2-.3-.2H1.3Zm.3-1.3v.2c.1.2.3.3.7.3h.1l-.3-.4Zm1,.8h.1l.5-.3v-.2H2.7Zm1.1,0c0,.3.7.7,2,1.1h.6c.2,0,.2-.2.3-.4a3.7,3.7,0,0,0-1.7-1H4.2C3.8,20,3.6,20.1,3.5,20.3Zm.9-3.5V17h.4v-.2H4.4Zm1.1,6.7v.6l.9-.3V22.4H6.2C6,22.3,5.8,22.7,5.5,23.5Zm0,10.8v.2c0,1.6.9,4.1,2.6,7.5.3.3.5.4.7.4V42L7,37.1c-.6-1.9-1-2.9-1.3-3h0Zm.3-17h0c0,.1.3.3.9.5a3.1,3.1,0,0,0,.1.9h.4c1.1,0,1.7-.2,1.8-.5H9c0-.3-.6-.5-1.8-.7s-.3-.2-.8-.3H5.8Zm.5,13.1-.2.3h0l.2.2.2-.2v-.3Zm1.5,2.2V33a1.6,1.6,0,0,0,.8,1.3h.2c0-1.5-.1-2.3-.4-2.3H8.2A.5.5,0,0,0,7.8,32.6Zm.4-11.8V22h.1c.3-.1.4-.3.4-.7v-.7c0-.3-.1-.5-.2-.5H8.4C8.3,20.2,8.2,20.4,8.2,20.8Zm.7,15.9h0c.2.2.3.3.5.3h0C9.4,36.8,9.3,36.7,8.9,36.7Zm1.2,4.4v.2a.5.5,0,0,0,.5.3v-.3l-.2-.2Zm3.6,4.1h-.5L10.7,45h-.1l-.2.2h0c0,.3,1.1.8,3.4,1.2A12.8,12.8,0,0,0,17.9,45H18v-.2h-.4A16,16,0,0,1,13.7,45.2Zm-3-5.3h0v.2h.1V40Zm1,1.7h0c0,.5.7,1.1,2.1,2a10.1,10.1,0,0,0,2.5-1.2h0a26.3,26.3,0,0,1-4.5-.7Zm3.2,2.2V44h.7a6.4,6.4,0,0,0,3.2-1.7v-.2h-.3A19.8,19.8,0,0,0,14.9,43.8Zm5.1-5h.1a7.7,7.7,0,0,0,1.5-2.2h-.1A8.3,8.3,0,0,0,20,38.8Zm3.1-1.7c-.2.3-.4.5-.4.7l.3.2h.1l.2-.2v-.4Zm.5,3.8h.1l.4-.4v-.2C23.7,40.4,23.6,40.6,23.6,40.9Zm1.2-22.8q0,.6.9.6h.6c0-.2-.5-.3-1.4-.4Zm.3,15.5v.6l.2.2a1,1,0,0,0,.6-.5v-.3l-.2-.2h-.4Zm.1-13.3h0a.6.6,0,0,0,.5.2h0c.3,0,.5-.1.5-.2h0c0-.1-.2-.2-.6-.2h-.2Zm0,20.7v.7c0,2.9.2,4.4.5,4.4h.2c.3-.1.4-.2.4-.4s-.4-2.1-.6-4.5l-.3-.4Zm.1-3v.4h.3v-.2h-.3Zm.1-5.3.3.3c.2,0,.4-.5.4-1.2H26A1.1,1.1,0,0,0,25.4,32.7Zm.9-5.9v.3h.1c.4,0,.6-.5.6-1.4s-.1-.6-.2-.6S26.5,25.7,26.3,26.8Zm.3,10v.4a12.9,12.9,0,0,0,.4,2.5h.2a14.1,14.1,0,0,0,.2-1.8v-.4c0-.5-.2-.7-.6-.7Zm0-.8h0l.2.2.2-.2v-.2h-.3Zm1.2,8.8h0a.8.8,0,0,0,.7.3h.9c0-.2-.3-.3-.9-.4H28Zm.7-16V29c0,.2.1.3.2.3h.1v-.5Zm.8,11.1-.6.9V41h.6l.3-.2v-.3A.6.6,0,0,0,29.3,39.9Zm1.8,2.9V43h.6c1,0,1.4-.2,1.4-.4h0Zm1.7.8V44h.3v-.2h0c0-.1-.1-.1-.2-.1Z" transform="translate(-0.2 0)" style="fill:#b75326"/><path d="M41.1,15.1h.1a5.4,5.4,0,0,1,3.3.9c.7.1,1.1.2,1.1.3v.2c-.6,0-1,.2-1,.5l1.2.3c.1.2.4.3.9.5h1.5l.7.2,4.8-1.1h.1A21.9,21.9,0,0,1,62.3,21c2.6,2.6,4.1,4.6,4.4,5.9a11,11,0,0,1,.7,2.9c-.6,4.9-1.1,7.4-1.5,7.4a26.1,26.1,0,0,1-2.8,4.1l-.5.5V42h0a4.5,4.5,0,0,1-2.3,1.7,2.3,2.3,0,0,0-.6,1.2,4,4,0,0,1-2.9.9,27.7,27.7,0,0,1-6.2,1.4,7.2,7.2,0,0,1-2.6-1,16,16,0,0,0-3-.3l-.4.2c.3.4.4,1.5.4,3.3v.9l.5,2.8v4.9c0,1,.3,1.5,1,1.5l.4.4h0a.4.4,0,0,0-.4.4,3.2,3.2,0,0,1,.9,2.3L48,64a7.3,7.3,0,0,1-2.2.3L41.4,64l-1.2.9c-1-.3-1.9-1.3-2.7-3.1h-.1v-.2l.4-.2h0a2.3,2.3,0,0,1-.5-1V60h.2c.1,0,.1.1.1.2h.5v-.7a1.6,1.6,0,0,1,1.4-.6,12.4,12.4,0,0,0,.2-3V51.5a55.9,55.9,0,0,0-.4-5.6V20.6H37.9l-.2-.3V16.9a1.3,1.3,0,0,1,1.5-1.5A4,4,0,0,1,41.1,15.1Zm-2.8,1.2a.5.5,0,0,0,.3.5H39a.5.5,0,0,0,.5-.3v-.2A.5.5,0,0,0,39,16h-.2C38.5,16,38.3,16.1,38.3,16.3Zm.6,46.1h0q0,.1.9.3c.6-.1,1-.2,1-.3H39ZM39,17.9v.3a.9.9,0,0,0,.4.8h.2v-.6q0-.6-.3-.6H39Zm1,42.9h0c0,.2.2.3.5.3V61l-.2-.2Zm.8-38.6a3.3,3.3,0,0,0,.3,1.5h0l-.4,1.1.4,1a72.5,72.5,0,0,0-.6,7.7v4.5a14.8,14.8,0,0,0,.3,3.1l-.3,1.9v.6l.2,5.3h.1a.7.7,0,0,0,.6-.7h0l-.3-.6c.2,0,.3-1.7.4-5.2V38.2c.3-6.5.4-11.3.4-14.4h0c0-2.4-.2-3.7-.6-3.7S40.8,20.8,40.8,22.2Zm0,28.8v.9c0,.7.1,1,.3,1a5.2,5.2,0,0,0,.5-2.3v-.3l-.3-.3A1.1,1.1,0,0,0,40.8,51Zm.6,3.5-.2.3v.8a5.2,5.2,0,0,0,.2,1.1h.4V55.5c0-.7,0-1-.2-1Zm1.4-28.4-.2,4.3v.3h.2V25.9h0Zm0,34.7h0l.2.3h.2V61h0l-.2-.3H43Zm.1-37.4v.4c.1,0,.2-.4.3-1.1h-.1C42.9,22.8,42.9,23,42.9,23.4ZM44.3,61h0l.3.2H45V61h-.7Zm4.9-37.9c0,.2-.4.6-1.3,1h.6c-1.8.8-2.9,1.6-3.2,2.3s-.4,3.8-.6,11.5v.8c0,.2.9.9,2.8,2.3l2.5,1.2.3.4h.3a9,9,0,0,0,4.2-1.4A8.4,8.4,0,0,1,57.4,40c2.1-1.8,3.2-3.4,3.2-4.9v-.9l-.2-.9h0l.5-.6v-.2c-.3-.2-.5-.6-.5-1.5a4.8,4.8,0,0,0-1.3-3.5A5.6,5.6,0,0,0,57,24.7c-.3-.5-1.4-1-3.2-1.4h-.6l-2.9.2h-.1a1,1,0,0,1-.9-.4ZM44.7,40a.8.8,0,0,0,.8.7h0A1,1,0,0,0,45,40Zm.2-22.1v.2h.4v-.2l-.2-.2H45Zm.3,25.6h-.1c0,.5,1.2.8,3.7,1L50,44h0l-.2-.3h-.3l-1.7.3A11.4,11.4,0,0,0,45.2,43.5Zm.6-20.7V23H46l.3-.3v-.2h-.2Zm.9-4.3h.5l.2-.2v-.2h-.1C46.9,18.3,46.7,18.4,46.7,18.5Zm3.8.6c0,.2.8.4,2.5.6,0,.1.2.2.6.2h.9l.3-.3H53.4l.2-.3v-.3H52C51,18.8,50.5,19,50.5,19.1Zm.7,3.7c0,.2.2.2.8.3h.4v-.2l-.2-.3h0l3.4-.4.3-.2-.2-.3h-.5C52.5,21.8,51.2,22.2,51.2,22.8ZM52,44h.2c2.3-.4,3.5-.9,3.5-1.2h-.3C53.1,43.3,52,43.7,52,44Zm2.5-26.3v.2a2.7,2.7,0,0,0,1.2.3H56c0-.3-.4-.4-1.4-.5Zm1.1,5h0a1.7,1.7,0,0,0,1.4.5h.6c-.1-.2-.6-.4-1.5-.4Zm1.1-4.2h0a2.7,2.7,0,0,0,1.6,1h.3C58.6,19.1,57.9,18.7,56.7,18.5Zm.8,3.5h0l.2.2h.2l-.2-.2Zm.1,21.8h.1c.9-.2,1.4-.5,1.4-.7h0v-.2h-.1C58,43.2,57.6,43.5,57.6,43.8Zm.9-20.2h0c0,.5.4.9,1.3,1.2H60c0-.6-.4-1.1-1.3-1.4Zm.7,16.2h.2a2.9,2.9,0,0,0,.8-.8h-.1C59.6,39.3,59.3,39.5,59.2,39.8Zm.1,2v.3h.1c.5-.1.8-.4.8-.7h-.1A.9.9,0,0,0,59.3,41.8Zm.3-21.4h0c0,.2.2.3.5.5h.2v-.2a.5.5,0,0,0-.5-.3Zm.8,6v.3a6.7,6.7,0,0,0,.9,2.1h.2v-.3a2.6,2.6,0,0,0-.8-2.1Zm1,3.3V30h.4v-.3Zm0,5.6h.1a.7.7,0,0,0,.7-.6v-.5L62,34h-.1A2.1,2.1,0,0,0,61.4,35.3Zm.6-3.4v.9l.3.2h0l.2-.2a1.5,1.5,0,0,0-.4-.9Zm.3-10.2h0a2,2,0,0,0,.9,1.1h.1C63.3,22.5,63,22.1,62.3,21.7Zm1.3,1.6v.2h.3v-.2Zm.1,13.8h.1a8.4,8.4,0,0,0,1.3-4.4v-.8h-.2C64.5,31.9,64.1,33.6,63.7,37.1Zm.6-10.7.4.8H65a.9.9,0,0,0-.6-.8Z" transform="translate(-0.2 0)" style="fill:#b75326"/><path d="M80.2,14.3h2A17.3,17.3,0,0,1,87,15.6a8.9,8.9,0,0,1,3.9,1.6h.3c.5,0,1.5-.8,3-2.5.3,0,1,.6,1.8,1.7a4,4,0,0,1,1.5,1.2v.2C95.1,20.3,94,21.7,94,22a42.8,42.8,0,0,1-2.2,6.3,8.3,8.3,0,0,1-3.4,2.1c-1.8,1.8-3.4,2.8-4.8,2.8H81.7l-4-.4h-.8c-.3,0-.7,1.4-1.3,4.1l.5.2h.2a4.3,4.3,0,0,0,2.1-.8h4a33.6,33.6,0,0,1,9.7,1.1l2.7,1.4,2.1,1.5A10.2,10.2,0,0,1,100,44a16.4,16.4,0,0,1,2.2,7.3q0,2.3-3.6,5.7l-3.7,2.7a13.7,13.7,0,0,1-7.1,1.9l-1.7.2c-7.3,0-12.3-1.5-14.9-4.5a5,5,0,0,1-2.9-4.4,10.9,10.9,0,0,1-1-5.2l-.2-1.4.2-.8h.2c.1,1,.3,1.4.5,1.4h.2a38.8,38.8,0,0,1,1.4-5.2h-.1A13.5,13.5,0,0,0,67.7,45h-.1c-.2,0-.3-.3-.3-.7A12.9,12.9,0,0,1,69.6,40a9.7,9.7,0,0,0,2.3-2.6c.5-3.4.8-5.6,1-6.3A11.3,11.3,0,0,1,71.3,26V25a20.1,20.1,0,0,1,.8-3.9l2.7-3.3C76.8,15.5,78.7,14.3,80.2,14.3ZM67.9,49.2v.4l.2.3h.1v-.7h-.3Zm.3,1.1h0c0,.3.1.5.2.5h.2v-.2l-.3-.3Zm1.9-5.4v.3h.1c.2,0,.4-.6.7-1.9h-.1A2.3,2.3,0,0,0,70.1,44.9Zm.6-3.6v.2h.1c1-.2,1.5-.6,1.5-1V40A3.5,3.5,0,0,0,70.7,41.3Zm0,13.2c.1.3.2.4.3.4l.3-.3c0-.1-.1-.3-.4-.4Zm.7-5v1.3c.1.8.2,1.3.3,1.3h.1c.2-.1.2-.2.2-.5v-.8q0-1.5-.3-1.5h-.1Zm.4-6.2v.3h.1l.4-.4V43A.5.5,0,0,0,71.8,43.3Zm.1-19a3.3,3.3,0,0,0,.6,2.1h.2a.2.2,0,0,0,.2-.2c-.2-1.7-.4-2.6-.6-2.6S71.9,23.8,71.9,24.3Zm10.4,17h.1v.2H75.5c-1.9,1.8-2.8,3-2.8,3.7l-.4.4h0c.3,4.2.7,6.8,1.2,7.7a10.2,10.2,0,0,0,2.3,1.8q0,.6,3.6,1.5a61.2,61.2,0,0,0,9,.9c3.1-.6,5.2-1.5,6.4-2.7s3-3.8,3-5v-.4c0-.7-.8-2.1-2.4-4.1a5.4,5.4,0,0,0-1.9-1.7A13,13,0,0,0,88,41.6H84.2v-.4h-.7ZM72.4,56.1H73v-.3h-.4Zm.3-33.7h.1a6.4,6.4,0,0,0,1-1.3h-.2C73.4,21.1,73,21.5,72.7,22.4Zm0,20.3v.2h.1l.8-.2v-.3h-.2C72.9,42.5,72.7,42.6,72.7,42.7Zm0-13.1v.2a3.1,3.1,0,0,0,1.8,1.4h0q-.6-1.5-1.5-1.5Zm.5,10.6.3.2h.4l.3-.3v-.4l-.3-.2C73.6,39.5,73.3,39.7,73.2,40.2Zm.1,15.2v.2l.3.2h.3a.5.5,0,0,0-.5-.3Zm.8-22.9v.4c0,.4.2.7.6.7V32.2h-.3Zm.7-7.3h0a2.9,2.9,0,0,0,.7,1.8h.1v-.2c-.1-1-.3-1.7-.6-1.8Zm.5,5h0a.9.9,0,0,0,.8.6c.1,0,.2-.2.3-.4s-.3-.3-.9-.5Zm.5-6.7v.3c.6,3.1,1.1,4.7,1.3,4.7a4.6,4.6,0,0,0,2.5,1.4c3.2,0,5.4-.7,6.8-2.1a8.9,8.9,0,0,0,2.2-3,3.1,3.1,0,0,0,.5-1.3v-.9a6.4,6.4,0,0,0-1.5-3.1A16,16,0,0,0,83,18.1a8.2,8.2,0,0,0-5.6,2.5A5.6,5.6,0,0,0,75.8,23.5Zm.1,15.7,2,.2.8-.2a1.9,1.9,0,0,0-.7-.8h-.8C76.3,38.6,75.9,38.8,75.9,39.2Zm.5-19.5h.2c.3,0,.6-.3,1-.9v-.2h-.4C76.7,19.1,76.4,19.4,76.4,19.7Zm.4,11.1h-.1v.5l.3.2h1.1v-.2Zm.6,9.8v.2h.4v-.3h-.4Zm.5-24.7h0c1.4-.3,2.1-.7,2.1-.9h-.1A3.2,3.2,0,0,0,77.9,15.9ZM88.2,58.8c-4.9-.4-7.8-.7-8.6-1H78a5.3,5.3,0,0,0,2,.9h1.9l.5.3h.1a18.3,18.3,0,0,0,3.5.3h1.4a7.3,7.3,0,0,0,3.8-.7,8.5,8.5,0,0,0,2.5-1.1h0C91.4,57.9,89.5,58.3,88.2,58.8ZM78.7,31.7c0,.3.7.5,2.1.5h1.7A.6.6,0,0,0,83,32a10.4,10.4,0,0,0-3.5-.5h-.6Zm.4,5.7Zm.3-20.3v.3h.1l1.9-.7v-.3h-.5C79.9,16.6,79.4,16.9,79.4,17.1ZM79.9,60h-.1l.2.2h.2Zm1,.5h0q0,.3.6.3h.7c0-.2-.4-.3-1.1-.3Zm1.7-29.9c0,.1.4.2,1.1.2h.5c0-.2-.3-.4-.8-.4h-.6Zm.1,6.8h0c0,.3,2.1.6,6.3.7l1.3.5h.1l.5-.3h1.8c-.2-.4-.7-.6-1.4-.6h-.6l-.6.2h0l-1.4-.6-4.1-.2H84Zm1.5-7.5h0l.3.4h.3c.2,0,.6-.4,1.2-1h-.5A1.8,1.8,0,0,0,84.2,29.9ZM86,60.6v.2c0,.1.2.2.4.2h1.2v-.3H86Zm0-19.8c0,.2,1.1.3,3.2.4a16.3,16.3,0,0,1,4.4,2.1h.8l.3-.2h0c-.4-.6-1.7-1.2-4-1.9l-4.3-.6Zm.4-10.9v.2h.1l.5-.4h-.4Zm0,9.5h0q0,.2,1.5.3H88l-1.5-.2Zm.4-10.3H87a2.4,2.4,0,0,0,1.1-.8v-.2A3.3,3.3,0,0,0,86.8,29.1ZM88,27.7h.4c.8,0,1.2-.9,1.4-2.6v-.3h-.2A15.7,15.7,0,0,0,88,27.7Zm1.3,32.8h.2c.8-.1,1.2-.3,1.2-.7h-.3C89.8,60.1,89.4,60.3,89.3,60.5Zm.4-41.4h0c.3.8.6,1.2,1.1,1.2s.1-.1.1-.2-.3-.6-.9-1.1ZM91,27.5l-.2.3H91c.1,0,.2-.2.2-.4Zm0,33.3h.2a13.7,13.7,0,0,0,3.1-1.5H94C92,59.7,91,60.2,91,60.8Zm1.2-21.2.2.2h.2v-.3h-.2Zm1,.7c0,.2.5.5,1.5.7h.2a1.8,1.8,0,0,0-1.3-.6h-.4Zm.7-20.4v.3H94a10.2,10.2,0,0,0,1.8-1.9v-.2h-.1Q95.1,18.1,93.9,19.9Zm.3-3.6h0c0,.2.2.3.5.3H95v-.2l-.4-.3h-.2Zm.7,27.3a12.1,12.1,0,0,0,1.8,2.5h.1v-.2c-.6-1.5-1.1-2.3-1.7-2.3Zm.3-2.1h0l2.4,2.1h.1a3.6,3.6,0,0,0-2.1-2.1Zm1.2,13h0v.2c1.1-.3,1.6-.9,1.6-1.6v-.4h-.2C96.9,53.6,96.4,54.2,96.4,54.5Zm2.5-5.9h0l.3.2h0l.3-.2h-.6Zm1.4,1.8h0c0,.4,0,.6.2.7h.1a4.1,4.1,0,0,0,.5-1.9h-.2A1.4,1.4,0,0,0,100.3,50.4Zm.1-2.2h0l.2.2h.1v-.2Z" transform="translate(-0.2 0)" style="fill:#b75326"/><path d="M126.5,17.8c1.6,0,2.9,1.2,4,3.4.2,0,.5.3.9.8l.8,4.6c-.3.5-1.4.7-3.2.7h-.7c-1.5-.2-2.3-.7-2.3-1.5a4.4,4.4,0,0,0-1.4-2.4c-.1-.2-1-.3-2.6-.3a16.2,16.2,0,0,0-5.7,1.2,20.7,20.7,0,0,0-3.1,3.9c.3,7.4.4,11.9.3,13.2s.2.6.7.6h1.5c.7,0,1,.1,1,.3h0l.2.8v3.4l-.3.5-2.9.3h-.3l-1.2.4c-4.8-.2-7.1-.3-7.1-.6s-1.3-.3-1.3-1.1-.1-1.3-.1-2.3.8-1.3,2.4-1.5c0-.4.6-.5,1.7-.5h.2l-.4-16.9c0-1-.3-1.5-.8-1.5h-.4a9.3,9.3,0,0,0-2.5.6h-.1c0-.1.2-.2.5-.3h0c-.4,0-.6-1.2-.6-3.5-.1,0-.1-.4-.2-1.1a8.4,8.4,0,0,1,5.2-1.9h1.5a16,16,0,0,1,3.2.6v.2a2.8,2.8,0,0,0-.5,1.2v.4C116.1,17.6,120.7,17.2,126.5,17.8ZM104.5,45l-.2.2v.3h.4v-.4Zm.6-25.9a1.2,1.2,0,0,0,1,.4h.1V19l-.3-.3C105.3,18.8,105.1,18.9,105.1,19.1Zm.7,26.8h0q0,.3,1.8.3h2.2c0-.2-1.1-.3-3.3-.4Zm.2-24.4h.2c.4,0,.7-.1.7-.3h-.2C106.3,21.2,106.1,21.3,106,21.5ZM106,45h3.5v-.2h-3.4Zm1.7-27.2v.3l.4.4h.5l-.7-.6Zm2.6,9.3v.4a2.5,2.5,0,0,1,.3,1.3,8.8,8.8,0,0,0-.2,2.5v2.5h.1c.2,0,.3-1.9.5-5.7.1,0,.1-.4.1-1.3s-.2-.6-.3-.6h-.1A.9.9,0,0,0,110.3,27.1Zm.5-3.2-.3,1.2a.8.8,0,0,0,.4.7h0q.3,0,.3-.9l-.2-1Zm.5,21.4v.2h1l.2-.3c0-.1-.1-.2-.3-.2S111.3,45.1,111.3,45.3Zm.4-26.1h0v.2l.3-.3V19h-.2Zm.1-1.2v.3h.3l.2-.2h-.5Zm0,20.7v.5h.3l.2-.3v-.3l-.2-.2h0Zm.1,1.2v.2h.2v-.2Zm1.2-18v.2l.2.2h.2l.2-.2v-.2h-.6Zm4.2-1.4h0c.4,0,.8-.6,1.4-1.8v-.3h0A1.6,1.6,0,0,0,117.3,20.5Zm2.3-1.4.3,1.3h.5V19.1l-.2-.2h-.1C119.8,18.9,119.6,19,119.6,19.1Zm1.5-.4h0v.2h.6c.3,0,.5-.1.5-.2h-1.2Zm2-.2v.2h.4l.2-.3h-.1C123.2,18.3,123.1,18.4,123.1,18.5Zm1.5.4h.3v-.2h-.2Zm.6,3.6h.3q.4-.2,1.2-1.5h-.2c-.7.3-1.1.7-1.1,1.3S125.2,22.2,125.2,22.5Zm1.8,1.6v.2h.1l.3-.3h-.1Zm0-5.4h0v.2h.3v-.2h0v-.2h-.3Zm1.9,2v.2a1.1,1.1,0,0,0,.9.5h.1v-.2a1.4,1.4,0,0,0-.9-.5Z" transform="translate(-0.2 0)" style="fill:#b75326"/><path d="M149.5,13a18,18,0,0,1,4.1.9,17.6,17.6,0,0,1,4.3,5.2q1.2,1.3,2.1,5.7c.7.6,1,2.1,1,4.4v1.5l-.2,6.1c0,1.2.7,2.7,2.2,4.6s2.3,2,2.8,2h0c0,.5-.8,1.3-2.2,2.4s-1.8,1.6-2.1,1.6h0c-.6-.1-2.3-1.3-5-3.7l-7.3,3a23.6,23.6,0,0,1-5.5.7h-.3a12.4,12.4,0,0,1-5.7-2.6,34,34,0,0,1-1.7-3.1,4.8,4.8,0,0,1-1.1-3.4V36.7a5.9,5.9,0,0,1,.9-3.2,14.7,14.7,0,0,1,2.8-4.8,5.4,5.4,0,0,1,1.9-1.6,14.1,14.1,0,0,1,6.4-1.6h3.1a5.7,5.7,0,0,1,3.4.7h.4c.1,0,.2-.1.2-.3a18.6,18.6,0,0,0-2.2-5.6c-.8-1.5-2.5-2.3-5-2.3l-2.5-.3c-2.2.4-3.3.9-3.3,1.4a8,8,0,0,0-1.6,4.1c-.1.2-.8.3-2.2.3h-.4c-.1,0-.3.4-.6,1.1s-1.7-.4-1.7-.7a30.4,30.4,0,0,0,.4-4.5c.7-1.9,2.3-3.6,4.7-5.2a10.3,10.3,0,0,1,2.1-1.1Zm-12.2,8.7v.9h.1c.1,0,.2-.2.2-.4v-.5l-.2-.2Zm.7-4.6h.1c.3,0,.9-.4,1.6-1.2v-.2h-.1c-.4,0-.9.5-1.6,1.3Zm.8,24.8h.4l-.2-.3h-.1Zm.1,3.3h0c.2.4,1.3.9,3.1,1.4a6.2,6.2,0,0,0,2.5.5h0c0-.2-.8-.4-2.4-.7a14.3,14.3,0,0,1-2.8-1.3h-.2Zm.8-15.9v.3h.1a.8.8,0,0,0,.7-.4V29h-.1Zm0,5.6c.3,2.5.6,3.7,1,3.7l.7.8h-.6v.2a13.2,13.2,0,0,0,4.8,3l1.3.3c.8,0,3.6-1.2,8.5-3.6.3-.2.5-.4.5-.7v-.3a43.4,43.4,0,0,1-.9-5.9h-.1c0-.4-.5-.8-1.4-1.1a25.8,25.8,0,0,0-6.2-1.3c-3.1.7-5.3,1.8-6.5,3.1A3.5,3.5,0,0,0,139.7,34.9ZM143.5,15h0c.1.2.3.3.7.3a3.7,3.7,0,0,0,1.5-.4v-.2h-.3Zm2.1,29.3a.6.6,0,0,0,.6.3c.4,0,.6-.2.6-.3h0l-.2-.2h-.8Zm.6-27.5.3.3h.9l-.3-.3h-.5Zm2.4-2.4.2.2h.5l-.2-.3h-.4Zm2.1,29h.4a4.9,4.9,0,0,0,2.2-.7h-.2A5.5,5.5,0,0,0,150.7,43.4Zm2.6-28.7h0a1.1,1.1,0,0,0,.9.5h.1v-.2a1.2,1.2,0,0,0-.9-.4Zm3,21.2v.3l.2.2h.1l.2-.2v-.5h-.3Zm.1-2.1.2.2h.2v-.4h-.1Zm1.8-3V31h0Zm0,1.3v.2h.3v-.2Zm.1-3.3V29c.2.6.4.9.5.9h.1a1.6,1.6,0,0,0-.4-1.2h-.2Zm.3,5h0c.1,1.5.2,2.3.5,2.3V36h0a4.8,4.8,0,0,0-.4-2.2Zm.9,8.9c.2.3.3.5.5.6h.1l.2-.3h0l-.3-.3h-.5Zm.4-16.2h0c0,.3.1.5.2.5v-.3q-.1-.3-.3-.3ZM161,43.8V44l.2.2h.3V44h0l-.3-.4h-.2Zm.5-2.2V42c.1.5.3.7.5.7h.2c-.2-.7-.4-1-.6-1Z" transform="translate(-0.2 0)" style="fill:#b75326"/><path d="M192.8,0a7.6,7.6,0,0,1,2.6.7c.1,0,.1.6.2,1.9a1.6,1.6,0,0,1,.7,1c-.2,2-.4,6-.6,12.1a1.5,1.5,0,0,0-.1.6c-.3.2-.5.4-.5.7v.9a8.8,8.8,0,0,1-.6,2.9v.9c0,.2.2.3.6.4v.4c-.6,5.2-.9,8.7-.9,10.3s-.1,2.8-.4,2.8h0c.2,0,.4.3.5.8v.7c0,.7-.3,2.6-.8,5.6v1.5c2.1.4,3.1,1,3.1,1.7l-.3.4V47l.3.4h0c-.3.9-1.5,1.4-3.5,1.4h-.4l-.3-.6h-.7l-1.6.4h-2.4a10.5,10.5,0,0,1-.5-3.1v-2a5.8,5.8,0,0,0-2.5,1.4,24.9,24.9,0,0,1-9,3,14.8,14.8,0,0,1-6.5-3.5,14.6,14.6,0,0,1-1.9-2.9,5.6,5.6,0,0,1-1.1-1.9v-.2h.1a6.9,6.9,0,0,1,1.6,2.1h.3v-.8a5.5,5.5,0,0,0-1.2-3h-.4c-.2,0-.3.4-.4,1.1h-.2v-.3a28.4,28.4,0,0,1,.3-3.1h.3v.6h.1a.8.8,0,0,0,.3-.7V33.8q-.1,0-.3.6l-.3.4c-.1,0-.1-.2-.2-.5a20.4,20.4,0,0,1,3-9.9,24.5,24.5,0,0,1,2.9-4c1.3-1.2,3.4-1.7,6.2-1.7h.6a16.3,16.3,0,0,1,10.7,3.4l.4.2h.2c.4-1.8.8-6.4,1.1-13.8.2-.3.3-.4.5-.4h0a7.5,7.5,0,0,0-2.7-1.3c-.4,0-.7-1.4-.7-4.2,0-.1.4-.2,1-.3h0q0-.3-.6-.3c-.1-.2-.2-.3-.2-.5s.5-.6,1.4-.6V.5l-.2-.3h3Zm-24,32.8c0,.1.1.2.3.2s.4-.4.6-1.3v-.3h-.2C169.3,31.4,169,31.9,168.8,32.8Zm.7-5.5v.2h.2c.2-.1.4-.5.8-1.5s2.1-2.5,2.5-2.5l.2-.5h-.4a7.5,7.5,0,0,0-2,1.3A7.3,7.3,0,0,0,169.5,27.3Zm.3,15.8h0c0,.3.6.4,1.9.6v-.2L170,43Zm.1-7.2v.9c0,.6.7,2.3,2.3,5a8.1,8.1,0,0,0,3.7.9,18.5,18.5,0,0,0,8.3-2c1.1-1.7,2.1-2.5,2.9-2.5s.9-2.1,1.5-4.7a5.2,5.2,0,0,0,.5-2.3v-.6c0-1.7-.3-2.6-.7-2.6a6,6,0,0,1-1.4-1.5l.2-.4c0-.2-.6-.4-1.8-.7l-.4-.3h1c0-.4-2.2-.7-6.7-.7l-.9-.2c-3.3.3-4.9.7-4.9,1.3a14.3,14.3,0,0,0-3,6.6A16.1,16.1,0,0,0,169.9,35.9Zm1.3,8.3c0,.4,1.3.9,3.7,1.3h.4c0-.3-1.2-.8-3.6-1.3h-.3Zm1-22v.2h.4c1.4-.4,2.2-.8,2.2-1.4a1,1,0,0,0-.7-.2h-.3C173.2,20.9,172.7,21.3,172.2,22.2Zm2.9,24.4v.2h.9a13.7,13.7,0,0,0,2.9-.4h0l-1.8-.2C175.7,46.2,175.1,46.4,175.1,46.6Zm1.1-26.1v.3l.2.2h.3l.3-.3v-.2l-.2-.2h-.4Zm.1,3h0Zm1.4,19.9v.2h.8q4-.3,4.5-1.2v-.2h-.2C179.6,42.8,178,43.1,177.7,43.4Zm.6-20.3h.2Zm.9,21.7h.6c1.3,0,1.9-.2,1.9-.4h-1.3Q179.2,44.5,179.2,44.8Zm.4-21.1h.3l1.3-.2h-.4Q179.6,23.4,179.6,23.7ZM180,21h2.8c-.1-.3-.7-.4-1.9-.5h-.6A.5.5,0,0,0,180,21Zm2.8,2.5.2.3h.3l.2-.2-.5-.2h-.2Zm1.1,19.1v.2h0a1.8,1.8,0,0,0,1-.7v-.2h-.2A1.5,1.5,0,0,0,183.9,42.6Zm.7-21h-.1v.2l1.9.6h.1c0-.4-.3-.7-1-.9Zm.9,1.9.2.2.2-.2h-.4Zm.9.4c0,.1.6.4,1.8.7h.1v-.2a1.3,1.3,0,0,0-1.2-.5Zm1.2,2.4v.5l.4.3h.1c.2,0,.3-.2.3-.4a.5.5,0,0,0-.4-.6h-.1Zm.9,15.8v.3c.3,0,.4.2.4.6h.1l.3-.3v-.5c-.2-.1-.2-.3-.2-.6h-.3A.5.5,0,0,0,188.5,42.1Zm.1,2.4h.2l.2-.2h-.2ZM190,4.4v.2h.4c.3,0,.4,0,.4-.2V4.2h-.6Zm.1-1.5h.7V2.7h-.5Zm1.1,19c0,.3.1.6.3.6h.1v-.5Zm.5-17.4h.2c.9,0,1.4-.1,1.4-.3l-.2-.2h-.8A.5.5,0,0,0,191.7,4.5Zm.1,38v1.3l.2.2h.1v-.8a1,1,0,0,0-.2-.7Zm.2,2.2v.2h.4v-.2Zm1.2,2a1,1,0,0,0,.7.2h1.6c0-.2-.2-.3-.7-.3S193.2,46.5,193.2,46.7Zm.3-43.2h.2Zm1.3,17h.3v.3h-.3Z" transform="translate(-0.2 0)" style="fill:#b75326"/><path d="M213.3,15.6c1.7,0,3.8.8,6.3,2.2s3.2,2.7,3.2,3.3c1.6,3.5,2.4,5.6,2.4,6.2v.5a8,8,0,0,0-1,2.9h-5.6L217,31c-6-.5-10.2-.7-12.5-.7h-1.3a4.3,4.3,0,0,0-.8,1.5,4.8,4.8,0,0,1,.5,2.2c0,1.6.2,2.5.7,2.8v.3h0l-.4-.2v.2l.6.6a2.7,2.7,0,0,0,1.1,2c1.3,2.4,2.8,3.9,4.4,4.5a15.8,15.8,0,0,0,4.7.6,5.1,5.1,0,0,0,1.7-.7c.8-.3,2.4-1.6,4.7-4.1h0c0-.1-.3-.2-.8-.3l-.2-.3a7,7,0,0,1,3.5-3.5l2.2,1.7a52.5,52.5,0,0,0,3.7,4.9v.3c-1.4,1.7-2.3,2.5-2.9,2.5h-.2c0-.9-.6-1.4-1.7-1.5a14.7,14.7,0,0,0-2.7,2,15.5,15.5,0,0,1-4.9,2.1,32.2,32.2,0,0,1-5.7.9l-3.5-1.3c-2,0-3.8-1.1-5.4-3.2a9.1,9.1,0,0,1-1.8-2.7,42.3,42.3,0,0,0-1.3-5.1,15.5,15.5,0,0,1-.4-3.4h0a21.9,21.9,0,0,1,4.9-14.4,4.4,4.4,0,0,1,2.8-2.3l3.6-.7ZM199.4,31.3h0v.2h0a2.2,2.2,0,0,0-.1.9v.3a4.1,4.1,0,0,0,.6,2h.2C200.1,32.7,199.8,31.6,199.4,31.3Zm0-2.3v.4c0,.2.1.4.2.4s.3-.2.3-.6l-.2-.2Zm.8-3.3a5.4,5.4,0,0,0-.8,2.5h.1c.3,0,.6-.7,1.1-2.2S200.4,25.7,200.2,25.7Zm.1,11h0l.2.2h.1v-.2h-.3Zm.6,1.1h0c.2.6.4,1,.7,1h0A1.3,1.3,0,0,0,200.9,37.8Zm1.8-8.2h1.2l-.2-.3h-.2A.9.9,0,0,0,202.7,29.6Zm.1-7.4h.1Zm0,3.9v.4h.1a1.6,1.6,0,0,0,.7-.7v-.2h-.2C203.2,25.6,203,25.8,202.8,26.1Zm.6-1.6v.2c0,.5,3.8,1,11.2,1.5l.7.2h.7a15.2,15.2,0,0,0,3.4.9c0,.1.1.2.4.3a2.5,2.5,0,0,0,.4-1.1V25.3c0-.6-1.1-1.8-3.2-3.6a5.3,5.3,0,0,0-3.2-1.7l-2.1-.3c-3.4.7-5.6,1.5-6.7,2.5A10.6,10.6,0,0,1,203.4,24.5Zm.1-1h0a.5.5,0,0,0,.3-.5h0A.5.5,0,0,0,203.5,23.5Zm.2,21.2v.2c0,.3.3.5,1,.7l.3.3h0l-1.1-1.1Zm.4-23.9V21h.1c.6-.2.8-.3.8-.5h-.3A.8.8,0,0,0,204.1,20.8Zm.3,8.4v.4h.3v-.3h-.3Zm.7-11.3h0l.2.2h0c.9-.2,1.3-.4,1.3-.7v-.3l-.2-.3h-.2C205.5,17.2,205.1,17.5,205.1,17.9Zm.8,10.7v.2a48.2,48.2,0,0,0,6.6.5h-1.3c0,.2.5.3,1.6.3s2.6-.1,2.6-.3S212.2,28.8,205.9,28.6Zm.6-2.1v.2a8.8,8.8,0,0,0,4.3.8h1.3v-.3A50.5,50.5,0,0,0,206.5,26.5Zm.2-6.1a9.5,9.5,0,0,1,2.5-1h-.7Q206.7,19.5,206.7,20.4Zm.9-3.4h.1a14.1,14.1,0,0,0,3.7-.7q.6-.2.6-.3h-.3a11.3,11.3,0,0,0-4,.9h-.1Zm.5,27.9h0c0,.2.4.4,1.3.6h.1a3.9,3.9,0,0,0-1.4-.5Zm2.2-26.6h0c0,.2.8.4,2.5.7h.1v-.2a1.8,1.8,0,0,0-1.6-.8H211C210.5,18,210.3,18.1,210.3,18.3Zm1.3,27.3v.2h.2v-.2Zm2.3,1.6h-1.5c-.4,0-.6,0-.7.2h0l.3.2h1.1a19.9,19.9,0,0,0,4.5-.6h0c-.1-.2-.3-.3-.7-.3h-.3A6,6,0,0,0,213.9,47.2Zm-1.1-29.9v.2a6.1,6.1,0,0,0,2.5.4h.1v-.2c0-.1-.3-.2-.8-.3Zm1.2,1.4h0a22.8,22.8,0,0,0,3.8,2h.1l.6-.2h.4l-1-.4-1.3-.5a1.9,1.9,0,0,0-2-1.1h-.1C214.2,18.5,214,18.5,214,18.7Zm3.7,9.4v.2h.2v-.2Zm.1,1.7c0,.1.3.2,1,.2h.6q0-.3-1.2-.3C217.9,29.6,217.8,29.7,217.8,29.8Zm0,14.1h.1a1.3,1.3,0,0,0,.5-.7h0C218,43.4,217.8,43.6,217.8,43.9Zm.4,2.7c.4,0,.8-.3,1-1H219C218.5,46,218.2,46.3,218.2,46.6Zm.6-24.9a.6.6,0,0,0,.6.5h.1l.2-.2v-.4l-.3-.3C219,21.3,218.8,21.4,218.8,21.7Zm.9,20.2h.1c.5,0,.7-.3.9-.8h0C220.2,41.1,219.9,41.3,219.7,41.9Zm.5-19.4c.4,1.3.7,2.1,1,2.2h.3c-.3-1.3-.7-2-1-2h-.3Zm.9,15.9h.4c.3,0,.4-.1.4-.2l-.2-.3h-.1A.5.5,0,0,0,221.1,38.4Zm.3,5.8h.2q.6-.6.6-.9h0C221.6,43.5,221.4,43.8,221.4,44.2Zm.9-18.8v.4l.2.2c.2,0,.3-.2.3-.4v-.2h-.5Zm.3,17v.2c.7-.2,1-.5,1-.8h-.1C223,41.7,222.6,41.9,222.6,42.4Zm1.4-.6h.2a.5.5,0,0,0,.4-.6h-.2A.7.7,0,0,0,224,41.8Zm2.2-.6h-.1c.1.5.3.8.5.8h.1v-.2h0Q226.7,41.2,226.2,41.2Z" transform="translate(-0.2 0)" style="fill:#b75326"/><path d="M256.8,0a6.7,6.7,0,0,1,2.6.7c.1,0,.2.6.2,1.9a1.6,1.6,0,0,1,.7,1c-.2,2-.4,6-.5,12.1-.1,0-.2.2-.2.6s-.5.4-.5.7v.9a8.8,8.8,0,0,1-.6,2.9v.9c0,.2.2.3.6.4v.4c-.6,5.2-.9,8.7-.9,10.3s-.1,2.8-.3,2.8h0c.2,0,.3.3.4.8v.7a45.5,45.5,0,0,1-.7,5.6v1.5c2,.4,3.1,1,3.1,1.7l-.3.4V47l.3.4h0c-.4.9-1.5,1.4-3.5,1.4h-.4l-.4-.6h-.6l-1.7.4h-2.3c-.2,0-.3-1-.6-3.1v-2a5.8,5.8,0,0,0-2.5,1.4,23.7,23.7,0,0,1-9,3,14,14,0,0,1-6.4-3.5,14.5,14.5,0,0,1-2-2.9,8.9,8.9,0,0,1-1.1-1.9v-.2h.2a9,9,0,0,1,1.6,2.1h.3v-.8a5.1,5.1,0,0,0-1.3-3h-.3c-.2,0-.4.4-.4,1.1h-.2v-.3a17.6,17.6,0,0,1,.2-3.1h.3v.6h.1a.8.8,0,0,0,.3-.7V33.8c-.1,0-.2.2-.2.6l-.3.4c-.1,0-.2-.2-.3-.5a19.6,19.6,0,0,1,3.1-9.9,19.7,19.7,0,0,1,2.8-4c1.3-1.2,3.4-1.7,6.2-1.7h.6c4.4,0,7.9,1.1,10.7,3.4l.4.2h.3c.3-1.8.7-6.4,1.1-13.8.1-.3.2-.4.4-.4h0a7.5,7.5,0,0,0-2.7-1.3c-.4,0-.6-1.4-.7-4.2l1-.3h0c0-.2-.2-.3-.5-.3s-.3-.3-.3-.5.5-.6,1.4-.6V.5l-.2-.3h3ZM232.9,32.8c0,.1,0,.2.2.2s.5-.4.6-1.3v-.3h-.2C233.3,31.4,233.1,31.9,232.9,32.8Zm.6-5.5v.2h.2c.2-.1.5-.5.8-1.5s2.1-2.5,2.5-2.5l.2-.5h-.4a7.5,7.5,0,0,0-2,1.3A9,9,0,0,0,233.5,27.3Zm.3,15.8h0c0,.3.7.4,2,.6v-.2A6.9,6.9,0,0,0,234,43Zm.1-7.2v.9c0,.6.8,2.3,2.3,5a8.4,8.4,0,0,0,3.7.9,18.5,18.5,0,0,0,8.3-2c1.1-1.7,2.1-2.5,2.9-2.5s1-2.1,1.5-4.7a5.2,5.2,0,0,0,.5-2.3v-.6c0-1.7-.2-2.6-.7-2.6a10.1,10.1,0,0,1-1.4-1.5l.2-.4c0-.2-.6-.4-1.7-.7l-.4-.3h1c0-.4-2.3-.7-6.7-.7l-1-.2c-3.2.3-4.9.7-4.9,1.3a13.3,13.3,0,0,0-2.9,6.6A12.9,12.9,0,0,0,233.9,35.9Zm1.4,8.3c0,.4,1.2.9,3.6,1.3h.4c0-.3-1.2-.8-3.5-1.3h-.4Zm.9-22v.2h.4c1.5-.4,2.2-.8,2.2-1.4s-.3-.2-.6-.2h-.4C237.3,20.9,236.7,21.3,236.2,22.2Zm2.9,24.4v.2h.9a13.7,13.7,0,0,0,2.9-.4h0l-1.8-.2C239.8,46.2,239.1,46.4,239.1,46.6Zm1.1-26.1v.3l.2.2h.3l.4-.3v-.2l-.3-.2h-.3Zm.1,3h0Zm1.4,19.9v.2h.8q4-.3,4.5-1.2v-.2h-.2C243.7,42.8,242,43.1,241.7,43.4Zm.6-20.3h.2Zm1,21.7h.6c1.2,0,1.9-.2,1.9-.4h-1.3Q243.3,44.5,243.3,44.8Zm.4-21.1h.2l1.3-.2h-.4C244.1,23.4,243.7,23.5,243.7,23.7Zm.4-2.7h2.8c-.1-.3-.8-.4-2-.5h-.6C244.1,20.6,244.1,20.7,244.1,21Zm2.7,2.5.2.3h.3l.2-.2a.6.6,0,0,0-.5-.2h-.2Zm1.1,19.1v.2h0a2.1,2.1,0,0,0,1.1-.7v-.2h-.3C248.4,41.9,248.2,42.2,247.9,42.6Zm.8-21h-.2v.2l1.9.6h.1c0-.4-.3-.7-1-.9Zm.8,1.9.3.2v-.2h-.4Zm.9.4c0,.1.6.4,1.9.7h0v-.2a1.3,1.3,0,0,0-1.2-.5Zm1.3,2.4v.5l.3.3h.2c.1,0,.2-.2.2-.4a.6.6,0,0,0-.3-.6h-.2Zm.9,15.8v.3q.3,0,.3.6h.1l.3-.3v-.5a.8.8,0,0,1-.2-.6h-.2A.5.5,0,0,0,252.6,42.1Zm0,2.4h.2l.2-.2h-.1ZM254,4.4v.2h.4c.3,0,.4,0,.5-.2l-.2-.2h-.5Zm.1-1.5h.8l-.2-.2h-.4Zm1.2,19c0,.3.1.6.2.6h.1v-.5Zm.4-17.4h.2q1.5,0,1.5-.3l-.3-.2h-.8A.7.7,0,0,0,255.7,4.5Zm.1,38v1.3l.2.2h.1v-.8c0-.4,0-.6-.2-.7Zm.2,2.2v.2h.4v-.2Zm1.3,2c0,.1.2.2.6.2h1.6c0-.2-.2-.3-.7-.3S257.3,46.5,257.3,46.7Zm.2-43.2h.2Zm1.3,17h.3v.3h-.3Z" transform="translate(-0.2 0)" style="fill:#b75326"/><path d="M268.2,39.4a4.9,4.9,0,0,1,2.6,1,2,2,0,0,1,.3,1.1v.8c0,1.7-1,2.9-2.9,3.7l-.8.4c-.8,0-1.7-.8-2.5-2.4v-.4c0-1.7.3-2.8.9-3.2A5.2,5.2,0,0,1,268.2,39.4Zm-2,2.7c.1,1.1.2,1.6.4,1.6a7.8,7.8,0,0,0,.6-2.1l.2-.4v-.3h-.1C266.6,41.2,266.2,41.6,266.2,42.1Zm.3,2.7c0,.3.1.4.4.5h.7a1.7,1.7,0,0,0,1.2-.6h0Zm1.3-2.3h0c0,.4.1.7.3.7h.1c.2,0,.4-.4.7-1.3v-.3h-.3C268.1,41.6,267.8,41.9,267.8,42.5Zm1.9.8h.3v-.6h0C269.9,42.8,269.8,43,269.7,43.3Z" transform="translate(-0.2 0)" style="fill:#231f20"/></g></g></svg>