<svg xmlns="http://www.w3.org/2000/svg" viewBox="0 0 735.3 59.6"><title>icn_rotator_Asset 57_adj</title><g id="Layer_2" data-name="Layer 2"><g id="Layer_1-2" data-name="Layer 1"><path d="M1.3,15.4l3,.2h5l.2.2a6.7,6.7,0,0,0-.3,1.7v1.1c.1,1.2.4,1.7.9,1.7A5.9,5.9,0,0,1,12.6,19c3.3-1.4,6-2.2,8.2-2.2a7.9,7.9,0,0,1,4.5,1.9,8.1,8.1,0,0,1,3.4,2.9,17,17,0,0,1,2.5,9.5v.5L30.8,36l.4,3.2-.6,2.9h0v.6H34a1.9,1.9,0,0,1,1.3.3c-.2,3-.5,4.5-1,4.5a5.3,5.3,0,0,1-2.6.7H30.4a24,24,0,0,0-6.2.8c-1.5-.2-2.2-.9-2.2-2.2V44.8A4.2,4.2,0,0,1,23,41.7a44.3,44.3,0,0,1,1.3-5.5l.4-5.4c.1,0,.1-.5.1-1.4s-.9-2.7-2.6-4.8a12.1,12.1,0,0,0-2.4-.8,8.9,8.9,0,0,0-6.4,3c-.2,0-1.1,1-3,3s-.9,1.9-.9,4.2c.1,4.1.2,6.2.5,6.2s2.4.6,2.4.9v.3H10.1v.2q0,.3,2.4.6a2.7,2.7,0,0,1,.4,1.5h0a7.6,7.6,0,0,1-.7,3.1H5.1a1.5,1.5,0,0,1-1.6-1,40.8,40.8,0,0,1-.6-4.6c0-.2.7-.5,1.9-.7l.3-.4h0a2.3,2.3,0,0,0-.5-1V33.7L4.9,28c0-3.8-.2-5.8-.5-5.8H4.1l-2.9.4c-.3,0-.7-.3-1.2-.8v-.2a1.7,1.7,0,0,0,.3-1V18.3l1-2.8ZM1,19.5H1c0,.2.2.3.4.3a1.7,1.7,0,0,0,1.1-.5h-1C1.2,19.4,1,19.4,1,19.5Zm.5-2.1h0c0,.2.3.2.9.3,2.7,0,4.1-.2,4.1-.6l.2-.4H6.5Zm.1,4.1h.6l.2-.2H2.1C1.7,21.3,1.6,21.4,1.6,21.5Zm1.1-2.6.2.2H3c.6-.1.8-.2.8-.3H3.6C3,18.7,2.7,18.8,2.7,18.9Zm.6,1.4H4.7c.4,0,.6.1.7.3h0a1.3,1.3,0,0,0-.3.7l.7.2c.2,0,.2-.1.2-.2V19.1H5.8l-2.5,1h0Zm.5,21.5h0q.2,1.2.9,1.2H5l.2-.3h0a1.9,1.9,0,0,1-.6-1.2H4Zm1.7-19v.3h.1l.2-.9H5.7C5.6,22.2,5.6,22.4,5.5,22.8Zm1,21.7c0,.2.6.3,1.7.3s3-.1,3-.3-.7-.4-2-.4A5.4,5.4,0,0,0,6.5,44.5Zm.9-24V22a2,2,0,0,1-.2.9v.4l.2.9v.4a.8.8,0,0,0,.3.7c.1,0,.2-.4.4-1.4s.9-.8.9-1.1a5.7,5.7,0,0,0-.7-1.3c-.1-.7-.3-1-.5-1Zm.8,3.9v.4a1.4,1.4,0,0,1-.5.9.9.9,0,0,1,.3.6c0,2.1.1,3.2.4,3.2h.1A7.8,7.8,0,0,0,9,26.6c0-1.6-.2-2.4-.5-2.4H8.4C8.3,24.2,8.2,24.2,8.2,24.4Zm1.7-3.3v.2a2.9,2.9,0,0,0,1.9-1.1h-.2A3.1,3.1,0,0,0,9.9,21.1Zm.1,3.4v.2c1-.1,2.5-1,4.4-2.7H14a4.2,4.2,0,0,0-1.4.8C10.8,23.4,10,24,10,24.5Zm.4,1.7v.2h.2V26h-.1Zm1.4-.3h0l.2.2h.2l.2-.7h-.2ZM13,25h.2c.6-.6,1-1,1-1.3H14C13.7,23.7,13.3,24.1,13,25Zm.5-5.5h.1l.6-.3H14C13.7,19.3,13.5,19.4,13.5,19.5Zm1.1-.6.2.2c1.9-.5,2.9-.8,2.9-1h-.1a5.8,5.8,0,0,0-3,.9Zm.4,5.4c.8-.2,1.3-.4,1.3-.7H16C15.4,23.5,15,23.7,15,24.3Zm2.8-3.5V21h.4c.6-.1.9-.3.9-.4v-.2h-.4C18.1,20.5,17.8,20.6,17.8,20.8Zm1-3h0a3.1,3.1,0,0,1,1.5.7l.7.2h2c0-.2-.3-.3-.7-.3h-.8a4,4,0,0,0-2-.8C19.1,17.5,18.9,17.6,18.8,17.8Zm.1,4.3h.2c.9,0,1.4-.1,1.4-.2l-.6-.2C19.2,21.9,18.9,22,18.9,22.1Zm2.2,1.2v.2h1.5l.2-.2v-.2l-.2-.3h-.4C21.5,23,21.1,23.1,21.1,23.3Zm1.2-2.7c0,.2.4.3,1.1.4a.7.7,0,0,0,.4-.6c0-.2-.4-.3-1.1-.5A1,1,0,0,0,22.3,20.6Zm.6,27.1v.2c0,.2.5.4,1.6.4h.9a3.2,3.2,0,0,0-2-.6h-.3Zm.2-3v.4h.5l-.3-.3Zm.2-23.2h.4Zm1.2-1.1a.5.5,0,0,0,.5.3h.4l.2-.2h0c0-.1-.2-.2-.6-.2h-.3Zm.1,1.7v.2a9.1,9.1,0,0,0,.8,1.7c0,.3.1.5.3.5l.2-.2V24a2.6,2.6,0,0,0-1.2-1.9Zm0,24.2a.8.8,0,0,0,.7.5c2.2-.1,3.3-.2,3.3-.4s-.8-.5-1.5-.5S24.6,46.1,24.6,46.3Zm.7-7.5a2.1,2.1,0,0,1,.3,1.2h.2V38.2A.5.5,0,0,0,25.3,38.8Zm.3-13.7v.3a21.8,21.8,0,0,0,1,2.9v-1C26.4,25.9,26,25.1,25.6,25.1Zm0,12.7h.2a1,1,0,0,0,.2-.7v-.7h-.1C25.8,36.5,25.7,36.9,25.6,37.8Zm2.1,4.7v.3l.2.2H28l.2-.2h0l-.3-.3Zm.1-1.1h0l.3-.7H28C27.9,40.7,27.8,40.9,27.8,41.4Zm0-3.2v.3H28v-.3Zm.1-4.9h0l.3.8h.3C28.4,33.6,28.3,33.3,27.9,33.3Zm.4-8c.1,2.2.3,3.3.7,3.3h.1c-.2-2.2-.4-3.3-.7-3.3Zm1.1,13.2v2.8h.1a3.2,3.2,0,0,0,.7-1.8h0C30.1,38.8,29.9,38.5,29.4,38.5Zm1.9,5.4v.2c1.8,0,2.8-.2,2.8-.4v-.2h-.9C31.9,43.6,31.3,43.7,31.3,43.9Zm.5,1.3v.2a.6.6,0,0,0,.6.3c.7,0,1.1-.2,1.2-.5h0c-.1-.2-.3-.3-.7-.3h-.3C32.2,44.8,31.9,44.9,31.8,45.2Z" transform="translate(0 0)" style="fill:#b75326"/><path d="M55,17.9h.5A27.6,27.6,0,0,1,62,22.1c2.1,1.8,3.2,3.1,3.2,4h-.1c-.4-.5-.7-.8-1.1-.8h0a.2.2,0,0,0-.2.2,19.6,19.6,0,0,0,1.1,2.4h.2c.1,0,.2-.2.3-.7h.1a8,8,0,0,1,.4,1.8l.5,1.3v.8l.2,2.2a29.4,29.4,0,0,0-.8,4c-.2.8-2.1,3.8-5.7,8.8a7,7,0,0,1-4.9,2.3,26.3,26.3,0,0,1-4.9.4H49.1c-.8,0-2.6-.6-5.6-1.8-3.7-3.4-5.6-6-5.6-7.7l-1.3-3.1a31.6,31.6,0,0,1,1.7-5.3c0-1.9.4-3.2,1.3-4,1.9-4.2,4.4-6.8,7.4-8.1a19.6,19.6,0,0,1,6.2-1.4ZM37.5,35.8c0,.4.1.6.2.6h.1v-.7h-.1Zm1.4,2.9v.5c0,1.3.4,2.1,1.1,2.3h.1c-.3-1.9-.6-2.9-1-2.9Zm.6-9.8a.5.5,0,0,0,.5-.4h0A.5.5,0,0,0,39.5,28.9Zm1.2-2.1h.1c.2,0,.3-.2.3-.5H41A.5.5,0,0,0,40.7,26.8Zm.2,7.7h.2v-.2h-.1Zm.3,8.3h0a.8.8,0,0,0,.5.5h.2a1,1,0,0,0-.4-.7h-.1Zm.9-6v.4c.5,1,1.1,2.2,1.9,3.6s.8,1,2.3,1.7a8.2,8.2,0,0,0,4.2,2h1.1a19.5,19.5,0,0,0,4.1-1.1l2.2-1.9c2.3-2.5,3.4-4.5,3.3-6.2v-.6a11.7,11.7,0,0,1-.3-3.2,18.7,18.7,0,0,1,.2-2.7c0-.3-.8-1-2.3-2.2a8.2,8.2,0,0,0-3.7-3h-.7q-7.2.3-7.2,1.2a9.6,9.6,0,0,0-2.3,3.2c-1.3,1.3-1.9,2.2-1.9,2.7A35,35,0,0,0,42.1,36.8Zm.2,8V45a4,4,0,0,0,2.9.9h.7a11.5,11.5,0,0,0-3.2-1Zm.9-18.4v.4h.2c.5-.4.8-.8.8-1.1h-.3A2.7,2.7,0,0,0,43.2,26.4Zm.7-4.2v.2a29.8,29.8,0,0,0,3.7-2.6l.5-.2h.3c2.8-.3,4.2-.6,4.2-.8h-1A10.4,10.4,0,0,0,44,21.9Zm.6,2.8v.2h0Zm0-1.8c.4,0,.7-.2,1-.7v-.2C44.9,22.5,44.5,22.8,44.5,23.2Zm1.1,23.2h1l-.2-.2h-.1A1,1,0,0,0,45.6,46.4Zm1.3-.8h0c0,.3.6.4,1.8.4h0A3.4,3.4,0,0,0,46.9,45.6Zm1.8-24.5v.2a22.5,22.5,0,0,0,4.8-.7l-.5-.2h-.1A9.1,9.1,0,0,0,48.7,21.1Zm.1,2.1h0l.2.2h.8l4.4-1h0L53,22.1C50.2,22.4,48.8,22.8,48.8,23.2Zm4.1,23.9h0q0,.3.9.3c.7,0,1.1-.1,1.1-.3h0a1.2,1.2,0,0,0-.5-.5h-.5A1,1,0,0,0,52.9,47.1Zm1-28.4c.2.6.6.8,1.4.8H56v-.2q0-.7-1.2-.9Zm.6,1.9h0l.2.2-.7.6h0c0-.2.3-.4,1.1-.8Zm.6.1H55a3.6,3.6,0,0,0,1.8.9h.1A3.4,3.4,0,0,0,55.1,20.7Zm1.1,26.8h.1c.7-.3,1.1-.5,1.1-.7h-.1C56.7,47,56.3,47.2,56.2,47.5Zm.9-23.9a1.2,1.2,0,0,0,.9.6V24h0c0-.3-.1-.5-.5-.5S57.1,23.5,57.1,23.6Zm1-3.4h0a1.9,1.9,0,0,0,1.4.8c0-.4-.4-.8-1.1-1h-.3Zm1.1,2.6h0c.1.5.7,1,1.7,1.5h.3C61.1,23.9,60.4,23.5,59.2,22.8Zm1.1,1.9h0c.2.6.9,1,1.8,1.4h.3v-.2h0a2.6,2.6,0,0,0-1.9-1.1Zm2.9,15.1h0c.3,0,.5-.3.8-1h-.2C63.6,38.8,63.4,39.1,63.2,39.8Zm.9-1V38h.1q.3-.2.3.9h-.6Zm.5-3.5c.1,1.3.2,2,.4,2h.1a2.3,2.3,0,0,1,.5-1.5v-.2l-.7-.9h-.1C64.7,34.7,64.6,34.9,64.6,35.3Zm.9-4.2v.5l.3-.2v-.3h-.4Z" transform="translate(0 0)" style="fill:#b75326"/><path d="M97.7,15.1l.7.3-.3.4h3.3q5.4,0,7.2,2.7a10.6,10.6,0,0,1,1.5,2.2h.2c.4,0,2.7-1.1,7.1-3.3a2.7,2.7,0,0,1,1.3-.4,9.1,9.1,0,0,1,5.3,1.9c3.5,2.8,5.2,5.2,5.2,7s1,5,2,12.7v1.7q0,.6.3.6h.2a6,6,0,0,0,2-.5c.7,0,1,1.2,1,3.6s.1,2,.1,2.8h-.9a31.7,31.7,0,0,1-4.6.5l-1.9-.2h-4.2c-.1,0-.2-.2-.2-.5l-.8-.8h0l.2-.6h0l-.3-1.7v-.8c0-.5.4-.8,1.3-.8s2.1-.4,1.8-1.7a43.5,43.5,0,0,1,.4-7.2h0l-.2-3.7c0-.7-.5-1.4-1.6-2.3h-.9l-.5.3c-.1,0-.2-.2-.2-.7s-2.4-1.8-4.5-1.8-4.3,1-4.8,2.4a23.1,23.1,0,0,0-.3,2.9v7.7c0,1.9.5,2.9,1.5,3.2s.7.2.7.4c-.4,2-.7,3.1-.8,3.4l-1.6.3-5.3-.4h-.6c-.7,0-1-1-1-3.2v-.2q0-.3,1.8-.9c.4,0,.5-.2.5-.5a16.9,16.9,0,0,1-.3-3.5V29.5a12.2,12.2,0,0,1-.3-2.2c0-1.1.1-1.6.4-1.6h0l.5.3h.2c0-.9-1.5-2.2-4.3-3.9a6,6,0,0,0-2.2-.4,7.4,7.4,0,0,0-3.9,1.5V41.4l.3.2h.2c.1,0,.2-.1.3-.4h.1c1.1,0,1.8.3,2,.8v2c.1,1.7-.3,2.6-1.3,2.6a17.5,17.5,0,0,1-3.4.2l-8-.5c-.4,0-.8-1.3-1.1-3.7v-.2c0-.3.8-.7,2.5-1.2,0-.3.8-.6,2.5-.8a.5.5,0,0,0,.4-.6l.4-14.5V21.9c0-.4-.4-.5-1.2-.5l-2.8.3c-.7-.4-1.1-.8-1.1-1.2a1,1,0,0,0,.5-1V19c-.2-1.1-.4-1.6-.7-1.6h-.1c.3-.1.6-.5.9-1.1C91.2,15.7,94.2,15.4,97.7,15.1ZM88.9,42.2a1.3,1.3,0,0,1-.5,1.1q.4,2.1.9,2.1h.2l-.3-3.1h-.3Zm.4-22.6c0,.5.4.7,1.1.7a6,6,0,0,0,3-1h-.3C90.6,19.1,89.3,19.3,89.3,19.6Zm.3-1.7v.3h.1c1.7,0,2.5-.1,2.5-.3H89.6ZM90,42v.8h.1a2.3,2.3,0,0,1,1.2-.8v-.3H90.3C90.1,41.6,90,41.7,90,42Zm.3,2v.4l.2.2h.1v-.4l-.2-.2Zm.8-.3c0,.5.7.6,2.2.3a.8.8,0,0,0,.7.4l3.2-.3v-.2l-3.1-.2h0l.9-.2h1.9c-.4.4-2.1.5-5,.3l-.3-.2h-.3ZM92,16.5v.2c.9-.1,1.3-.2,1.3-.3h-.3C92.3,16.3,92,16.4,92,16.5Zm.9,25.9v.3h1.3v-.3H92.9Zm.8-2.7c0,.7.1,1,.3,1h.1c.5,0,.8-.3.9-1Zm.8-20.9h.2l.2-.2h-.2Zm.5,2v3.1a5.7,5.7,0,0,1-.3,1.8l.4.7-.2.9v.6l.2.2h.1c.2,0,.4-2.2.5-6.7h0a1.1,1.1,0,0,0-.4-1A.5.5,0,0,0,95,20.8Zm.1,7.6v.4h.2v-.5ZM95.9,40h0c0,.9.3,1.3.8,1.3H97c.1,0,.2-.1.2-.3Zm.6-22.8h0l.2.2h.1l.2-.2v-.2h-.4Zm.2,5.9a11.5,11.5,0,0,0-.2,2.1v1.2h.1c.3,0,.4-.6.4-1.7v-.5c0-.7-.1-1.1-.3-1.1Zm-.1-7h0l.3.2c.3,0,.4-.1.4-.4h-.5Zm0,12v.3l.3.4H97l.2-.2v-.3l-.3-.4h-.1Zm.5,15.1v.2h2.1v-.2H97.1Zm.5,2.2h.2a1.6,1.6,0,0,0,.8-.6h0A1.6,1.6,0,0,0,97.6,45.4Zm.2-26.6v.4h.1l.2-.2h-.3Zm-.1,1.9h.4c.5-.1.7-.2.7-.3v-.2h-.4C98,20.4,97.7,20.5,97.7,20.7Zm.2-3.5h.2l4-.7h-1.8q-2.4,0-2.4.6Zm0,26.6c0,.3.4.5,1.1.6l.3-.3v-.2q0-.3-1.2-.3ZM99.3,42v.3h.4l.2-.3h-.6Zm.3-23.1h0l3.2-.3a4.1,4.1,0,0,1,2.8,1.2h.2v-.3c-.3-.8-.7-1.2-1.3-1.2h-.6C101.1,18.3,99.7,18.5,99.6,18.9Zm1.5,1,1.8.5a4,4,0,0,0,2,.7h.1v-.2a4.8,4.8,0,0,0-3.2-1.3h-.4C101.2,19.7,101.1,19.7,101.1,19.9Zm3-2.8v.2a6.5,6.5,0,0,0,1.8.4h.1v-.2c0-.2-.5-.3-1.6-.4Zm2.1,2.8c0,.3.1.5.5.5h0a.6.6,0,0,0-.4-.6Zm.8-.5v.2c.4.6.7,1,1,1.1h.2a3.3,3.3,0,0,0-1.1-1.3Zm.2,1.5h0c0,.4.4.8,1.1,1h.1v-.6c0-.1-.4-.3-1.1-.5Zm1.7,10.6v3.9h.2a6.1,6.1,0,0,0,.2-1.5h0c0-1.6-.1-2.3-.3-2.3ZM109,24a.5.5,0,0,0,.5.5h.1v-.2a.5.5,0,0,0-.5-.3Zm.2,19.4h.7l-.2-.2h-.4Zm1.2-2.6.2.2h.4l.4-.3h0l-.2-.2h-.5Zm.4-19.1v.6l.2.2a3.1,3.1,0,0,0,2-1.1h-1.6A.6.6,0,0,0,110.8,21.7Zm.1,3.5v.3c0,.3.1.4.2.4h.2l.3-.3h0C111.5,25.3,111.2,25.2,110.9,25.2Zm-.1,14.2v.2h.2l.2-.2-.2-.2h0Zm2.6-18.8h.4c.5-.1.8-.3.8-.6h-.2C113.8,20.2,113.4,20.4,113.4,20.6Zm1.7-.7h.1c.3,0,1-.4,2.1-1.4v-.2C115.8,18.7,115.1,19.2,115.1,19.9Zm3.5.8v.2l.4.3c1.7,0,2.6-.1,2.8-.3s-.9-.6-2-.6h-.1C119.1,20.3,118.7,20.5,118.6,20.7Zm.9-1.9h0c.1.2.3.3.7.3h.2V19c0-.1-.2-.2-.6-.2Zm.3-.6,1,.4a1.9,1.9,0,0,0,1.4.8h1.2v-.2c0-.4-1.1-.8-3.2-1.3h0C119.9,17.9,119.8,18,119.8,18.2Zm1.4,4.9a3.6,3.6,0,0,0,2.5,1.5h.2v-.3a5.1,5.1,0,0,0-1.3-1.2h-1.4Zm3.2-1.4v.4a4.3,4.3,0,0,0,1.3,1.4v.3h.4c0-.6-.5-1.2-1.5-2Zm.2,22.4v.2h1.7c.4,0,.6-.1.7-.3a.5.5,0,0,0-.5-.3h-1Zm1.2-18.8v.2c.3,1.1.6,1.6.9,1.6h0a2.4,2.4,0,0,0-.8-1.7Zm.8,6.9v.2l.2,2.4V35l.2.2h.1l.3-.3V32.5l-.3-.3Zm.1,5.5v.4h.2v-.6h-.1Zm.1-9.7.7,1.2h.3v-1a.5.5,0,0,0-.3-.5h-.5C126.9,27.7,126.9,27.8,126.8,28Zm.1,11.5h0l.2.3.2-.3h0l-.2-.2Zm.2,3.7v.2h.8c1.2,0,1.8-.1,1.8-.4h-.4C127.9,42.9,127.1,43,127.1,43.2Zm1.8-2.1h0l.2.2h.2l.3-.3v-.4l-.2-.2h-.2A.6.6,0,0,0,128.9,41.1Zm1.7,2.1h.3c.2,0,.4,0,.5-.2h0c0-.2-.1-.4-.3-.4S130.7,42.7,130.6,43.2Zm1.8-1.1v.7l.2.2c.1,0,.2-.3.2-.9v-.2h-.1Z" transform="translate(0 0)" style="fill:#b75326"/><path d="M150.2,13a19.6,19.6,0,0,1,4.2.9c2.4,2.2,3.8,4,4.2,5.2s1.6,2.8,2.2,5.7c.6.6.9,2.1.9,4.4v1.5l-.2,6.1c0,1.2.8,2.7,2.3,4.6s2.2,2,2.7,2h0c0,.5-.7,1.3-2.2,2.4s-1.7,1.6-2,1.6h-.1c-.6-.1-2.3-1.3-5-3.7l-7.3,3a22.1,22.1,0,0,1-5.4.7h-.3a11.6,11.6,0,0,1-5.7-2.6,16.3,16.3,0,0,1-1.8-3.1,4.8,4.8,0,0,1-1.1-3.4V36.7a5.9,5.9,0,0,1,.9-3.2,14.7,14.7,0,0,1,2.8-4.8,5.6,5.6,0,0,1,2-1.6,13.7,13.7,0,0,1,6.3-1.6h3.1c1.7,0,2.8.2,3.4.7h.4c.2,0,.2-.1.2-.3a21.3,21.3,0,0,0-2.1-5.6c-.9-1.5-2.6-2.3-5.1-2.3l-2.5-.3c-2.2.4-3.3.9-3.3,1.4a8,8,0,0,0-1.5,4.1c-.1.2-.9.3-2.3.3h-.4c-.1,0-.3.4-.6,1.1s-1.7-.4-1.7-.7a41.3,41.3,0,0,0,.5-4.5c.6-1.9,2.2-3.6,4.6-5.2a10.3,10.3,0,0,1,2.1-1.1ZM138,21.7v.9h.1c.2,0,.2-.2.2-.4v-.7Zm.7-4.6h.1c.3,0,.9-.4,1.6-1.2v-.2h-.1c-.3,0-.9.5-1.6,1.3Zm.8,24.8h.4l-.2-.3h-.1Zm.1,3.3h0c.2.4,1.3.9,3.1,1.4a6.2,6.2,0,0,0,2.5.5h0c0-.2-.8-.4-2.4-.7A14.3,14.3,0,0,1,140,45h-.2Zm.8-15.9v.3h.2a.5.5,0,0,0,.6-.4V29h-.1Zm0,5.6c.3,2.5.6,3.7,1.1,3.7l.6.8h-.6v.2a14.2,14.2,0,0,0,4.8,3l1.3.3c.8,0,3.7-1.2,8.5-3.6.4-.2.5-.4.5-.7v-.3c-.3-1.7-.6-3.7-.9-5.9h-.1c0-.4-.5-.8-1.4-1.1a25.8,25.8,0,0,0-6.2-1.3c-3.1.7-5.3,1.8-6.5,3.1A3.5,3.5,0,0,0,140.4,34.9ZM144.3,15h0q0,.3.6.3a3.4,3.4,0,0,0,1.5-.4v-.2h-.2Zm2,29.3a.6.6,0,0,0,.6.3c.4,0,.6-.2.6-.3h0V44h-.8Zm.7-27.5.2.3h.9l-.3-.3h-.5Zm2.3-2.4.3.2h.4l-.2-.3h-.3Zm2.2,29h.3a4.6,4.6,0,0,0,2.2-.7h-.2C152.4,42.9,151.6,43.2,151.5,43.4ZM154,14.7h0a1.1,1.1,0,0,0,.9.5h.1v-.2a1.2,1.2,0,0,0-.9-.4Zm3,21.2v.3l.2.2h.1l.3-.2v-.3l-.2-.2h-.2Zm.2-2.1V34h.3v-.2l-.2-.2h-.1Zm1.7-3V31h0Zm0,1.3v.2h.3v-.2Zm.1-3.3V29q.3.9.6.9h0a1.6,1.6,0,0,0-.4-1.2H159Zm.3,5h0c.1,1.5.3,2.3.5,2.3l.2-.2h0a6.7,6.7,0,0,0-.4-2.2Zm1,8.9c.1.3.2.5.5.6h0l.3-.3h0l-.3-.3h-.5Zm.3-16.2h0c0,.3.1.5.2.5v-.3l-.2-.3Zm1.1,17.3V44l.2.2h.3l.2-.2h0l-.4-.4h-.2Zm.5-2.2V42c.2.5.3.7.6.7h.1c-.1-.7-.3-1-.5-1Z" transform="translate(0 0)" style="fill:#b75326"/><path d="M175.9,0a3.9,3.9,0,0,1,2.3.7,22.6,22.6,0,0,0-1,6.3l-.6,5.6c0,.3.8.5,2.4.5,4.9,0,7.4.2,7.4.6l.7.4a3.1,3.1,0,0,0-.6,1.2v.2l.2,1.2-.8,2.8q0,.3.9,1.2h0a7.9,7.9,0,0,1-2.4.5c-.7-.1-1-.2-1-.3h1l.2-.2v-.2h-7.8c-.2,0-.4,1.2-.6,3.5h-.1l-.8-.9-.2.6v.4c0,1.2.2,1.8.4,1.9s.3-.4.4-1.2v-.4h.2v.2l-.5,5.9c.4,6.5.8,9.8,1.1,9.8s.7,1.9,1.6,1.9a3.1,3.1,0,0,0,1.7.4h4.7c.2,0,.4,1.1.5,3.3s-.5,1.9-2.2,1.9h-4.7a10,10,0,0,1-6.6-2.1c-1.1-.5-1.7-1.7-1.7-3.8s-.3-4.9-.5-9.8l1-5.4.2-3.7v-.5c-.3-1.7-.8-2.5-1.5-2.5h-4a4.9,4.9,0,0,0-1.9.5c-.4-.1-.9-.6-1.5-1.7l1.3-5.5a67.2,67.2,0,0,1,7.4-.3,3.5,3.5,0,0,1,.9-2q.3-9.6.6-9.6V.9c0-.1,0-.2-.2-.2h0C171.9.4,173.2.2,175.9,0ZM163.6,13.7c0,.3.1.5.4.5h1l4.7-.3h0c0-.3-1-.4-3-.4H164C163.7,13.5,163.6,13.6,163.6,13.7Zm.8,1.4v.3c0,.4,1.4.6,4.1.6s2.1-.1,2.1-.3-1.8-.7-5.4-.7h-.8Zm.4,2.2c0,.2.1.2.3.2h3.3a9,9,0,0,0-2.8-.3H165Zm0,.8h0c0,.3,1.6.4,4.7.4h.5v-.2Zm5.7,13.5.2,1.7v2.8h.2c.3,0,.4-.9.4-2.9V31.8c.1.1.1.2-.1.2A.8.8,0,0,1,170.5,31.6Zm2,8v1.3h.1l.2-.2v-1h-.3Zm.3,4.2v.3c.1,1,.5,1.5,1.3,1.5h.8c0-.2-.4-.3-1.2-.5l-.8-1.1Zm.5-22.5v.5h.1c.2,0,.3-.1.3-.4v-.6h-.1C173.4,20.9,173.3,21.1,173.3,21.3Zm.1,1.2v1h.3v-1Zm.1-20.8V2h.2V1.8h-.2Zm0,25.1v.5l.2.2h.1v-.7Zm.3-22.9a6.2,6.2,0,0,0-.1,1.6v.3h.1l.2-1.1V4.1Zm.3,2.8-.3,6.1h.3c.3,0,.4-.5.4-1.5V7q-.1-.3-.3-.3Zm.3,29.8v.9c0,.3.1.5.3.5h.1c.2,0,.2-.2.2-.4s-.2-1-.4-1Zm.1,7h-.1v.4a.8.8,0,0,0,.5.5h.4C175.3,43.9,175,43.6,174.5,43.5Zm.5-4.4-.2.8c0,.9.2,1.5.6,1.7l.2-.3v-.5C175.4,39.8,175.3,39.2,175,39.1Zm.3-16.9h0l.2.3h.1v-.2l-.3-.2ZM176,2h0l.2,1.5h.1a2.1,2.1,0,0,0,.7-1.3V2l-.2-.2h-.6Zm1.5,13.7h0c0,.2.7.4,2.2.4h1.1l1.3.3h.3c.3,0,.5-.1.5-.4h-.1l-4.7-.4h-.4Zm.9,2.8h0q.2.3,2.1.6h.2a3.6,3.6,0,0,0-2-.6Zm3.6-4.6h-1.8V14a7.4,7.4,0,0,0,2.3.4H184c.1,0,.1-.1.1-.2s-.3-.7-.7-.7h-.6Zm-.7,30.8h.2c1.5-.3,2.3-.6,2.3-.9h-.1Q181.3,44.4,181.3,44.7Zm.5-25.6a9.3,9.3,0,0,0,3,.5l.2-.2v-.6h-1.4C182.4,18.8,181.8,18.9,181.8,19.1Zm2.3-2h0l.2.3h.3a.7.7,0,0,0,.7-.4l-.2-.2h-.8Zm.2-2.8h0l.2.2c.4,0,.6-.1.7-.3h-.7Z" transform="translate(0 0)" style="fill:#b75326"/><path d="M205.7,12.3a5,5,0,0,0,2.5.9c.8,0,2.5,1,5.1,2.9l.9.2h.3l1.1.6a6.5,6.5,0,0,1,1.9,1.8h0c0,.3-.3.6-.8,1a12.7,12.7,0,0,1-2.5,4v.9a5.9,5.9,0,0,0-1.7.4c-.3,0-.5-.3-.7-.8S210,23,210,22.5l.7-2c0-.8-1.3-1.3-4-1.7l-4.1-.2a14.2,14.2,0,0,0-5.6,1.6c-1.4.7-2.4,2.2-3.2,4.4a12,12,0,0,1-1.4,3.5l-.7-.5a2.6,2.6,0,0,0-.4,1.4h0l.8-.4c.2,0,.2.2.3.4l-.4,2.8a28.8,28.8,0,0,1,1.2,3.7l-.3.4v.2c.3.2.4.9.5,2.1s1.6,2.3,3.6,3.3l3.3,2.4a19,19,0,0,0,9.6-2.4q4.2-3.6,4.2-4.8l-.2-.9h0a16.4,16.4,0,0,1,2.7-3,2.9,2.9,0,0,1,1,.9v.2h-.8V34c1.5.2,2.3.6,2.3,1.3a17.1,17.1,0,0,1,2.1,3.9q.3,0,.6,1.5c.5.2.8.4.9.7s-.3.5-.8.6a5.6,5.6,0,0,0-2.6,2L217,41.8,213.6,44a23.6,23.6,0,0,0-3.1,2l-6.4,2.1h-1a21.7,21.7,0,0,1-5.9-1.2c-2.8-1.2-4.3-2.1-4.6-2.8-3.4-4.1-5.2-7.3-5.2-9.6V32.5a26.8,26.8,0,0,0,.5-5.4l1.6-3.9c0-1.2.8-2.6,2.3-4.5s3.2-3.6,6.8-5.2a30.2,30.2,0,0,1,7.2-1.1ZM189.4,31.9v.2a.7.7,0,0,0,.6.7c.3,0,.3-.7.1-2v-.3h-.2C189.7,30.5,189.6,30.9,189.4,31.9Zm2.3-8.1-1,1.9V26l.2.3h.1c.3,0,.6-.7,1-2v-.5Zm-.4,9.2a1.3,1.3,0,0,0-.3,1,3.1,3.1,0,0,0,.6,1.2c.2.7.5,1,.9,1h0a8.2,8.2,0,0,0-1.1-3.1Zm-.2,4.9v.3a.9.9,0,0,0,.8.6,1.2,1.2,0,0,0-.6-.9Zm.3,2.9h0c0,.6.6,1.3,2,1.9h.5c0-.5-.7-1.2-2.2-2Zm.2-18.3h.2c.5-.4.7-.7.7-1v-.2h-.1A1.4,1.4,0,0,0,191.6,22.5Zm.9,16.7v.4c.2.3.4.5.7.5h.1v-.2C193.1,39.5,192.8,39.2,192.5,39.2Zm1-19.1h.2c.6-.4.9-.7.9-1S193.8,19.4,193.5,20.1Zm.2,23.7c.3.6,1.8,1.5,4.4,2.8l1.3.4h.1v-.3c-2.6-1.1-4.2-2-4.8-2.8l-.6-.3h-.3C193.7,43.6,193.7,43.6,193.7,43.8Zm.4-27.1v.2h.2l.3-.3h-.2Zm1.3-.6,3.1-1.3,2.1-.9c.7-.1,1.1-.3,1.1-.4h0q-2.7,0-6.3,2.4h0Zm.4,27.5h0c0,.3.7.7,2.2,1.2l3,1h.7l.2-.2v-.2h-.1a3.1,3.1,0,0,1-2.2-.9l-1-.3h-.1l-.4.3H198a5.7,5.7,0,0,1-2-.9Zm.8-25.2h.3l.2-.2v-.2Zm2.3-1.4v.2h.2q1.5-.3,1.5-.6l-.2-.2h-.2C199.4,16.7,198.9,16.8,198.9,17Zm2.4-1.3V16l.7.2c2.4,0,3.7-.2,4.1-.7l-1.1-.2A17.1,17.1,0,0,0,201.3,15.7Zm1,1.9h.7c1.4,0,2.1-.2,2.1-.4v-.2h-.7C203,17.1,202.3,17.3,202.3,17.6Zm.8,29.7h0c0,.3.4.4,1.3.4v-.2h-.1l.3-.2-.3-.3h-.4Zm3.3-30.1h0c0,.1.5.2,1.6.3h0l-1.1-.3Zm.2,27.4h0c.4,0,.7-.1.8-.3h0C206.8,44.4,206.6,44.5,206.6,44.6Zm0-28.9v.2c0,.2.4.3,1.2.4l.2-.2c0-.3-.2-.4-.7-.4Zm.5-1.9H207l.2.2h.3v-.3Zm1.2,31.8h.1a6.1,6.1,0,0,0,2.2-1.3h-.1C210.1,44.2,209.4,44.7,208.3,45.6Zm.3-29.3h0l.2.3h.2v-.2l-.3-.2Zm.6,26.9h.2c1-.4,1.5-.9,1.5-1.3h0q-1.8.8-1.8,1.2Zm2.6-25.3v.3h.2l.2-.2h-.4ZM213,40.2h.1a2.4,2.4,0,0,0,.8-.9h0C213.5,39.2,213.2,39.5,213,40.2Zm2.2-20.7h.4l.3-.3v-.5C215.4,18.8,215.2,19,215.2,19.5Zm1.7,17.6h0c.3.8.6,1.3.8,1.3l.2-.2v-.2C217.6,37.4,217.3,37.1,216.9,37.1Zm1.3-1.3v.3c0,.5.7,2,2.3,4.7h.4l.2-.2a17.6,17.6,0,0,1-1.8-3.9l-.9-1Zm.3,6.3v.3l.2.2h.3q.3,0,.9-.9h0c0-.1-.3-.3-1-.5S218.5,41.5,218.5,42.1Z" transform="translate(0 0)" style="fill:#b75326"/><path d="M226.9,1.3c5.3.2,7.9.7,7.9,1.5l.4,9a34.9,34.9,0,0,1-1.3,6.3,15.8,15.8,0,0,0-.3,2.6v.4h.2a14.7,14.7,0,0,1,9.4-3.2,16.2,16.2,0,0,1,5.7,1.7,28,28,0,0,1,2.1,2.6,1,1,0,0,1,.5.7v.6c1.2,1,1.8,2.7,1.8,4.9a48.1,48.1,0,0,1,.3,6.1h0c0,.6-.4,2.9-1.1,6.9v1.1h1.2q2.1.1,2.1.6c0,.1-.7.3-2,.4h0c0,.2.5.3,1.4.6l.2.3h0l-1.1.3c.8.2,1.1.5,1.1.8,0,2-.5,3-1.6,3h-.5c-1.6,0-2.4-.3-2.4-.8a8.7,8.7,0,0,0-2.5-.3l-1.8-.8v-.2a53.5,53.5,0,0,1,.9-7.9,38.4,38.4,0,0,1,1-6.4V30.2l.2-.3a1.9,1.9,0,0,1-.8-1.8,13.5,13.5,0,0,0-1.3-2.1,9.6,9.6,0,0,0-2.6-.9,8.1,8.1,0,0,0-6.1.3c-2.7,1.8-4,3.1-4,4l-.4,4v4.2q-.3,4.5-.9,4.5v.3h.5l1.1-.4c.9.1,1.4.5,1.4.9l-.4.4v.3l.8.4v.3c-.2,2.1-.5,3.2-.9,3.2h-.2c-.6-.4-2.8-.7-6.6-.8s-4.1-.7-4.1-1.3v-1c-.1-.2.1-.4.4-.9v-.4a3.4,3.4,0,0,1-.8-1.2,10,10,0,0,1,3-.3q.5,0,.6-2.4c.4-.2.6-.9.8-2a1.8,1.8,0,0,0,.4-1h0a3.4,3.4,0,0,0-.8-1.9l.8-1.5c.2,0,.3-4.5.4-13.5l.8-9.1V7.5c0-.9-.2-1.4-.8-1.4h-2l-1.3.4c-.3,0-.4-.5-.4-1.6V4.1c0-1.8.2-2.7.7-2.7Zm-2,42.1v.2h2.6c0-.3-.7-.5-1.9-.5S225,43.2,224.9,43.4Zm.7,2h.1a16.7,16.7,0,0,1,3,.8,41.3,41.3,0,0,1,5.4.5h.1l.3-.3h0c0-.4-2-.6-5.9-.6a4.9,4.9,0,0,0-2.5-.6C225.8,45.2,225.6,45.3,225.6,45.4Zm.5-42.3v.4h.2V3.2Zm.9-.9v.3a4.1,4.1,0,0,0,2.1.5V2.8a4.8,4.8,0,0,0-2.1-.6Zm.5,1.3h0l.2.2h.8V3.6h-1Zm.3,38q0,.4,2.1.6h.2v-.5c0-.1-.2-.2-.5-.2h-1.2C228,41.3,227.8,41.4,227.8,41.5Zm.1-36.9h0a.5.5,0,0,0,.5.3h.8V4.6h-1.3Zm3.1,7.6a4.8,4.8,0,0,0-.3,2.2c.5,0,.8.4.8,1.1h.1a3.5,3.5,0,0,0,.1-1.2v-.8h0l-.3.6h-.2v-.3c.1-.4.1-.5.3-.5h.3A4.1,4.1,0,0,0,231,12.2Zm.4-1.6h0l.2.3h.2v-.2l-.2-.3h-.1Zm0-1.9v.4l.2.2.2-.2V8.8l-.2-.3Zm.9,18.3v.4h.1c.5,0,.7-.4.9-1.1h.1v-.3h-.1A2.7,2.7,0,0,0,232.3,27Zm.4-24.1.5.5h.1a.6.6,0,0,0,.6-.3V2.9l-.4-.3h-.6Zm.3,25.2h.5c.3,0,.5-.1.5-.2v-.2h-.3Q233,27.8,233,28.1Zm.2,15.6V44l.3.3h.4l.3-.3h0l-.4-.4h-.6Zm.4-.9V43h.3v-.2Zm1.7-19.3h.2a1.4,1.4,0,0,0,.8-.6h-.2A1.8,1.8,0,0,0,235.3,23.5Zm2.5,1.5h.1l.3-.2v-.2H238Zm2.6-3.1h0l.2.2h.5l-.3-.2Zm.8,2h.3v-.2h-.1Zm.9-.8v.3a4.9,4.9,0,0,0,1.7.6l.2-.2c0-.3-.5-.5-1.5-.8Zm1.7-4.6h0l.8.4h0c0-.2-.3-.3-.7-.4Zm2.2,6.1h0a.5.5,0,0,0,.6.6h0A.5.5,0,0,0,246,24.6Zm1,21.6v.2a.9.9,0,0,0,.8.4h.6v-.2c0-.2-.2-.3-.7-.4Zm.2-26.3h0c.1.4.4.5.8.5v-.2A1.2,1.2,0,0,0,247.2,19.9Zm.1,25.6h.3v-.2l-.2-.2Zm.2-.9h2.6a3.5,3.5,0,0,0-2-.4.7.7,0,0,0-.7.5Zm.7-20.9v.2a9.3,9.3,0,0,1,1.8,2.8c.2.3.3.4.5.4v-.4c0-.8-.6-1.8-1.8-2.9h-.5Zm.4,18.8v.3h.6v-.7A.7.7,0,0,0,248.6,42.5Zm1.1-16.8v.2l-.5,1.3h.1l-.3-.4Zm1.4,14.1h.2c.3,0,.7-1.5,1.1-4.6,0-.5-.1-.7-.4-.8h-.2C251.5,34.4,251.3,36.2,251.1,39.8Zm.5-14.3h0l.4.3h.1l.2-.2-.4-.4h-.1Zm.4,7.9.2.2h.2v-.2H252Z" transform="translate(0 0)" style="fill:#b75326"/><path d="M293.3,4.8h.3a31.2,31.2,0,0,1,5.8,1.6c.3.2.5.4.8.4l.4-.2,2.8,3.8q.3-.2.3.6a12.3,12.3,0,0,1,.6,3.6c0,1.1-.8,1.6-2.3,1.6a7.6,7.6,0,0,1-1.9-.5H300c-.1,0-.3.2-.4.7h-.2q-.3,0-.9-2.4c-.6-2.4-1-3.5-1.2-3.6s-1.8-.5-3.6-.5h-.1l-4.8,1.1c-1.1.8-1.7,1.3-1.7,1.6,0,5.6.2,8.4.7,8.4s2.7.9,5.4.9c.4.2.7.4.7.6a2.8,2.8,0,0,1,1.1,2.2c0,1.7-1.2,2.6-3.7,2.6h-.1a4,4,0,0,1-2.1-.7h-.4c-.8.1-1.2.2-1.2.4v8.4a24.3,24.3,0,0,0,.3,3.8v3.5c0,.3,1.2.6,3.6,1s3.5.2,3.9.6l.2.2c-.2,0-.5,1.2-.8,3.5l-2.5-.3h-.8a56.4,56.4,0,0,0-6.9-.6h-5.1a2,2,0,0,1-.2-.9V44.8a16.5,16.5,0,0,0-.2-2.7c0-.3.3-.4,1-.4l2.4.5h.9c.4,0,.7-.1.8-.4h0a12.1,12.1,0,0,1-.6-4.5,12.9,12.9,0,0,1-.3-2.4v-.2c0-1.2.3-3.8.8-7.8,0-.2-.3-.3-1.1-.3h-.2a17.8,17.8,0,0,1-4.5.8l-.9-.2c.2-3.8.5-5.7.8-5.7a.5.5,0,0,1,.5-.3h.3c3.1,0,4.7-.1,4.7-.3V15.3c-.1-1.1-.1-2-.1-2.6v-.2l-.3-1.1h0a10.4,10.4,0,0,1,1.7-2.4l2.9-3A14.7,14.7,0,0,1,293.3,4.8ZM278.2,22.2v.2l.2.2h.3c.3-.1.4-.3.6-.5l-.3-.3h-.1A.8.8,0,0,0,278.2,22.2Zm.7,3a2.2,2.2,0,0,0-.4,1v.4h.7v-.2A2.1,2.1,0,0,0,278.9,25.2Zm1.8,20.1h0c0,.3.9.4,2.6.6h.1a3.7,3.7,0,0,0-2.1-.6h-.6Zm.2-22.6h0a1,1,0,0,0,.4.7,2.2,2.2,0,0,0,1.2-.6c0-.1-.4-.3-1.2-.4h-.1Zm0,19.9v.2c0,.2.4.3,1.1.4h.6v-.2l-1.5-.3Zm.5-18v.2h.7C282,24.7,281.8,24.6,281.4,24.6Zm1.4,1.1h.7l.2-.2h-.8Zm1.3,19.5h0a1.6,1.6,0,0,0,1.1.7h.4A2.1,2.1,0,0,0,284.1,45.2Zm.8-12.8.3.6v.8c.1,1.3.3,2,.5,2h0c.3,0,.4-.8.4-2.2v-.3c0-.8-.2-1.2-.7-1.2h-.2C285,32.1,284.9,32.2,284.9,32.4Zm.4-5-.2,1.8v1h.1V27.4Zm0,13a10.3,10.3,0,0,0-.1,1.9h.3l.2-.3v-.8q-.1-.9-.3-.9Zm0-1.6V39l.2.2h.1v-.4Zm.3-14.8v.5h.2v-.4l-.2-.2Zm0,7.2h0v.4h.3v-.5Zm.2-1v.5h.1l.2-.2v-.3Zm.1-1.1v.2h.2v-.2Zm.6,16.7V46c0,.1.4.3,1.2.4h1v-.2c0-.2-.4-.4-1.4-.4Zm2-38.7h0a4.6,4.6,0,0,0,3.4-1V6h-.1A5.7,5.7,0,0,0,288.5,7.1Zm0,16.1v.2a1.1,1.1,0,0,0,.9.5h.4v-.2a1.1,1.1,0,0,0-1-.5Zm3.2.7v.2h.2v-.2Zm.1,1.6h.3c1.2-.2,1.8-.4,1.8-.7h-.4C292.4,24.9,291.8,25.1,291.8,25.5Zm.4,19h.5c.9,0,1.3-.1,1.3-.3h-1.2C292.4,44.3,292.2,44.4,292.2,44.5ZM292.5,9h.1l.2-.2h-.2Zm.8,37h0l.4.5h.2V46l-.2-.3h-.3Zm.1-38.7h0c0,.1.1.2.4.2h1q0-.3-.9-.3Zm4.4-.2a2.7,2.7,0,0,0,2,1.2V7.8a2.4,2.4,0,0,0-1.7-1H298C297.9,6.8,297.8,6.9,297.8,7.1Zm.7,3.3h0a2.4,2.4,0,0,0,.6,1.5h.2v-.4c-.1-.8-.4-1.2-.8-1.2Zm1.3,3.9h.4V13.3h-.1A1.3,1.3,0,0,0,299.8,14.3Z" transform="translate(0 0)" style="fill:#b75326"/><path d="M315.1,17.9h.6a29.8,29.8,0,0,1,6.5,4.2c2.1,1.8,3.1,3.1,3.1,4h-.1c-.3-.5-.6-.8-1-.8h0a.2.2,0,0,0-.2.2,10.9,10.9,0,0,0,1.1,2.4h.1c.1,0,.2-.2.3-.7h.1a5.8,5.8,0,0,1,.5,1.8l.5,1.3v.8l.2,2.2a29.4,29.4,0,0,0-.8,4c-.2.8-2.1,3.8-5.8,8.8a6.8,6.8,0,0,1-4.8,2.3,27,27,0,0,1-4.9.4h-1.2a22.1,22.1,0,0,1-5.5-1.8c-3.7-3.4-5.6-6-5.6-7.7s-1-2.2-1.3-3.1a23.6,23.6,0,0,1,1.7-5.3c0-1.9.4-3.2,1.3-4,1.9-4.2,4.3-6.8,7.3-8.1a20.7,20.7,0,0,1,6.3-1.4ZM297.6,35.8a3.2,3.2,0,0,0,.2.6h.1v-.7h0Zm1.4,2.9v.5c.1,1.3.5,2.1,1.2,2.3h.1c-.3-1.9-.7-2.9-1-2.9Zm.7-9.8a.5.5,0,0,0,.5-.4h0C299.8,28.4,299.7,28.6,299.7,28.9Zm1.2-2.1h.1c.1,0,.2-.2.2-.5h-.1A.8.8,0,0,0,300.9,26.8Zm.1,7.7h.2l.2-.2h-.1Zm.4,8.3h0a.7.7,0,0,0,.4.5h.3c0-.3-.2-.5-.5-.7h-.1Zm.9-6v.4c.5,1,1.1,2.2,1.9,3.6s.7,1,2.3,1.7,2.1,1.5,4.2,2h1.1a21.4,21.4,0,0,0,4.1-1.1l2.2-1.9c2.3-2.5,3.4-4.5,3.3-6.2v-.6a11.7,11.7,0,0,1-.3-3.2,10.6,10.6,0,0,1,.2-2.7c0-.3-.8-1-2.4-2.2a8,8,0,0,0-3.6-3h-.7q-7.2.3-7.2,1.2a8.3,8.3,0,0,0-2.3,3.2c-1.3,1.3-2,2.2-2,2.7A52.1,52.1,0,0,0,302.3,36.8Zm.2,8V45a3.9,3.9,0,0,0,2.9.9h.6a9.2,9.2,0,0,0-3.1-1Zm.9-18.4v.4h.1c.6-.4.9-.8.9-1.1h-.3A2.7,2.7,0,0,0,303.4,26.4Zm.6-4.2v.2a26.3,26.3,0,0,0,3.8-2.6l.5-.2h.3c2.8-.3,4.2-.6,4.2-.8h-1a10.4,10.4,0,0,0-7.6,3.2Zm.6,2.8v.2h0Zm.1-1.8a1.3,1.3,0,0,0,1-.7v-.2C305,22.5,304.7,22.8,304.7,23.2Zm1.1,23.2h.9v-.2h-.2C306,46.2,305.8,46.3,305.8,46.4Zm1.2-.8h0c0,.3.6.4,1.8.4h.1A3.8,3.8,0,0,0,307,45.6Zm1.9-24.5v.2a22.5,22.5,0,0,0,4.8-.7l-.5-.2h-.1A9.1,9.1,0,0,0,308.9,21.1Zm.1,2.1h0v.2h.9l4.3-1h0l-1.1-.2C310.4,22.4,309,22.8,309,23.2Zm4.1,23.9h0q0,.3.9.3c.7,0,1.1-.1,1.1-.3h0l-.5-.5h-.5C313.6,46.6,313.3,46.7,313.1,47.1Zm1-28.4c.2.6.6.8,1.4.8h.7v-.2q0-.7-1.2-.9T314.1,18.7Zm.6,1.9h0v.2l-.6.6h0c-.1-.2.3-.4,1-.8Zm.6.1h-.1a3.6,3.6,0,0,0,1.8.9h.1A3.4,3.4,0,0,0,315.3,20.7Zm1.1,26.8h.1c.7-.3,1-.5,1-.7h0C316.9,47,316.5,47.2,316.4,47.5Zm.9-23.9a1.2,1.2,0,0,0,.9.6V24h0a.5.5,0,0,0-.5-.5C317.5,23.5,317.3,23.5,317.3,23.6Zm1-3.4h0a1.7,1.7,0,0,0,1.3.8c0-.4-.3-.8-1-1h-.3Zm1,2.6h0a3.5,3.5,0,0,0,1.8,1.5h.3A8.7,8.7,0,0,0,319.3,22.8Zm1.2,1.9h0c.2.6.8,1,1.8,1.4h.2l.2-.2h0a2.6,2.6,0,0,0-2-1.1Zm2.8,15.1h.1c.2,0,.5-.3.8-1H324C323.8,38.8,323.5,39.1,323.3,39.8Zm1-1V38h.1c.2-.1.3.2.2.9h-.5Zm.5-3.5a5.5,5.5,0,0,0,.3,2h.1a2.4,2.4,0,0,1,.6-1.5v-.2l-.7-.9H325C324.9,34.7,324.8,34.9,324.8,35.3Zm.8-4.2v.3l.2.2.2-.2v-.3h-.4Z" transform="translate(0 0)" style="fill:#b75326"/><path d="M351.4,17.8c1.6,0,3,1.2,4.1,3.4.2,0,.5.3.9.8l.8,4.6c-.3.5-1.4.7-3.3.7h-.6c-1.5-.2-2.3-.7-2.3-1.5a4.4,4.4,0,0,0-1.4-2.4c-.2-.2-1-.3-2.7-.3a17.1,17.1,0,0,0-5.7,1.2,25.8,25.8,0,0,0-3.1,3.9c.3,7.4.4,11.9.3,13.2s.3.6.8.6h1.5c.7,0,1,.1,1,.3h0l.2.8v3.4l-.4.5-2.9.3h-.2l-1.3.4c-4.7-.2-7.1-.3-7.1-.6s-1.2-.3-1.2-1.1a14.2,14.2,0,0,1-.1-2.3c0-.7.8-1.3,2.4-1.5,0-.4.5-.5,1.6-.5h.2l-.4-16.9c0-1-.2-1.5-.7-1.5h-.4a8.6,8.6,0,0,0-2.5.6h-.1c0-.1.2-.2.5-.3h0c-.4,0-.6-1.2-.6-3.5-.1,0-.1-.4-.2-1.1a8.4,8.4,0,0,1,5.2-1.9h1.5a15.4,15.4,0,0,1,3.1.6v.2a2.2,2.2,0,0,0-.6,1.2v.4C341.1,17.6,345.6,17.2,351.4,17.8ZM329.4,45l-.2.2v.3h.4v-.4Zm.6-25.9a1.4,1.4,0,0,0,1.1.4h0V19l-.3-.3C330.3,18.8,330,18.9,330,19.1Zm.7,26.8h0q0,.3,1.8.3h2.3c0-.2-1.1-.3-3.3-.4Zm.3-24.4h.2c.4,0,.6-.1.7-.3h-.2C331.3,21.2,331,21.3,331,21.5ZM331,45h3.5v-.2h-3.4Zm1.6-27.2v.3l.4.4h.6l-.8-.6Zm2.6,9.3v.4a2.5,2.5,0,0,1,.4,1.3,11.7,11.7,0,0,0-.3,2.5l.2,2.5h.1a30.9,30.9,0,0,0,.4-5.7c.1,0,.2-.4.2-1.3s-.2-.6-.3-.6h-.2A1.1,1.1,0,0,0,335.2,27.1Zm.5-3.2-.3,1.2a1,1,0,0,0,.4.7h.1q.2,0,.3-.9l-.2-1Zm.6,21.4v.2h.9l.3-.3c0-.1-.1-.2-.3-.2S336.3,45.1,336.3,45.3Zm.4-26.1h0v.2l.3-.3V19h-.2Zm.1-1.2v.3h.3l.2-.2h-.5Zm0,20.7v.5h.2l.3-.3v-.3l-.2-.2H337Zm.1,1.2v.2h.1v-.2Zm1.1-18v.2l.2.2h.2l.2-.2v-.2H338Zm4.3-1.4h0c.3,0,.8-.6,1.4-1.8v-.3h-.1A1.6,1.6,0,0,0,342.3,20.5Zm2.3-1.4.2,1.3h.6V18.9H345C344.7,18.9,344.6,19,344.6,19.1Zm1.4-.4h0l.2.2h.6a.6.6,0,0,0,.5-.2H346Zm2-.2v.2h.4l.3-.3h-.2C348.2,18.3,348,18.4,348,18.5Zm1.6.4h.3v-.2h-.2Zm.6,3.6h.2c.3-.1.7-.6,1.3-1.5h-.3a1.3,1.3,0,0,0-1,1.3C350.3,22.1,350.2,22.2,350.2,22.5Zm1.7,1.6v.2h.1l.3-.3h-.1Zm.1-5.4h0v.2h.3v-.2h0v-.2h-.3Zm1.9,2v.2a1,1,0,0,0,.8.5h.2v-.2a1.4,1.4,0,0,0-.9-.5Z" transform="translate(0 0)" style="fill:#b75326"/><path d="M396.8,17.9h.6a29.8,29.8,0,0,1,6.5,4.2c2.1,1.8,3.1,3.1,3.1,4h-.1c-.3-.5-.6-.8-1-.8h0c-.2,0-.2.1-.2.2a10.9,10.9,0,0,0,1.1,2.4h.1c.1,0,.2-.2.3-.7h.1a5.8,5.8,0,0,1,.5,1.8l.5,1.3v3c-.2.6-.4,2-.8,4s-2,3.8-5.7,8.8a6.8,6.8,0,0,1-4.8,2.3,27,27,0,0,1-4.9.4h-1.2a22.1,22.1,0,0,1-5.5-1.8c-3.7-3.4-5.6-6-5.6-7.7s-1-2.2-1.3-3.1a23.6,23.6,0,0,1,1.7-5.3c0-1.9.4-3.2,1.3-4,1.9-4.2,4.3-6.8,7.3-8.1a20.7,20.7,0,0,1,6.3-1.4ZM379.3,35.8c.1.4.1.6.2.6h.1v-.7h0Zm1.4,2.9v.5c.1,1.3.5,2.1,1.2,2.3h.1c-.4-1.9-.7-2.9-1-2.9Zm.7-9.8a.5.5,0,0,0,.5-.4h0C381.5,28.4,381.4,28.6,381.4,28.9Zm1.2-2.1h0c.2,0,.3-.2.3-.5h-.1A.8.8,0,0,0,382.6,26.8Zm.1,7.7h.2v-.2h0Zm.3,8.3h0a1.2,1.2,0,0,0,.5.5h.3c0-.3-.2-.5-.5-.7h-.1Zm1-6v.4c.4,1,1.1,2.2,1.8,3.6s.8,1,2.4,1.7,2.1,1.5,4.2,2h1.1a18.3,18.3,0,0,0,4-1.1l2.3-1.9c2.2-2.5,3.4-4.5,3.3-6.2v-.6a10.8,10.8,0,0,1-.4-3.2,10.1,10.1,0,0,1,.3-2.7c0-.3-.8-1-2.4-2.2a8,8,0,0,0-3.6-3h-.8q-7.2.3-7.2,1.2a9.2,9.2,0,0,0-2.2,3.2c-1.3,1.3-2,2.2-2,2.7A52.1,52.1,0,0,0,384,36.8Zm.2,8V45a3.6,3.6,0,0,0,2.8.9h.7a9.2,9.2,0,0,0-3.1-1Zm.9-18.4v.4h.1c.6-.4.9-.8.9-1.1h-.3A1.8,1.8,0,0,0,385.1,26.4Zm.6-4.2v.2a26.3,26.3,0,0,0,3.8-2.6l.5-.2h.3c2.8-.3,4.2-.6,4.2-.8h-1a10.7,10.7,0,0,0-7.7,3.2Zm.6,2.8v.2h0Zm.1-1.8a1.3,1.3,0,0,0,1-.7v-.2C386.7,22.5,386.4,22.8,386.4,23.2Zm1.1,23.2h.9v-.2h-.2C387.7,46.2,387.5,46.3,387.5,46.4Zm1.2-.8h0c0,.3.6.4,1.8.4h.1A4.1,4.1,0,0,0,388.7,45.6Zm1.9-24.5v.2a22.5,22.5,0,0,0,4.8-.7l-.5-.2h-.1A9.1,9.1,0,0,0,390.6,21.1Zm.1,2.1h0v.2h.9l4.3-1h0l-1.1-.2C392.1,22.4,390.7,22.8,390.7,23.2Zm4,23.9h0c0,.2.3.3,1,.3s1-.1,1-.3h0a1,1,0,0,0-.4-.5h-.5A1.2,1.2,0,0,0,394.7,47.1Zm1.1-28.4c.2.6.6.8,1.3.8h.8v-.2c0-.5-.4-.8-1.3-.9Zm.5,1.9h0l.2.2-.6.6h0c-.1-.2.3-.4,1-.8Zm.7.1h-.1a3,3,0,0,0,1.8.9h0A2.9,2.9,0,0,0,397,20.7Zm1.1,26.8h.1c.7-.3,1-.5,1-.7h-.1C398.5,47,398.2,47.2,398.1,47.5Zm.9-23.9a1.2,1.2,0,0,0,.9.6V24h0c0-.3-.2-.5-.6-.5S399,23.5,399,23.6Zm1-3.4h0a1.7,1.7,0,0,0,1.3.8c0-.4-.3-.8-1-1H400Zm1,2.6h0a3.5,3.5,0,0,0,1.8,1.5h.3A8.7,8.7,0,0,0,401,22.8Zm1.2,1.9h0c.2.6.8,1,1.8,1.4h.2v-.2h0a2.3,2.3,0,0,0-1.9-1.1ZM405,39.8h.1c.2,0,.5-.3.8-1h-.2C405.4,38.8,405.2,39.1,405,39.8Zm1-1V38h.1c.2-.1.3.2.2.9H406Zm.5-3.5c0,1.3.2,2,.3,2h.1a2.4,2.4,0,0,1,.6-1.5v-.2l-.7-.9h-.1C406.6,34.7,406.5,34.9,406.5,35.3Zm.8-4.2v.3l.2.2.2-.2v-.3h-.4Z" transform="translate(0 0)" style="fill:#b75326"/><path d="M414.7,16l4.3,1.4a6,6,0,0,0,.7,2V20c-.3,2.6-.4,8-.3,16.5a2.1,2.1,0,0,0,1.5,2.3l.4,1.1c0,.2,1.4.5,4.2.6h.2c.8,0,1.9-.9,3.2-2.8a9.5,9.5,0,0,0,1.9-2.3h.3v-.7a7.6,7.6,0,0,0,.5-1.6h.1v-.6l1.1-11.7V19.6l-.2-.6h0a1.6,1.6,0,0,0,.7-1.5c0-.4.2-.7.5-.7l1.4.7h1.4a4.9,4.9,0,0,1,3.5,1v.3c-.5,0-.7.1-.7.2l.6,1.5h.2c0-.6.1-.9.2-.9a4.1,4.1,0,0,1,.3,1l-.6,7.7h.1a40,40,0,0,0-.9,7.4v1.8c0,2.7.1,4,.4,4h.2a13.8,13.8,0,0,0,3.6-.5c.2,0,.6.3,1.1.8-.1,3.6-.4,5.5-.7,5.5l-.7-.6-1.9.2-6.8-.2c-.4,0-.7-.8-1.1-2.4a1,1,0,0,1-.4-.8V43H433a19.8,19.8,0,0,0-3.6,1.7c-.1.2-1.6.9-4.3,1.8a11.8,11.8,0,0,1-2.5,1,12,12,0,0,0-3-1.1c-2.5-2.5-4.1-4.8-4.7-6.8s-1.6-4.7-1.6-9.7l.7-7.2v-.2a20.2,20.2,0,0,0-4.2-.8c-.3-.4-.4-1.4-.4-3.1s.2-1.7.6-1.7S411.6,16.1,414.7,16Zm-4.4,2.9v.2h.8v-.2Zm0,1.9V21h.5v-.2l-.2-.2h-.3Zm.3-1.3v.2q0,.3.6.3h.1l-.3-.4Zm.9.8h.1c.4-.1.5-.2.5-.3v-.2h-.2Zm1.2,0c0,.3.6.7,2,1.1h.6c.1,0,.2-.2.2-.4a3.2,3.2,0,0,0-1.7-1h-.4C413,20,412.7,20.1,412.7,20.3Zm.8-3.5V17h.4v-.2h-.4Zm1.1,6.7v.6l.9-.3V22.4h-.1C415.2,22.3,414.9,22.7,414.6,23.5Zm.1,10.8v.2c0,1.6.8,4.1,2.5,7.5.3.3.5.4.7.4V42l-1.8-4.9a9.7,9.7,0,0,0-1.2-3h-.1Zm.2-17h0c0,.1.3.3,1,.5s0,.9.1.9h.4c1,0,1.6-.2,1.8-.5h0c0-.3-.7-.5-1.9-.7s-.2-.2-.7-.3h-.7Zm.6,13.1-.2.3h0l.2.2.2-.2v-.3Zm1.4,2.2V33a1.5,1.5,0,0,0,.9,1.3h.1c0-1.5-.1-2.3-.4-2.3h-.2A.7.7,0,0,0,416.9,32.6Zm.4-11.8V22h.2a.7.7,0,0,0,.4-.7v-.7c0-.3-.1-.5-.3-.5h-.1C417.4,20.2,417.3,20.4,417.3,20.8Zm.8,15.9h0a.5.5,0,0,0,.5.3h0C418.6,36.8,418.4,36.7,418.1,36.7Zm1.1,4.4v.2c.2.2.3.3.5.3v-.3l-.2-.2Zm3.6,4.1h-.5l-2.5-.2h-.1l-.2.2h0c0,.3,1.1.8,3.4,1.2A12.1,12.1,0,0,0,427,45h.1v-.2h-.4A14.8,14.8,0,0,1,422.8,45.2Zm-3-5.3h0v.2h.1V40h-.2Zm1,1.7h0c0,.5.7,1.1,2.2,2a10.4,10.4,0,0,0,2.4-1.2h0a25.5,25.5,0,0,1-4.4-.7Zm3.2,2.2V44h.7a6,6,0,0,0,3.2-1.7v-.2h-.3A19.8,19.8,0,0,0,424,43.8Zm5.2-5h.1a7.7,7.7,0,0,0,1.5-2.2h-.2A8.4,8.4,0,0,0,429.2,38.8Zm3.1-1.7c-.3.3-.4.5-.4.7l.3.2h.1l.2-.2v-.4Zm.4,3.8h.2l.3-.4v-.2A.5.5,0,0,0,432.7,40.9ZM434,18.1q0,.6.9.6h.5c0-.2-.4-.3-1.4-.4Zm.3,15.5v.6l.2.2.6-.5v-.3l-.3-.2h-.3Zm.1-13.3h0c0,.1.2.2.4.2h.1a.6.6,0,0,0,.5-.2h0a.8.8,0,0,0-.6-.2h-.2Zm0,20.7v.7c0,2.9.1,4.4.4,4.4h.3c.2-.1.3-.2.3-.4a20,20,0,0,1-.5-4.5l-.3-.4Zm.1-3v.4h.3v-.2h-.3Zm.1-5.3.3.3c.2,0,.3-.5.4-1.2h-.2A1.2,1.2,0,0,0,434.6,32.7Zm.8-5.9v.3h.1c.4,0,.6-.5.6-1.4s-.1-.6-.2-.6S435.6,25.7,435.4,26.8Zm.3,10v.4a12.1,12.1,0,0,0,.3,2.5h.2a6.2,6.2,0,0,0,.2-1.8v-.4c0-.5-.2-.7-.6-.7Zm0-.8h0l.2.2.2-.2v-.2h-.3Zm1.3,8.8h0c.1.2.3.3.7.3h.8c0-.2-.2-.3-.8-.4h-.5Zm.7-16V29q.1.3.3.3h0v-.5Zm.8,11.1-.6.9V41h.6l.2-.2v-.3A.8.8,0,0,0,438.5,39.9Zm1.8,2.9V43h.6c.9,0,1.4-.2,1.4-.4h-.1Zm1.6.8V44h.3l.2-.2h0c0-.1-.1-.1-.3-.1Z" transform="translate(0 0)" style="fill:#b75326"/><path d="M469.5,17.8c1.6,0,3,1.2,4.1,3.4.2,0,.5.3.9.8l.8,4.6c-.3.5-1.4.7-3.3.7h-.6c-1.5-.2-2.3-.7-2.3-1.5a4.4,4.4,0,0,0-1.4-2.4c-.2-.2-1-.3-2.7-.3a17.1,17.1,0,0,0-5.7,1.2,25.8,25.8,0,0,0-3.1,3.9c.3,7.4.4,11.9.3,13.2s.3.6.8.6h1.5c.7,0,1,.1,1,.3h0l.2.8v3.4l-.4.5-2.9.3h-.2l-1.3.4c-4.7-.2-7-.3-7-.6s-1.3-.3-1.3-1.1a14.2,14.2,0,0,1-.1-2.3c0-.7.8-1.3,2.4-1.5,0-.4.5-.5,1.6-.5h.2l-.4-16.9c0-1-.2-1.5-.7-1.5h-.4a9.3,9.3,0,0,0-2.5.6h-.1c0-.1.2-.2.5-.3h0c-.4,0-.6-1.2-.6-3.5-.1,0-.1-.4-.2-1.1a8.4,8.4,0,0,1,5.2-1.9h1.5a15.4,15.4,0,0,1,3.1.6v.2a2.2,2.2,0,0,0-.6,1.2v.4C459.2,17.6,463.7,17.2,469.5,17.8ZM447.5,45l-.2.2v.3h.4v-.4Zm.6-25.9a1.4,1.4,0,0,0,1.1.4h.1V19l-.4-.3C448.4,18.8,448.1,18.9,448.1,19.1Zm.8,26.8h0c0,.2.5.3,1.7.3h2.3c0-.2-1.1-.3-3.3-.4Zm.2-24.4h.2c.4,0,.6-.1.7-.3h-.2C449.4,21.2,449.1,21.3,449.1,21.5Zm0,23.5h3.5v-.2h-3.4Zm1.6-27.2v.3l.4.4h.6l-.8-.6Zm2.6,9.3v.4a1.8,1.8,0,0,1,.4,1.3,11.7,11.7,0,0,0-.3,2.5l.2,2.5h.1a30.9,30.9,0,0,0,.4-5.7c.1,0,.2-.4.2-1.3s-.2-.6-.3-.6h-.2A1.1,1.1,0,0,0,453.3,27.1Zm.5-3.2-.3,1.2a1,1,0,0,0,.4.7h.1q.2,0,.3-.9l-.2-1Zm.6,21.4v.2h.9l.3-.3c0-.1-.1-.2-.3-.2S454.4,45.1,454.4,45.3Zm.4-26.1h0v.2l.3-.3V19H455Zm.1-1.2v.3h.3l.2-.2h-.5Zm0,20.7v.5h.2l.3-.3v-.3l-.2-.2h-.1Zm.1,1.2v.2h.1v-.2Zm1.1-18v.2l.2.2h.2l.2-.2v-.2h-.6Zm4.3-1.4h0c.3,0,.8-.6,1.4-1.8v-.3h-.1A1.6,1.6,0,0,0,460.4,20.5Zm2.3-1.4.2,1.3h.6V18.9h-.2C462.8,18.9,462.7,19,462.7,19.1Zm1.4-.4h0l.2.2h.6a.6.6,0,0,0,.5-.2h-1.3Zm2-.2v.2h.4l.3-.3h-.2C466.3,18.3,466.1,18.4,466.1,18.5Zm1.6.4h.3v-.2h-.2Zm.6,3.6h.3a5.8,5.8,0,0,0,1.2-1.5h-.3a1.3,1.3,0,0,0-1,1.3C468.4,22.1,468.3,22.2,468.3,22.5Zm1.7,1.6v.2h.2l.2-.3h-.1Zm.1-5.4h0v.2h.3v-.2h0v-.2h-.3Zm1.9,2v.2a1,1,0,0,0,.8.5h.2v-.2a1.4,1.4,0,0,0-.9-.5Z" transform="translate(0 0)" style="fill:#b75326"/><path d="M497,15.4l2.9.2H505v.2a6.7,6.7,0,0,0-.3,1.7v1.1c.1,1.2.4,1.7.9,1.7a5.9,5.9,0,0,1,2.5-1.3c3.3-1.4,6-2.2,8.2-2.2a7.9,7.9,0,0,1,4.5,1.9,8.3,8.3,0,0,1,3.5,2.9,17.9,17.9,0,0,1,2.4,9.5v.5l-.4,4.4.4,3.2-.6,2.9h0v.6h3.3c.7,0,1.2.1,1.3.3q-.3,4.5-.9,4.5a6,6,0,0,1-2.7.7H526a24,24,0,0,0-6.2.8c-1.4-.2-2.2-.9-2.2-2.2V44.8a4.1,4.1,0,0,1,1-3.1,44.3,44.3,0,0,1,1.3-5.5l.4-5.4c.1,0,.1-.5.1-1.4s-.8-2.7-2.6-4.8l-2.3-.8a9,9,0,0,0-6.5,3,32.9,32.9,0,0,0-3,3q-.9.8-.9,4.2c.1,4.1.3,6.2.5,6.2s2.4.6,2.4.9v.3h-2.3v.2q0,.3,2.4.6a2.7,2.7,0,0,1,.4,1.5h0a9.4,9.4,0,0,1-.6,3.1h-7.2a1.5,1.5,0,0,1-1.6-1,28.5,28.5,0,0,1-.5-4.6c0-.2.6-.5,1.8-.7l.3-.4h0a1.5,1.5,0,0,0-.5-1V33.7l.2-5.7c0-3.8-.2-5.8-.5-5.8h-.3l-2.9.4c-.3,0-.7-.3-1.2-.8v-.2a1.7,1.7,0,0,0,.3-1V18.3l.9-2.8Zm-.3,4.1h0a.3.3,0,0,0,.3.3,1.7,1.7,0,0,0,1.1-.5h-1C496.8,19.4,496.7,19.4,496.7,19.5Zm.4-2.1h0c0,.2.3.2.9.3,2.7,0,4.1-.2,4.1-.6l.2-.4h-.1Zm.1,4.1h.6l.2-.2h-.3C497.4,21.3,497.2,21.4,497.2,21.5Zm1.1-2.6.2.2h.2l.8-.3h-.3C498.6,18.7,498.3,18.8,498.3,18.9Zm.6,1.4h1.4c.4,0,.6.1.7.3h0a1.3,1.3,0,0,0-.3.7l.8.2c.1,0,.1-.1.1-.2V19.1h-.1l-2.5,1h-.1Zm.6,21.5h0c0,.8.3,1.2.8,1.2h.3l.2-.3h0a1.9,1.9,0,0,1-.6-1.2h-.6Zm1.6-19v.3h.2v-.9h-.1C501.2,22.2,501.2,22.4,501.1,22.8Zm1.1,21.7c0,.2.5.3,1.6.3s3-.1,3-.3-.6-.4-2-.4S502.3,44.3,502.2,44.5Zm.8-24V22a2,2,0,0,1-.2.9v.4l.2.9v.4a.8.8,0,0,0,.3.7c.1,0,.3-.4.4-1.4s.9-.8.9-1.1a3.2,3.2,0,0,0-.7-1.3c-.1-.7-.3-1-.5-1Zm.9,3.9v.4a1.1,1.1,0,0,1-.5.9.9.9,0,0,1,.3.6c0,2.1.2,3.2.4,3.2h.2a10.6,10.6,0,0,0,.4-2.9q-.1-2.4-.6-2.4H504C503.9,24.2,503.9,24.2,503.9,24.4Zm1.6-3.3v.2a2.9,2.9,0,0,0,1.9-1.1h-.2A3.1,3.1,0,0,0,505.5,21.1Zm.1,3.4v.2c1-.1,2.5-1,4.4-2.7h-.4a4.2,4.2,0,0,0-1.4.8C506.4,23.4,505.6,24,505.6,24.5Zm.4,1.7v.2h.2V26h-.1Zm1.5-.3h0v.2h.3v-.7h-.1Zm1.1-.9h.2c.6-.6,1-1,1-1.3h-.2C509.3,23.7,508.9,24.1,508.6,25Zm.5-5.5h.1q.6-.2.6-.3h-.2C509.3,19.3,509.1,19.4,509.1,19.5Zm1.2-.6v.2c1.9-.5,2.9-.8,2.9-1h-.1a5.2,5.2,0,0,0-2.9.9Zm.3,5.4c.9-.2,1.3-.4,1.3-.7h-.3C511,23.5,510.7,23.7,510.6,24.3Zm2.9-3.5V21h.3c.6-.1.9-.3.9-.4v-.2h-.4C513.7,20.5,513.5,20.6,513.5,20.8Zm.9-3h0a3.7,3.7,0,0,1,1.6.7l.6.2h2.1a.8.8,0,0,0-.7-.3h-.9a4.1,4.1,0,0,0-1.9-.8C514.8,17.5,514.5,17.6,514.4,17.8Zm.1,4.3h.2c.9,0,1.4-.1,1.4-.2l-.5-.2C514.9,21.9,514.5,22,514.5,22.1Zm2.2,1.2v.2h1.6v-.4l-.2-.3h-.3C517.1,23,516.7,23.1,516.7,23.3Zm1.3-2.7c0,.2.3.3,1.1.4a.9.9,0,0,0,.3-.6c0-.2-.4-.3-1-.5A.8.8,0,0,0,518,20.6Zm.5,27.1v.2c0,.2.5.4,1.6.4h.9a3,3,0,0,0-2-.6h-.2Zm.3-3v.4h.4l-.3-.3Zm.1-23.2h.4Zm1.2-1.1a.5.5,0,0,0,.5.3h.4l.2-.2h0c0-.1-.2-.2-.6-.2h-.2Zm.1,1.7v.2a6.8,6.8,0,0,0,.9,1.7c0,.3,0,.5.2.5l.3-.2V24a2.6,2.6,0,0,0-1.2-1.9Zm0,24.2c.2.3.4.5.7.5,2.3-.1,3.4-.2,3.4-.4s-.8-.5-1.6-.5S520.2,46.1,520.2,46.3Zm.7-7.5a2.1,2.1,0,0,1,.3,1.2h.2l.2-.8v-1C521.1,38.2,520.9,38.4,520.9,38.8Zm.3-13.7v.3a21.8,21.8,0,0,0,1,2.9v-1C522,25.9,521.6,25.1,521.2,25.1Zm0,12.7h.2a1,1,0,0,0,.2-.7v-.7h0C521.4,36.5,521.3,36.9,521.2,37.8Zm2.1,4.7v.3l.3.2h0l.2-.2h0l-.2-.3Zm.1-1.1h.1l.2-.7h-.1C523.5,40.7,523.4,40.9,523.4,41.4Zm.1-3.2v.3h.1v-.3Zm.1-4.9h0l.2.8h.3C524.1,33.6,523.9,33.3,523.6,33.3Zm.4-8c0,2.2.3,3.3.6,3.3h.1c-.1-2.2-.4-3.3-.7-3.3Zm1,13.2v2.8h.1a3.2,3.2,0,0,0,.7-1.8h0C525.7,38.8,525.5,38.5,525,38.5Zm1.9,5.4v.2c1.9,0,2.8-.2,2.8-.4v-.2h-.9C527.5,43.6,526.9,43.7,526.9,43.9Zm.6,1.3v.2c0,.2.2.3.5.3s1.1-.2,1.2-.5h0c0-.2-.3-.3-.7-.3h-.3C527.8,44.8,527.6,44.9,527.5,45.2Z" transform="translate(0 0)" style="fill:#b75326"/><path d="M547.6,15.6c1.7,0,3.8.8,6.3,2.2s3.2,2.7,3.2,3.3c1.6,3.5,2.4,5.6,2.4,6.2v.5a10.8,10.8,0,0,0-1,2.9H553l-1.7.2c-6-.5-10.2-.7-12.5-.7h-1.3a4.3,4.3,0,0,0-.8,1.5,4.8,4.8,0,0,1,.5,2.2c0,1.6.2,2.5.7,2.8v.3h0l-.4-.2v.2l.6.6a3.1,3.1,0,0,0,1.1,2c1.3,2.4,2.8,3.9,4.4,4.5a15.8,15.8,0,0,0,4.7.6,5.1,5.1,0,0,0,1.7-.7c.8-.3,2.4-1.6,4.7-4.1h0c0-.1-.3-.2-.8-.3l-.2-.3a7,7,0,0,1,3.5-3.5l2.2,1.7a52.5,52.5,0,0,0,3.7,4.9v.3c-1.4,1.7-2.3,2.5-2.9,2.5h-.2c0-.9-.6-1.4-1.7-1.5a14.7,14.7,0,0,0-2.7,2,15.5,15.5,0,0,1-4.9,2.1,30.9,30.9,0,0,1-5.7.9l-3.5-1.3c-1.9,0-3.8-1.1-5.4-3.2a9.1,9.1,0,0,1-1.8-2.7,42.3,42.3,0,0,0-1.3-5.1,15.5,15.5,0,0,1-.4-3.4h0a21.9,21.9,0,0,1,4.9-14.4,4.4,4.4,0,0,1,2.9-2.3l3.5-.7ZM533.7,31.3h0v.2h0a2.2,2.2,0,0,0-.1.9v.3a4.1,4.1,0,0,0,.6,2h.2C534.4,32.7,534.2,31.6,533.7,31.3Zm0-2.3v.4c0,.2.1.4.2.4s.3-.2.3-.6L534,29Zm.8-3.3a5.4,5.4,0,0,0-.8,2.5h.1c.3,0,.6-.7,1.1-2.2S534.7,25.7,534.5,25.7Zm.1,11h0l.2.2h.1v-.2h-.3Zm.7,1.1h-.1c.2.6.4,1,.7,1h0A1.4,1.4,0,0,0,535.3,37.8Zm1.7-8.2h1.2l-.2-.3h-.2A.9.9,0,0,0,537,29.6Zm.1-7.4h.2Zm0,3.9v.2l.2.2h0a2.7,2.7,0,0,0,.8-.7v-.2h-.3C537.5,25.6,537.3,25.8,537.1,26.1Zm.6-1.6v.2c0,.5,3.8,1,11.2,1.5l.7.2h.7a15.2,15.2,0,0,0,3.4.9c0,.1.1.2.4.3a2.5,2.5,0,0,0,.4-1.1V25.3c0-.6-1.1-1.8-3.2-3.6a5.3,5.3,0,0,0-3.2-1.7l-2-.3c-3.5.7-5.7,1.5-6.8,2.5A10.6,10.6,0,0,1,537.7,24.5Zm.1-1h0a.5.5,0,0,0,.3-.5h0A.5.5,0,0,0,537.8,23.5Zm.2,21.2v.2c0,.3.3.5,1,.7l.3.3h0l-1.1-1.1Zm.4-23.9V21h.1c.6-.2.8-.3.8-.5H539C538.8,20.4,538.6,20.6,538.4,20.8Zm.3,8.4v.4h.3v-.3h-.3Zm.7-11.3h0l.2.2h.1c.8-.2,1.2-.4,1.2-.7v-.3l-.2-.3h-.2C539.8,17.2,539.4,17.5,539.4,17.9Zm.8,10.7v.2a48.2,48.2,0,0,0,6.6.5h-1.3c0,.2.6.3,1.6.3s2.6-.1,2.6-.3S546.5,28.8,540.2,28.6Zm.7-2.1v.2a8.3,8.3,0,0,0,4.2.8h1.4v-.3Zm.1-6.1a9.5,9.5,0,0,1,2.5-1h-.7Q541,19.5,541,20.4Zm.9-3.4h.1a14.1,14.1,0,0,0,3.7-.7q.6-.2.6-.3h-.2a11.7,11.7,0,0,0-4.1.9h-.1Zm.5,27.9h0c0,.2.4.4,1.3.6h.1l-1.3-.5Zm2.2-26.6h0c0,.2.8.4,2.5.7h.1v-.2a1.8,1.8,0,0,0-1.6-.8h-.3C544.8,18,544.6,18.1,544.6,18.3Zm1.3,27.3v.2h.2v-.2Zm2.3,1.6h-1.5c-.4,0-.6,0-.6.2h0l.2.2h1.1a19.3,19.3,0,0,0,4.5-.6h0c-.1-.2-.3-.3-.7-.3h-.3A6,6,0,0,0,548.2,47.2Zm-1.1-29.9v.2a6.7,6.7,0,0,0,2.5.4h.1v-.2c0-.1-.3-.2-.8-.3Zm1.2,1.4h0a22.8,22.8,0,0,0,3.8,2h.1l.6-.2h.4l-1-.4-1.3-.5a1.9,1.9,0,0,0-2-1.1h-.1C548.5,18.5,548.3,18.5,548.3,18.7Zm3.7,9.4v.2h.2v-.2Zm.1,1.7c0,.1.3.2,1,.2h.6q0-.3-1.2-.3C552.2,29.6,552.1,29.7,552.1,29.8Zm0,14.1h.1a1.3,1.3,0,0,0,.5-.7h0C552.3,43.4,552.1,43.6,552.1,43.9Zm.4,2.7c.4,0,.8-.3,1-1h-.2C552.8,46,552.5,46.3,552.5,46.6Zm.6-24.9a.7.7,0,0,0,.6.5h.1l.2-.2v-.4l-.3-.3C553.3,21.3,553.1,21.4,553.1,21.7Zm.9,20.2h.1c.5,0,.7-.3.9-.8h0C554.5,41.1,554.2,41.3,554,41.9Zm.5-19.4c.4,1.3.7,2.1,1,2.2h.3c-.3-1.3-.6-2-1-2h-.3Zm.9,15.9h.4c.3,0,.4-.1.4-.2L556,38h-.1A.5.5,0,0,0,555.4,38.4Zm.3,5.8h.2q.6-.6.6-.9h0C556,43.5,555.7,43.8,555.7,44.2Zm.9-18.8v.4l.2.2c.2,0,.3-.2.3-.4v-.2h-.5Zm.3,17v.2c.7-.2,1-.5,1-.8h-.1C557.3,41.7,556.9,41.9,556.9,42.4Zm1.4-.6h.2a.5.5,0,0,0,.4-.6h-.2A.7.7,0,0,0,558.3,41.8Zm2.2-.6h-.1c.1.5.3.8.5.8h.1v-.2h0Q561,41.2,560.5,41.2Z" transform="translate(0 0)" style="fill:#b75326"/><path d="M587.7,17.8c1.6,0,3,1.2,4.1,3.4.2,0,.5.3.9.8l.8,4.6c-.4.5-1.5.7-3.3.7h-.6c-1.6-.2-2.3-.7-2.3-1.5a4.4,4.4,0,0,0-1.4-2.4c-.2-.2-1-.3-2.7-.3a17.1,17.1,0,0,0-5.7,1.2,25.8,25.8,0,0,0-3.1,3.9c.3,7.4.4,11.9.3,13.2s.3.6.8.6H577c.7,0,1,.1,1,.3h0l.2.8v3.4l-.4.5-2.9.3h-.2l-1.3.4c-4.7-.2-7.1-.3-7.1-.6s-1.2-.3-1.2-1.1a14.2,14.2,0,0,1-.1-2.3c0-.7.8-1.3,2.4-1.5,0-.4.5-.5,1.6-.5h.2l-.4-16.9c0-1-.2-1.5-.7-1.5h-.4a8.6,8.6,0,0,0-2.5.6H565c0-.1.2-.2.5-.3h0c-.4,0-.6-1.2-.6-3.5-.1,0-.2-.4-.2-1.1a8.3,8.3,0,0,1,5.1-1.9h1.6a15.4,15.4,0,0,1,3.1.6v.2a2.2,2.2,0,0,0-.6,1.2v.4C577.3,17.6,581.9,17.2,587.7,17.8ZM565.7,45l-.2.2v.3h.4v-.4Zm.6-25.9a1.4,1.4,0,0,0,1.1.4h0V19l-.3-.3C566.6,18.8,566.3,18.9,566.3,19.1Zm.7,26.8h0q0,.3,1.8.3h2.3c0-.2-1.1-.3-3.3-.4Zm.3-24.4h.2c.4,0,.6-.1.7-.3H568C567.6,21.2,567.3,21.3,567.3,21.5Zm0,23.5h3.5v-.2h-3.4Zm1.6-27.2v.3l.4.4h.5l-.7-.6Zm2.6,9.3v.4a2.5,2.5,0,0,1,.3,1.3c0,.2-.1,1-.2,2.5l.2,2.5h0c.2,0,.4-1.9.5-5.7.1,0,.2-.4.2-1.3s-.2-.6-.3-.6H572A1.1,1.1,0,0,0,571.5,27.1Zm.5-3.2-.3,1.2a.8.8,0,0,0,.4.7h.1q.1,0,.3-.9l-.3-1Zm.6,21.4v.2h.9l.3-.3c0-.1-.1-.2-.3-.2S572.6,45.1,572.6,45.3Zm.4-26.1h0v.2l.3-.3V19h-.2Zm.1-1.2v.3h.3l.2-.2h-.5Zm0,20.7v.5h.2l.3-.3v-.3l-.2-.2h-.1Zm.1,1.2v.2h.1v-.2Zm1.1-18v.2l.2.2h.2l.2-.2v-.2h-.6Zm4.3-1.4h0c.3,0,.8-.6,1.4-1.8v-.3h-.1A1.6,1.6,0,0,0,578.6,20.5Zm2.3-1.4.2,1.3h.6V18.9h-.2C581,18.9,580.9,19,580.9,19.1Zm1.4-.4h0l.2.2h.6a.6.6,0,0,0,.5-.2h-1.3Zm2-.2v.2h.4l.3-.3h-.2C584.5,18.3,584.3,18.4,584.3,18.5Zm1.6.4h.3v-.2h-.2Zm.6,3.6h.2c.3-.1.7-.6,1.3-1.5h-.3a1.3,1.3,0,0,0-1,1.3C586.6,22.1,586.5,22.2,586.5,22.5Zm1.7,1.6v.2h.1l.3-.3h-.1Zm.1-5.4h0v.2h.3v-.2h0v-.2h-.3Zm1.9,2v.2a1,1,0,0,0,.8.5h.1v-.2a1,1,0,0,0-.8-.5Z" transform="translate(0 0)" style="fill:#b75326"/><path d="M622,0a7.6,7.6,0,0,1,2.6.7c.1,0,.1.6.2,1.9a1.6,1.6,0,0,1,.7,1c-.2,2-.4,6-.6,12.1-.1,0-.1.2-.1.6s-.5.4-.5.7v.9a8.8,8.8,0,0,1-.6,2.9v.9c0,.2.3.3.7.4v.4c-.6,5.2-.9,8.7-.9,10.3s-.1,2.8-.4,2.8h0c.2,0,.4.3.5.8v.7c0,.7-.3,2.6-.8,5.6v1.5c2.1.4,3.1,1,3.1,1.7l-.3.4V47l.3.4h0c-.3.9-1.5,1.4-3.5,1.4h-.4l-.3-.6h-.7l-1.6.4h-2.4a10.5,10.5,0,0,1-.5-3.1v-2a5.8,5.8,0,0,0-2.5,1.4,24.9,24.9,0,0,1-9,3,14.8,14.8,0,0,1-6.5-3.5,14.6,14.6,0,0,1-1.9-2.9,5.6,5.6,0,0,1-1.1-1.9v-.2h.1a6.9,6.9,0,0,1,1.6,2.1h.3v-.8a5.5,5.5,0,0,0-1.2-3h-.4c-.2,0-.3.4-.4,1.1h-.2v-.3a28.4,28.4,0,0,1,.3-3.1h.3v.6h.1a.8.8,0,0,0,.3-.7V33.8c-.2,0-.2.2-.3.6l-.3.4c-.1,0-.1-.2-.2-.5a20.4,20.4,0,0,1,3-9.9,24.5,24.5,0,0,1,2.9-4c1.3-1.2,3.4-1.7,6.2-1.7h.6a16.3,16.3,0,0,1,10.7,3.4l.4.2h.2c.4-1.8.7-6.4,1.1-13.8.2-.3.3-.4.5-.4h0a7.5,7.5,0,0,0-2.7-1.3c-.4,0-.7-1.4-.7-4.2,0-.1.4-.2,1-.3h0c-.1-.2-.2-.3-.6-.3s-.2-.3-.2-.5.5-.6,1.4-.6V.5L619,.2h3ZM598,32.8c0,.1.1.2.3.2s.4-.4.6-1.3v-.3h-.2C598.5,31.4,598.2,31.9,598,32.8Zm.7-5.5v.2h.2c.2-.1.4-.5.8-1.5s2.1-2.5,2.5-2.5l.2-.5H602a6.1,6.1,0,0,0-2,1.3A7.3,7.3,0,0,0,598.7,27.3Zm.3,15.8h0c0,.3.6.4,1.9.6v-.2l-1.7-.6Zm.1-7.2v.9c0,.6.7,2.3,2.3,5a8.1,8.1,0,0,0,3.7.9,18.5,18.5,0,0,0,8.3-2c1.1-1.7,2.1-2.5,2.9-2.5s.9-2.1,1.5-4.7a5.2,5.2,0,0,0,.5-2.3v-.6c0-1.7-.3-2.6-.7-2.6a6,6,0,0,1-1.4-1.5l.2-.4c0-.2-.6-.4-1.8-.7l-.4-.3h1c0-.4-2.2-.7-6.7-.7l-.9-.2c-3.3.3-4.9.7-4.9,1.3a14.3,14.3,0,0,0-3,6.6A16.1,16.1,0,0,0,599.1,35.9Zm1.3,8.3c0,.4,1.3.9,3.7,1.3h.4c0-.3-1.2-.8-3.6-1.3h-.3Zm1-22v.2h.4c1.4-.4,2.1-.8,2.1-1.4s-.2-.2-.6-.2H603C602.4,20.9,601.9,21.3,601.4,22.2Zm2.9,24.4v.2h.9a13.7,13.7,0,0,0,2.9-.4h0l-1.8-.2C604.9,46.2,604.3,46.4,604.3,46.6Zm1.1-26.1v.3l.2.2h.3l.3-.3v-.2l-.2-.2h-.4Zm.1,3h0Zm1.4,19.9v.2h.8q4-.3,4.5-1.2v-.2H612C608.8,42.8,607.2,43.1,606.9,43.4Zm.6-20.3h.2Zm.9,21.7h.6c1.3,0,1.9-.2,1.9-.4h-1.3Q608.4,44.5,608.4,44.8Zm.4-21.1h.3l1.3-.2H610Q608.8,23.4,608.8,23.7Zm.4-2.7H612c-.1-.3-.7-.4-1.9-.5h-.6A.5.5,0,0,0,609.2,21Zm2.8,2.5.2.3h.3l.2-.2-.5-.2H612Zm1.1,19.1v.2h0a1.8,1.8,0,0,0,1-.7v-.2h-.2A1.5,1.5,0,0,0,613.1,42.6Zm.7-21h-.1v.2l1.9.6h.1c0-.4-.4-.7-1-.9Zm.9,1.9.2.2.2-.2h-.4Zm.9.4c0,.1.6.4,1.8.7h.1v-.2a1.3,1.3,0,0,0-1.2-.5Zm1.2,2.4v.5l.4.3h.1c.2,0,.3-.2.3-.4a.5.5,0,0,0-.4-.6h-.1Zm.9,15.8v.3c.3,0,.4.2.4.6h.1l.3-.3v-.5c-.2-.1-.2-.3-.2-.6H618A.5.5,0,0,0,617.7,42.1Zm.1,2.4h.2l.2-.2H618Zm1.4-40.1v.2h.4c.3,0,.4,0,.4-.2V4.2h-.6Zm.1-1.5h.7V2.7h-.5Zm1.1,19c0,.3.1.6.3.6h.1v-.5Zm.5-17.4h.2c.9,0,1.4-.1,1.4-.3l-.2-.2h-.8A.5.5,0,0,0,620.9,4.5Zm.1,38v1.3l.2.2h.1v-.8a1,1,0,0,0-.2-.7Zm.2,2.2v.2h.4v-.2Zm1.2,2a1,1,0,0,0,.7.2h1.6c0-.2-.2-.3-.7-.3S622.4,46.5,622.4,46.7Zm.3-43.2h.1Zm1.3,17h.3v.3H624Z" transform="translate(0 0)" style="fill:#b75326"/><path d="M642.5,15.6c1.7,0,3.8.8,6.3,2.2s3.2,2.7,3.2,3.3c1.6,3.5,2.4,5.6,2.4,6.2v.5a8,8,0,0,0-1,2.9h-5.6l-1.8.2c-5.9-.5-10.1-.7-12.4-.7h-1.3a4.3,4.3,0,0,0-.8,1.5,4.8,4.8,0,0,1,.5,2.2c0,1.6.2,2.5.7,2.8v.3h0l-.4-.2v.2l.6.6a2.7,2.7,0,0,0,1.1,2c1.3,2.4,2.8,3.9,4.4,4.5a15.8,15.8,0,0,0,4.7.6,5.1,5.1,0,0,0,1.7-.7c.8-.3,2.3-1.6,4.7-4.1h0c0-.1-.3-.2-.8-.3l-.2-.3a7,7,0,0,1,3.5-3.5l2.2,1.7a52.5,52.5,0,0,0,3.7,4.9v.3c-1.4,1.7-2.3,2.5-2.9,2.5H655c0-.9-.6-1.4-1.7-1.5a14.7,14.7,0,0,0-2.7,2,15.5,15.5,0,0,1-4.9,2.1,33.5,33.5,0,0,1-5.7.9l-3.5-1.3c-2,0-3.8-1.1-5.4-3.2a9.1,9.1,0,0,1-1.8-2.7,42.3,42.3,0,0,0-1.3-5.1,15.5,15.5,0,0,1-.4-3.4h0a21.9,21.9,0,0,1,4.9-14.4,4.4,4.4,0,0,1,2.8-2.3l3.6-.7ZM628.6,31.3h0v.2h0a2.2,2.2,0,0,0-.1.9v.3a4.1,4.1,0,0,0,.6,2h.2C629.3,32.7,629,31.6,628.6,31.3Zm0-2.3v.4c0,.2.1.4.2.4s.3-.2.3-.6l-.2-.2Zm.8-3.3a5.4,5.4,0,0,0-.8,2.5h.1c.3,0,.6-.7,1.1-2.2S629.6,25.7,629.4,25.7Zm.1,11h0l.2.2h.1v-.2h-.3Zm.6,1.1h0c.2.6.4,1,.7,1h0A1.3,1.3,0,0,0,630.1,37.8Zm1.8-8.2h1.2l-.2-.3h-.2A.9.9,0,0,0,631.9,29.6Zm.1-7.4h.1Zm0,3.9v.4h.1a1.6,1.6,0,0,0,.7-.7v-.2h-.2C632.4,25.6,632.2,25.8,632,26.1Zm.6-1.6v.2c0,.5,3.8,1,11.2,1.5l.7.2h.7a16.5,16.5,0,0,0,3.3.9c0,.1.2.2.4.3a1.8,1.8,0,0,0,.5-1.1V25.3c0-.6-1.1-1.8-3.2-3.6A5.6,5.6,0,0,0,643,20l-2.1-.3c-3.4.7-5.6,1.5-6.7,2.5A10.6,10.6,0,0,1,632.6,24.5Zm.1-1h0a.5.5,0,0,0,.3-.5h0A.5.5,0,0,0,632.7,23.5Zm.2,21.2v.2c0,.3.3.5,1,.7l.3.3h0a5.3,5.3,0,0,0-1.1-1.1Zm.4-23.9V21h.1c.5-.2.8-.3.8-.5h-.3A.8.8,0,0,0,633.3,20.8Zm.3,8.4v.4h.3v-.3h-.3Zm.7-11.3h0l.2.2h0c.9-.2,1.3-.4,1.3-.7v-.3l-.2-.3h-.2C634.7,17.2,634.3,17.5,634.3,17.9Zm.8,10.7v.2a48.2,48.2,0,0,0,6.6.5h-1.3c0,.2.5.3,1.6.3s2.6-.1,2.6-.3S641.4,28.8,635.1,28.6Zm.6-2.1v.2a8.8,8.8,0,0,0,4.3.8h1.3v-.3A53.2,53.2,0,0,0,635.7,26.5Zm.2-6.1a9.5,9.5,0,0,1,2.5-1h-.7Q635.9,19.5,635.9,20.4Zm.9-3.4h.1a14.1,14.1,0,0,0,3.7-.7q.6-.2.6-.3h-.3a11.3,11.3,0,0,0-4,.9h-.1Zm.5,27.9h0c0,.2.4.4,1.3.6h.1a3.9,3.9,0,0,0-1.4-.5Zm2.2-26.6h0c0,.2.8.4,2.5.7h.1v-.2a1.8,1.8,0,0,0-1.6-.8h-.3C639.7,18,639.5,18.1,639.5,18.3Zm1.3,27.3v.2h.2v-.2Zm2.3,1.6h-1.5c-.4,0-.6,0-.7.2h0l.3.2h1.1a19.9,19.9,0,0,0,4.5-.6h0c-.1-.2-.3-.3-.7-.3h-.4A5.8,5.8,0,0,0,643.1,47.2ZM642,17.3v.2a6.1,6.1,0,0,0,2.5.4h.1v-.2c0-.1-.3-.2-.8-.3Zm1.2,1.4h0a22.8,22.8,0,0,0,3.8,2h.1l.6-.2h.4l-1-.4-1.3-.5a1.9,1.9,0,0,0-2-1.1h-.1C643.4,18.5,643.2,18.5,643.2,18.7Zm3.7,9.4v.2h.2v-.2Zm0,1.7c0,.1.4.2,1.1.2h.6q0-.3-1.2-.3C647.1,29.6,646.9,29.7,646.9,29.8Zm0,14.1h.2a1.3,1.3,0,0,0,.5-.7h0C647.2,43.4,646.9,43.6,646.9,43.9Zm.5,2.7c.4,0,.7-.3,1-1h-.2C647.7,46,647.4,46.3,647.4,46.6Zm.6-24.9a.6.6,0,0,0,.6.5h.1l.2-.2v-.4l-.4-.3C648.2,21.3,648,21.4,648,21.7Zm.9,20.2h.1c.5,0,.7-.3.9-.8h0C649.4,41.1,649.1,41.3,648.9,41.9Zm.5-19.4c.4,1.3.7,2.1,1,2.2h.3c-.3-1.3-.7-2-1-2h-.3Zm.9,15.9h.4c.3,0,.4-.1.4-.2l-.2-.3h-.1A.5.5,0,0,0,650.3,38.4Zm.3,5.8h.2q.6-.6.6-.9h0C650.8,43.5,650.6,43.8,650.6,44.2Zm.9-18.8v.4l.2.2c.2,0,.3-.2.3-.4v-.2h-.5Zm.3,17v.2c.7-.2,1-.5,1-.8h-.1C652.2,41.7,651.8,41.9,651.8,42.4Zm1.4-.6h.2a.5.5,0,0,0,.4-.6h-.2A.7.7,0,0,0,653.2,41.8Zm2.2-.6h-.1c.1.5.3.8.5.8h.1v-.2h0Q655.8,41.2,655.4,41.2Z" transform="translate(0 0)" style="fill:#b75326"/><path d="M682.6,17.8c1.6,0,3,1.2,4.1,3.4.2,0,.5.3.8.8l.9,4.6c-.4.5-1.5.7-3.3.7h-.6c-1.6-.2-2.3-.7-2.3-1.5a4.1,4.1,0,0,0-1.5-2.4c-.1-.2-1-.3-2.6-.3a17.1,17.1,0,0,0-5.7,1.2,20.7,20.7,0,0,0-3.1,3.9c.3,7.4.4,11.9.3,13.2s.3.6.8.6h1.5c.6,0,1,.1,1,.3h0l.2.8v3.4l-.4.5-2.9.3h-.3l-1.2.4c-4.7-.2-7.1-.3-7.1-.6s-1.2-.3-1.2-1.1a14.2,14.2,0,0,1-.1-2.3c0-.7.8-1.3,2.4-1.5,0-.4.5-.5,1.6-.5h.2l-.4-16.9c0-1-.2-1.5-.7-1.5h-.4a8.6,8.6,0,0,0-2.5.6h-.1c0-.1.2-.2.5-.3h0c-.4,0-.6-1.2-.6-3.5-.1,0-.2-.4-.2-1.1a8.3,8.3,0,0,1,5.1-1.9h1.6a15.4,15.4,0,0,1,3.1.6v.2a2.2,2.2,0,0,0-.6,1.2v.4C672.2,17.6,676.8,17.2,682.6,17.8ZM660.6,45l-.2.2v.3h.4v-.4Zm.6-25.9a1.3,1.3,0,0,0,1,.4h.1V19l-.3-.3C661.5,18.8,661.2,18.9,661.2,19.1Zm.7,26.8h0q0,.3,1.8.3H666c0-.2-1.1-.3-3.3-.4Zm.3-24.4h.2c.4,0,.6-.1.7-.3h-.2C662.5,21.2,662.2,21.3,662.2,21.5Zm0,23.5h3.5v-.2h-3.4Zm1.6-27.2v.3l.4.4h.5l-.7-.6Zm2.6,9.3v.4a2.5,2.5,0,0,1,.3,1.3,17.2,17.2,0,0,0-.2,2.5l.2,2.5h0c.2,0,.4-1.9.5-5.7.1,0,.2-.4.2-1.3s-.2-.6-.4-.6h-.1A1.1,1.1,0,0,0,666.4,27.1Zm.5-3.2-.3,1.2a.8.8,0,0,0,.4.7h0c.2,0,.3-.3.4-.9l-.3-1Zm.5,21.4.2.2h.9l.3-.3c0-.1-.1-.2-.3-.2S667.4,45.1,667.4,45.3Zm.4-26.1h0l.2.2.2-.3V19h-.1ZM668,18v.3h.2l.3-.2H668Zm0,20.7v.5h.2l.3-.3v-.3l-.2-.2h-.1Zm.1,1.2v.2h.1v-.2Zm1.1-18v.2l.2.2h.2l.2-.2v-.2h-.6Zm4.3-1.4h0c.3,0,.8-.6,1.4-1.8v-.3h-.1A1.6,1.6,0,0,0,673.5,20.5Zm2.3-1.4.2,1.3h.6V18.9h-.2C675.9,18.9,675.8,19,675.8,19.1Zm1.4-.4h0l.2.2h.6a.6.6,0,0,0,.5-.2h-1.3Zm2-.2v.2h.4l.3-.3h-.2C679.4,18.3,679.2,18.4,679.2,18.5Zm1.6.4h.3v-.2H681Zm.6,3.6h.2c.3-.1.7-.6,1.3-1.5h-.3c-.7.3-1.1.7-1.1,1.3A.6.6,0,0,0,681.4,22.5Zm1.7,1.6v.2h.1l.3-.3h-.1Zm0-5.4h0l.2.2h.2l.2-.2h0l-.2-.2h-.2Zm2,2v.2a1,1,0,0,0,.8.5h.1v-.2a1,1,0,0,0-.8-.5Z" transform="translate(0 0)" style="fill:#b75326"/><path d="M700.9,18c.6,2.7.5,4,0,4s.1,2.4,2.2,7.1c.9,2.4,1.6,4,2.1,5,1.2,2.9,2,4.3,2.4,4.3s.3.3.6.8h.7c.5,0,1.3-1.8,2.3-5.3,4.3-8,5.4-11.7,3.2-11.3a20.2,20.2,0,0,0,.1-4.2l.3-.2q8.1.1,8.1.6c.2,0,.3,1,.3,3.2s-.7,1.8-1.1,1.8-1,0-.5.2h-.4c-1.6,2.7-2.4,4.5-2.4,5.3a9.1,9.1,0,0,1-2,4.2,63.1,63.1,0,0,1-2.9,7.6c-.3.3-.5,1.4-.9,3.2l-2.6,4.4a37.5,37.5,0,0,1-5.3,8.3l-3,2a13.5,13.5,0,0,1-2.9.5c-3.1,0-4.6-.3-4.6-.9a3,3,0,0,1-.8-1.8c-.5-.5-1.3-2.7-2.3-6.5h0c0-.5.5-.7,1.3-.7a10.4,10.4,0,0,0,3.7-1.1c.5,0,1.3,1.9,2.2,5.7.3.8.5,1.3.7,1.3h.5c.4-.2.7-.6,1-1.5s1-1.1,2.4-3.2a41.3,41.3,0,0,1,2-3.7l.2-.7V45.3a6.5,6.5,0,0,0-1.3-2.8,29.5,29.5,0,0,1-2-4,87,87,0,0,0-6.6-14.4.6.6,0,0,0-.5-.2h-4V21.8l-.2-2.7,1.1-.4,6.1-.6h1.2Zm-9.2,4.1h-.1v.5l.3.2h.8c.9,0,1.3-.1,1.3-.3S693.2,22.2,691.7,22.1Zm2.6,28.7a2.6,2.6,0,0,1,.5,1.2l.5.5h.3v-.3a1.8,1.8,0,0,0-.9-1.5h-.3Zm1.3,2.9h0a1,1,0,0,0,.5,1v-.2h0a1,1,0,0,0-.5-.8Zm1.3,2.3h0l.3.4h.6l.2-.2c0-.2-.3-.3-.7-.3Zm.3-33.2a3.2,3.2,0,0,0,.9,2h.1v-.7c0-.7-.2-1.2-.6-1.4h-.4Zm.8,35a.9.9,0,0,0,.9.5h.8l.2-.2h0c0-.1-.3-.2-.8-.3H698Zm2.3-.7,1.1.8h.3c.1,0,.2-.2.2-.5v-.3a.5.5,0,0,0-.4-.2h-.6C700.5,56.9,700.3,57,700.3,57.1Zm2.2-21v.2h.4l-.2-.2Zm0,18.4h0c.4,0,.9-.5,1.3-1.5h-.1A3.1,3.1,0,0,0,702.5,54.5Zm.4-21h0c.9,2.4,1.4,3.6,1.6,3.6h.1c-.8-2.4-1.3-3.6-1.6-3.6Zm.6,23.1h.1c1.1-.6,1.8-1.1,2-1.8l-.5-.2h-.2c-.4,0-.7.4-.9,1.1Zm.9-18.9h0l.4.3c.1,0,.1,0,.1-.2s-.2-.4-.3-.4h0Zm2.4,7.5h0a.5.5,0,0,0,.5-.5v-.4h-.2C706.9,44.5,706.8,44.8,706.8,45.2ZM708,50v.2a1,1,0,0,0,.6-.9h-.2Zm1.1-2.9h.3c.3,0,.9-1,1.7-3.1h0C710.6,44,709.9,45.1,709.1,47.1Zm.6-4h.3c.6,0,1.5-2,2.6-5.9,0-.1.2-.3.6-.7a.8.8,0,0,1,.3-.7h0l-.2-.4-2.1,3.9q-.3.9-1.5,3.6Zm4.1-4.2h.1c.7,0,1.2-1.5,1.6-4.6h0c-.2,0-.4.5-.7,1.5A16.8,16.8,0,0,0,713.8,38.9Zm2-19.3,1.5.7.9-.2h1.1V20q0-.2-1.2-.3h-.9c-.4,0-.6.1-.6.2Zm2.7,5.8a51.7,51.7,0,0,1-2.6,4.9v.4a4.5,4.5,0,0,0,.5.9l-.4,1.2h.1a26.6,26.6,0,0,0,2.5-6.4v-1Zm.1-1.8v.3h.3v-.3Zm.4-2v.3a.8.8,0,0,0,.7.4h.1v-.3l-.4-.4H719Zm1.1.2h0l.2.3h.1c1.4-.4,2.1-.6,2.1-.8h0l-.2-.2h-.2C720.8,21.3,720.2,21.5,720.1,21.8Zm.7-2h0l.4.3h1.1v-.2a.6.6,0,0,0-.5-.2H721Z" transform="translate(0 0)" style="fill:#b75326"/><path d="M731.6,39.3c.8.3,2,1.4,3.4,3.3v.2c0,.5-1.1,1.8-3.4,3.7h0l.9.2h0l-.9.2a7.2,7.2,0,0,1-4-1.8,3.1,3.1,0,0,1-.8-1.8c0-1.8,1.2-3,3.5-3.9Zm.1-37.1h.4A3.7,3.7,0,0,1,735,3.5V8.7l.4,8.2a23.7,23.7,0,0,1-.8,6.6v1.1l.2.7-.3,1.2v.9a4.5,4.5,0,0,0,.3,1.8c-.1,1-.2,1.5-.4,1.5h-.1l-.5-.2a15.5,15.5,0,0,0-2.4,1.6h.1c1.8-.2,2.7-.4,2.7-.7h.3l.3.3q0,.9-5.1,1.5a.5.5,0,0,1-.5-.3c0-.3.3-.5.8-.6h.2c0-.1-.2-.3-.7-.5v-.5c0-.1.3-.3.8-.5a1.3,1.3,0,0,0,.4-.7h0c0-.2-.5-.3-1.4-.4s-.5-5-.7-15.1a51.8,51.8,0,0,1-.3-6.3V6.4a2.1,2.1,0,0,1,1-1.7l-.7-1c0-.2.2-.4.7-.5h0V2.9h0C729.1,2.4,730,2.2,731.7,2.2Zm-2.9,40.6.2.3v-.7H729C728.8,42.4,728.8,42.5,728.8,42.8Zm.3-34.2h0V9.9h.2V9.2Q729.3,8.6,729.1,8.6Zm0,2.1v3.6h.2a7.9,7.9,0,0,0,.3-2.1l-.3-1.5h-.3Zm.1,4.4v.4h.2l.2-.3V15h-.3Zm.6-11.6v.2h.6V3.5h-.6Zm.3,19.4-.2.4v2.9c.1.6.1.9.3.9a1.9,1.9,0,0,0,1-1.4v-.2c0-.1-.2-.2-.5-.3a4.1,4.1,0,0,1-.2-1.7v-.3h-.1C730.2,23,730.2,22.9,730.1,22.9Zm.1,5.2h.2c.2,0,.3-.2.3-.5h-.2Q730.3,27.5,730.2,28.1Zm.5,14.3v.2h.3c.5,0,.8-.1.8-.3l-.2-.2h-.4C730.8,42.2,730.7,42.3,730.7,42.4Zm.2-26.5h0v.2h.3v-.5h-.1Zm.1,3v.2h.1c.1,0,.2-.3.2-1V16.8C731.2,16.8,731,17.5,731,18.9Zm.1,22.1c0,.2.4.3,1.3.4h.1v-.2c0-.1-.3-.3-.9-.4h-.3Zm.4-15.7v.3h.1l.2-.2v-.3h-.2Zm0,18.3h0v.2h.2l.2-.3h0v-.2h-.2ZM732.1,7H732v3.8c0,1.3.2,1.9.4,1.9h.1V10.1a1.9,1.9,0,0,1,.4-1.2h0c-.3,0-.5-.6-.5-1.7h-.1Zm0-.8H732l.2.3h.1l.2-.2h-.4Zm.7,22.7v.3h.1a1,1,0,0,0,1.2-.9v-.2l-.2-.2h-.1C733.6,27.9,733.3,28.2,732.8,28.9Zm.1-14.8v.4l.2.2h.2V13.6h-.1C733,13.6,732.9,13.8,732.9,14.1Zm.3-9.5v.2c0,.4.1.6.3.7h.1c.2,0,.3-.3.4-1s-.1-.4-.3-.4S733.2,4.3,733.2,4.6Zm.2,12.5v.4h.2l.2-.2v-.2Z" transform="translate(0 0)" style="fill:#231f20"/></g></g></svg>