<svg xmlns="http://www.w3.org/2000/svg" viewBox="0 0 264.1 64.9"><title>icn_rotator_Asset 54_adj</title><g id="Layer_2" data-name="Layer 2"><g id="Layer_1-2" data-name="Layer 1"><path d="M3.1,14.8a2,2,0,0,0,1.3.4l.7-.3c5.6,0,8.4.1,8.4.5v1.4a6.9,6.9,0,0,1,.5,2.4v1c-.4,5.7-.7,11.1-.9,16.3a2.3,2.3,0,0,0-.3,1.3.6.6,0,0,0,.6.3h.2c2.2,0,3.3.2,3.3.7h-.1v.4a11,11,0,0,1,.8,4.7l.2,2.5H8.8c-4.6,0-6.9-.3-6.9-1.1a3.5,3.5,0,0,0-.3-1.3,1.3,1.3,0,0,1,.6-.7h.1a.7.7,0,0,0,.6.2H3l4.3-.3h0c-3.5-.2-5.3-.5-5.3-.8V41.3l-.2-1.5c0-.5,1.5-.7,4.6-.7.5,0,.7-.9.7-2.7l.7-16.3H7.7c-1.5,0-2.1-.1-1.6-.4-2.5,0-3.7-.3-3.7-.9s-.2-.2-.2-.5l.3-.7a.7.7,0,0,0-.4-.6h0a3.2,3.2,0,0,0,.7-2h.3Zm.1,26.5h0q.4.6,3.9.6h.4q.6,0,.6-.3h0a34,34,0,0,0-4.5-.3Zm.7-25.2v.2h.3c1.1,0,1.6-.1,1.6-.3H5.5C4.4,15.9,3.9,15.9,3.9,16.1Zm.2.9h0c0,.1.3.2.9.2H7.9c.6,0,.9-.1.9-.2h0c0-.3-1.2-.3-3.6-.1ZM11.4,2.7a4.1,4.1,0,0,1,3.5,2.2L15.3,7a10.4,10.4,0,0,1-1.4,3,3.6,3.6,0,0,1-2.5.8q-3.9,0-4.8-1.2a5.7,5.7,0,0,1-.9-3.4A.2.2,0,0,1,5.5,6h0C6.7,4,8,3,9.3,3ZM8.1,4.6h0a5.3,5.3,0,0,0,2.1-.5l-.3-.2C8.7,4.1,8.1,4.3,8.1,4.6Zm.3,29.7c.1.3.1.5.2.5s.2-.2.2-.6v-1a7.7,7.7,0,0,0,.7-2.4v-.4l-.2-.9c.3-.1.4-.3.4-.4a7.8,7.8,0,0,1-.2-1.4h0a51.6,51.6,0,0,0,.5-6.9c-.1-.4-.2-.5-.3-.5H9.6c-.5,0-.9,2-1,6.1Zm1.3,9.3H8.8v.2h2.7v-.2H9.7ZM9.2,6.3h.4c.6,0,.9-.1,1-.5H9.8c-.4,0-.6.1-.6.4ZM9.4,42l.2.2h.1a.5.5,0,0,0,.6-.6H10A.7.7,0,0,0,9.4,42Zm.6-4.1v.3h.3l.2-.2h0v-.2h-.1Zm.1-1.1v.4h.2c.2-.1.3-.3.3-.8V36h-.2C10.3,36,10.2,36.3,10.1,36.8Zm.1-19.9v.2a1.8,1.8,0,0,1,1,.6h.1c.2,0,.2-.1.2-.2h.1c.1,0,.2.2.4.6h.1l.8-.7v-.3H10.2Zm.3,3.5.3,1-.4,1c.2.5.3.7.4.7h.1v-.8c0-1.5.2-2.3.6-2.3l.2-.2v-.3h-.5C10.8,19.4,10.5,19.8,10.5,20.4ZM11,30.9a19.3,19.3,0,0,0-.5,3.5h.1c.2,0,.4-.9.7-2.6v-.9ZM10.6,9.1v.2h1l.2-.2H10.6ZM11.3,21v.3a.5.5,0,0,0,.3.5h.2l.3-.2v-.3a1,1,0,0,0-.5-.4Zm.8-13.2V8h.3a.8.8,0,0,0,.7-.4V7.4h-.2A1,1,0,0,0,12.1,7.8Zm0,8,.3.2h.1v-.2l-.2-.2Zm1.3-9.7v.2h.1l.2-.2V5.9h-.1Zm1.3,35.8c.1.5.4.8,1.1.8H16v-.4l.5-.3v-.4a.5.5,0,0,0-.3-.5h-.2c-.1,0-.3.2-.4.6Zm.3-2.7a3.3,3.3,0,0,0,1.3.4v-.2c0-.1-.2-.2-.7-.3H15Zm.1,4.2h.1l.2-.2h-.1Zm1.5,2.5H17v-.2h-.1Z" transform="translate(-1.6 0)" style="fill:#b75326"/><path d="M29.6,15.1c.5.1.7.2.7.3l-.2.4h3.2q5.4,0,7.2,2.7l1.6,2.2h.2a56.6,56.6,0,0,0,7-3.3,3,3,0,0,1,1.4-.4A9.3,9.3,0,0,1,56,18.9c3.5,2.8,5.2,5.2,5.2,7s1,5,1.9,12.7v1.7q0,.6.3.6h.2a5.1,5.1,0,0,0,2-.5c.7,0,1.1,1.2,1.1,3.6v2.8h-.8a31.7,31.7,0,0,1-4.6.5l-1.9-.2H55.1c-.1,0-.1-.2-.1-.5l-.8-.8h0l.2-.6h0l-.3-1.7v-.8c0-.5.4-.8,1.3-.8s2-.4,1.8-1.7a36.2,36.2,0,0,1,.3-7.2h0V29.1c0-.7-.5-1.4-1.6-2.3h-1l-.5.3c-.1,0-.1-.2-.1-.7s-2.4-1.8-4.6-1.8-4.2,1-4.7,2.4a8.5,8.5,0,0,0-.3,2.9v7.7c0,1.9.6,2.9,1.6,3.2s.7.2.7.4a14.9,14.9,0,0,1-.9,3.4l-1.5.3-5.3-.4h-.6c-.7,0-1.1-1-1.1-3.2v-.2c0-.2.7-.5,1.9-.9a.5.5,0,0,0,.5-.5,16.9,16.9,0,0,1-.3-3.5V29.5a12.2,12.2,0,0,1-.3-2.2c0-1.1.1-1.6.3-1.6h.1l.5.3h.1q0-1.3-4.2-3.9a6.4,6.4,0,0,0-2.2-.4,6.9,6.9,0,0,0-3.9,1.5V41.4l.4.2h.2c.1,0,.2-.1.2-.4h.2c1.1,0,1.7.3,1.9.8v.6l.2,1.4c.1,1.7-.4,2.6-1.4,2.6a16.2,16.2,0,0,1-3.3.2l-8-.5c-.4,0-.8-1.3-1.2-3.7v-.2c0-.3.9-.7,2.5-1.2,0-.3.9-.6,2.5-.8a.6.6,0,0,0,.5-.6l.4-14.5V21.9c0-.4-.4-.5-1.2-.5l-2.9.3c-.7-.4-1-.8-1-1.2a1.2,1.2,0,0,0,.5-1V19c-.2-1.1-.4-1.6-.7-1.6h-.1a2.7,2.7,0,0,0,.8-1.1C23.2,15.7,26.1,15.4,29.6,15.1ZM20.9,42.2a1.6,1.6,0,0,1-.5,1.1q.5,2.1.9,2.1h.2l-.4-3.1h-.2Zm.4-22.6c0,.5.4.7,1.1.7a5.9,5.9,0,0,0,2.9-1h-.2C22.6,19.1,21.3,19.3,21.3,19.6Zm.2-1.7v.3h.2q2.4,0,2.4-.3H21.5ZM22,42v.8h0a2.6,2.6,0,0,1,1.3-.8v-.3H22.2C22.1,41.6,22,41.8,22,42Zm.3,2v.6h.2v-.4l-.2-.2Zm.8-.3q0,.8,2.1.3a.9.9,0,0,0,.7.4l3.2-.3v-.2l-3-.2h0l.8-.2h2q-.6.6-5.1.3l-.3-.2h-.2Zm.8-27.2.2.2c.9-.1,1.3-.2,1.3-.3H25C24.3,16.3,23.9,16.4,23.9,16.5Zm1,25.9v.3h1.3v-.3H24.9Zm.8-2.7c0,.7.1,1,.3,1h.1c.5,0,.8-.3.8-1Zm.8-20.9h.1l.2-.2h-.2Zm.4,2v3.1a5.7,5.7,0,0,1-.3,1.8l.4.7V28h.2c.3,0,.4-2.2.6-6.7h0a1.1,1.1,0,0,0-.5-1A.5.5,0,0,0,26.9,20.8Zm.1,7.6v.4h.3v-.3l-.2-.2ZM27.9,40h0c0,.9.2,1.3.8,1.3H29c.1,0,.1-.1.1-.3Zm.6-22.8h0l.2.2h.1l.2-.2v-.2h-.4Zm.2,5.9a11.5,11.5,0,0,0-.2,2.1v1.2h.1c.2,0,.4-.6.4-1.7v-.5c0-.7-.1-1.1-.3-1.1Zm-.1-7h0l.2.2c.3,0,.5-.1.5-.4h-.5Zm0,12v.3l.3.4H29v-.5l-.3-.3h-.2Zm.5,15.1v.2h2.1v-.2H29.1Zm.5,2.2h.1a1.5,1.5,0,0,0,.9-.6h0A1.4,1.4,0,0,0,29.6,45.4Zm.1-26.6v.4h.1L30,19h-.3Zm0,1.9H30c.5-.1.8-.2.8-.3v-.2h-.5C29.9,20.4,29.7,20.5,29.7,20.7Zm.1-3.5h.3l4-.7H32.2q-2.4,0-2.4.6Zm0,26.6q0,.5,1.2.6l.3-.3v-.2q0-.3-1.2-.3ZM31.3,42v.3h.4l.2-.3h-.6Zm.3-23.1h0l3.1-.3a4.1,4.1,0,0,1,2.8,1.2h.2v-.3q-.3-1.2-1.2-1.2h-.7C33.1,18.3,31.6,18.5,31.6,18.9Zm1.4,1,1.8.5a4,4,0,0,0,2.1.7h0l.2-.2a5.2,5.2,0,0,0-3.2-1.3h-.4C33.2,19.7,33,19.7,33,19.9Zm3.1-2.8v.2a5.4,5.4,0,0,0,1.7.4h.1v-.2c0-.2-.5-.3-1.5-.4Zm2,2.8a.5.5,0,0,0,.5.5h0a.6.6,0,0,0-.4-.6Zm.9-.5v.2a2.2,2.2,0,0,0,1,1.1h.1A2.2,2.2,0,0,0,39,19.4Zm.2,1.5h0c0,.4.3.8,1.1,1h0v-.6c0-.1-.3-.3-1-.5Zm1.6,10.6v3.9H41a3.3,3.3,0,0,0,.3-1.5h0c-.1-1.6-.2-2.3-.4-2.3ZM41,24c0,.3.1.5.4.5h.2v-.2A.6.6,0,0,0,41,24Zm.1,19.4h.7v-.2h-.4Zm1.3-2.6.2.2H43l.3-.3h0l-.2-.2h-.4Zm.4-19.1v.6l.2.2a3.1,3.1,0,0,0,2-1.1H43.4A.6.6,0,0,0,42.8,21.7Zm0,3.5v.3c0,.3.1.4.2.4h.1l.3-.3h0Q43.4,25.2,42.8,25.2Zm0,14.2v.2H43v-.4h-.1Zm2.5-18.8h.4q.9-.1.9-.6h-.3C45.7,20.2,45.4,20.4,45.3,20.6Zm1.7-.7h.1c.3,0,1-.4,2.1-1.4v-.2C47.8,18.7,47,19.2,47,19.9Zm3.6.8v.2a.5.5,0,0,0,.4.3q2.6,0,2.7-.3c-.1-.4-.8-.6-2-.6h-.1C51,20.3,50.7,20.5,50.6,20.7Zm.9-1.9h0q0,.3.6.3h.2l.2-.2a1,1,0,0,0-.7-.2Zm.2-.6,1.1.4a1.7,1.7,0,0,0,1.3.8h1.3v-.2c0-.4-1.1-.8-3.2-1.3h-.1C51.9,17.9,51.7,18,51.7,18.2Zm1.5,4.9a3.6,3.6,0,0,0,2.5,1.5h.1v-.3A3.8,3.8,0,0,0,54.5,23H53.2Zm3.2-1.4v.4a3.1,3.1,0,0,0,1.2,1.4v.3H58c0-.6-.4-1.2-1.4-2Zm.2,22.4v.2h1.7A.8.8,0,0,0,59,44a.5.5,0,0,0-.5-.3h-1Zm1.2-18.8v.2c.3,1.1.6,1.6.9,1.6h0a2.9,2.9,0,0,0-.8-1.7Zm.8,6.9v.2l.2,2.4V35l.2.2H59l.3-.3V32.5l-.3-.3Zm.1,5.5v.4H59v-.6h-.1Zm.1-9.7.7,1.2h.2v-1a.8.8,0,0,0-.2-.5H59C58.9,27.7,58.8,27.8,58.8,28Zm.1,11.5h0l.2.3.2-.3h0l-.2-.2Zm.2,3.7v.2h.8c1.2,0,1.8-.1,1.8-.4h-.4C59.8,42.9,59.1,43,59.1,43.2Zm1.7-2.1h0l.3.2h.1l.3-.3v-.6h-.3A.6.6,0,0,0,60.8,41.1Zm1.7,2.1h.3c.3,0,.5,0,.5-.2h0c0-.2-.1-.4-.2-.4S62.7,42.7,62.5,43.2Zm1.8-1.1v.7l.3.2c.1,0,.2-.3.2-.9v-.2h-.1Z" transform="translate(-1.6 0)" style="fill:#b75326"/><path d="M71.6,15.1h.2a5.8,5.8,0,0,1,3.3.9c.7.1,1,.2,1,.3v.2c-.6,0-.9.2-.9.5l1.1.3c.1.2.4.3.9.5h1.6l.7.2,4.7-1.1h.2A22.2,22.2,0,0,1,92.8,21c2.6,2.6,4.1,4.6,4.5,5.9a14.4,14.4,0,0,1,.6,2.9c-.5,4.9-1,7.4-1.5,7.4a20.2,20.2,0,0,1-2.8,4.1l-.5.5V42h0A4.7,4.7,0,0,1,91,43.8a1.9,1.9,0,0,0-.7,1.2,3.9,3.9,0,0,1-2.9.9,27.2,27.2,0,0,1-6.1,1.4,6.9,6.9,0,0,1-2.7-1L75.7,46l-.4.2a9.2,9.2,0,0,1,.4,3.3v.9l.4,2.8v4.9c0,1,.4,1.5,1.1,1.5l.4.4h0c-.3,0-.4.1-.4.4a3.2,3.2,0,0,1,.9,2.3l.3,1.2a6.9,6.9,0,0,1-2.2.3L72,64l-1.3.9c-.9-.3-1.8-1.3-2.7-3.1h-.1v-.2l.4-.2h0a2.3,2.3,0,0,1-.5-1V60h.2c.1,0,.1.1.1.2h.6v-.7a1.4,1.4,0,0,1,1.3-.6c.2-.2.2-1.2.2-3V51.5c0-1-.1-2.9-.3-5.6V20.6H68.4l-.2-.3V16.9c0-1,.5-1.5,1.6-1.5A3.6,3.6,0,0,1,71.6,15.1Zm-2.8,1.2a.7.7,0,0,0,.4.5h.3a.6.6,0,0,0,.6-.3v-.2a.6.6,0,0,0-.6-.3h-.1A.6.6,0,0,0,68.8,16.3Zm.7,46.1h0c0,.1.2.2.8.3s1-.2,1-.3H69.6Zm0-44.5v.3a1,1,0,0,0,.5.8h.1v-.6c0-.4-.1-.6-.2-.6h-.5Zm1,42.9h0a.5.5,0,0,0,.5.3V61l-.2-.2Zm.8-38.6a2.4,2.4,0,0,0,.4,1.5h0l-.5,1.1.4,1a66.8,66.8,0,0,0-.5,7.7v4.5a14.8,14.8,0,0,0,.3,3.1l-.3,1.9V49h.2a.7.7,0,0,0,.6-.7h0l-.3-.6a25.4,25.4,0,0,0,.4-5.2V38.2q.3-9.8.3-14.4h0c0-2.4-.2-3.7-.5-3.7S71.3,20.8,71.3,22.2ZM71.4,51v.9c0,.7.1,1,.2,1a4.1,4.1,0,0,0,.6-2.3v-.3l-.3-.3C71.5,50.2,71.4,50.5,71.4,51Zm.5,3.5v1.1a2.3,2.3,0,0,0,.2,1.1h.3V55.5c0-.7-.1-1-.2-1Zm1.4-28.4v4.6h.2V25.9h0Zm0,34.7h0l.2.3h.2l.2-.2h0l-.3-.3h-.1Zm.1-37.4v.4c.2,0,.3-.4.3-1.1h-.1A1,1,0,0,0,73.4,23.4ZM74.9,61h0l.2.2h.4V61h-.6Zm4.8-37.9c0,.2-.4.6-1.2,1H79a6.8,6.8,0,0,0-3.2,2.3c-.1,0-.3,3.8-.5,11.5v.8c0,.2.9.9,2.7,2.3l2.6,1.2.3.4H81a8.4,8.4,0,0,0,4.2-1.4A8,8,0,0,1,88,40c2.1-1.8,3.2-3.4,3.2-4.9v-.9l-.2-.9h0l.5-.6v-.2c-.4-.2-.6-.6-.6-1.5a5.1,5.1,0,0,0-1.2-3.5,5.6,5.6,0,0,0-2.1-2.7c-.3-.5-1.4-1-3.3-1.4h-.5l-2.9.2h-.2a.9.9,0,0,1-.8-.4ZM75.3,40c.1.5.3.7.7.7h0a1,1,0,0,0-.5-.6Zm.1-22.1v.2h.4v-.4h-.1Zm.3,25.6h0c0,.5,1.2.8,3.6,1l1.3-.7h0l-.2-.3H80l-1.7.3A11.4,11.4,0,0,0,75.7,43.5Zm.6-20.7V23h.2l.3-.3v-.2h-.2Zm1-4.3h.5l.2-.2v-.2h-.1C77.4,18.3,77.3,18.4,77.3,18.5Zm3.7.6c0,.2.9.4,2.6.6,0,.1.2.2.5.2h1l.2-.3H83.9l.2-.3v-.3H82.6A2.9,2.9,0,0,0,81,19.1Zm.7,3.7c0,.2.3.2.8.3H83v-.2l-.2-.3h0l3.4-.4.3-.2-.2-.3h-.5C83.1,21.8,81.7,22.2,81.7,22.8ZM82.5,44h.3c2.3-.4,3.5-.9,3.5-1.2H86C83.7,43.3,82.5,43.7,82.5,44ZM85,17.7v.2a2.8,2.8,0,0,0,1.3.3h.3c0-.3-.5-.4-1.4-.5Zm1.2,5h0a1.4,1.4,0,0,0,1.3.5h.6c-.1-.2-.6-.4-1.5-.4Zm1-4.2h0a3,3,0,0,0,1.7,1h.2C89.1,19.1,88.5,18.7,87.2,18.5ZM88,22h0l.3.2h.1V22Zm.2,21.8h.1a2.4,2.4,0,0,0,1.4-.7h0l-.2-.2h-.1Q88.2,43.4,88.2,43.8Zm.9-20.2h0c0,.5.4.9,1.3,1.2h.1c0-.6-.4-1.1-1.2-1.4Zm.6,16.2h.2a2.4,2.4,0,0,0,.9-.8h-.2C90.1,39.3,89.8,39.5,89.7,39.8Zm.1,2v.3h.1c.6-.1.9-.4.9-.7h-.2A.9.9,0,0,0,89.8,41.8Zm.3-21.4h0l.5.5h.2v-.2c0-.2-.2-.3-.5-.3Zm.8,6v.3a5.6,5.6,0,0,0,1,2.1H92v-.3a2.6,2.6,0,0,0-.8-2.1Zm1,3.3V30h.4v-.3Zm0,5.6H92c.5,0,.7-.3.7-.6v-.5l-.2-.2h0A1.8,1.8,0,0,0,91.9,35.3Zm.6-3.4v.9l.3.2h0l.2-.2a1.1,1.1,0,0,0-.4-.9Zm.3-10.2h0a2.7,2.7,0,0,0,1,1.1h.1C93.9,22.5,93.5,22.1,92.8,21.7Zm1.4,1.6v.2h.3v-.2Zm.1,13.8h.1a8.3,8.3,0,0,0,1.2-4.4v-.8h-.2C95.1,31.9,94.7,33.6,94.3,37.1Zm.5-10.7.5.8h.2a1,1,0,0,0-.5-.8Z" transform="translate(-1.6 0)" style="fill:#b75326"/><path d="M122.9,17.8c1.6,0,3,1.2,4.1,3.4.2,0,.5.3.8.8l.9,4.6c-.4.5-1.5.7-3.3.7h-.6c-1.6-.2-2.3-.7-2.3-1.5a4.1,4.1,0,0,0-1.5-2.4c-.1-.2-1-.3-2.6-.3a17.1,17.1,0,0,0-5.7,1.2,20.7,20.7,0,0,0-3.1,3.9c.3,7.4.4,11.9.3,13.2s.3.6.8.6h1.5c.6,0,1,.1,1,.3h0l.2.8v3.4l-.4.5-2.9.3h-.3l-1.2.4c-4.7-.2-7.1-.3-7.1-.6s-1.2-.3-1.2-1.1a12.1,12.1,0,0,1-.2-2.3c0-.7.8-1.3,2.4-1.5,0-.4.6-.5,1.7-.5h.2l-.4-16.9c0-1-.2-1.5-.7-1.5h-.4a8.6,8.6,0,0,0-2.5.6h-.1c0-.1.1-.2.5-.3h0c-.4,0-.7-1.2-.7-3.5a5,5,0,0,1-.1-1.1,8.3,8.3,0,0,1,5.1-1.9h1.6a15.4,15.4,0,0,1,3.1.6v.2a2.2,2.2,0,0,0-.6,1.2v.4C112.5,17.6,117.1,17.2,122.9,17.8ZM100.9,45l-.2.2v.3h.4v-.4Zm.6-25.9a1.3,1.3,0,0,0,1,.4h.1V19l-.3-.3C101.8,18.8,101.5,18.9,101.5,19.1Zm.7,26.8h0q0,.3,1.8.3h2.3c0-.2-1.1-.3-3.3-.4Zm.2-24.4h.3c.4,0,.6-.1.7-.3h-.2C102.7,21.2,102.5,21.3,102.4,21.5Zm0,23.5H106v-.2h-3.4Zm1.7-27.2v.3l.4.4h.5l-.7-.6Zm2.6,9.3v.4a2.5,2.5,0,0,1,.3,1.3,17.2,17.2,0,0,0-.2,2.5l.2,2.5h0c.2,0,.4-1.9.5-5.7.1,0,.2-.4.2-1.3s-.2-.6-.4-.6h-.1A1.1,1.1,0,0,0,106.7,27.1Zm.5-3.2-.3,1.2a.8.8,0,0,0,.4.7h0c.2,0,.3-.3.4-.9l-.3-1Zm.5,21.4.2.2h.9l.3-.3c0-.1-.1-.2-.3-.2S107.7,45.1,107.7,45.3Zm.4-26.1h0l.2.2.2-.3V19h-.1Zm.2-1.2v.3h.2l.3-.2h-.5Zm0,20.7v.5h.2l.3-.3v-.3l-.2-.2h-.1Zm.1,1.2v.2h.1v-.2Zm1.1-18v.2l.2.2h.2l.2-.2v-.2h-.6Zm4.2-1.4h0q.6,0,1.5-1.8v-.3h-.1A1.7,1.7,0,0,0,113.7,20.5Zm2.4-1.4.2,1.3h.6V18.9h-.2C116.2,18.9,116.1,19,116.1,19.1Zm1.4-.4h0l.2.2h.6l.5-.2h-1.3Zm2-.2v.2h.4l.2-.3H120C119.7,18.3,119.5,18.4,119.5,18.5Zm1.6.4h.2l.2-.2h-.2Zm.6,3.6h.2c.3-.1.7-.6,1.3-1.5h-.3c-.7.3-1.1.7-1.1,1.3S121.7,22.2,121.7,22.5Zm1.7,1.6v.2h.1l.3-.3h-.1Zm0-5.4h0l.2.2h.2l.2-.2h0l-.2-.2h-.2Zm2,2v.2a1,1,0,0,0,.8.5h.1v-.2a1,1,0,0,0-.8-.5Z" transform="translate(-1.6 0)" style="fill:#b75326"/><path d="M146.7,17.9h.5a30.3,30.3,0,0,1,6.6,4.2c2,1.8,3.1,3.1,3.1,4h-.1a1.4,1.4,0,0,0-1-.8h-.1a.2.2,0,0,0-.2.2,25.8,25.8,0,0,0,1.2,2.4h.1c.1,0,.2-.2.3-.7h.1a8,8,0,0,1,.4,1.8l.5,1.3v.8l.2,2.2a29.4,29.4,0,0,0-.8,4c-.2.8-2.1,3.8-5.7,8.8a6.8,6.8,0,0,1-4.9,2.3,26.3,26.3,0,0,1-4.9.4h-1.1c-.8,0-2.6-.6-5.5-1.8-3.8-3.4-5.6-6-5.6-7.7s-1-2.2-1.4-3.1a31.6,31.6,0,0,1,1.7-5.3,5.1,5.1,0,0,1,1.4-4c1.8-4.2,4.3-6.8,7.3-8.1a19.6,19.6,0,0,1,6.3-1.4ZM129.2,35.8c0,.4.1.6.2.6h.1v-.7h0Zm1.4,2.9v.5c.1,1.3.4,2.1,1.2,2.3h0c-.3-1.9-.6-2.9-1-2.9Zm.6-9.8c.3,0,.4-.1.6-.4h0C131.4,28.4,131.2,28.6,131.2,28.9Zm1.3-2.1h0c.2,0,.3-.2.3-.5h-.1C132.5,26.4,132.5,26.6,132.5,26.8Zm.1,7.7h.2v-.2h-.1Zm.3,8.3h0a.8.8,0,0,0,.5.5h.2a.8.8,0,0,0-.4-.7h-.1Zm.9-6v.4c.5,1,1.1,2.2,1.9,3.6s.8,1,2.4,1.7,2.1,1.5,4.1,2h1.2a20.1,20.1,0,0,0,4-1.1l2.2-1.9c2.3-2.5,3.4-4.5,3.4-6.2v-.6a8.2,8.2,0,0,1-.4-3.2,18.7,18.7,0,0,1,.2-2.7c0-.3-.8-1-2.3-2.2a7.7,7.7,0,0,0-3.7-3h-.7q-7.2.3-7.2,1.2a9.6,9.6,0,0,0-2.3,3.2c-1.3,1.3-1.9,2.2-1.9,2.7A35,35,0,0,0,133.8,36.8Zm.2,8V45a4,4,0,0,0,2.9.9h.7a10.3,10.3,0,0,0-3.2-1Zm1-18.4v.4h.1c.6-.4.8-.8.8-1.1h-.3A1.6,1.6,0,0,0,135,26.4Zm.6-4.2v.2a35,35,0,0,0,3.8-2.6l.4-.2h.4c2.7-.3,4.1-.6,4.1-.8h-.9a10.7,10.7,0,0,0-7.7,3.2Zm.6,2.8v.2h0Zm0-1.8c.4,0,.7-.2,1.1-.7v-.2C136.6,22.5,136.2,22.8,136.2,23.2Zm1.2,23.2h.9v-.2H138C137.6,46.2,137.4,46.3,137.4,46.4Zm1.2-.8h0c0,.3.6.4,1.8.4h.1A4.1,4.1,0,0,0,138.6,45.6Zm1.9-24.5v.2a22.2,22.2,0,0,0,4.7-.7l-.5-.2h-.1A8.4,8.4,0,0,0,140.5,21.1Zm.1,2.1h0v.2h.8l4.4-1h0l-1.2-.2C142,22.4,140.6,22.8,140.6,23.2Zm4,23.9h0q0,.3.9.3c.7,0,1.1-.1,1.1-.3h0a1,1,0,0,0-.4-.5h-.6A1,1,0,0,0,144.6,47.1Zm1.1-28.4c.1.6.6.8,1.3.8h.8v-.2c0-.5-.5-.8-1.3-.9Zm.5,1.9h0l.2.2-.6.6h0c-.1-.2.2-.4,1-.8Zm.6.1h-.1a3.5,3.5,0,0,0,1.9.9h0A2.9,2.9,0,0,0,146.8,20.7Zm1.1,26.8h.1c.7-.3,1.1-.5,1.1-.7H149A1.9,1.9,0,0,0,147.9,47.5Zm1-23.9a.9.9,0,0,0,.8.6l.2-.2h0c0-.3-.2-.5-.6-.5S148.9,23.5,148.9,23.6Zm1-3.4h0a1.6,1.6,0,0,0,1.3.8c0-.4-.4-.8-1.1-1h-.2Zm1,2.6h0a3.1,3.1,0,0,0,1.8,1.5h.3A8.7,8.7,0,0,0,150.9,22.8Zm1.1,1.9h0a3.3,3.3,0,0,0,1.9,1.4h.2v-.2h0a2.4,2.4,0,0,0-1.9-1.1Zm2.9,15.1h0c.3,0,.6-.3.8-1h-.2C155.3,38.8,155.1,39.1,154.9,39.8Zm1-1V38h.1c.3-.1.3.2.3.9h-.5Zm.4-3.5c.1,1.3.2,2,.4,2h.1a3,3,0,0,1,.5-1.5v-.2l-.6-.9h-.1C156.4,34.7,156.4,34.9,156.3,35.3Zm.9-4.2v.5l.3-.2v-.3h-.4Z" transform="translate(-1.6 0)" style="fill:#b75326"/><path d="M165.4,15.7c3,.3,4.5.9,4.5,1.6l.4.4v.8l.6.8a1.7,1.7,0,0,0-.6,1.1c0,.2.2.3.4.3h0l-.4.4h-.4a2.5,2.5,0,0,0-1.1-.5c-2.1.2-2.4,2-.8,5.4s2.2,6.8,3.1,7.8c2.2,5.2,3.8,8,4.6,8.2h.2a13.1,13.1,0,0,0,1.4-3.1,54.3,54.3,0,0,0,3.6-7.8,7.1,7.1,0,0,0,1.1-2.4l-.2-.7c2.9-5.5,2.8-7.9-.5-7.2h-.1c-.2-3.6.2-5.4,1.1-5.4s3.7-.7,7.7-.7c1.9,0,2.8.7,2.8,2.1a3.1,3.1,0,0,1,.7,1.5,2.8,2.8,0,0,0-1,1.9l-2.2.4c-.2.3-.9,1.7-2.1,4.3a83,83,0,0,1-4.3,8.4l-1.7,5.1-3.8,7.7c-.1,0-.2.1-.2.4v.5h.1c0,.7-.6,1-1.6,1.1l-1.2.7a4.2,4.2,0,0,1-2.2-.9l-3-4.2c-.5-1.8-1-2.7-1.4-2.7a10.7,10.7,0,0,1-1-3.1,33.4,33.4,0,0,0-2.4-3.8c0-.2.1-.3.3-.5v-.3l-1.1-2.5c-.5-2.2-1-3.4-1.3-3.6-1.4-3.9-2.3-5.8-2.8-5.8s-.3.2-.8.3a4.8,4.8,0,0,1-2.5-1.1h0l.2-.3v-.2c0-.1-.3-.3-.8-.6h-.1c1-.2,1.4-.4,1.4-.6l-.8-.5h-.1v-.2l.4-.6a.9.9,0,0,0-.4-.6v-.2A81.9,81.9,0,0,1,165.4,15.7Zm-6.5,5.2.2.2h.8v-.2l-.7-.2h-.1Zm1.4-2.2V19h.4c.5-.1.8-.3.8-.4v-.2h-.8Zm2.4,3.7v.2c.7.4.8.3.2-.2Zm.8-5.7c0,.1.4.2,1.1.2h2.2a4.5,4.5,0,0,0-1.8-.4h-.7C163.8,16.4,163.6,16.5,163.5,16.7Zm2,10.6c0,.5.1.8.3.8h0q-.2-.6-.3-.6Zm4,6.6h0c.6,1.7,1.1,2.5,1.5,2.5h0c-.5-1.6-.9-2.4-1.3-2.5Zm2.2,8.2v.2c0,.4.4.8,1.1,1.2h.2a3.4,3.4,0,0,0-1.2-1.2Zm1.4,3.2h0l.2.3h.2l-.3-.3Zm.3-3.2h0a2.4,2.4,0,0,0,.9,1.6h.2a4.4,4.4,0,0,0-1-1.5Zm.2,2.2c.5.8,1,1.1,1.5,1.1v-.2a1.7,1.7,0,0,0-1.4-1Zm1.9-.7c.2.8.5,1.2,1,1.2a3.3,3.3,0,0,0,.7-1.6V43h-.1a4.1,4.1,0,0,1-1.6.5Zm2.7.4-1.5,2.8V47h0c.8,0,1.4-.8,1.6-2.4.1,0,.1-.2.1-.6Zm1.5-7a36.5,36.5,0,0,0-2.3,4.7h.2a17.5,17.5,0,0,0,2.1-4.1,1.4,1.4,0,0,0,.2-.6h-.2Zm-1.2,6.6h.2c.2,0,1.2-2,2.9-5.8l.2-1h-.1c-.5.3-1,1.5-1.8,3.5A10.9,10.9,0,0,0,178.5,43.6Zm3-25.9v.4c0,.5.2.8.7.8h.2c-.4-1-.6-1.5-.7-1.5S181.5,17.4,181.5,17.7Zm.6-1.6H182v.3l.3.3h0q0-.3,7.2-.6h.1v-.2c0-.1-.3-.2-1-.2A38.2,38.2,0,0,0,182.1,16.1Zm.2,16.2h.2c.2,0,.3-.2.3-.5h0l-.2-.3C182.4,31.7,182.3,31.9,182.3,32.3Zm.6-.7v.2l.2-.2v-.3h0Zm.2-13.6h.2c.3-.1.4-.2.4-.3h-.4Zm.3,12.6h.1a3.2,3.2,0,0,0,.8-1.4h0C183.8,29.2,183.5,29.6,183.4,30.6Zm1-2.6v.4h.2a1.8,1.8,0,0,0,.6-1.3v-.2H185A1.1,1.1,0,0,0,184.4,28Zm1.1-2.6v.2h.2c.3,0,.5-.4.7-1.3v-.2h-.1C186,23.9,185.8,24.4,185.5,25.4Zm.9.2v.2h.1v-.2Zm.2-1.9v.4h.2a3.1,3.1,0,0,0,.8-1.4q.2-.3.9-.3h0v-.8h.3a.9.9,0,0,0-.5-.9C187.7,20.5,187.1,21.5,186.6,23.7Zm3.4-5.2h0l.8.2c.6,0,.9-.1.9-.2s-.2-.3-.8-.3h-.5C190.1,18.3,190,18.4,190,18.5Z" transform="translate(-1.6 0)" style="fill:#b75326"/><path d="M207.9,15.6c1.7,0,3.8.8,6.3,2.2s3.2,2.7,3.2,3.3c1.6,3.5,2.4,5.6,2.4,6.2v.5a9.4,9.4,0,0,0-.9,2.9h-5.6l-1.8.2c-5.9-.5-10.1-.7-12.4-.7h-1.4a3.5,3.5,0,0,0-.7,1.5,4.8,4.8,0,0,1,.4,2.2c0,1.6.3,2.5.7,2.8v.3h0l-.4-.2v.2l.7.6a2.7,2.7,0,0,0,1.1,2c1.3,2.4,2.8,3.9,4.4,4.5a15.1,15.1,0,0,0,4.6.6,4.6,4.6,0,0,0,1.8-.7c.8-.3,2.3-1.6,4.6-4.1h0c0-.1-.2-.2-.8-.3v-.3a7.2,7.2,0,0,1,3.4-3.5l2.3,1.7a49.7,49.7,0,0,0,3.6,4.9v.3c-1.3,1.7-2.3,2.5-2.8,2.5h-.3c0-.9-.5-1.4-1.6-1.5s-1.2.7-2.7,2a15.5,15.5,0,0,1-4.9,2.1,33.5,33.5,0,0,1-5.7.9l-3.5-1.3c-2,0-3.8-1.1-5.4-3.2a7.5,7.5,0,0,1-1.8-2.7,34.5,34.5,0,0,0-1.4-5.1,25.5,25.5,0,0,1-.4-3.4h0a22.4,22.4,0,0,1,4.9-14.4,5,5,0,0,1,2.9-2.3l3.6-.7ZM194,31.3h0v.2h0a2.2,2.2,0,0,0-.1.9v.3a4.1,4.1,0,0,0,.6,2h.1C194.6,32.7,194.4,31.6,194,31.3Zm0-2.3v.4c0,.2.1.4.2.4s.2-.2.3-.6l-.2-.2Zm.8-3.3a5.4,5.4,0,0,0-.8,2.5h.1c.2,0,.6-.7,1.1-2.2S195,25.7,194.8,25.7Zm.1,11h0V37h.2v-.2h-.3Zm.6,1.1h-.1c.3.6.5,1,.7,1h.1A1.3,1.3,0,0,0,195.5,37.8Zm1.8-8.2h1.2l-.3-.3h-.1A.9.9,0,0,0,197.3,29.6Zm.1-7.4h.1Zm0,3.9v.4h.1a2.3,2.3,0,0,0,.7-.7v-.2h-.2A.8.8,0,0,0,197.4,26.1Zm.6-1.6v.2c0,.5,3.7,1,11.2,1.5l.6.2h.8a14.9,14.9,0,0,0,3.3.9c0,.1.2.2.4.3a1.7,1.7,0,0,0,.4-1.1V25.3c0-.6-1-1.8-3.1-3.6a5.6,5.6,0,0,0-3.2-1.7l-2.1-.3c-3.4.7-5.6,1.5-6.7,2.5A10.6,10.6,0,0,1,198,24.5Zm.1-1h0a.5.5,0,0,0,.3-.5h0A.5.5,0,0,0,198.1,23.5Zm.1,21.2v.2c.1.3.4.5,1.1.7l.3.3h0l-1.1-1.1Zm.5-23.9V21h.1c.5-.2.8-.3.8-.5h-.3A.7.7,0,0,0,198.7,20.8Zm.3,8.4v.4h.3v-.3H199Zm.7-11.3h0l.2.2h0c.8-.2,1.3-.4,1.3-.7v-.3l-.3-.3h-.1C200.1,17.2,199.7,17.5,199.7,17.9Zm.8,10.7v.2a47.8,47.8,0,0,0,6.5.5h-1.2c0,.2.5.3,1.6.3s2.6-.1,2.6-.3S206.8,28.8,200.5,28.6Zm.6-2.1v.2a8.5,8.5,0,0,0,4.3.8h1.3v-.3A53.2,53.2,0,0,0,201.1,26.5Zm.2-6.1a8.4,8.4,0,0,1,2.4-1H203C201.8,19.4,201.3,19.8,201.3,20.4Zm.9-3.4h.1a14.8,14.8,0,0,0,3.7-.7c.4-.1.5-.2.5-.3h-.2a11.3,11.3,0,0,0-4,.9h-.1Zm.5,27.9h0c0,.2.4.4,1.3.6h.1a3.9,3.9,0,0,0-1.4-.5Zm2.2-26.6h0c0,.2.8.4,2.5.7h.1v-.2a1.9,1.9,0,0,0-1.7-.8h-.2C205.1,18,204.9,18.1,204.9,18.3Zm1.2,27.3v.2h.3v-.2Zm2.4,1.6h-1.6c-.3,0-.5,0-.6.2h0l.2.2h1.2a18.5,18.5,0,0,0,4.4-.6h0c0-.2-.2-.3-.7-.3h-.3A5.8,5.8,0,0,0,208.5,47.2Zm-1.1-29.9v.2a6.1,6.1,0,0,0,2.5.4h.1v-.2c0-.1-.3-.2-.8-.3Zm1.2,1.4h0a19.1,19.1,0,0,0,3.8,2h.1l.6-.2h.4l-1-.4-1.3-.5a2,2,0,0,0-2-1.1H209C208.7,18.5,208.6,18.5,208.6,18.7Zm3.6,9.4v.2h.3v-.2Zm.1,1.7c0,.1.4.2,1.1.2h.6q0-.3-1.2-.3C212.5,29.6,212.3,29.7,212.3,29.8Zm0,14.1h.2a1.3,1.3,0,0,0,.5-.7h-.1C212.5,43.4,212.3,43.6,212.3,43.9Zm.5,2.7c.4,0,.7-.3,1-1h-.2C213.1,46,212.8,46.3,212.8,46.6Zm.6-24.9a.6.6,0,0,0,.6.5h.1v-.6l-.3-.3C213.6,21.3,213.4,21.4,213.4,21.7Zm.8,20.2h.2c.4,0,.7-.3.9-.8h0C214.8,41.1,214.5,41.3,214.2,41.9Zm.5-19.4a5.4,5.4,0,0,0,1,2.2h.4c-.3-1.3-.7-2-1.1-2h-.3Zm1,15.9h.4c.2,0,.4-.1.4-.2l-.2-.3h-.1C215.9,38,215.7,38.1,215.7,38.4Zm.3,5.8h.2q.6-.6.6-.9h-.1A.9.9,0,0,0,216,44.2Zm.9-18.8V26a.4.4,0,0,0,.4-.4v-.2h-.5Zm.2,17,.2.2c.6-.2.9-.5.9-.8h0C217.6,41.7,217.2,41.9,217.1,42.4Zm1.5-.6h.2a.7.7,0,0,0,.4-.6H219A.7.7,0,0,0,218.6,41.8Zm2.1-.6h-.1c.2.5.4.8.6.8h.1v-.2h0A.7.7,0,0,0,220.7,41.2Z" transform="translate(-1.6 0)" style="fill:#b75326"/><path d="M251.4,0a7.6,7.6,0,0,1,2.6.7c.1,0,.2.6.2,1.9a1.6,1.6,0,0,1,.7,1c-.2,2-.4,6-.6,12.1a1.5,1.5,0,0,0-.1.6c-.3.2-.5.4-.5.7v.9a8.8,8.8,0,0,1-.6,2.9v.9c0,.2.2.3.6.4v.4c-.6,5.2-.9,8.7-.9,10.3s-.1,2.8-.4,2.8h0c.2,0,.4.3.5.8v.7c0,.7-.3,2.6-.8,5.6v1.5c2.1.4,3.1,1,3.1,1.7l-.3.4V47l.3.4h0c-.3.9-1.5,1.4-3.5,1.4h-.4l-.3-.6h-.6l-1.7.4h-2.3c-.2,0-.4-1-.6-3.1v-2a5.8,5.8,0,0,0-2.5,1.4,24.3,24.3,0,0,1-9,3,14.8,14.8,0,0,1-6.5-3.5,14.6,14.6,0,0,1-1.9-2.9,5.6,5.6,0,0,1-1.1-1.9v-.2h.1a6.9,6.9,0,0,1,1.6,2.1h.4v-.8a5.8,5.8,0,0,0-1.3-3h-.3c-.3,0-.4.4-.4,1.1h-.3v-.3a28.4,28.4,0,0,1,.3-3.1h.3v.6h.1a.8.8,0,0,0,.3-.7V33.8c-.1,0-.2.2-.2.6l-.4.4-.2-.5a20.7,20.7,0,0,1,3-9.9,24.5,24.5,0,0,1,2.9-4c1.3-1.2,3.4-1.7,6.2-1.7h.6c4.4,0,7.9,1.1,10.7,3.4l.4.2h.2c.4-1.8.8-6.4,1.1-13.8.2-.3.3-.4.5-.4h0a7.5,7.5,0,0,0-2.7-1.3c-.4,0-.6-1.4-.7-4.2l1-.3h0c0-.2-.2-.3-.5-.3s-.3-.3-.3-.5.5-.6,1.4-.6V.5l-.2-.3h3Zm-24,32.8c0,.1.1.2.3.2s.4-.4.6-1.3v-.3h-.2C227.9,31.4,227.7,31.9,227.4,32.8Zm.7-5.5v.2h.2c.2-.1.4-.5.8-1.5s2.1-2.5,2.5-2.5l.2-.5h-.4a7.5,7.5,0,0,0-2,1.3A7.3,7.3,0,0,0,228.1,27.3Zm.3,15.8h0c0,.3.6.4,1.9.6v-.2l-1.7-.6Zm.1-7.2v.9c0,.6.7,2.3,2.3,5a8.1,8.1,0,0,0,3.7.9,18.5,18.5,0,0,0,8.3-2c1.1-1.7,2.1-2.5,2.9-2.5s1-2.1,1.5-4.7a5.2,5.2,0,0,0,.5-2.3v-.6c0-1.7-.3-2.6-.7-2.6a6,6,0,0,1-1.4-1.5l.2-.4c0-.2-.6-.4-1.8-.7l-.4-.3h1.1c0-.4-2.3-.7-6.8-.7l-.9-.2c-3.3.3-4.9.7-4.9,1.3a14.3,14.3,0,0,0-3,6.6A16.1,16.1,0,0,0,228.5,35.9Zm1.3,8.3c0,.4,1.3.9,3.7,1.3h.4c0-.3-1.2-.8-3.6-1.3H230Zm1-22v.2h.4c1.4-.4,2.2-.8,2.2-1.4a1,1,0,0,0-.7-.2h-.3C231.8,20.9,231.3,21.3,230.8,22.2Zm2.9,24.4v.2h.9a13.7,13.7,0,0,0,2.9-.4h0l-1.8-.2C234.3,46.2,233.7,46.4,233.7,46.6Zm1.1-26.1v.3l.2.2h.3l.3-.3v-.2l-.2-.2H235Zm.1,3h0Zm1.4,19.9v.2h.8q4.1-.3,4.5-1.2v-.2h-.2C238.2,42.8,236.6,43.1,236.3,43.4Zm.6-20.3h.2Zm.9,21.7h.6c1.3,0,1.9-.2,1.9-.4H239Q237.8,44.5,237.8,44.8Zm.4-21.1h.3l1.3-.2h-.4Q238.2,23.4,238.2,23.7Zm.4-2.7h2.9c-.2-.3-.8-.4-2-.5h-.6A.5.5,0,0,0,238.6,21Zm2.8,2.5.2.3h.3l.2-.2a.6.6,0,0,0-.5-.2h-.2Zm1.1,19.1v.2h0a1.8,1.8,0,0,0,1-.7v-.2h-.2A1.5,1.5,0,0,0,242.5,42.6Zm.7-21h-.1v.2l1.9.6h.1c0-.4-.3-.7-1-.9Zm.9,1.9.2.2.2-.2h-.4Zm.9.4c0,.1.6.4,1.8.7h.1v-.2a1.3,1.3,0,0,0-1.2-.5Zm1.3,2.4v.5l.3.3h.1c.2,0,.3-.2.3-.4a.6.6,0,0,0-.3-.6h-.2Zm.8,15.8v.3c.3,0,.4.2.4.6h.1l.3-.3v-.5c-.2-.1-.2-.3-.2-.6h-.2A.5.5,0,0,0,247.1,42.1Zm.1,2.4h.2l.2-.2h-.1Zm1.4-40.1v.2h.4c.3,0,.4,0,.5-.2l-.2-.2h-.6Zm.1-1.5h.8l-.2-.2h-.5Zm1.2,19c0,.3,0,.6.2.6h.1v-.5Zm.4-17.4h.2c1,0,1.4-.1,1.4-.3l-.2-.2h-.8A.6.6,0,0,0,250.3,4.5Zm.1,38v1.3l.2.2h.1v-.8a1,1,0,0,0-.2-.7Zm.2,2.2v.2h.4v-.2Zm1.3,2c0,.1.2.2.6.2h1.6c0-.2-.2-.3-.7-.3S251.9,46.5,251.9,46.7Zm.2-43.2h.2Zm1.3,17h.3v.3h-.3Z" transform="translate(-1.6 0)" style="fill:#b75326"/><path d="M262.8,39.4a4.9,4.9,0,0,1,2.6,1,2,2,0,0,1,.2,1.1v.8c0,1.7-.9,2.9-2.8,3.7l-.8.4c-.9,0-1.7-.8-2.5-2.4v-.4c0-1.7.3-2.8.8-3.2A5.9,5.9,0,0,1,262.8,39.4Zm-2.1,2.7c.2,1.1.3,1.6.5,1.6a6.4,6.4,0,0,0,.6-2.1l.2-.4v-.3h-.1Q260.7,41.4,260.7,42.1Zm.4,2.7c0,.3.1.4.4.5h.6a1.8,1.8,0,0,0,1.3-.6h0Zm1.3-2.3h0c0,.4.1.7.3.7h.1c.2,0,.4-.4.7-1.3v-.3h-.3C262.7,41.6,262.4,41.9,262.4,42.5Zm1.9.8h.3v-.6h0C264.5,42.8,264.4,43,264.3,43.3Z" transform="translate(-1.6 0)" style="fill:#231f20"/></g></g></svg>