<svg xmlns="http://www.w3.org/2000/svg" viewBox="0 0 406.6 61.8"><title>icn_rotator_Asset 66_adj</title><g id="Layer_2" data-name="Layer 2"><g id="Layer_1-2" data-name="Layer 1"><path d="M4.2.3,6.8.9l4-.2c1,0,1.6.3,1.6,1A34.2,34.2,0,0,0,12,7.9V29.4l-.3,11.7a36.4,36.4,0,0,0,6.4.8h0v.8c0,.3.2.6.7,1.1a37.3,37.3,0,0,0-1.6,4.3l-.5.5h-.2a1.8,1.8,0,0,0-1.6-.6L4.8,46.7c-3,0-4.6-.2-4.6-.5a14.1,14.1,0,0,0,1.1-4.8H2.7a4.3,4.3,0,0,1,1.7-.5l1,.3h.7q.6,0,.6-1.2c.2-1.5.4-6,.6-13.6C7.1,24,6.8,17.2,6.6,6c-.2-.2-.4-.4-.6-.4l-2.8.2c-.5-.1-.7-.2-.7-.5C2.7,2.1,3,.5,3.3.5Zm-3,45.4.2.2h.3l.2-.2-.3-.2H1.5Zm.8-3h.4v-.3H2.2ZM3.3,3.4v.4l.2.3H5.2V3.8L4,3.3l-.3-.2H3.6Zm.2-1.6h0a.5.5,0,0,0,.6.6h.3a2.1,2.1,0,0,0,1.3-.7H3.5Zm.3,40.6h0a.5.5,0,0,0,.5.5h.1v-.5l-.3-.2H3.8Zm.7,2.1h0l.2.2h.9c.7,0,1-.1,1-.2h0l-1.7-.2H4.8Zm.7-1.3h.9V43H5.6C5.3,43,5.2,43,5.2,43.2ZM6.9,1.8l.5.2H8l.3-.2H6.9Zm.7,36.5v.2c.1.3.2.4.3.4l.3-.3v-.4c-.1-.6-.2-.8-.3-.8S7.6,37.7,7.6,38.3Zm.3-20v.3h.3v-.3H8.1c0-.2.2-.3.5-.4v-.2H8.3A.8.8,0,0,0,7.9,18.3Zm.2-6.6h.3v-.3H8.3Zm.2-3.4v.4h.1V8.1H8.4Zm.5,17.9h.1q.3,0,.3-2.4C9.1,23.9,8.9,24.6,8.8,26.2ZM9,4.1h.4l1.4-.8a1.3,1.3,0,0,0,.3-.7h-.3c-.4,0-.7.2-1.1.7S9,3.7,9,4.1Zm1.2,25H10V40.7h.6c.1,0,.2-.2.2-.6Q10.6,29.1,10.2,29.1Zm.7-12.4v2h.1c.1,0,.2-.3.2-.8v-1Zm-.1,2.5v.4h.3v-.3Zm0-3.3h0l.3.3h0V16h-.3ZM12.9,44h0c0,.2.6.4,2,.4H17v-.2h-.6Zm1.5,1.7.2.2h1.3q.6,0,.6-.3H15.2C14.7,45.5,14.4,45.6,14.4,45.7Zm1.3-3.3h0c.2.3.5.4,1.1.4l.3-.2v-.2H15.7Zm.1,4.6v.2h.9V47h-.9Z" transform="translate(-0.2 0)" style="fill:#b75326"/><path d="M22.6,14.8a2,2,0,0,0,1.3.4l.7-.3c5.6,0,8.4.1,8.4.5v1.4a5.2,5.2,0,0,1,.5,2.4v1c-.4,5.7-.7,11.1-.9,16.3a2.3,2.3,0,0,0-.3,1.3.6.6,0,0,0,.6.3h.2c2.2,0,3.4.2,3.4.7h-.1v.4a13.3,13.3,0,0,1,.7,4.7l.2,2.5h-9c-4.7,0-7-.3-7-1.1a3.5,3.5,0,0,0-.3-1.3,1.3,1.3,0,0,1,.6-.7h.1a.7.7,0,0,0,.6.2h.1l4.3-.3h0c-3.5-.2-5.3-.5-5.3-.8V41.3l-.2-1.5c0-.5,1.6-.7,4.7-.7q.6,0,.6-2.7l.7-16.3h-.1c-1.5,0-2.1-.1-1.6-.4-2.4,0-3.7-.3-3.7-.9s-.2-.2-.2-.5l.3-.7a.7.7,0,0,0-.4-.6h0c.4-.3.6-.9.7-2h.3Zm.2,26.5h0c.3.4,1.5.6,3.8.6H27q.6,0,.6-.3h0l-4.4-.3Zm.6-25.2v.2h.3c1.1,0,1.6-.1,1.6-.3H25C24,15.9,23.4,15.9,23.4,16.1Zm.3.9h0c0,.1.2.2.8.2h2.9c.6,0,1-.1,1-.2h0c0-.3-1.2-.3-3.7-.1ZM30.9,2.7a4.1,4.1,0,0,1,3.5,2.2L34.8,7a8.2,8.2,0,0,1-1.4,3,3.6,3.6,0,0,1-2.5.8q-3.7,0-4.8-1.2a5.1,5.1,0,0,1-.8-3.4c-.2,0-.3-.1-.3-.2h0C26.2,4,27.5,3,28.9,3ZM27.6,4.6h0a5.3,5.3,0,0,0,2.1-.5l-.3-.2C28.2,4.1,27.6,4.3,27.6,4.6Zm.3,29.7.2.5c.2,0,.2-.2.3-.6v-1a7.7,7.7,0,0,0,.7-2.4V29.5c.2-.1.4-.3.4-.4a3.9,3.9,0,0,1-.3-1.4h0q.3,0,.6-6.9a.7.7,0,0,0-.3-.5h-.1c-.6,0-.9,2-1.1,6.1Zm1.4,9.3h-.9v.2H31v-.2H29.3ZM28.8,6.3h.4c.5,0,.8-.1.9-.5h-.8c-.4,0-.6.1-.6.4ZM28.9,42l.3.2h.1c.3,0,.5-.2.5-.6h-.3A.5.5,0,0,0,28.9,42Zm.7-4.1v.3h.2L30,38h0v-.2h-.1Zm0-1.1v.4h.2c.2-.1.3-.3.3-.8V36h-.2C29.8,36,29.7,36.3,29.6,36.8Zm.1-19.9v.2a1.8,1.8,0,0,1,1,.6h.2c.1,0,.1-.1.1-.2h.1c.1,0,.3.2.4.6h.1l.8-.7v-.3H29.7Zm.3,3.5.3,1-.4,1c.2.5.3.7.4.7h.1v-.8c0-1.5.2-2.3.7-2.3v-.5h-.5C30.3,19.4,30,19.8,30,20.4Zm.5,10.5a19.3,19.3,0,0,0-.5,3.5h.1c.2,0,.5-.9.8-2.6v-.9ZM30.1,9.1v.2h1.1V9.1H30.1ZM30.9,21v.3a.5.5,0,0,0,.3.5h.1l.3-.2v-.3a1,1,0,0,0-.5-.4Zm.8-13.2V8h.2a.8.8,0,0,0,.7-.4V7.4h-.2A.8.8,0,0,0,31.7,7.8Zm0,8,.2.2H32v-.2l-.2-.2Zm1.2-9.7v.2H33l.2-.2V5.9h-.1Zm1.3,35.8a1,1,0,0,0,1.1.8h.2v-.4l.5-.3v-.4a.5.5,0,0,0-.3-.5h-.2c-.1,0-.3.2-.4.6Zm.3-2.7a3.3,3.3,0,0,0,1.3.4v-.2c0-.1-.2-.2-.7-.3h-.6Zm.1,4.2h.1l.2-.2h-.1Zm1.5,2.5h.5l-.2-.2h-.1Z" transform="translate(-0.2 0)" style="fill:#b75326"/><path d="M39.1,0h.5c3.7.4,5.8.9,6.5,1.5s.5.8.8,2.4l-.3.6v.2c.4.6.7,3.1.9,7.7,0,8.4.2,13.7.6,16h.3c2.2-1.8,5.6-4.3,10.3-7.5.4,0,.7-1.9.9-5.5,0-.9.4-1.4,1.3-1.4h2.5q5.5,0,6.6,1.2h0l-.2.3a5.4,5.4,0,0,0-1.7-.4h-.2c0,.3.6.5,1.8.7s.5.9.5,2.8-.3,1.2-.9,1.2-.5.3-.9.8H66.7c0,.6-.5,1-1.4,1.4s-.2.1-.2.3v.4l-5.8,4.1v.2c0,.3,2.1,4.5,6.1,12.5.5,1.2.9,2.1,1.1,2.8h-.3l-.4-.4h-.2c0,.5.8.7,2.3.7s4.2.3,4.2.8l-.5.6a8.3,8.3,0,0,1,.8,4,.8.8,0,0,1-.9.9H71a55,55,0,0,0-7.3-.3h-.3c-.5,0-.9-.6-1.1-1.9A27.3,27.3,0,0,0,61,41.1c-.6-1.5-2-4.4-4.1-8.5-.7-2.1-1.2-3.1-1.6-3.1s-1.8.6-3.4,1.8a1.9,1.9,0,0,1-1.2.7c-.2,0-.3-.1-.3-.2h0l.2-.2v-.2h-.4c-.2,0-.5.6-.8,1.7v.4a1,1,0,0,0-.5,1v6.7c0,.5.9.8,2.7,1a4.9,4.9,0,0,0,1.8.9l.3.6v1.6l.2.8v.2a2.4,2.4,0,0,1-.9.8h-.4v.2c0,.3.3.5.8.7h0c0,.2-.2.3-.7.4l-2.9-.8a61.8,61.8,0,0,1-7.8-.7l-.8.2c-.6-.3-.8-.9-.8-2v-.3h-.1a2.3,2.3,0,0,1,.9-1.8h.3v1l.2.3h.8l-.3-.3v-.2h1.1l-.7-.8h.9v-.2a.8.8,0,0,0-.6-.2H41.4c0-.3.9-.6,2.8-.9l2.1-.4.2-.2h-.9c-.3,0-.5-1.8-.5-5.3A40.4,40.4,0,0,0,44,26.6c-.3-10.1-.6-16.3-1-18.4a5.3,5.3,0,0,0-2.2-.4L39,8.3a2.6,2.6,0,0,1-.7-1.2v-4q.1-.9.3-.9H39a2.3,2.3,0,0,0-.5-1V1c.3-.1.5-.1.5-.3L38.8.3V0Zm1.5,4.6h0c0,.2.4.4,1,.5v.2q-1.2,0-1.2.3v.3h.8a1.3,1.3,0,0,0,1.3-1l.3-.4q0-.3-1.5-.3h-.2C40.8,4.4,40.6,4.4,40.6,4.6Zm1.6,40.3h3.3c1.3,0,2-.1,2-.3h0l-1.3-.2ZM44,46.1l6.6.9v-.2c0-.6-1.2-.8-3.7-.8H44Zm.5-42.6v.2a1,1,0,0,0,.7.6,1.6,1.6,0,0,0,.5-1.1h-.3A1.5,1.5,0,0,0,44.5,3.5Zm1,6.5v1.5q0,1.5.3,1.5h.1V11.9C45.9,10.6,45.7,10,45.5,10Zm-.1,9v.3h.1l.3-.2-.3-.2Zm1.3,25.2v.2h.2v-.2Zm.2-14.6h.3v-.2h-.1Zm0,5.2v.9H47c.4,0,.5-.2.5-.6V34h-.2A1,1,0,0,0,46.9,34.8Zm0-2.4V33h.3c.2-.1.3-.3.3-.7h0a3.6,3.6,0,0,0-.2-1.4h-.1Q46.9,30.9,46.9,32.4Zm0,8.5.3.3h.1a.5.5,0,0,0,.3-.5c0-.3-.1-.4-.2-.4A.6.6,0,0,0,46.9,40.9Zm.4-3.7v1h.1c.2-.1.2-.3.2-.6v-.4Zm1.4-8v.2H49a1.9,1.9,0,0,0,1.3-.7v-.3A2.3,2.3,0,0,0,48.7,29.2Zm0,15.2H49v-.2Zm.5,1.2h0l.9.2h.4c0-.1-.4-.2-1.1-.2Zm1.6-1.4a1.5,1.5,0,0,0,1.4.8h0l.2-.2a1.7,1.7,0,0,0-.6-.9h-.4A.7.7,0,0,0,50.8,44.2Zm.4-13.6h.2a6,6,0,0,0,2.1-1.3h0C52,30,51.2,30.4,51.2,30.6Zm0,16.2V47H52a.5.5,0,0,0-.5-.3Zm1.7-3.3h0l.2.2h.1v-.2h-.3Zm3.3-14.4q.4,1.2.9,1.2h.1c-.1-.9-.4-1.4-.9-1.4S56.2,28.9,56.2,29.1Zm2.2,3.3h0a20.1,20.1,0,0,0,2.2,5.2h.3v-.2c0-.9-.8-2.6-2.4-5Zm1-7.7v.2h.1c1.4-.4,3.3-1.6,5.8-3.6v-.2h-.1A15.9,15.9,0,0,0,59.4,24.7Zm.1-2.6h0A8.9,8.9,0,0,0,61.4,21c.4-.1.6-.3.6-.4v-.3h-.3c-.5,0-1.3.6-2.2,1.7Zm.6-2.9.2.2h.1a.5.5,0,0,0,.5-.3h-.2C60.3,19,60.1,19,60.1,19.2Zm.2-1.4c.1.5.2.8.3.8H61c.1,0,.2-.1.2-.3l-.3-.7.3-1.1v-.2h-.1A1.4,1.4,0,0,0,60.3,17.8Zm.8,20.5h0a4.2,4.2,0,0,0,1.1,2h.1a4.1,4.1,0,0,0-1.1-2.1h-.1Zm.3-24h0v.2h.3v-.2h-.5Zm.2,20.3v.2l.3.2h0v-.4Zm2,7.8h0l.2.3h.5l.2-.3h0a.5.5,0,0,0-.5-.3C63.7,42.2,63.6,42.3,63.6,42.4Zm2.3-24.1,2,.3c.5-.1.7-.2.7-.3v-.2H66.9C66.2,18,65.9,18.1,65.9,18.3ZM66.8,48h.6C67,47.8,66.8,47.9,66.8,48Zm.3-3,.3.2h.3l.2-.2v-.2h-.5Zm1.3.1h0l.3.2H69v-.3Zm2.7-1v.3h.3v-.3h-.3Zm.1,1.9v1.1h.1c.1,0,.2-.4.2-1.2v-.5h0A.6.6,0,0,0,71.2,46Z" transform="translate(-0.2 0)" style="fill:#b75326"/><path d="M87.2,15.6c1.7,0,3.8.8,6.3,2.2s3.1,2.7,3.1,3.3c1.7,3.5,2.5,5.6,2.5,6.2v.5a9.4,9.4,0,0,0-.9,2.9H92.5l-1.7.2c-6-.5-10.1-.7-12.5-.7H77a3.5,3.5,0,0,0-.7,1.5,4.8,4.8,0,0,1,.4,2.2c0,1.6.2,2.5.7,2.8v.3h0l-.4-.2v.2l.6.6a3.1,3.1,0,0,0,1.1,2c1.4,2.4,2.8,3.9,4.4,4.5a16.3,16.3,0,0,0,4.7.6,3.9,3.9,0,0,0,1.7-.7c.8-.3,2.4-1.6,4.7-4.1h0c0-.1-.3-.2-.8-.3v-.3a6.8,6.8,0,0,1,3.4-3.5l2.3,1.7a49.7,49.7,0,0,0,3.6,4.9v.3c-1.3,1.7-2.3,2.5-2.9,2.5h-.2c0-.9-.5-1.4-1.6-1.5s-1.2.7-2.8,2a13.8,13.8,0,0,1-4.8,2.1,33.5,33.5,0,0,1-5.7.9l-3.5-1.3c-2,0-3.8-1.1-5.5-3.2A7.3,7.3,0,0,1,74,41.6c0-.3-.5-2-1.4-5.1a15.5,15.5,0,0,1-.4-3.4h0a21.9,21.9,0,0,1,4.9-14.4A4.7,4.7,0,0,1,80,16.3a32.9,32.9,0,0,1,3.6-.7ZM73.3,31.3h-.1v.2h.1a2,2,0,0,0-.2.9v.3a4.4,4.4,0,0,0,.7,2h.1C73.9,32.7,73.7,31.6,73.3,31.3Zm0-2.3v.4c.1.2.1.4.3.4s.2-.2.3-.6l-.3-.2Zm.8-3.3a5.4,5.4,0,0,0-.8,2.5h.1c.2,0,.6-.7,1.1-2.2S74.3,25.7,74.1,25.7Zm.1,11h0V37h.2v-.2h-.3Zm.6,1.1h-.1c.2.6.5,1,.7,1h.1A1.5,1.5,0,0,0,74.8,37.8Zm1.8-8.2h1.1l-.2-.3h-.2A.7.7,0,0,0,76.6,29.6Zm.1-7.4h.1Zm0,3.9v.4h.1a2.3,2.3,0,0,0,.7-.7v-.2h-.3A.6.6,0,0,0,76.7,26.1Zm.6-1.6v.2c0,.5,3.7,1,11.2,1.5l.6.2h.8a13.6,13.6,0,0,0,3.3.9c0,.1.1.2.4.3a1.7,1.7,0,0,0,.4-1.1V25.3c0-.6-1-1.8-3.1-3.6A5.9,5.9,0,0,0,87.7,20l-2.1-.3c-3.4.7-5.6,1.5-6.7,2.5A16,16,0,0,1,77.3,24.5Zm0-1h0a.5.5,0,0,0,.3-.5h0A.5.5,0,0,0,77.3,23.5Zm.2,21.2v.2c0,.3.4.5,1.1.7l.2.3h0c-.5-.6-.8-1-1.1-1.1Zm.4-23.9V21H78c.6-.2.9-.3.9-.5h-.3A1,1,0,0,0,77.9,20.8Zm.4,8.4v.4h.3v-.3h-.3ZM79,17.9h0v.2h.1c.8-.2,1.2-.4,1.2-.7v-.3l-.2-.3h-.1C79.3,17.2,79,17.5,79,17.9Zm.8,10.7v.2a46.2,46.2,0,0,0,6.5.5H85.1c0,.2.5.3,1.6.3s2.5-.1,2.5-.3S86.1,28.8,79.8,28.6Zm.6-2.1v.2a8.5,8.5,0,0,0,4.3.8H86v-.3Zm.1-6.1a9.5,9.5,0,0,1,2.5-1h-.7Q80.5,19.5,80.5,20.4Zm1-3.4h.1a14.8,14.8,0,0,0,3.7-.7c.3-.1.5-.2.5-.3h-.2a10.8,10.8,0,0,0-4,.9h-.1ZM82,44.9h0q0,.3,1.2.6h.1a3.6,3.6,0,0,0-1.3-.5Zm2.1-26.6h0c0,.2.9.4,2.6.7h.1v-.2a2,2,0,0,0-1.7-.8h-.2C84.4,18,84.1,18.1,84.1,18.3Zm1.3,27.3v.2h.3v-.2Zm2.4,1.6H86.2c-.4,0-.6,0-.6.2h0l.2.2h1.1a18.6,18.6,0,0,0,4.5-.6h0c0-.2-.3-.3-.7-.3h-.3A5.8,5.8,0,0,0,87.8,47.2ZM86.7,17.3v.2a6.1,6.1,0,0,0,2.5.4h0v-.2c0-.1-.2-.2-.7-.3Zm1.2,1.4h0a25,25,0,0,0,3.7,2h.1l.7-.2h.4L91.7,20l-1.2-.5a2,2,0,0,0-2-1.1h-.2C88,18.5,87.9,18.5,87.9,18.7Zm3.6,9.4v.2h.2v-.2Zm.1,1.7c0,.1.4.2,1.1.2h.6c0-.2-.4-.3-1.3-.3S91.6,29.7,91.6,29.8Zm0,14.1h.1c.3-.1.4-.4.6-.7h-.1C91.8,43.4,91.6,43.6,91.6,43.9Zm.4,2.7c.5,0,.8-.3,1.1-1h-.2C92.3,46,92,46.3,92,46.6Zm.7-24.9a.6.6,0,0,0,.6.5h.1v-.6l-.3-.3C92.8,21.3,92.7,21.4,92.7,21.7Zm.8,20.2h.2c.4,0,.7-.3.8-.8h0A1,1,0,0,0,93.5,41.9ZM94,22.5a5.4,5.4,0,0,0,1,2.2h.4c-.3-1.3-.7-2-1.1-2H94Zm.9,15.9h.4c.3,0,.5-.1.5-.2l-.2-.3h-.1A.5.5,0,0,0,94.9,38.4Zm.3,5.8h.3q.6-.6.6-.9H96C95.5,43.5,95.2,43.8,95.2,44.2Zm1-18.8V26c.2,0,.3-.2.3-.4v-.2h-.4Zm.2,17,.2.2c.6-.2.9-.5.9-.8h-.1C96.8,41.7,96.5,41.9,96.4,42.4Zm1.4-.6H98a.5.5,0,0,0,.4-.6h-.1C98,41.4,97.8,41.6,97.8,41.8Zm2.2-.6h-.1c.2.5.3.8.5.8h.1l.2-.2h0A.7.7,0,0,0,100,41.2Z" transform="translate(-0.2 0)" style="fill:#b75326"/><path d="M123.8,15.4l3,.2h5l.2.2a6.7,6.7,0,0,0-.3,1.7v1.1c.1,1.2.4,1.7.9,1.7a5.9,5.9,0,0,1,2.5-1.3c3.3-1.4,6-2.2,8.2-2.2a7.9,7.9,0,0,1,4.5,1.9,8.1,8.1,0,0,1,3.4,2.9,17,17,0,0,1,2.5,9.5v.5l-.4,4.4.4,3.2-.6,2.9h0v.6h3.4a1.9,1.9,0,0,1,1.3.3c-.2,3-.6,4.5-1,4.5a5.3,5.3,0,0,1-2.6.7h-1.3a23.5,23.5,0,0,0-6.2.8c-1.5-.2-2.2-.9-2.2-2.2V44.8a4.6,4.6,0,0,1,1-3.1,44.2,44.2,0,0,1,1.4-5.5l.4-5.4c.1,0,.1-.5.1-1.4s-.9-2.7-2.6-4.8l-2.4-.8a8.8,8.8,0,0,0-6.4,3q-.3,0-3,3-.9.8-.9,4.2c.1,4.1.2,6.2.5,6.2s2.4.6,2.4.9v.3h-2.3v.2q0,.3,2.4.6a2.7,2.7,0,0,1,.4,1.5h0a9.7,9.7,0,0,1-.7,3.1h-7.1a1.5,1.5,0,0,1-1.6-1,40.8,40.8,0,0,1-.6-4.6c0-.2.7-.5,1.9-.7l.3-.4h0a2.3,2.3,0,0,0-.5-1V33.7l.2-5.7c0-3.8-.2-5.8-.5-5.8h-.3l-2.9.4c-.3,0-.7-.3-1.2-.8v-.2a1.7,1.7,0,0,0,.3-1V18.3l1-2.8Zm-.3,4.1h0c0,.2.1.3.4.3a1.9,1.9,0,0,0,1.1-.5h-1C123.7,19.4,123.5,19.4,123.5,19.5Zm.5-2.1h0c0,.2.3.2.9.3,2.7,0,4.1-.2,4.1-.6l.2-.4H129Zm.1,4.1h.6l.2-.2h-.3C124.2,21.3,124.1,21.4,124.1,21.5Zm1.1-2.6.2.2h.1c.6-.1.8-.2.8-.3h-.2C125.5,18.7,125.2,18.8,125.2,18.9Zm.6,1.4h1.4c.4,0,.6.1.7.3h0a1.3,1.3,0,0,0-.3.7l.7.2a.2.2,0,0,0,.2-.2V19.1h-.2l-2.5,1h0Zm.5,21.5h0q.2,1.2.9,1.2h.3l.2-.3h0a1.9,1.9,0,0,1-.6-1.2h-.6Zm1.7-19v.3h.1l.2-.9h-.2C128.1,22.2,128,22.4,128,22.8Zm1,21.7c0,.2.6.3,1.7.3s3-.1,3-.3-.7-.4-2-.4A5.4,5.4,0,0,0,129,44.5Zm.9-24V22a2,2,0,0,1-.2.9v.4l.2.9v.4a.8.8,0,0,0,.3.7c.1,0,.2-.4.4-1.4s.9-.8.9-1.1a5.7,5.7,0,0,0-.7-1.3c-.1-.7-.3-1-.5-1Zm.8,3.9v.4a1.4,1.4,0,0,1-.5.9.9.9,0,0,1,.3.6c0,2.1.1,3.2.4,3.2h.1a7.8,7.8,0,0,0,.4-2.9c0-1.6-.2-2.4-.5-2.4h-.1C130.8,24.2,130.7,24.2,130.7,24.4Zm1.7-3.3v.2a2.6,2.6,0,0,0,1.8-1.1h-.1A3.1,3.1,0,0,0,132.4,21.1Zm.1,3.4v.2c1-.1,2.5-1,4.4-2.7h-.4a5.4,5.4,0,0,0-1.5.8C133.3,23.4,132.5,24,132.5,24.5Zm.4,1.7v.2h.2V26H133Zm1.4-.3h0l.2.2h.2l.2-.7h-.2Zm1.2-.9h.2c.6-.6.9-1,.9-1.3h-.1C136.2,23.7,135.8,24.1,135.5,25Zm.5-5.5h.1c.4-.1.5-.2.5-.3h-.1C136.2,19.3,136,19.4,136,19.5Zm1.1-.6.2.2c1.9-.5,2.9-.8,2.9-1h-.1a5.8,5.8,0,0,0-3,.9Zm.3,5.4c.9-.2,1.4-.4,1.4-.7h-.3C137.9,23.5,137.5,23.7,137.4,24.3Zm2.9-3.5V21h.3c.7-.1,1-.3,1-.4v-.2h-.4C140.6,20.5,140.3,20.6,140.3,20.8Zm1-3h0a3.1,3.1,0,0,1,1.5.7l.7.2h2c-.1-.2-.3-.3-.7-.3H144a4,4,0,0,0-2-.8C141.6,17.5,141.4,17.6,141.3,17.8Zm.1,4.3h.2c.9,0,1.4-.1,1.4-.2l-.6-.2C141.7,21.9,141.4,22,141.4,22.1Zm2.2,1.2v.2h1.5l.2-.2v-.2l-.3-.3h-.3C144,23,143.6,23.1,143.6,23.3Zm1.2-2.7c0,.2.4.3,1.1.4a.9.9,0,0,0,.3-.6c0-.2-.3-.3-1-.5A1,1,0,0,0,144.8,20.6Zm.6,27.1v.2c0,.2.5.4,1.6.4h.8a2.8,2.8,0,0,0-2-.6h-.2Zm.2-3v.4h.5l-.3-.3Zm.2-23.2h.4Zm1.2-1.1a.5.5,0,0,0,.5.3h.3l.3-.2h0c0-.1-.3-.2-.6-.2h-.3Zm.1,1.7v.2a9.1,9.1,0,0,0,.8,1.7c0,.3.1.5.3.5l.2-.2V24a2.6,2.6,0,0,0-1.2-1.9Zm0,24.2a.8.8,0,0,0,.7.5c2.2-.1,3.3-.2,3.3-.4a1.7,1.7,0,0,0-1.5-.5C147.9,45.9,147.1,46.1,147.1,46.3Zm.7-7.5a2.1,2.1,0,0,1,.3,1.2h.1l.2-.8v-1A.5.5,0,0,0,147.8,38.8Zm.3-13.7v.3a12.1,12.1,0,0,0,1,2.9v-1C148.9,25.9,148.5,25.1,148.1,25.1Zm0,12.7h.1c.2-.1.3-.3.3-.7v-.7h-.1C148.3,36.5,148.2,36.9,148.1,37.8Zm2.1,4.7v.3l.2.2h.1l.2-.2h0l-.3-.3Zm.1-1.1h0l.3-.7h-.1C150.4,40.7,150.3,40.9,150.3,41.4Zm0-3.2v.3h.2v-.3Zm.1-4.9h0l.3.8h.3C150.9,33.6,150.8,33.3,150.4,33.3Zm.4-8c.1,2.2.3,3.3.7,3.3h.1c-.2-2.2-.4-3.3-.7-3.3Zm1.1,13.2v2.8h.1a3.2,3.2,0,0,0,.7-1.8h0C152.6,38.8,152.4,38.5,151.9,38.5Zm1.9,5.4v.2c1.8,0,2.8-.2,2.8-.4v-.2h-.9C154.4,43.6,153.8,43.7,153.8,43.9Zm.5,1.3v.2a.6.6,0,0,0,.6.3c.7,0,1.1-.2,1.2-.5h0c-.1-.2-.3-.3-.7-.3h-.3C154.7,44.8,154.4,44.9,154.3,45.2Z" transform="translate(-0.2 0)" style="fill:#b75326"/><path d="M174.5,15.6c1.7,0,3.8.8,6.3,2.2s3.2,2.7,3.2,3.3c1.6,3.5,2.4,5.6,2.4,6.2v.5a9.4,9.4,0,0,0-.9,2.9h-5.6l-1.8.2c-5.9-.5-10.1-.7-12.4-.7h-1.4a3.5,3.5,0,0,0-.7,1.5A4.8,4.8,0,0,1,164,34c0,1.6.3,2.5.7,2.8v.3h0l-.4-.2v.2l.7.6a2.7,2.7,0,0,0,1.1,2c1.3,2.4,2.8,3.9,4.4,4.5a15.1,15.1,0,0,0,4.6.6,4.6,4.6,0,0,0,1.8-.7c.8-.3,2.3-1.6,4.6-4.1h0c0-.1-.2-.2-.8-.3v-.3a7.2,7.2,0,0,1,3.4-3.5l2.3,1.7a49.7,49.7,0,0,0,3.6,4.9v.3c-1.3,1.7-2.2,2.5-2.8,2.5h-.3c0-.9-.5-1.4-1.6-1.5a11.7,11.7,0,0,0-2.7,2,15.5,15.5,0,0,1-4.9,2.1,33.5,33.5,0,0,1-5.7.9l-3.5-1.3c-2,0-3.8-1.1-5.4-3.2a7.5,7.5,0,0,1-1.8-2.7,34.5,34.5,0,0,0-1.4-5.1,25.5,25.5,0,0,1-.4-3.4h0a22.4,22.4,0,0,1,4.9-14.4,5,5,0,0,1,2.9-2.3l3.6-.7ZM160.6,31.3h0v.2h0a2.2,2.2,0,0,0-.1.9v.3a4.1,4.1,0,0,0,.6,2h.1C161.2,32.7,161,31.6,160.6,31.3Zm0-2.3v.4c0,.2.1.4.2.4s.2-.2.3-.6l-.2-.2Zm.8-3.3a5.4,5.4,0,0,0-.8,2.5h.1c.2,0,.6-.7,1.1-2.2S161.6,25.7,161.4,25.7Zm.1,11h0V37h.2v-.2h-.3Zm.6,1.1H162c.3.6.5,1,.7,1h.1A1.3,1.3,0,0,0,162.1,37.8Zm1.8-8.2h1.2l-.3-.3h-.1A.9.9,0,0,0,163.9,29.6Zm.1-7.4h.1Zm0,3.9v.4h.1a2.3,2.3,0,0,0,.7-.7v-.2h-.2A.8.8,0,0,0,164,26.1Zm.6-1.6v.2c0,.5,3.7,1,11.2,1.5l.6.2h.8a14.9,14.9,0,0,0,3.3.9c0,.1.2.2.4.3a1.7,1.7,0,0,0,.4-1.1V25.3c0-.6-1-1.8-3.1-3.6A5.6,5.6,0,0,0,175,20l-2.1-.3c-3.4.7-5.6,1.5-6.7,2.5A10.6,10.6,0,0,1,164.6,24.5Zm.1-1h0a.5.5,0,0,0,.3-.5h0A.5.5,0,0,0,164.7,23.5Zm.1,21.2v.2c.1.3.4.5,1.1.7l.3.3h0a5.3,5.3,0,0,0-1.1-1.1Zm.5-23.9V21h.1c.5-.2.8-.3.8-.5h-.3A.7.7,0,0,0,165.3,20.8Zm.3,8.4v.4h.3v-.3h-.3Zm.7-11.3h0l.2.2h0c.9-.2,1.3-.4,1.3-.7v-.3l-.3-.3h-.1C166.7,17.2,166.3,17.5,166.3,17.9Zm.8,10.7v.2a47.8,47.8,0,0,0,6.5.5h-1.2c0,.2.5.3,1.6.3s2.6-.1,2.6-.3S173.4,28.8,167.1,28.6Zm.6-2.1v.2a8.5,8.5,0,0,0,4.3.8h1.3v-.3A53.2,53.2,0,0,0,167.7,26.5Zm.2-6.1a8.4,8.4,0,0,1,2.4-1h-.7C168.5,19.4,167.9,19.8,167.9,20.4Zm.9-3.4h.1a14.1,14.1,0,0,0,3.7-.7q.6-.2.6-.3h-.3a11.3,11.3,0,0,0-4,.9h-.1Zm.5,27.9h0c0,.2.4.4,1.3.6h.1a3.9,3.9,0,0,0-1.4-.5Zm2.2-26.6h0c0,.2.8.4,2.5.7h.1v-.2a1.9,1.9,0,0,0-1.7-.8h-.2C171.7,18,171.5,18.1,171.5,18.3Zm1.3,27.3v.2h.2v-.2Zm2.3,1.6h-1.5c-.4,0-.6,0-.7.2h0l.3.2h1.1a19.9,19.9,0,0,0,4.5-.6h0c-.1-.2-.3-.3-.8-.3h-.3A5.8,5.8,0,0,0,175.1,47.2ZM174,17.3v.2a6.1,6.1,0,0,0,2.5.4h.1v-.2c0-.1-.3-.2-.8-.3Zm1.2,1.4h0a19.1,19.1,0,0,0,3.8,2h.1l.6-.2h.4l-1-.4-1.3-.5a1.9,1.9,0,0,0-2-1.1h-.2C175.3,18.5,175.2,18.5,175.2,18.7Zm3.6,9.4v.2h.3v-.2Zm.1,1.7c0,.1.4.2,1.1.2h.6q0-.3-1.2-.3C179.1,29.6,178.9,29.7,178.9,29.8Zm0,14.1h.2a1.3,1.3,0,0,0,.5-.7h0C179.1,43.4,178.9,43.6,178.9,43.9Zm.5,2.7c.4,0,.7-.3,1-1h-.2C179.7,46,179.4,46.3,179.4,46.6Zm.6-24.9a.6.6,0,0,0,.6.5h.1v-.6l-.3-.3C180.2,21.3,180,21.4,180,21.7Zm.8,20.2h.2c.4,0,.7-.3.9-.8h0C181.4,41.1,181.1,41.3,180.8,41.9Zm.5-19.4c.4,1.3.8,2.1,1.1,2.2h.3c-.3-1.3-.7-2-1.1-2h-.3Zm1,15.9h.4c.2,0,.4-.1.4-.2l-.2-.3h-.1C182.5,38,182.4,38.1,182.3,38.4Zm.3,5.8h.2q.6-.6.6-.9h-.1A.9.9,0,0,0,182.6,44.2Zm.9-18.8V26a.4.4,0,0,0,.4-.4v-.2h-.5Zm.2,17,.2.2c.6-.2.9-.5.9-.8h0C184.2,41.7,183.8,41.9,183.7,42.4Zm1.5-.6h.2a.7.7,0,0,0,.4-.6h-.2A.7.7,0,0,0,185.2,41.8Zm2.1-.6h-.1c.2.5.4.8.6.8h.1v-.2h0A.7.7,0,0,0,187.3,41.2Z" transform="translate(-0.2 0)" style="fill:#b75326"/><path d="M217.1,12.7c6.1.1,9.1.5,9.1,1.2l.3,2a6.7,6.7,0,0,0-.6,2.7l-.4.2-2.7-.4h-.2a21.8,21.8,0,0,0-1.3,4.5c-.6,3.5-1.3,7.1-2.1,10.7s-.8,6.7-1.4,7.6-.8,3.4-1.4,6.8h-4.7c-1.1-.1-1.8-.2-1.9-.5h0a16.9,16.9,0,0,1,3.9-.5c.7-.1,1-.3,1-.4h-.1l-5.2.5a6.1,6.1,0,0,1-1.1-3,19.7,19.7,0,0,1-1.2-6c-.2,0-.4-.9-.8-2.5A27.2,27.2,0,0,0,205,29c0-.2-.1-.2-.1-.2s-.7,1.6-1.7,4.8c-1.6,5.1-2.7,8.3-3.3,9.8a2.5,2.5,0,0,1-1.2,1v.2c.6.4.9.8.9,1.1s-.9.5-2.2.6-3.9.4-4.2-.1a4,4,0,0,1-.4-2v-.7a56.8,56.8,0,0,0-1.4-11.2,14,14,0,0,0-.8-3.5V26.7h0c0-5.2-.1-7.8-.4-7.8a25,25,0,0,0-4.4-.3c-.7,0-1.2-.7-1.6-2.1h0a5.2,5.2,0,0,1,1.3-2.4H188a33.8,33.8,0,0,1,4.9.3c1.4.2,2,.3,2,.5v.4c.4.7.6,2.3.6,4.9.3,5.1.5,8.5.5,10.4v5.3c0,2.9.2,4.6.8,5.1s1.4-1.6,1.9-4.8,3.2-8.3,4.6-11.6l1.1-1.3-.4-.5h0c0-.2.5-.4,1.7-.6s3.3.4,3.6,1.8a27.3,27.3,0,0,1,.6,4.5c.8,5.3,1.4,10.1,1.8,14.2a2.5,2.5,0,0,0,.5.7h.4c.7,0,1.1-.5,1.1-1.5a23.1,23.1,0,0,0,1-4.9c.9-4.5,1.7-12.4,2.2-24Zm-31.7,2.6v.2h.2c1.8-.1,2.8-.3,2.8-.5s-.6-.3-1.6-.3S185.4,15,185.4,15.3Zm.2,1.8v.2a.8.8,0,0,0,.6.4l.3-.2-.3-.4Zm1.7,0h.2Zm4.4,3.4v1c.1,2,.2,2.9.4,2.9h.2v-.7a11.7,11.7,0,0,0-.4-3.2Zm.7,8.9v.9h.2v-.9Zm1.2-4.7v.8a63.2,63.2,0,0,0,.8,7h.2v-.9a29.2,29.2,0,0,0-.7-6.9Zm.4,13.8c0,.7,0,1.1.2,1.1h.1a9,9,0,0,0,.2-1.8c0-.4-.1-.6-.2-.6S194,37.6,194,38.5Zm0,3.2V42a.6.6,0,0,0,.6.4V42l-.3-.4Zm.1,3.1.2.2h.3v-.3h-.3Zm2.4-1.9h.5v-.4C196.6,42.4,196.5,42.6,196.5,42.9Zm2.8-3.1v.4h.3c0,.4-.6,1.2-1.8,2.5h.1c1.3-.4,1.9-1,1.9-1.9a46.5,46.5,0,0,0,1.7-5.7h-.2C200.6,35.6,199.9,37.1,199.3,39.8ZM203,28.6l.3.2v-.2h-.1Zm1.9-3.9h-.1v.7h.1c.1,0,.2-.1.2-.3Zm2.7,5.7h0a7.9,7.9,0,0,0,.7,4h.1c-.3-2.7-.5-4-.7-4Zm1.6-5.1h.1v.2h-.1Zm.1,17.3v.9c0,.2.1.2.4.2s1.1-.2,1.1-.4V43h-.1l-.7.3c-.1,0-.3-.3-.3-.8h-.2Zm3.2,1.4c0,.1,0,.1.2.1s.6-.1.6-.3h-.2Q212.5,43.7,212.5,44Zm1.4.1h0l.3.3h.3c.2,0,.3-.2.4-.8v-.4h-.1C214.2,43.5,213.9,43.8,213.9,44.1Zm.7-1.6v.2h.1c.4,0,.6-.8.8-2.5.2,0,.5-1.4.9-4.3v-.5h-.1a8.3,8.3,0,0,0-1,3.3A15.6,15.6,0,0,1,214.6,42.5ZM221.7,16v.2l.4.4h.4l.2-.3h0v-.9l2.4-.2h-2.3C222,15.4,221.7,15.7,221.7,16Zm.1-1.6h.9c1.7,0,2.5,0,2.6-.2v-.2C223,14.1,221.9,14.2,221.8,14.4Z" transform="translate(-0.2 0)" style="fill:#b75326"/><path d="M260.6,13a18,18,0,0,1,4.1.9c2.4,2.2,3.8,4,4.2,5.2s1.6,2.8,2.2,5.7c.7.6,1,2.1,1,4.4v1.5l-.2,6.1c0,1.2.7,2.7,2.2,4.6s2.3,2,2.7,2h0q0,.8-2.1,2.4c-1.1,1.1-1.8,1.6-2.1,1.6h0c-.7-.1-2.3-1.3-5-3.7l-7.4,3a22.1,22.1,0,0,1-5.4.7h-.3a12.4,12.4,0,0,1-5.7-2.6l-1.8-3.1a5.3,5.3,0,0,1-1.1-3.4V36.7a5.3,5.3,0,0,1,1-3.2,13.1,13.1,0,0,1,2.8-4.8,5.4,5.4,0,0,1,1.9-1.6,14.1,14.1,0,0,1,6.4-1.6h3.1a5.7,5.7,0,0,1,3.4.7h.3a.3.3,0,0,0,.3-.3,18.6,18.6,0,0,0-2.2-5.6c-.9-1.5-2.6-2.3-5.1-2.3l-2.4-.3c-2.2.4-3.3.9-3.3,1.4a7.3,7.3,0,0,0-1.6,4.1c-.1.2-.8.3-2.2.3H248c-.2,0-.4.4-.6,1.1s-1.8-.4-1.8-.7a24.5,24.5,0,0,0,.5-4.5,10.8,10.8,0,0,1,4.7-5.2,10.3,10.3,0,0,1,2.1-1.1Zm-12.2,8.7v.9h0c.2,0,.3-.2.3-.4v-.5l-.2-.2Zm.7-4.6h0c.4,0,.9-.4,1.7-1.2v-.2h-.1c-.4,0-.9.5-1.6,1.3Zm.8,24.8h.4l-.2-.3H250Zm.1,3.3h0c.2.4,1.2.9,3.1,1.4a6,6,0,0,0,2.4.5h0c0-.2-.7-.4-2.3-.7a12,12,0,0,1-2.8-1.3h-.2Zm.8-15.9v.3h.1a.5.5,0,0,0,.6-.4V29h0Zm0,5.6c.3,2.5.6,3.7,1,3.7l.6.8h-.5v.2a12.4,12.4,0,0,0,4.8,3l1.2.3c.9,0,3.7-1.2,8.6-3.6.3-.2.5-.4.5-.7v-.3c-.4-1.7-.7-3.7-1-5.9h0c0-.4-.5-.8-1.4-1.1a26.3,26.3,0,0,0-6.3-1.3c-3,.7-5.2,1.8-6.4,3.1A2.9,2.9,0,0,0,250.8,34.9ZM254.6,15h0q0,.3.6.3a4.1,4.1,0,0,0,1.6-.4v-.2h-.3Zm2.1,29.3a.5.5,0,0,0,.5.3c.5,0,.7-.2.7-.3h0l-.2-.2h-.8Zm.6-27.5.2.3h1l-.3-.3h-.6Zm2.3-2.4.3.2h.4l-.2-.3h-.3Zm2.2,29h.3a4.9,4.9,0,0,0,2.3-.7h-.2A5.5,5.5,0,0,0,261.8,43.4Zm2.6-28.7h0a1,1,0,0,0,.8.5h.1v-.2a1,1,0,0,0-.8-.4Zm3,21.2v.3l.2.2h.1l.2-.2v-.3l-.2-.2h-.2Zm.1-2.1.2.2h.2v-.2l-.2-.2h0Zm1.7-3V31h0Zm.1,1.3v.2h.3v-.2Zm.1-3.3V29c.2.6.3.9.5.9h.1a1.6,1.6,0,0,0-.4-1.2h-.2Zm.3,5h0c0,1.5.2,2.3.5,2.3V36h0a4.8,4.8,0,0,0-.4-2.2Zm.9,8.9a1,1,0,0,0,.5.6h.1l.2-.3h0l-.3-.3h-.5Zm.3-16.2h0c.1.3.1.5.3.5v-.3c0-.2-.1-.3-.2-.3ZM272,43.8V44l.3.2h.3V44h0l-.3-.4h-.2Zm.6-2.2V42c.1.5.3.7.5.7h.2c-.2-.7-.4-1-.6-1Z" transform="translate(-0.2 0)" style="fill:#b75326"/><path d="M291.1,14.3h2a17.3,17.3,0,0,1,4.8,1.3,8.9,8.9,0,0,1,3.9,1.6h.3c.5,0,1.5-.8,3-2.5.3,0,1,.6,1.8,1.7a4,4,0,0,1,1.5,1.2v.2c-2.4,2.5-3.5,3.9-3.5,4.2a42.8,42.8,0,0,1-2.2,6.3,8.3,8.3,0,0,1-3.4,2.1c-1.8,1.8-3.4,2.8-4.8,2.8h-1.9l-4-.4h-.8c-.3,0-.7,1.4-1.3,4.1l.5.2h.2a4.3,4.3,0,0,0,2.1-.8h4a33.6,33.6,0,0,1,9.7,1.1l2.7,1.4,2.1,1.5a10.2,10.2,0,0,1,3.1,3.8,16.4,16.4,0,0,1,2.2,7.3q0,2.3-3.6,5.7l-3.7,2.7a13.4,13.4,0,0,1-7.1,1.9l-1.7.2c-7.3,0-12.3-1.5-14.9-4.5a5,5,0,0,1-2.9-4.4,10.9,10.9,0,0,1-1-5.2l-.2-1.4.2-.8h.2c.2,1,.3,1.4.5,1.4h.2a38.8,38.8,0,0,1,1.4-5.2h-.1a13.5,13.5,0,0,0-1.8,3.4h-.1c-.2,0-.3-.3-.3-.7a12.9,12.9,0,0,1,2.3-4.3,9.7,9.7,0,0,0,2.3-2.6c.5-3.4.8-5.6,1-6.3a11.3,11.3,0,0,1-1.6-5.1V25a20.1,20.1,0,0,1,.8-3.9l2.7-3.3C287.7,15.5,289.6,14.3,291.1,14.3ZM278.8,49.2v.4l.2.3h.1v-.7h-.3Zm.3,1.1h0c0,.3.1.5.2.5h.2v-.2l-.3-.3Zm1.9-5.4v.3h.1c.2,0,.4-.6.7-1.9h-.1A2.3,2.3,0,0,0,281,44.9Zm.6-3.6v.2h.1c1-.2,1.5-.6,1.5-1V40A3.5,3.5,0,0,0,281.6,41.3Zm0,13.2c.1.3.2.4.3.4l.3-.3c0-.1-.1-.3-.4-.4Zm.7-5v1.3c.1.8.2,1.3.3,1.3h.1c.2-.1.2-.2.2-.5v-.8q0-1.5-.3-1.5h-.1Zm.4-6.2v.3h.1l.4-.4V43A.5.5,0,0,0,282.7,43.3Zm.1-19a3.3,3.3,0,0,0,.6,2.1h.2a.2.2,0,0,0,.2-.2c-.2-1.7-.4-2.6-.6-2.6S282.8,23.8,282.8,24.3Zm10.4,17h.1v.2h-6.9c-1.9,1.8-2.8,3-2.8,3.7l-.4.4h0c.3,4.2.7,6.8,1.2,7.7a10.2,10.2,0,0,0,2.3,1.8q0,.6,3.6,1.5a61.2,61.2,0,0,0,9,.9c3.1-.6,5.2-1.5,6.4-2.7s3-3.8,3-5v-.4c0-.7-.8-2.1-2.4-4.1a5.4,5.4,0,0,0-1.9-1.7,13,13,0,0,0-5.5-2.2h-3.8v-.4h-.7Zm-9.9,14.8h.6v-.3h-.4Zm.3-33.7h.1a6.4,6.4,0,0,0,1-1.3h-.2C284.3,21.1,283.9,21.5,283.6,22.4Zm0,20.3v.2h.1l.8-.2v-.3h-.2C283.8,42.5,283.6,42.6,283.6,42.7Zm0-13.1v.2a3.1,3.1,0,0,0,1.8,1.4h0q-.6-1.5-1.5-1.5Zm.5,10.6.3.2h.4l.3-.3v-.4l-.3-.2C284.5,39.5,284.2,39.7,284.1,40.2Zm.1,15.2v.2l.3.2h.3a.5.5,0,0,0-.5-.3Zm.8-22.9v.4c0,.4.2.7.6.7V32.2h-.3Zm.7-7.3h0a2.9,2.9,0,0,0,.7,1.8h.1v-.2c-.1-1-.3-1.7-.6-1.8Zm.5,5h0a.9.9,0,0,0,.8.6c.1,0,.2-.2.3-.4s-.3-.3-.9-.5Zm.5-6.7v.3c.6,3.1,1.1,4.7,1.4,4.7a4.1,4.1,0,0,0,2.4,1.4c3.2,0,5.4-.7,6.8-2.1a8.9,8.9,0,0,0,2.2-3,3.1,3.1,0,0,0,.5-1.3v-.9a6.4,6.4,0,0,0-1.5-3.1,16,16,0,0,0-4.6-1.4,8.2,8.2,0,0,0-5.6,2.5A5.6,5.6,0,0,0,286.7,23.5Zm.1,15.7,2,.2.8-.2a1.9,1.9,0,0,0-.7-.8h-.8C287.3,38.6,286.8,38.8,286.8,39.2Zm.5-19.5h.2c.3,0,.6-.3,1-.9v-.2h-.4C287.6,19.1,287.3,19.4,287.3,19.7Zm.4,11.1h0v.5l.2.2H289v-.2Zm.6,9.8.2.2h.4v-.3h-.4Zm.5-24.7h0c1.4-.3,2.1-.7,2.1-.9h-.1A3.2,3.2,0,0,0,288.8,15.9Zm10.3,42.9c-4.9-.4-7.8-.7-8.6-1h-1.6a5.3,5.3,0,0,0,2,.9h1.9l.5.3h.1a18.3,18.3,0,0,0,3.5.3h1.4a7.3,7.3,0,0,0,3.8-.7,8.5,8.5,0,0,0,2.5-1.1h0C302.3,57.9,300.4,58.3,299.1,58.8Zm-9.5-27.1c0,.3.7.5,2.1.5h1.7a.6.6,0,0,0,.5-.2,10.4,10.4,0,0,0-3.5-.5h-.6Zm.4,5.7Zm.3-20.3v.3h.1l1.9-.7v-.3h-.5C290.8,16.6,290.3,16.9,290.3,17.1Zm.5,42.9h-.1l.2.2h.2Zm1,.5h0q0,.3.6.3h.7c0-.2-.4-.3-1.1-.3Zm1.7-29.9c0,.1.4.2,1.1.2h.5c0-.2-.3-.4-.8-.4h-.6Zm.1,6.8h0c0,.3,2.1.6,6.3.7l1.3.5h.1c.2,0,.3-.1.5-.3h1.8c-.2-.4-.7-.6-1.4-.6h-.6l-.6.2h0l-1.4-.6-4.1-.2h-.6Zm1.5-7.5h0l.3.4h.3a2.8,2.8,0,0,0,1.2-1h-.5A1.8,1.8,0,0,0,295.1,29.9Zm1.8,30.7v.2c0,.1.2.2.4.2h1.2v-.3h-1.6Zm0-19.8c0,.2,1.1.3,3.2.4a16.3,16.3,0,0,1,4.4,2.1h.8l.3-.2h0c-.4-.6-1.7-1.2-4-1.9l-4.3-.6Zm.4-10.9v.2h.1l.5-.4h-.4Zm0,9.5h0q0,.2,1.5.3h.1l-1.5-.2Zm.4-10.3h.2a2.4,2.4,0,0,0,1.1-.8v-.2A3.3,3.3,0,0,0,297.7,29.1Zm1.2-1.4h.4c.8,0,1.2-.9,1.4-2.6v-.3h-.2A15.7,15.7,0,0,0,298.9,27.7Zm1.3,32.8h.2c.8-.1,1.2-.3,1.2-.7h-.3C300.7,60.1,300.3,60.3,300.2,60.5Zm.4-41.4h0c.3.8.6,1.2,1.1,1.2s.1-.1.1-.2-.3-.6-.9-1.1Zm1.3,8.4-.2.3h.2c.1,0,.2-.2.2-.4Zm0,33.3h.2a11.8,11.8,0,0,0,3.1-1.5h-.3C302.9,59.7,301.9,60.2,301.9,60.8Zm1.2-21.2.2.2h.2v-.3h-.2Zm1,.7c0,.2.5.5,1.5.7h.2a1.8,1.8,0,0,0-1.3-.6h-.4Zm.7-20.4v.3h.1a10.2,10.2,0,0,0,1.8-1.9v-.2h-.1Q306,18.1,304.8,19.9Zm.3-3.6h0c0,.2.2.3.5.3h.3v-.2l-.4-.3h-.2Zm.7,27.3a12.1,12.1,0,0,0,1.8,2.5h.1v-.2c-.6-1.5-1.1-2.3-1.7-2.3Zm.3-2.1h0l2.4,2.1h.1a3.6,3.6,0,0,0-2.1-2.1Zm1.2,13h0v.2c1.1-.3,1.6-.9,1.6-1.6v-.4h-.2C307.8,53.6,307.3,54.2,307.3,54.5Zm2.5-5.9h0l.3.2h.1l.2-.2h-.6Zm1.4,1.8h0c0,.4,0,.6.2.7h.1a4.1,4.1,0,0,0,.5-1.9h-.2A1.4,1.4,0,0,0,311.2,50.4Zm.1-2.2h0l.2.2h.1v-.2Z" transform="translate(-0.2 0)" style="fill:#b75326"/><path d="M326.7,13a18,18,0,0,1,4.1.9,17.6,17.6,0,0,1,4.3,5.2q1.2,1.3,2.1,5.7c.7.6,1,2.1,1,4.4v1.5l-.2,6.1c0,1.2.7,2.7,2.2,4.6s2.3,2,2.8,2h0c0,.5-.8,1.3-2.2,2.4s-1.8,1.6-2.1,1.6h0c-.6-.1-2.3-1.3-5-3.7l-7.3,3a23.6,23.6,0,0,1-5.5.7h-.3a12.4,12.4,0,0,1-5.7-2.6,34,34,0,0,1-1.7-3.1,4.8,4.8,0,0,1-1.1-3.4V36.7a5.9,5.9,0,0,1,.9-3.2,13.1,13.1,0,0,1,2.8-4.8,5.4,5.4,0,0,1,1.9-1.6,14.1,14.1,0,0,1,6.4-1.6h3.1a5.7,5.7,0,0,1,3.4.7h.4c.1,0,.2-.1.2-.3a18.6,18.6,0,0,0-2.2-5.6c-.9-1.5-2.5-2.3-5-2.3l-2.5-.3c-2.2.4-3.3.9-3.3,1.4a8,8,0,0,0-1.6,4.1c-.1.2-.8.3-2.2.3h-.4c-.1,0-.3.4-.6,1.1s-1.7-.4-1.7-.7a30.4,30.4,0,0,0,.4-4.5,10.8,10.8,0,0,1,4.7-5.2,10.3,10.3,0,0,1,2.1-1.1Zm-12.2,8.7v.9h.1c.1,0,.2-.2.2-.4v-.5l-.2-.2Zm.7-4.6h.1c.3,0,.9-.4,1.6-1.2v-.2h-.1c-.4,0-.9.5-1.6,1.3Zm.8,24.8h.4l-.2-.3h-.1Zm.1,3.3h0c.2.4,1.3.9,3.1,1.4a6.2,6.2,0,0,0,2.5.5h0c0-.2-.8-.4-2.4-.7a14.3,14.3,0,0,1-2.8-1.3h-.2Zm.8-15.9v.3h.1a.8.8,0,0,0,.7-.4V29h-.1Zm0,5.6c.3,2.5.6,3.7,1,3.7l.7.8H318v.2a13.2,13.2,0,0,0,4.8,3l1.3.3c.8,0,3.6-1.2,8.5-3.6.3-.2.5-.4.5-.7v-.3a43.4,43.4,0,0,1-.9-5.9h-.1c0-.4-.5-.8-1.4-1.1a25.8,25.8,0,0,0-6.2-1.3c-3.1.7-5.3,1.8-6.5,3.1A3.5,3.5,0,0,0,316.9,34.9ZM320.7,15h0c.1.2.3.3.7.3a3.7,3.7,0,0,0,1.5-.4v-.2h-.3Zm2.1,29.3a.6.6,0,0,0,.6.3c.4,0,.6-.2.6-.3h0l-.2-.2H323Zm.6-27.5.3.3h.9l-.3-.3h-.5Zm2.4-2.4.2.2h.5l-.3-.3h-.3Zm2.1,29h.3a4.9,4.9,0,0,0,2.3-.7h-.2A5.5,5.5,0,0,0,327.9,43.4Zm2.6-28.7h0a1.1,1.1,0,0,0,.9.5h.1v-.2a1.2,1.2,0,0,0-.9-.4Zm3,21.2v.3l.2.2h.1l.2-.2v-.5h-.3Zm.1-2.1.2.2h.2v-.4h-.1Zm1.8-3V31h0Zm0,1.3v.2h.3v-.2Zm.1-3.3V29c.2.6.4.9.5.9h.1a1.6,1.6,0,0,0-.4-1.2h-.2Zm.3,5h0c.1,1.5.2,2.3.5,2.3V36h0a4.8,4.8,0,0,0-.4-2.2Zm.9,8.9c.2.3.3.5.5.6h.1l.2-.3h0l-.3-.3h-.5Zm.4-16.2h0c0,.3.1.5.2.5v-.3q-.1-.3-.3-.3Zm1.1,17.3V44l.2.2h.3V44h0l-.3-.4h-.2Zm.5-2.2V42c.1.5.3.7.5.7h.2c-.2-.7-.4-1-.6-1Z" transform="translate(-0.2 0)" style="fill:#b75326"/><path d="M345.7,14.8a2,2,0,0,0,1.3.4l.7-.3c5.6,0,8.4.1,8.4.5v1.4a6.9,6.9,0,0,1,.5,2.4v1c-.4,5.7-.7,11.1-.9,16.3a2.3,2.3,0,0,0-.3,1.3.6.6,0,0,0,.6.3h.2c2.2,0,3.3.2,3.3.7h0v.4a13.3,13.3,0,0,1,.7,4.7l.2,2.5h-9c-4.7,0-7-.3-7-1.1a3.5,3.5,0,0,0-.3-1.3,1.3,1.3,0,0,1,.6-.7h.1a.7.7,0,0,0,.6.2h.1l4.3-.3h0c-3.5-.2-5.3-.5-5.3-.8V41.3l-.2-1.5c0-.5,1.5-.7,4.7-.7q.6,0,.6-2.7l.7-16.3h-.1c-1.5,0-2.1-.1-1.6-.4-2.5,0-3.7-.3-3.7-.9s-.2-.2-.2-.5l.3-.7a.7.7,0,0,0-.4-.6h0c.4-.3.6-.9.7-2h.3Zm.2,26.5h0c.3.4,1.5.6,3.8.6h.4q.6,0,.6-.3h0l-4.4-.3Zm.6-25.2v.2h.3c1.1,0,1.6-.1,1.6-.3h-.3C347.1,15.9,346.5,15.9,346.5,16.1Zm.2.9h0c0,.1.3.2.9.2h2.9c.6,0,1-.1,1-.2h0c0-.3-1.3-.3-3.7-.1ZM354,2.7a4.1,4.1,0,0,1,3.5,2.2l.4,2.1a8.2,8.2,0,0,1-1.4,3,3.6,3.6,0,0,1-2.5.8q-3.7,0-4.8-1.2a5.7,5.7,0,0,1-.9-3.4.2.2,0,0,1-.2-.2h0C349.3,4,350.6,3,351.9,3Zm-3.3,1.9h0a5.3,5.3,0,0,0,2.1-.5l-.3-.2C351.3,4.1,350.7,4.3,350.7,4.6Zm.3,29.7c.1.3.1.5.2.5s.2-.2.3-.6v-1a7.7,7.7,0,0,0,.7-2.4v-.4l-.2-.9c.3-.1.4-.3.4-.4a7.8,7.8,0,0,1-.2-1.4h0q.3,0,.6-6.9c-.2-.4-.3-.5-.4-.5h0c-.6,0-.9,2-1.1,6.1Zm1.3,9.3h-.8v.2h2.6v-.2h-1.8Zm-.4-37.3h.4c.5,0,.8-.1.9-.5h-.8c-.4,0-.6.1-.6.4ZM352,42l.3.2h0a.5.5,0,0,0,.6-.6h-.3A.5.5,0,0,0,352,42Zm.7-4.1v.3h.2l.2-.2h0v-.2h-.1Zm0-1.1v.4h.2c.2-.1.3-.3.3-.8V36H353C352.9,36,352.8,36.3,352.7,36.8Zm.1-19.9v.2a1.8,1.8,0,0,1,1,.6h.2c.1,0,.1-.1.1-.2h.1c.1,0,.3.2.4.6h.1l.8-.7v-.3h-2.7Zm.3,3.5.3,1-.4,1c.2.5.3.7.4.7h.1v-.8c0-1.5.2-2.3.7-2.3v-.5h-.5C353.4,19.4,353.1,19.8,353.1,20.4Zm.5,10.5a19.3,19.3,0,0,0-.5,3.5h.1c.2,0,.5-.9.8-2.6v-.9Zm-.4-21.8v.2h1.1V9.1h-1.2ZM354,21v.3a.5.5,0,0,0,.3.5h.1l.3-.2v-.3a1,1,0,0,0-.5-.4Zm.8-13.2V8h.2a.8.8,0,0,0,.7-.4V7.4h-.2A.8.8,0,0,0,354.8,7.8Zm0,8,.2.2h.1v-.2l-.2-.2ZM356,6.1v.2h.1l.2-.2V5.9h-.1Zm1.3,35.8c.1.5.4.8,1.1.8h.2v-.4l.5-.3v-.4a.5.5,0,0,0-.3-.5h-.2c-.1,0-.3.2-.4.6Zm.3-2.7a3.3,3.3,0,0,0,1.3.4v-.2c0-.1-.2-.2-.7-.3h-.6Zm.1,4.2h.1l.2-.2h-.1Zm1.5,2.5h.4v-.2h-.1Z" transform="translate(-0.2 0)" style="fill:#b75326"/><path d="M362.4,15.4l2.9.2h5.1v.2a6.7,6.7,0,0,0-.3,1.7v1.1c.2,1.2.5,1.7,1,1.7s1.1-.8,2.4-1.3a22.9,22.9,0,0,1,8.2-2.2,8.4,8.4,0,0,1,4.6,1.9,8.1,8.1,0,0,1,3.4,2.9,17.9,17.9,0,0,1,2.5,9.5v.5l-.4,4.4.4,3.2-.6,2.9h0v.6h3.4a1.9,1.9,0,0,1,1.3.3c-.3,3-.6,4.5-1,4.5a6,6,0,0,1-2.7.7h-1.2a23.5,23.5,0,0,0-6.2.8c-1.5-.2-2.2-.9-2.2-2.2V44.8a4.1,4.1,0,0,1,1-3.1c.4-1.9.8-3.8,1.3-5.5l.4-5.4c.1,0,.2-.5.2-1.4s-.9-2.7-2.6-4.8a14.8,14.8,0,0,0-2.4-.8,9.1,9.1,0,0,0-6.5,3,27,27,0,0,0-2.9,3c-.7.5-1,1.9-1,4.2.1,4.1.3,6.2.5,6.2s2.4.6,2.4.9v.3h-2.3v.2q0,.3,2.4.6a2.1,2.1,0,0,1,.4,1.5h0a9.4,9.4,0,0,1-.6,3.1h-7.2a1.4,1.4,0,0,1-1.5-1,40.8,40.8,0,0,1-.6-4.6c0-.2.6-.5,1.9-.7l.3-.4h0a1.8,1.8,0,0,0-.6-1V33.7L366,28c0-3.8-.2-5.8-.6-5.8h-.3l-2.9.4c-.3,0-.7-.3-1.1-.8v-.2a1.7,1.7,0,0,0,.3-1V18.3l.9-2.8Zm-.3,4.1h0a.3.3,0,0,0,.3.3,1.9,1.9,0,0,0,1.2-.5h-1.1C362.2,19.4,362.1,19.4,362.1,19.5Zm.4-2.1h0c0,.2.3.2,1,.3,2.7,0,4-.2,4-.6l.2-.4h-.1Zm.1,4.1h.6l.3-.2h-.3Q362.6,21.4,362.6,21.5Zm1.2-2.6.2.2h.1l.8-.3h-.3C364.1,18.7,363.8,18.8,363.8,18.9Zm.5,1.4h1.4c.4,0,.7.1.7.3h0a1.3,1.3,0,0,0-.3.7l.8.2a.2.2,0,0,0,.2-.2V19.1h-.2l-2.5,1h-.1Zm.6,21.5h0c0,.8.3,1.2.8,1.2h.3l.3-.3h0c-.4-.5-.7-.8-.7-1.2H365Zm1.7-19v.3h.1l.2-.9h-.2C366.7,22.2,366.6,22.4,366.6,22.8Zm1,21.7c0,.2.5.3,1.6.3s3.1-.1,3.1-.3-.7-.4-2.1-.4S367.7,44.3,367.6,44.5Zm.8-24V22a1.2,1.2,0,0,1-.3.9v.4l.3.9v.4a.7.7,0,0,0,.4.7c.1,0,.2-.4.4-1.4s.8-.8.8-1.1a3.2,3.2,0,0,0-.7-1.3c-.1-.7-.2-1-.4-1Zm.9,3.9v.4a1.2,1.2,0,0,1-.6.9.7.7,0,0,1,.4.6c0,2.1.1,3.2.4,3.2h.1a7.8,7.8,0,0,0,.4-2.9c0-1.6-.2-2.4-.5-2.4h-.1C369.4,24.2,369.3,24.2,369.3,24.4Zm1.6-3.3v.2a2.7,2.7,0,0,0,1.9-1.1h-.1A3,3,0,0,0,370.9,21.1Zm.1,3.4v.2c1.1-.1,2.5-1,4.5-2.7h-.4a5.4,5.4,0,0,0-1.5.8C371.9,23.4,371,24,371,24.5Zm.4,1.7.2.2h.2l-.2-.2h0Zm1.5-.3h0v.2h.3v-.7h-.1ZM374,25h.2c.7-.6,1-1,1-1.3h-.1C374.7,23.7,374.4,24.1,374,25Zm.6-5.5h.1l.5-.3h-.1C374.7,19.3,374.6,19.4,374.6,19.5Zm1.1-.6v.2c2-.5,2.9-.8,2.9-1h-.1a5.7,5.7,0,0,0-2.9.9Zm.3,5.4c.9-.2,1.3-.4,1.3-.7H377C376.4,23.5,376.1,23.7,376,24.3Zm2.9-3.5V21h.3c.6-.1.9-.3.9-.4v-.2h-.4C379.2,20.5,378.9,20.6,378.9,20.8Zm1-3h0a3.1,3.1,0,0,1,1.5.7l.7.2h2c-.1-.2-.3-.3-.7-.3h-.9a3.8,3.8,0,0,0-1.9-.8C380.2,17.5,380,17.6,379.9,17.8Zm.1,4.3h.1c1,0,1.4-.1,1.4-.2l-.5-.2C380.3,21.9,380,22,380,22.1Zm2.1,1.2v.2h1.6l.2-.2v-.2l-.3-.3h-.3C382.5,23,382.1,23.1,382.1,23.3Zm1.3-2.7c0,.2.4.3,1.1.4a.9.9,0,0,0,.3-.6c0-.2-.3-.3-1-.5A.8.8,0,0,0,383.4,20.6Zm.5,27.1v.2c0,.2.6.4,1.7.4h.8a2.8,2.8,0,0,0-2-.6h-.2Zm.3-3v.4h.4l-.3-.3Zm.1-23.2h.4Zm1.3-1.1c0,.2.2.3.5.3h.3l.3-.2h0l-.6-.2h-.3Zm.1,1.7v.2a5,5,0,0,0,.8,1.7c0,.3.1.5.2.5l.3-.2V24a2.6,2.6,0,0,0-1.2-1.9Zm0,24.2a.7.7,0,0,0,.7.5c2.2-.1,3.3-.2,3.3-.4s-.8-.5-1.6-.5S385.7,46.1,385.7,46.3Zm.7-7.5a2.1,2.1,0,0,1,.3,1.2h.1l.2-.8v-1A.5.5,0,0,0,386.4,38.8Zm.3-13.7v.3a16.2,16.2,0,0,0,.9,2.9v-1C387.4,25.9,387.1,25.1,386.7,25.1Zm0,12.7h.1c.2-.1.2-.3.2-.7v-.7h0C386.9,36.5,386.8,36.9,386.7,37.8Zm2.1,4.7v.3l.2.2h.1v-.2h0l-.2-.3Zm.1-1.1h0l.3-.7h-.1C388.9,40.7,388.9,40.9,388.9,41.4Zm0-3.2v.3h.2v-.3Zm.1-4.9h0l.2.8h.3C389.5,33.6,389.3,33.3,389,33.3Zm.4-8q.2,3.3.6,3.3h.1q-.2-3.3-.6-3.3Zm1.1,13.2-.2,1.3v1.5h.1a3.4,3.4,0,0,0,.8-1.8h0C391.2,38.8,390.9,38.5,390.5,38.5Zm1.8,5.4v.2c1.9,0,2.8-.2,2.8-.4v-.2h-.8C393,43.6,392.3,43.7,392.3,43.9Zm.6,1.3v.2a.5.5,0,0,0,.5.3,1.4,1.4,0,0,0,1.3-.5h0c-.1-.2-.3-.3-.7-.3h-.3C393.2,44.8,393,44.9,392.9,45.2Z" transform="translate(-0.2 0)" style="fill:#b75326"/><path d="M403.9,39.4a5.7,5.7,0,0,1,2.7,1,3.6,3.6,0,0,1,.2,1.1v.8c0,1.7-1,2.9-2.9,3.7l-.8.4c-.8,0-1.7-.8-2.5-2.4v-.4c0-1.7.3-2.8.9-3.2A5.2,5.2,0,0,1,403.9,39.4Zm-2,2.7c.1,1.1.3,1.6.4,1.6a7.8,7.8,0,0,0,.6-2.1l.2-.4v-.3H403C402.3,41.2,401.9,41.6,401.9,42.1Zm.3,2.7c0,.3.1.4.4.5h.7a1.6,1.6,0,0,0,1.2-.6h0Zm1.3-2.3h0c0,.4.1.7.3.7h.1c.2,0,.5-.4.7-1.3v-.3h-.3C403.8,41.6,403.6,41.9,403.5,42.5Zm1.9.8h.3v-.6h-.1C405.6,42.8,405.5,43,405.4,43.3Z" transform="translate(-0.2 0)" style="fill:#231f20"/></g></g></svg>