<svg xmlns="http://www.w3.org/2000/svg" viewBox="0 0 312.4 49.2"><title>icn_rotator_Asset 65_adj</title><g id="Layer_2" data-name="Layer 2"><g id="Layer_1-2" data-name="Layer 1"><path d="M4.2.3,6.8.9l4-.2c1,0,1.6.3,1.6,1A34.2,34.2,0,0,0,12,7.9V29.4l-.3,11.7a36.4,36.4,0,0,0,6.4.8h0v.8c0,.3.2.6.7,1.1a37.3,37.3,0,0,0-1.6,4.3l-.5.5h-.2a1.8,1.8,0,0,0-1.6-.6L4.8,46.7c-3,0-4.6-.2-4.6-.5a14.1,14.1,0,0,0,1.1-4.8H2.7a4.3,4.3,0,0,1,1.7-.5l1,.3h.7q.6,0,.6-1.2c.2-1.5.4-6,.6-13.6C7.1,24,6.8,17.2,6.6,6c-.2-.2-.4-.4-.6-.4l-2.8.2c-.5-.1-.7-.2-.7-.5C2.7,2.1,3,.5,3.3.5Zm-3,45.4.2.2h.3l.2-.2-.3-.2H1.5Zm.8-3h.4v-.3H2.2ZM3.3,3.4v.4l.2.3H5.2V3.8L4,3.3l-.3-.2H3.6Zm.2-1.6h0a.5.5,0,0,0,.6.6h.3a2.1,2.1,0,0,0,1.3-.7H3.5Zm.3,40.6h0a.5.5,0,0,0,.5.5h.1v-.5l-.3-.2H3.8Zm.7,2.1h0l.2.2h.9c.7,0,1-.1,1-.2h0l-1.7-.2H4.8Zm.7-1.3h.9V43H5.6C5.3,43,5.2,43,5.2,43.2ZM6.9,1.8l.5.2H8l.3-.2H6.9Zm.7,36.5v.2c.1.3.2.4.3.4l.3-.3v-.4c-.1-.6-.2-.8-.3-.8S7.6,37.7,7.6,38.3Zm.3-20v.3h.3v-.3H8.1c0-.2.2-.3.5-.4v-.2H8.3A.8.8,0,0,0,7.9,18.3Zm.2-6.6h.3v-.3H8.3Zm.2-3.4v.4h.1V8.1H8.4Zm.5,17.9h.1q.3,0,.3-2.4C9.1,23.9,8.9,24.6,8.8,26.2ZM9,4.1h.4l1.4-.8a1.3,1.3,0,0,0,.3-.7h-.3c-.4,0-.7.2-1.1.7S9,3.7,9,4.1Zm1.2,25H10V40.7h.6c.1,0,.2-.2.2-.6Q10.6,29.1,10.2,29.1Zm.7-12.4v2h.1c.1,0,.2-.3.2-.8v-1Zm-.1,2.5v.4h.3v-.3Zm0-3.3h0l.3.3h0V16h-.3ZM12.9,44h0c0,.2.6.4,2,.4H17v-.2h-.6Zm1.5,1.7.2.2h1.3q.6,0,.6-.3H15.2C14.7,45.5,14.4,45.6,14.4,45.7Zm1.3-3.3h0c.2.3.5.4,1.1.4l.3-.2v-.2H15.7Zm.1,4.6v.2h.9V47h-.9Z" transform="translate(-0.2 0)" style="fill:#b75326"/><path d="M22.6,14.8a2,2,0,0,0,1.3.4l.7-.3c5.6,0,8.4.1,8.4.5v1.4a5.2,5.2,0,0,1,.5,2.4v1c-.4,5.7-.7,11.1-.9,16.3a2.3,2.3,0,0,0-.3,1.3.6.6,0,0,0,.6.3h.2c2.2,0,3.4.2,3.4.7h-.1v.4a13.3,13.3,0,0,1,.7,4.7l.2,2.5h-9c-4.7,0-7-.3-7-1.1a3.5,3.5,0,0,0-.3-1.3,1.3,1.3,0,0,1,.6-.7h.1a.7.7,0,0,0,.6.2h.1l4.3-.3h0c-3.5-.2-5.3-.5-5.3-.8V41.3l-.2-1.5c0-.5,1.6-.7,4.7-.7q.6,0,.6-2.7l.7-16.3h-.1c-1.5,0-2.1-.1-1.6-.4-2.4,0-3.7-.3-3.7-.9s-.2-.2-.2-.5l.3-.7a.7.7,0,0,0-.4-.6h0c.4-.3.6-.9.7-2h.3Zm.2,26.5h0c.3.4,1.5.6,3.8.6H27q.6,0,.6-.3h0l-4.4-.3Zm.6-25.2v.2h.3c1.1,0,1.6-.1,1.6-.3H25C24,15.9,23.4,15.9,23.4,16.1Zm.3.9h0c0,.1.2.2.8.2h2.9c.6,0,1-.1,1-.2h0c0-.3-1.2-.3-3.7-.1ZM30.9,2.7a4.1,4.1,0,0,1,3.5,2.2L34.8,7a8.2,8.2,0,0,1-1.4,3,3.6,3.6,0,0,1-2.5.8q-3.7,0-4.8-1.2a5.1,5.1,0,0,1-.8-3.4c-.2,0-.3-.1-.3-.2h0C26.2,4,27.5,3,28.9,3ZM27.6,4.6h0a5.3,5.3,0,0,0,2.1-.5l-.3-.2C28.2,4.1,27.6,4.3,27.6,4.6Zm.3,29.7.2.5c.2,0,.2-.2.3-.6v-1a7.7,7.7,0,0,0,.7-2.4V29.5c.2-.1.4-.3.4-.4a3.9,3.9,0,0,1-.3-1.4h0q.3,0,.6-6.9a.7.7,0,0,0-.3-.5h-.1c-.6,0-.9,2-1.1,6.1Zm1.4,9.3h-.9v.2H31v-.2H29.3ZM28.8,6.3h.4c.5,0,.8-.1.9-.5h-.8c-.4,0-.6.1-.6.4ZM28.9,42l.3.2h.1c.3,0,.5-.2.5-.6h-.3A.5.5,0,0,0,28.9,42Zm.7-4.1v.3h.2L30,38h0v-.2h-.1Zm0-1.1v.4h.2c.2-.1.3-.3.3-.8V36h-.2C29.8,36,29.7,36.3,29.6,36.8Zm.1-19.9v.2a1.8,1.8,0,0,1,1,.6h.2c.1,0,.1-.1.1-.2h.1c.1,0,.3.2.4.6h.1l.8-.7v-.3H29.7Zm.3,3.5.3,1-.4,1c.2.5.3.7.4.7h.1v-.8c0-1.5.2-2.3.7-2.3v-.5h-.5C30.3,19.4,30,19.8,30,20.4Zm.5,10.5a19.3,19.3,0,0,0-.5,3.5h.1c.2,0,.5-.9.8-2.6v-.9ZM30.1,9.1v.2h1.1V9.1H30.1ZM30.9,21v.3a.5.5,0,0,0,.3.5h.1l.3-.2v-.3a1,1,0,0,0-.5-.4Zm.8-13.2V8h.2a.8.8,0,0,0,.7-.4V7.4h-.2A.8.8,0,0,0,31.7,7.8Zm0,8,.2.2H32v-.2l-.2-.2Zm1.2-9.7v.2H33l.2-.2V5.9h-.1Zm1.3,35.8a1,1,0,0,0,1.1.8h.2v-.4l.5-.3v-.4a.5.5,0,0,0-.3-.5h-.2c-.1,0-.3.2-.4.6Zm.3-2.7a3.3,3.3,0,0,0,1.3.4v-.2c0-.1-.2-.2-.7-.3h-.6Zm.1,4.2h.1l.2-.2h-.1Zm1.5,2.5h.5l-.2-.2h-.1Z" transform="translate(-0.2 0)" style="fill:#b75326"/><path d="M39.1,0h.5c3.7.4,5.8.9,6.5,1.5s.5.8.8,2.4l-.3.6v.2c.4.6.7,3.1.9,7.7,0,8.4.2,13.7.6,16h.3c2.2-1.8,5.6-4.3,10.3-7.5.4,0,.7-1.9.9-5.5,0-.9.4-1.4,1.3-1.4h2.5q5.5,0,6.6,1.2h0l-.2.3a5.4,5.4,0,0,0-1.7-.4h-.2c0,.3.6.5,1.8.7s.5.9.5,2.8-.3,1.2-.9,1.2-.5.3-.9.8H66.7c0,.6-.5,1-1.4,1.4s-.2.1-.2.3v.4l-5.8,4.1v.2c0,.3,2.1,4.5,6.1,12.5.5,1.2.9,2.1,1.1,2.8h-.3l-.4-.4h-.2c0,.5.8.7,2.3.7s4.2.3,4.2.8l-.5.6a8.3,8.3,0,0,1,.8,4,.8.8,0,0,1-.9.9H71a55,55,0,0,0-7.3-.3h-.3c-.5,0-.9-.6-1.1-1.9A27.3,27.3,0,0,0,61,41.1c-.6-1.5-2-4.4-4.1-8.5-.7-2.1-1.2-3.1-1.6-3.1s-1.8.6-3.4,1.8a1.9,1.9,0,0,1-1.2.7c-.2,0-.3-.1-.3-.2h0l.2-.2v-.2h-.4c-.2,0-.5.6-.8,1.7v.4a1,1,0,0,0-.5,1v6.7c0,.5.9.8,2.7,1a4.9,4.9,0,0,0,1.8.9l.3.6v1.6l.2.8v.2a2.4,2.4,0,0,1-.9.8h-.4v.2c0,.3.3.5.8.7h0c0,.2-.2.3-.7.4l-2.9-.8a61.8,61.8,0,0,1-7.8-.7l-.8.2c-.6-.3-.8-.9-.8-2v-.3h-.1a2.3,2.3,0,0,1,.9-1.8h.3v1l.2.3h.8l-.3-.3v-.2h1.1l-.7-.8h.9v-.2a.8.8,0,0,0-.6-.2H41.4c0-.3.9-.6,2.8-.9l2.1-.4.2-.2h-.9c-.3,0-.5-1.8-.5-5.3A40.4,40.4,0,0,0,44,26.6c-.3-10.1-.6-16.3-1-18.4a5.3,5.3,0,0,0-2.2-.4L39,8.3a2.6,2.6,0,0,1-.7-1.2v-4q.1-.9.3-.9H39a2.3,2.3,0,0,0-.5-1V1c.3-.1.5-.1.5-.3L38.8.3V0Zm1.5,4.6h0c0,.2.4.4,1,.5v.2q-1.2,0-1.2.3v.3h.8a1.3,1.3,0,0,0,1.3-1l.3-.4q0-.3-1.5-.3h-.2C40.8,4.4,40.6,4.4,40.6,4.6Zm1.6,40.3h3.3c1.3,0,2-.1,2-.3h0l-1.3-.2ZM44,46.1l6.6.9v-.2c0-.6-1.2-.8-3.7-.8H44Zm.5-42.6v.2a1,1,0,0,0,.7.6,1.6,1.6,0,0,0,.5-1.1h-.3A1.5,1.5,0,0,0,44.5,3.5Zm1,6.5v1.5q0,1.5.3,1.5h.1V11.9C45.9,10.6,45.7,10,45.5,10Zm-.1,9v.3h.1l.3-.2-.3-.2Zm1.3,25.2v.2h.2v-.2Zm.2-14.6h.3v-.2h-.1Zm0,5.2v.9H47c.4,0,.5-.2.5-.6V34h-.2A1,1,0,0,0,46.9,34.8Zm0-2.4V33h.3c.2-.1.3-.3.3-.7h0a3.6,3.6,0,0,0-.2-1.4h-.1Q46.9,30.9,46.9,32.4Zm0,8.5.3.3h.1a.5.5,0,0,0,.3-.5c0-.3-.1-.4-.2-.4A.6.6,0,0,0,46.9,40.9Zm.4-3.7v1h.1c.2-.1.2-.3.2-.6v-.4Zm1.4-8v.2H49a1.9,1.9,0,0,0,1.3-.7v-.3A2.3,2.3,0,0,0,48.7,29.2Zm0,15.2H49v-.2Zm.5,1.2h0l.9.2h.4c0-.1-.4-.2-1.1-.2Zm1.6-1.4a1.5,1.5,0,0,0,1.4.8h0l.2-.2a1.7,1.7,0,0,0-.6-.9h-.4A.7.7,0,0,0,50.8,44.2Zm.4-13.6h.2a6,6,0,0,0,2.1-1.3h0C52,30,51.2,30.4,51.2,30.6Zm0,16.2V47H52a.5.5,0,0,0-.5-.3Zm1.7-3.3h0l.2.2h.1v-.2h-.3Zm3.3-14.4q.4,1.2.9,1.2h.1c-.1-.9-.4-1.4-.9-1.4S56.2,28.9,56.2,29.1Zm2.2,3.3h0a20.1,20.1,0,0,0,2.2,5.2h.3v-.2c0-.9-.8-2.6-2.4-5Zm1-7.7v.2h.1c1.4-.4,3.3-1.6,5.8-3.6v-.2h-.1A15.9,15.9,0,0,0,59.4,24.7Zm.1-2.6h0A8.9,8.9,0,0,0,61.4,21c.4-.1.6-.3.6-.4v-.3h-.3c-.5,0-1.3.6-2.2,1.7Zm.6-2.9.2.2h.1a.5.5,0,0,0,.5-.3h-.2C60.3,19,60.1,19,60.1,19.2Zm.2-1.4c.1.5.2.8.3.8H61c.1,0,.2-.1.2-.3l-.3-.7.3-1.1v-.2h-.1A1.4,1.4,0,0,0,60.3,17.8Zm.8,20.5h0a4.2,4.2,0,0,0,1.1,2h.1a4.1,4.1,0,0,0-1.1-2.1h-.1Zm.3-24h0v.2h.3v-.2h-.5Zm.2,20.3v.2l.3.2h0v-.4Zm2,7.8h0l.2.3h.5l.2-.3h0a.5.5,0,0,0-.5-.3C63.7,42.2,63.6,42.3,63.6,42.4Zm2.3-24.1,2,.3c.5-.1.7-.2.7-.3v-.2H66.9C66.2,18,65.9,18.1,65.9,18.3ZM66.8,48h.6C67,47.8,66.8,47.9,66.8,48Zm.3-3,.3.2h.3l.2-.2v-.2h-.5Zm1.3.1h0l.3.2H69v-.3Zm2.7-1v.3h.3v-.3h-.3Zm.1,1.9v1.1h.1c.1,0,.2-.4.2-1.2v-.5h0A.6.6,0,0,0,71.2,46Z" transform="translate(-0.2 0)" style="fill:#b75326"/><path d="M87.2,15.6c1.7,0,3.8.8,6.3,2.2s3.1,2.7,3.1,3.3c1.7,3.5,2.5,5.6,2.5,6.2v.5a9.4,9.4,0,0,0-.9,2.9H92.5l-1.7.2c-6-.5-10.1-.7-12.5-.7H77a3.5,3.5,0,0,0-.7,1.5,4.8,4.8,0,0,1,.4,2.2c0,1.6.2,2.5.7,2.8v.3h0l-.4-.2v.2l.6.6a3.1,3.1,0,0,0,1.1,2c1.4,2.4,2.8,3.9,4.4,4.5a16.3,16.3,0,0,0,4.7.6,3.9,3.9,0,0,0,1.7-.7c.8-.3,2.4-1.6,4.7-4.1h0c0-.1-.3-.2-.8-.3v-.3a6.8,6.8,0,0,1,3.4-3.5l2.3,1.7a49.7,49.7,0,0,0,3.6,4.9v.3c-1.3,1.7-2.3,2.5-2.9,2.5h-.2c0-.9-.5-1.4-1.6-1.5s-1.2.7-2.8,2a13.8,13.8,0,0,1-4.8,2.1,33.5,33.5,0,0,1-5.7.9l-3.5-1.3c-2,0-3.8-1.1-5.5-3.2A7.3,7.3,0,0,1,74,41.6c0-.3-.5-2-1.4-5.1a15.5,15.5,0,0,1-.4-3.4h0a21.9,21.9,0,0,1,4.9-14.4A4.7,4.7,0,0,1,80,16.3a32.9,32.9,0,0,1,3.6-.7ZM73.3,31.3h-.1v.2h.1a2,2,0,0,0-.2.9v.3a4.4,4.4,0,0,0,.7,2h.1C73.9,32.7,73.7,31.6,73.3,31.3Zm0-2.3v.4c.1.2.1.4.3.4s.2-.2.3-.6l-.3-.2Zm.8-3.3a5.4,5.4,0,0,0-.8,2.5h.1c.2,0,.6-.7,1.1-2.2S74.3,25.7,74.1,25.7Zm.1,11h0V37h.2v-.2h-.3Zm.6,1.1h-.1c.2.6.5,1,.7,1h.1A1.5,1.5,0,0,0,74.8,37.8Zm1.8-8.2h1.1l-.2-.3h-.2A.7.7,0,0,0,76.6,29.6Zm.1-7.4h.1Zm0,3.9v.4h.1a2.3,2.3,0,0,0,.7-.7v-.2h-.3A.6.6,0,0,0,76.7,26.1Zm.6-1.6v.2c0,.5,3.7,1,11.2,1.5l.6.2h.8a13.6,13.6,0,0,0,3.3.9c0,.1.1.2.4.3a1.7,1.7,0,0,0,.4-1.1V25.3c0-.6-1-1.8-3.1-3.6A5.9,5.9,0,0,0,87.7,20l-2.1-.3c-3.4.7-5.6,1.5-6.7,2.5A16,16,0,0,1,77.3,24.5Zm0-1h0a.5.5,0,0,0,.3-.5h0A.5.5,0,0,0,77.3,23.5Zm.2,21.2v.2c0,.3.4.5,1.1.7l.2.3h0c-.5-.6-.8-1-1.1-1.1Zm.4-23.9V21H78c.6-.2.9-.3.9-.5h-.3A1,1,0,0,0,77.9,20.8Zm.4,8.4v.4h.3v-.3h-.3ZM79,17.9h0l.2.2h0c.8-.2,1.2-.4,1.2-.7v-.3l-.2-.3h-.1C79.3,17.2,79,17.5,79,17.9Zm.8,10.7v.2a46.2,46.2,0,0,0,6.5.5H85.1c0,.2.5.3,1.6.3s2.5-.1,2.5-.3S86.1,28.8,79.8,28.6Zm.6-2.1v.2a8.5,8.5,0,0,0,4.3.8H86v-.3Zm.1-6.1a9.5,9.5,0,0,1,2.5-1h-.7Q80.5,19.5,80.5,20.4Zm1-3.4h.1a14.8,14.8,0,0,0,3.7-.7c.3-.1.5-.2.5-.3h-.2a10.8,10.8,0,0,0-4,.9h-.1ZM82,44.9h0q0,.3,1.2.6h.1a3.6,3.6,0,0,0-1.3-.5Zm2.1-26.6h0c0,.2.9.4,2.6.7h.1v-.2a2,2,0,0,0-1.7-.8h-.2C84.4,18,84.1,18.1,84.1,18.3Zm1.3,27.3v.2h.3v-.2Zm2.4,1.6H86.2c-.4,0-.6,0-.6.2h0l.2.2h1.1a18.6,18.6,0,0,0,4.5-.6h0c0-.2-.3-.3-.7-.3h-.3A5.8,5.8,0,0,0,87.8,47.2ZM86.7,17.3v.2a6.1,6.1,0,0,0,2.5.4h0v-.2c0-.1-.2-.2-.7-.3Zm1.2,1.4h0a25,25,0,0,0,3.7,2h.1l.7-.2h.4L91.7,20l-1.2-.5a2,2,0,0,0-2-1.1h-.2C88,18.5,87.9,18.5,87.9,18.7Zm3.6,9.4v.2h.2v-.2Zm.1,1.7c0,.1.4.2,1.1.2h.6c0-.2-.4-.3-1.3-.3S91.6,29.7,91.6,29.8Zm0,14.1h.1c.3-.1.4-.4.6-.7h-.1C91.8,43.4,91.6,43.6,91.6,43.9Zm.4,2.7c.5,0,.8-.3,1.1-1h-.2C92.3,46,92,46.3,92,46.6Zm.7-24.9a.6.6,0,0,0,.6.5h.1v-.6l-.3-.3C92.8,21.3,92.7,21.4,92.7,21.7Zm.8,20.2h.2c.4,0,.7-.3.8-.8h0A1,1,0,0,0,93.5,41.9ZM94,22.5a5.4,5.4,0,0,0,1,2.2h.4c-.3-1.3-.7-2-1.1-2H94Zm.9,15.9h.4c.3,0,.5-.1.5-.2l-.2-.3h-.1A.5.5,0,0,0,94.9,38.4Zm.3,5.8h.3q.6-.6.6-.9H96C95.5,43.5,95.2,43.8,95.2,44.2Zm1-18.8V26c.2,0,.3-.2.3-.4v-.2h-.4Zm.2,17,.2.2c.6-.2.9-.5.9-.8h-.1C96.8,41.7,96.5,41.9,96.4,42.4Zm1.4-.6H98a.5.5,0,0,0,.4-.6h-.1C98,41.4,97.8,41.6,97.8,41.8Zm2.2-.6h-.1c.2.5.3.8.5.8h.1l.2-.2h0A.7.7,0,0,0,100,41.2Z" transform="translate(-0.2 0)" style="fill:#b75326"/><path d="M139.1,13a19.6,19.6,0,0,1,4.2.9c2.4,2.2,3.8,4,4.2,5.2s1.6,2.8,2.2,5.7c.6.6,1,2.1,1,4.4v1.5l-.2,6.1c0,1.2.8,2.7,2.3,4.6s2.3,2,2.7,2h0c0,.5-.7,1.3-2.2,2.4s-1.7,1.6-2,1.6h-.1c-.6-.1-2.3-1.3-5-3.7l-7.3,3a22.1,22.1,0,0,1-5.4.7h-.3a11.6,11.6,0,0,1-5.7-2.6,16.3,16.3,0,0,1-1.8-3.1,5.3,5.3,0,0,1-1.1-3.4V36.7a5.9,5.9,0,0,1,.9-3.2,14.7,14.7,0,0,1,2.8-4.8,5.6,5.6,0,0,1,2-1.6,13.7,13.7,0,0,1,6.3-1.6h3.2a5.4,5.4,0,0,1,3.3.7h.4a.3.3,0,0,0,.3-.3,26,26,0,0,0-2.2-5.6c-.9-1.5-2.6-2.3-5.1-2.3l-2.5-.3c-2.2.4-3.3.9-3.3,1.4a8,8,0,0,0-1.5,4.1c-.1.2-.9.3-2.2.3h-.4c-.2,0-.4.4-.7,1.1s-1.7-.4-1.7-.7a41.3,41.3,0,0,0,.5-4.5c.6-1.9,2.2-3.6,4.7-5.2a8.4,8.4,0,0,1,2-1.1ZM127,21.7v.9h0c.2,0,.3-.2.3-.4v-.5l-.2-.2Zm.6-4.6h.1c.4,0,.9-.4,1.7-1.2v-.2h-.1c-.4,0-1,.5-1.7,1.3Zm.8,24.8h.5l-.3-.3h0Zm.2,3.3h0c.2.4,1.2.9,3.1,1.4a5.7,5.7,0,0,0,2.4.5h0c0-.2-.8-.4-2.3-.7A10.4,10.4,0,0,1,129,45h-.3Zm.8-15.9v.3h.1a.5.5,0,0,0,.6-.4V29h0Zm0,5.6c.2,2.5.6,3.7,1,3.7l.6.8h-.6v.2a13.8,13.8,0,0,0,4.9,3l1.2.3c.8,0,3.7-1.2,8.5-3.6.4-.2.5-.4.5-.7v-.3c-.3-1.7-.6-3.7-.9-5.9h-.1c0-.4-.4-.8-1.4-1.1a25.8,25.8,0,0,0-6.2-1.3,13.1,13.1,0,0,0-6.5,3.1A3.2,3.2,0,0,0,129.4,34.9ZM133.2,15h0q0,.3.6.3a4.1,4.1,0,0,0,1.6-.4v-.2h-.3Zm2.1,29.3a.5.5,0,0,0,.5.3c.4,0,.6-.2.6-.3h0V44h-.8Zm.6-27.5.2.3h.9l-.3-.3h-.5Zm2.3-2.4.3.2h.4l-.2-.3h-.3Zm2.2,29h.3a5.3,5.3,0,0,0,2.3-.7h-.3C141.3,42.9,140.5,43.2,140.4,43.4ZM143,14.7h0c.3.4.5.5.8.5h.1v-.2a1.2,1.2,0,0,0-.9-.4Zm2.9,21.2v.3l.3.2h0l.3-.2v-.3l-.2-.2h-.2Zm.2-2.1V34h.3v-.2l-.2-.2h-.1Zm1.7-3V31h0Zm0,1.3v.2h.4v-.2Zm.1-3.3V29q.3.9.6.9h.1a2.1,2.1,0,0,0-.4-1.2h-.3Zm.3,5h0c.1,1.5.3,2.3.5,2.3l.2-.2h0a6.7,6.7,0,0,0-.4-2.2Zm1,8.9a1,1,0,0,0,.5.6h0l.3-.3h0l-.3-.3h-.5Zm.3-16.2h0c0,.3.1.5.2.5v-.3l-.2-.3Zm1.1,17.3V44l.2.2h.3l.2-.2h0l-.3-.4h-.3Zm.5-2.2V42c.2.5.4.7.6.7h.2c-.2-.7-.4-1-.6-1Z" transform="translate(-0.2 0)" style="fill:#b75326"/><path d="M178.8,7.6l.7.2c2.4-.1,7.2-.2,14.5-.2l3,.9c1.8.3,3.1.6,3.8,1.2q4.5,4.1,4.5,6.9a33.2,33.2,0,0,1-1.2,5.1,41.8,41.8,0,0,1-4,3.6c0,.4.3.7,1.1,1l2,1a29.9,29.9,0,0,1,2.4,3,9.8,9.8,0,0,1,2.6,5.3v.7c-.1.4-.2.6-.5.6h0a3.7,3.7,0,0,0,.7,1.6v.5a6.8,6.8,0,0,1-.9,2.5c0,.5-.5.9-1.3,1.1s-1.1.3-1.7,1.1h0q0,.1.6.3h0a.5.5,0,0,1-.5.3c0-.2,0-.3-.2-.3l-.3.4a5,5,0,0,0-2.5,1h.1l1.8-.6h0a8.2,8.2,0,0,1-3.8,1.5c-2.6,1.2-7.9,1.7-15.9,1.7h0V48a11.2,11.2,0,0,0-5.3,1.2c-.6,0-.9-1.2-.9-3.5,0-.3,1.2-.9,3.7-1.5a8.4,8.4,0,0,0,2.7-.5h0c-.2,0-.5-1.8-.9-5.2a7.8,7.8,0,0,0-.4-2.8,3.8,3.8,0,0,1,.6-1.8c-.1-2.9-.3-4.4-.7-4.4s-.5-3.4-.7-10.1V13.1l-1.7-.6h-.5a.6.6,0,0,0-.6.3h0v.5l-.8,2.1h-1l-1.2-.4c-.4,0-.6-1.2-.7-3.6a21.7,21.7,0,0,0-.7-2.4,2.5,2.5,0,0,1,2-1.3A5.2,5.2,0,0,1,178.8,7.6ZM180.2,47c0,.2.2.3.5.3l.3-.3h-.8Zm1.5-37.5,1.7.4h.1a.7.7,0,0,0,.6-.4c0-.2-.5-.3-1.4-.4S181.7,9.3,181.7,9.5Zm1,9.1v.7h.1l.2-.2v-.2c0-.3-.1-.5-.3-.5Zm.1,27.5v.3h1.1v-.3h-1.1Zm1.7-2.3h0c0,.1.2.2.4.2v-.2h-.4Zm0-34.2h1.9c1.5,0,2.3-.2,2.3-.5h0l-.3-.2C185.9,9.1,184.7,9.3,184.5,9.6Zm1.1,1.9h0l.2.2h.3c2-.2,3.2-.4,3.4-.7h-.1C186.9,11.1,185.6,11.3,185.6,11.5Zm.5,1.7c.3,8.8.6,13.2.8,13.2l.2.2h.1l5.6-1.4c2.4-.2,3.7-.5,3.7-.9q4.5-3.4,4.5-4.8v-.3a27,27,0,0,1-.7-4.1c0-1.1-.8-2-2.2-2.9l-3-.3C189.1,12.2,186.1,12.6,186.1,13.2Zm.4,17.6v1.4q.3,10.6.9,12a1.5,1.5,0,0,0,1.5,1l5.6.3c2.1-.1,4.8-1.1,8.1-2.9,1.6-1.5,2.4-2.6,2.4-3.2s.2-.2.3-.6v-.2a13,13,0,0,0-1.7-5.9c-1.2-1.3-2.1-1.9-2.8-1.9h-.5c-.3,0-.4-.1-.4-.2s.2-.2.5-.2v-.2a1.8,1.8,0,0,0-1.4-.6h0l.3.4H199a16,16,0,0,0-4.5-.9h-.4a20.9,20.9,0,0,0-7.4,1.2Zm.3-1.2h.2c1-.1,1.5-.3,1.5-.5h-.1A4.1,4.1,0,0,0,186.8,29.6Zm2,17.2h0Zm1-18Zm.3-19.7v.2h.3V9.1Zm.3,17.6h.2c2.6-.2,3.9-.4,3.9-.7h-.4C191.9,26.1,190.6,26.4,190.4,26.7Zm.3,2.2a.2.2,0,0,0,.2.2l3.6-.5h3.3c0-.3-.6-.4-1.9-.4h-1.1C192.7,28,191.3,28.3,190.7,28.9Zm6.3-2.2h.1a14.5,14.5,0,0,1,3.3.6h0a.2.2,0,0,0,.2-.2,1.7,1.7,0,0,0-1.7-.9h-.7C197.4,26.3,197,26.4,197,26.7Zm2.2-2.4h.3V24h-.1Zm.1,4.5h0Zm.6-16.3v.2a3.8,3.8,0,0,1,1.1,2.8,4,4,0,0,0,.7,2h0V17c-.3-3-.8-4.5-1.3-4.5Zm.3-1.7h0l.3.3h.3l.2-.2h0l-.3-.3h-.3Zm.5,34.2v.2h.2a.8.8,0,0,0,.8-.5v-.2C201.1,44.7,200.7,44.8,200.7,45Zm.6-17.4h0a2.8,2.8,0,0,0,1.5.8h0C202.8,28.1,202.3,27.8,201.3,27.6Zm1.1,16.7h.1a1.5,1.5,0,0,0,1.3-.9h-.1C202.8,43.7,202.4,44,202.4,44.3Zm.1-28.8v.2h.3l.3-.3-.2-.2h-.2Zm.4,1.2h0v.3h.2v-.3Zm0,13.2a3.9,3.9,0,0,0,1.6,1.9h.1v-.2a3.2,3.2,0,0,0-1.4-1.8h-.3Zm.7-16.1V14l.3.3h.2V14l-.3-.2Z" transform="translate(-0.2 0)" style="fill:#b75326"/><path d="M229.2,3.7A28.5,28.5,0,0,1,234.6,5c3,1.9,4.8,3.6,5.3,5.2l2.2,3.3a83.6,83.6,0,0,1,1.6,9.7c-.3,5.1-.8,8-1.4,8.7a37.3,37.3,0,0,1-2,5.6c-2,4-3.4,6.5-4.2,7.3s-3,2.1-4.3,2.1-.9.3-.9.6l-2.7,1h-.4a26.1,26.1,0,0,1-4.1.4h-.8a27.5,27.5,0,0,1-4.7-1.5,8.8,8.8,0,0,1-2.7-2.2c-.9-.6-1.4-1.2-1.4-1.8a30,30,0,0,1-3.3-7.8,10.5,10.5,0,0,1-.6-2.2v-1c0-6.8,1-11.7,3-14.9a17.7,17.7,0,0,0,1.8-4.7A14.5,14.5,0,0,1,217,9.9c0-1.1,1.7-2.6,4.9-4.7,0-.2,1.1-.6,3.5-1.2ZM210.8,33.5V34h.3v-.6l-.2-.2Zm1.9-1h0l.2.2h0l.2-.2h-.4Zm.5,4.8V38a1.7,1.7,0,0,0,.8,1.3h.2v-.2a2.8,2.8,0,0,0-.9-1.8Zm1.5-10.2v5.3c0,3.5,1,5.8,2.8,6.9s3.1,2.8,3.6,2.8a4.4,4.4,0,0,1,3,1.1h1.2l.5.6h.1c.3,0,.6-.2,1-.7,1.9-.3,3.2-.7,3.8-1.3,2.9-2.9,4.4-4.5,4.4-4.8,1.7-4.2,2.6-6.8,2.6-7.8.9-3.8,1.7-5.7,2.2-5.7h0v-.3a5.4,5.4,0,0,0-.8-2.4c-.3-3.3-.6-5.4-1.1-6-.9-2.4-3.1-4.5-6.7-6.3a6,6,0,0,0-2.3-.8h-.4a13.5,13.5,0,0,1-3,1.2c-.1,0-.2.2-.2.5-2.4,1.6-3.8,2.6-4.1,3.1l-3,3.8a14.9,14.9,0,0,0-2,3.6A18.7,18.7,0,0,0,214.7,27.1Zm.4-8v.4l.2.2a6,6,0,0,1,.8-1.8v-.4H216A2.4,2.4,0,0,0,215.1,19.1Zm.5-5.1v.2h0Zm.3-.5h.3v-.2H216Zm.7,2.3V16h.2c.3,0,.4-.2.4-.7h-.1ZM217,13h.1c3-2.7,4.5-4.1,4.5-4.4h-.1q-1.5,0-3,2.4-.3,0-.9.6C217.2,11.7,217,12.1,217,13Zm.1,31.4v.2h.3l-.2-.2Zm.6,2v.2q0,.3,2.1.9a18.2,18.2,0,0,0,3.5.8,18.3,18.3,0,0,0,4.5-.7h-1.2l-4.2.2-2.6-.9A9.5,9.5,0,0,0,217.7,46.4Zm3.6-3c0,.4.3.6.9.8h0c0-.3-.3-.6-.9-.7Zm.9-33.3h.1c1.2-.3,1.8-.7,1.8-1.1h-.3C222.7,9.2,222.2,9.6,222.2,10.1Zm1,35.3.6.2h0c0-.1-.2-.2-.4-.2Zm.6-37.7,3-1.1.7-.2V6.1h0a7.8,7.8,0,0,0-3.7,1.4Zm.9,37.6v.3H227c0-.1-.3-.2-.8-.3h-1.5Zm2.6-1.8h.6l.3-.3h-.3Q227.3,43.2,227.3,43.5ZM228,46v.3h.4c1.4-.4,2-.8,2-1.3h-.1A7.3,7.3,0,0,0,228,46Zm3.1-40h0A16.7,16.7,0,0,0,236,8.3h0a3.4,3.4,0,0,0-1.6-1.1c0-.1-.6-.4-1.9-.9a1,1,0,0,0-.9-.4h-.3Zm4.8,30.9v.5a11.2,11.2,0,0,0-1.8,2.6h.7L232,42.4v.2h.3a7.3,7.3,0,0,0,2.9-2.1,8,8,0,0,0,1.7-3.5v-.6c0-.3-.1-.5-.3-.5h-.2C236.2,36,236,36.3,235.9,36.9Zm-4,9.1v.3h.3l.2-.3h-.5Zm1.5-40.7v.3a9.8,9.8,0,0,0,2.2,1.1h0c-1-.9-1.6-1.3-2-1.3Zm1,39.5V45h.1c1.5-1.1,2.3-1.9,2.3-2.4h-.2A11.4,11.4,0,0,0,234.4,44.8Zm1-35.1c0,.5.6,1,1.7,1.5h.3c.1,0,.2-.1.2-.3S236.9,10.1,235.4,9.7Zm1.1-.6h.5l-.3-.2Zm.8,26.4c.3,0,.6-.7.8-2a5.8,5.8,0,0,0,.6-2.8h0v-.2c-.4,0-.8,1.4-1.2,4.4h-.1v.7Zm1.4-6.2v.4h.3l.2-.6-.2-.6h0C238.8,28.5,238.7,28.8,238.7,29.3Zm.3-17.6V12a17.9,17.9,0,0,0,1.9,3.9h0l-.6-2.6c0-1.1-.3-1.7-.9-1.7h-.2Zm.6,13.2v.2h0Zm1.5.6a7.6,7.6,0,0,0-.3,2.1h.1a.6.6,0,0,0,.3-.6V25.5Zm0-8.3H241l.2.7h.2v-.5Zm1.1,12.1v.3h.2a6.8,6.8,0,0,0,.4-2v-.2h-.1C242.4,27.4,242.2,28,242.2,29.3Z" transform="translate(-0.2 0)" style="fill:#b75326"/><path d="M259.5,4.2l4.1.8c.7,0,1.8.6,3.5,1.7h.2c.1-1.6.3-2.4.5-2.4A7.8,7.8,0,0,0,270,5h2.4v8.3a1.5,1.5,0,0,1-.4,1.1,1.4,1.4,0,0,1,.5,1,1.6,1.6,0,0,1-.4,1l.2,1c0,.5-.2.8-.4.8l-1.6-.2h-.1l-.8.2h-.1c-.2,0-.5-.9-.8-2.7a2.3,2.3,0,0,0-.8-1.6,5.4,5.4,0,0,1-.8-1.5l.4-.2h0a3,3,0,0,1-1.1-1.7c-1.7-1.7-3.1-2.5-4.4-2.5h-.4a47.1,47.1,0,0,0-6.1,1.3c-.3.1-.8.9-1.7,2.3a5.8,5.8,0,0,0-1.1,3c.2,2.6.5,4,.9,4s1.2,2.2,2,2.5.6.4,1.4.6a18.4,18.4,0,0,0,3.7,2l.6.3.7-.2c.4,0,.5.1.5.2h0l-.2.2v.2a2.4,2.4,0,0,0,2.1,1h0l-1.2-.9h0c.5,0,1.8.7,4,2.2q5.1,4.8,5.1,6a22.9,22.9,0,0,1,.8,4.7c-.3,3.1-.6,4.7-.9,4.7l-1.5,2.6c-2.9,1.7-4.6,2.6-5.1,2.6a62.2,62.2,0,0,1-9.4-2.5c-3.2-2.9-4.8-4.7-4.8-5.3l-.3-.2h-.1v3.8c0,.3-.7.4-2.2.4h-1.1l-.9.3a1.5,1.5,0,0,1-1.2-.7h0l.3-.5c.3-7,.7-10.4,1.1-10.4h.1l1.1.2h0l.7-.2.8.2h.6a6.2,6.2,0,0,1,1.1,1.7c1.6,2,3,3.9,4.3,5.8a7.5,7.5,0,0,1,1.5,1.6l3.8,1.7h1.1v.2h.2l.2-.2h.2a1.2,1.2,0,0,0,.9.4h.4c1.1-.1,1.7-.2,1.7-.4h-2a27.2,27.2,0,0,1,4.3-.9c.7,0,1.4-1.1,2-3.4a2.3,2.3,0,0,1,.5-1.6v-.3a8.1,8.1,0,0,0-2.3-4.2q-.7-1.3-5.7-3a20.6,20.6,0,0,1-5.1-2.9c-1.9-.6-3.1-1.2-3.4-2a8.9,8.9,0,0,0-2.8-2.6,15.4,15.4,0,0,0-2.5-5.3,24.9,24.9,0,0,1-.6-5.7c.3-1.3,1.8-3.2,4.5-5.6Q254.4,4.2,259.5,4.2Zm-12.4,32a7.8,7.8,0,0,0-.3,2.4l.2.8h0c.4,0,.6-.2.6-.5a12.4,12.4,0,0,1-.3-2.7ZM247,41h.2c.2,0,.3-.4.3-1.3h-.2C247.2,39.7,247.1,40.1,247,41Zm1.7-3a5.8,5.8,0,0,1-.7,1.4l.3.6v2c0,.4.1.5.2.5h.4l.3-.2V42C249.1,39.3,248.9,38,248.7,38Zm.6-27.8h.3V10h-.1Zm1.6,9.6v.5l.2.2h.5v-.2C251.3,20,251.1,19.8,250.9,19.8Zm.2-6.9h.1a2.7,2.7,0,0,0,1.2-1.9l-.2-.2C251.7,10.9,251.4,11.6,251.1,12.9Zm.9,8.6v.3a3.9,3.9,0,0,0,1.7.9h.2v-.3l-1.8-.9Zm0,18.1h0c.2.7.5,1,.9,1h0c-.3-.7-.6-1-.8-1Zm.2-29.1.4.4h.1a3.1,3.1,0,0,0,1.3-.8V9.9h-.7A1,1,0,0,0,252.2,10.5Zm.1-4.2h.7l4.5-1c1-.2,1.5-.4,1.5-.5h-.2C254.4,5,252.3,5.6,252.3,6.3Zm.3,1.5h0c0,.1,0,.2.2.2a.8.8,0,0,0,.4-.4h0Q252.6,7.5,252.6,7.8Zm1.5.8h.2a12.6,12.6,0,0,0,2.8-1.1l1.7-.7h0l-.2.4h.9V7l-.2-.3V6.3h-.1c-1.8.6-3.2,1.2-4.1,1.6S254.1,8.3,254.1,8.6Zm0,31.5h0c.3.6.6.9,1,.9h0l-.8-.9Zm.3,2.6h0a5.4,5.4,0,0,0,3.1,2,35.6,35.6,0,0,0,5.8,1.6,2.7,2.7,0,0,0,1.3.5h.6c1-.2,1.5-.6,1.5-1h0l-5.6-.4a23.2,23.2,0,0,1-6.2-2.6Zm3.5-.1h0c0,.2.1.3.4.3h0C258.2,42.7,258.1,42.6,257.9,42.6Zm1.3-19a.5.5,0,0,0,.5.3h.2v-.2Zm1.2.9h-.1c0,.3.7.7,1.9,1.3v-.4A5.2,5.2,0,0,0,260.4,24.5Zm1.1,3.7v.3a7.2,7.2,0,0,0,2,.5c0,.2.1.2.4.2h.5c0-.4-.9-.7-2.6-1Zm2-21.4c0,.2.6.4,1.8.7h.5a1.4,1.4,0,0,0-1.3-.5Zm.4,39h.1c.3,0,.4.1.4.2h-.5Zm1.9-15.9v.2h.3v-.2Zm0,14.6h0l.2.2h.3c1.4,0,2.3-.2,2.5-.6l-.3-.2h-.4A9.6,9.6,0,0,0,265.8,44.5Zm.8-36.4.3.3h.3V8c0-.1-.1-.2-.4-.3S266.6,7.9,266.6,8.1Zm2-2.6-.2.2v.2a.7.7,0,0,0,.6.4h1A1.7,1.7,0,0,0,268.6,5.5Zm.1,1.6v.6h.1l.2-.2V7.2l-.2-.2h-.2Zm.7,4.9h0l.3.2h.2l.2-.2h0l-.2-.2h-.2Zm.2,3.1v1.1h.2a.5.5,0,0,0,.6-.4,2.4,2.4,0,0,1-.4-1.3h-.1A.5.5,0,0,0,269.6,15.1Zm.1-6.2.2.2h0l-.2.4h0c0,.1.1.2.4.3a1,1,0,0,0,.4.6h.3v-.2l-.2-.2V9.9h.2l.4.2h.1V9.5c-.3-1.1-.6-1.7-.7-1.7h-.3A1.1,1.1,0,0,0,269.7,8.9Zm0,4.6v.2h.3l-.2-.2Zm0,3.8.3.2h.2v-.2l-.3-.2h-.1Zm.2,24.2.2.2h.3l.3-.2h0l-.2-.2h-.3Zm.5-29.8h.2v-.2Zm.4,1v.8h.2V12.4h-.1Zm.2-1.6h0c.1.3.2.4.4.4v-.2l-.2-.3Z" transform="translate(-0.2 0)" style="fill:#b75326"/><path d="M288.8,4.2l4.1.8c.7,0,1.9.6,3.6,1.7h.2c.1-1.6.3-2.4.5-2.4a8.9,8.9,0,0,0,2.1.7h2.4v8.3a2.1,2.1,0,0,1-.4,1.1,1.3,1.3,0,0,1,.4,1,1.6,1.6,0,0,1-.4,1l.2,1c0,.5-.1.8-.4.8l-1.5-.2h-.1l-.9.2h-.1a9.1,9.1,0,0,1-.8-2.7A2.1,2.1,0,0,0,297,14a4.4,4.4,0,0,1-.9-1.5l.4-.2h0a3.6,3.6,0,0,1-1.1-1.7c-1.6-1.7-3.1-2.5-4.3-2.5h-.4a46.8,46.8,0,0,0-6.2,1.3,9,9,0,0,0-1.6,2.3,5.3,5.3,0,0,0-1.2,3c.3,2.6.6,4,1,4a4.3,4.3,0,0,0,1.9,2.5q.1.3,1.5.6a16.9,16.9,0,0,0,3.6,2c0,.1.2.2.7.3l.7-.2c.3,0,.5.1.5.2h0l-.2.2v.2a2.4,2.4,0,0,0,2.1,1h0l-1.3-.9h0c.5,0,1.9.7,4.1,2.2,3.4,3.2,5,5.2,5,6a26.2,26.2,0,0,1,.9,4.7c-.4,3.1-.7,4.7-1,4.7l-1.5,2.6c-2.8,1.7-4.5,2.6-5,2.6a64.5,64.5,0,0,1-9.5-2.5c-3.2-2.9-4.8-4.7-4.8-5.3l-.2-.2h-.1v3.8c0,.3-.7.4-2.1.4h-1.1l-1,.3a1.6,1.6,0,0,1-1.1-.7h0l.3-.5c.3-7,.6-10.4,1-10.4h.1l1.1.2h.1l.6-.2.8.2h.6c.2,0,.6.6,1.2,1.7a64.4,64.4,0,0,1,4.2,5.8c.2,0,.7.5,1.6,1.6l3.8,1.7h1.1v.2h.1l.3-.2h.1a1.2,1.2,0,0,0,.9.4h.4c1.2-.1,1.7-.2,1.7-.4h-2l4.4-.9c.7,0,1.3-1.1,1.9-3.4a2,2,0,0,1,.6-1.6v-.3a8.9,8.9,0,0,0-2.4-4.2c-.5-.9-2.3-1.9-5.6-3a19.6,19.6,0,0,1-5.2-2.9c-1.9-.6-3-1.2-3.3-2a12.2,12.2,0,0,0-2.8-2.6,20.3,20.3,0,0,0-2.5-5.3,24.9,24.9,0,0,1-.6-5.7c.3-1.3,1.8-3.2,4.4-5.6Q283.9,4.2,288.8,4.2Zm-12.4,32a7.8,7.8,0,0,0-.3,2.4l.2.8h.1a.5.5,0,0,0,.5-.5,24.5,24.5,0,0,1-.2-2.7Zm0,4.8h.1c.2,0,.3-.4.3-1.3h-.1C276.5,39.7,276.4,40.1,276.4,41Zm1.6-3a3.8,3.8,0,0,1-.6,1.4l.2.6v2c0,.4.1.5.2.5h.4l.2-.2V42C278.4,39.3,278.3,38,278,38Zm.6-27.8h.3V10h-.1Zm1.7,9.6v.5l.2.2h.5v-.2Zm.2-6.9h.1a2.6,2.6,0,0,0,1.1-1.9l-.2-.2C281,10.9,280.7,11.6,280.5,12.9Zm.8,8.6v.3a4.6,4.6,0,0,0,1.8.9h.2v-.3a11.1,11.1,0,0,0-1.9-.9Zm0,18.1h0c.2.7.5,1,.9,1h0c-.2-.7-.5-1-.8-1Zm.2-29.1.4.4h.1a3.4,3.4,0,0,0,1.4-.8l-.2-.2h-.7A1.1,1.1,0,0,0,281.5,10.5Zm.1-4.2h.8l4.5-1c1-.2,1.5-.4,1.5-.5h-.3C283.8,5,281.6,5.6,281.6,6.3Zm.3,1.5h0a.2.2,0,0,0,.2.2,1,1,0,0,0,.5-.4h0C282.2,7.5,282,7.6,281.9,7.8Zm1.6.8h.1a12.5,12.5,0,0,0,2.9-1.1l1.6-.7h0v.4h.8V6.3h-.1a29.2,29.2,0,0,0-4.1,1.6C283.8,8,283.5,8.3,283.5,8.6Zm0,31.5h0q.3.9.9.9h0a3.6,3.6,0,0,0-.8-.9Zm.3,2.6h0a5.4,5.4,0,0,0,3.1,2,37.1,37.1,0,0,0,5.7,1.6,2.7,2.7,0,0,0,1.4.5h.5c1-.2,1.6-.6,1.6-1h0l-5.6-.4a26.1,26.1,0,0,1-6.3-2.6Zm3.4-.1h0c0,.2.2.3.5.3h0A.5.5,0,0,0,287.2,42.6Zm1.4-19c0,.2.2.3.5.3h.2l-.2-.2Zm1.1.9h-.1c.1.3.7.7,2,1.3v-.4A4.9,4.9,0,0,0,289.7,24.5Zm1.2,3.7v.3a5.6,5.6,0,0,0,1.9.5c0,.2.2.2.5.2h.4c0-.4-.8-.7-2.5-1Zm1.9-21.4c0,.2.6.4,1.9.7h.4c-.1-.3-.5-.5-1.2-.5Zm.5,39h0c.3,0,.5.1.5.2h-.5Zm1.8-15.9v.2h.3v-.2Zm0,14.6h0l.2.2h.3c1.5,0,2.3-.2,2.5-.6l-.3-.2h-.3A10.2,10.2,0,0,0,295.1,44.5Zm.8-36.4.3.3h.3l.2-.2V8l-.5-.3C296,7.7,295.9,7.9,295.9,8.1Zm2-2.6v.4a.5.5,0,0,0,.5.4h1A1.6,1.6,0,0,0,297.9,5.5Zm.1,1.6v.6h.1l.3-.2V7.2l-.3-.2H298Zm.8,4.9h0l.2.2h.3l.2-.2h0l-.2-.2H299Zm.1,3.1v1.1h.3c.3,0,.4-.1.5-.4a3.5,3.5,0,0,1-.3-1.3h-.1A.5.5,0,0,0,298.9,15.1Zm.2-6.2.2.2h0l-.3.4h0l.5.3c.1.4.2.5.4.6h.2V9.9h.2l.3.2h.1V9.5c-.3-1.1-.5-1.7-.7-1.7h-.3A1.1,1.1,0,0,0,299.1,8.9Zm-.1,4.6v.2h.3v-.2Zm.1,3.8.2.2h.3v-.2l-.3-.2h-.1Zm.2,24.2.2.2h.3l.2-.2h0v-.2h-.3Zm.5-29.8h.2v-.2Zm.4,1v.8h.1l.2-1.1h-.2Zm.1-1.6h0c.1.3.3.4.4.4v-.5Z" transform="translate(-0.2 0)" style="fill:#b75326"/><path d="M309.7,39.4a5.3,5.3,0,0,1,2.7,1,3.6,3.6,0,0,1,.2,1.1v.8c0,1.7-1,2.9-2.9,3.7l-.7.4c-.9,0-1.7-.8-2.5-2.4v-.4c0-1.7.2-2.8.8-3.2A6.2,6.2,0,0,1,309.7,39.4Zm-2,2.7c.1,1.1.3,1.6.5,1.6a6.2,6.2,0,0,0,.5-2.1l.3-.4v-.3h-.1Q307.7,41.4,307.7,42.1Zm.3,2.7c0,.3.2.4.4.5h.7a1.4,1.4,0,0,0,1.2-.6h0Zm1.4-2.3h0c0,.4.1.7.3.7h0c.2,0,.5-.4.7-1.3v-.3h-.3C309.6,41.6,309.4,41.9,309.4,42.5Zm1.8.8h.3v-.6h-.1C311.4,42.8,311.3,43,311.2,43.3Z" transform="translate(-0.2 0)" style="fill:#231f20"/></g></g></svg>