<svg xmlns="http://www.w3.org/2000/svg" viewBox="0 0 651.9 64.8"><title>icn_rotator_Asset 42_adj</title><g id="Layer_2" data-name="Layer 2"><g id="Layer_1-2" data-name="Layer 1"><path d="M16.1,12.9a18.5,18.5,0,0,1,4.2.9c2.4,2.3,3.8,4.1,4.2,5.3s1.6,2.8,2.2,5.6c.6.7,1,2.1,1,4.4v1.5l-.2,6.2c0,1.1.8,2.7,2.3,4.6s2.3,2,2.7,2h0c0,.5-.7,1.3-2.2,2.4s-1.7,1.5-2,1.5h-.1c-.6,0-2.2-1.2-4.9-3.6-2.4.9-4.9,1.8-7.4,2.9a18.1,18.1,0,0,1-5.4.7h-.3a10.8,10.8,0,0,1-5.7-2.6,13.3,13.3,0,0,1-1.8-3.1,5.2,5.2,0,0,1-1.1-3.3V36.6a6.2,6.2,0,0,1,.9-3.2,17.1,17.1,0,0,1,2.8-4.8,4.4,4.4,0,0,1,2-1.5,14.3,14.3,0,0,1,6.4-1.7h3.1a6.2,6.2,0,0,1,3.3.7h.4a.3.3,0,0,0,.3-.3,21.1,21.1,0,0,0-2.2-5.5c-.9-1.5-2.6-2.3-5.1-2.3L11,17.6c-2.2.4-3.3.8-3.3,1.3a8.8,8.8,0,0,0-1.5,4.2c-.1.2-.8.3-2.2.3H3.6c-.2,0-.4.3-.7,1s-1.7-.4-1.7-.7a34.8,34.8,0,0,0,.5-4.5c.6-1.8,2.2-3.6,4.7-5.2a6.5,6.5,0,0,1,2-1ZM4,21.6v1H4a.5.5,0,0,0,.3-.5v-.5H4Zm.6-4.5h.1c.4,0,.9-.4,1.7-1.2v-.2H6.3c-.4,0-1,.4-1.7,1.3Zm.8,24.7h.5l-.3-.2H5.4Zm.2,3.3h0c.2.4,1.2.8,3.1,1.4a6.1,6.1,0,0,0,2.4.4h0c0-.2-.8-.4-2.3-.7A12.2,12.2,0,0,1,6,44.9H5.7Zm.8-15.8v.2h.1a.5.5,0,0,0,.6-.4h0Zm0,5.5c.2,2.5.6,3.8,1,3.8l.6.7H7.4v.2a12.5,12.5,0,0,0,4.9,3,2.1,2.1,0,0,0,1.2.3c.8,0,3.7-1.2,8.6-3.6a.7.7,0,0,0,.4-.7v-.3c-.3-1.6-.6-3.6-.9-5.9h-.1c0-.5-.4-.9-1.4-1.1a25.8,25.8,0,0,0-6.2-1.3c-3.1.7-5.2,1.7-6.5,3.1A3,3,0,0,0,6.4,34.8ZM10.2,15h0q0,.3.6.3l1.6-.4v-.3h-.3A4.4,4.4,0,0,0,10.2,15Zm2.1,29.2a.5.5,0,0,0,.5.3q.6,0,.6-.3h0V44h-.8Zm.6-27.5.2.4h.8l.2-.2h0l-.4-.3h-.5Zm2.3-2.4.3.3h.3v-.2l-.2-.2h-.5Zm2.2,29.1h.3a7.1,7.1,0,0,0,2.3-.7h-.3C18.3,42.9,17.5,43.1,17.4,43.4ZM20,14.7h0c.3.3.5.5.8.5h.1v-.2a1.2,1.2,0,0,0-.8-.4Zm2.9,21.1v.3l.3.3h.1l.2-.3v-.3h-.6Zm.2-2.1.2.3h.2v-.2h-.4Zm1.7-3v.2h0Zm.1,1.3v.3h.3V32Zm0-3.3v.2c.2.6.4,1,.6,1h.1a2.2,2.2,0,0,0-.4-1.3h-.3Zm.4,5h0c0,1.6.2,2.3.4,2.3h.2a7.8,7.8,0,0,0-.4-2.2Zm.9,9c.1.3.3.5.5.5h0L27,43v-.2l-.3-.3h-.3Zm.3-16.3v.2c0,.3.1.5.2.5v-.4c-.1-.2-.1-.3-.2-.3Zm1.1,17.4h0l.2.3h.3l.2-.2h0l-.3-.3h-.3Zm.5-2.3v.4c.2.5.4.8.6.8h.2v-.2c-.2-.6-.4-1-.6-1Z" transform="translate(-1.2 0)" style="fill:#b75326"/><path d="M57.4,15.1h.1a5.4,5.4,0,0,1,3.3.8c.7.1,1.1.3,1.1.4v.2c-.7,0-1,.1-1,.4s.5.3,1.2.3a1.3,1.3,0,0,0,.9.5h1.5l.7.2,4.7-1h.2a22,22,0,0,1,8.4,4.1c2.7,2.7,4.2,4.6,4.5,6a13.2,13.2,0,0,1,.6,2.9c-.5,4.9-1,7.4-1.4,7.4a26.1,26.1,0,0,1-2.8,4.1l-.6.5.2.2h0a5.7,5.7,0,0,1-2.3,1.7,1.4,1.4,0,0,0-.7,1.1,3.7,3.7,0,0,1-2.9.9A23,23,0,0,1,67,47.3a6.9,6.9,0,0,1-2.7-1L61.4,46l-.4.2c.3.4.4,1.5.4,3.3v.8l.5,2.8v5c0,1,.4,1.5,1.1,1.5l.4.4h0c-.3,0-.4.1-.4.4a3,3,0,0,1,.9,2.3l.4,1.1a8,8,0,0,1-2.3.3l-4.3-.3a4.7,4.7,0,0,1-1.3.9c-.9-.3-1.8-1.3-2.6-3.1h-.1v-.3c.2,0,.4-.1.4-.2h0a1.4,1.4,0,0,1-.5-.9V60h.1c.1,0,.2,0,.2.2h.4v-.9a1.5,1.5,0,0,1,1.3-.6q.3-.1.3-3V51.4c0-1-.2-2.8-.4-5.6V20.5H54.2l-.3-.2V16.9a1.4,1.4,0,0,1,1.6-1.6A6.9,6.9,0,0,1,57.4,15.1Zm-2.8,1.2a.5.5,0,0,0,.3.5h.3a.6.6,0,0,0,.6-.3v-.2a.5.5,0,0,0-.6-.4h-.1C54.8,15.9,54.6,16,54.6,16.3Zm.6,46h0c0,.1.3.2.8.2s1.1-.1,1.1-.2v-.2H55.3Zm0-44.4v.3a1,1,0,0,0,.5.8h.1v-.7c0-.3,0-.5-.2-.6h-.3Zm1,42.9h0l.5.2h.2l-.2-.2Zm.9-38.6a2.6,2.6,0,0,0,.3,1.4h0L57,24.9l.4,1a70.7,70.7,0,0,0-.6,7.7V38a15.8,15.8,0,0,0,.3,3.2l-.3,1.9v.6L57,49h.1c.4-.2.6-.4.6-.7v-.2l-.3-.5c.2,0,.3-1.8.4-5.3V38.2c.2-6.6.3-11.4.3-14.5h0c0-2.4-.1-3.6-.5-3.6S57.1,20.7,57.1,22.2Zm0,28.7v1c0,.7.1,1,.3,1a5.7,5.7,0,0,0,.5-2.4v-.3c0-.1-.1-.2-.3-.2A1.1,1.1,0,0,0,57.1,50.9Zm.6,3.6-.2.3v.7a5.2,5.2,0,0,0,.2,1.1H58V55.5c0-.7-.1-1-.2-1ZM59.1,26l-.2,4.3v.3h.3V25.9h-.2Zm0,34.8h0l.2.2h.3v-.2l-.2-.2h-.2Zm0-37.5v.4c.2,0,.3-.3.4-1h-.1Q59.1,22.7,59.1,23.3ZM60.6,61h0l.2.2h.3v-.2h0v-.2h-.3Zm4.9-38c0,.3-.5.6-1.3,1v.2h.5c-1.7.8-2.8,1.5-3.2,2.2S61.2,30.4,61,38v.9a18.5,18.5,0,0,0,2.7,2.3l2.6,1.1c.1.2.2.4.3.4h.2A8.8,8.8,0,0,0,71,41.4a6.8,6.8,0,0,1,2.7-1.5c2.1-1.7,3.2-3.3,3.2-4.8v-1l-.2-.8h0l.5-.6v-.2c-.4-.2-.5-.7-.5-1.5a5,5,0,0,0-1.3-3.5,5.6,5.6,0,0,0-2.1-2.7q-.5-.7-3.3-1.5h-.5l-2.9.3h-.2a1,1,0,0,1-.8-.5ZM61,40a.8.8,0,0,0,.8.7v-.2c-.2-.2-.3-.4-.6-.5Zm.1-22.2V18l.2.2h.1v-.6h-.1Zm.4,25.7h-.1c0,.4,1.2.7,3.7.9l1.2-.6h0l-.2-.3h-.3L64,44A7.2,7.2,0,0,0,61.5,43.5ZM62,22.8h.3l.3-.3h-.3Zm1-4.4.2.2h.3l.2-.3h-.2C63.2,18.2,63,18.3,63,18.4Zm3.7.7,2.6.6c0,.1.2.1.6.1h.9l.3-.2-.2-.2H69.6l.3-.3v-.3H68.3C67.3,18.8,66.8,18.9,66.7,19.1Zm.8,3.7c0,.1.2.2.8.2h.4l-.2-.3h0l3.4-.4.3-.2-.2-.3h-.5C68.8,21.8,67.5,22.2,67.5,22.8ZM68.3,44h.2c2.3-.5,3.5-.9,3.5-1.3h0c0-.1-.1-.2-.3-.2C69.4,43.2,68.3,43.7,68.3,44Zm2.4-26.4v.3l1.3.3h.3c0-.2-.5-.4-1.4-.5Zm1.2,5h0c.2.3.7.4,1.3.4h.7c-.1-.2-.6-.3-1.6-.4ZM73,18.4h-.1a4.2,4.2,0,0,0,1.7,1h.2Q74.8,18.9,73,18.4Zm.8,3.6h0l.2.2h.2L74,22Zm.1,21.8H74c.9-.3,1.3-.5,1.4-.7h0l-.2-.2h-.1C74.3,43.1,73.9,43.5,73.9,43.8Zm.9-20.3h0c0,.5.4.9,1.3,1.3h.2c0-.7-.5-1.2-1.3-1.5Zm.7,16.2h.1a1.5,1.5,0,0,0,.9-.8h-.2C75.8,39.2,75.5,39.5,75.5,39.7Zm0,2.1v.3h.1c.6-.2.9-.4.9-.7h-.2A.8.8,0,0,0,75.5,41.8Zm.4-21.5h0a.7.7,0,0,0,.4.5h.3a.5.5,0,0,0-.6-.4Zm.8,6v.4a5.7,5.7,0,0,0,.9,2h.1v-.3a2.8,2.8,0,0,0-.7-2.1Zm.9,3.4V30h.3v-.4Zm0,5.5h.1c.5-.1.7-.3.7-.7v-.5h-.2A1.4,1.4,0,0,0,77.6,35.2Zm.7-3.3v.9l.2.2h.1l.2-.2a1.1,1.1,0,0,0-.5-.9Zm.3-10.2h-.1a2.4,2.4,0,0,0,1,1h.1C79.6,22.5,79.3,22.1,78.6,21.7Zm1.3,1.5v.2h.3v-.2ZM80,37h.1a8,8,0,0,0,1.2-4.3v-.9h-.1C80.8,31.8,80.4,33.6,80,37Zm.5-10.7.5.9h.2a1.1,1.1,0,0,0-.5-.9Z" transform="translate(-1.2 0)" style="fill:#b75326"/><path d="M100.8,12.9a18,18,0,0,1,4.1.9c2.4,2.3,3.8,4.1,4.3,5.3s1.6,2.8,2.1,5.6c.7.7,1,2.1,1,4.4v1.5l-.2,6.2c0,1.1.7,2.7,2.3,4.6s2.2,2,2.7,2h0c0,.5-.8,1.3-2.2,2.4s-1.8,1.5-2.1,1.5h0c-.6,0-2.3-1.2-5-3.6-2.4.9-4.8,1.8-7.3,2.9a18.6,18.6,0,0,1-5.4.7h-.4a10.8,10.8,0,0,1-5.6-2.6,13.3,13.3,0,0,1-1.8-3.1,4.7,4.7,0,0,1-1.1-3.3V36.6a6.2,6.2,0,0,1,.9-3.2A17.1,17.1,0,0,1,90,28.6a4.4,4.4,0,0,1,2-1.5,13.5,13.5,0,0,1,6.3-1.7h3.1a6.4,6.4,0,0,1,3.4.7h.4c.1,0,.2-.1.2-.3a20.7,20.7,0,0,0-2.1-5.5c-.9-1.5-2.6-2.3-5.1-2.3l-2.5-.3c-2.2.4-3.3.8-3.3,1.3a10,10,0,0,0-1.6,4.2c0,.2-.8.3-2.2.3h-.4c-.1,0-.3.3-.6,1s-1.7-.4-1.7-.7a34.8,34.8,0,0,0,.5-4.5c.6-1.8,2.2-3.6,4.6-5.2a7.6,7.6,0,0,1,2.1-1ZM88.6,21.6v1h.1a.6.6,0,0,0,.2-.5v-.5h-.3Zm.7-4.5h.1c.3,0,.9-.4,1.6-1.2v-.2h-.1c-.4,0-.9.4-1.6,1.3Zm.8,24.7h.4l-.2-.2h-.2Zm.1,3.3h0c.2.4,1.3.8,3.1,1.4a6.2,6.2,0,0,0,2.5.4h0c0-.2-.8-.4-2.4-.7a14.7,14.7,0,0,1-2.8-1.4h-.2ZM91,29.3v.2h.2a.5.5,0,0,0,.6-.4h-.1Zm0,5.5c.3,2.5.6,3.8,1,3.8l.7.7h-.6v.2a12,12,0,0,0,4.8,3,2.8,2.8,0,0,0,1.3.3c.8,0,3.7-1.2,8.5-3.6a.8.8,0,0,0,.5-.7v-.3a57.7,57.7,0,0,1-.9-5.9h-.1c0-.5-.5-.9-1.4-1.1a25.8,25.8,0,0,0-6.2-1.3c-3.1.7-5.3,1.7-6.5,3.1A3.3,3.3,0,0,0,91,34.8ZM94.8,15h0c.1.2.3.3.7.3A5.6,5.6,0,0,0,97,15v-.3h-.2A5.3,5.3,0,0,0,94.8,15Zm2.1,29.2a.6.6,0,0,0,.6.3q.6,0,.6-.3h0V44h-.8Zm.7-27.5.2.4h.8v-.2h0l-.3-.3h-.5Zm2.3-2.4.2.3h.3l.2-.2-.2-.2h-.5ZM102,43.4h.4a6.1,6.1,0,0,0,2.2-.7h-.2C103,42.9,102.2,43.1,102,43.4Zm2.6-28.7h0a1.4,1.4,0,0,0,.9.5h.1v-.2a1.2,1.2,0,0,0-.9-.4Zm3,21.1v.3l.2.3h.1l.2-.3v-.3h-.5Zm.1-2.1.2.3h.2v-.2h-.4Zm1.8-3v.2h0Zm0,1.3v.3h.3V32Zm.1-3.3v.2c.2.6.4,1,.5,1h.1a1.7,1.7,0,0,0-.4-1.3h-.2Zm.3,5h0c.1,1.6.2,2.3.5,2.3h.1a5.4,5.4,0,0,0-.4-2.2Zm1,9c.1.3.2.5.4.5h.1l.3-.2v-.2l-.4-.3H111Zm.3-16.3v.2c0,.3.1.5.2.5v-.4l-.2-.3Zm1.1,17.4h0l.2.3h.3V44h0l-.3-.3h-.2Zm.5-2.3v.4c.2.5.3.8.5.8h.2v-.2c-.2-.6-.3-1-.6-1Z" transform="translate(-1.2 0)" style="fill:#b75326"/><path d="M122.3,15.1h.2a5.8,5.8,0,0,1,3.3.8c.7.1,1,.3,1,.4v.2c-.6,0-.9.1-.9.4s.5.3,1.1.3a1.3,1.3,0,0,0,.9.5h1.6l.7.2,4.7-1h.2a22,22,0,0,1,8.4,4.1c2.6,2.7,4.1,4.6,4.5,6a13.2,13.2,0,0,1,.6,2.9c-.6,4.9-1,7.4-1.5,7.4a20.2,20.2,0,0,1-2.8,4.1l-.5.5V42h0a5.5,5.5,0,0,1-2.2,1.7,1.4,1.4,0,0,0-.7,1.1,3.9,3.9,0,0,1-2.9.9,24,24,0,0,1-6.1,1.5,6.9,6.9,0,0,1-2.7-1l-2.9-.3-.4.2a9.2,9.2,0,0,1,.4,3.3v.8l.4,2.8v5c0,1,.4,1.5,1.1,1.5l.4.4h0c-.3,0-.4.1-.4.4a3,3,0,0,1,.9,2.3l.3,1.1a6.9,6.9,0,0,1-2.2.3l-4.3-.3-1.3.9c-.9-.3-1.8-1.3-2.7-3.1h-.1v-.3c.3,0,.4-.1.4-.2h0a2.1,2.1,0,0,1-.5-.9V60h.2c.1,0,.1,0,.1.2h.4l.2-.2v-.7a1.4,1.4,0,0,1,1.3-.6c.2-.1.2-1.1.2-3V51.4c0-1-.1-2.8-.3-5.6V20.5h-1.6l-.2-.2V16.9a1.4,1.4,0,0,1,1.6-1.6A6.1,6.1,0,0,1,122.3,15.1Zm-2.8,1.2a.5.5,0,0,0,.4.5h.3a.6.6,0,0,0,.6-.3v-.2a.5.5,0,0,0-.6-.4h-.1A.5.5,0,0,0,119.5,16.3Zm.6,46h0c0,.1.3.2.9.2s1-.1,1-.2v-.2h-1.7Zm.1-44.4v.3a1,1,0,0,0,.5.8h.1v-.7a.8.8,0,0,0-.2-.6h-.3Zm1,42.9h0a.6.6,0,0,0,.5.2h.1l-.2-.2Zm.8-38.6a2,2,0,0,0,.4,1.4h0l-.5,1.2.4,1a70.7,70.7,0,0,0-.6,7.7V38a15.5,15.5,0,0,0,.4,3.2l-.4,1.9v.6l.2,5.3h.2c.4-.2.6-.4.6-.7v-.2l-.3-.5a27.2,27.2,0,0,0,.4-5.3V38.2c.2-6.6.3-11.4.3-14.5h0c0-2.4-.2-3.6-.5-3.6S122,20.7,122,22.2Zm.1,28.7v1c0,.7,0,1,.2,1a4.5,4.5,0,0,0,.6-2.4v-.3c0-.1-.1-.2-.4-.2A1,1,0,0,0,122.1,50.9Zm.5,3.6v1a2.3,2.3,0,0,0,.2,1.1h.3V55.5c0-.7-.1-1-.2-1ZM124,26v4.6h.3V25.9H124Zm0,34.8h0l.2.2h.3v-.2l-.2-.2h-.1Zm.1-37.5v.4c.2,0,.3-.3.3-1h-.1C124.2,22.7,124.1,22.9,124.1,23.3ZM125.6,61h0l.2.2h.3v-.2h0v-.2h-.3Zm4.8-38c0,.3-.4.6-1.2,1v.2h.5c-1.8.8-2.8,1.5-3.2,2.2s-.3,3.9-.5,11.5v.9a18.5,18.5,0,0,0,2.7,2.3l2.6,1.1c.1.2.2.4.3.4h.2a8.2,8.2,0,0,0,4.2-1.3,6.8,6.8,0,0,1,2.7-1.5c2.2-1.7,3.2-3.3,3.2-4.8V33.3h0l.5-.6v-.2q-.6-.3-.6-1.5a5,5,0,0,0-1.2-3.5,5.2,5.2,0,0,0-2.2-2.7c-.3-.5-1.3-1-3.2-1.5h-.5l-2.9.3h-.2a.9.9,0,0,1-.8-.5ZM126,40c.1.4.3.7.7.7v-.2a1.2,1.2,0,0,0-.5-.5Zm.1-22.2V18l.2.2h.1v-.6h-.1Zm.3,25.7h0q0,.6,3.6.9l1.3-.6h0l-.3-.3h-.3L129,44A7.7,7.7,0,0,0,126.4,43.5Zm.6-20.7h.2l.3-.3h-.2Zm1-4.4.2.2h.3l.2-.3h-.2C128.1,18.2,128,18.3,128,18.4Zm3.7.7,2.6.6c0,.1.2.1.5.1h1l.2-.2-.2-.2h-1.2l.2-.3v-.3h-1.5C132.3,18.8,131.8,18.9,131.7,19.1Zm.7,3.7c0,.1.3.2.8.2h.5l-.3-.3h0l3.5-.4.3-.2-.2-.3h-.5C133.8,21.8,132.4,22.2,132.4,22.8Zm.8,21.2h.2c2.4-.5,3.6-.9,3.6-1.3h0c0-.1-.1-.2-.3-.2C134.4,43.2,133.2,43.7,133.2,44Zm2.5-26.4v.3a2.8,2.8,0,0,0,1.3.3h.3c0-.2-.5-.4-1.5-.5Zm1.2,5h0c.2.3.6.4,1.3.4h.6c-.1-.2-.6-.3-1.5-.4Zm1-4.2h0a3.7,3.7,0,0,0,1.7,1h.2C139.8,19.1,139.2,18.7,137.9,18.4Zm.8,3.6h0l.3.2h.1V22Zm.2,21.8h.1c.8-.3,1.3-.5,1.4-.7h0l-.2-.2h-.1C139.3,43.1,138.9,43.5,138.9,43.8Zm.9-20.3h0c0,.5.4.9,1.2,1.3h.2a1.6,1.6,0,0,0-1.2-1.5Zm.6,16.2h.2c.5-.2.8-.5.8-.8h-.1A1.7,1.7,0,0,0,140.4,39.7Zm.1,2.1v.3h.1c.6-.2.8-.4.8-.7h-.1C140.9,41.4,140.6,41.5,140.5,41.8Zm.3-21.5h0a.8.8,0,0,0,.5.5h.2c-.1-.3-.2-.4-.5-.4Zm.8,6v.4a4.9,4.9,0,0,0,1,2h.1v-.3a2.9,2.9,0,0,0-.8-2.1Zm1,3.4V30h.3v-.4Zm0,5.5h.1c.5-.1.7-.3.7-.7v-.5h-.2A1.4,1.4,0,0,0,142.6,35.2Zm.6-3.3v.9l.3.2h0l.2-.2a1,1,0,0,0-.4-.9Zm.3-10.2h0a2.4,2.4,0,0,0,1,1h.1C144.6,22.5,144.2,22.1,143.5,21.7Zm1.4,1.5v.2h.3l-.2-.2ZM145,37h0a7.3,7.3,0,0,0,1.3-4.3v-.9h-.2C145.8,31.8,145.4,33.6,145,37Zm.5-10.7.5.9h.2a1.4,1.4,0,0,0-.5-.9Z" transform="translate(-1.2 0)" style="fill:#b75326"/><path d="M165.5,15.6a12.9,12.9,0,0,1,6.3,2.2c2.1,1.5,3.1,2.6,3.1,3.2,1.7,3.6,2.5,5.6,2.5,6.2v.5a9.1,9.1,0,0,0-.9,3h-5.7a5.6,5.6,0,0,0-1.7.2c-6-.5-10.1-.7-12.4-.7h-1.4a3.1,3.1,0,0,0-.7,1.5A4.3,4.3,0,0,1,155,34c0,1.6.2,2.5.7,2.8v.3h-.4l.6.6a3.6,3.6,0,0,0,1.1,2.1c1.4,2.4,2.8,3.9,4.4,4.4a13.3,13.3,0,0,0,4.7.7,4.6,4.6,0,0,0,1.7-.8c.8-.2,2.4-1.6,4.7-4v-.2c0-.1-.2-.2-.8-.2v-.3a7.1,7.1,0,0,1,3.4-3.6,15.8,15.8,0,0,0,2.3,1.7,49.7,49.7,0,0,0,3.6,5v.2c-1.3,1.7-2.3,2.6-2.9,2.6h-.2c0-.9-.5-1.4-1.6-1.6s-1.2.7-2.7,2.1a15.5,15.5,0,0,1-4.9,2.1,42.5,42.5,0,0,1-5.7.8l-3.5-1.2c-2,0-3.8-1.1-5.5-3.2a7.3,7.3,0,0,1-1.7-2.7c0-.3-.5-2-1.4-5.2a23.8,23.8,0,0,1-.4-3.4h0a22.2,22.2,0,0,1,4.9-14.4,4.6,4.6,0,0,1,2.9-2.2,19,19,0,0,1,3.6-.7Q162.3,15.3,165.5,15.6ZM151.6,31.3h0a1.9,1.9,0,0,0-.1.8v.3a3.6,3.6,0,0,0,.6,2h.1C152.2,32.7,152,31.6,151.6,31.3Zm0-2.3v.3c.1.3.1.4.3.4s.2-.2.3-.6h-.5Zm.8-3.3a5,5,0,0,0-.8,2.5h.1c.2,0,.6-.8,1.1-2.2S152.6,25.7,152.4,25.7Zm.1,11h0V37h.2v-.2h-.3Zm.6,1H153c.2.7.5,1,.7,1h.1C153.8,38.4,153.5,38.1,153.1,37.7Zm1.8-8.1H156l-.2-.2h-.2C155.2,29.2,155,29.3,154.9,29.6Zm.1-7.5h.1l.2-.2h-.2Zm0,4v.4h.1a2.3,2.3,0,0,0,.7-.7v-.2h-.3A.6.6,0,0,0,155,26.1Zm.6-1.7v.2c0,.5,3.7,1.1,11.2,1.6l.6.2h.8a11.8,11.8,0,0,0,3.3.8c0,.2.1.3.4.3a1.4,1.4,0,0,0,.4-1V25.2c0-.5-1-1.7-3.1-3.6A5.8,5.8,0,0,0,166,20l-2.1-.3c-3.4.6-5.6,1.5-6.7,2.5A15.3,15.3,0,0,1,155.6,24.4Zm0-.9h0a.5.5,0,0,0,.3-.5h0A.5.5,0,0,0,155.6,23.5Zm.2,21.2v.2c0,.2.4.5,1.1.7l.2.2h0c-.5-.7-.8-1-1.1-1.1Zm.5-23.9h0c.6-.1.9-.3.9-.4h-.3A.5.5,0,0,0,156.3,20.8Zm.3,8.4v.3h.3v-.2h-.3Zm.7-11.3h.2q1.2-.3,1.2-.6v-.4l-.2-.2h-.1C157.6,17.1,157.3,17.5,157.3,17.9Zm.8,10.7h0a59.6,59.6,0,0,0,6.5.6h.1l-1.3.2c0,.1.5.2,1.6.2s2.5-.1,2.5-.3S164.4,28.8,158.1,28.6Zm.6-2.1h0a8.5,8.5,0,0,0,4.3.8h1.3v-.2A27.4,27.4,0,0,0,158.7,26.5Zm.1-6.1a8.7,8.7,0,0,1,2.5-1.1h-.7C159.4,19.4,158.8,19.8,158.8,20.4Zm1-3.4h.1a16.5,16.5,0,0,0,3.7-.8c.3,0,.5-.1.5-.3h-.2a10.8,10.8,0,0,0-4,.9h-.1Zm.5,27.9h0c0,.2.4.3,1.2.5h.1a3.6,3.6,0,0,0-1.3-.5Zm2.1-26.7h0a6.6,6.6,0,0,0,2.6.6h.1v-.2a1.9,1.9,0,0,0-1.7-.7h-.2Zm1.3,27.4v.2h.3v-.2Zm2.4,1.6-1.4-.2h-.2c-.4,0-.6.1-.6.2h0l.2.3h1.1a15,15,0,0,0,4.5-.7h0c0-.2-.3-.3-.7-.3h-.3A4.8,4.8,0,0,0,166.1,47.2ZM165,17.3v.2a7.9,7.9,0,0,0,2.5.3h0v-.2c0-.2-.2-.3-.7-.3Zm1.2,1.3h0l3.7,2h.1l.7-.2h.4A2.3,2.3,0,0,0,170,20l-1.2-.5c-.3-.8-1-1.1-2-1.1h-.2C166.3,18.4,166.2,18.5,166.2,18.6Zm3.6,9.5v.2h.2v-.2Zm.1,1.6c0,.2.4.2,1.1.2h.6c0-.2-.4-.3-1.3-.3Zm0,14.1h.1a.9.9,0,0,0,.6-.6h-.1A1,1,0,0,0,169.9,43.8Zm.4,2.7c.5,0,.8-.3,1.1-.9h-.2Q170.3,46.1,170.3,46.5Zm.7-24.9c.1.4.3.5.6.5h.1v-.6l-.3-.3A.5.5,0,0,0,171,21.6Zm.8,20.3h.2c.4,0,.7-.3.8-.9h0C172.4,41,172.1,41.3,171.8,41.9Zm.5-19.4a6.4,6.4,0,0,0,1,2.2h.3v-.2c-.3-1.3-.7-1.9-1.1-1.9h-.3Zm.9,15.8h.4c.3,0,.5,0,.5-.2l-.2-.2h-.1A.6.6,0,0,0,173.2,38.3Zm.4,5.8h.2c.4-.3.6-.6.6-.8h-.1C173.8,43.5,173.6,43.8,173.6,44.1Zm.9-18.7V26a.5.5,0,0,0,.3-.5h0v-.2h-.2Zm.2,17,.2.2q.9-.3.9-.9h-.1A.9.9,0,0,0,174.7,42.4Zm1.4-.7h.3a.7.7,0,0,0,.4-.6h-.2C176.3,41.3,176.1,41.5,176.1,41.7Zm2.2-.6h-.1c.2.6.3.8.6.8h.2C178.9,41.3,178.7,41.1,178.3,41.1Z" transform="translate(-1.2 0)" style="fill:#b75326"/><path d="M205.6,17.8c1.6,0,2.9,1.1,4,3.4.3,0,.5.3.9.8l.8,4.6c-.3.4-1.4.7-3.2.7h-.7c-1.5-.2-2.3-.7-2.3-1.6a3.9,3.9,0,0,0-1.4-2.3c-.1-.2-1-.3-2.6-.3a16.2,16.2,0,0,0-5.7,1.2,20.6,20.6,0,0,0-3.1,3.8c.3,7.5.4,11.9.3,13.3s.2.5.7.5h1.6q.9,0,.9.3h0l.3.9-.2,3.4-.3.5-2.9.2h-.3l-1.2.4c-4.8-.1-7.1-.3-7.1-.5s-1.3-.4-1.3-1.1-.1-1.3-.1-2.3.8-1.3,2.4-1.6c0-.3.6-.5,1.7-.5h.2l-.4-16.9c0-1-.3-1.6-.8-1.6h-.4a10.9,10.9,0,0,0-2.5.7h-.1v-.2l.5-.3h0c-.4,0-.6-1.1-.6-3.5a6.5,6.5,0,0,1-.2-1,8.5,8.5,0,0,1,5.2-2h1.5a16,16,0,0,1,3.2.6v.3a2.8,2.8,0,0,0-.5,1.2v.4C195.2,17.6,199.8,17.1,205.6,17.8Zm-22,27.1-.2.3v.2l.2.2h.2v-.4Zm.6-25.9a1.2,1.2,0,0,0,1,.5h.1V19l-.3-.3C184.4,18.8,184.2,18.9,184.2,19Zm.7,26.9h0q0,.3,1.8.3h2.2c0-.2-1.1-.4-3.3-.5Zm.2-24.4h.2c.5,0,.7-.1.7-.3v-.2h-.1C185.4,21.1,185.2,21.2,185.1,21.5Zm0,23.4h3.5v-.2h-3.5Zm1.7-27.1v.3l.4.4h.5v-.2l-.7-.5Zm2.6,9.3v.3a2.8,2.8,0,0,1,.3,1.3,9.4,9.4,0,0,0-.2,2.5v2.5h.1c.2,0,.3-1.9.5-5.7.1,0,.1-.4.1-1.3s-.1-.5-.3-.5h-.1A.9.9,0,0,0,189.4,27.1Zm.5-3.2-.3,1.2a.5.5,0,0,0,.4.6h0c.2,0,.3-.3.3-.8l-.2-1Zm.5,21.3v.2h1l.2-.2c0-.2-.1-.2-.3-.3S190.4,45.1,190.4,45.2Zm.4-26h.1l.3-.2V19H191Zm.1-1.3v.4h.3l.2-.3h-.5Zm0,20.7v.5h.3l.2-.2v-.3l-.2-.2h0Zm.1,1.2V40h.2v-.2Zm1.2-17.9v.2h.6v-.2h-.6Zm4.2-1.5v.2c.4,0,.8-.6,1.4-1.8v-.3h0C196.7,18.8,196.2,19.4,196.4,20.4Zm2.3-1.3.3,1.2h.5V19l-.2-.2h-.1C198.9,18.9,198.7,19,198.7,19.1Zm1.5-.5h.7c.3,0,.5,0,.5-.2h-1.2Zm2-.1h.4l.2-.2v-.2C202.4,18.3,202.2,18.4,202.2,18.5Zm1.5.3h0Zm.6,3.6h.3c.3-.1.7-.5,1.2-1.4h0l-.2-.2a1.6,1.6,0,0,0-1.1,1.4C204.4,22.1,204.4,22.2,204.3,22.4Zm1.8,1.7v.2h.1l.3-.3h-.1C206.2,23.9,206.1,24,206.1,24.1Zm0-5.5h0Zm1.9,2.1h0a1,1,0,0,0,.9.6h.1v-.2a1.1,1.1,0,0,0-.9-.5Z" transform="translate(-1.2 0)" style="fill:#b75326"/><path d="M242.8,12.7c6.1,0,9.1.4,9.1,1.2l.3,2a8.4,8.4,0,0,0-.7,2.6l-.4.2-2.6-.4h-.2c-.2,0-.6,1.5-1.4,4.5a101,101,0,0,1-2.1,10.7c-.3,4.2-.7,6.8-1.3,7.7s-.8,3.3-1.5,6.7h-.2l-.7-.2h-3.7c-1.2,0-1.8-.2-1.9-.4h0c0-.2,1.3-.3,3.9-.5.6-.2,1-.3,1-.4h-.1l-5.2.5a7.1,7.1,0,0,1-1.2-3,20.9,20.9,0,0,1-1.2-6.1,6.5,6.5,0,0,1-.7-2.5,29.4,29.4,0,0,0-1.4-6.3c0-.1,0-.2-.1-.2a29.4,29.4,0,0,0-1.6,4.9c-1.6,5-2.7,8.3-3.3,9.8l-1.3,1v.2c.7.4,1,.7,1,1s-.9.6-2.2.7-4,.4-4.3-.2a3.8,3.8,0,0,1-.3-1.9v-.7a50.2,50.2,0,0,0-1.5-11.2,12.1,12.1,0,0,0-.8-3.6l.2-2h0c0-5.2-.2-7.9-.5-7.9l-4.3-.2c-.7,0-1.2-.7-1.7-2.1h0a6.7,6.7,0,0,1,1.3-2.5h2.3a35.3,35.3,0,0,1,5,.3c1.3.1,2,.3,2,.4v.5c.4.6.6,2.3.6,4.9.3,5,.4,8.5.4,10.3v5.4c0,2.9.3,4.6.8,5.1s1.4-1.6,1.9-4.8,3.3-8.4,4.7-11.7l1-1.3-.4-.5h0q0-.5,1.8-.6c2.1-.2,3.3.4,3.6,1.7s.4,2.9.5,4.5c.8,5.4,1.5,10.1,1.9,14.3.2.3.3.5.5.6h.4c.7,0,1.1-.5,1.1-1.5a29.6,29.6,0,0,0,1-4.9c.9-4.4,1.6-12.4,2.2-23.9ZM211,15.2v.3h.3c1.8,0,2.7-.2,2.7-.4s-.5-.4-1.5-.4S211,15,211,15.2Zm.3,1.9h0a.5.5,0,0,0,.6.4l.2-.2-.3-.3ZM213,17h3.5v-.2H213Zm4.4,3.4v1.1c0,1.9.2,2.9.4,2.9h.2v-.8a18.7,18.7,0,0,0-.4-3.2Zm.7,8.9v1h.2v-1Zm1.2-4.6v.8a65.9,65.9,0,0,0,.8,7h.1v-.9a24.7,24.7,0,0,0-.7-6.9Zm.3,13.8c0,.7.1,1,.2,1h.1a4.8,4.8,0,0,0,.3-1.8c-.1-.4-.2-.5-.3-.5S219.6,37.6,219.6,38.5Zm0,3.2v.2c.2.3.4.5.7.5v-.5l-.3-.3Zm.2,3.1h.4v-.3H220Zm2.3-2h.5v-.3C222.3,42.4,222.1,42.5,222.1,42.8Zm2.8-3.1v.4h.3c0,.4-.6,1.2-1.7,2.4h.1c1.2-.3,1.8-1,1.8-1.8a33.6,33.6,0,0,0,1.7-5.7h-.2C226.3,35.6,225.6,37.1,224.9,39.7Zm3.8-11.2.3.2v-.2H229Zm1.8-3.8h-.1v.5h.2c.2,0,.2,0,.2-.2S230.6,24.7,230.5,24.7Zm2.7,5.6h0a7.7,7.7,0,0,0,.8,4h.1c-.3-2.7-.6-4-.8-4Zm1.7-5h.1v.2h-.1Zm.1,17.2v1c0,.1.1.2.3.2s1.1-.2,1.1-.5v-.3h-.1l-.7.3c-.1,0-.2-.2-.3-.8H235Zm3.1,1.5h.2q.6-.1.6-.3h-.2C238.4,43.7,238.1,43.8,238.1,44Zm1.4.1h0l.4.3h.3c.1,0,.3-.3.3-.9v-.4h0C239.9,43.4,239.5,43.7,239.5,44.1Zm.8-1.7v.2h.1c.3,0,.6-.9.7-2.6q.5,0,.9-4.2v-.5h-.1a8.2,8.2,0,0,0-.9,3.2A14.1,14.1,0,0,1,240.3,42.4ZM247.4,16v.2l.4.4h.4l.2-.3h0v-1l2.3-.2h-2.2C247.7,15.3,247.4,15.7,247.4,16Zm.1-1.6h.9c1.6.1,2.5,0,2.6-.2h-.2C248.7,14.1,247.5,14.2,247.5,14.4Z" transform="translate(-1.2 0)" style="fill:#b75326"/><path d="M266.2,15.6a12.9,12.9,0,0,1,6.3,2.2c2.1,1.5,3.2,2.6,3.2,3.2,1.6,3.6,2.4,5.6,2.4,6.2v.5a10.1,10.1,0,0,0-1,3h-5.6a5.2,5.2,0,0,0-1.7.2c-6-.5-10.1-.7-12.5-.7h-1.3a3.6,3.6,0,0,0-.8,1.5,4.2,4.2,0,0,1,.5,2.2c0,1.6.2,2.5.7,2.8v.3h-.4l.6.6a3.6,3.6,0,0,0,1.1,2.1c1.3,2.4,2.8,3.9,4.4,4.4a12.9,12.9,0,0,0,4.7.7l1.7-.8c.8-.2,2.4-1.6,4.7-4v-.2c0-.1-.3-.2-.8-.2l-.2-.3a7.2,7.2,0,0,1,3.5-3.6,12.4,12.4,0,0,0,2.2,1.7c1,1.5,2.2,3.1,3.7,5v.2c-1.4,1.7-2.3,2.6-2.9,2.6h-.2c0-.9-.6-1.4-1.7-1.6a13,13,0,0,0-2.7,2.1,14.5,14.5,0,0,1-4.9,2.1,38.7,38.7,0,0,1-5.7.8l-3.5-1.2c-1.9,0-3.7-1.1-5.4-3.2a7.3,7.3,0,0,1-1.7-2.7c0-.3-.5-2-1.4-5.2a14.8,14.8,0,0,1-.4-3.4h0a22.2,22.2,0,0,1,4.9-14.4,4.3,4.3,0,0,1,2.9-2.2,17.7,17.7,0,0,1,3.5-.7A9.7,9.7,0,0,1,266.2,15.6ZM252.3,31.3h0c0,.2-.1.5-.1.8v.3a3.6,3.6,0,0,0,.6,2h.2C253,32.7,252.8,31.6,252.3,31.3Zm0-2.3v.3c0,.3.1.4.2.4s.3-.2.3-.6h-.5Zm.8-3.3a6.3,6.3,0,0,0-.8,2.5h.1c.3,0,.6-.8,1.1-2.2S253.4,25.7,253.1,25.7Zm.1,11h0l.2.2h.1v-.2h-.3Zm.7,1h-.1c.2.7.4,1,.7,1h0A1.5,1.5,0,0,0,253.9,37.7Zm1.7-8.1h1.2l-.2-.2h-.2A.8.8,0,0,0,255.6,29.6Zm.1-7.5h.2V22h-.1Zm0,4v.2l.2.2h0a2.7,2.7,0,0,0,.8-.7v-.2h-.3C256.1,25.6,255.9,25.8,255.7,26.1Zm.6-1.7v.2c0,.5,3.8,1.1,11.3,1.6l.6.2h.7a13,13,0,0,0,3.4.8c0,.2.1.3.4.3a2.1,2.1,0,0,0,.4-1V25.2c0-.5-1.1-1.7-3.1-3.6a5.8,5.8,0,0,0-3.2-1.6l-2.1-.3c-3.4.6-5.7,1.5-6.8,2.5A10.2,10.2,0,0,1,256.3,24.4Zm.1-.9h0a.5.5,0,0,0,.3-.5h0A.5.5,0,0,0,256.4,23.5Zm.2,21.2v.2c0,.2.4.5,1,.7l.3.2h0a3.5,3.5,0,0,0-1.1-1.1Zm.4-23.9h.1c.6-.1.8-.3.8-.4h-.3A.7.7,0,0,0,257,20.8Zm.3,8.4v.3h.3v-.2h-.3Zm.7-11.3h.3q1.2-.3,1.2-.6v-.4l-.2-.2h-.2C258.4,17.1,258,17.5,258,17.9Zm.8,10.7h0a62.5,62.5,0,0,0,6.6.6h0l-1.3.2c0,.1.6.2,1.6.2s2.6-.1,2.6-.3S265.2,28.8,258.8,28.6Zm.7-2.1h0a8.3,8.3,0,0,0,4.2.8h1.4v-.2A27.4,27.4,0,0,0,259.5,26.5Zm.1-6.1a8.7,8.7,0,0,1,2.5-1.1h-.7C260.2,19.4,259.6,19.8,259.6,20.4Zm.9-3.4h.1a17,17,0,0,0,3.8-.8c.3,0,.5-.1.5-.3h-.2a11.7,11.7,0,0,0-4.1.9h-.1Zm.5,27.9h0c0,.2.4.3,1.3.5h.1a3.6,3.6,0,0,0-1.3-.5Zm2.2-26.7h0a5.7,5.7,0,0,0,2.5.6h.1v-.2a1.8,1.8,0,0,0-1.6-.7H264C263.4,18,263.2,18.1,263.2,18.2Zm1.3,27.4v.2h.3v-.2Zm2.3,1.6-1.3-.2h-.2c-.4,0-.6.1-.6.2h0l.2.3H266a15,15,0,0,0,4.5-.7h0c-.1-.2-.3-.3-.7-.3h-.3A5,5,0,0,0,266.8,47.2Zm-1.1-29.9v.2a8.7,8.7,0,0,0,2.5.3h.1v-.2c0-.2-.2-.3-.7-.3Zm1.2,1.3h0a39.2,39.2,0,0,0,3.8,2h.1l.6-.2h.4a1.9,1.9,0,0,0-1-.4l-1.2-.5c-.3-.8-1-1.1-2-1.1h-.2C267.1,18.4,266.9,18.5,266.9,18.6Zm3.7,9.5v.2h.2v-.2Zm.1,1.6c0,.2.3.2,1,.2h.7c0-.2-.5-.3-1.3-.3Zm0,14.1h.1a1,1,0,0,0,.5-.6h0A1,1,0,0,0,270.7,43.8Zm.4,2.7a1.1,1.1,0,0,0,1-.9H272Q271.1,46.1,271.1,46.5Zm.6-24.9c.2.4.4.5.7.5h0l.2-.2v-.4l-.3-.3C271.9,21.2,271.7,21.4,271.7,21.6Zm.9,20.3h.2c.4,0,.7-.3.8-.9h0A1.1,1.1,0,0,0,272.6,41.9Zm.5-19.4c.4,1.3.7,2,1,2.2h.2v-.2c-.3-1.3-.6-1.9-1-1.9h-.3Zm.9,15.8h.4c.3,0,.4,0,.4-.2l-.2-.2h-.1A.5.5,0,0,0,274,38.3Zm.3,5.8h.2c.4-.3.7-.6.7-.8h-.1C274.6,43.5,274.3,43.8,274.3,44.1Zm.9-18.7v.4l.2.2a.5.5,0,0,0,.3-.5h0v-.2h-.2Zm.3,17v.2c.7-.2,1-.5,1-.9h-.1A.9.9,0,0,0,275.5,42.4Zm1.4-.7h.2a.5.5,0,0,0,.4-.6h-.2A.7.7,0,0,0,276.9,41.7Zm2.2-.6H279c.1.6.3.8.5.8h.2C279.6,41.3,279.4,41.1,279.1,41.1Z" transform="translate(-1.2 0)" style="fill:#b75326"/><path d="M285.5,14.8a1.6,1.6,0,0,0,1.2.4l.8-.4c5.6,0,8.4.2,8.4.5v1.5a6.9,6.9,0,0,1,.5,2.4v.9c-.5,5.7-.8,11.2-1,16.4a2.9,2.9,0,0,0-.2,1.2c0,.2.2.3.5.3h.3c2.2,0,3.3.3,3.3.8h-.1v.4A11,11,0,0,1,300,44l.2,2.4v.2h-8.9c-4.6,0-7-.4-7-1.1a3.1,3.1,0,0,0-.3-1.3.9.9,0,0,1,.6-.7h.2l.5.2h.2l4.3-.3v-.2c-3.6-.2-5.3-.4-5.3-.8V41.3l-.2-1.6c0-.4,1.6-.6,4.7-.6.4,0,.6-1,.6-2.8l.7-16.2h0c-1.6,0-2.1-.2-1.6-.5-2.5,0-3.7-.2-3.7-.8a.5.5,0,0,1-.3-.5l.4-.8c0-.1-.2-.3-.4-.6h0c.3-.2.5-.9.7-1.9h.3Zm.1,26.4h0c.3.3,1.6.5,3.8.6h.4c.4,0,.6-.1.7-.3h0l-4.5-.3Zm.7-25.2v.2h.3c1.1,0,1.6-.1,1.6-.2v-.2h-.2C286.8,15.8,286.3,15.9,286.3,16Zm.2.9v.2c0,.1.3.2.8.2h2.9c.7,0,1-.1,1-.3h0c0-.3-1.2-.3-3.6-.2Zm7.3-14.2a3.7,3.7,0,0,1,3.4,2.2l.4,2a7,7,0,0,1-1.3,3,3.3,3.3,0,0,1-2.5.8q-3.9,0-4.8-1.2a4.5,4.5,0,0,1-.9-3.4h-.2C289.1,4,290.4,3,291.7,3Zm-3.3,1.8h0c1.3-.2,2-.4,2-.6h-.3C291,4.1,290.5,4.3,290.5,4.5Zm.3,29.7c0,.3.1.5.2.5s.2-.2.2-.6v-.9a9.2,9.2,0,0,0,.6-2.5V29.5c.3-.2.4-.3.4-.5a3.5,3.5,0,0,1-.3-1.3h0c.2,0,.4-2.3.6-7-.1-.3-.2-.5-.3-.5H292c-.6,0-.9,2.1-1,6.1Zm1.3,9.4h-.9v.2h.9l1.8-.2h-1.8Zm-.5-37.3h.4c.5,0,.8-.2.9-.5h-.8a.6.6,0,0,0-.6.5Zm.2,35.6.2.3h.1c.4,0,.5-.2.5-.6h-.3C292,41.6,291.8,41.7,291.8,41.9Zm.6-4v.3h.2l.3-.2v-.2l-.2-.2h-.1Zm.1-1.2v.4h.1c.2-.1.3-.3.3-.7V36h-.1C292.6,36,292.5,36.2,292.5,36.7Zm0-19.8h0c.3,0,.6.2,1.1.6h.1c.1,0,.2,0,.2-.2h.1q.2,0,.3.6h.1l.9-.7V17h-2.8Zm.4,3.5.3,1-.4,1c.1.4.3.6.4.6h.1v-.7c0-1.6.3-2.3.7-2.3l.2-.2v-.3h-.5C293.1,19.4,292.9,19.7,292.9,20.4Zm.5,10.5a12.1,12.1,0,0,0-.5,3.4h0c.3,0,.5-.9.8-2.6v-.8Zm-.5-21.8h1.3l-.2-.2h-.9Zm.8,11.8v.3a.6.6,0,0,0,.3.6h.2l.2-.3v-.3c-.1-.1-.2-.3-.4-.4Zm.8-13.1V8h.2a.8.8,0,0,0,.7-.5V7.3h-.1A1,1,0,0,0,294.5,7.8Zm0,7.9.2.2h.1v-.2l-.2-.2Zm1.2-9.6v.2h.1l.3-.2V5.8H296Zm1.4,35.8c0,.5.4.7,1,.7h.3l-.2-.3.6-.3v-.3a.5.5,0,0,0-.3-.5h-.3c-.1,0-.2.2-.4.6Zm.3-2.7a3.1,3.1,0,0,0,1.3.3h0c0-.2-.3-.3-.8-.3h-.5Zm0,4.1v.2h.1l.2-.3h-.3Zm1.5,2.5V46h.4v-.2h-.2Z" transform="translate(-1.2 0)" style="fill:#b75326"/><path d="M315,14.3h2a16.2,16.2,0,0,1,4.8,1.2,10.4,10.4,0,0,1,3.9,1.6h.3c.5,0,1.4-.8,3-2.4.3,0,.9.5,1.8,1.7a6.3,6.3,0,0,1,1.5,1.1v.2c-2.4,2.6-3.6,4-3.6,4.3a40.4,40.4,0,0,1-2.1,6.2,10,10,0,0,1-3.4,2.2q-2.7,2.7-4.8,2.7h-1.9l-4-.4h-.8c-.3,0-.7,1.3-1.3,4l.5.2h.2a3.5,3.5,0,0,0,2.1-.8h3.9a37.8,37.8,0,0,1,9.8,1.1,9.4,9.4,0,0,0,2.7,1.4l2.1,1.5a10.2,10.2,0,0,1,3,3.8,15.9,15.9,0,0,1,2.3,7.3c0,1.6-1.2,3.5-3.6,5.8l-3.7,2.7a13.6,13.6,0,0,1-7.1,1.8l-1.7.2c-7.4,0-12.3-1.4-14.9-4.4-1.9-1.2-2.9-2.7-2.9-4.5a10.7,10.7,0,0,1-1-5.2l-.2-1.3.2-.8h.2c.1.9.3,1.4.5,1.4h.2a38.8,38.8,0,0,1,1.4-5.2h-.2a16,16,0,0,0-1.7,3.3h-.1c-.2,0-.3-.2-.3-.7s.8-2.2,2.3-4.2a16.6,16.6,0,0,0,2.3-2.6,57.6,57.6,0,0,1,1-6.4,10.9,10.9,0,0,1-1.6-5.1v-1a19.6,19.6,0,0,1,.8-3.8,28.3,28.3,0,0,0,2.6-3.4C311.6,15.4,313.4,14.3,315,14.3ZM302.7,49.2v.4l.2.2h.1v-.7h-.3Zm.3,1v.2c0,.3.1.4.2.4h.2v-.2l-.3-.3Zm1.9-5.4v.3h.2c.2,0,.4-.6.7-1.8h-.1A1.8,1.8,0,0,0,304.9,44.8Zm.6-3.5h0v.2c1-.3,1.5-.6,1.5-1v-.5h-.2A3.2,3.2,0,0,0,305.5,41.3Zm0,13.2c.1.2.2.4.3.4l.3-.3c0-.2-.2-.3-.4-.4Zm.7-5v1.2c0,.9.1,1.3.3,1.3h.1c.2,0,.2-.2.2-.4v-.8q0-1.5-.3-1.5h-.1Zm.3-6.2v.3h.2l.4-.4v-.3C306.9,42.9,306.7,43.1,306.5,43.3Zm.1-19a2.6,2.6,0,0,0,.7,2h.2c.1,0,.2,0,.2-.2-.2-1.7-.4-2.6-.7-2.6S306.7,23.8,306.6,24.3Zm10.5,17h0l-.9.2-1.4-.2h-4.6c-1.8,1.7-2.8,2.9-2.8,3.6l-.4.4h0c.4,4.3.8,6.8,1.3,7.7s.8.9,2.3,1.9,1.2.8,3.6,1.5a71.8,71.8,0,0,0,9,.8c3.1-.6,5.2-1.4,6.3-2.6s3.1-3.8,3.1-5.1v-.3c0-.8-.8-2.1-2.4-4.1a4.6,4.6,0,0,0-1.9-1.7,13.6,13.6,0,0,0-5.5-2.2H319v-.4h-.8C317.7,41.1,317.3,41.1,317.1,41.3ZM307.2,56h.6v-.3h-.5Zm.2-33.6h.2a4.8,4.8,0,0,0,1-1.2h-.2C308.2,21.1,307.8,21.5,307.4,22.4Zm0,20.3h.2l.8-.2v-.2h-.2C307.7,42.4,307.4,42.5,307.4,42.7Zm.1-13.2v.3a3.2,3.2,0,0,0,1.8,1.4V31q-.6-1.5-1.5-1.5Zm.5,10.6.3.3h.4l.3-.4v-.4l-.3-.2C308.3,39.4,308.1,39.7,308,40.1Zm.1,15.3h0l.3.2h.3a.6.6,0,0,0-.5-.2Zm.8-22.9v.4a.7.7,0,0,0,.5.7l.2-.3v-.9l-.2-.2h-.2Zm.7-7.3h0a2.6,2.6,0,0,0,.7,1.9h.1v-.2c-.1-1.1-.3-1.7-.6-1.9Zm.5,5h0c.2.4.4.6.8.6s.2-.1.3-.3-.3-.4-1-.5Zm.5-6.7v.3c.6,3.1,1,4.6,1.3,4.6a4,4,0,0,0,2.5,1.5c3.1,0,5.4-.8,6.7-2.2a8.9,8.9,0,0,0,2.3-2.9,3,3,0,0,0,.4-1.3v-1a5.5,5.5,0,0,0-1.4-3,16,16,0,0,0-4.6-1.4,7.6,7.6,0,0,0-5.6,2.5A5.6,5.6,0,0,0,310.6,23.5Zm.1,15.6c0,.1.6.2,1.9.2s.9-.1.9-.2a1.6,1.6,0,0,0-.7-.7H312C311.1,38.5,310.7,38.8,310.7,39.1Zm.5-19.5h.2c.3,0,.6-.3,1-.8v-.2H312C311.5,19,311.2,19.3,311.2,19.6Zm.4,11.2h-.1v.5l.3.3h1.1v-.3Zm.6,9.8v.2h.4v-.3h-.4Zm.4-24.7h0c1.5-.4,2.2-.7,2.2-.9h-.2A3.1,3.1,0,0,0,312.6,15.9ZM323,58.7c-4.9-.3-7.8-.6-8.6-.9h-1.6a4,4,0,0,0,2,.8h1.9l.4.4h.2a17.8,17.8,0,0,0,3.5.4h1.4a6.5,6.5,0,0,0,3.7-.8,10.9,10.9,0,0,0,2.6-1h0C326.1,57.8,324.3,58.3,323,58.7Zm-9.5-27.1c0,.4.7.6,2,.6h1.8a.6.6,0,0,0,.5-.2,8.4,8.4,0,0,0-3.5-.5h-.8Zm.4,5.7h0Zm.3-20.2v.2h.1l1.9-.6v-.3h-.5C314.7,16.6,314.2,16.8,314.2,17.1Zm.4,42.9h0l.2.2h.2Zm1.1.4h0c0,.1.2.2.6.2h.7q0-.3-1.2-.3Zm1.7-29.9c0,.1.4.2,1.1.3h.5c0-.2-.3-.3-.8-.4h-.6Zm0,6.8v.2c0,.3,2.1.5,6.4.7l1.3.4h.1l.5-.2h1.8v-.2a1.7,1.7,0,0,0-1.4-.5h-.6l-.6.2h0l-1.5-.7h-6Zm1.6-7.4h0l.3.3h.3q.3,0,1.2-.9v-.2h-.6A1.5,1.5,0,0,0,319,29.9Zm1.7,30.7h0a.5.5,0,0,0,.5.3h.4l.8-.2v-.2l-1.1-.2h-.4Zm.1-19.8a9.9,9.9,0,0,0,3.1.4,16.3,16.3,0,0,1,4.4,2h.8l.3-.2h0c-.3-.6-1.6-1.3-3.9-1.9l-4.4-.6Zm.3-10.9v.2h.2l.5-.4h-.4Zm.1,9.4h0q0,.3,1.5.3h0l-1.4-.2Zm.4-10.2h.2a2.4,2.4,0,0,0,1.1-.9l-.2-.2C322,28.5,321.6,28.9,321.6,29.1Zm1.2-1.4h.3c.8,0,1.3-.8,1.5-2.5v-.3h-.2A9.4,9.4,0,0,0,322.8,27.7Zm1.3,32.8h.2c.8-.1,1.2-.4,1.2-.7h-.3C324.6,60,324.2,60.2,324.1,60.5Zm.4-41.4h0c.2.8.6,1.1,1,1.1s.2,0,.2-.2-.3-.6-.9-1Zm1.3,8.3-.2.3h.2c.1,0,.2-.1.2-.4Zm0,33.3h.2a14.1,14.1,0,0,0,3-1.4h-.2Q325.8,59.8,325.8,60.7ZM327,39.6h.4v-.3h-.2Zm1,.7c0,.2.5.4,1.4.7h.3a1.8,1.8,0,0,0-1.4-.6H328Zm.6-20.5v.3h.2a7.6,7.6,0,0,0,1.8-1.8v-.2h-.1C330.1,18.1,329.5,18.7,328.6,19.8Zm.4-3.6h0c0,.1.2.2.4.2h.4l-.4-.3H329Zm.7,27.4a10.4,10.4,0,0,0,1.8,2.4h0v-.2c-.5-1.6-1.1-2.3-1.7-2.3Zm.3-2.2h0l2.4,2.2h.1a3.5,3.5,0,0,0-2.1-2.2Zm1.1,13.1h0l.2.2c1.1-.4,1.6-.9,1.6-1.7v-.4h-.2C331.7,53.5,331.1,54.1,331.1,54.5Zm2.6-6v.2l.2.2h.1l.3-.2-.3-.2Zm1.4,1.8h0c0,.4,0,.6.2.6h.1a4.1,4.1,0,0,0,.5-1.8h-.2A1.1,1.1,0,0,0,335.1,50.3Zm.1-2.2v.2h.3v-.3Z" transform="translate(-1.2 0)" style="fill:#b75326"/><path d="M340.7,1.3c5.3.2,7.9.7,7.9,1.4l.5,9.1a45.3,45.3,0,0,1-1.4,6.3,14.9,14.9,0,0,0-.3,2.5V21h.2a15.3,15.3,0,0,1,9.5-3.2c1,0,2.9.6,5.7,1.7a31.6,31.6,0,0,1,2,2.6c.3.3.5.5.5.8v.6c1.2,1,1.8,2.6,1.8,4.9a46.2,46.2,0,0,1,.3,6.1h0c0,.6-.4,2.9-1,6.8l-.2,1.2h1.2c1.4.1,2.1.2,2.1.5s-.7.3-2,.4h0c0,.1.5.3,1.4.5l.3.3v.2q-1.2.1-1.2.3c.8.2,1.2.4,1.2.8s-.6,2.9-1.7,2.9h-.5c-1.6,0-2.4-.2-2.4-.7a7.9,7.9,0,0,0-2.5-.3l-1.8-.9v-.2a51.1,51.1,0,0,1,.9-7.8,39.5,39.5,0,0,1,1-6.5V30.1l.2-.2a2.3,2.3,0,0,1-.8-1.8A13.5,13.5,0,0,0,360,26a10.8,10.8,0,0,0-2.5-.9,8.8,8.8,0,0,0-6.2.2c-2.7,1.9-4,3.2-4,4l-.4,4.1.2,4.1c-.3,3.1-.6,4.6-1,4.6v.3h.6l1-.5c1,.2,1.5.5,1.5,1l-.4.3v.3c0,.2.3.3.8.4v.4c-.2,2.1-.5,3.2-.9,3.2h-.2q-.9-.6-6.6-.9c-2.7-.2-4.1-.6-4.1-1.2V44.4a1.8,1.8,0,0,1,.4-.8v-.4a7,7,0,0,1-.8-1.2c.2-.2,1.2-.3,3-.4s.5-.8.7-2.4.5-.8.7-1.9a2.1,2.1,0,0,0,.4-1h0a3.7,3.7,0,0,0-.7-1.9l.7-1.5c.2,0,.3-4.6.4-13.6l.9-9.1V7.4c0-.9-.3-1.3-.9-1.3h-2l-1.3.4c-.2,0-.4-.6-.4-1.7V4.1c0-1.8.2-2.7.7-2.7Zm-2,42v.2h2.6c0-.3-.6-.4-1.9-.5S338.8,43.1,338.7,43.3Zm.7,2.1h.1a12.3,12.3,0,0,1,3,.7,41.3,41.3,0,0,1,5.4.5h.1l.3-.3h0c0-.4-2-.6-5.9-.6a4.4,4.4,0,0,0-2.5-.6C339.6,45.2,339.4,45.3,339.4,45.4ZM339.9,3v.5h.2V3.2l-.2-.2Zm.9-.8v.2a3.3,3.3,0,0,0,2.1.6l.2-.3a6.8,6.8,0,0,0-2.2-.5Zm.6,1.2v.4h.8V3.6l-.7-.2Zm.2,38.1q0,.3,2.1.6h.2v-.5c0-.2-.2-.3-.4-.3h-1.3Q341.6,41.2,341.6,41.5Zm.2-37h0c0,.2.1.2.4.2h.9V4.5h-1.3Zm3,7.7a5.1,5.1,0,0,0-.2,2.2c.5,0,.7.4.7,1.1h.1a3.8,3.8,0,0,0,.1-1.2v-.9h0l-.3.7H345v-.4c.1-.3.2-.5.3-.5h.3A2,2,0,0,0,344.8,12.2Zm.4-1.7v.2l.2.2h.2v-.2l-.2-.3h-.1Zm0-1.8v.4l.2.2.2-.2V8.7l-.2-.2Zm.9,18.2v.4h.2c.4,0,.7-.3.8-1.1h.1v-.3h-.1A2.4,2.4,0,0,0,346.1,26.9Zm.4-24.1c.1.3.3.4.6.6h0a.5.5,0,0,0,.6-.4h0l-.3-.3h-.7Zm.3,25.2.2.2h.4c.2,0,.4-.1.4-.3h-.4C347,27.8,346.8,27.9,346.8,28Zm.3,15.6v.3l.3.3h.3l.3-.2h0l-.4-.4h-.5Zm.3-.8V43h.3v-.2Zm1.7-19.3h.3c.4-.2.7-.4.7-.6h-.2Zm2.5,1.4v.2h.2l.2-.3h-.1Zm2.7-3.1h0v.2h.5l-.2-.2Zm.8,2h0Zm.8-.7v.3a4.9,4.9,0,0,0,1.7.6l.3-.3c0-.2-.6-.5-1.6-.7Zm1.7-4.7h0c0,.2.3.3.8.4h0c0-.1-.2-.2-.7-.4Zm2.3,6.1h0c0,.4.2.6.5.6h0C360.4,24.7,360.2,24.5,359.9,24.5Zm.9,21.6v.2c.1.3.4.4.8.4h.6v-.2c0-.1-.2-.2-.7-.4Zm.2-26.2h0a.8.8,0,0,0,.8.5v-.2A.8.8,0,0,0,361,19.9Zm.1,25.6h0l.2.2h.1v-.2l-.2-.2Zm.2-.9h2.6a4.6,4.6,0,0,0-2-.4.7.7,0,0,0-.7.6Zm.7-20.9v.2a8.2,8.2,0,0,1,1.8,2.8c.2.3.4.4.5.4v-.5c0-.8-.6-1.7-1.8-2.9H362Zm.4,18.8v.2h.8v-.3l-.2-.2C362.7,42.1,362.6,42.2,362.4,42.5Zm1.1-16.8h0l-.5,1.3h.2l-.4-.4Zm1.4,14.1h.2c.3,0,.7-1.6,1.2-4.7a.9.9,0,0,0-.4-.8h-.3C365.3,34.3,365.1,36.1,364.9,39.8Zm.6-14.3h0l.3.4h.2v-.2l-.4-.4h-.1Zm.4,7.9v.2h.2v-.2l-.2-.2Z" transform="translate(-1.2 0)" style="fill:#b75326"/><path d="M379,0a3.3,3.3,0,0,1,2.3.7,22.4,22.4,0,0,0-1,6.2l-.6,5.7c0,.3.8.5,2.4.5,4.9,0,7.4.2,7.4.6a1.3,1.3,0,0,1,.7.4,4,4,0,0,0-.6,1.1v.3l.2,1.2-.8,2.7c0,.3.3.7.9,1.3h0a5.7,5.7,0,0,1-2.4.5c-.7,0-1-.1-1-.3h1l.2-.2v-.2h-7.8c-.2,0-.4,1.2-.6,3.5h-.1l-.8-1-.2.7v.4c0,1.1.2,1.8.4,1.8s.3-.4.4-1.1v-.4h.2v.2l-.5,5.9c.4,6.5.8,9.7,1.1,9.7s.7,2,1.6,2a3.1,3.1,0,0,0,1.7.4h1.1l3.6-.2c.2,0,.4,1.1.5,3.3s-.5,2-2.2,2h-4.7a9.6,9.6,0,0,1-6.6-2.2c-1.1-.4-1.7-1.7-1.7-3.7s-.3-4.9-.4-9.9l.9-5.4.2-3.6v-.5c-.3-1.7-.7-2.6-1.5-2.6h-4a5,5,0,0,0-1.9.4c-.4,0-.9-.6-1.5-1.6l1.3-5.5c0-.2,2.5-.3,7.4-.3a3.2,3.2,0,0,1,.9-2c.2-6.5.4-9.7.6-9.7V.8c0-.1,0-.1-.2-.1V.5A17.3,17.3,0,0,1,379,0ZM366.7,13.7c0,.3.1.4.5.4h.9l4.7-.2h0q0-.3-3-.3h-2.6C366.8,13.5,366.7,13.6,366.7,13.7Zm.8,1.4v.3c0,.4,1.4.6,4.1.6s2.1-.1,2.1-.3-1.8-.7-5.4-.8h-.7Zm.4,2.1a.3.3,0,0,0,.3.3h3.3a9,9,0,0,0-2.8-.3h-.6Zm0,.8v.2c0,.2,1.6.4,4.7.4h.4Zm5.7,13.6.2,1.7v2.8h.2c.3,0,.4-1,.4-2.9V31.7c.2.2.1.3-.1.3A1,1,0,0,1,373.6,31.6Zm2,7.9v1.3h.3v-1l-.2-.2Zm.3,4.3V44c.1,1.1.5,1.6,1.3,1.6h.6l.2-.2h0c0-.1-.4-.3-1.2-.4l-.8-1.1Zm.5-22.5v.5h.1c.2,0,.3-.2.3-.4v-.7h-.1A.6.6,0,0,0,376.4,21.3Zm.1,1.2v1h.3v-.9h-.3Zm.1-20.9V2h.2V1.6Zm0,25.1v.6l.2.2h.1v-.8Zm.3-22.9a7.2,7.2,0,0,0-.1,1.7v.2h.1l.2-1.1V4Zm.3,2.8-.3,6.1h0l.2.2h.1c.3,0,.5-.6.5-1.6V7c-.1-.2-.2-.4-.3-.4Zm.3,29.9v.8a.6.6,0,0,0,.3.6h.1a.5.5,0,0,0,.3-.5c-.1-.6-.3-.9-.4-.9Zm.1,6.9h-.1v.4l.5.5h.4A.9.9,0,0,0,377.6,43.4Zm.5-4.3-.2.7a2.2,2.2,0,0,0,.6,1.8l.2-.3v-.5C378.6,39.7,378.4,39.2,378.1,39.1Zm.3-16.9h0l.2.2h.1l-.3-.2ZM379.1,2h0l.2,1.4h.1a1.9,1.9,0,0,0,.7-1.3V2l-.2-.2h-.6Zm1.5,13.6h0c0,.2.7.3,2.3.4h1l1.4.3h.2a.5.5,0,0,0,.5-.4h-.1l-4.7-.4h-.6Zm.9,2.8v.2l2.2.6h.1a3.7,3.7,0,0,0-2-.7Zm3.6-4.6h-1.8V14a7.5,7.5,0,0,0,2.4.4h1.4c.1,0,.1-.1.1-.3s-.3-.6-.7-.6h-.6Zm-.7,30.9h.2c1.5-.3,2.3-.5,2.3-.8v-.2C385.2,44.1,384.4,44.5,384.4,44.7Zm.5-25.6a13.3,13.3,0,0,0,3,.5l.2-.2v-.6h-1.4C385.5,18.8,384.9,18.9,384.9,19.1Zm2.3-2.1h0l.2.2h.3a.8.8,0,0,0,.8-.4h-1.1Zm.2-2.8h.2c.4,0,.6-.1.7-.3h-.9Z" transform="translate(-1.2 0)" style="fill:#b75326"/><path d="M412.6,15.3a14.6,14.6,0,0,0,2.9.2h5.1v.2a8.2,8.2,0,0,0-.3,1.8v1.1c.2,1.1.5,1.7,1,1.7a4.5,4.5,0,0,1,2.5-1.3,20.1,20.1,0,0,1,8.1-2.2,7.7,7.7,0,0,1,4.6,1.9,7.8,7.8,0,0,1,3.4,2.8,17.3,17.3,0,0,1,2.5,9.5v.5l-.4,4.5.4,3.2-.6,2.9h0v.5h3.4a3.1,3.1,0,0,1,1.3.2c-.3,3-.6,4.5-1,4.5a5,5,0,0,1-2.7.7h-1.2a28.5,28.5,0,0,0-6.2.8c-1.5-.2-2.2-.9-2.2-2.2V44.7a3.8,3.8,0,0,1,1-3c.4-2,.8-3.8,1.3-5.5l.4-5.5c.1,0,.2-.5.2-1.4s-.9-2.6-2.6-4.7a9.3,9.3,0,0,0-2.4-.9,8.8,8.8,0,0,0-6.4,3,20.7,20.7,0,0,0-3,3.1c-.7.4-1,1.8-1,4.1.1,4.2.3,6.2.5,6.2s2.4.6,2.4,1v.3l-1.3-.2-1,.2v.2a8.1,8.1,0,0,0,2.4.6,2,2,0,0,1,.4,1.4h0a8.9,8.9,0,0,1-.6,3.1l-7.2.2a1.5,1.5,0,0,1-1.5-1.1,35.2,35.2,0,0,1-.6-4.5c0-.3.6-.5,1.9-.8l.3-.4h0c0-.2-.2-.5-.6-1V33.7l.3-5.7c0-3.9-.2-5.8-.6-5.8h-.3l-2.9.4c-.3,0-.7-.3-1.1-.8v-.3a1.5,1.5,0,0,0,.3-1V18.3l.9-2.8Zm-.3,4.2h0q0,.1.3.3a2.8,2.8,0,0,0,1.2-.5h-1.1C412.4,19.3,412.3,19.4,412.3,19.5Zm.4-2.2v.2c0,.1.3.2,1,.2,2.7,0,4-.2,4-.5l.2-.4h-.1Zm.1,4.2h.6l.3-.2h-.3C413,21.2,412.8,21.3,412.8,21.5Zm1.2-2.6.2.2h.1c.5-.1.8-.2.8-.4h-.3C414.3,18.7,414,18.7,414,18.9Zm.5,1.4h1.4c.4,0,.7.1.7.3v.2a.9.9,0,0,0-.3.6,1.2,1.2,0,0,0,.8.2c.1,0,.2,0,.2-.2V19.1h-.2l-2.5,1h-.1Zm.6,21.5h0c.1.7.3,1.1.8,1.1h.3l.3-.2h0a2,2,0,0,1-.7-1.1h-.6Zm1.7-19V23h.1l.2-.8H417C416.9,22.2,416.8,22.4,416.8,22.8Zm1,21.7c0,.2.6.3,1.6.3s3.1-.1,3.1-.3-.7-.4-2.1-.4S418,44.2,417.8,44.5Zm.8-24.1v1.5a1.3,1.3,0,0,1-.3,1v.3l.3.9v.5a.8.8,0,0,0,.4.7c.1,0,.2-.5.4-1.4s.8-.8.8-1.1a2.7,2.7,0,0,0-.7-1.3c-.1-.7-.2-1.1-.4-1.1Zm.9,3.9v.4a1.2,1.2,0,0,1-.6,1,.7.7,0,0,1,.4.6c0,2.1.1,3.1.4,3.1h.1a7.5,7.5,0,0,0,.4-2.9c0-1.5-.2-2.3-.5-2.4h-.1A.2.2,0,0,0,419.5,24.3Zm1.6-3.3v.2a2.4,2.4,0,0,0,1.9-1.1h-.1A2.8,2.8,0,0,0,421.1,21Zm.1,3.5v.2c1.1-.2,2.5-1,4.5-2.7h-.4a4.4,4.4,0,0,0-1.5.9C422.1,23.4,421.2,23.9,421.2,24.5Zm.4,1.6.2.2h.2v-.2h-.4Zm1.5-.2h.4v-.7h-.1Zm1.2-.9h.1c.7-.6,1-1,1-1.4h-.1C424.9,23.6,424.6,24.1,424.3,25Zm.5-5.5h.1l.5-.3h-.1C424.9,19.2,424.8,19.3,424.8,19.5Zm1.1-.6v.2c2-.5,2.9-.9,2.9-1.1h-.1a5.7,5.7,0,0,0-2.9.9Zm.3,5.4c.9-.2,1.3-.5,1.3-.8h-.3A.9.9,0,0,0,426.2,24.3Zm2.9-3.6v.2h.3c.6-.1.9-.2.9-.4h-.4C429.4,20.4,429.1,20.6,429.1,20.7Zm1-3h0a3.6,3.6,0,0,1,1.5.8h2.7v-.2c-.1-.2-.3-.3-.7-.3h-.2l-.7.2a4.3,4.3,0,0,0-1.9-.9C430.4,17.4,430.2,17.5,430.1,17.7Zm.1,4.4h.1c1,0,1.4-.1,1.4-.3h-.5C430.5,21.8,430.2,21.9,430.2,22.1Zm2.1,1.1v.2h1.6l.2-.2V23l-.3-.2h-.3C432.7,22.9,432.3,23.1,432.3,23.2Zm1.3-2.7c0,.2.4.4,1.1.4s.3-.3.3-.5-.3-.4-1-.5A.6.6,0,0,0,433.6,20.5Zm.5,27.2h0c0,.3.6.4,1.7.4h.8a2.8,2.8,0,0,0-2-.6h-.2Zm.3-3v.5h.2V45h0l-.3-.3Zm.1-23.2h-.1l.3.2h0l.2-.2Zm1.3-1.1c0,.2.2.3.5.3h.3l.3-.3h0a.6.6,0,0,0-.6-.3H436Zm.1,1.7v.2a5,5,0,0,0,.8,1.6c0,.4.1.6.2.6l.3-.2v-.4a2.4,2.4,0,0,0-1.2-1.8Zm0,24.2a.7.7,0,0,0,.7.5,10.6,10.6,0,0,0,3.3-.4,1.8,1.8,0,0,0-1.6-.6C436.7,45.9,435.9,46,435.9,46.3Zm.7-7.5a1.8,1.8,0,0,1,.3,1.1h.1l.2-.7V38.1C436.8,38.1,436.6,38.3,436.6,38.8Zm.3-13.7v.3a13.3,13.3,0,0,0,.9,2.8v-1C437.6,25.8,437.3,25.1,436.9,25.1Zm0,12.6h.1c.2,0,.2-.2.2-.6v-.7h0Q437.1,36.5,436.9,37.7Zm2.1,4.8v.2l.2.2h.2l-.2-.2Zm.1-1.1h0l.3-.7v-.2h-.1C439.1,40.6,439.1,40.9,439.1,41.4Zm0-3.2v.2h.2v-.2Zm.1-4.9h0l.2.7h.3C439.7,33.6,439.5,33.3,439.2,33.3Zm.4-8c.1,2.1.3,3.2.6,3.2h.1c-.1-2.1-.3-3.2-.6-3.2Zm1.1,13.1-.2,1.3v1.5h.1a2.9,2.9,0,0,0,.8-1.8h0C441.4,38.8,441.1,38.4,440.7,38.4Zm1.8,5.5h0c1.9,0,2.8-.1,2.8-.4h-.8C443.2,43.5,442.5,43.7,442.5,43.9Zm.6,1.2v.2a.5.5,0,0,0,.5.3c.7,0,1.1-.1,1.3-.4V45c-.1-.2-.3-.3-.7-.3h-.3C443.4,44.7,443.2,44.8,443.1,45.1Z" transform="translate(-1.2 0)" style="fill:#b75326"/><path d="M466.2,17.9h.6a33.3,33.3,0,0,1,6.5,4.1c2.1,1.8,3.1,3.2,3.1,4.1h-.1c-.3-.6-.6-.9-1-.9h0c-.2,0-.2.1-.2.3a8.9,8.9,0,0,0,1.1,2.3h.1q.1,0,.3-.6h.1c.1,0,.3.6.5,1.8l.5,1.2v3c-.2.7-.4,2-.8,4.1s-2,3.7-5.7,8.8a7.2,7.2,0,0,1-4.8,2.3,40.3,40.3,0,0,1-4.9.3h-1.2a22.1,22.1,0,0,1-5.5-1.8c-3.7-3.3-5.6-5.9-5.6-7.7s-1-2.2-1.3-3.1a27.5,27.5,0,0,1,1.7-5.3c0-1.9.4-3.2,1.3-3.9,1.9-4.2,4.3-6.9,7.3-8.1a18.1,18.1,0,0,1,6.3-1.4ZM448.7,35.7c.1.4.1.7.2.7h.1v-.7h-.2Zm1.4,3v.5c.1,1.3.5,2.1,1.2,2.3h.1c-.4-1.9-.7-2.9-1-2.9Zm.7-9.8a.7.7,0,0,0,.5-.4v-.2C450.9,28.3,450.8,28.5,450.8,28.9Zm1.2-2.1h0a.5.5,0,0,0,.3-.5h-.1A.6.6,0,0,0,452,26.8Zm.1,7.7h.2v-.2h0Zm.3,8.2h0l.5.5h.3c0-.3-.2-.5-.5-.7h-.3Zm1-5.9v.4l1.8,3.5q0,.6,2.4,1.8a7.5,7.5,0,0,0,4.2,1.9l1.1.2a24.9,24.9,0,0,0,4-1.2l2.3-1.8c2.2-2.5,3.4-4.6,3.3-6.2v-.6a11.9,11.9,0,0,1-.4-3.2,11.4,11.4,0,0,1,.3-2.8q0-.3-2.4-2.1a8,8,0,0,0-3.6-3h-.8c-4.8.2-7.2.5-7.2,1.1a11.5,11.5,0,0,0-2.2,3.2c-1.3,1.4-2,2.3-2,2.8A52.1,52.1,0,0,0,453.4,36.8Zm.2,8V45a4.1,4.1,0,0,0,2.8.8h.7c-.2-.3-1.2-.6-3.1-1Zm.9-18.4v.4h.1q.9-.7.9-1.2h-.3C454.9,25.8,454.6,26,454.5,26.4Zm.6-4.3v.2a20.9,20.9,0,0,0,3.8-2.5l.5-.3h.3c2.8-.2,4.2-.5,4.2-.8h0l-1-.2a11.1,11.1,0,0,0-7.7,3.2Zm.6,2.8v.2h0Zm.1-1.7a1.4,1.4,0,0,0,1-.8h0C456.1,22.5,455.8,22.8,455.8,23.2Zm1.1,23.2h.9v-.2h-.2Q456.9,46.1,456.9,46.4Zm1.2-.9v.2c0,.3.6.4,1.8.4h.1A4.1,4.1,0,0,0,458.1,45.5ZM460,21v.3l4.8-.7-.5-.2h-.1A11,11,0,0,0,460,21Zm.1,2.1h0v.2h.9l4.3-1.1h0l-1.1-.2C461.5,22.4,460.1,22.7,460.1,23.1Zm4,23.9v.2c0,.1.3.2,1,.3s1-.2,1-.3V47l-.4-.5h-.5A1.4,1.4,0,0,0,464.1,47Zm1.1-28.3a1.3,1.3,0,0,0,1.3.8h.8v-.3c0-.5-.4-.8-1.3-.8S465.2,18.6,465.2,18.7Zm.5,1.9h0l.2.2-.6.5h0c-.1-.2.3-.5,1-.8Zm.7.1h-.1a3.3,3.3,0,0,0,1.8.9h0A2.4,2.4,0,0,0,466.4,20.7Zm1.1,26.7h.1c.7-.3,1-.5,1-.7h-.1A1.7,1.7,0,0,0,467.5,47.4Zm.9-23.8a1.2,1.2,0,0,0,.9.6V24h0c0-.4-.2-.5-.5-.5S468.4,23.5,468.4,23.6Zm1-3.4h0a1.7,1.7,0,0,0,1.3.8c0-.5-.3-.8-1-1.1h-.1Zm1,2.5h0a3.6,3.6,0,0,0,1.8,1.6h.2v-.2h0A7.9,7.9,0,0,0,470.4,22.7Zm1.2,1.9h0a2.6,2.6,0,0,0,1.8,1.3h.3a2.4,2.4,0,0,0-1.9-1.2Zm2.8,15.2h.1c.2,0,.5-.4.8-1.1h-.2C474.8,38.8,474.6,39.1,474.4,39.8Zm1-1.1V38h.1c.2-.1.3.2.2.8h-.5Zm.5-3.4c0,1.3.2,1.9.3,1.9h.1a2.9,2.9,0,0,1,.6-1.5h0l-.7-.9h-.1C476,34.7,475.9,34.9,475.9,35.3Zm.8-4.2v.3l.2.2.2-.3v-.2l-.2-.2h0Z" transform="translate(-1.2 0)" style="fill:#b75326"/><path d="M508.9,15.1c.5.1.7.1.7.2l-.2.4v.2h3.3c3.5,0,5.9.9,7.1,2.6l1.6,2.2h.2a50.6,50.6,0,0,0,7-3.4L530,17a9.9,9.9,0,0,1,5.3,1.8c3.5,2.8,5.2,5.2,5.2,7.1s1,4.9,1.9,12.6v1.8q0,.6.3.6h.2l2-.5c.7,0,1.1,1.2,1.1,3.6v2.8h-.8a29.5,29.5,0,0,1-4.6.4l-1.9-.2h-4.3c-.1,0-.1-.1-.1-.5l-.8-.7h0l.2-.6V45l-.3-1.6v-.8c0-.6.4-.9,1.3-.9s2-.3,1.8-1.6a37.8,37.8,0,0,1,.3-7.3h0V29c0-.6-.5-1.4-1.6-2.3h-1l-.5.3c-.1,0-.1-.2-.1-.6s-2.4-1.8-4.6-1.8-4.2,1-4.7,2.3a9.6,9.6,0,0,0-.3,3v7.6c0,1.9.6,3,1.6,3.2s.7.3.7.5a16.9,16.9,0,0,1-.9,3.4l-1.5.3-5.3-.4h-.6c-.7,0-1.1-1.1-1.1-3.2v-.2c0-.3.7-.6,1.9-1s.5-.1.5-.4a16.9,16.9,0,0,1-.3-3.5V29.4a10.3,10.3,0,0,1-.3-2.2q0-1.5.3-1.5h.1l.5.3h.1q0-1.3-4.2-3.9a6.8,6.8,0,0,0-2.2-.5,7.1,7.1,0,0,0-3.9,1.6V41.4l.4.2h.2c.1,0,.2-.1.2-.4h.2c1.1,0,1.7.2,1.9.8v.5l.2,1.5c.1,1.7-.4,2.5-1.4,2.5a13.1,13.1,0,0,1-3.3.3l-8-.6c-.4,0-.8-1.2-1.2-3.7h0c0-.3.9-.7,2.5-1.2,0-.4.9-.6,2.5-.8s.5-.4.5-.7l.4-14.4V21.9q0-.6-1.2-.6l-2.9.3c-.7-.4-1-.8-1-1.2a1.1,1.1,0,0,0,.5-.9V19c-.2-1.1-.4-1.7-.7-1.7h-.1A3.4,3.4,0,0,0,500,16Zm-8.7,27.1a1.4,1.4,0,0,1-.5,1c.3,1.5.6,2.2.9,2.2h.2l-.4-3.2h-.2Zm.4-22.6c0,.4.4.6,1.1.6a5.7,5.7,0,0,0,2.9-.9v-.2h-.2C501.9,19.1,500.6,19.2,500.6,19.6Zm.2-1.7v.2l.2.2c1.6,0,2.4-.1,2.4-.4h-2.6Zm.5,24v.9h0a3.8,3.8,0,0,1,1.3-.9v-.2h-1.2C501.4,41.6,501.3,41.7,501.3,41.9Zm.3,2v.5h.3v-.4l-.2-.2Zm.8-.3q0,.8,2.1.3c.3.3.5.5.7.5a21.3,21.3,0,0,0,3.2-.4v-.2l-3-.2h0l.8-.2h2q-.6.8-5.1.3l-.3-.2h-.2Zm.8-27.1.2.2c.9-.1,1.3-.2,1.3-.4h-.4C503.6,16.3,503.2,16.4,503.2,16.5Zm1,25.9v.2h1.3v-.2h-1.3Zm.8-2.7q0,.9.3.9h.1c.5,0,.8-.3.8-.9Zm.8-21h0Zm.4,2v3.2a5.7,5.7,0,0,1-.3,1.8l.4.6v1.8h.1c.3,0,.4-2.3.6-6.8h0a1.1,1.1,0,0,0-.5-.9C506.3,20.4,506.2,20.5,506.2,20.7Zm.1,7.7v.3h.3v-.3h-.3Zm.9,11.5h0c0,.8.2,1.2.8,1.2h.3c.1,0,.1,0,.1-.2Zm.6-22.7h.5V17H508Zm.2,5.9a10.6,10.6,0,0,0-.2,2.1v1.1h.1c.2,0,.4-.5.4-1.6v-.5c0-.7-.1-1.1-.3-1.1Zm-.1-7.1v.2l.2.2a.5.5,0,0,0,.5-.5h-.7Zm0,12.1v.3l.3.3h.1v-.5l-.3-.3h0Zm.5,15.1h2.1V43H510Zm.5,2.2h.1a1.5,1.5,0,0,0,.9-.6v-.2A1.2,1.2,0,0,0,508.9,45.4Zm.1-26.7V19h.4v-.2Zm0,1.9h.3c.5,0,.8-.1.8-.3h-.5Q509,20.4,509,20.6Zm.1-3.4h.3l4-.7h-1.9q-2.4,0-2.4.6Zm0,26.5c0,.4.4.6,1.2.7l.3-.3v-.2q0-.3-1.2-.3Zm1.5-1.8v.3h.4l.2-.2-.2-.2Zm.3-23.1h0l3.1-.3a4.1,4.1,0,0,1,2.8,1.2h.2v-.3q-.3-1.2-1.2-1.2h-.7C512.4,18.3,510.9,18.4,510.9,18.8Zm1.4,1q0,.1,1.8.6a4.8,4.8,0,0,0,2.1.6h0l.2-.2a5.1,5.1,0,0,0-3.2-1.2h-.4C512.5,19.6,512.3,19.7,512.3,19.8Zm3.1-2.7v.2l1.7.3h.1c0-.2-.5-.4-1.5-.4Zm2,2.7c0,.4.2.6.5.6h0a.5.5,0,0,0-.4-.6Zm.9-.4v.2a2.2,2.2,0,0,0,1,1.1h.1a2.4,2.4,0,0,0-1.1-1.2Zm.2,1.4h0c0,.5.3.8,1.1,1.1h0v-.6c0-.2-.3-.3-1-.6Zm1.6,10.6v4h.2a4.1,4.1,0,0,0,.3-1.6h0c-.1-1.6-.2-2.4-.4-2.4Zm.2-7.5c0,.4.1.5.4.5h.2a.7.7,0,0,0-.6-.4Zm.1,19.4v.2h.7v-.2h-.7Zm1.3-2.5.2.2h.4l.3-.3h0l-.2-.2H522Zm.4-19.1v.6l.2.2a3.7,3.7,0,0,0,2-1.1h-1.6A.5.5,0,0,0,522.1,21.7Zm0,3.5v.2c0,.3.1.5.2.5h.1l.3-.3v-.2C522.7,25.3,522.5,25.2,522.1,25.2Zm0,14.2h.2v-.4h-.1Zm2.5-18.9h.4c.6,0,.9-.2.9-.5h-.3C525,20.1,524.7,20.3,524.6,20.5Zm1.7-.7h.1q.5,0,2.1-1.5h0C527.1,18.7,526.3,19.2,526.3,19.8Zm3.6.9h0a.5.5,0,0,0,.4.3q2.6,0,2.7-.3c-.1-.3-.8-.5-2-.5h-.1C530.3,20.3,530,20.4,529.9,20.7Zm.9-2v.2c0,.2.2.2.6.2h.4c-.1-.2-.3-.3-.7-.3Zm.2-.6,1.1.5a1.7,1.7,0,0,0,1.3.8h1.3v-.2c0-.4-1.1-.9-3.2-1.4h-.1C531.2,17.9,531,18,531,18.1Zm1.5,5a3.6,3.6,0,0,0,2.5,1.5l.2-.2v-.2a6,6,0,0,0-1.4-1.3h-1.1Zm3.2-1.4v.4a3.1,3.1,0,0,0,1.2,1.4v.2h.4c0-.5-.4-1.1-1.4-1.9Zm.2,22.4h1.7a.8.8,0,0,0,.7-.3l-.5-.2h-1A1.6,1.6,0,0,0,535.9,44.1Zm1.2-18.8h0c.3,1.1.6,1.7.9,1.7h0a2.5,2.5,0,0,0-.8-1.7Zm.8,6.8v.3l.2,2.4h0l.2.3h.1l.3-.4V32.4l-.3-.3Zm.1,5.5v.3h.3v-.6h-.1Zm.1-9.6.7,1.1h.2v-.9c0-.3-.1-.5-.2-.5h-.6C538.2,27.7,538.1,27.8,538.1,28Zm.1,11.4h0l.2.2.2-.2v-.2h-.2Zm.2,3.8v.2h.8c1.2-.1,1.8-.2,1.8-.4l-.2-.2h-.2C539.1,42.8,538.4,43,538.4,43.2Zm1.7-2.2h0l.3.2h.1l.3-.3v-.5h-.3A.5.5,0,0,0,540.1,41Zm1.7,2.2h.3c.3,0,.5-.1.5-.2h0a.6.6,0,0,0-.2-.5C542.2,42.4,542,42.7,541.8,43.2Zm1.8-1.2v.8l.3.2c.1,0,.2-.3.2-1v-.2h-.1Z" transform="translate(-1.2 0)" style="fill:#b75326"/><path d="M567,17.9h.5a33.9,33.9,0,0,1,6.6,4.1c2,1.8,3.1,3.2,3.1,4.1h-.1c-.3-.6-.7-.9-1-.9H576c-.1,0-.2.1-.2.3l1.1,2.3h.2q.1,0,.3-.6h.1c.1,0,.2.6.4,1.8l.5,1.2V31l.2,2.2a32.1,32.1,0,0,0-.8,4.1c-.2.8-2.1,3.7-5.7,8.8a7.2,7.2,0,0,1-4.9,2.3,39.1,39.1,0,0,1-4.9.3h-1.1c-.8,0-2.6-.6-5.5-1.8-3.8-3.3-5.6-5.9-5.6-7.7s-1-2.2-1.4-3.1a39.3,39.3,0,0,1,1.7-5.3,5,5,0,0,1,1.3-3.9c1.9-4.2,4.4-6.9,7.4-8.1a17.2,17.2,0,0,1,6.3-1.4ZM549.5,35.7c0,.4.1.7.2.7h.1v-.7h-.2Zm1.4,3v.5c0,1.3.4,2.1,1.1,2.3h.1c-.3-1.9-.6-2.9-1-2.9Zm.6-9.8c.3,0,.4-.2.5-.4v-.2C551.7,28.3,551.5,28.5,551.5,28.9Zm1.3-2.1h0a.5.5,0,0,0,.3-.5H553C552.8,26.4,552.8,26.5,552.8,26.8Zm.1,7.7h.2v-.2h-.1Zm.3,8.2h0a1.2,1.2,0,0,0,.5.5h.2a.8.8,0,0,0-.4-.7h-.3Zm.9-5.9v.4l1.9,3.5q0,.6,2.4,1.8a7.5,7.5,0,0,0,4.1,1.9l1.2.2a28.5,28.5,0,0,0,4-1.2l2.2-1.8c2.3-2.5,3.4-4.6,3.4-6.2v-.6a8.9,8.9,0,0,1-.4-3.2,21.6,21.6,0,0,1,.2-2.8c0-.2-.8-.9-2.3-2.1a7.7,7.7,0,0,0-3.7-3h-.7c-4.8.2-7.2.5-7.2,1.1a12.1,12.1,0,0,0-2.3,3.2c-1.3,1.4-1.9,2.3-1.9,2.8A35,35,0,0,0,554.1,36.8Zm.2,8V45a4.6,4.6,0,0,0,2.9.8h.7c-.2-.3-1.3-.6-3.2-1Zm.9-18.4v.4h.2c.5-.5.8-.9.8-1.2h-.3A3.1,3.1,0,0,0,555.2,26.4Zm.7-4.3v.2a25.9,25.9,0,0,0,3.8-2.5l.4-.3h.4c2.7-.2,4.1-.5,4.1-.8h0l-.9-.2a11.1,11.1,0,0,0-7.7,3.2Zm.6,2.8v.2h0Zm0-1.7c.4,0,.7-.3,1.1-.8h0C556.9,22.5,556.5,22.8,556.5,23.2Zm1.1,23.2h1l-.2-.2h-.1C557.9,46.1,557.7,46.2,557.6,46.4Zm1.3-.9v.2c0,.3.6.4,1.8.4h.1A4.1,4.1,0,0,0,558.9,45.5ZM560.8,21v.3l4.7-.7-.5-.2h-.1A10.1,10.1,0,0,0,560.8,21Zm.1,2.1h0v.2h.8l4.4-1.1h0L565,22C562.2,22.4,560.9,22.7,560.9,23.1Zm4,23.9v.2l.9.3,1.1-.3V47l-.4-.5h-.6A1.2,1.2,0,0,0,564.9,47ZM566,18.7c.1.5.6.8,1.3.8h.8v-.3c0-.5-.5-.8-1.3-.8S566,18.6,566,18.7Zm.5,1.9h0l.2.2-.6.5h0c-.1-.2.2-.5,1-.8Zm.6.1H567a3.5,3.5,0,0,0,1.9.9h0A2.6,2.6,0,0,0,567.1,20.7Zm1.1,26.7h.1c.7-.3,1.1-.5,1.1-.7h-.1A2,2,0,0,0,568.2,47.4Zm1-23.8a.9.9,0,0,0,.8.6V24h0c0-.4-.1-.5-.5-.5S569.2,23.5,569.2,23.6Zm.9-3.4h0a1.9,1.9,0,0,0,1.4.8c0-.5-.4-.8-1.1-1.1h-.1Zm1.1,2.5h0c.1.5.7,1.1,1.7,1.6h.2l.2-.2h0A7.9,7.9,0,0,0,571.2,22.7Zm1.1,1.9h0a3.3,3.3,0,0,0,1.8,1.3h.4a2.7,2.7,0,0,0-1.9-1.2Zm2.9,15.2h0c.3,0,.5-.4.8-1.1h-.2C575.6,38.8,575.4,39.1,575.2,39.8Zm.9-1.1V38h.1c.3-.1.3.2.3.8h-.6Zm.5-3.4c.1,1.3.2,1.9.4,1.9h.1a3.7,3.7,0,0,1,.5-1.5h0l-.7-.9h0C576.7,34.7,576.7,34.9,576.6,35.3Zm.9-4.2v.5l.3-.3v-.2l-.2-.2h-.1Z" transform="translate(-1.2 0)" style="fill:#b75326"/><path d="M603.3,17.8c1.6,0,2.9,1.1,4,3.4.3,0,.6.3.9.8l.9,4.6c-.4.4-1.5.7-3.3.7h-.7c-1.5-.2-2.3-.7-2.3-1.6a3.4,3.4,0,0,0-1.4-2.3c-.1-.2-1-.3-2.6-.3a17.1,17.1,0,0,0-5.7,1.2,20.6,20.6,0,0,0-3.1,3.8c.3,7.5.4,11.9.3,13.3s.2.5.7.5h1.6q.9,0,.9.3h0l.3.9-.2,3.4-.3.5-2.9.2h-.3l-1.2.4c-4.7-.1-7.1-.3-7.1-.5s-1.3-.4-1.3-1.1-.1-1.3-.1-2.3.8-1.3,2.4-1.6c0-.3.6-.5,1.7-.5h.2l-.4-16.9c0-1-.3-1.6-.8-1.6h-.4a10.9,10.9,0,0,0-2.5.7h-.1v-.2l.5-.3h0c-.4,0-.6-1.1-.6-3.5a6.5,6.5,0,0,1-.2-1,8.5,8.5,0,0,1,5.2-2H587l3.1.6v.3a2.2,2.2,0,0,0-.6,1.2v.4C592.9,17.6,597.5,17.1,603.3,17.8Zm-22,27.1-.2.3v.2l.2.2h.2v-.4Zm.6-25.9a1.2,1.2,0,0,0,1,.5h.1V19l-.3-.3C582.2,18.8,581.9,18.9,581.9,19Zm.7,26.9h0q0,.3,1.8.3h2.2c0-.2-1.1-.4-3.2-.5Zm.2-24.4h.2c.5,0,.7-.1.8-.3l-.2-.2h-.1C583.1,21.1,582.9,21.2,582.8,21.5Zm0,23.4h3.5v-.2h-3.5Zm1.7-27.1v.3l.4.4h.5v-.2l-.7-.5Zm2.6,9.3v.3a2.8,2.8,0,0,1,.3,1.3,9.4,9.4,0,0,0-.2,2.5l.2,2.5h0c.2,0,.3-1.9.5-5.7.1,0,.1-.4.1-1.3s-.1-.5-.3-.5h-.1A.9.9,0,0,0,587.1,27.1Zm.5-3.2-.3,1.2a.5.5,0,0,0,.4.6h0c.2,0,.3-.3.3-.8l-.2-1Zm.5,21.3v.2h1l.2-.2c0-.2-.1-.2-.3-.3S588.1,45.1,588.1,45.2Zm.4-26h.1l.3-.2V19h-.2Zm.1-1.3v.4h.3l.2-.3h-.5Zm0,20.7v.5h.3l.2-.2v-.5h-.1Zm.1,1.2V40h.2v-.2Zm1.2-17.9v.2h.6v-.2h-.6Zm4.2-1.5v.2c.4,0,.8-.6,1.4-1.8v-.3h0C594.4,18.8,593.9,19.4,594.1,20.4Zm2.3-1.3.3,1.2h.5V19l-.2-.2h-.1C596.6,18.9,596.4,19,596.4,19.1Zm1.5-.5h.7c.3,0,.5,0,.5-.2h-1.2Zm2-.1h.4l.2-.2v-.2C600.1,18.3,599.9,18.4,599.9,18.5Zm1.5.3h0Zm.6,3.6h.3c.3-.1.7-.5,1.2-1.4h0c0-.1,0-.2-.2-.2a1.6,1.6,0,0,0-1.1,1.4C602.1,22.1,602.1,22.2,602,22.4Zm1.8,1.7v.2h.1l.3-.3h-.1C603.9,23.9,603.8,24,603.8,24.1Zm0-5.5h0Zm1.9,2.1h0c.3.4.5.6.9.6h.1v-.2a1,1,0,0,0-.8-.5Z" transform="translate(-1.2 0)" style="fill:#b75326"/><path d="M625.1,15.6a12.9,12.9,0,0,1,6.3,2.2c2.1,1.5,3.1,2.6,3.1,3.2,1.7,3.6,2.5,5.6,2.5,6.2v.5a9.1,9.1,0,0,0-.9,3h-5.7a5.6,5.6,0,0,0-1.7.2c-6-.5-10.1-.7-12.4-.7h-1.4a3.1,3.1,0,0,0-.7,1.5,4.3,4.3,0,0,1,.4,2.2c0,1.6.2,2.5.7,2.8v.3H615l.6.6a3.6,3.6,0,0,0,1.1,2.1c1.4,2.4,2.8,3.9,4.4,4.4a13.3,13.3,0,0,0,4.7.7,4.6,4.6,0,0,0,1.7-.8c.8-.2,2.4-1.6,4.7-4v-.2c0-.1-.2-.2-.8-.2v-.3a7.1,7.1,0,0,1,3.4-3.6,15.8,15.8,0,0,0,2.3,1.7,49.7,49.7,0,0,0,3.6,5v.2c-1.3,1.7-2.3,2.6-2.9,2.6h-.2c0-.9-.5-1.4-1.6-1.6s-1.2.7-2.7,2.1a15.5,15.5,0,0,1-4.9,2.1,42.5,42.5,0,0,1-5.7.8l-3.5-1.2c-2,0-3.8-1.1-5.5-3.2a7.3,7.3,0,0,1-1.7-2.7c0-.3-.5-2-1.4-5.2a23.8,23.8,0,0,1-.4-3.4h0A22.2,22.2,0,0,1,615,18.5a4.6,4.6,0,0,1,2.9-2.2,19,19,0,0,1,3.6-.7Q621.9,15.3,625.1,15.6ZM611.2,31.3h0a1.9,1.9,0,0,0-.1.8v.3a3.6,3.6,0,0,0,.6,2h.1C611.8,32.7,611.6,31.6,611.2,31.3Zm0-2.3v.3c.1.3.1.4.3.4s.2-.2.3-.6h-.5Zm.8-3.3a5,5,0,0,0-.8,2.5h.1c.2,0,.6-.8,1.1-2.2S612.2,25.7,612,25.7Zm.1,11h0V37h.2v-.2h-.3Zm.6,1h-.1c.2.7.5,1,.7,1h.1C613.4,38.4,613.1,38.1,612.7,37.7Zm1.8-8.1h1.1l-.2-.2h-.2C614.8,29.2,614.6,29.3,614.5,29.6Zm.1-7.5h.1l.2-.2h-.2Zm0,4v.4h.1a2.3,2.3,0,0,0,.7-.7v-.2h-.3A.6.6,0,0,0,614.6,26.1Zm.6-1.7v.2c0,.5,3.7,1.1,11.2,1.6l.6.2h.8a11.8,11.8,0,0,0,3.3.8c0,.2.1.3.4.3a1.4,1.4,0,0,0,.4-1V25.2c0-.5-1-1.7-3.1-3.6a5.8,5.8,0,0,0-3.2-1.6l-2.1-.3c-3.4.6-5.6,1.5-6.7,2.5A15.3,15.3,0,0,1,615.2,24.4Zm0-.9h0a.5.5,0,0,0,.3-.5h0A.5.5,0,0,0,615.2,23.5Zm.2,21.2v.2c0,.2.4.5,1.1.7l.2.2h0c-.5-.7-.8-1-1.1-1.1Zm.5-23.9h0c.6-.1.9-.3.9-.4h-.3A.5.5,0,0,0,615.9,20.8Zm.3,8.4v.3h.3v-.2h-.3Zm.7-11.3h.2q1.2-.3,1.2-.6v-.4l-.2-.2H618C617.2,17.1,616.9,17.5,616.9,17.9Zm.8,10.7h0a59.6,59.6,0,0,0,6.5.6h.1l-1.3.2c0,.1.5.2,1.6.2s2.5-.1,2.5-.3S624,28.8,617.7,28.6Zm.6-2.1h0a8.5,8.5,0,0,0,4.3.8h1.3v-.2A27.4,27.4,0,0,0,618.3,26.5Zm.1-6.1a8.7,8.7,0,0,1,2.5-1.1h-.7C619,19.4,618.4,19.8,618.4,20.4Zm1-3.4h.1a16.5,16.5,0,0,0,3.7-.8c.3,0,.5-.1.5-.3h-.2a10.8,10.8,0,0,0-4,.9h-.1Zm.5,27.9h0c0,.2.4.3,1.2.5h.1a3.6,3.6,0,0,0-1.3-.5ZM622,18.2h0a6.6,6.6,0,0,0,2.6.6h.1v-.2a1.9,1.9,0,0,0-1.7-.7h-.2Zm1.3,27.4v.2h.3v-.2Zm2.4,1.6-1.4-.2h-.2c-.4,0-.6.1-.6.2h0l.2.3h1.1a15,15,0,0,0,4.5-.7h0c0-.2-.3-.3-.7-.3h-.3A4.8,4.8,0,0,0,625.7,47.2Zm-1.1-29.9v.2a7.9,7.9,0,0,0,2.5.3h0v-.2c0-.2-.2-.3-.7-.3Zm1.2,1.3h0a29.1,29.1,0,0,0,3.8,2h0l.7-.2h.4a2.3,2.3,0,0,0-1.1-.4l-1.2-.5c-.3-.8-1-1.1-2-1.1h-.2C625.9,18.4,625.8,18.5,625.8,18.6Zm3.6,9.5v.2h.2v-.2Zm.1,1.6c0,.2.4.2,1.1.2h.6q0-.3-1.2-.3Zm0,14.1h.1a.9.9,0,0,0,.6-.6h-.1A1,1,0,0,0,629.5,43.8Zm.5,2.7c.4,0,.7-.3,1-.9h-.2C630.2,45.9,630,46.2,630,46.5Zm.6-24.9c.1.4.3.5.6.5h.1v-.6l-.3-.3A.5.5,0,0,0,630.6,21.6Zm.8,20.3h.2c.4,0,.7-.3.8-.9h0C632,41,631.7,41.3,631.4,41.9Zm.5-19.4a6.4,6.4,0,0,0,1,2.2h.3v-.2c-.3-1.3-.7-1.9-1.1-1.9h-.3Zm.9,15.8h.4c.3,0,.5,0,.5-.2l-.2-.2h-.1A.6.6,0,0,0,632.8,38.3Zm.4,5.8h.2c.4-.3.6-.6.6-.8h-.1C633.4,43.5,633.2,43.8,633.2,44.1Zm.9-18.7V26a.5.5,0,0,0,.3-.5h0v-.2h-.2Zm.2,17,.2.2q.9-.3.9-.9h-.1A.9.9,0,0,0,634.3,42.4Zm1.4-.7h.3a.7.7,0,0,0,.4-.6h-.2C635.9,41.3,635.7,41.5,635.7,41.7Zm2.2-.6h-.1c.2.6.3.8.6.8h.2C638.5,41.3,638.3,41.1,637.9,41.1Z" transform="translate(-1.2 0)" style="fill:#b75326"/><path d="M649.4,39.3c.8.3,1.9,1.4,3.4,3.3h0c0,.6-1.2,1.8-3.5,3.7h0l1,.2h0l-1,.2a8,8,0,0,1-4-1.7,3.2,3.2,0,0,1-.7-1.9c0-1.7,1.2-3,3.5-3.8Zm.1-37.2h.4a4,4,0,0,1,2.9,1.4V8.7l.4,8.2a24.3,24.3,0,0,1-.8,6.6v1l.2.8-.4,1.2v.8a4.9,4.9,0,0,0,.4,1.9c-.1,1-.3,1.5-.4,1.5H652a.9.9,0,0,0-.6-.3,12.9,12.9,0,0,0-2.3,1.7h.1c1.8-.1,2.7-.4,2.7-.6h.3l.3.3c0,.6-1.7,1.1-5.1,1.4l-.6-.3c0-.3.3-.4.9-.5h.2v-.2c0-.1-.2-.2-.7-.4v-.5c0-.2.3-.4.8-.5a2,2,0,0,0,.3-.8h0c0-.1-.4-.2-1.4-.3s-.4-5-.7-15.1c-.1-1.6-.2-3.7-.2-6.3V6.4a1.9,1.9,0,0,1,.9-1.7l-.7-1c0-.3.3-.4.7-.5h.1V2.9h-.1C646.8,2.4,647.7,2.1,649.5,2.1Zm-3,40.6.3.3h.1v-.5h-.1C646.6,42.3,646.5,42.5,646.5,42.7Zm.4-34.1h-.1V9.9h.2V9.2Q647.1,8.6,646.9,8.6Zm0,2v3.7h.2a16.9,16.9,0,0,0,.3-2.1l-.3-1.5h-.3Zm.1,4.5v.3h.2l.2-.2V15H647Zm.6-11.6v.2h.5V3.5h-.5Zm.2,19.4v3.3c0,.6.1.9.2.9a1.7,1.7,0,0,0,1-1.4v-.2c0-.1-.1-.2-.4-.4s-.2-.6-.3-1.7v-.2H648A.2.2,0,0,0,647.8,22.9ZM648,28h.1a.6.6,0,0,0,.3-.6h-.1Q648.2,27.4,648,28Zm.4,14.4v.2h.4c.5-.1.8-.2.8-.3l-.2-.2h-.5C648.6,42.1,648.4,42.2,648.4,42.4Zm.2-26.5h0l.2.2h.3v-.3l-.2-.2h-.1Zm.2,2.9v.3h.1c.2,0,.3-.4.3-1V16.7C649,16.7,648.8,17.4,648.8,18.8Zm0,22.1c0,.3.5.4,1.4.4h.1c0-.2-.3-.3-1-.4h-.5Zm.4-15.6v.2h.3v-.3h-.1Zm0,18.2h0l.2.2h.2l.2-.2v-.2h-.3Zm.7-36.6h-.1v3.8c0,1.3.1,2,.4,2h.1V10a1.2,1.2,0,0,1,.4-1.1V8.7c-.3,0-.5-.5-.5-1.7h-.1Zm0-.7h-.1l.2.3h.1l.2-.2V6.2Zm.7,22.7v.2h0c.7,0,1.1-.3,1.2-.8V28h-.2C651.4,27.9,651.1,28.2,650.6,28.9Zm.1-14.9v.5l.2.2h.1V13.5h-.1A.8.8,0,0,0,650.7,14Zm.2-9.4h0c0,.5.1.7.4.7h0c.2,0,.4-.3.4-1a.3.3,0,0,0-.3-.3C651.1,4.1,650.9,4.2,650.9,4.6Zm.3,12.5v.4h.2l.2-.2v-.2Z" transform="translate(-1.2 0)" style="fill:#231f20"/></g></g></svg>