<svg xmlns="http://www.w3.org/2000/svg" viewBox="0 0 288.2 49.2"><title>icn_rotator_Asset 70_adj</title><g id="Layer_2" data-name="Layer 2"><g id="Layer_1-2" data-name="Layer 1"><path d="M5.6,16l4.2,1.4a6.4,6.4,0,0,0,.8,2V20c-.4,2.6-.5,8-.3,16.5a2.2,2.2,0,0,0,1.4,2.3l.5,1.1c0,.2,1.4.5,4.1.6h.2c.9,0,1.9-.9,3.2-2.8a10.7,10.7,0,0,0,2-2.3h.3v-.7a4.3,4.3,0,0,0,.5-1.6h.1v-.6l1.1-11.7V19h0a1.8,1.8,0,0,0,.7-1.5c0-.4.1-.7.4-.7l1.4.7h1.4c1.7,0,2.8.3,3.5,1v.3c-.4,0-.7.1-.7.2l.6,1.5h.2a6.6,6.6,0,0,1,.2-.9,1.9,1.9,0,0,1,.4,1L31,28.2h.1a61.4,61.4,0,0,0-.8,7.4v1.8c0,2.7.1,4,.3,4h.3a15,15,0,0,0,3.6-.5c.2,0,.6.3,1.1.8-.2,3.6-.4,5.5-.7,5.5l-.8-.6-1.8.2-6.9-.2c-.3,0-.7-.8-1-2.4a1,1,0,0,1-.4-.8V43h-.2a19,19,0,0,0-3.7,1.7c-.1.2-1.5.9-4.2,1.8a11.8,11.8,0,0,1-2.5,1,12,12,0,0,0-3-1.1c-2.6-2.5-4.2-4.8-4.8-6.8s-1.5-4.7-1.5-9.7l.6-7.2v-.2a20.2,20.2,0,0,0-4.2-.8,8.2,8.2,0,0,1-.4-3.1c0-1.1.2-1.7.6-1.7S2.4,16.1,5.6,16ZM1.1,18.9v.2H2v-.2Zm0,1.9V21h.5l.2-.2-.3-.2H1.3Zm.3-1.3v.2c.1.2.3.3.7.3h.1l-.3-.4Zm1,.8h.1l.5-.3v-.2H2.7Zm1.1,0c0,.3.7.7,2,1.1h.6c.2,0,.2-.2.3-.4a3.7,3.7,0,0,0-1.7-1H4.2C3.8,20,3.6,20.1,3.5,20.3Zm.9-3.5V17h.4v-.2H4.4Zm1.1,6.7v.6l.9-.3V22.4H6.2C6,22.3,5.8,22.7,5.5,23.5Zm0,10.8v.2c0,1.6.9,4.1,2.6,7.5.3.3.5.4.7.4V42L7,37.1c-.6-1.9-1-2.9-1.3-3h0Zm.3-17h0c0,.1.3.3.9.5a3.1,3.1,0,0,0,.1.9h.4c1.1,0,1.7-.2,1.8-.5H9c0-.3-.6-.5-1.8-.7s-.3-.2-.8-.3H5.8Zm.5,13.1-.2.3h0l.2.2.2-.2v-.3Zm1.5,2.2V33a1.6,1.6,0,0,0,.8,1.3h.2c0-1.5-.1-2.3-.4-2.3H8.2A.5.5,0,0,0,7.8,32.6Zm.4-11.8V22h.1c.3-.1.4-.3.4-.7v-.7c0-.3-.1-.5-.2-.5H8.4C8.3,20.2,8.2,20.4,8.2,20.8Zm.7,15.9h0c.2.2.3.3.5.3h0C9.4,36.8,9.3,36.7,8.9,36.7Zm1.2,4.4v.2a.5.5,0,0,0,.5.3v-.3l-.2-.2Zm3.6,4.1h-.5L10.7,45h-.1l-.2.2h0c0,.3,1.1.8,3.4,1.2A12.8,12.8,0,0,0,17.9,45H18v-.2h-.4A16,16,0,0,1,13.7,45.2Zm-3-5.3h0v.2h.1V40Zm.9,1.7h0c0,.5.8,1.1,2.2,2a10.1,10.1,0,0,0,2.5-1.2h0a26.3,26.3,0,0,1-4.5-.7Zm3.3,2.2V44h.7a6.4,6.4,0,0,0,3.2-1.7v-.2h-.3A19.8,19.8,0,0,0,14.9,43.8Zm5.1-5h.1a7.7,7.7,0,0,0,1.5-2.2h-.1A8.3,8.3,0,0,0,20,38.8Zm3.1-1.7c-.2.3-.4.5-.4.7l.3.2h.1l.2-.2v-.4Zm.5,3.8h.1l.4-.4v-.2C23.7,40.4,23.6,40.6,23.6,40.9Zm1.2-22.8q0,.6.9.6h.6c0-.2-.5-.3-1.4-.4Zm.3,15.5v.6l.2.2a1,1,0,0,0,.6-.5v-.3l-.2-.2h-.4Zm.1-13.3h0a.6.6,0,0,0,.5.2h0c.3,0,.5-.1.5-.2h0c0-.1-.2-.2-.6-.2h-.2Zm0,20.7v.7c0,2.9.2,4.4.5,4.4h.2c.3-.1.4-.2.4-.4s-.4-2.1-.6-4.5l-.3-.4Zm.1-3v.4h.3v-.2h-.3Zm.1-5.3.3.3c.2,0,.4-.5.4-1.2H26A1.1,1.1,0,0,0,25.4,32.7Zm.9-5.9v.3h.1c.4,0,.6-.5.6-1.4s-.1-.6-.2-.6S26.5,25.7,26.3,26.8Zm.3,10v.4a8.1,8.1,0,0,0,.4,2.5h.2a14.1,14.1,0,0,0,.2-1.8v-.4c0-.5-.2-.7-.6-.7Zm0-.8h0l.2.2.2-.2v-.2h-.3Zm1.2,8.8h0a.8.8,0,0,0,.7.3h.9c0-.2-.3-.3-.9-.4H28Zm.7-16V29c0,.2.1.3.2.3h.1v-.5Zm.8,11.1-.6.9V41h.6l.3-.2v-.3A.6.6,0,0,0,29.3,39.9Zm1.8,2.9V43h.6c1,0,1.4-.2,1.4-.4h0Zm1.7.8V44h.3v-.2h0c0-.1-.1-.1-.2-.1Z" transform="translate(-0.2 0)" style="fill:#b75326"/><path d="M37.3,15.4l2.9.2h5.1v.2a6.7,6.7,0,0,0-.3,1.7v1.1c.1,1.2.4,1.7.9,1.7A5.9,5.9,0,0,1,48.5,19c3.3-1.4,6-2.2,8.2-2.2a7.9,7.9,0,0,1,4.5,1.9,8.3,8.3,0,0,1,3.5,2.9,17.9,17.9,0,0,1,2.4,9.5v.5L66.7,36l.4,3.2-.6,2.9h0v.6h3.3c.7,0,1.2.1,1.3.3q-.3,4.5-.9,4.5a6,6,0,0,1-2.7.7H66.3a24,24,0,0,0-6.2.8c-1.4-.2-2.2-.9-2.2-2.2V44.8a4.1,4.1,0,0,1,1-3.1,44.3,44.3,0,0,1,1.3-5.5l.4-5.4c.1,0,.1-.5.1-1.4s-.8-2.7-2.6-4.8l-2.3-.8a9,9,0,0,0-6.5,3l-3,3q-.9.8-.9,4.2c.1,4.1.3,6.2.5,6.2s2.4.6,2.4.9v.3H46v.2q0,.3,2.4.6a2.7,2.7,0,0,1,.4,1.5h0a9.4,9.4,0,0,1-.6,3.1H41a1.5,1.5,0,0,1-1.6-1,28.5,28.5,0,0,1-.5-4.6c0-.2.6-.5,1.8-.7l.3-.4h0a1.5,1.5,0,0,0-.5-1V33.7l.2-5.7c0-3.8-.2-5.8-.5-5.8H40l-2.9.4c-.3,0-.7-.3-1.2-.8v-.2a1.7,1.7,0,0,0,.3-1V18.3l.9-2.8ZM37,19.5h0a.3.3,0,0,0,.3.3,1.7,1.7,0,0,0,1.1-.5h-1C37.1,19.4,37,19.4,37,19.5Zm.4-2.1h0c0,.2.3.2.9.3,2.7,0,4.1-.2,4.1-.6l.2-.4h-.1Zm.1,4.1h.6l.2-.2H38C37.7,21.3,37.5,21.4,37.5,21.5Zm1.1-2.6.2.2H39l.8-.3h-.3C38.9,18.7,38.6,18.8,38.6,18.9Zm.6,1.4h1.4c.4,0,.6.1.7.3h0a1.3,1.3,0,0,0-.3.7l.8.2c.1,0,.1-.1.1-.2V19.1h-.1l-2.5,1h-.1Zm.6,21.5h0c0,.8.3,1.2.8,1.2h.3l.2-.3h0a1.9,1.9,0,0,1-.6-1.2h-.6Zm1.6-19v.3h.2v-.9h-.1C41.5,22.2,41.5,22.4,41.4,22.8Zm1.1,21.7c0,.2.5.3,1.6.3s3-.1,3-.3-.6-.4-2-.4S42.6,44.3,42.5,44.5Zm.8-24V22a2,2,0,0,1-.2.9v.4l.2.9v.4a.8.8,0,0,0,.3.7c.1,0,.3-.4.4-1.4s.9-.8.9-1.1a3.2,3.2,0,0,0-.7-1.3c-.1-.7-.3-1-.5-1Zm.9,3.9v.4a1.1,1.1,0,0,1-.5.9.9.9,0,0,1,.3.6c0,2.1.2,3.2.4,3.2h.2a10.6,10.6,0,0,0,.4-2.9q-.2-2.4-.6-2.4h-.1C44.2,24.2,44.2,24.2,44.2,24.4Zm1.6-3.3v.2a2.9,2.9,0,0,0,1.9-1.1h-.2A3.1,3.1,0,0,0,45.8,21.1Zm.1,3.4v.2c1-.1,2.5-1,4.4-2.7h-.4a4.2,4.2,0,0,0-1.4.8C46.7,23.4,45.9,24,45.9,24.5Zm.4,1.7v.2h.2V26h-.1Zm1.5-.3h0v.2h.3v-.7h-.1Zm1.1-.9h.2c.6-.6,1-1,1-1.3h-.2C49.6,23.7,49.2,24.1,48.9,25Zm.5-5.5h.1l.6-.3h-.2C49.6,19.3,49.4,19.4,49.4,19.5Zm1.2-.6v.2c1.9-.5,2.9-.8,2.9-1h-.1a5.2,5.2,0,0,0-2.9.9Zm.3,5.4c.9-.2,1.3-.4,1.3-.7h-.3C51.3,23.5,51,23.7,50.9,24.3Zm2.9-3.5V21h.3c.6-.1.9-.3.9-.4v-.2h-.4C54,20.5,53.8,20.6,53.8,20.8Zm.9-3h0a3.1,3.1,0,0,1,1.5.7l.7.2H59a.8.8,0,0,0-.7-.3h-.9a4,4,0,0,0-2-.8A.8.8,0,0,0,54.7,17.8Zm.1,4.3H55c.9,0,1.4-.1,1.4-.2l-.6-.2C55.2,21.9,54.8,22,54.8,22.1ZM57,23.3v.2h1.6v-.4l-.2-.3h-.3C57.4,23,57,23.1,57,23.3Zm1.3-2.7c0,.2.3.3,1.1.4a.9.9,0,0,0,.3-.6c0-.2-.4-.3-1-.5A.8.8,0,0,0,58.3,20.6Zm.5,27.1v.2c0,.2.5.4,1.6.4h.9a3,3,0,0,0-2-.6h-.2Zm.3-3v.4h.4l-.3-.3Zm.1-23.2h.4Zm1.2-1.1a.5.5,0,0,0,.5.3h.4l.2-.2h0c0-.1-.2-.2-.6-.2h-.2Zm.1,1.7v.2a6.8,6.8,0,0,0,.9,1.7c0,.3,0,.5.2.5l.3-.2V24a2.6,2.6,0,0,0-1.2-1.9Zm0,24.2c.2.3.4.5.7.5,2.3-.1,3.4-.2,3.4-.4a1.9,1.9,0,0,0-1.6-.5C61.3,45.9,60.5,46.1,60.5,46.3Zm.7-7.5a2.1,2.1,0,0,1,.3,1.2h.2l.2-.8v-1C61.4,38.2,61.2,38.4,61.2,38.8Zm.3-13.7v.3a21.8,21.8,0,0,0,1,2.9v-1C62.3,25.9,61.9,25.1,61.5,25.1Zm0,12.7h.2a1,1,0,0,0,.2-.7v-.7h0C61.7,36.5,61.6,36.9,61.5,37.8Zm2.1,4.7v.3l.3.2h0l.2-.2h0l-.2-.3Zm.1-1.1h.1l.2-.7h-.1C63.8,40.7,63.7,40.9,63.7,41.4Zm.1-3.2v.3h.1v-.3Zm.1-4.9h0l.2.8h.3C64.4,33.6,64.2,33.3,63.9,33.3Zm.4-8q0,3.3.6,3.3H65c-.1-2.2-.4-3.3-.7-3.3Zm1,13.2v2.8h.1a3.2,3.2,0,0,0,.7-1.8h0C66,38.8,65.8,38.5,65.3,38.5Zm1.9,5.4v.2c1.9,0,2.8-.2,2.8-.4v-.2h-.9C67.8,43.6,67.2,43.7,67.2,43.9Zm.6,1.3v.2c0,.2.2.3.5.3s1.1-.2,1.2-.5h0c0-.2-.3-.3-.7-.3h-.3C68.1,44.8,67.9,44.9,67.8,45.2Z" transform="translate(-0.2 0)" style="fill:#b75326"/><path d="M91.9,24.8c.2,0,.5,1.6.7,4.8h.1c0,.5-2.1.8-6.3,1.1a60.1,60.1,0,0,1-9.1,1.5V32c0-.3,1.7-.7,5.2-1.1,1.5-.4,2.3-.6,2.3-.8h-.7c-4.8.3-7.3,1-7.3,2l-.5.3c-1.3,0-2-1.5-2-4.4,0-.8,1.6-1.3,4.8-1.7l.6-.2,1.2.3h.6l10.1-1.5ZM75.3,27.9v.8h.2c.2,0,.3-.2.3-.7v-.3h-.3Zm0,1.7h.3v-.2h-.2Zm1.8-1.7h.4v-.2h-.2Zm3.9-.2v.2h.1a3.7,3.7,0,0,0,2-.5H83A5.8,5.8,0,0,0,81,27.7Zm3-.6v.2h0c.5,0,.7-.1.8-.3h-.4C84.1,26.9,84,27,84,27.1Zm2,2.8h.1c3.7-.2,5.5-.4,5.5-.6h0l-.4-.4h0a20.3,20.3,0,0,0-5.2,1Zm.6-2v.2h.3v-.2Zm.6-1.3H88c.4,0,.7-.1.7-.3h-.1C87.7,26.3,87.2,26.4,87.2,26.6Zm.8,1.2h1.3c1.3,0,2-.2,2.2-.5v-.2h-.3C89,27.4,88,27.6,88,27.8Zm2-1.9h0Z" transform="translate(-0.2 0)" style="fill:#b75326"/><path d="M96.1,1.9H96a.5.5,0,0,0,.5.3h.1V2.3L96.5,2h2.6c1.4,0,2.1.4,2.1,1.3l.2.2h.3V2.7h.1q1.5,0,1.5,3.3a47.3,47.3,0,0,0,1,11.1h.2l3.8-.2c4.7.3,7.1.7,7.1,1.2l2.4,1.9a13.2,13.2,0,0,1,4.4,5.8c.8.8,1.2,3.1,1.2,6.8v1.9a18.5,18.5,0,0,0-1.8,4.5c0,1.5-1.6,3.5-5,5.9-.4,1-2.9,1.5-7.4,1.6a24,24,0,0,0-4.3-.5h-1.4c-.7,0-1,.2-1,.8l-1.3,1.7-1.7.3a8.7,8.7,0,0,1-3-1.2v-.2a1.6,1.6,0,0,0,.4-1V46l-.2-1.1v-2l-.2-1.2a32.4,32.4,0,0,0,.7-5.4l.2-.6v-.8l.5-4.4v-.3c0-.8-.2-4.2-.8-10h-.1v-.6c.2-2.9.3-5.2.3-7V7.5h-.1a9.1,9.1,0,0,1-3.4,1.2q-.7,0-.9-3.3a1.8,1.8,0,0,1,.4-.8h-.4c0-1.6.1-2.3.5-2.3A8.5,8.5,0,0,1,96.1,1.9ZM93.3,3.1h0c0,.2.4.3,1.3.5s1.3-.1,1.3-.3h0L94,3.1Zm.9,1.5v.9c0,.1.2.2.7.3s.9-.2,1-.5a2.5,2.5,0,0,0-1.5-.7Zm1.9.2h0l.2.2h.5l-.2-.2Zm.9,38h0l.2.2h.1v-.2H97Zm.5-37.7.2.2h.7l.3-.3V4.7l-.3-.2h0Q97.5,4.5,97.5,5.1Zm.1-2.2h0Zm.9,42.2v.2l.3.3h.3v-.3l-.3-.3Zm.3-42h.5V2.9h-.2Zm.7,1.1V5.3h.2a1.2,1.2,0,0,0,.5-1c0-.3,0-.4-.2-.5h-.2Zm.1,5.6c.1.9.3,1.3.4,1.3h.1c0-1-.2-1.5-.4-1.5S99.6,9.6,99.6,9.8Zm.4,35.3h.2c.4-.2.6-.3.6-.6h-.4A.5.5,0,0,0,100,45.1Zm.6-3.8v.4h.4a.6.6,0,0,0-.2-.5Zm1-39.3v.2h0Zm.9,30.6a21.8,21.8,0,0,0,.1,2.8v4.3c0,.6,1,1.1,2.9,1.7l2.4.2a20.4,20.4,0,0,0,7.7-2,14.4,14.4,0,0,0,3.3-4.9l.4-1.5a13.3,13.3,0,0,0-1.9-6.6,7.3,7.3,0,0,0-2-3.5l-2.8-2a22.5,22.5,0,0,0-8.9,2c-.4,0-.6,1.4-.7,4.3A25.5,25.5,0,0,0,102.5,32.6Zm.4,11.4v.2l1.1.3h.1v-.2l-.8-.3Zm.1-2.9h0a.5.5,0,0,0,.5.3h0C103.4,41.1,103.3,41.1,103,41.1Zm1.3-20.6v.2h.1c1-.2,1.5-.3,1.5-.5V20h-.1A3.7,3.7,0,0,0,104.3,20.5Zm2.8-1.8v.2h.4l.5-.2v-.3h-.3A.7.7,0,0,0,107.1,18.7Zm1.4,25.5h.7c.9,0,1.5-.2,1.6-.4v-.2h-.2A3.6,3.6,0,0,0,108.5,44.2ZM111.6,18v.2c.1.2.3.3.7.3h.1v-.2l-.3-.3Zm1.2,25.3v.2h.6l.2-.3h-.8Zm.6,2.3v.2h.2v-.2Zm.3-25.3c0,.4.6.7,1.8,1.1s1.4,1.6,1.8,1.6h0a4,4,0,0,0-1.1-1.8,7.4,7.4,0,0,0-2.2-.8Zm.4,20.8v.2h.2c.6,0,.9-.2.9-.3l-.3-.3h-.3C114.3,40.8,114.1,40.9,114.1,41.1Zm1.8,1.7v.3c1.4-.4,2.1-.7,2.2-1h0A7.4,7.4,0,0,0,115.9,42.8Zm2.5-3.2h0l.2.2c.5-.2.7-.5.7-.8l-.2-.2h-.2A1,1,0,0,0,118.4,39.6Zm.9-11.9v.2h.4l-.2-.2Zm.6,13h0c.6,0,1-1,1.3-2.8h-.4c-.2,0-.4.7-.7,2.3C120,40.3,119.9,40.4,119.9,40.7Zm1.6-14.6v.2c0,.3.1.5.4.5h.1a.6.6,0,0,0-.4-.6Z" transform="translate(-0.2 0)" style="fill:#b75326"/><path d="M143.5,17.9h.6a29.8,29.8,0,0,1,6.5,4.2c2.1,1.8,3.1,3.1,3.1,4h-.1c-.3-.5-.6-.8-1-.8h0c-.2,0-.2.1-.2.2a10.9,10.9,0,0,0,1.1,2.4h.1c.1,0,.2-.2.3-.7h.1a5.8,5.8,0,0,1,.5,1.8l.5,1.3v.8l.2,2.2a19,19,0,0,0-.8,4c-.2.8-2.1,3.8-5.8,8.8a6.8,6.8,0,0,1-4.8,2.3,27,27,0,0,1-4.9.4h-1.2a22.1,22.1,0,0,1-5.5-1.8c-3.7-3.4-5.6-6-5.6-7.7s-1-2.2-1.3-3.1a23.6,23.6,0,0,1,1.7-5.3c0-1.9.4-3.2,1.3-4,1.9-4.2,4.3-6.8,7.3-8.1a20.7,20.7,0,0,1,6.3-1.4ZM126,35.8a3.2,3.2,0,0,0,.2.6h.1v-.7h0Zm1.4,2.9v.5c.1,1.3.5,2.1,1.2,2.3h.1c-.3-1.9-.7-2.9-1-2.9Zm.7-9.8a.5.5,0,0,0,.5-.4h0C128.2,28.4,128.1,28.6,128.1,28.9Zm1.2-2.1h.1c.1,0,.2-.2.2-.5h-.1A.8.8,0,0,0,129.3,26.8Zm.1,7.7h.2l.2-.2h-.1Zm.4,8.3h0a.7.7,0,0,0,.4.5h.3c0-.3-.2-.5-.5-.7h-.1Zm.9-6v.4c.5,1,1.1,2.2,1.9,3.6s.7,1,2.3,1.7,2.1,1.5,4.2,2h1.1a18.3,18.3,0,0,0,4-1.1l2.3-1.9c2.3-2.5,3.4-4.5,3.3-6.2v-.6a11.7,11.7,0,0,1-.3-3.2,10.6,10.6,0,0,1,.2-2.7c0-.3-.8-1-2.4-2.2a8,8,0,0,0-3.6-3H143q-7.2.3-7.2,1.2a8.3,8.3,0,0,0-2.3,3.2c-1.3,1.3-2,2.2-2,2.7A52.1,52.1,0,0,0,130.7,36.8Zm.2,8V45a3.9,3.9,0,0,0,2.9.9h.6a9.2,9.2,0,0,0-3.1-1Zm.9-18.4v.4h.1c.6-.4.9-.8.9-1.1h-.3A1.8,1.8,0,0,0,131.8,26.4Zm.6-4.2v.2a26.3,26.3,0,0,0,3.8-2.6l.5-.2h.3c2.8-.3,4.2-.6,4.2-.8h-1a10.4,10.4,0,0,0-7.6,3.2ZM133,25v.2h0Zm.1-1.8a1.3,1.3,0,0,0,1-.7v-.2C133.4,22.5,133.1,22.8,133.1,23.2Zm1.1,23.2h.9v-.2h-.2C134.4,46.2,134.2,46.3,134.2,46.4Zm1.2-.8h0c0,.3.6.4,1.8.4h.1A4.1,4.1,0,0,0,135.4,45.6Zm1.9-24.5v.2a22.5,22.5,0,0,0,4.8-.7l-.5-.2h-.1A9.1,9.1,0,0,0,137.3,21.1Zm.1,2.1h0v.2h.9l4.3-1h0l-1.1-.2C138.8,22.4,137.4,22.8,137.4,23.2Zm4,23.9h0c0,.2.4.3,1,.3s1-.1,1-.3h0a.7.7,0,0,0-.4-.5h-.5A1.2,1.2,0,0,0,141.4,47.1Zm1.1-28.4c.2.6.6.8,1.3.8h.8v-.2q0-.7-1.2-.9Zm.5,1.9h0l.2.2-.6.6h0c-.1-.2.3-.4,1-.8Zm.7.1h-.1a3.6,3.6,0,0,0,1.8.9h0A2.9,2.9,0,0,0,143.7,20.7Zm1.1,26.8h.1c.7-.3,1-.5,1-.7h-.1C145.3,47,144.9,47.2,144.8,47.5Zm.9-23.9a1.2,1.2,0,0,0,.9.6V24h0a.5.5,0,0,0-.5-.5C145.9,23.5,145.7,23.5,145.7,23.6Zm1-3.4h0a1.7,1.7,0,0,0,1.3.8c0-.4-.3-.8-1-1h-.3Zm1,2.6h0a3.5,3.5,0,0,0,1.8,1.5h.3A8.7,8.7,0,0,0,147.7,22.8Zm1.2,1.9h0c.2.6.8,1,1.8,1.4h.2l.2-.2h0a2.6,2.6,0,0,0-2-1.1Zm2.8,15.1h.1c.2,0,.5-.3.8-1h-.2C152.1,38.8,151.9,39.1,151.7,39.8Zm1-1V38h.1c.2-.1.3.2.2.9h-.5Zm.5-3.5c0,1.3.2,2,.3,2h.1a2.4,2.4,0,0,1,.6-1.5v-.2l-.7-.9h-.1C153.3,34.7,153.2,34.9,153.2,35.3Zm.8-4.2v.3l.2.2.2-.2v-.3H154Z" transform="translate(-0.2 0)" style="fill:#b75326"/><path d="M179.8,17.8c1.6,0,3,1.2,4.1,3.4.2,0,.5.3.9.8l.8,4.6c-.4.5-1.5.7-3.3.7h-.6c-1.6-.2-2.3-.7-2.3-1.5a4.4,4.4,0,0,0-1.4-2.4c-.2-.2-1-.3-2.7-.3a17.1,17.1,0,0,0-5.7,1.2,25.8,25.8,0,0,0-3.1,3.9c.3,7.4.4,11.9.3,13.2s.3.6.8.6h1.5c.7,0,1,.1,1,.3h0l.2.8v3.4l-.4.5-2.9.3h-.2l-1.3.4c-4.7-.2-7.1-.3-7.1-.6s-1.2-.3-1.2-1.1a14.2,14.2,0,0,1-.1-2.3c0-.7.8-1.3,2.4-1.5,0-.4.5-.5,1.6-.5h.2l-.4-16.9c0-1-.2-1.5-.7-1.5h-.4a8.6,8.6,0,0,0-2.5.6h-.1c0-.1.2-.2.5-.3h0c-.4,0-.6-1.2-.6-3.5-.1,0-.2-.4-.2-1.1a8.3,8.3,0,0,1,5.1-1.9h1.6a15.4,15.4,0,0,1,3.1.6v.2a2.2,2.2,0,0,0-.6,1.2v.4C169.4,17.6,174,17.2,179.8,17.8ZM157.8,45l-.2.2v.3h.4v-.4Zm.6-25.9a1.4,1.4,0,0,0,1.1.4h0V19l-.3-.3C158.7,18.8,158.4,18.9,158.4,19.1Zm.7,26.8h0q0,.3,1.8.3h2.3c0-.2-1.1-.3-3.3-.4Zm.3-24.4h.2c.4,0,.6-.1.7-.3h-.2C159.7,21.2,159.4,21.3,159.4,21.5Zm0,23.5h3.5v-.2h-3.4ZM161,17.8v.3l.4.4h.5l-.7-.6Zm2.6,9.3v.4a2.5,2.5,0,0,1,.3,1.3c0,.2-.1,1-.2,2.5l.2,2.5h0c.2,0,.4-1.9.5-5.7.1,0,.2-.4.2-1.3s-.2-.6-.3-.6h-.2A1.1,1.1,0,0,0,163.6,27.1Zm.5-3.2-.3,1.2a.8.8,0,0,0,.4.7h.1q.1,0,.3-.9l-.3-1Zm.6,21.4v.2h.9l.3-.3c0-.1-.1-.2-.3-.2S164.7,45.1,164.7,45.3Zm.4-26.1h0v.2l.3-.3V19h-.2Zm.1-1.2v.3h.3l.2-.2h-.5Zm0,20.7v.5h.2l.3-.3v-.3l-.2-.2h-.1Zm.1,1.2v.2h.1v-.2Zm1.1-18v.2l.2.2h.2l.2-.2v-.2h-.6Zm4.3-1.4h0c.3,0,.8-.6,1.4-1.8v-.3H172A1.6,1.6,0,0,0,170.7,20.5Zm2.3-1.4.2,1.3h.6V18.9h-.2C173.1,18.9,173,19,173,19.1Zm1.4-.4h0l.2.2h.6a.6.6,0,0,0,.5-.2h-1.3Zm2-.2v.2h.4l.3-.3h-.2C176.6,18.3,176.4,18.4,176.4,18.5Zm1.6.4h.3v-.2h-.2Zm.6,3.6h.2c.3-.1.7-.6,1.3-1.5h-.3a1.3,1.3,0,0,0-1,1.3C178.7,22.1,178.6,22.2,178.6,22.5Zm1.7,1.6v.2h.1l.3-.3h-.1Zm.1-5.4h0v.2h.3v-.2h0v-.2h-.3Zm1.9,2v.2a1,1,0,0,0,.8.5h.1v-.2a1,1,0,0,0-.8-.5Z" transform="translate(-0.2 0)" style="fill:#b75326"/><path d="M182.7,0h.5c3.6.4,5.8.9,6.4,1.5s.6.8.8,2.4l-.3.6v.2c.4.6.7,3.1.9,7.7,0,8.4.2,13.7.6,16h.4a125.8,125.8,0,0,1,10.2-7.5c.4,0,.8-1.9,1-5.5,0-.9.4-1.4,1.2-1.4h2.5c3.7,0,5.9.4,6.7,1.2h0l-.3.3a4.9,4.9,0,0,0-1.7-.4h-.1c0,.3.6.5,1.8.7s.4.9.4,2.8-.3,1.2-.9,1.2-.5.3-.9.8h-1.7c0,.6-.4,1-1.4,1.4s-.2.1-.2.3l.2.4-5.9,4.1v.2c0,.3,2,4.5,6,12.5a15.6,15.6,0,0,1,1.1,2.8h-.3l-.4-.4h-.2c0,.5.8.7,2.4.7s4.1.3,4.1.8l-.5.6a7.3,7.3,0,0,1,.8,4,.8.8,0,0,1-.9.9h-.5a54.2,54.2,0,0,0-7.2-.3h-.4c-.5,0-.9-.6-1.1-1.9a27.3,27.3,0,0,0-1.3-5.9c-.6-1.5-2-4.4-4.1-8.5-.7-2.1-1.2-3.1-1.6-3.1s-1.8.6-3.4,1.8a1.6,1.6,0,0,1-1.1.7c-.2,0-.3-.1-.3-.2h0v-.4h-.4c-.2,0-.4.6-.8,1.7v.4a1.2,1.2,0,0,0-.5,1v6.7c0,.5.9.8,2.7,1a6.7,6.7,0,0,0,1.9.9l.3.6v1.6l.2.8v.2a2.1,2.1,0,0,1-1,.8h-.4v.2c0,.3.3.5.9.7h0c0,.2-.3.3-.8.4l-2.9-.8a61.8,61.8,0,0,1-7.8-.7l-.8.2c-.5-.3-.8-.9-.8-2v-.3h-.1a2.3,2.3,0,0,1,.9-1.8h.3v1l.2.3h.8l-.2-.3v-.2H187l-.7-.8h.8v-.2c0-.1-.2-.2-.6-.2h-1.6c0-.3,1-.6,2.8-.9l2.1-.4.2-.2h-.8c-.4,0-.5-1.8-.5-5.3a45.7,45.7,0,0,0-1.2-8.8c-.3-10.1-.6-16.3-1-18.4,0-.1-.7-.3-2.2-.4l-1.8.5a4,4,0,0,1-.7-1.2v-4q.2-.9.3-.9h.6a1.5,1.5,0,0,0-.5-1V1c.4-.1.5-.1.5-.3l-.2-.4V0Zm1.5,4.6h0c0,.2.3.4.9.5v.2q-1.2,0-1.2.3v.3h.8A1.2,1.2,0,0,0,186,5l.4-.4c0-.2-.5-.3-1.6-.3h-.2C184.3,4.4,184.2,4.4,184.2,4.6Zm1.5,40.3h3.4c1.3,0,1.9-.1,1.9-.3h0l-1.3-.2Zm1.8,1.2,6.7.9v-.2c0-.6-1.3-.8-3.8-.8h-2.9ZM188,3.5v.2c.3.4.5.6.8.6a1.5,1.5,0,0,0,.4-1.1H189A1.8,1.8,0,0,0,188,3.5Zm1.1,6.5-.2.3v1.2q0,1.5.3,1.5h.1l.2-.2v-.9C189.4,10.6,189.3,10,189.1,10Zm-.2,9v.3h.2l.2-.2-.2-.2Zm1.3,25.2v.2h.2v-.2Zm.2-14.6h.3v-.2h-.1Zm0,5.2v.9h.1a.5.5,0,0,0,.6-.6v-1l-.2-.2h-.1A.8.8,0,0,0,190.4,34.8Zm0-2.4V33h.4c.2-.1.3-.3.3-.7h0a3.9,3.9,0,0,0-.3-1.4h0C190.6,30.9,190.4,31.4,190.4,32.4Zm0,8.5.4.3h0a.5.5,0,0,0,.4-.5c-.1-.3-.1-.4-.3-.4A.6.6,0,0,0,190.4,40.9Zm.4-3.7v1h0a.6.6,0,0,0,.3-.6v-.4Zm1.5-8v.2h.2a1.7,1.7,0,0,0,1.3-.7v-.3A2.1,2.1,0,0,0,192.3,29.2Zm0,15.2h.3l-.2-.2Zm.4,1.2h0l.9.2h.4c0-.1-.3-.2-1.1-.2Zm1.7-1.4a1.3,1.3,0,0,0,1.3.8h0l.2-.2a1.7,1.7,0,0,0-.6-.9H195A.6.6,0,0,0,194.4,44.2Zm.4-13.6h.1a6.4,6.4,0,0,0,2.2-1.3h0C195.5,30,194.8,30.4,194.8,30.6Zm0,16.2V47h.7c0-.2-.2-.3-.4-.3Zm1.7-3.3h0l.2.2h.1v-.2h-.3Zm3.2-14.4c.4.8.7,1.2,1,1.2h0c-.1-.9-.4-1.4-.8-1.4S199.7,28.9,199.7,29.1Zm2.2,3.3h0a24.4,24.4,0,0,0,2.2,5.2h.3v-.2c0-.9-.8-2.6-2.3-5Zm1-7.7v.2h.1a18.2,18.2,0,0,0,5.8-3.6v-.2h-.1A16.8,16.8,0,0,0,202.9,24.7Zm.1-2.6h.1l1.8-1.1c.5-.1.7-.3.7-.4v-.3h-.3c-.6,0-1.3.6-2.3,1.7Zm.6-2.9.2.2h.1a.6.6,0,0,0,.6-.3h-.3C203.8,19,203.6,19,203.6,19.2Zm.2-1.4c.1.5.2.8.3.8h.4c.2,0,.2-.1.2-.3l-.3-.7.3-1.1v-.2h-.1A1.4,1.4,0,0,0,203.8,17.8Zm.8,20.5h0a5.3,5.3,0,0,0,1.1,2h.2a5.2,5.2,0,0,0-1.1-2.1h-.2Zm.3-24h0l.2.2h.2l.2-.2h-.6Zm.3,20.3v.2l.2.2h.1v-.2l-.2-.2Zm1.9,7.8h0l.2.3h.5l.3-.3h0a.6.6,0,0,0-.6-.3C207.3,42.2,207.1,42.3,207.1,42.4Zm2.3-24.1a5.8,5.8,0,0,0,2.1.3q.6-.2.6-.3v-.2h-1.6C209.8,18,209.4,18.1,209.4,18.3Zm.9,29.7h.6A.8.8,0,0,0,210.3,48Zm.4-3,.2.2h.4l.2-.2-.2-.2h-.4Zm1.2.1h0l.3.2h.3v-.3Zm2.7-1v.3h.3v-.3h-.3Zm.1,1.9v1.1h.1c.2,0,.2-.4.2-1.2v-.5h0A.6.6,0,0,0,214.7,46Z" transform="translate(-0.2 0)" style="fill:#b75326"/><path d="M230.7,15.6c1.7,0,3.8.8,6.3,2.2s3.2,2.7,3.2,3.3c1.6,3.5,2.4,5.6,2.4,6.2v.5a8,8,0,0,0-1,2.9h-5.6l-1.8.2c-5.9-.5-10.1-.7-12.4-.7h-1.3a3,3,0,0,0-.8,1.5,4.8,4.8,0,0,1,.4,2.2c0,1.6.3,2.5.8,2.8v.3h0l-.4-.2v.2l.7.6a2.7,2.7,0,0,0,1.1,2c1.3,2.4,2.8,3.9,4.4,4.5a15.6,15.6,0,0,0,4.6.6,4.6,4.6,0,0,0,1.8-.7c.8-.3,2.3-1.6,4.6-4.1h0c0-.1-.2-.2-.8-.3v-.3a7.2,7.2,0,0,1,3.4-3.5l2.3,1.7a39.3,39.3,0,0,0,3.7,4.9v.3c-1.4,1.7-2.3,2.5-2.9,2.5h-.3c0-.9-.5-1.4-1.6-1.5a14.7,14.7,0,0,0-2.7,2,15.5,15.5,0,0,1-4.9,2.1,33.5,33.5,0,0,1-5.7.9l-3.5-1.3c-2,0-3.8-1.1-5.4-3.2a9.1,9.1,0,0,1-1.8-2.7,34.5,34.5,0,0,0-1.4-5.1,25.5,25.5,0,0,1-.4-3.4h0a22.4,22.4,0,0,1,4.9-14.4,5,5,0,0,1,2.9-2.3l3.6-.7ZM216.8,31.3h0v.2h0a2.2,2.2,0,0,0-.1.9v.3a4.1,4.1,0,0,0,.6,2h.1C217.4,32.7,217.2,31.6,216.8,31.3Zm0-2.3v.4c0,.2.1.4.2.4s.2-.2.3-.6l-.2-.2Zm.8-3.3a5.4,5.4,0,0,0-.8,2.5h.1c.2,0,.6-.7,1.1-2.2S217.8,25.7,217.6,25.7Zm.1,11h0V37h.2v-.2h-.3Zm.6,1.1h-.1c.3.6.5,1,.8,1h0A1.3,1.3,0,0,0,218.3,37.8Zm1.8-8.2h1.2l-.3-.3h-.1A.9.9,0,0,0,220.1,29.6Zm.1-7.4h.1Zm0,3.9v.4h.1a1.6,1.6,0,0,0,.7-.7v-.2h-.2A.8.8,0,0,0,220.2,26.1Zm.6-1.6v.2c0,.5,3.8,1,11.2,1.5l.6.2h.8a16.5,16.5,0,0,0,3.3.9c0,.1.2.2.4.3a1.7,1.7,0,0,0,.4-1.1V25.3c0-.6-1-1.8-3.1-3.6a5.6,5.6,0,0,0-3.2-1.7l-2.1-.3c-3.4.7-5.6,1.5-6.7,2.5A10.6,10.6,0,0,1,220.8,24.5Zm.1-1h0a.5.5,0,0,0,.3-.5h0A.5.5,0,0,0,220.9,23.5Zm.1,21.2v.2c.1.3.4.5,1.1.7l.3.3h0l-1.1-1.1Zm.5-23.9V21h.1c.5-.2.8-.3.8-.5h-.3A.7.7,0,0,0,221.5,20.8Zm.3,8.4v.4h.3v-.3h-.3Zm.7-11.3h0l.2.2h0c.9-.2,1.3-.4,1.3-.7v-.3l-.2-.3h-.2C222.9,17.2,222.5,17.5,222.5,17.9Zm.8,10.7v.2a47.8,47.8,0,0,0,6.5.5h-1.2c0,.2.5.3,1.6.3s2.6-.1,2.6-.3S229.6,28.8,223.3,28.6Zm.6-2.1v.2a8.8,8.8,0,0,0,4.3.8h1.3v-.3A53.2,53.2,0,0,0,223.9,26.5Zm.2-6.1a8.1,8.1,0,0,1,2.5-1h-.8C224.7,19.4,224.1,19.8,224.1,20.4ZM225,17h.1a14.1,14.1,0,0,0,3.7-.7q.6-.2.6-.3h-.3a11.3,11.3,0,0,0-4,.9H225Zm.5,27.9h0c0,.2.4.4,1.3.6h.1a3.9,3.9,0,0,0-1.4-.5Zm2.2-26.6h0c0,.2.8.4,2.5.7h.1v-.2a1.9,1.9,0,0,0-1.7-.8h-.2C227.9,18,227.7,18.1,227.7,18.3ZM229,45.6v.2h.2v-.2Zm2.3,1.6h-1.5c-.4,0-.6,0-.7.2h0l.3.2h1.1A19.9,19.9,0,0,0,235,47h0c-.1-.2-.3-.3-.8-.3h-.3A5.8,5.8,0,0,0,231.3,47.2Zm-1.1-29.9v.2a6.1,6.1,0,0,0,2.5.4h.1v-.2c0-.1-.3-.2-.8-.3Zm1.2,1.4h0a19.1,19.1,0,0,0,3.8,2h.1l.6-.2h.4l-1-.4-1.3-.5a1.9,1.9,0,0,0-2-1.1h-.2C231.5,18.5,231.4,18.5,231.4,18.7Zm3.6,9.4v.2h.3v-.2Zm.1,1.7c0,.1.4.2,1.1.2h.6q0-.3-1.2-.3C235.3,29.6,235.1,29.7,235.1,29.8Zm0,14.1h.2a1.3,1.3,0,0,0,.5-.7h0C235.3,43.4,235.1,43.6,235.1,43.9Zm.5,2.7c.4,0,.7-.3,1-1h-.2C235.9,46,235.6,46.3,235.6,46.6Zm.6-24.9a.6.6,0,0,0,.6.5h.1v-.6l-.3-.3C236.4,21.3,236.2,21.4,236.2,21.7Zm.8,20.2h.2c.4,0,.7-.3.9-.8h0C237.6,41.1,237.3,41.3,237,41.9Zm.5-19.4c.5,1.3.8,2.1,1.1,2.2h.3c-.3-1.3-.7-2-1.1-2h-.3Zm1,15.9h.4c.2,0,.4-.1.4-.2l-.2-.3H239C238.7,38,238.6,38.1,238.5,38.4Zm.3,5.8h.2q.6-.6.6-.9h-.1A.9.9,0,0,0,238.8,44.2Zm.9-18.8v.4l.2.2c.2,0,.3-.2.3-.4v-.2h-.5Zm.2,17,.2.2c.6-.2,1-.5,1-.8H241C240.4,41.7,240,41.9,239.9,42.4Zm1.5-.6h.2a.5.5,0,0,0,.4-.6h-.2A.7.7,0,0,0,241.4,41.8Zm2.1-.6h0c.1.5.3.8.5.8h.1v-.2h0A.7.7,0,0,0,243.5,41.2Z" transform="translate(-0.2 0)" style="fill:#b75326"/><path d="M274.2,0a7.6,7.6,0,0,1,2.6.7c.1,0,.2.6.2,1.9a1.6,1.6,0,0,1,.7,1c-.2,2-.4,6-.5,12.1-.1,0-.2.2-.2.6s-.5.4-.5.7v.9a8.8,8.8,0,0,1-.6,2.9v.9c0,.2.2.3.6.4v.4c-.6,5.2-.9,8.7-.9,10.3s-.1,2.8-.4,2.8h0c.3,0,.4.3.5.8v.7c0,.7-.3,2.6-.8,5.6v1.5c2.1.4,3.2,1,3.2,1.7l-.4.4V47l.4.4h0c-.4.9-1.5,1.4-3.6,1.4H274l-.3-.6h-.6l-1.7.4h-2.3c-.2,0-.4-1-.6-3.1v-2a5.8,5.8,0,0,0-2.5,1.4,23.7,23.7,0,0,1-9,3,14,14,0,0,1-6.4-3.5,14.5,14.5,0,0,1-2-2.9,8.9,8.9,0,0,1-1.1-1.9v-.2h.2a13.1,13.1,0,0,1,1.6,2.1h.3v-.8a5.1,5.1,0,0,0-1.3-3h-.3c-.2,0-.4.4-.4,1.1h-.3v-.3a17.6,17.6,0,0,1,.2-3.1h.3v.6h.1a.8.8,0,0,0,.3-.7V33.8c-.1,0-.2.2-.2.6l-.3.4c-.1,0-.2-.2-.3-.5a19.6,19.6,0,0,1,3.1-9.9,19.7,19.7,0,0,1,2.8-4c1.3-1.2,3.4-1.7,6.2-1.7h.6c4.4,0,7.9,1.1,10.7,3.4l.4.2h.2q.6-2.7,1.2-13.8c.1-.3.2-.4.4-.4h0a7.5,7.5,0,0,0-2.7-1.3c-.4,0-.6-1.4-.7-4.2l1-.3h0c0-.2-.2-.3-.5-.3s-.3-.3-.3-.5.5-.6,1.4-.6V.5l-.2-.3h3ZM250.3,32.8c0,.1,0,.2.2.2s.5-.4.6-1.3v-.3h-.2C250.7,31.4,250.5,31.9,250.3,32.8Zm.6-5.5v.2h.2c.2-.1.4-.5.8-1.5s2.1-2.5,2.5-2.5l.2-.5h-.4a7.5,7.5,0,0,0-2,1.3A7.3,7.3,0,0,0,250.9,27.3Zm.3,15.8h0c0,.3.6.4,1.9.6v-.2l-1.7-.6Zm.1-7.2v.9c0,.6.7,2.3,2.3,5a8.4,8.4,0,0,0,3.7.9,18.5,18.5,0,0,0,8.3-2c1.1-1.7,2.1-2.5,2.9-2.5s1-2.1,1.5-4.7a5.2,5.2,0,0,0,.5-2.3v-.6c0-1.7-.3-2.6-.7-2.6a10.1,10.1,0,0,1-1.4-1.5l.2-.4c0-.2-.6-.4-1.8-.7l-.4-.3h1.1c0-.4-2.3-.7-6.8-.7l-.9-.2c-3.2.3-4.9.7-4.9,1.3a14.3,14.3,0,0,0-3,6.6A16.1,16.1,0,0,0,251.3,35.9Zm1.4,8.3c0,.4,1.2.9,3.6,1.3h.4c0-.3-1.2-.8-3.6-1.3h-.3Zm.9-22v.2h.4c1.4-.4,2.2-.8,2.2-1.4a1,1,0,0,0-.7-.2h-.3C254.6,20.9,254.1,21.3,253.6,22.2Zm2.9,24.4v.2h.9a13.7,13.7,0,0,0,2.9-.4h0l-1.8-.2C257.1,46.2,256.5,46.4,256.5,46.6Zm1.1-26.1v.3l.2.2h.3l.3-.3v-.2l-.2-.2h-.3Zm.1,3h0Zm1.4,19.9v.2h.8q4.1-.3,4.5-1.2v-.2h-.2C261.1,42.8,259.4,43.1,259.1,43.4Zm.6-20.3h.2Zm1,21.7h.5c1.3,0,1.9-.2,1.9-.4h-1.2Q260.7,44.5,260.7,44.8Zm.4-21.1h.2l1.3-.2h-.4C261.4,23.4,261.1,23.5,261.1,23.7Zm.4-2.7h2.8c-.2-.3-.8-.4-2-.5h-.6C261.5,20.6,261.5,20.7,261.5,21Zm2.7,2.5.2.3h.3l.2-.2a.6.6,0,0,0-.5-.2h-.2Zm1.1,19.1v.2h0a2.6,2.6,0,0,0,1.1-.7v-.2h-.3C265.8,41.9,265.6,42.2,265.3,42.6Zm.7-21h-.1v.2l1.9.6h.1c0-.4-.3-.7-1-.9Zm.9,1.9.3.2v-.2h-.4Zm.9.4c0,.1.6.4,1.8.7h.1v-.2a1.3,1.3,0,0,0-1.2-.5Zm1.3,2.4v.5l.3.3h.2c.1,0,.2-.2.2-.4a.6.6,0,0,0-.3-.6h-.2Zm.9,15.8v.3q.3,0,.3.6h.1l.3-.3v-.5a.8.8,0,0,1-.2-.6h-.2A.5.5,0,0,0,270,42.1Zm0,2.4h.2l.2-.2h-.1Zm1.4-40.1v.2h.4c.3,0,.4,0,.5-.2l-.2-.2h-.5Zm.1-1.5h.8l-.2-.2h-.5Zm1.2,19c0,.3,0,.6.2.6h.1v-.5Zm.4-17.4h.2q1.5,0,1.5-.3l-.3-.2h-.8A.7.7,0,0,0,273.1,4.5Zm.1,38v1.3l.2.2h.1v-.8a1,1,0,0,0-.2-.7Zm.2,2.2v.2h.4v-.2Zm1.3,2c0,.1.2.2.6.2h1.6c0-.2-.2-.3-.7-.3S274.7,46.5,274.7,46.7Zm.2-43.2h.2Zm1.3,17h.3v.3h-.3Z" transform="translate(-0.2 0)" style="fill:#b75326"/><path d="M285.6,39.4a4.9,4.9,0,0,1,2.6,1,2,2,0,0,1,.3,1.1v.8c0,1.7-1,2.9-2.9,3.7l-.8.4c-.9,0-1.7-.8-2.5-2.4v-.4c0-1.7.3-2.8.9-3.2A5.2,5.2,0,0,1,285.6,39.4Zm-2,2.7c.1,1.1.2,1.6.4,1.6a7.8,7.8,0,0,0,.6-2.1l.2-.4v-.3h-.1C283.9,41.2,283.6,41.6,283.6,42.1Zm.3,2.7c0,.3.1.4.4.5h.6a1.8,1.8,0,0,0,1.3-.6h0Zm1.3-2.3h0c0,.4.1.7.3.7h.1c.2,0,.4-.4.7-1.3v-.3H286C285.5,41.6,285.2,41.9,285.2,42.5Zm1.9.8h.3v-.6h0C287.3,42.8,287.2,43,287.1,43.3Z" transform="translate(-0.2 0)" style="fill:#231f20"/></g></g></svg>