<svg xmlns="http://www.w3.org/2000/svg" viewBox="0 0 360.3 48.8"><title>icn_rotator_Asset 67_adj</title><g id="Layer_2" data-name="Layer 2"><g id="Layer_1-2" data-name="Layer 1"><path d="M24,17.8c1.6,0,2.9,1.2,4,3.4.3,0,.5.3.9.8l.8,4.6c-.3.5-1.4.7-3.2.7h-.7c-1.5-.2-2.3-.7-2.3-1.5a4.4,4.4,0,0,0-1.4-2.4c-.1-.2-1-.3-2.6-.3a16.2,16.2,0,0,0-5.7,1.2,20.7,20.7,0,0,0-3.1,3.9c.3,7.4.4,11.9.3,13.2s.2.6.7.6h1.6q.9,0,.9.3h0l.3.8-.2,3.4-.3.5-2.9.3h-.3l-1.2.4c-4.8-.2-7.1-.3-7.1-.6s-1.3-.3-1.3-1.1-.1-1.3-.1-2.3.8-1.3,2.4-1.5c0-.4.6-.5,1.7-.5h.2L5,24.7c0-1-.3-1.5-.8-1.5H3.8a9.3,9.3,0,0,0-2.5.6H1.2c0-.1.2-.2.5-.3h0c-.4,0-.6-1.2-.6-3.5,0,0-.1-.4-.2-1.1a8.4,8.4,0,0,1,5.2-1.9H7.6a16,16,0,0,1,3.2.6v.2a2.8,2.8,0,0,0-.5,1.2v.4C13.6,17.6,18.2,17.2,24,17.8ZM2,45l-.2.2v.3h.4v-.4Zm.6-25.9a1.2,1.2,0,0,0,1,.4h.1V19l-.3-.3C2.8,18.8,2.6,18.9,2.6,19.1Zm.7,26.8h0q0,.3,1.8.3H7.3c0-.2-1.1-.3-3.3-.4Zm.2-24.4h.2c.4,0,.7-.1.7-.3H4.2C3.8,21.2,3.6,21.3,3.5,21.5ZM3.5,45H7v-.2H3.6ZM5.2,17.8v.3l.4.4h.5l-.7-.6Zm2.6,9.3v.4a2.5,2.5,0,0,1,.3,1.3,8.8,8.8,0,0,0-.2,2.5v2.5h.1c.2,0,.3-1.9.5-5.7.1,0,.1-.4.1-1.3s-.1-.6-.3-.6H8.3A.9.9,0,0,0,7.8,27.1Zm.5-3.2L8,25.1a.8.8,0,0,0,.4.7h0q.3,0,.3-.9l-.2-1Zm.5,21.4v.2h1l.2-.3c0-.1-.1-.2-.3-.2S8.8,45.1,8.8,45.3Zm.4-26.1h0v.2l.3-.3V19H9.4ZM9.3,18v.3h.3l.2-.2H9.3Zm0,20.7v.5h.3l.2-.3v-.3l-.2-.2h0Zm.1,1.2v.2h.2v-.2Zm1.2-18v.2l.2.2H11l.2-.2v-.2h-.6Zm4.2-1.4h0c.4,0,.8-.6,1.4-1.8v-.3h0A1.6,1.6,0,0,0,14.8,20.5Zm2.3-1.4.3,1.3h.5V19.1l-.2-.2h-.1C17.3,18.9,17.1,19,17.1,19.1Zm1.5-.4h0v.2h.6c.3,0,.5-.1.5-.2H18.6Zm2-.2v.2H21l.2-.3h-.1C20.8,18.3,20.6,18.4,20.6,18.5Zm1.5.4h.3v-.2h-.2Zm.6,3.6H23q.5-.2,1.2-1.5H24c-.7.3-1.1.7-1.1,1.3S22.8,22.2,22.7,22.5Zm1.8,1.6v.2h.1l.3-.3h-.1Zm0-5.4h0v.2h.3v-.2h0v-.2h-.3Zm1.9,2v.2a1.1,1.1,0,0,0,.9.5h.1v-.2a1.4,1.4,0,0,0-.9-.5Z" transform="translate(-0.9 0)" style="fill:#b75326"/><path d="M45.8,15.6c1.7,0,3.8.8,6.3,2.2s3.1,2.7,3.1,3.3c1.7,3.5,2.5,5.6,2.5,6.2v.5a9.4,9.4,0,0,0-.9,2.9H51.1l-1.7.2c-6-.5-10.1-.7-12.4-.7H35.6a3.5,3.5,0,0,0-.7,1.5,4.8,4.8,0,0,1,.4,2.2c0,1.6.2,2.5.7,2.8v.3h0l-.4-.2v.2l.6.6a3.1,3.1,0,0,0,1.1,2c1.4,2.4,2.8,3.9,4.4,4.5a16.3,16.3,0,0,0,4.7.6,3.9,3.9,0,0,0,1.7-.7c.8-.3,2.4-1.6,4.7-4.1h0c0-.1-.3-.2-.8-.3v-.3a6.8,6.8,0,0,1,3.4-3.5l2.3,1.7a49.7,49.7,0,0,0,3.6,4.9v.3c-1.3,1.7-2.3,2.5-2.9,2.5h-.2c0-.9-.5-1.4-1.6-1.5s-1.2.7-2.8,2A13.8,13.8,0,0,1,49,47.9a33.5,33.5,0,0,1-5.7.9l-3.5-1.3c-2,0-3.8-1.1-5.5-3.2a7.3,7.3,0,0,1-1.7-2.7c0-.3-.5-2-1.4-5.1a15.5,15.5,0,0,1-.4-3.4h0a21.9,21.9,0,0,1,4.9-14.4,4.7,4.7,0,0,1,2.9-2.3,32.9,32.9,0,0,1,3.6-.7ZM31.9,31.3h-.1v.2h.1a2,2,0,0,0-.2.9v.3a4.4,4.4,0,0,0,.7,2h.1C32.5,32.7,32.3,31.6,31.9,31.3Zm0-2.3v.4c.1.2.1.4.3.4s.2-.2.3-.6l-.3-.2Zm.8-3.3a5.4,5.4,0,0,0-.8,2.5H32c.2,0,.6-.7,1.1-2.2S32.9,25.7,32.7,25.7Zm.1,11h0V37h.2v-.2h-.3Zm.6,1.1h-.1c.2.6.5,1,.7,1h.1A1.5,1.5,0,0,0,33.4,37.8Zm1.8-8.2h1.1l-.2-.3h-.2A.7.7,0,0,0,35.2,29.6Zm.1-7.4h.1Zm0,3.9v.4h.1l.7-.7v-.2h-.3A.6.6,0,0,0,35.3,26.1Zm.6-1.6v.2c0,.5,3.7,1,11.2,1.5l.6.2h.8a13.6,13.6,0,0,0,3.3.9c0,.1.1.2.4.3a1.7,1.7,0,0,0,.4-1.1V25.3c0-.6-1-1.8-3.1-3.6A5.9,5.9,0,0,0,46.3,20l-2.1-.3c-3.4.7-5.6,1.5-6.7,2.5A16,16,0,0,1,35.9,24.5Zm0-1h0a.5.5,0,0,0,.3-.5h0A.5.5,0,0,0,35.9,23.5Zm.2,21.2v.2c0,.3.4.5,1.1.7l.2.3h0c-.5-.6-.8-1-1.1-1.1Zm.5-23.9V21h0c.6-.2.9-.3.9-.5h-.3A.7.7,0,0,0,36.6,20.8Zm.3,8.4v.4h.3v-.3h-.3Zm.7-11.3h0l.2.2h0c.8-.2,1.2-.4,1.2-.7v-.3l-.2-.3h-.1C37.9,17.2,37.6,17.5,37.6,17.9Zm.8,10.7v.2a46.2,46.2,0,0,0,6.5.5H43.7c0,.2.5.3,1.6.3s2.5-.1,2.5-.3S44.7,28.8,38.4,28.6Zm.6-2.1v.2a8.5,8.5,0,0,0,4.3.8h1.3v-.3Zm.1-6.1a9.5,9.5,0,0,1,2.5-1h-.7Q39.1,19.5,39.1,20.4Zm1-3.4h.1a14.8,14.8,0,0,0,3.7-.7c.3-.1.5-.2.5-.3h-.2a10.8,10.8,0,0,0-4,.9h-.1Zm.5,27.9h0q0,.3,1.2.6h.1a3.6,3.6,0,0,0-1.3-.5Zm2.1-26.6h0c0,.2.9.4,2.6.7h.1v-.2a2,2,0,0,0-1.7-.8h-.2C43,18,42.7,18.1,42.7,18.3ZM44,45.6v.2h.3v-.2Zm2.4,1.6H44.8c-.4,0-.6,0-.6.2h0l.2.2h1.1A18.6,18.6,0,0,0,50,47h0c0-.2-.3-.3-.7-.3H49A5.8,5.8,0,0,0,46.4,47.2ZM45.3,17.3v.2a6.1,6.1,0,0,0,2.5.4h0v-.2c0-.1-.2-.2-.7-.3Zm1.2,1.4h0a25,25,0,0,0,3.7,2h.1l.7-.2h.4L50.3,20l-1.2-.5a2,2,0,0,0-2-1.1h-.2C46.6,18.5,46.5,18.5,46.5,18.7Zm3.6,9.4v.2h.2v-.2Zm.1,1.7c0,.1.4.2,1.1.2h.6c0-.2-.4-.3-1.3-.3S50.2,29.7,50.2,29.8Zm0,14.1h.1a1.1,1.1,0,0,0,.6-.7h-.1C50.4,43.4,50.2,43.6,50.2,43.9Zm.4,2.7c.5,0,.8-.3,1.1-1h-.2C50.9,46,50.6,46.3,50.6,46.6Zm.7-24.9a.6.6,0,0,0,.6.5H52v-.6l-.3-.3C51.4,21.3,51.3,21.4,51.3,21.7Zm.8,20.2h.2c.4,0,.7-.3.8-.8h0C52.7,41.1,52.4,41.3,52.1,41.9Zm.5-19.4a5.4,5.4,0,0,0,1,2.2H54c-.3-1.3-.7-2-1.1-2h-.3Zm.9,15.9h.4c.3,0,.5-.1.5-.2l-.2-.3h-.1A.5.5,0,0,0,53.5,38.4Zm.3,5.8h.3q.6-.6.6-.9h-.1C54.1,43.5,53.8,43.8,53.8,44.2Zm1-18.8V26c.2,0,.3-.2.3-.4v-.2h-.4Zm.2,17,.2.2c.6-.2.9-.5.9-.8H56C55.4,41.7,55.1,41.9,55,42.4Zm1.4-.6h.2a.6.6,0,0,0,.5-.6h-.2C56.6,41.4,56.4,41.6,56.4,41.8Zm2.2-.6h-.1c.2.5.3.8.6.8h0l.2-.2h0A.7.7,0,0,0,58.6,41.2Z" transform="translate(-0.9 0)" style="fill:#b75326"/><path d="M75.5,9.4a63.9,63.9,0,0,1,9.3,1.8,26.1,26.1,0,0,0,4.1,1.7,2.4,2.4,0,0,0,.5-1.8h0v-.5c0-.5.4-.8,1.2-.8a4.1,4.1,0,0,1,2.1-.5c1.2,0,1.8.1,1.8.4l.6,5.8v1.8c0,1.5-.2,2.3-.6,2.6s-.7.6-.9.6c-2.3-.2-3.4-.5-3.4-1a3.5,3.5,0,0,0-2.2-2.1c-4-2-6.8-3-8.5-3H77.6q-3,0-3.6,1.2a4.6,4.6,0,0,0-.8,2.7h0c0,2.3,1.2,4.1,3.6,5.6a15.2,15.2,0,0,0,6.1,1.4c0,.4.9.9,2.8,1.4a2.7,2.7,0,0,0,2.4.9c1.3.6,3.1,2.1,5.5,4.7l.2.3v.2h-.3a10.1,10.1,0,0,1,.8,2.2c0,3.7-.6,6.1-1.8,7s-1.6,2.2-3.3,3.3a8.9,8.9,0,0,1-6,2.6H81.1c-3.3-.5-4.9-.9-4.9-1.2-1.9-1.3-2.9-2-3.3-2a11.3,11.3,0,0,1-4.2-2.9h-.2c-.6,1.4-1,2.1-1.3,2.1-2.6-.4-3.9-.8-3.9-1.3a31.5,31.5,0,0,1-.4-5.4l.6-3.8c0-1.4.2-2.1.5-2.1l3.9-.5c.3,0,.6,1.2.9,3.5l1.8,3.1A49.9,49.9,0,0,0,76,41.2a5.3,5.3,0,0,0,3.9,1.6h2.2a4.7,4.7,0,0,0,4.4-2.2,8.6,8.6,0,0,0,2.1-4.5h0c0-1.3-1-2.8-3.1-4.5A4.3,4.3,0,0,0,82,29.9a27,27,0,0,0-5.5-1.1l-5-2.6-2.4-2.1a8.4,8.4,0,0,1-1.6-3.3v-1l-.2-2.4a3.1,3.1,0,0,1,1.1-2c0-.5,1-1.7,3-3.4s2.9-1.8,3.2-2.4ZM63.8,38.3v1.6h0c.3-.3.4-1.3.4-3v-.5h-.2C64,36.3,63.9,36.9,63.8,38.3Zm1.7,3.2v.2l.3.3h0l.2-.2h0l-.2-.2Zm.4-8.2v.3h.4v-.3ZM68.4,17a7.6,7.6,0,0,0,.3,1.6h.2V16.8h-.2Zm.1,22.4v.2a2.4,2.4,0,0,0,1.8,1.2h0v-.2c-.8-.8-1.4-1.2-1.7-1.2Zm.4-24V16h.1l.3-.6h-.3Zm1,7.4h0v.2h.2v-.3h-.3Zm.1-5.2v.2h.2l.2-.3h-.1Zm.7-2.8h.4v-.2h-.4Zm.4,8.3h0c.3.9.5,1.3.8,1.3h.2l.3-.3h0c-.5-.7-.9-1-1.3-1Zm.1-7.4h.3c1-.6,1.4-1.1,1.4-1.5h-.2q-.6,0-1.5,1.5Zm1.5,6.9h.8c-.1-.2-.3-.3-.7-.3Zm1.5.5h-.1v.4l.4.4h.3v-.3A.7.7,0,0,0,74.2,23.1Zm0,3.2h0c0,.2.3.5.8.7h.1Q75.1,26.6,74.2,26.3Zm.4,18.5h0c0,.2.6.4,1.7.7l.2.2h.3c-.1-.6-.2-.8-.4-.8Zm.6-34.5v.2c0,.2.3.3.8.4s1.7-.2,1.7-.4v-.2c0-.3-.6-.5-1.8-.5A1,1,0,0,0,75.2,10.3Zm1,14.2h-.1A7,7,0,0,0,78.4,26l.2-.2C78.6,25.6,77.8,25.1,76.2,24.5ZM77,12.9l.6.3a1.9,1.9,0,0,0,1.3-.6l-.3-.3h-.7Q77,12.3,77,12.9Zm.8,33.6h0l.2.3h.5c0-.1-.2-.2-.6-.2Zm.4-.9v.3h.2v-.2Zm.9,1.2a4.3,4.3,0,0,0,2.4.5h2.8c-.2-.3-1.6-.5-4.3-.5C79.4,46.6,79.1,46.7,79.1,46.8Zm.5-32.9c0,.3.7.5,2.2.6v-.2c0-.2-.6-.4-1.9-.6h-.1Zm0,12.2c0,.2,1.4.6,4.4,1.2h1a9.7,9.7,0,0,0-4.6-1.6C79.9,25.9,79.6,26,79.6,26.1Zm.7,1.8v.2l1,.3H82A5.4,5.4,0,0,0,80.3,27.9Zm4.6,18.7v.2h.4c.8,0,1.1-.1,1.1-.3H84.9Zm.5-33.7h0c0,.2.2.3.7.3h.2Q86.3,12.9,85.4,12.9Zm.7,2.3H86a8.2,8.2,0,0,0,2.5,1.1h0Q88.5,16,86.1,15.2Zm.3,13.6h0a19.4,19.4,0,0,0,3.2,1.9,3.8,3.8,0,0,0,1.9,1.1h.1v-.2c-.9-1.3-2.5-2.2-4.8-2.9Zm1.4,12.8v.3h.1a2.4,2.4,0,0,0,.9-1.1v-.2A3,3,0,0,0,87.8,41.6Zm.6-9.1v.3c0,.4.4.9,1.1,1.5h.3v-.5c0-.5-.5-1-1.3-1.3ZM89,43.9h0c0,.1.1.1.2.1s1.3-.6,2.1-1.9h-.2Zm.1-29.2a5.3,5.3,0,0,0,2,.9h.1c0-.3-.6-.5-1.9-.8h-.2Zm.1,22.6v.3h.3v-.4Zm1.5-18.2a2.5,2.5,0,0,0,1.7.4h1.3v-.3h-3Zm.6-9v.2c.5.7.9,1.1,1.2,1.1a1.3,1.3,0,0,0,.8-.7v-.2C93.3,10.3,92.6,10.1,91.3,10.1Zm1.3,27.7v.3l.2.2h.1c.3-.1.4-.4.4-1h-.2Zm.8-25.5h.4v-.3h-.3Z" transform="translate(-0.9 0)" style="fill:#b75326"/><path d="M109.7,9.4c1.1,0,4.1.6,9.2,1.8a26.1,26.1,0,0,0,4.1,1.7,2.4,2.4,0,0,0,.5-1.8h0v-.5c0-.5.4-.8,1.2-.8a4.1,4.1,0,0,1,2.1-.5c1.2,0,1.9.1,1.9.4l.5,5.8v1.8c0,1.5-.2,2.3-.6,2.6s-.7.6-.9.6c-2.3-.2-3.4-.5-3.4-1a3.5,3.5,0,0,0-2.2-2.1c-4-2-6.8-3-8.5-3h-1.8q-3,0-3.6,1.2a4.6,4.6,0,0,0-.8,2.7h0c0,2.3,1.2,4.1,3.6,5.6a15.2,15.2,0,0,0,6.1,1.4c0,.4.9.9,2.8,1.4a2.7,2.7,0,0,0,2.4.9c1.3.6,3.1,2.1,5.5,4.7l.2.3v.2h-.3a10.1,10.1,0,0,1,.8,2.2c0,3.7-.6,6.1-1.8,7s-1.6,2.2-3.3,3.3a8.9,8.9,0,0,1-6,2.6h-2.1c-3.3-.5-4.9-.9-4.9-1.2-1.9-1.3-2.9-2-3.3-2a11.3,11.3,0,0,1-4.2-2.9h-.2c-.6,1.4-1,2.1-1.3,2.1-2.6-.4-3.9-.8-3.9-1.3a31.5,31.5,0,0,1-.4-5.4l.6-3.8c0-1.4.2-2.1.5-2.1l3.9-.5c.3,0,.6,1.2.9,3.5l1.8,3.1a49.9,49.9,0,0,0,5.4,3.7,5.3,5.3,0,0,0,3.9,1.6h2.2a4.7,4.7,0,0,0,4.4-2.2,8.6,8.6,0,0,0,2.1-4.5h0c0-1.3-1-2.8-3.1-4.5a4.3,4.3,0,0,0-3.5-1.6,27,27,0,0,0-5.5-1.1l-5-2.6-2.4-2.1a8.4,8.4,0,0,1-1.6-3.3v-1l-.2-2.4a3.1,3.1,0,0,1,1.1-2c0-.5,1-1.7,3-3.4s2.9-1.8,3.2-2.4ZM97.9,38.3v1.6h0c.3-.3.4-1.3.4-3v-.5h-.2C98.1,36.3,98,36.9,97.9,38.3Zm1.7,3.2v.2l.3.3h0l.2-.2h0l-.2-.2Zm.4-8.2v.3h.4v-.3ZM102.5,17l.3,1.6h.2V16.8h-.2Zm.1,22.4v.2a2.4,2.4,0,0,0,1.8,1.2h.1v-.2q-1.4-1.2-1.8-1.2Zm.4-24V16h.1l.3-.6H103Zm1,7.4h0v.2h.2v-.3H104Zm.1-5.2v.2h.2l.2-.3h-.1Zm.8-2.8h.3v-.2h-.3Zm.3,8.3h0c.3.9.5,1.3.8,1.3h.2l.3-.3h0c-.5-.7-.9-1-1.3-1Zm.1-7.4h.3c1-.6,1.4-1.1,1.4-1.5h-.1c-.5,0-1,.5-1.6,1.5Zm1.5,6.9h.8c-.1-.2-.3-.3-.7-.3Zm1.5.5h-.1v.4l.4.4h.3v-.3A.7.7,0,0,0,108.3,23.1Zm0,3.2h0c0,.2.3.5.8.7h.1Q109.2,26.6,108.3,26.3Zm.4,18.5h0c0,.2.6.4,1.7.7l.2.2h.3c-.1-.6-.2-.8-.4-.8Zm.6-34.5v.2c0,.2.3.3.8.4s1.7-.2,1.7-.4v-.2c0-.3-.6-.5-1.7-.5A1,1,0,0,0,109.3,10.3Zm1,14.2h-.1a7,7,0,0,0,2.3,1.3l.2-.2C112.7,25.6,111.9,25.1,110.3,24.5Zm.8-11.6.6.3a1.9,1.9,0,0,0,1.3-.6l-.3-.3H112Q111.1,12.3,111.1,12.9Zm.8,33.6h0l.2.3h.5c0-.1-.2-.2-.6-.2Zm.4-.9v.3h.2v-.2Zm1,1.2a3.7,3.7,0,0,0,2.3.5h2.8c-.2-.3-1.6-.5-4.3-.5C113.5,46.6,113.3,46.7,113.3,46.8Zm.4-32.9c0,.3.7.5,2.2.6v-.2c0-.2-.6-.4-1.9-.6h-.1Zm0,12.2c0,.2,1.5.6,4.4,1.2h1a9.7,9.7,0,0,0-4.6-1.6C114,25.9,113.7,26,113.7,26.1Zm.7,1.8v.2l1,.3h.7A5.4,5.4,0,0,0,114.4,27.9ZM119,46.6v.2h.4c.8,0,1.1-.1,1.1-.3H119Zm.5-33.7h0c0,.2.2.3.7.3h.2Q120.4,12.9,119.5,12.9Zm.7,2.3h-.1a8.2,8.2,0,0,0,2.5,1.1h0Q122.6,16,120.2,15.2Zm.3,13.6h0a19.4,19.4,0,0,0,3.2,1.9,3.8,3.8,0,0,0,1.9,1.1h.1v-.2c-.9-1.3-2.5-2.2-4.8-2.9Zm1.4,12.8v.3h.1a2.4,2.4,0,0,0,.9-1.1v-.2A3,3,0,0,0,121.9,41.6Zm.6-9.1v.3c0,.4.4.9,1.1,1.5h.3v-.5c0-.5-.4-1-1.3-1.3Zm.6,11.4h0c0,.1.1.1.2.1s1.3-.6,2.1-1.9h-.2Zm.1-29.2a5.3,5.3,0,0,0,2,.9h.1c0-.3-.6-.5-1.9-.8h-.2Zm.1,22.6v.3h.3v-.4Zm1.5-18.2a2.6,2.6,0,0,0,1.8.4h1.2v-.3h-3Zm.6-9v.2c.5.7.9,1.1,1.2,1.1a1.3,1.3,0,0,0,.8-.7v-.2C127.4,10.3,126.7,10.1,125.4,10.1Zm1.3,27.7v.3l.2.2h.1c.3-.1.4-.4.4-1h-.2Zm.8-25.5h.4v-.3h-.3Z" transform="translate(-0.9 0)" style="fill:#b75326"/><path d="M135.7,16l4.2,1.4a6.4,6.4,0,0,0,.8,2V20c-.4,2.6-.5,8-.3,16.5a2.2,2.2,0,0,0,1.4,2.3l.5,1.1c0,.2,1.4.5,4.1.6h.2c.9,0,1.9-.9,3.2-2.8a10.7,10.7,0,0,0,2-2.3h.3v-.7a6.8,6.8,0,0,0,.6-1.6h0v-.6l1.2-11.7V19.6l-.2-.6h0a1.8,1.8,0,0,0,.7-1.5c0-.4.1-.7.4-.7l1.5.7h1.3c1.7,0,2.8.3,3.5,1v.3c-.4,0-.7.1-.7.2l.7,1.5h.1q.2-.9.3-.9a4.1,4.1,0,0,1,.3,1l-.7,7.7h.1a61.4,61.4,0,0,0-.8,7.4v1.8c0,2.7.1,4,.3,4h.3a15,15,0,0,0,3.6-.5c.2,0,.6.3,1.1.8-.2,3.6-.4,5.5-.7,5.5l-.7-.6-1.9.2-6.9-.2c-.3,0-.7-.8-1-2.4a1,1,0,0,1-.4-.8V43H154a19,19,0,0,0-3.7,1.7c-.1.2-1.5.9-4.2,1.8a11.8,11.8,0,0,1-2.5,1,12,12,0,0,0-3-1.1c-2.6-2.5-4.2-4.8-4.8-6.8s-1.5-4.7-1.5-9.7l.7-7.2v-.2a22.6,22.6,0,0,0-4.3-.8,8.2,8.2,0,0,1-.4-3.1c0-1.1.2-1.7.7-1.7S132.5,16.1,135.7,16Zm-4.5,2.9v.2h.9v-.2Zm0,1.9.2.2h.4l.2-.2-.2-.2h-.4Zm.3-1.3v.2c.1.2.3.3.7.3h.1l-.3-.4Zm1,.8h.1l.5-.3v-.2h-.3Zm1.1,0c0,.3.7.7,2,1.1h.6c.2,0,.3-.2.3-.4a3.7,3.7,0,0,0-1.7-1h-.5C133.9,20,133.7,20.1,133.6,20.3Zm.9-3.5V17h.4v-.2h-.4Zm1.1,6.7v.6l.9-.3V22.4h-.2C136.2,22.3,135.9,22.7,135.6,23.5Zm0,10.8v.2c0,1.6.9,4.1,2.6,7.5.3.3.5.4.7.4V42l-1.8-4.9c-.6-1.9-1-2.9-1.3-3h0Zm.3-17h0c0,.1.3.3.9.5s.1.9.2.9h.4c1,0,1.6-.2,1.7-.5h0c0-.3-.6-.5-1.8-.7s-.3-.2-.7-.3h-.7Zm.5,13.1-.2.3h0l.2.2.2-.2v-.3Zm1.5,2.2V33a1.6,1.6,0,0,0,.8,1.3h.2c0-1.5-.1-2.3-.4-2.3h-.2A.5.5,0,0,0,137.9,32.6Zm.4-11.8V22h.1c.3-.1.4-.3.4-.7v-.7c0-.3-.1-.5-.2-.5h-.1C138.4,20.2,138.3,20.4,138.3,20.8Zm.7,15.9h0c.2.2.3.3.5.3h0C139.5,36.8,139.4,36.7,139,36.7Zm1.2,4.4v.2a.5.5,0,0,0,.5.3v-.3l-.2-.2Zm3.6,4.1h-.5l-2.5-.2h-.1l-.2.2h0c0,.3,1.1.8,3.4,1.2A12.8,12.8,0,0,0,148,45h.1v-.2h-.4A16,16,0,0,1,143.8,45.2Zm-3-5.3h0v.2h.1V40Zm1,1.7h0c0,.5.7,1.1,2.1,2a10.1,10.1,0,0,0,2.5-1.2h0a26.3,26.3,0,0,1-4.5-.7Zm3.2,2.2V44h.7a6.4,6.4,0,0,0,3.2-1.7v-.2h-.3A19.8,19.8,0,0,0,145,43.8Zm5.1-5h.2a8.8,8.8,0,0,0,1.4-2.2h-.1A8.3,8.3,0,0,0,150.1,38.8Zm3.1-1.7c-.2.3-.4.5-.4.7l.3.2h.1l.3-.2v-.4Zm.5,3.8h.2l.3-.4v-.2A.5.5,0,0,0,153.7,40.9Zm1.2-22.8c0,.4.3.6,1,.6h.5c0-.2-.5-.3-1.4-.4Zm.3,15.5v.6l.3.2a1.2,1.2,0,0,0,.5-.5v-.3l-.2-.2h-.3Zm.1-13.3h0a.6.6,0,0,0,.5.2h.1c.2,0,.4-.1.4-.2h0c0-.1-.2-.2-.6-.2h-.2Zm0,20.7v.7c0,2.9.2,4.4.5,4.4h.2c.3-.1.4-.2.4-.4s-.4-2.1-.5-4.5l-.4-.4Zm.2-3v.4h.2v-.2Zm0-5.3.4.3c.1,0,.3-.5.4-1.2h-.2A1.1,1.1,0,0,0,155.5,32.7Zm.9-5.9v.3h.1c.4,0,.6-.5.6-1.4s-.1-.6-.2-.6S156.6,25.7,156.4,26.8Zm.3,10v.4a12.1,12.1,0,0,0,.3,2.5h.2a14.1,14.1,0,0,0,.2-1.8v-.4c0-.5-.2-.7-.6-.7Zm0-.8h0l.2.2.2-.2v-.2h-.3Zm1.2,8.8h0c.1.2.4.3.8.3h.8c0-.2-.3-.3-.8-.4h-.6Zm.8-16V29c.1.2.1.3.2.3h.1v-.5Zm.8,11.1-.7.9V41h.7l.2-.2v-.3A.8.8,0,0,0,159.5,39.9Zm1.7,2.9V43h.7c.9,0,1.3-.2,1.3-.4h0Zm1.7.8V44h.3v-.2h0c0-.1-.1-.1-.2-.1Z" transform="translate(-0.9 0)" style="fill:#b75326"/><path d="M190.5,17.8c1.6,0,2.9,1.2,4,3.4.3,0,.6.3.9.8l.9,4.6c-.4.5-1.5.7-3.3.7h-.6Q190,27,190,25.8a3.8,3.8,0,0,0-1.4-2.4c-.1-.2-1-.3-2.6-.3a17.1,17.1,0,0,0-5.7,1.2,20.7,20.7,0,0,0-3.1,3.9c.3,7.4.4,11.9.3,13.2s.3.6.8.6h1.5c.6,0,1,.1,1,.3h0l.2.8-.2,3.4-.3.5-2.9.3h-.3l-1.2.4c-4.7-.2-7.1-.3-7.1-.6s-1.2-.3-1.2-1.1a12.1,12.1,0,0,1-.2-2.3c0-.7.8-1.3,2.4-1.5,0-.4.6-.5,1.7-.5h.2l-.4-16.9c0-1-.2-1.5-.8-1.5h-.4a8.1,8.1,0,0,0-2.4.6h-.1c0-.1.1-.2.5-.3h0c-.5,0-.7-1.2-.7-3.5a5,5,0,0,1-.1-1.1,8.1,8.1,0,0,1,5.1-1.9h1.6l3.1.6v.2a2.2,2.2,0,0,0-.6,1.2v.4C180.1,17.6,184.7,17.2,190.5,17.8ZM168.5,45l-.2.2v.3h.4v-.4Zm.6-25.9a1.2,1.2,0,0,0,1,.4h.1V19l-.3-.3C169.4,18.8,169.1,18.9,169.1,19.1Zm.7,26.8h0q0,.3,1.8.3h2.3c0-.2-1.1-.3-3.3-.4Zm.2-24.4h.3c.4,0,.6-.1.7-.3h-.3C170.3,21.2,170.1,21.3,170,21.5ZM170,45h3.6v-.2h-3.4Zm1.7-27.2v.3l.4.4h.5l-.7-.6Zm2.6,9.3v.4a2.5,2.5,0,0,1,.3,1.3,17.2,17.2,0,0,0-.2,2.5l.2,2.5h0c.2,0,.4-1.9.5-5.7.1,0,.1-.4.1-1.3s-.1-.6-.3-.6h-.1A1.1,1.1,0,0,0,174.3,27.1Zm.5-3.2-.3,1.2a.8.8,0,0,0,.4.7h0q.3,0,.3-.9l-.2-1Zm.5,21.4.2.2h.9l.3-.3c0-.1-.1-.2-.3-.2S175.3,45.1,175.3,45.3Zm.4-26.1h0l.2.2.2-.3V19H176Zm.2-1.2v.3h.2l.3-.2h-.5Zm0,20.7v.5h.2l.3-.3v-.3l-.2-.2h-.1Zm.1,1.2v.2h.1v-.2Zm1.1-18v.2l.2.2h.2l.2-.2v-.2h-.6Zm4.2-1.4h0q.6,0,1.5-1.8v-.3h-.1A1.7,1.7,0,0,0,181.3,20.5Zm2.3-1.4.3,1.3h.5V18.9h-.2C183.8,18.9,183.6,19,183.6,19.1Zm1.5-.4h0v.2h.7l.5-.2h-1.3Zm2-.2v.2h.4l.2-.3h-.1C187.3,18.3,187.1,18.4,187.1,18.5Zm1.6.4h.2l.2-.2h-.3Zm.5,3.6h.3c.3-.1.7-.6,1.3-1.5h-.3c-.7.3-1.1.7-1.1,1.3S189.3,22.2,189.2,22.5Zm1.8,1.6v.2h.1l.3-.3h-.1Zm0-5.4h0l.2.2h.2l.2-.2h0l-.2-.2h-.2Zm1.9,2v.2a1.4,1.4,0,0,0,.9.5h.1v-.2c-.3-.3-.5-.5-.8-.5Z" transform="translate(-0.9 0)" style="fill:#b75326"/><path d="M212.3,15.6c1.7,0,3.8.8,6.3,2.2s3.2,2.7,3.2,3.3c1.6,3.5,2.4,5.6,2.4,6.2v.5a9.4,9.4,0,0,0-.9,2.9h-5.6l-1.8.2c-5.9-.5-10.1-.7-12.4-.7h-1.4a3.5,3.5,0,0,0-.7,1.5,4.8,4.8,0,0,1,.4,2.2c0,1.6.3,2.5.7,2.8v.3h0l-.4-.2v.2l.7.6a2.7,2.7,0,0,0,1.1,2c1.3,2.4,2.8,3.9,4.4,4.5a15.1,15.1,0,0,0,4.6.6,4.6,4.6,0,0,0,1.8-.7c.8-.3,2.3-1.6,4.6-4.1h0c0-.1-.2-.2-.8-.3v-.3a7.2,7.2,0,0,1,3.4-3.5l2.3,1.7a49.7,49.7,0,0,0,3.6,4.9v.3c-1.3,1.7-2.3,2.5-2.8,2.5h-.3c0-.9-.5-1.4-1.6-1.5s-1.2.7-2.7,2a15.5,15.5,0,0,1-4.9,2.1,33.5,33.5,0,0,1-5.7.9l-3.5-1.3c-2,0-3.8-1.1-5.4-3.2a7.5,7.5,0,0,1-1.8-2.7,34.5,34.5,0,0,0-1.4-5.1,25.5,25.5,0,0,1-.4-3.4h0a22.4,22.4,0,0,1,4.9-14.4,5,5,0,0,1,2.9-2.3l3.6-.7ZM198.4,31.3h0v.2h0a2.2,2.2,0,0,0-.1.9v.3a4.1,4.1,0,0,0,.6,2h.1C199,32.7,198.8,31.6,198.4,31.3Zm0-2.3v.4c0,.2.1.4.2.4s.2-.2.3-.6l-.2-.2Zm.8-3.3a5.4,5.4,0,0,0-.8,2.5h.1c.2,0,.6-.7,1.1-2.2S199.4,25.7,199.2,25.7Zm.1,11h0V37h.2v-.2h-.3Zm.6,1.1h-.1c.3.6.5,1,.7,1h.1A1.3,1.3,0,0,0,199.9,37.8Zm1.8-8.2h1.2l-.3-.3h-.1A.9.9,0,0,0,201.7,29.6Zm.1-7.4h.1Zm0,3.9v.4h.1a2.3,2.3,0,0,0,.7-.7v-.2h-.2A.8.8,0,0,0,201.8,26.1Zm.6-1.6v.2c0,.5,3.7,1,11.2,1.5l.6.2h.8a14.9,14.9,0,0,0,3.3.9c0,.1.2.2.4.3a1.7,1.7,0,0,0,.4-1.1V25.3c0-.6-1-1.8-3.1-3.6a5.6,5.6,0,0,0-3.2-1.7l-2.1-.3c-3.4.7-5.6,1.5-6.7,2.5A10.6,10.6,0,0,1,202.4,24.5Zm.1-1h0a.5.5,0,0,0,.3-.5h0A.5.5,0,0,0,202.5,23.5Zm.1,21.2v.2c.1.3.4.5,1.1.7l.3.3h0l-1.1-1.1Zm.5-23.9V21h.1c.5-.2.8-.3.8-.5h-.3A.7.7,0,0,0,203.1,20.8Zm.3,8.4v.4h.3v-.3h-.3Zm.7-11.3h0l.2.2h0c.9-.2,1.3-.4,1.3-.7v-.3l-.3-.3h-.1C204.5,17.2,204.1,17.5,204.1,17.9Zm.8,10.7v.2a47.8,47.8,0,0,0,6.5.5h-1.2c0,.2.5.3,1.6.3s2.6-.1,2.6-.3S211.2,28.8,204.9,28.6Zm.6-2.1v.2a8.5,8.5,0,0,0,4.3.8h1.3v-.3A53.2,53.2,0,0,0,205.5,26.5Zm.2-6.1a8.4,8.4,0,0,1,2.4-1h-.7C206.2,19.4,205.7,19.8,205.7,20.4Zm.9-3.4h.1a14.8,14.8,0,0,0,3.7-.7c.4-.1.5-.2.5-.3h-.2a11.3,11.3,0,0,0-4,.9h-.1Zm.5,27.9h0c0,.2.4.4,1.3.6h.1a3.9,3.9,0,0,0-1.4-.5Zm2.2-26.6h0c0,.2.8.4,2.5.7h.1v-.2a1.9,1.9,0,0,0-1.7-.8H210C209.5,18,209.3,18.1,209.3,18.3Zm1.2,27.3v.2h.3v-.2Zm2.4,1.6h-1.6c-.3,0-.5,0-.6.2h0l.2.2h1.2a18.5,18.5,0,0,0,4.4-.6h0c0-.2-.2-.3-.7-.3h-.3A5.8,5.8,0,0,0,212.9,47.2Zm-1.1-29.9v.2a6.1,6.1,0,0,0,2.5.4h.1v-.2c0-.1-.3-.2-.8-.3Zm1.2,1.4h0a19.1,19.1,0,0,0,3.8,2h.1l.6-.2h.4l-1-.4-1.3-.5a1.9,1.9,0,0,0-2-1.1h-.2C213.1,18.5,213,18.5,213,18.7Zm3.6,9.4v.2h.3v-.2Zm.1,1.7c0,.1.4.2,1.1.2h.6q0-.3-1.2-.3C216.9,29.6,216.7,29.7,216.7,29.8Zm0,14.1h.2a1.3,1.3,0,0,0,.5-.7h0C216.9,43.4,216.7,43.6,216.7,43.9Zm.5,2.7c.4,0,.7-.3,1-1H218C217.5,46,217.2,46.3,217.2,46.6Zm.6-24.9a.6.6,0,0,0,.6.5h.1v-.6l-.3-.3C218,21.3,217.8,21.4,217.8,21.7Zm.8,20.2h.2c.4,0,.7-.3.9-.8h0C219.2,41.1,218.9,41.3,218.6,41.9Zm.5-19.4c.4,1.3.8,2.1,1.1,2.2h.3c-.3-1.3-.7-2-1.1-2h-.3Zm1,15.9h.4c.2,0,.4-.1.4-.2l-.2-.3h-.1C220.3,38,220.2,38.1,220.1,38.4Zm.3,5.8h.2q.6-.6.6-.9h-.1A.9.9,0,0,0,220.4,44.2Zm.9-18.8V26a.4.4,0,0,0,.4-.4v-.2h-.5Zm.2,17,.2.2c.6-.2.9-.5.9-.8h0C222,41.7,221.6,41.9,221.5,42.4Zm1.5-.6h.2a.7.7,0,0,0,.4-.6h-.2A.7.7,0,0,0,223,41.8Zm2.1-.6H225c.2.5.4.8.6.8h.1v-.2h0A.7.7,0,0,0,225.1,41.2Z" transform="translate(-0.9 0)" style="fill:#b75326"/><path d="M248,12.3a5.5,5.5,0,0,0,2.5.9c.8,0,2.5,1,5.1,2.9l.9.2h.3l1.1.6a6.5,6.5,0,0,1,1.9,1.8h0c0,.3-.3.6-.7,1a16.8,16.8,0,0,1-2.6,4v.9a5.8,5.8,0,0,0-1.8.4c-.3,0-.5-.3-.7-.8s-1.8-1.3-1.8-1.8l.8-2c0-.8-1.4-1.3-4.1-1.7l-4-.2a14.6,14.6,0,0,0-5.7,1.6c-1.4.7-2.4,2.2-3.1,4.4a14.2,14.2,0,0,1-1.5,3.5l-.6-.5a2,2,0,0,0-.5,1.4h.1l.8-.4c.1,0,.2.2.2.4l-.4,2.8c.2.1.6,1.3,1.2,3.7l-.2.4v.2a6,6,0,0,1,.5,2.1c.3,1.2,1.5,2.3,3.5,3.3l3.3,2.4a19.6,19.6,0,0,0,9.7-2.4c2.7-2.4,4.1-4,4.1-4.8l-.2-.9h0a16.4,16.4,0,0,1,2.7-3,2.9,2.9,0,0,1,1,.9v.2h-.8V34c1.5.2,2.3.6,2.3,1.3a17.1,17.1,0,0,1,2.1,3.9q.3,0,.6,1.5c.5.2.8.4.9.7s-.2.5-.8.6a6.1,6.1,0,0,0-2.6,2l-2.3-2.2L255.9,44a23.6,23.6,0,0,0-3.1,2l-6.4,2.1h-1a21.7,21.7,0,0,1-5.9-1.2c-2.7-1.2-4.3-2.1-4.5-2.8-3.5-4.1-5.2-7.3-5.2-9.6l-.2-2.1a26.8,26.8,0,0,0,.5-5.4l1.7-3.9c0-1.2.7-2.6,2.3-4.5s3.1-3.6,6.7-5.2a30.2,30.2,0,0,1,7.2-1.1ZM231.8,31.9v.2c0,.4.1.6.5.7s.3-.7.1-2v-.3h-.2C232.1,30.5,231.9,30.9,231.8,31.9Zm2.3-8.1L233,25.7V26l.2.3h.2c.2,0,.5-.7.9-2v-.5Zm-.5,9.2a1.3,1.3,0,0,0-.3,1,3.1,3.1,0,0,0,.6,1.2c.2.7.5,1,.9,1h0a6.7,6.7,0,0,0-1.1-3.1Zm-.2,4.9v.3a.9.9,0,0,0,.8.6,1.2,1.2,0,0,0-.6-.9Zm.3,2.9h0c0,.6.7,1.3,2,1.9h.5c0-.5-.7-1.2-2.2-2Zm.2-18.3h.3c.4-.4.7-.7.7-1v-.2h-.2A1.4,1.4,0,0,0,233.9,22.5Zm.9,16.7v.4c.2.3.4.5.7.5h.1v-.2C235.4,39.5,235.1,39.2,234.8,39.2Zm1-19.1h.2c.6-.4.9-.7.9-1S236.1,19.4,235.8,20.1Zm.2,23.7c.3.6,1.8,1.5,4.4,2.8l1.3.4h.1v-.3c-2.6-1.1-4.2-2-4.8-2.8a.9.9,0,0,0-.6-.3h-.3C236,43.6,236,43.6,236,43.8Zm.5-27.1v.2h.1l.4-.3h-.3Zm1.2-.6,3.1-1.3,2.1-.9c.7-.1,1.1-.3,1.1-.4h0a12.2,12.2,0,0,0-6.3,2.4h0Zm.4,27.5h0c0,.3.7.7,2.2,1.2l3.1,1h.6l.2-.2v-.2h0a3.2,3.2,0,0,1-2.3-.9l-1-.3h-.1l-.4.3h-.1a6.6,6.6,0,0,1-2-.9Zm.9-25.2h.2l.3-.2-.2-.2Zm2.2-1.4v.2h.3c.9-.2,1.4-.4,1.4-.6l-.2-.2h-.1C241.7,16.7,241.2,16.8,241.2,17Zm2.4-1.3V16l.7.2c2.4,0,3.8-.2,4.1-.7l-1-.2A17.4,17.4,0,0,0,243.6,15.7Zm1.1,1.9h.7c1.3,0,2-.2,2.1-.4v-.2h-.8C245.3,17.1,244.7,17.3,244.7,17.6Zm.8,29.7h0c0,.3.4.4,1.2.4v-.2h0l.2-.2-.2-.3h-.4C245.7,47.1,245.5,47.2,245.5,47.3Zm3.2-30.1h0c0,.1.5.2,1.6.3h0l-1.1-.3Zm.2,27.4h.1c.4,0,.6-.1.7-.3h0C249.1,44.4,248.9,44.5,248.9,44.6Zm0-28.9v.2c0,.2.4.3,1.3.4v-.2c0-.3-.2-.4-.7-.4Zm.5-1.9h-.1l.2.2h.3v-.3Zm1.2,31.8h.1a5.4,5.4,0,0,0,2.2-1.3h-.1C252.4,44.2,251.7,44.7,250.6,45.6Zm.3-29.3h0l.2.3h.2v-.2l-.2-.2Zm.6,26.9h.2c1-.4,1.5-.9,1.5-1.3h0c-1.2.5-1.7.9-1.7,1.2Zm2.7-25.3v.3h.1l.2-.2h-.3Zm1.1,22.3h.1c.3-.1.5-.4.8-.9h0C255.8,39.2,255.5,39.5,255.3,40.2Zm2.2-20.7h.4l.4-.3V19l-.2-.2C257.7,18.8,257.5,19,257.5,19.5Zm1.7,17.6h0c.3.8.6,1.3.8,1.3l.2-.2v-.2C260,37.4,259.7,37.1,259.2,37.1Zm1.3-1.3v.3c0,.5.8,2,2.3,4.7h.4l.2-.2a36.6,36.6,0,0,1-1.8-3.9l-.9-1Zm.3,6.3v.3l.2.2h.3c.2,0,.5-.3,1-.9h0c0-.1-.4-.3-1.1-.5S260.8,41.5,260.8,42.1Z" transform="translate(-0.9 0)" style="fill:#b75326"/><path d="M277.5,0a3.6,3.6,0,0,1,2.2.7,27.2,27.2,0,0,0-1,6.3l-.5,5.6c0,.3.8.5,2.4.5,4.9,0,7.3.2,7.3.6s.4.2.8.4a3.1,3.1,0,0,0-.6,1.2v1.4l-.8,2.8q0,.3.9,1.2h0a8,8,0,0,1-2.3.5c-.7-.1-1.1-.2-1.1-.3H286l.2-.2v-.2h-7.8c-.2,0-.4,1.2-.7,3.5h-.1l-.8-.9-.2.6v.4c.1,1.2.2,1.8.4,1.9s.3-.4.5-1.2v-.4h.1v.2l-.5,5.9c.4,6.5.8,9.8,1.2,9.8s.6,1.9,1.5,1.9a3.3,3.3,0,0,0,1.7.4h4.8a12.3,12.3,0,0,1,.5,3.3c.1,1.3-.6,1.9-2.2,1.9h-4.8a9.8,9.8,0,0,1-6.5-2.1c-1.2-.5-1.8-1.7-1.8-3.8s-.3-4.9-.4-9.8l1-5.4.2-3.7v-.5c-.3-1.7-.8-2.5-1.5-2.5h-4a4.9,4.9,0,0,0-1.9.5c-.4-.1-.9-.6-1.5-1.7l1.2-5.5,7.5-.3a3.5,3.5,0,0,1,.9-2q.1-9.6.6-9.6V.9c0-.1-.1-.2-.3-.2h0C273.4.4,274.8.2,277.5,0ZM265.1,13.7a.5.5,0,0,0,.5.5h.9l4.7-.3h0c0-.3-1-.4-3-.4h-2.6C265.3,13.5,265.1,13.6,265.1,13.7Zm.8,1.4v.3q0,.6,4.2.6c1.3,0,2-.1,2-.3s-1.8-.7-5.3-.7h-.9Zm.5,2.2c0,.2.1.2.3.2H270a9.4,9.4,0,0,0-2.8-.3h-.6Zm0,.8h0c0,.3,1.5.4,4.6.4h.6l-.2-.2ZM272,31.6l.3,1.7v2.8h.1c.3,0,.4-.9.4-2.9V31.8c.2.1.2.2,0,.2A1,1,0,0,1,272,31.6Zm2,8v1.3h0l.2-.2v-1H274Zm.3,4.2v.3c.1,1,.6,1.5,1.3,1.5h.8c0-.2-.4-.3-1.2-.5l-.8-1.1Zm.5-22.5v.5h.2c.2,0,.2-.1.2-.4v-.6h-.1C274.9,20.9,274.8,21.1,274.8,21.3Zm.2,1.2v1h.2v-1Zm.1-20.8V2h.2V1.8h-.2Zm0,25.1v.7h.2v-.7Zm.3-22.9a5.1,5.1,0,0,0-.2,1.6v.3h.2l.2-1.1V4.1Zm.2,2.8-.2,6.1h.3c.3,0,.4-.5.4-1.5V7l-.2-.3Zm.4,29.8v.9c0,.3.1.5.3.5h.1c.1,0,.2-.2.2-.4s-.2-1-.4-1Zm0,7h0v.4a.7.7,0,0,0,.4.5h.4C276.8,43.9,276.5,43.6,276,43.5Zm.6-4.4-.3.8c0,.9.2,1.5.6,1.7l.2-.3v-.5C277,39.8,276.8,39.2,276.6,39.1Zm.2-16.9h0l.2.3h.1v-.2l-.3-.2ZM277.6,2h0V3.6h.2a2.8,2.8,0,0,0,.7-1.3V2l-.2-.2h-.6ZM279,15.7h0c0,.2.8.4,2.3.4h1l1.4.3h.3c.3,0,.4-.1.4-.4h-.1l-4.7-.4h-.4Zm1,2.8h0q0,.3,2.1.6h.1a3.3,3.3,0,0,0-1.9-.6Zm3.6-4.6h-1.8V14a7,7,0,0,0,2.3.4h1.4c.1,0,.1-.1.1-.2s-.2-.7-.7-.7h-.6Zm-.8,30.8h.2c1.6-.3,2.3-.6,2.3-.9h-.1Q282.8,44.4,282.8,44.7Zm.6-25.6a8.6,8.6,0,0,0,3,.5l.2-.2v-.6H285C283.9,18.8,283.4,18.9,283.4,19.1Zm2.2-2h0l.3.3h.2a.9.9,0,0,0,.8-.4l-.2-.2h-.8Zm.3-2.8h0l.2.2a.8.8,0,0,0,.7-.3h-.7Z" transform="translate(-0.9 0)" style="fill:#b75326"/><path d="M303.5,15.6c1.7,0,3.8.8,6.3,2.2s3.2,2.7,3.2,3.3c1.6,3.5,2.4,5.6,2.4,6.2v.5a9.4,9.4,0,0,0-.9,2.9h-5.6l-1.8.2c-5.9-.5-10.1-.7-12.4-.7h-1.4a3.5,3.5,0,0,0-.7,1.5A4.8,4.8,0,0,1,293,34c0,1.6.3,2.5.7,2.8v.3h0l-.4-.2v.2l.7.6a2.7,2.7,0,0,0,1.1,2c1.3,2.4,2.8,3.9,4.4,4.5a15.1,15.1,0,0,0,4.6.6,4.6,4.6,0,0,0,1.8-.7c.8-.3,2.3-1.6,4.6-4.1h0c0-.1-.2-.2-.8-.3v-.3a7.2,7.2,0,0,1,3.4-3.5l2.3,1.7a49.7,49.7,0,0,0,3.6,4.9v.3c-1.3,1.7-2.3,2.5-2.8,2.5h-.3c0-.9-.5-1.4-1.6-1.5s-1.2.7-2.7,2a15.5,15.5,0,0,1-4.9,2.1,33.5,33.5,0,0,1-5.7.9l-3.5-1.3c-2,0-3.8-1.1-5.4-3.2a7.5,7.5,0,0,1-1.8-2.7,34.5,34.5,0,0,0-1.4-5.1,25.5,25.5,0,0,1-.4-3.4h0a22.4,22.4,0,0,1,4.9-14.4,5,5,0,0,1,2.9-2.3l3.6-.7ZM289.6,31.3h0v.2h0a2.2,2.2,0,0,0-.1.9v.3a4.1,4.1,0,0,0,.6,2h.1C290.2,32.7,290,31.6,289.6,31.3Zm0-2.3v.4c0,.2.1.4.2.4s.2-.2.3-.6l-.2-.2Zm.8-3.3a5.4,5.4,0,0,0-.8,2.5h.1c.2,0,.6-.7,1.1-2.2S290.6,25.7,290.4,25.7Zm.1,11h0V37h.2v-.2h-.3Zm.6,1.1H291c.3.6.5,1,.7,1h.1A1.3,1.3,0,0,0,291.1,37.8Zm1.8-8.2h1.2l-.3-.3h-.1A.9.9,0,0,0,292.9,29.6Zm.1-7.4h.1Zm0,3.9v.4h.1a2.3,2.3,0,0,0,.7-.7v-.2h-.2A.8.8,0,0,0,293,26.1Zm.6-1.6v.2c0,.5,3.7,1,11.2,1.5l.6.2h.8a14.9,14.9,0,0,0,3.3.9c0,.1.2.2.4.3a1.7,1.7,0,0,0,.4-1.1V25.3c0-.6-1-1.8-3.1-3.6A5.6,5.6,0,0,0,304,20l-2.1-.3c-3.4.7-5.6,1.5-6.7,2.5A10.6,10.6,0,0,1,293.6,24.5Zm.1-1h0a.5.5,0,0,0,.3-.5h0A.5.5,0,0,0,293.7,23.5Zm.1,21.2v.2c.1.3.4.5,1.1.7l.3.3h0a5.3,5.3,0,0,0-1.1-1.1Zm.5-23.9V21h.1c.5-.2.8-.3.8-.5h-.3A.7.7,0,0,0,294.3,20.8Zm.3,8.4v.4h.3v-.3h-.3Zm.7-11.3h0l.2.2h0c.9-.2,1.3-.4,1.3-.7v-.3l-.3-.3h-.1C295.7,17.2,295.3,17.5,295.3,17.9Zm.8,10.7v.2a47.8,47.8,0,0,0,6.5.5h-1.2c0,.2.5.3,1.6.3s2.6-.1,2.6-.3S302.4,28.8,296.1,28.6Zm.6-2.1v.2a8.5,8.5,0,0,0,4.3.8h1.3v-.3A53.2,53.2,0,0,0,296.7,26.5Zm.2-6.1a8.4,8.4,0,0,1,2.4-1h-.7C297.4,19.4,296.9,19.8,296.9,20.4Zm.9-3.4h.1a14.8,14.8,0,0,0,3.7-.7c.4-.1.5-.2.5-.3h-.2a11.3,11.3,0,0,0-4,.9h-.1Zm.5,27.9h0c0,.2.4.4,1.3.6h.1a3.9,3.9,0,0,0-1.4-.5Zm2.2-26.6h0c0,.2.8.4,2.5.7h.1v-.2a1.9,1.9,0,0,0-1.7-.8h-.2C300.7,18,300.5,18.1,300.5,18.3Zm1.2,27.3v.2h.3v-.2Zm2.4,1.6h-1.6c-.3,0-.5,0-.6.2h0l.2.2h1.2a19.9,19.9,0,0,0,4.5-.6h0c-.1-.2-.3-.3-.8-.3h-.3A5.8,5.8,0,0,0,304.1,47.2ZM303,17.3v.2a6.1,6.1,0,0,0,2.5.4h.1v-.2c0-.1-.3-.2-.8-.3Zm1.2,1.4h0a19.1,19.1,0,0,0,3.8,2h.1l.6-.2h.4l-1-.4-1.3-.5a1.9,1.9,0,0,0-2-1.1h-.2C304.3,18.5,304.2,18.5,304.2,18.7Zm3.6,9.4v.2h.3v-.2Zm.1,1.7c0,.1.4.2,1.1.2h.6q0-.3-1.2-.3C308.1,29.6,307.9,29.7,307.9,29.8Zm0,14.1h.2a1.3,1.3,0,0,0,.5-.7h0C308.1,43.4,307.9,43.6,307.9,43.9Zm.5,2.7c.4,0,.7-.3,1-1h-.2C308.7,46,308.4,46.3,308.4,46.6Zm.6-24.9a.6.6,0,0,0,.6.5h.1v-.6l-.3-.3C309.2,21.3,309,21.4,309,21.7Zm.8,20.2h.2c.4,0,.7-.3.9-.8h0C310.4,41.1,310.1,41.3,309.8,41.9Zm.5-19.4c.4,1.3.8,2.1,1.1,2.2h.3c-.3-1.3-.7-2-1.1-2h-.3Zm1,15.9h.4c.2,0,.4-.1.4-.2l-.2-.3h-.1C311.5,38,311.4,38.1,311.3,38.4Zm.3,5.8h.2q.6-.6.6-.9h-.1A.9.9,0,0,0,311.6,44.2Zm.9-18.8V26a.4.4,0,0,0,.4-.4v-.2h-.5Zm.2,17,.2.2c.6-.2.9-.5.9-.8h0C313.2,41.7,312.8,41.9,312.7,42.4Zm1.5-.6h.2a.7.7,0,0,0,.4-.6h-.2A.7.7,0,0,0,314.2,41.8Zm2.1-.6h-.1c.2.5.4.8.6.8h.1v-.2h0A.7.7,0,0,0,316.3,41.2Z" transform="translate(-0.9 0)" style="fill:#b75326"/><path d="M347,0a7.6,7.6,0,0,1,2.6.7c.1,0,.2.6.2,1.9a1.6,1.6,0,0,1,.7,1c-.2,2-.4,6-.6,12.1a1.5,1.5,0,0,0-.1.6c-.3.2-.5.4-.5.7v.9a8.8,8.8,0,0,1-.6,2.9v.9c0,.2.2.3.6.4v.4c-.6,5.2-.9,8.7-.9,10.3s-.1,2.8-.4,2.8h0c.2,0,.4.3.5.8v.7c0,.7-.3,2.6-.8,5.6v1.5c2.1.4,3.1,1,3.1,1.7l-.3.4V47l.3.4h0c-.3.9-1.4,1.4-3.5,1.4h-.4l-.3-.6h-.6l-1.7.4h-2.3c-.2,0-.4-1-.6-3.1v-2a5.8,5.8,0,0,0-2.5,1.4,24.3,24.3,0,0,1-9,3,14.8,14.8,0,0,1-6.5-3.5,14.6,14.6,0,0,1-1.9-2.9,5.6,5.6,0,0,1-1.1-1.9v-.2h.1a6.9,6.9,0,0,1,1.6,2.1h.4v-.8a5.8,5.8,0,0,0-1.3-3H321c-.3,0-.4.4-.4,1.1h-.3v-.3a28.4,28.4,0,0,1,.3-3.1h.3v.6h.1a.8.8,0,0,0,.3-.7V33.8c-.1,0-.2.2-.2.6l-.4.4-.2-.5a20.4,20.4,0,0,1,3-9.9,24.5,24.5,0,0,1,2.9-4c1.3-1.2,3.4-1.7,6.2-1.7h.6c4.4,0,7.9,1.1,10.7,3.4l.4.2h.2c.4-1.8.8-6.4,1.1-13.8.2-.3.3-.4.5-.4h0a7.5,7.5,0,0,0-2.7-1.3c-.4,0-.6-1.4-.7-4.2l1-.3h0c0-.2-.2-.3-.5-.3s-.3-.3-.3-.5.5-.6,1.4-.6V.5L344,.2h3ZM323,32.8c0,.1.1.2.3.2s.4-.4.6-1.3v-.3h-.2C323.5,31.4,323.3,31.9,323,32.8Zm.7-5.5v.2h.2c.2-.1.4-.5.8-1.5s2.1-2.5,2.5-2.5l.2-.5H327a7.5,7.5,0,0,0-2,1.3A7.3,7.3,0,0,0,323.7,27.3Zm.3,15.8h0c0,.3.6.4,1.9.6v-.2l-1.7-.6Zm.1-7.2v.9c0,.6.7,2.3,2.3,5a8.1,8.1,0,0,0,3.7.9,18.5,18.5,0,0,0,8.3-2c1.1-1.7,2.1-2.5,2.9-2.5s1-2.1,1.5-4.7a5.2,5.2,0,0,0,.5-2.3v-.6c0-1.7-.3-2.6-.7-2.6a6,6,0,0,1-1.4-1.5l.2-.4c0-.2-.6-.4-1.8-.7l-.4-.3h1.1c0-.4-2.3-.7-6.8-.7l-.9-.2c-3.3.3-4.9.7-4.9,1.3a14.3,14.3,0,0,0-3,6.6A16.1,16.1,0,0,0,324.1,35.9Zm1.3,8.3c0,.4,1.3.9,3.7,1.3h.4c0-.3-1.2-.8-3.6-1.3h-.3Zm1-22v.2h.4c1.4-.4,2.2-.8,2.2-1.4a1,1,0,0,0-.7-.2H328C327.4,20.9,326.9,21.3,326.4,22.2Zm2.9,24.4v.2h.9a13.7,13.7,0,0,0,2.9-.4h0l-1.8-.2C329.9,46.2,329.3,46.4,329.3,46.6Zm1.1-26.1v.3l.2.2h.3l.3-.3v-.2l-.2-.2h-.4Zm.1,3h0Zm1.4,19.9v.2h.8q4.1-.3,4.5-1.2v-.2H337C333.9,42.8,332.2,43.1,331.9,43.4Zm.6-20.3h.2Zm1,21.7h.5c1.3,0,1.9-.2,1.9-.4h-1.2Q333.5,44.5,333.5,44.8Zm.4-21.1h.2l1.3-.2H335C334.2,23.4,333.9,23.5,333.9,23.7Zm.4-2.7h2.8c-.2-.3-.8-.4-2-.5h-.6C334.3,20.6,334.3,20.7,334.3,21Zm2.7,2.5.2.3h.3l.2-.2a.6.6,0,0,0-.5-.2H337Zm1.1,19.1v.2h0a1.8,1.8,0,0,0,1-.7v-.2h-.2A1.5,1.5,0,0,0,338.1,42.6Zm.7-21h-.1v.2l1.9.6h.1c0-.4-.3-.7-1-.9Zm.9,1.9.2.2.2-.2h-.4Zm.9.4c0,.1.6.4,1.8.7h.1v-.2a1.3,1.3,0,0,0-1.2-.5Zm1.3,2.4v.5l.3.3h.1c.2,0,.3-.2.3-.4a.6.6,0,0,0-.3-.6h-.2Zm.8,15.8v.3c.3,0,.4.2.4.6h.1l.3-.3v-.5a.8.8,0,0,1-.2-.6h-.2A.5.5,0,0,0,342.7,42.1Zm.1,2.4h.2l.2-.2h-.1Zm1.4-40.1v.2h.4c.3,0,.4,0,.5-.2l-.2-.2h-.6Zm.1-1.5h.8l-.2-.2h-.5Zm1.2,19c0,.3,0,.6.2.6h.1v-.5Zm.4-17.4h.2c1,0,1.4-.1,1.4-.3l-.2-.2h-.8A.6.6,0,0,0,345.9,4.5Zm.1,38v1.3l.2.2h.1v-.8a1,1,0,0,0-.2-.7Zm.2,2.2v.2h.4v-.2Zm1.3,2c0,.1.2.2.6.2h1.6c0-.2-.2-.3-.7-.3S347.5,46.5,347.5,46.7Zm.2-43.2h.2Zm1.3,17h.3v.3H349Z" transform="translate(-0.9 0)" style="fill:#b75326"/><path d="M358.4,39.4a4.9,4.9,0,0,1,2.6,1,2,2,0,0,1,.2,1.1v.8c0,1.7-.9,2.9-2.8,3.7l-.8.4c-.9,0-1.7-.8-2.5-2.4v-.4c0-1.7.3-2.8.9-3.2A5.2,5.2,0,0,1,358.4,39.4Zm-2,2.7c.1,1.1.2,1.6.4,1.6a7.8,7.8,0,0,0,.6-2.1l.2-.4v-.3h-.1C356.7,41.2,356.4,41.6,356.4,42.1Zm.3,2.7c0,.3.1.4.4.5h.6a1.8,1.8,0,0,0,1.3-.6h0Zm1.3-2.3h0c0,.4.1.7.3.7h.1c.2,0,.4-.4.7-1.3v-.3h-.3C358.3,41.6,358,41.9,358,42.5Zm1.9.8h.3v-.6h0C360.1,42.8,360,43,359.9,43.3Z" transform="translate(-0.9 0)" style="fill:#231f20"/></g></g></svg>