<svg xmlns="http://www.w3.org/2000/svg" viewBox="0 0 405.7 61.8"><title>icn_rotator_Asset 43_adj</title><g id="Layer_2" data-name="Layer 2"><g id="Layer_1-2" data-name="Layer 1"><path d="M19.6,12.3a5,5,0,0,0,2.5.9c.8,0,2.5,1,5.1,2.9l.9.2h.3l1.1.6q1.7,1.2,1.8,1.8h0c0,.3-.2.6-.7,1a12.7,12.7,0,0,1-2.5,4v.9a5.9,5.9,0,0,0-1.7.4c-.3,0-.5-.3-.7-.8s-1.8-1.3-1.8-1.8l.7-2c0-.8-1.3-1.3-4-1.7l-4.1-.2a15,15,0,0,0-5.7,1.6c-1.3.7-2.3,2.2-3.1,4.4a12,12,0,0,1-1.4,3.5l-.7-.5A2.6,2.6,0,0,0,5.2,29h0l.8-.4c.2,0,.2.2.3.4l-.4,2.8a28.8,28.8,0,0,1,1.2,3.7l-.3.4v.2c.3.2.4.9.5,2.1s1.6,2.3,3.6,3.3l3.3,2.4a19,19,0,0,0,9.6-2.4Q28,37.9,28,36.7l-.2-.9h0a16.4,16.4,0,0,1,2.7-3,2.9,2.9,0,0,1,1,.9v.2h-.8V34c1.5.2,2.3.6,2.3,1.3a17.1,17.1,0,0,1,2.1,3.9q.3,0,.6,1.5c.5.2.8.4.9.7s-.3.5-.8.6a5.6,5.6,0,0,0-2.6,2l-2.3-2.2L27.5,44a23.6,23.6,0,0,0-3.1,2L18,48.1H17A21.7,21.7,0,0,1,11.1,47c-2.8-1.2-4.3-2.1-4.6-2.8-3.4-4.1-5.2-7.3-5.2-9.6V32.5a26.8,26.8,0,0,0,.5-5.4l1.6-3.9c0-1.2.8-2.6,2.3-4.5s3.2-3.6,6.8-5.2a30.2,30.2,0,0,1,7.2-1.1ZM3.3,31.9v.2a.7.7,0,0,0,.6.7c.2,0,.3-.7.1-2v-.3H3.8C3.6,30.5,3.5,30.9,3.3,31.9Zm2.3-8.1-1,1.9V26l.2.3h.1c.3,0,.6-.7,1-2v-.5ZM5.2,33a1.3,1.3,0,0,0-.3,1,3.1,3.1,0,0,0,.6,1.2c.2.7.5,1,.9,1h0A8.2,8.2,0,0,0,5.3,33ZM5,37.9v.3a.9.9,0,0,0,.8.6,1.2,1.2,0,0,0-.6-.9Zm.3,2.9h0c0,.6.6,1.3,1.9,1.9h.6c0-.5-.7-1.2-2.2-2Zm.2-18.3h.2c.5-.4.7-.7.7-1v-.2H6.3A1.4,1.4,0,0,0,5.5,22.5Zm.9,16.7v.4c.2.3.4.5.7.5h.1v-.2C7,39.5,6.7,39.2,6.4,39.2Zm1-19.1h.2c.6-.4.8-.7.8-1S7.7,19.4,7.4,20.1Zm.2,23.7c.3.6,1.8,1.5,4.4,2.8l1.3.4h.1v-.3c-2.6-1.1-4.2-2-4.8-2.8L8,43.6H7.7C7.6,43.6,7.6,43.6,7.6,43.8ZM8,16.7v.2h.2l.3-.3H8.3Zm1.2-.6,3.2-1.3,2.1-.9c.7-.1,1.1-.3,1.1-.4h0q-2.7,0-6.3,2.4H9.2Zm.4,27.5h0c0,.3.8.7,2.3,1.2l3,1h.7l.2-.2v-.2h-.1a3.1,3.1,0,0,1-2.2-.9l-1-.3h-.1l-.4.3h-.1a5.7,5.7,0,0,1-2-.9Zm.9-25.2h.3l.2-.2-.2-.2ZM12.8,17v.2H13q1.5-.3,1.5-.6l-.2-.2h-.2C13.3,16.7,12.8,16.8,12.8,17Zm2.4-1.3V16l.7.2c2.4,0,3.7-.2,4.1-.7l-1.1-.2A17.1,17.1,0,0,0,15.2,15.7Zm1,1.9h.7c1.4,0,2.1-.2,2.1-.4v-.2h-.7C16.9,17.1,16.2,17.3,16.2,17.6ZM17,47.3h0c0,.3.4.4,1.3.4v-.2h-.1l.3-.2-.3-.3h-.4Zm3.3-30.1h0c0,.1.5.2,1.6.3h0l-1.1-.3Zm.2,27.4h0c.4,0,.7-.1.8-.3h0C20.7,44.4,20.5,44.5,20.5,44.6Zm0-28.9v.2c0,.2.4.3,1.2.4l.2-.2c0-.3-.2-.4-.7-.4Zm.5-1.9h-.1l.2.2h.3v-.3Zm1.2,31.8h.1a6.1,6.1,0,0,0,2.2-1.3h-.1C24,44.2,23.3,44.7,22.2,45.6Zm.3-29.3h0l.2.3h.2v-.2l-.3-.2Zm.6,26.9h.2c1-.4,1.5-.9,1.5-1.3h0q-1.8.8-1.8,1.2Zm2.6-25.3v.3h.2l.2-.2h-.4Zm1.2,22.3H27a2.4,2.4,0,0,0,.8-.9h0C27.4,39.2,27.1,39.5,26.9,40.2Zm2.2-20.7h.4l.3-.3v-.5C29.3,18.8,29.1,19,29.1,19.5Zm1.7,17.6h0c.3.8.6,1.3.8,1.3v-.4C31.5,37.4,31.2,37.1,30.8,37.1Zm1.3-1.3v.3c0,.5.7,2,2.3,4.7h.4l.2-.2a17.6,17.6,0,0,1-1.8-3.9l-.9-1Zm.3,6.3v.5h.4q.3,0,.9-.9h0c0-.1-.3-.3-1-.5S32.4,41.5,32.4,42.1Z" transform="translate(-1.2 0)" style="fill:#b75326"/><path d="M40.8,1.3c5.3.2,7.9.7,7.9,1.5l.4,9a34.9,34.9,0,0,1-1.3,6.3,15.8,15.8,0,0,0-.3,2.6v.4h.2a14.7,14.7,0,0,1,9.4-3.2,16.2,16.2,0,0,1,5.7,1.7,28,28,0,0,1,2.1,2.6,1,1,0,0,1,.5.7v.6c1.2,1,1.8,2.7,1.8,4.9a48.1,48.1,0,0,1,.3,6.1h0c0,.6-.4,2.9-1.1,6.9v1.1h1.2q2.1.1,2.1.6c0,.1-.7.3-2,.4h0c0,.2.5.3,1.4.6l.2.3h0l-1.1.3c.8.2,1.1.5,1.1.8,0,2-.5,3-1.6,3H67c-1.6,0-2.4-.3-2.4-.8a8.7,8.7,0,0,0-2.5-.3l-1.8-.8v-.2a53.5,53.5,0,0,1,.9-7.9,38.4,38.4,0,0,1,1-6.4V30.2l.2-.3a1.9,1.9,0,0,1-.8-1.8A13.5,13.5,0,0,0,60.1,26a9.6,9.6,0,0,0-2.6-.9,8.1,8.1,0,0,0-6.1.3c-2.7,1.8-4,3.1-4,4l-.4,4v4.2q-.3,4.5-.9,4.5v.3h.5l1.1-.4c.9.1,1.4.4,1.4.9l-.4.4v.3l.8.4v.3c-.2,2.1-.5,3.2-.9,3.2h-.2c-.6-.4-2.8-.7-6.6-.8s-4.1-.7-4.1-1.3v-1c-.1-.2.1-.4.4-.9v-.4a3.4,3.4,0,0,1-.8-1.2,10,10,0,0,1,3-.3q.5,0,.6-2.4c.4-.2.6-.9.8-2a1.8,1.8,0,0,0,.4-1h0a3.4,3.4,0,0,0-.8-1.9l.8-1.5c.2,0,.3-4.5.4-13.5l.8-9.1V7.5c0-.9-.2-1.4-.8-1.4h-2l-1.3.4c-.3,0-.4-.5-.4-1.6V4.1c0-1.8.2-2.7.7-2.7Zm-2,42.1v.2h2.6c0-.3-.7-.5-1.9-.5S38.9,43.2,38.8,43.4Zm.7,2h.1a16.7,16.7,0,0,1,3,.8,41.3,41.3,0,0,1,5.4.5h.1l.3-.3h0c0-.4-2-.6-5.9-.6a4.9,4.9,0,0,0-2.5-.6C39.7,45.2,39.5,45.3,39.5,45.4ZM40,3.1v.4h.2V3.2Zm.9-.9v.3A4.1,4.1,0,0,0,43,3V2.8A4.8,4.8,0,0,0,41,2.2Zm.5,1.3h0l.2.2h.8V3.6h-1Zm.3,38q0,.4,2.1.6H44v-.5c0-.1-.2-.2-.5-.2H42.3C41.9,41.3,41.7,41.4,41.7,41.5Zm.1-36.9h0a.5.5,0,0,0,.5.3h.8V4.6H41.8Zm3.1,7.6a4.8,4.8,0,0,0-.3,2.2c.5,0,.8.4.8,1.1h.1a3.5,3.5,0,0,0,.1-1.2v-.8h0l-.3.6h-.2v-.3c.1-.4.1-.5.3-.5h.3A4.1,4.1,0,0,0,44.9,12.2Zm.4-1.6h0l.2.3h.2v-.2l-.2-.3h-.1Zm0-1.9v.4l.2.2.2-.2V8.8l-.2-.3ZM46.2,27v.4h.1c.4,0,.7-.4.9-1.1h.1v-.3h-.1A2.7,2.7,0,0,0,46.2,27Zm.4-24.1a1.2,1.2,0,0,0,.5.5h.1a.6.6,0,0,0,.6-.3V2.9l-.4-.3h-.6Zm.3,25.2h.5c.3,0,.5-.1.5-.2v-.2h-.3Q46.9,27.8,46.9,28.1Zm.2,15.6V44l.3.3h.4l.3-.3h0l-.4-.4h-.6Zm.4-.9V43h.3v-.2Zm1.7-19.3h.2a1.4,1.4,0,0,0,.8-.6H50A1.8,1.8,0,0,0,49.2,23.5ZM51.7,25h.1l.3-.2v-.2h-.2Zm2.6-3.1h0l.2.2H55l-.3-.2Zm.8,2h.3v-.2h-.1Zm.9-.8v.3a4.9,4.9,0,0,0,1.7.6l.2-.2c0-.3-.5-.5-1.5-.8Zm1.7-4.6h0l.8.4h0c0-.2-.3-.3-.7-.4Zm2.2,6.1h0a.5.5,0,0,0,.6.6h0A.5.5,0,0,0,59.9,24.6Zm1,21.6v.2a.9.9,0,0,0,.8.4h.6v-.2c0-.2-.2-.3-.7-.4Zm.2-26.3h0c.1.4.4.5.8.5v-.2A.9.9,0,0,0,61.1,19.9Zm.1,25.6h.3v-.2l-.2-.2Zm.2-.9H64a3.5,3.5,0,0,0-2-.4.7.7,0,0,0-.7.5Zm.7-20.9v.2a9.3,9.3,0,0,1,1.8,2.8c.2.3.3.4.5.4v-.4c0-.8-.6-1.8-1.8-2.9h-.5Zm.4,18.8v.3h.6v-.7A.7.7,0,0,0,62.5,42.5Zm1.1-16.8v.2l-.5,1.3h.1l-.3-.4ZM65,39.8h.2c.3,0,.7-1.5,1.1-4.6,0-.5-.1-.7-.4-.8h-.2C65.4,34.4,65.2,36.2,65,39.8Zm.5-14.3h0l.4.3H66l.2-.2-.4-.4h-.1Zm.4,7.9.2.2h.2v-.2h-.4Z" transform="translate(-1.2 0)" style="fill:#b75326"/><path d="M73.4,14.8a1.6,1.6,0,0,0,1.2.4l.8-.3c5.6,0,8.4.1,8.4.5v1.4a6.9,6.9,0,0,1,.5,2.4v1c-.5,5.7-.8,11.1-1,16.3a3.9,3.9,0,0,0-.2,1.3c0,.2.2.3.5.3H84c2.2,0,3.3.2,3.3.7h-.1v.4a11.3,11.3,0,0,1,.7,4.7l.2,2.5h-9c-4.6,0-7-.3-7-1.1a3.5,3.5,0,0,0-.3-1.3,1.3,1.3,0,0,1,.6-.7h.2a.6.6,0,0,0,.5.2h.2a30.7,30.7,0,0,0,4.2-.3h0c-3.5-.2-5.2-.5-5.2-.8V41.3L72,39.8c0-.5,1.6-.7,4.7-.7q.6,0,.6-2.7L78,20.1h-.1c-1.5,0-2-.1-1.6-.4q-3.6,0-3.6-.9c-.2,0-.3-.2-.3-.5l.3-.7a.7.7,0,0,0-.4-.6h0c.4-.3.6-.9.8-2h.3Zm.1,26.5h0c.3.4,1.6.6,3.8.6h.4q.6,0,.6-.3h0l-4.4-.3Zm.7-25.2v.2h.3c1,0,1.6-.1,1.6-.3h-.3C74.7,15.9,74.2,15.9,74.2,16.1Zm.2.9h0c0,.1.3.2.8.2h2.9c.7,0,1-.1,1-.2h0c0-.3-1.2-.3-3.6-.1ZM81.7,2.7a4,4,0,0,1,3.4,2.2L85.5,7a9.4,9.4,0,0,1-1.3,3,3.7,3.7,0,0,1-2.5.8q-3.9,0-4.8-1.2A4.6,4.6,0,0,1,76,6.2c-.2,0-.2-.1-.2-.2h0C77,4,78.3,3,79.6,3ZM78.3,4.6h0a5.3,5.3,0,0,0,2.1-.5l-.3-.2C78.9,4.1,78.3,4.3,78.3,4.6Zm.4,29.7c0,.3.1.5.2.5s.2-.2.2-.6v-1a9.2,9.2,0,0,0,.6-2.4V29.5c.3-.1.4-.3.4-.4a3.9,3.9,0,0,1-.3-1.4h0q.3,0,.6-6.9c-.1-.4-.2-.5-.3-.5h-.1c-.6,0-.9,2-1,6.1ZM80,43.6h-.9v.2h2.7v-.2H80ZM79.5,6.3h.4c.5,0,.8-.1.9-.5H80a.6.6,0,0,0-.6.5ZM79.7,42l.2.2H80c.4,0,.5-.2.5-.6h-.3C79.9,41.6,79.7,41.7,79.7,42Zm.6-4.1v.3h.2l.3-.2h0l-.2-.2h-.1Zm.1-1.1v.4h.1c.2-.1.3-.3.3-.8V36h-.1C80.5,36,80.4,36.2,80.4,36.8Zm0-19.9v.2c.3,0,.6.2,1.1.6h.1a.2.2,0,0,0,.2-.2h.1q.1,0,.3.6h.1l.9-.7v-.3H80.4Zm.4,3.5.3,1-.4,1c.1.5.3.7.4.7h.1v-.8c0-1.5.3-2.3.7-2.3l.2-.2v-.3h-.5C81,19.4,80.8,19.8,80.8,20.4Zm.5,10.5a13.2,13.2,0,0,0-.5,3.5h0c.2,0,.5-.9.8-2.6v-.9ZM80.8,9.1v.2h1.1l.2-.2H80.8ZM81.6,21v.3a.5.5,0,0,0,.3.5h.2l.2-.2v-.3a.8.8,0,0,0-.4-.4Zm.8-13.2V8h.2a.7.7,0,0,0,.7-.4V7.4h-.1A.9.9,0,0,0,82.4,7.8Zm0,8,.2.2h.1v-.2l-.2-.2Zm1.2-9.7v.2h.1l.3-.2V5.8h-.1ZM85,41.9c0,.5.4.8,1,.8h.3v-.2l-.2-.2.6-.3v-.4a.5.5,0,0,0-.3-.5h-.3c-.1,0-.2.2-.4.6Zm.3-2.7a2.8,2.8,0,0,0,1.3.4v-.2c0-.1-.3-.2-.8-.3h-.5Zm0,4.2h.1l.2-.2h-.1Zm1.5,2.5h.5v-.2h-.1Z" transform="translate(-1.2 0)" style="fill:#b75326"/><path d="M108.8,12.3a5,5,0,0,0,2.5.9c.8,0,2.5,1,5.1,2.9l.9.2h.3l1.1.6q1.6,1.2,1.8,1.8h0c0,.3-.2.6-.7,1a12.7,12.7,0,0,1-2.5,4v.9a5.9,5.9,0,0,0-1.7.4c-.3,0-.5-.3-.7-.8s-1.8-1.3-1.8-1.8l.7-2c0-.8-1.3-1.3-4-1.7l-4.1-.2a15,15,0,0,0-5.7,1.6c-1.3.7-2.3,2.2-3.1,4.4a12,12,0,0,1-1.4,3.5l-.7-.5a2,2,0,0,0-.4,1.4h0l.8-.4c.2,0,.2.2.3.4l-.4,2.8a28.8,28.8,0,0,1,1.2,3.7l-.3.4v.2c.3.2.4.9.5,2.1s1.6,2.3,3.6,3.3l3.3,2.4a19,19,0,0,0,9.6-2.4q4.2-3.6,4.2-4.8l-.2-.9h0a16.4,16.4,0,0,1,2.7-3,2.9,2.9,0,0,1,1,.9v.2h-.8V34c1.5.2,2.3.6,2.3,1.3a17.1,17.1,0,0,1,2.1,3.9q.3,0,.6,1.5c.5.2.8.4.9.7s-.3.5-.8.6a5.6,5.6,0,0,0-2.6,2l-2.3-2.2L116.7,44a23.6,23.6,0,0,0-3.1,2l-6.4,2.1h-1a21.7,21.7,0,0,1-5.9-1.2c-2.8-1.2-4.3-2.1-4.6-2.8-3.4-4.1-5.2-7.3-5.2-9.6V32.5a26.8,26.8,0,0,0,.5-5.4l1.6-3.9c0-1.2.8-2.6,2.3-4.5s3.2-3.6,6.8-5.2a30.2,30.2,0,0,1,7.2-1.1ZM92.5,31.9v.2a.7.7,0,0,0,.6.7c.2,0,.3-.7.1-2v-.3H93C92.8,30.5,92.7,30.9,92.5,31.9Zm2.3-8.1-1,1.9V26l.2.3h.1c.3,0,.6-.7,1-2v-.5ZM94.4,33a1.3,1.3,0,0,0-.3,1,3.1,3.1,0,0,0,.6,1.2c.2.7.5,1,.9,1h0A8.2,8.2,0,0,0,94.5,33Zm-.2,4.9v.3a.9.9,0,0,0,.8.6,1.2,1.2,0,0,0-.6-.9Zm.3,2.9h0c0,.6.6,1.3,1.9,1.9H97c0-.5-.7-1.2-2.2-2Zm.2-18.3h.2c.5-.4.7-.7.7-1v-.2h-.1A1.4,1.4,0,0,0,94.7,22.5Zm.9,16.7v.4c.2.3.4.5.7.5h.1v-.2C96.2,39.5,95.9,39.2,95.6,39.2Zm1-19.1h.2c.6-.4.8-.7.8-1S96.9,19.4,96.6,20.1Zm.2,23.7c.3.6,1.8,1.5,4.4,2.8l1.3.4h.1v-.3c-2.6-1.1-4.2-2-4.8-2.8l-.6-.3h-.3C96.8,43.6,96.8,43.6,96.8,43.8Zm.4-27.1v.2h.2l.3-.3h-.2Zm1.2-.6,3.2-1.3,2.1-.9c.7-.1,1.1-.3,1.1-.4h0q-2.7,0-6.3,2.4h-.1Zm.4,27.5h0c0,.3.8.7,2.3,1.2l3,1h.7l.2-.2v-.2h-.1a3.1,3.1,0,0,1-2.2-.9l-1.1-.3h0l-.4.3h-.1a5.7,5.7,0,0,1-2-.9Zm.9-25.2h.3l.2-.2-.2-.2ZM102,17v.2h.2q1.5-.3,1.5-.6l-.2-.2h-.2C102.5,16.7,102,16.8,102,17Zm2.4-1.3V16l.7.2c2.4,0,3.7-.2,4.1-.7l-1.1-.2A17.1,17.1,0,0,0,104.4,15.7Zm1,1.9h.7c1.4,0,2.1-.2,2.1-.4v-.2h-.7C106.1,17.1,105.4,17.3,105.4,17.6Zm.8,29.7h0c0,.3.4.4,1.3.4v-.2h-.1l.3-.2-.3-.3H107Zm3.3-30.1h0c0,.1.5.2,1.6.3h0l-1.1-.3Zm.2,27.4h0c.4,0,.7-.1.8-.3h0C109.9,44.4,109.7,44.5,109.7,44.6Zm0-28.9v.2c0,.2.4.3,1.2.4l.2-.2c0-.3-.2-.4-.7-.4Zm.5-1.9h-.1l.2.2h.3v-.3Zm1.2,31.8h.1a6.1,6.1,0,0,0,2.2-1.3h-.1C113.2,44.2,112.5,44.7,111.4,45.6Zm.3-29.3h0l.2.3h.2v-.2l-.3-.2Zm.6,26.9h.2c1-.4,1.5-.9,1.5-1.3h0q-1.8.8-1.8,1.2Zm2.6-25.3v.3h.2l.2-.2h-.4Zm1.2,22.3h.1a2.4,2.4,0,0,0,.8-.9h0C116.6,39.2,116.3,39.5,116.1,40.2Zm2.2-20.7h.4l.3-.3v-.5C118.5,18.8,118.3,19,118.3,19.5ZM120,37.1h0c.3.8.6,1.3.8,1.3v-.4C120.7,37.4,120.4,37.1,120,37.1Zm1.3-1.3v.3c0,.5.7,2,2.3,4.7h.4v-.2a24,24,0,0,1-1.7-3.9l-.9-1Zm.3,6.3v.5h.4q.3,0,.9-.9h0c0-.1-.3-.3-1-.5S121.6,41.5,121.6,42.1Z" transform="translate(-1.2 0)" style="fill:#b75326"/><path d="M124.4,0h.5c3.6.4,5.8.9,6.4,1.5s.6.8.8,2.4l-.3.6v.2c.4.6.7,3.1.9,7.7,0,8.4.2,13.7.7,15.9h.3c2.1-1.7,5.5-4.2,10.2-7.4.5,0,.8-1.9,1-5.5,0-.9.4-1.4,1.2-1.4h2.5c3.7,0,5.9.4,6.7,1.2h0l-.2.3a5.4,5.4,0,0,0-1.8-.4h-.1c0,.3.6.5,1.8.7s.5.9.5,2.8-.4,1.2-1,1.2-.5.3-.9.8h-1.7c0,.5-.4,1-1.4,1.4s-.2.1-.2.3l.2.4-5.9,4.1v.2c0,.3,2,4.5,6,12.5a15.6,15.6,0,0,1,1.1,2.8h-.3l-.4-.4h-.2c0,.5.8.7,2.4.7s4.1.3,4.1.8l-.5.6a7.3,7.3,0,0,1,.8,4,.8.8,0,0,1-.9.9h-.5a53.2,53.2,0,0,0-7.2-.3h-.4c-.5,0-.9-.6-1.1-1.9a27.3,27.3,0,0,0-1.3-5.9c-.6-1.5-2-4.4-4.1-8.5-.7-2.1-1.2-3.1-1.6-3.1s-1.8.6-3.4,1.8a1.6,1.6,0,0,1-1.1.7c-.2,0-.3-.1-.3-.2h0v-.4h-.4c-.2,0-.4.6-.8,1.7v.4a1.2,1.2,0,0,0-.5,1v6.7c0,.5.9.8,2.7,1a6.7,6.7,0,0,0,1.9.9l.3.6v1.6l.2.8v.2a2.1,2.1,0,0,1-1,.8h-.4v.2c0,.3.3.5.9.7h0c0,.2-.3.3-.8.4l-2.9-.8a57.7,57.7,0,0,1-7.7-.7l-.9.2c-.5-.3-.8-.9-.8-2v-.3h-.1a2.1,2.1,0,0,1,1-1.8h.2v1l.2.3h.8l-.2-.3v-.2h1.1l-.7-.8h.8v-.2c0-.1-.2-.2-.6-.2h-1.6c0-.3,1-.6,2.8-.9l2.1-.4.2-.2h-.8c-.4,0-.5-1.8-.5-5.3a45.7,45.7,0,0,0-1.2-8.8c-.2-10.1-.6-16.3-1-18.4,0-.1-.7-.3-2.2-.4l-1.8.5a4,4,0,0,1-.7-1.2v-4q.2-.9.3-.9h.6a1.5,1.5,0,0,0-.5-1V1c.4-.1.5-.1.5-.3L124,.3V0Zm1.5,4.6h0c0,.2.3.4.9.5v.2q-1.2,0-1.2.3v.3h.8a1.4,1.4,0,0,0,1.4-1l.3-.4q0-.3-1.5-.3h-.3C126,4.4,125.9,4.4,125.9,4.6Zm1.5,40.3h3.4c1.3,0,1.9-.1,1.9-.3h0l-1.3-.2Zm1.8,1.2,6.7.9v-.2c0-.6-1.3-.8-3.8-.8h-2.9Zm.6-42.6v.2c.2.4.4.6.7.6a1.5,1.5,0,0,0,.4-1.1h-.2A1.3,1.3,0,0,0,129.8,3.5Zm1,6.5-.2.3v1.2q0,1.5.3,1.5h.1l.2-.2v-.9C131.1,10.6,131,10,130.8,10Zm-.2,9v.3h.2l.2-.2-.2-.2Zm1.3,25.2v.2h.3l-.2-.2Zm.2-14.7h.3v-.2h-.1Zm0,5.3v.9h.1a.5.5,0,0,0,.6-.6v-1l-.2-.2h-.1A.8.8,0,0,0,132.1,34.8Zm.1-2.4V33h.3c.2-.1.3-.3.3-.7h0a7.8,7.8,0,0,0-.2-1.4h-.1Q132.2,30.9,132.2,32.4Zm0,8.5.3.3h.1a.5.5,0,0,0,.3-.5c-.1-.3-.1-.4-.3-.4A.5.5,0,0,0,132.2,40.9Zm.4-3.7v1h.1a.8.8,0,0,0,.2-.6v-.4Zm1.4-8v.2h.2a1.7,1.7,0,0,0,1.3-.7v-.3A2.2,2.2,0,0,0,134,29.2Zm0,15.2h.3l-.2-.2Zm.4,1.2h0l1,.2h.4c0-.1-.4-.2-1.2-.2Zm1.7-1.4a1.3,1.3,0,0,0,1.3.8h0l.2-.2a1.7,1.7,0,0,0-.6-.9h-.3A.6.6,0,0,0,136.1,44.2Zm.4-13.6h.1a6.4,6.4,0,0,0,2.2-1.3h0C137.2,30,136.5,30.4,136.5,30.6Zm0,16.2V47h.7c0-.2-.2-.3-.4-.3Zm1.7-3.3h0l.2.2h.1v-.2h-.3Zm3.2-14.4c.4.8.7,1.2,1,1.2h0c-.1-.9-.4-1.4-.8-1.4S141.4,28.9,141.4,29.1Zm2.2,3.3h0a24.4,24.4,0,0,0,2.2,5.2h.3v-.2c0-.9-.8-2.6-2.3-5Zm1-7.7v.2h.1a18.2,18.2,0,0,0,5.8-3.6v-.2h-.1A16.8,16.8,0,0,0,144.6,24.7Zm.1-2.6h.1l1.8-1.1c.5-.1.7-.3.7-.4v-.3H147c-.6,0-1.3.6-2.3,1.7Zm.6-2.9.2.2h.1a.6.6,0,0,0,.6-.3h-.3C145.6,19,145.3,19,145.3,19.2Zm.2-1.4c.1.5.2.8.3.8h.4c.2,0,.2-.1.2-.3l-.3-.7.3-1.1v-.2h-.1A1.4,1.4,0,0,0,145.5,17.8Zm.8,20.5h0a5.3,5.3,0,0,0,1.1,2h.2a5.2,5.2,0,0,0-1.1-2.1h-.2Zm.3-24h0l.2.2h.2l.2-.2h-.6Zm.3,20.3v.2l.2.2h.1v-.2l-.2-.2Zm1.9,7.8h0l.3.3h.4l.3-.3h0a.6.6,0,0,0-.6-.3C149,42.2,148.8,42.3,148.8,42.4Zm2.3-24.1,2.1.3.6-.3v-.2h-1.6C151.5,18,151.1,18.1,151.1,18.3ZM152,48h.7A1,1,0,0,0,152,48Zm.4-3,.3.2h.3l.2-.2-.2-.2h-.4Zm1.2.1h0l.3.2h.3v-.3Zm2.7-1v.3h.3v-.3h-.3Zm.1,1.9v1.1h.1c.2,0,.2-.4.2-1.2v-.5h0A.6.6,0,0,0,156.4,46Z" transform="translate(-1.2 0)" style="fill:#b75326"/><path d="M165.1,39.4a5.7,5.7,0,0,1,2.7,1,3.6,3.6,0,0,1,.2,1.1v.8c0,1.7-1,2.9-2.9,3.7l-.8.4q-1.2,0-2.4-2.4v-.4c0-1.7.2-2.8.8-3.2A6.2,6.2,0,0,1,165.1,39.4Zm-2,2.7c.1,1.1.3,1.6.4,1.6s.4-.8.6-2.1l.2-.4v-.3h0Q163.1,41.4,163.1,42.1Zm.3,2.7c0,.3.1.4.4.5h.7a1.4,1.4,0,0,0,1.2-.6h0Zm1.3-2.3h0c0,.4.2.7.4.7h0c.2,0,.5-.4.7-1.3v-.3h-.3C165,41.6,164.8,41.9,164.7,42.5Zm1.9.8h.3v-.6h-.1C166.8,42.8,166.7,43,166.6,43.3Z" transform="translate(-1.2 0)" style="fill:#231f20"/><path d="M201.4,15.1c.5.1.7.2.7.3l-.2.4h3.3c3.6,0,5.9.9,7.1,2.7l1.6,2.2h.2c.4,0,2.7-1.1,7-3.3a3.3,3.3,0,0,1,1.4-.4,9.3,9.3,0,0,1,5.3,1.9c3.5,2.8,5.2,5.2,5.2,7s1,5,2,12.7v1.7c0,.4,0,.6.2.6h.2a5.1,5.1,0,0,0,2-.5c.7,0,1.1,1.2,1.1,3.6s.1,2,.1,2.8h-.9a31.7,31.7,0,0,1-4.6.5l-1.9-.2H227c-.1,0-.2-.2-.2-.5l-.8-.8h0l.2-.6h0l-.3-1.7v-.8c0-.5.4-.8,1.3-.8s2-.4,1.8-1.7a34.7,34.7,0,0,1,.4-7.2h0l-.2-3.7c0-.7-.5-1.4-1.6-2.3h-1l-.4.3c-.1,0-.2-.2-.2-.7s-2.4-1.8-4.6-1.8-4.2,1-4.7,2.4a8.5,8.5,0,0,0-.3,2.9v7.7c0,1.9.5,2.9,1.5,3.2s.7.2.7.4a14.9,14.9,0,0,1-.9,3.4l-1.5.3-5.3-.4h-.6c-.7,0-1.1-1-1.1-3.2v-.2c0-.2.7-.5,1.9-.9a.5.5,0,0,0,.5-.5,16.9,16.9,0,0,1-.3-3.5V29.5a12.2,12.2,0,0,1-.3-2.2c0-1.1.1-1.6.3-1.6h.1l.5.3h.1q0-1.3-4.2-3.9a6.4,6.4,0,0,0-2.2-.4,7.4,7.4,0,0,0-3.9,1.5v5.3l.2,13,.3.2h.2c.1,0,.2-.1.3-.4h.1c1.1,0,1.7.3,2,.8v2c.1,1.7-.4,2.6-1.3,2.6a18.4,18.4,0,0,1-3.4.2l-8-.5c-.4,0-.8-1.3-1.1-3.7v-.2q0-.4,2.4-1.2c0-.3.9-.6,2.5-.8a.6.6,0,0,0,.5-.6l.4-14.5V21.9c0-.4-.4-.5-1.2-.5l-2.9.3c-.7-.4-1-.8-1-1.2a1.2,1.2,0,0,0,.5-1V19c-.2-1.1-.4-1.6-.7-1.6h-.1c.3-.1.5-.5.8-1.1C195,15.7,197.9,15.4,201.4,15.1Zm-8.7,27.1a1.6,1.6,0,0,1-.5,1.1q.5,2.1.9,2.1h.2l-.4-3.1h-.2Zm.4-22.6c0,.4.4.7,1.1.7a6,6,0,0,0,3-1h-.3C194.4,19.1,193.1,19.3,193.1,19.6Zm.2-1.7v.3h.2c1.6,0,2.5-.1,2.5-.3h-2.7Zm.5,24.1v.8h.1a2,2,0,0,1,1.2-.8v-.3H194C193.9,41.6,193.8,41.7,193.8,42Zm.3,2v.6h.2v-.4l-.2-.2Zm.8-.3q0,.8,2.1.3c.3.3.5.4.7.4l3.2-.3v-.2l-3-.2h0l.9-.2h1.9c-.4.4-2.1.5-5,.3l-.4-.2h-.2Zm.8-27.2.2.2c.9-.1,1.3-.2,1.3-.3h-.3C196.1,16.3,195.7,16.4,195.7,16.5Zm1,25.9v.3H198v-.3h-1.3Zm.8-2.7c0,.7.1,1,.3,1h.1c.5,0,.8-.3.9-1Zm.8-20.9h.2v-.2h-.1Zm.5,2v3.1a5.7,5.7,0,0,1-.3,1.8l.4.7-.2.9v.6l.2.2h0c.3,0,.5-2.2.6-6.7h0a1.1,1.1,0,0,0-.5-1A.8.8,0,0,0,198.8,20.8Zm.1,7.6v.4h.2v-.3l-.2-.2Zm.8,11.6h0c0,.9.3,1.3.8,1.3h.3c.1,0,.1-.1.1-.3Zm.6-22.8h0l.2.2h.1l.2-.2v-.2h-.4Zm.2,5.9a11.5,11.5,0,0,0-.2,2.1v1.2h.1c.3,0,.4-.6.4-1.7v-.5c0-.7-.1-1.1-.3-1.1Zm-.1-7h0l.2.2c.4,0,.5-.1.5-.4h-.5Zm0,12v.3l.3.4h.1v-.5l-.3-.4h0Zm.5,15.1v.2H203v-.2h-2.1Zm.5,2.2h.2a1.6,1.6,0,0,0,.8-.6h0A1.6,1.6,0,0,0,201.4,45.4Zm.2-26.6-.2.2.2.2h.1V19h-.2Zm-.1,1.9h.3c.5-.1.8-.2.8-.3v-.2h-.5C201.7,20.4,201.5,20.5,201.5,20.7Zm.2-3.5h.2l4-.7h-1.8q-2.4,0-2.4.6Zm0,26.6c0,.3.3.5,1.1.6l.3-.3v-.2q0-.3-1.2-.3Zm1.4-1.8v.3h.4l.2-.3h-.6Zm.3-23.1h0l3.1-.3a3.9,3.9,0,0,1,2.8,1.2h.2v-.3q-.3-1.2-1.2-1.2h-.6C204.9,18.3,203.4,18.5,203.4,18.9Zm1.5,1,1.7.5a4.3,4.3,0,0,0,2.1.7h0l.2-.2a4.5,4.5,0,0,0-3.2-1.3h-.4C205,19.7,204.9,19.7,204.9,19.9Zm3-2.8v.2a5.4,5.4,0,0,0,1.8.4h0v-.2c0-.2-.5-.3-1.5-.4Zm2,2.8c0,.3.2.5.6.5h0a.7.7,0,0,0-.4-.6Zm.9-.5v.2c.4.6.7,1,1,1.1h.1a2.4,2.4,0,0,0-1-1.3Zm.2,1.5h0c0,.4.4.8,1.1,1h0v-.6c0-.1-.3-.3-1-.5Zm1.6,10.6v3.9h.3a6.1,6.1,0,0,0,.2-1.5h0c0-1.6-.2-2.3-.4-2.3Zm.2-7.5c0,.3.1.5.5.5h.1v-.2a.5.5,0,0,0-.5-.3Zm.1,19.4h.8l-.2-.2h-.4Zm1.3-2.6.2.2h.4l.3-.3h0l-.2-.2h-.4Zm.4-19.1v.6l.2.2a3.1,3.1,0,0,0,2-1.1h-1.6A.6.6,0,0,0,214.6,21.7Zm0,3.5v.3c0,.3.1.4.2.4h.1l.4-.3h0C215.2,25.3,215,25.2,214.6,25.2Zm0,14.2v.2h.2v-.4h-.1Zm2.5-18.8h.4q.9-.1.9-.6h-.2C217.6,20.2,217.2,20.4,217.1,20.6Zm1.8-.7h.1a5.6,5.6,0,0,0,2-1.4v-.2C219.6,18.7,218.9,19.2,218.9,19.9Zm3.5.8v.2a.5.5,0,0,0,.4.3q2.5,0,2.7-.3c-.1-.4-.8-.6-2-.6h-.1C222.8,20.3,222.5,20.5,222.4,20.7Zm.9-1.9h0q0,.3.6.3h.3V19c0-.1-.3-.2-.6-.2Zm.2-.6,1.1.4a1.7,1.7,0,0,0,1.3.8h1.3v-.2c0-.4-1.1-.8-3.2-1.3h-.1C223.7,17.9,223.6,18,223.5,18.2Zm1.5,4.9a3.6,3.6,0,0,0,2.5,1.5h.2v-.3a4.3,4.3,0,0,0-1.4-1.2H225Zm3.2-1.4v.4a3.9,3.9,0,0,0,1.2,1.4v.3h.4c0-.6-.4-1.2-1.4-2Zm.2,22.4v.2h1.7c.4,0,.6-.1.7-.3a.5.5,0,0,0-.5-.3h-1Zm1.2-18.8v.2c.3,1.1.6,1.6.9,1.6h0a2.9,2.9,0,0,0-.8-1.7Zm.8,6.9v.2l.2,2.4V35l.2.2h.1l.3-.3V32.5l-.3-.3Zm.1,5.5v.4h.2v-.6h-.1Zm.1-9.7.7,1.2h.2v-1a.6.6,0,0,0-.2-.5h-.6C230.7,27.7,230.6,27.8,230.6,28Zm.1,11.5h0l.2.3.2-.3h0l-.2-.2Zm.2,3.7v.2h.8c1.2,0,1.8-.1,1.8-.4h-.4C231.6,42.9,230.9,43,230.9,43.2Zm1.7-2.1h0l.3.2h.1l.4-.3v-.4l-.2-.2H233A.7.7,0,0,0,232.6,41.1Zm1.7,2.1h.3c.3,0,.5,0,.5-.2h0c0-.2,0-.4-.2-.4S234.5,42.7,234.3,43.2Zm1.9-1.1v.7l.2.2c.1,0,.2-.3.2-.9v-.2h-.1Z" transform="translate(-1.2 0)" style="fill:#b75326"/><path d="M254,13a18,18,0,0,1,4.1.9,17.6,17.6,0,0,1,4.3,5.2q1.2,1.3,2.1,5.7c.7.6,1,2.1,1,4.4v1.5l-.2,6.1c0,1.2.7,2.7,2.2,4.6s2.3,2,2.8,2h0c0,.5-.8,1.3-2.2,2.4s-1.8,1.6-2.1,1.6h0c-.6-.1-2.3-1.3-5-3.7l-7.3,3a23.6,23.6,0,0,1-5.5.7H248a12.4,12.4,0,0,1-5.7-2.6,34,34,0,0,1-1.7-3.1,4.9,4.9,0,0,1-1.2-3.4V36.7a6,6,0,0,1,1-3.2,13.1,13.1,0,0,1,2.8-4.8,5.4,5.4,0,0,1,1.9-1.6,14.1,14.1,0,0,1,6.4-1.6h3.1a5.7,5.7,0,0,1,3.4.7h.3a.3.3,0,0,0,.3-.3,18.6,18.6,0,0,0-2.2-5.6c-.9-1.5-2.5-2.3-5-2.3l-2.5-.3c-2.2.4-3.3.9-3.3,1.4a8,8,0,0,0-1.6,4.1c-.1.2-.8.3-2.2.3h-.4c-.1,0-.3.4-.6,1.1s-1.8-.4-1.8-.7a17.5,17.5,0,0,0,.5-4.5,10.8,10.8,0,0,1,4.7-5.2,10.3,10.3,0,0,1,2.1-1.1Zm-12.2,8.7v.9h.1c.1,0,.2-.2.2-.4v-.5l-.2-.2Zm.7-4.6h.1c.3,0,.9-.4,1.6-1.2v-.2h-.1c-.4,0-.9.5-1.6,1.3Zm.8,24.8h.4l-.2-.3h-.1Zm.1,3.3h0c.2.4,1.3.9,3.1,1.4a6.2,6.2,0,0,0,2.5.5h0c0-.2-.8-.4-2.4-.7a14.3,14.3,0,0,1-2.8-1.3h-.2Zm.8-15.9v.3h.1a.8.8,0,0,0,.7-.4V29h-.1Zm0,5.6c.3,2.5.6,3.7,1,3.7l.7.8h-.6v.2a13.2,13.2,0,0,0,4.8,3l1.3.3c.8,0,3.6-1.2,8.5-3.6.3-.2.5-.4.5-.7v-.3a43.4,43.4,0,0,1-.9-5.9h-.1c0-.4-.5-.8-1.4-1.1a25.8,25.8,0,0,0-6.2-1.3c-3.1.7-5.3,1.8-6.5,3.1A3.5,3.5,0,0,0,244.2,34.9ZM248,15h0c.1.2.3.3.7.3a3.7,3.7,0,0,0,1.5-.4v-.2h-.3Zm2.1,29.3a.6.6,0,0,0,.6.3c.4,0,.6-.2.6-.3h0l-.2-.2h-.8Zm.6-27.5.3.3h.9l-.3-.3h-.5Zm2.4-2.4.2.2h.5l-.3-.3h-.3Zm2.1,29h.3a4.9,4.9,0,0,0,2.3-.7h-.2A5.5,5.5,0,0,0,255.2,43.4Zm2.6-28.7h0a1.1,1.1,0,0,0,.9.5h0v-.2a.9.9,0,0,0-.8-.4Zm3,21.2v.3l.2.2h.1l.2-.2v-.3l-.2-.2h-.2Zm.1-2.1.2.2h.2v-.2l-.2-.2h0Zm1.8-3V31h0Zm0,1.3v.2h.3v-.2Zm.1-3.3V29c.2.6.4.9.5.9h.1a1.6,1.6,0,0,0-.4-1.2h-.2Zm.3,5h0c.1,1.5.2,2.3.5,2.3V36h0a4.8,4.8,0,0,0-.4-2.2Zm.9,8.9c.2.3.3.5.5.6h.1l.2-.3h0l-.3-.3H264Zm.4-16.2h0c0,.3.1.5.2.5v-.3q-.1-.3-.3-.3Zm1.1,17.3V44l.2.2h.3V44h0l-.3-.4h-.2Zm.5-2.2V42c.1.5.3.7.5.7h.2c-.2-.7-.4-1-.6-1Z" transform="translate(-1.2 0)" style="fill:#b75326"/><path d="M284.5,14.3h2a17.3,17.3,0,0,1,4.8,1.3,9.6,9.6,0,0,1,4,1.6h.3c.4,0,1.4-.8,2.9-2.5.4,0,1,.6,1.9,1.7a4.7,4.7,0,0,1,1.4,1.2v.2c-2.4,2.5-3.5,3.9-3.5,4.2-1.1,3.7-1.8,5.8-2.2,6.3a8.5,8.5,0,0,1-3.3,2.1c-1.8,1.8-3.5,2.8-4.9,2.8H286l-4-.4h-.8c-.2,0-.7,1.4-1.3,4.1l.5.2h.2a4.3,4.3,0,0,0,2.1-.8h4a33.2,33.2,0,0,1,9.7,1.1l2.7,1.4,2.2,1.5a8.9,8.9,0,0,1,3,3.8,16.4,16.4,0,0,1,2.2,7.3q0,2.3-3.6,5.7l-3.7,2.7a13.4,13.4,0,0,1-7.1,1.9l-1.7.2c-7.3,0-12.3-1.5-14.8-4.5a4.9,4.9,0,0,1-2.9-4.4,10.9,10.9,0,0,1-1.1-5.2l-.2-1.4.2-.8h.2c.2,1,.3,1.4.6,1.4h.1a38.8,38.8,0,0,1,1.4-5.2h-.1A13.5,13.5,0,0,0,272,45h-.1c-.1,0-.2-.3-.3-.7a12.9,12.9,0,0,1,2.3-4.3,11.6,11.6,0,0,0,2.4-2.6c.4-3.4.7-5.6.9-6.3a12.7,12.7,0,0,1-1.6-5.1V25a14.4,14.4,0,0,1,.8-3.9l2.6-3.3C281.1,15.5,283,14.3,284.5,14.3ZM272.2,49.2v.4l.2.3h.1v-.7h-.3Zm.3,1.1h0c.1.3.1.5.3.5h.1v-.2l-.3-.3Zm1.9-5.4v.3h.1c.2,0,.4-.6.7-1.9h-.1A2.3,2.3,0,0,0,274.4,44.9Zm.6-3.6v.2h.2c1-.2,1.5-.6,1.5-1v-.4l-.2-.2A4.2,4.2,0,0,0,275,41.3Zm0,13.2c.1.3.2.4.3.4l.3-.3c0-.1-.1-.3-.4-.4Zm.7-5v1.3c.1.8.2,1.2.4,1.2h0c.2,0,.3-.1.3-.4v-.8q0-1.5-.3-1.5h-.1Zm.4-6.2v.3h.2l.4-.4V43A.6.6,0,0,0,276.1,43.3Zm.1-19a3.3,3.3,0,0,0,.6,2.1h.2a.2.2,0,0,0,.2-.2c-.1-1.7-.4-2.6-.6-2.6S276.3,23.8,276.2,24.3Zm10.4,17h.1v.2h-6.9c-1.9,1.8-2.8,3-2.8,3.7l-.4.4h0c.3,4.2.7,6.8,1.2,7.7a10.2,10.2,0,0,0,2.3,1.8q0,.6,3.6,1.5a61.1,61.1,0,0,0,9.1.9c3-.6,5.2-1.5,6.3-2.7s3-3.8,3-5v-.4c0-.7-.8-2.1-2.4-4.1a4.6,4.6,0,0,0-1.9-1.7,12.6,12.6,0,0,0-5.4-2.2h-3.9v-.4h-.7Zm-9.9,14.8h.6v-.3h-.4Zm.3-33.7h.1a4,4,0,0,0,1-1.3H278C277.7,21.1,277.4,21.5,277,22.4Zm0,20.3v.2h.1l.8-.2v-.3h-.2C277.2,42.5,277,42.6,277,42.7Zm0-13.1v.2a3.4,3.4,0,0,0,1.8,1.4h0c-.3-1-.9-1.5-1.5-1.5Zm.5,10.6.3.2h.4l.3-.3v-.4l-.2-.2A.8.8,0,0,0,277.5,40.2Zm.1,15.2v.2l.3.2h.3c0-.2-.2-.3-.5-.3Zm.8-22.9v.4c0,.4.2.7.6.7l.2-.2v-1l-.2-.2h-.2Zm.8-7.3h0a2.8,2.8,0,0,0,.6,1.8h.1v-.2c0-1-.3-1.7-.6-1.8Zm.4,5h0a.9.9,0,0,0,.8.6c.1,0,.2-.2.4-.4s-.4-.3-1-.5Zm.5-6.7v.3c.6,3.1,1.1,4.7,1.4,4.7a4,4,0,0,0,2.5,1.4c3.1,0,5.3-.7,6.7-2.1a8.9,8.9,0,0,0,2.2-3,3.1,3.1,0,0,0,.5-1.3v-.9a6.4,6.4,0,0,0-1.5-3.1,15.2,15.2,0,0,0-4.6-1.4,8.2,8.2,0,0,0-5.6,2.5A5.6,5.6,0,0,0,280.1,23.5Zm.1,15.7,2,.2.8-.2a1.9,1.9,0,0,0-.7-.8h-.7C280.7,38.6,280.2,38.8,280.2,39.2Zm.5-19.5h.2c.3,0,.6-.3,1.1-.9v-.2h-.4C281,19.1,280.7,19.4,280.7,19.7Zm.5,11.1h-.1v.5l.2.2h1.1v-.2Zm.5,9.8.2.2h.4v-.3H282Zm.5-24.7h0c1.4-.3,2.2-.7,2.2-.9h-.2A3.2,3.2,0,0,0,282.2,15.9Zm10.3,42.9c-4.9-.4-7.8-.7-8.5-1h-1.7a5.1,5.1,0,0,0,2.1.9h1.8l.5.3h.2a16.9,16.9,0,0,0,3.5.3h1.3a7.1,7.1,0,0,0,3.8-.7,10.3,10.3,0,0,0,2.6-1.1h0C295.7,57.9,293.8,58.3,292.5,58.8ZM283,31.7c0,.3.7.5,2.1.5h1.8c.2,0,.4-.1.4-.2a10,10,0,0,0-3.5-.5h-.6Zm.4,5.7Zm.3-20.3v.3h.1l1.9-.7v-.3h-.5C284.2,16.6,283.7,16.9,283.7,17.1Zm.5,42.9h-.1l.3.2h.1Zm1,.5h0q0,.3.6.3h.7c0-.2-.3-.3-1.1-.3Zm1.7-29.9c0,.1.4.2,1.1.2h.5c0-.2-.2-.4-.8-.4h-.5Zm.1,6.8h0c0,.3,2.1.6,6.3.7l1.3.5h.1l.6-.3H297c-.2-.4-.6-.6-1.3-.6H295l-.5.2h-.1l-1.4-.6-4.1-.2h-.6Zm1.5-7.5h0l.4.4h.2c.3,0,.7-.4,1.3-1h-.6A1.8,1.8,0,0,0,288.5,29.9Zm1.8,30.7v.2c0,.1.2.2.4.2h1.2v-.3h-1.6Zm.1-19.8c0,.2,1,.3,3.1.4a16.3,16.3,0,0,1,4.4,2.1h.8l.3-.2h0c-.4-.6-1.7-1.2-4-1.9l-4.3-.6Zm.3-10.9v.2h.1l.5-.4h-.4Zm0,9.5h0q0,.2,1.5.3h.1l-1.5-.2Zm.4-10.3h.2a3.6,3.6,0,0,0,1.2-.8l-.2-.2A4.8,4.8,0,0,0,291.1,29.1Zm1.3-1.4h.3c.8,0,1.3-.9,1.4-2.6v-.3h-.2A12.3,12.3,0,0,0,292.4,27.7Zm1.2,32.8h.2c.8-.1,1.2-.3,1.2-.7h-.2A2.6,2.6,0,0,0,293.6,60.5Zm.4-41.4h0c.3.8.6,1.2,1.1,1.2a.2.2,0,0,0,.2-.2c0-.3-.4-.6-1-1.1Zm1.3,8.4v.3h.1c.1,0,.2-.2.3-.4Zm0,33.3h.3a12,12,0,0,0,3-1.5h-.2C296.4,59.7,295.3,60.2,295.3,60.8Zm1.2-21.2.2.2h.2v-.3h-.2Zm1,.7c0,.2.5.5,1.5.7h.2a1.6,1.6,0,0,0-1.3-.6h-.4Zm.7-20.4v.3h.2a7,7,0,0,0,1.7-1.9v-.2h0C299.6,18.1,299,18.7,298.2,19.9Zm.3-3.6h0a.5.5,0,0,0,.5.3h.3v-.2l-.4-.3h-.2Zm.7,27.3a12.1,12.1,0,0,0,1.8,2.5h.1v-.2c-.6-1.5-1.1-2.3-1.7-2.3Zm.3-2.1h0l2.4,2.1h.1a3.6,3.6,0,0,0-2.1-2.1Zm1.2,13h0l.2.2c1-.3,1.5-.9,1.5-1.6v-.4h-.2C301.2,53.6,300.7,54.2,300.7,54.5Zm2.6-5.9h0l.2.2h.1l.2-.2h-.5Zm1.3,1.8h0a1,1,0,0,0,.2.7h.1a3.2,3.2,0,0,0,.5-1.9h-.2A1.4,1.4,0,0,0,304.6,50.4Zm.1-2.2h0l.2.2h.1v-.2Z" transform="translate(-1.2 0)" style="fill:#b75326"/><path d="M307.7,15.4l2.9.2h5.1v.2a6.7,6.7,0,0,0-.3,1.7v1.1c.1,1.2.4,1.7.9,1.7a5.9,5.9,0,0,1,2.5-1.3c3.3-1.4,6-2.2,8.2-2.2a7.9,7.9,0,0,1,4.5,1.9,8.3,8.3,0,0,1,3.5,2.9,17.9,17.9,0,0,1,2.4,9.5v.5l-.4,4.4.4,3.2-.6,2.9h0v.6h3.3c.7,0,1.2.1,1.3.3q-.3,4.5-.9,4.5a6,6,0,0,1-2.7.7h-1.3a24,24,0,0,0-6.2.8c-1.4-.2-2.2-.9-2.2-2.2V44.8a4.2,4.2,0,0,1,1.1-3.1,44.3,44.3,0,0,1,1.3-5.5l.4-5.4c.1,0,.1-.5.1-1.4s-.8-2.7-2.6-4.8l-2.3-.8a9,9,0,0,0-6.5,3l-3,3q-.9.8-.9,4.2c.1,4.1.2,6.2.5,6.2s2.4.6,2.4.9v.3h-2.3v.2q0,.3,2.4.6a2.7,2.7,0,0,1,.4,1.5h0a9.4,9.4,0,0,1-.6,3.1h-7.2a1.5,1.5,0,0,1-1.6-1,28.5,28.5,0,0,1-.5-4.6c0-.2.6-.5,1.8-.7l.3-.4h0a1.5,1.5,0,0,0-.5-1V33.7l.2-5.7c0-3.8-.2-5.8-.5-5.8h-.3l-2.9.4c-.3,0-.7-.3-1.2-.8v-.2a1.7,1.7,0,0,0,.3-1V18.3l1-2.8Zm-.4,4.1h0c0,.2.2.3.4.3a1.7,1.7,0,0,0,1.1-.5h-1C307.5,19.4,307.3,19.4,307.3,19.5Zm.5-2.1h0c0,.2.3.2.9.3,2.7,0,4.1-.2,4.1-.6l.2-.4h-.1Zm.1,4.1h.6l.2-.2h-.3C308.1,21.3,307.9,21.4,307.9,21.5Zm1.1-2.6.2.2h.2l.8-.3h-.3C309.3,18.7,309,18.8,309,18.9Zm.6,1.4H311c.4,0,.6.1.7.3h0a1.3,1.3,0,0,0-.3.7l.8.2c.1,0,.1-.1.1-.2V19.1h-.1l-2.5,1h-.1Zm.6,21.5h0c0,.8.3,1.2.8,1.2h.3l.2-.3h0a1.9,1.9,0,0,1-.6-1.2h-.6Zm1.6-19v.3h.2v-.9h-.1C311.9,22.2,311.9,22.4,311.8,22.8Zm1.1,21.7c0,.2.5.3,1.6.3s3-.1,3-.3-.6-.4-2-.4S313,44.3,312.9,44.5Zm.8-24V22a2,2,0,0,1-.2.9v.4l.2.9v.4a.8.8,0,0,0,.3.7c.1,0,.3-.4.4-1.4s.9-.8.9-1.1a3.2,3.2,0,0,0-.7-1.3c-.1-.7-.3-1-.5-1Zm.9,3.9v.4a1.1,1.1,0,0,1-.5.9.9.9,0,0,1,.3.6c0,2.1.2,3.2.4,3.2h.2a10.6,10.6,0,0,0,.4-2.9q-.1-2.4-.6-2.4h-.1C314.6,24.2,314.6,24.2,314.6,24.4Zm1.6-3.3v.2a2.9,2.9,0,0,0,1.9-1.1h-.2A3.1,3.1,0,0,0,316.2,21.1Zm.1,3.4v.2c1-.1,2.5-1,4.4-2.7h-.4a4.2,4.2,0,0,0-1.4.8C317.1,23.4,316.3,24,316.3,24.5Zm.4,1.7v.2h.2V26h-.1Zm1.5-.3h0v.2h.3v-.7h-.1Zm1.1-.9h.2c.6-.6,1-1,1-1.3h-.2C320,23.7,319.6,24.1,319.3,25Zm.5-5.5h.1q.6-.2.6-.3h-.2C320,19.3,319.8,19.4,319.8,19.5Zm1.2-.6v.2c1.9-.5,2.9-.8,2.9-1h-.1a5.2,5.2,0,0,0-2.9.9Zm.3,5.4c.9-.2,1.3-.4,1.3-.7h-.3C321.7,23.5,321.4,23.7,321.3,24.3Zm2.9-3.5V21h.3c.6-.1.9-.3.9-.4v-.2H325C324.4,20.5,324.2,20.6,324.2,20.8Zm.9-3h0a3.1,3.1,0,0,1,1.5.7l.7.2h2.1c-.1-.2-.4-.3-.8-.3h-.8a4,4,0,0,0-2-.8A.8.8,0,0,0,325.1,17.8Zm.1,4.3h.2c.9,0,1.4-.1,1.4-.2l-.6-.2C325.6,21.9,325.2,22,325.2,22.1Zm2.2,1.2v.2H329v-.4l-.2-.3h-.3C327.8,23,327.4,23.1,327.4,23.3Zm1.2-2.7c0,.2.4.3,1.2.4a.9.9,0,0,0,.3-.6c0-.2-.4-.3-1.1-.5A1,1,0,0,0,328.6,20.6Zm.6,27.1v.2c0,.2.5.4,1.6.4h.9a3,3,0,0,0-2-.6h-.3Zm.2-3v.4h.5l-.3-.3Zm.2-23.2h.4Zm1.2-1.1a.5.5,0,0,0,.5.3h.4l.2-.2h0c0-.1-.2-.2-.6-.2H331Zm.1,1.7v.2a6.8,6.8,0,0,0,.9,1.7c0,.3,0,.5.2.5l.3-.2V24a2.5,2.5,0,0,0-1.3-1.9Zm0,24.2c.2.3.4.5.7.5,2.3-.1,3.4-.2,3.4-.4a1.9,1.9,0,0,0-1.6-.5C331.7,45.9,330.9,46.1,330.9,46.3Zm.7-7.5a2.1,2.1,0,0,1,.3,1.2h.2l.2-.8v-1C331.8,38.2,331.6,38.4,331.6,38.8Zm.3-13.7v.3a21.8,21.8,0,0,0,1,2.9v-1C332.7,25.9,332.3,25.1,331.9,25.1Zm0,12.7h.2a1,1,0,0,0,.2-.7v-.7h0C332.1,36.5,332,36.9,331.9,37.8Zm2.1,4.7v.3l.3.2h0l.2-.2h0l-.2-.3Zm.1-1.1h.1l.2-.7h-.1C334.2,40.7,334.1,40.9,334.1,41.4Zm.1-3.2v.3h.1v-.3Zm.1-4.9h0l.2.8h.3C334.8,33.6,334.6,33.3,334.3,33.3Zm.4-8q0,3.3.6,3.3h.1c-.1-2.2-.4-3.3-.7-3.3Zm1,13.2v2.8h.1a3.2,3.2,0,0,0,.7-1.8h0C336.4,38.8,336.2,38.5,335.7,38.5Zm1.9,5.4v.2c1.9,0,2.8-.2,2.8-.4v-.2h-.9C338.2,43.6,337.6,43.7,337.6,43.9Zm.6,1.3v.2c0,.2.2.3.5.3s1.1-.2,1.2-.5h0c0-.2-.3-.3-.7-.3h-.3C338.5,44.8,338.3,44.9,338.2,45.2Z" transform="translate(-1.2 0)" style="fill:#b75326"/><path d="M358.3,15.6c1.7,0,3.8.8,6.3,2.2s3.2,2.7,3.2,3.3c1.6,3.5,2.4,5.6,2.4,6.2v.5a8,8,0,0,0-1,2.9h-5.6L362,31c-6-.5-10.2-.7-12.5-.7h-1.3a4.3,4.3,0,0,0-.8,1.5,4.8,4.8,0,0,1,.5,2.2c0,1.6.2,2.5.7,2.8v.3h0l-.4-.2v.2l.6.6a3.1,3.1,0,0,0,1.1,2c1.3,2.4,2.8,3.9,4.4,4.5a15.8,15.8,0,0,0,4.7.6,5.1,5.1,0,0,0,1.7-.7c.8-.3,2.4-1.6,4.7-4.1h0c0-.1-.3-.2-.8-.3l-.2-.3a7,7,0,0,1,3.5-3.5l2.2,1.7a52.5,52.5,0,0,0,3.7,4.9v.3c-1.4,1.7-2.3,2.5-2.9,2.5h-.2c0-.9-.6-1.4-1.7-1.5a14.7,14.7,0,0,0-2.7,2,15.5,15.5,0,0,1-4.9,2.1,30.9,30.9,0,0,1-5.7.9l-3.5-1.3c-2,0-3.8-1.1-5.4-3.2a9.1,9.1,0,0,1-1.8-2.7,42.3,42.3,0,0,0-1.3-5.1,15.5,15.5,0,0,1-.4-3.4h0a21.9,21.9,0,0,1,4.9-14.4,4.4,4.4,0,0,1,2.8-2.3l3.6-.7ZM344.4,31.3h0v.2h0a2.2,2.2,0,0,0-.1.9v.3a4.1,4.1,0,0,0,.6,2h.2C345.1,32.7,344.8,31.6,344.4,31.3Zm0-2.3v.4c0,.2.1.4.2.4s.3-.2.3-.6l-.2-.2Zm.8-3.3a5.4,5.4,0,0,0-.8,2.5h.1c.3,0,.6-.7,1.1-2.2S345.4,25.7,345.2,25.7Zm.1,11h0l.2.2h.1v-.2h-.3Zm.6,1.1h0c.2.6.4,1,.7,1h0A1.3,1.3,0,0,0,345.9,37.8Zm1.8-8.2h.1l1.1-.2h0l-.2-.3h-.2A.9.9,0,0,0,347.7,29.6Zm.1-7.4h.1Zm0,3.9v.4h.1a1.6,1.6,0,0,0,.7-.7v-.2h-.2C348.2,25.6,348,25.8,347.8,26.1Zm.6-1.6v.2c0,.5,3.8,1,11.2,1.5l.7.2h.7a15.2,15.2,0,0,0,3.4.9c0,.1.1.2.4.3a2.5,2.5,0,0,0,.4-1.1V25.3c0-.6-1.1-1.8-3.2-3.6a5.3,5.3,0,0,0-3.2-1.7l-2-.3c-3.5.7-5.7,1.5-6.8,2.5A10.6,10.6,0,0,1,348.4,24.5Zm.1-1h0a.5.5,0,0,0,.3-.5h0A.5.5,0,0,0,348.5,23.5Zm.2,21.2v.2c0,.3.3.5,1,.7l.3.3h0a5.3,5.3,0,0,0-1.1-1.1Zm.4-23.9V21h.1c.6-.2.8-.3.8-.5h-.3C349.5,20.4,349.3,20.6,349.1,20.8Zm.3,8.4v.3h.3v-.2h-.3Zm.7-11.3h0l.2.2h0c.9-.2,1.3-.4,1.3-.7v-.3l-.2-.3h-.2C350.5,17.2,350.1,17.5,350.1,17.9Zm.8,10.7v.2a48.2,48.2,0,0,0,6.6.5h-1.3c0,.2.6.3,1.6.3s2.6-.1,2.6-.4S357.2,28.8,350.9,28.6Zm.6-2.1v.2a8.8,8.8,0,0,0,4.3.8h1.4v-.3A55.1,55.1,0,0,0,351.5,26.5Zm.2-6.1a9.5,9.5,0,0,1,2.5-1h-.7Q351.7,19.5,351.7,20.4Zm.9-3.4h.1a14.1,14.1,0,0,0,3.7-.7q.6-.2.6-.3h-.2a11.3,11.3,0,0,0-4.1.9h-.1Zm.5,27.9h0c0,.2.4.4,1.3.6h.1a3.9,3.9,0,0,0-1.4-.5Zm2.2-26.6h0c0,.2.8.4,2.5.7h.1v-.2a1.8,1.8,0,0,0-1.6-.8H356C355.5,18,355.3,18.1,355.3,18.3Zm1.3,27.3v.2h.2v-.2Zm2.3,1.6h-1.5c-.4,0-.6,0-.6.2h0l.2.2h1.1a19.9,19.9,0,0,0,4.5-.6h0c-.1-.2-.3-.3-.7-.3h-.3A6,6,0,0,0,358.9,47.2Zm-1.1-29.9v.2a6.1,6.1,0,0,0,2.5.4h.1v-.2c0-.1-.3-.2-.8-.3Zm1.2,1.4h0a22.8,22.8,0,0,0,3.8,2h.1l.6-.2h.4l-1-.4-1.3-.5a1.9,1.9,0,0,0-2-1.1h-.1C359.2,18.5,359,18.5,359,18.7Zm3.7,9.4v.2h.2v-.2Zm.1,1.7c0,.1.3.2,1,.2h.6c0-.2-.4-.4-1.2-.4S362.8,29.7,362.8,29.8Zm0,14.1h.1a1.3,1.3,0,0,0,.5-.7h0C363,43.4,362.8,43.6,362.8,43.9Zm.4,2.7c.4,0,.8-.3,1-1H364C363.5,46,363.2,46.3,363.2,46.6Zm.6-24.9a.6.6,0,0,0,.6.5h.1l.2-.2v-.4l-.3-.3C364,21.3,363.8,21.4,363.8,21.7Zm.9,20.2h.1c.5,0,.7-.3.9-.8h0C365.2,41.1,364.9,41.3,364.7,41.9Zm.5-19.4c.4,1.3.7,2.1,1,2.2h.3c-.3-1.3-.6-2-1-2h-.3Zm.9,15.9h.4c.3,0,.4-.1.4-.2l-.2-.3h-.1A.5.5,0,0,0,366.1,38.4Zm.3,5.8h.2q.6-.6.6-.9h0C366.7,43.5,366.4,43.8,366.4,44.2Zm.9-18.8v.4l.2.2c.2,0,.3-.2.3-.4v-.2h-.5Zm.3,17v.2c.7-.2,1-.5,1-.8h-.1C368,41.7,367.6,41.9,367.6,42.4Zm1.4-.6h.2a.5.5,0,0,0,.4-.6h-.2A.7.7,0,0,0,369,41.8Zm2.2-.6h-.1c.1.5.3.8.5.8h.1v-.2h0Q371.7,41.2,371.2,41.2Z" transform="translate(-1.2 0)" style="fill:#b75326"/><path d="M384.3,0a3.6,3.6,0,0,1,2.2.7,27.2,27.2,0,0,0-1,6.3l-.5,5.6c0,.3.8.5,2.4.5,4.9,0,7.3.2,7.3.6l.8.4a3.1,3.1,0,0,0-.6,1.2v1.4l-.8,2.8q0,.3.9,1.2h0a7.4,7.4,0,0,1-2.3.5c-.7-.1-1.1-.2-1.1-.3h1.1l.2-.2v-.2h-7.8c-.2,0-.4,1.2-.7,3.5h0l-.9-.9-.2.6v.4c.1,1.2.2,1.8.4,1.9s.3-.4.5-1.2v-.4h.2v.2l-.4,5.9c.3,6.5.7,9.8,1.1,9.8s.6,1.9,1.5,1.9a3.3,3.3,0,0,0,1.7.4h4.8a12.3,12.3,0,0,1,.5,3.3c.1,1.3-.6,1.9-2.2,1.9h-4.8a9.9,9.9,0,0,1-6.5-2.1c-1.2-.5-1.7-1.7-1.7-3.8s-.3-4.9-.5-9.8l1-5.4.2-3.7v-.5c-.3-1.7-.8-2.5-1.5-2.5h-4a4.9,4.9,0,0,0-1.9.5c-.4-.1-.9-.6-1.5-1.7l1.2-5.5,7.5-.3a3.5,3.5,0,0,1,.9-2q.2-9.6.6-9.6V.9c0-.1-.1-.2-.3-.2h0C380.2.4,381.6.2,384.3,0ZM371.9,13.7a.5.5,0,0,0,.5.5h.9l4.8-.3h0c0-.3-1.1-.4-3.1-.4h-2.6C372.1,13.5,371.9,13.6,371.9,13.7Zm.8,1.4v.3q0,.6,4.2.6c1.4,0,2-.1,2-.3s-1.8-.7-5.3-.7h-.9Zm.5,2.2c0,.2.1.2.3.2h3.3a9.4,9.4,0,0,0-2.8-.3h-.6Zm0,.8h0c0,.3,1.5.4,4.6.4h.6l-.2-.2Zm5.7,13.5.2,1.7v2.8h.2c.2,0,.4-.9.4-2.9V31.8c.1.1.1.2-.1.2A.8.8,0,0,1,378.9,31.6Zm1.9,8v1.3h0l.2-.2v-1h-.3Zm.3,4.2v.3c.1,1,.6,1.5,1.4,1.5h.7c0-.2-.4-.3-1.1-.5l-.8-1.1Zm.6-22.5v.5h.1c.2,0,.3-.1.3-.4v-.6h-.1C381.7,20.9,381.7,21.1,381.7,21.3Zm.1,1.2v1h.3v-1Zm.1-20.8V2h.2V1.8h-.2Zm0,25.1v.5l.2.2h.1v-.7Zm.3-22.9a6.2,6.2,0,0,0-.1,1.6v.3h.1l.2-1.1V4.1Zm.2,2.8-.2,6.1h.3c.3,0,.4-.5.4-1.5V7l-.2-.3Zm.4,29.8v.9c0,.3.1.5.3.5h.1c.1,0,.2-.2.2-.4s-.2-1-.4-1Zm0,7h0v.4a1,1,0,0,0,.4.5h.4C383.6,43.9,383.3,43.6,382.8,43.5Zm.6-4.4-.3.8c0,.9.2,1.5.6,1.7l.2-.3v-.5C383.8,39.8,383.6,39.2,383.4,39.1Zm.2-16.9h0l.2.3h.1v-.2l-.2-.2ZM384.4,2h0V3.6h.2a2.8,2.8,0,0,0,.7-1.3V2l-.2-.2h-.6Zm1.4,13.7h0c0,.2.8.4,2.3.4h1l1.4.3h.3c.3,0,.4-.1.4-.4h-.1l-4.6-.4H386Zm1,2.8h0q0,.3,2.1.6h.1a3.3,3.3,0,0,0-1.9-.6Zm3.6-4.6h-1.8V14a7,7,0,0,0,2.3.4h1.4a.2.2,0,0,0,.2-.2c-.1-.5-.3-.7-.8-.7h-.6Zm-.8,30.8h.2c1.6-.3,2.3-.6,2.3-.9H392Q389.6,44.4,389.6,44.7Zm.6-25.6a8.6,8.6,0,0,0,3,.5l.2-.2v-.6h-1.5C390.7,18.8,390.2,18.9,390.2,19.1Zm2.3-2h0l.2.3h.2a.9.9,0,0,0,.8-.4l-.2-.2h-.8Zm.2-2.8h0l.2.2a.8.8,0,0,0,.7-.3h-.7Z" transform="translate(-1.2 0)" style="fill:#b75326"/><path d="M404,39.4a4.9,4.9,0,0,1,2.6,1,2,2,0,0,1,.3,1.1v.8c0,1.7-1,2.9-2.9,3.7l-.8.4c-.8,0-1.7-.8-2.5-2.4v-.4c0-1.7.3-2.8.9-3.2A5.2,5.2,0,0,1,404,39.4Zm-2,2.7c.1,1.1.2,1.6.4,1.6a7.8,7.8,0,0,0,.6-2.1l.2-.4v-.3h-.1C402.4,41.2,402,41.6,402,42.1Zm.3,2.7c0,.3.1.4.4.5h.7a1.7,1.7,0,0,0,1.2-.6h0Zm1.3-2.3h0c0,.4.1.7.3.7h.1c.2,0,.4-.4.7-1.3v-.3h-.3C403.9,41.6,403.6,41.9,403.6,42.5Zm1.9.8h.3v-.6h0C405.7,42.8,405.6,43,405.5,43.3Z" transform="translate(-1.2 0)" style="fill:#231f20"/></g></g></svg>