<svg xmlns="http://www.w3.org/2000/svg" viewBox="0 0 281.2 48.7"><title>icn_rotator_Asset 46_adj</title><g id="Layer_2" data-name="Layer 2"><g id="Layer_1-2" data-name="Layer 1"><path d="M14.5,0a3.3,3.3,0,0,1,2.3.7,22.4,22.4,0,0,0-1,6.2l-.5,5.7c0,.3.8.5,2.4.5,4.8,0,7.3.2,7.3.6a1.3,1.3,0,0,1,.7.4,4,4,0,0,0-.6,1.1v.3l.2,1.2-.8,2.7c0,.3.3.7.9,1.3h0a5.7,5.7,0,0,1-2.4.5c-.6,0-1-.1-1-.3h1l.3-.2v-.2H15.4a11.2,11.2,0,0,0-.6,3.5h-.1l-.8-1-.2.7v.4c.1,1.1.2,1.8.4,1.8s.3-.4.4-1.1v-.4h.2v.2l-.5,5.9c.4,6.5.8,9.7,1.1,9.7s.7,2,1.6,2a3.3,3.3,0,0,0,1.7.4h1.1l3.6-.2c.2,0,.4,1.1.5,3.3s-.5,2-2.2,2H17a9.6,9.6,0,0,1-6.6-2.2c-1.1-.4-1.7-1.7-1.7-3.7s-.3-4.9-.4-9.9l.9-5.4.2-3.6v-.5c-.2-1.7-.7-2.6-1.4-2.6H4a5.1,5.1,0,0,0-2,.4c-.4,0-.9-.6-1.5-1.6L1.8,13c0-.2,2.5-.3,7.4-.3a3.2,3.2,0,0,1,.9-2c.2-6.5.4-9.7.7-9.7V.8c0-.1-.1-.1-.3-.1V.5A17.3,17.3,0,0,1,14.5,0ZM2.2,13.7c0,.3.1.4.5.4h.9l4.7-.2h0q0-.3-3-.3H2.7C2.3,13.5,2.2,13.6,2.2,13.7ZM3,15.1v.3q0,.6,4.2.6c1.3,0,2-.1,2-.3s-1.8-.7-5.4-.8H3.1Zm.4,2.1a.3.3,0,0,0,.3.3H7A8.5,8.5,0,0,0,4.2,17H3.6Zm0,.8v.2c0,.2,1.6.4,4.7.4h.4ZM9.1,31.6l.2,1.7v2.8h.2c.3,0,.4-1,.4-2.9V31.7c.2.2.1.3-.1.3A1.3,1.3,0,0,1,9.1,31.6Zm2,7.9v1.3h.2v-1l-.2-.2Zm.3,4.3V44c.1,1.1.5,1.6,1.3,1.6h.6l.2-.2h0c0-.1-.4-.3-1.2-.4l-.8-1.1Zm.5-22.5v.5h.2c.1,0,.2-.2.2-.4v-.7h-.1A.6.6,0,0,0,11.9,21.3Zm.2,1.2v1h.2v-.9h-.3Zm0-20.9V2h.3V1.8l-.2-.2Zm0,25.1v.6l.2.2h.2v-.8Zm.4-22.9a5.9,5.9,0,0,0-.2,1.7v.2h.2V3.8Zm.2,2.8-.2,6.1h0V13h.2c.2,0,.4-.6.4-1.6V7l-.2-.4ZM13,36.5v.8a.5.5,0,0,0,.4.6h0a.5.5,0,0,0,.3-.5c-.1-.6-.3-.9-.4-.9Zm.1,6.9H13v.4c.1.2.3.3.5.5h.4A.9.9,0,0,0,13.1,43.4Zm.6-4.3-.3.7a2.2,2.2,0,0,0,.6,1.8l.2-.3v-.5C14.1,39.7,13.9,39.2,13.7,39.1Zm.2-16.9h0l.2.2h.1l-.3-.2ZM14.6,2h0l.2,1.4h.1c.5-.5.8-.9.8-1.3V2l-.3-.2h-.5Zm1.5,13.6h0c0,.2.8.3,2.3.4h1l1.4.3H21a.5.5,0,0,0,.5-.4h-.1l-4.7-.4h-.6Zm.9,2.8v.2l2.2.6h.1a3.5,3.5,0,0,0-2-.7Zm3.6-4.6H18.9V14a6.6,6.6,0,0,0,2.3.4h1.4c.1,0,.1-.1.1-.3s-.3-.6-.7-.6h-.6Zm-.7,30.9h.2c1.5-.3,2.3-.5,2.3-.8v-.2C20.7,44.1,19.9,44.5,19.9,44.7Zm.6-25.6a11.8,11.8,0,0,0,2.9.5l.3-.2V19l-.2-.2H22.1C21,18.8,20.5,18.9,20.5,19.1ZM22.7,17h0l.2.2h.3a.8.8,0,0,0,.8-.4H22.9Zm.2-2.8h.2c.4,0,.6-.1.7-.3h-.9Z" transform="translate(-0.5 0)" style="fill:#b75326"/><path d="M51.5,17.8c1.6,0,3,1.1,4.1,3.4.2,0,.5.3.9.8l.8,4.6c-.3.4-1.4.7-3.3.7h-.6c-1.5-.2-2.3-.7-2.3-1.6a3.9,3.9,0,0,0-1.4-2.3c-.2-.2-1-.3-2.7-.3a16.1,16.1,0,0,0-5.6,1.2,22.1,22.1,0,0,0-3.2,3.8c.3,7.5.4,11.9.4,13.3s.2.5.7.5h1.5c.7,0,1,.1,1,.3h0l.2.9v3.4l-.4.5-2.9.2h-.2l-1.3.4c-4.7-.1-7-.3-7-.5s-1.3-.4-1.3-1.1a14.8,14.8,0,0,1-.1-2.3c0-.8.8-1.3,2.4-1.6,0-.3.5-.5,1.6-.5h.2l-.4-16.9c0-1-.2-1.6-.7-1.6h-.4a10.9,10.9,0,0,0-2.5.7h-.1v-.2l.5-.3h0c-.4,0-.6-1.1-.6-3.5-.1,0-.1-.3-.2-1a8.5,8.5,0,0,1,5.2-2h1.5a14.3,14.3,0,0,1,3.1.6v.3a2.2,2.2,0,0,0-.6,1.2v.4C41.2,17.6,45.7,17.1,51.5,17.8Zm-22,27.1-.2.3v.2l.2.2h.2v-.4ZM30.1,19a1.4,1.4,0,0,0,1.1.5h.1V19l-.4-.3C30.4,18.8,30.1,18.9,30.1,19Zm.8,26.9h0c0,.2.6.3,1.7.3h2.3c0-.2-1.1-.4-3.3-.5Zm.2-24.4h.2c.4,0,.7-.1.7-.3v-.2h-.1C31.4,21.1,31.1,21.2,31.1,21.5Zm0,23.4h3.5v-.2H31.1Zm1.6-27.1v.3l.4.4h.6v-.2l-.8-.5Zm2.7,9.3v.3a2.8,2.8,0,0,1,.3,1.3,13,13,0,0,0-.3,2.5l.2,2.5h.1a35.4,35.4,0,0,0,.5-5.7,6,6,0,0,0,.1-1.3c-.1-.3-.2-.5-.3-.5h-.2A1,1,0,0,0,35.4,27.1Zm.4-3.2-.3,1.2a.7.7,0,0,0,.4.6H36c.2,0,.3-.3.3-.8l-.2-1Zm.6,21.3v.2h.9l.3-.2c0-.2-.1-.2-.3-.3S36.4,45.1,36.4,45.2Zm.4-26h.1l.3-.2V19H37Zm.1-1.3v.4h.3l.2-.3h-.5Zm0,20.7v.5h.2l.3-.2v-.3l-.2-.2h-.1Zm.1,1.2V40h.1v-.2Zm1.2-17.9v.2h.5v-.2h-.5Zm4.2-1.5v.2c.3,0,.8-.6,1.4-1.8v-.3h0C42.7,18.8,42.2,19.4,42.4,20.4Zm2.3-1.3.3,1.2h.5V18.8h-.2C44.8,18.9,44.7,19,44.7,19.1Zm1.5-.5h.7c.3,0,.4,0,.5-.2H46.2Zm2-.1h.4l.2-.2-.2-.2C48.3,18.3,48.2,18.4,48.2,18.5Zm1.5.3h0Zm.6,3.6h.3A4.6,4.6,0,0,0,51.8,21h0c0-.1-.1-.2-.3-.2a1.5,1.5,0,0,0-1,1.4C50.4,22.1,50.3,22.2,50.3,22.4ZM52,24.1v.2h.2l.2-.3h-.1C52.1,23.9,52,24,52,24.1Zm.1-5.5h0ZM54,20.7h0a.9.9,0,0,0,.8.6H55v-.2a1.1,1.1,0,0,0-.9-.5Z" transform="translate(-0.5 0)" style="fill:#b75326"/><path d="M73.3,15.6a12.9,12.9,0,0,1,6.3,2.2c2.1,1.5,3.2,2.6,3.2,3.2,1.6,3.6,2.4,5.6,2.4,6.2v.5a9.1,9.1,0,0,0-.9,3H78.7A5.2,5.2,0,0,0,77,31c-6-.5-10.1-.7-12.5-.7H63.2a3.6,3.6,0,0,0-.8,1.5,4.2,4.2,0,0,1,.5,2.2c0,1.6.2,2.5.7,2.8v.3h-.4l.6.6A3.6,3.6,0,0,0,65,39.8c1.3,2.4,2.8,3.9,4.4,4.4a12.9,12.9,0,0,0,4.7.7l1.7-.8c.8-.2,2.4-1.6,4.7-4v-.2c0-.1-.3-.2-.8-.2l-.2-.3A7.2,7.2,0,0,1,83,35.8a12.4,12.4,0,0,0,2.2,1.7c1,1.5,2.2,3.1,3.7,5v.2c-1.3,1.7-2.3,2.6-2.9,2.6h-.2c0-.9-.6-1.4-1.7-1.6a13,13,0,0,0-2.7,2.1,14.5,14.5,0,0,1-4.9,2.1,38.7,38.7,0,0,1-5.7.8l-3.5-1.2c-1.9,0-3.7-1.1-5.4-3.2a7.3,7.3,0,0,1-1.7-2.7c0-.3-.5-2-1.4-5.2a14.8,14.8,0,0,1-.4-3.4h0a22.2,22.2,0,0,1,4.9-14.4,4.3,4.3,0,0,1,2.9-2.2,17.7,17.7,0,0,1,3.5-.7A9.7,9.7,0,0,1,73.3,15.6ZM59.5,31.3h0a1.9,1.9,0,0,0-.2.8v.3a3.6,3.6,0,0,0,.6,2h.2C60.1,32.7,59.9,31.6,59.5,31.3Zm0-2.3v.3c0,.3.1.4.2.4s.3-.2.3-.6h-.4Zm.8-3.3c-.4.3-.6,1.1-.8,2.5h0c.3,0,.6-.8,1.2-2.2S60.5,25.7,60.3,25.7Zm0,11h0l.2.2h.2v-.2h-.4Zm.7,1h-.1c.2.7.4,1,.7,1h0A1.5,1.5,0,0,0,61,37.7Zm1.7-8.1h1.2l-.2-.2h-.2A.8.8,0,0,0,62.7,29.6Zm.1-7.5H63V22H63Zm0,4v.2l.2.2h.1a4.6,4.6,0,0,0,.7-.7v-.2h-.3C63.2,25.6,63,25.8,62.8,26.1Zm.7-1.7v.2c0,.5,3.7,1.1,11.2,1.6l.6.2H76a13,13,0,0,0,3.4.8c0,.2.1.3.4.3a2.1,2.1,0,0,0,.4-1V25.2c0-.5-1.1-1.7-3.1-3.6A5.8,5.8,0,0,0,73.9,20l-2.1-.3c-3.4.6-5.7,1.5-6.7,2.5S64.1,23.7,63.5,24.4Zm0-.9h0a.5.5,0,0,0,.3-.5h0A.5.5,0,0,0,63.5,23.5Zm.2,21.2v.2c0,.2.4.5,1,.7l.3.2h0a3.5,3.5,0,0,0-1.1-1.1Zm.4-23.9h.1c.6-.1.9-.3.9-.4h-.4A.7.7,0,0,0,64.1,20.8Zm.3,8.4v.3h.3v-.2h-.3Zm.7-11.3h.3q1.2-.3,1.2-.6v-.4l-.2-.2h-.1C65.5,17.1,65.1,17.5,65.1,17.9Zm.8,10.7h0a62.5,62.5,0,0,0,6.6.6h0l-1.3.2c0,.1.6.2,1.6.2s2.6-.1,2.6-.3S72.3,28.8,65.9,28.6Zm.7-2.1h0a8.3,8.3,0,0,0,4.2.8h1.4v-.2A27.4,27.4,0,0,0,66.6,26.5Zm.1-6.1a8.7,8.7,0,0,1,2.5-1.1h-.7C67.3,19.4,66.7,19.8,66.7,20.4Zm.9-3.4h.1a17,17,0,0,0,3.8-.8c.3,0,.5-.1.5-.3h-.2a11.7,11.7,0,0,0-4.1.9h-.1Zm.5,27.9h0c0,.2.5.3,1.3.5h.1a3.6,3.6,0,0,0-1.3-.5Zm2.2-26.7h0a5.7,5.7,0,0,0,2.5.6h.1v-.2a1.8,1.8,0,0,0-1.6-.7h-.2Zm1.3,27.4v.2h.3v-.2Zm2.3,1.6L72.6,47h-.2c-.4,0-.6.1-.6.2h0l.2.3h1.1a15,15,0,0,0,4.5-.7h0c-.1-.2-.3-.3-.7-.3h-.3A5,5,0,0,0,73.9,47.2ZM72.8,17.3v.2a8.7,8.7,0,0,0,2.5.3h.1v-.2c0-.2-.2-.3-.7-.3ZM74,18.6h0a39.2,39.2,0,0,0,3.8,2h.1l.6-.2h.4a1.9,1.9,0,0,0-1-.4l-1.2-.5c-.3-.8-1-1.1-2-1.1h-.2C74.2,18.4,74,18.5,74,18.6Zm3.7,9.5v.2h.2v-.2Zm.1,1.6c0,.2.3.3,1,.3h.7c0-.2-.5-.3-1.3-.3Zm0,14.1h.1a1,1,0,0,0,.5-.6h0A1,1,0,0,0,77.8,43.8Zm.4,2.7a1.1,1.1,0,0,0,1-.9h-.1Q78.2,46.1,78.2,46.5Zm.6-24.9c.2.4.4.5.7.5h0l.2-.2v-.4l-.3-.3C79,21.2,78.8,21.4,78.8,21.6Zm.9,20.3h.2c.4,0,.7-.3.8-.9h0A1.1,1.1,0,0,0,79.7,41.9Zm.5-19.4c.4,1.3.7,2,1,2.2h.2l.2-.2c-.4-1.3-.7-1.9-1.1-1.9h-.3Zm.9,15.8h.4c.3,0,.4,0,.5-.2l-.3-.2h-.1A.5.5,0,0,0,81.1,38.3Zm.3,5.8h.2c.5-.3.7-.6.7-.8h-.1C81.7,43.5,81.4,43.8,81.4,44.1Zm1-18.7V26a.5.5,0,0,0,.3-.5h0v-.2h-.2Zm.2,17,.2.2q.9-.3.9-.9h-.1A.9.9,0,0,0,82.6,42.4Zm1.4-.7h.2a.5.5,0,0,0,.4-.6h-.2A.7.7,0,0,0,84,41.7Zm2.2-.6h-.1c.1.6.3.8.5.8h.2C86.8,41.3,86.5,41.1,86.2,41.1Z" transform="translate(-0.5 0)" style="fill:#b75326"/><path d="M103.1,9.3c1.1,0,4.2.6,9.2,1.9a20.4,20.4,0,0,0,4.2,1.6,2.6,2.6,0,0,0,.5-1.7h0v-.4c0-.6.4-.8,1.2-.8a3.2,3.2,0,0,1,2-.6c1.3,0,1.9.2,1.9.4l.6,5.9v1.7q0,2.3-.6,2.7a1.4,1.4,0,0,1-.9.5c-2.3-.1-3.4-.5-3.4-.9a4,4,0,0,0-2.2-2.2c-4-1.9-6.8-2.9-8.6-2.9h-1.7c-2,0-3.3.4-3.6,1.2a4,4,0,0,0-.8,2.6h0c0,2.2,1.2,4.1,3.6,5.6a16.6,16.6,0,0,0,6.1,1.4c0,.4.9.8,2.8,1.4q.5.9,2.4.9c1.3.5,3.1,2.1,5.5,4.7l.2.3v.2H121a6.8,6.8,0,0,1,.9,2.2c0,3.7-.6,6-1.8,7a8.1,8.1,0,0,1-3.4,3.2c-2,1.8-3.9,2.7-5.9,2.7h-2.2c-3.2-.5-4.9-.9-4.9-1.2a13.2,13.2,0,0,0-3.2-2,12.6,12.6,0,0,1-4.2-3H96c-.5,1.4-.9,2.2-1.2,2.2-2.6-.4-3.9-.9-3.9-1.4a25.3,25.3,0,0,1-.5-5.4l.7-3.8c0-1.4.1-2.1.5-2.1l3.9-.4c.3,0,.6,1.1.9,3.4l1.7,3.1c0,.2,1.9,1.4,5.5,3.8a5.1,5.1,0,0,0,3.9,1.5h2.2c2.1,0,3.6-.7,4.4-2.1a9.4,9.4,0,0,0,2.1-4.5v-.2c0-1.2-1-2.7-3.1-4.5a4.7,4.7,0,0,0-3.5-1.5,19.7,19.7,0,0,0-5.5-1.2l-5-2.6-2.4-2A11.4,11.4,0,0,1,95,20.7v-1l-.2-2.4a3.1,3.1,0,0,1,1.1-2c0-.5,1-1.6,2.9-3.4s3-1.7,3.3-2.4Zm-11.7,29v1.5h0c.3-.2.4-1.2.4-3v-.6h-.1Q91.4,36.2,91.4,38.3Zm1.7,3.2v.2l.2.2h.3l-.3-.2Zm.4-8.2v.4l.3-.2v-.2ZM96,16.9a4.7,4.7,0,0,0,.3,1.7h.2V16.8H96Zm0,22.4v.3q1.1,1.2,1.8,1.2h.1v-.2c-.8-.9-1.4-1.3-1.7-1.3Zm.5-24v.5h0v.2l.3-.6h-.3Zm.9,7.5h0l.2.2h.1v-.4Zm.2-5.3v.2h.1l.3-.2v-.2h-.2Zm.7-2.8h.3v-.2h-.3Zm.3,8.3h0c.3.9.6,1.4.9,1.4h.2l.3-.3h0c-.5-.7-.9-1.1-1.3-1.1Zm.2-7.4h.3c.9-.6,1.4-1.2,1.4-1.6h-.2c-.5,0-1,.5-1.5,1.4Zm1.4,6.9h0l.2.2h.6v-.2c0-.1-.2-.2-.6-.2Zm1.5.5h-.1v.4l.4.4h.2l.2-.2v-.3A.8.8,0,0,0,101.7,23Zm.1,3.2h-.1c0,.2.3.4.9.7h.1C102.7,26.7,102.4,26.5,101.8,26.2Zm.4,18.6h0c0,.2.5.4,1.6.6l.3.2h.3c-.1-.5-.3-.8-.4-.8Zm.6-34.5v.2c0,.1.3.3.8.4s1.7-.2,1.7-.4v-.2c0-.4-.6-.5-1.8-.5S103,9.9,102.8,10.3Zm.9,14.2h0a4.9,4.9,0,0,0,2.3,1.2v-.2Q106.1,25.4,103.7,24.5Zm.8-11.6a1.1,1.1,0,0,0,.7.3,1.9,1.9,0,0,0,1.3-.7l-.4-.3h-.6C104.9,12.2,104.5,12.4,104.5,12.9Zm.9,33.5h0l.2.3h.5a.6.6,0,0,0-.6-.3Zm.4-.8v.3h.2v-.2Zm.9,1.2a5.2,5.2,0,0,0,2.3.5h2.8c-.1-.4-1.5-.5-4.2-.5C107,46.6,106.7,46.7,106.7,46.8Zm.5-32.9c0,.3.7.5,2.1.5h0q0-.3-1.8-.6h-.1Zm0,12.1c0,.2,1.4.7,4.3,1.3h1a9.4,9.4,0,0,0-4.5-1.7Zm.7,1.8v.3l1,.3h.7v-.2A5.4,5.4,0,0,0,107.9,27.8Zm4.6,18.8v.2h.4c.7-.1,1.1-.2,1.1-.3v-.2h-1.3Zm.4-33.8h0l.8.3h.2C113.9,13,113.6,12.9,112.9,12.8Zm.8,2.3h-.1a7,7,0,0,0,2.5,1.2h0C116.1,16.1,115.3,15.7,113.7,15.1Zm.2,13.6h0a20.1,20.1,0,0,0,3.3,1.9,3.5,3.5,0,0,0,1.9,1.1h.1v-.2a9.2,9.2,0,0,0-4.8-2.9Zm1.4,12.9v.2h.2a4.5,4.5,0,0,0,.9-1v-.2A3.1,3.1,0,0,0,115.3,41.6Zm.7-9.2v.4c0,.4.3.9,1,1.4h.3v-.5c0-.5-.4-.9-1.2-1.3Zm.6,11.5h.2c.5,0,1.2-.7,2.1-2h-.2Zm.1-29.2a4,4,0,0,0,2,.8h.1c0-.3-.7-.6-1.9-.9h-.1Zm.1,22.5v.4h.4v-.3Zm1.5-18.1a2.9,2.9,0,0,0,1.7.3h1.3v-.3h-3Zm.6-9v.2c.4.7.8,1,1.2,1a.9.9,0,0,0,.8-.6v-.2C120.9,10.2,120.2,10.1,118.9,10.1Zm1.2,27.6v.4l.2.2h.2c.2-.1.4-.5.4-1.1h-.3Zm.8-25.5h.4V12h-.2Z" transform="translate(-0.5 0)" style="fill:#b75326"/><path d="M162.8,12.3a5.5,5.5,0,0,0,2.5.9c.9,0,2.6.9,5.2,2.8l.8.3h.3l1.2.5c1,.9,1.7,1.5,1.8,1.9h0c0,.2-.2.5-.7.9s-1,2-2.6,4.1v.8a8.3,8.3,0,0,0-1.8.5c-.2,0-.5-.3-.7-.9s-1.7-1.3-1.7-1.8l.7-1.9c0-.8-1.3-1.4-4-1.7l-4.1-.3a15.1,15.1,0,0,0-5.7,1.7,7,7,0,0,0-3.1,4.3c-.6,2-1.1,3.2-1.5,3.5l-.6-.5a2.4,2.4,0,0,0-.4,1.5h0l.8-.4c.1,0,.2.1.2.4l-.4,2.8c.2.1.6,1.3,1.2,3.7l-.2.4v.2a4.1,4.1,0,0,1,.5,2c.4,1.2,1.5,2.4,3.6,3.4l3.3,2.4a19,19,0,0,0,9.6-2.4q4.2-3.6,4.2-4.8l-.2-1h0a25.8,25.8,0,0,1,2.7-2.9l1,.9v.2H174V34c1.5.1,2.3.6,2.3,1.2s1.3,2.3,2.1,4c.2,0,.4.5.5,1.4s.9.5,1,.7-.3.6-.8.7a5.6,5.6,0,0,0-2.7,2,17.7,17.7,0,0,0-2.2-2.2L170.8,44a13.2,13.2,0,0,0-3.2,2l-6.4,2.1h-.9a21,21,0,0,1-5.9-1.2c-2.8-1.2-4.3-2.1-4.6-2.8-3.5-4.1-5.2-7.4-5.2-9.7l-.2-2.1a19.8,19.8,0,0,0,.6-5.3l1.6-4c0-1.1.8-2.6,2.3-4.4s3.1-3.7,6.8-5.3a30.3,30.3,0,0,1,7.1-1ZM146.6,31.8V32a.7.7,0,0,0,.6.8c.2,0,.2-.7.1-2v-.4H147C146.9,30.4,146.8,30.9,146.6,31.8Zm2.3-8-1.1,1.9V26l.3.3h.1c.2,0,.6-.7.9-2.1v-.4Zm-.4,9.1a1.5,1.5,0,0,0-.3,1,4.5,4.5,0,0,0,.5,1.3c.2.6.6,1,1,1V36a9.5,9.5,0,0,0-1.1-3.1Zm-.3,4.9v.3c.3.4.6.7.9.7a1.5,1.5,0,0,0-.7-1Zm.4,3h0c0,.7.6,1.3,1.9,2h.6c0-.5-.8-1.1-2.2-1.9Zm.2-18.4h0v.2h.1c.5-.4.7-.7.7-1.1h-.2C149,21.8,148.8,22.1,148.8,22.4Zm.9,16.8v.3q.2.6.6.6h.1v-.3C150.2,39.4,150,39.2,149.7,39.2Zm1-19.2h.2a1.4,1.4,0,0,0,.8-1C151.3,19,150.9,19.4,150.7,20Zm.1,23.7c.4.6,1.9,1.6,4.5,2.8l1.3.4h.1v-.2c-2.7-1.1-4.3-2.1-4.8-2.9l-.7-.3H151A.2.2,0,0,0,150.8,43.7Zm.5-27h.2l.3-.3h-.2Zm1.2-.7,3.2-1.2,2-.9c.8-.2,1.2-.3,1.2-.5h0q-2.7,0-6.3,2.4h-.1Zm.4,27.5h0c0,.3.8.7,2.3,1.2l3,.9h.6l.3-.2H159a3.5,3.5,0,0,1-2.3-.9l-1-.4h-.1l-.3.3h-.1a6.7,6.7,0,0,1-2.1-.9Zm.9-25.1h.3l.2-.3h-.2Zm2.3-1.5v.2h.2c.9-.1,1.4-.3,1.4-.6l-.2-.2h-.1C156.5,16.6,156.1,16.8,156.1,16.9Zm2.3-1.2V16h.8c2.4,0,3.7-.2,4-.6s-.3-.2-1-.2A19.4,19.4,0,0,0,158.4,15.7Zm1.1,1.8.6.2h.1c1.3-.1,2-.2,2.1-.5h-.7C160.2,17.1,159.5,17.2,159.5,17.5Zm.8,29.8h0c0,.2.4.4,1.2.4v-.2h0l.2-.3-.2-.2h-.4C160.6,47,160.3,47.1,160.3,47.3Zm3.2-30.2h0c0,.2.6.3,1.7.4h0l-1.1-.4Zm.2,27.5h.1c.4,0,.6-.1.7-.3h0C164,44.3,163.7,44.4,163.7,44.6Zm.1-28.9h0c0,.2.4.4,1.2.4l.2-.2c0-.2-.2-.3-.7-.3Zm.5-2h-.1v.2h.4v-.3Zm1.2,31.8h0a6.6,6.6,0,0,0,2.2-1.2h-.1A4.7,4.7,0,0,0,165.5,45.5Zm.2-29.3h0l.2.3h.2v-.2l-.2-.2Zm.7,27h.1c1.1-.4,1.6-.8,1.6-1.2H168c-1.1.5-1.7.9-1.7,1.2ZM169,17.9v.3h.1l.2-.2H169Zm1.1,22.2h.2a1.9,1.9,0,0,0,.8-.8h0C170.6,39.2,170.3,39.5,170.1,40.1Zm2.3-20.7h.4l.3-.3v-.3H173A.5.5,0,0,0,172.4,19.4ZM174.1,37h0c.3.9.5,1.3.8,1.3h.1V38C174.8,37.4,174.5,37,174.1,37Zm1.2-1.2V36q0,.8,2.4,4.8h.3l.2-.2a27.4,27.4,0,0,1-1.8-3.8l-.8-1Zm.3,6.3v.3l.2.2h.4q.2,0,.9-.9h0c0-.1-.3-.2-1.1-.4S175.6,41.5,175.6,42.1Z" transform="translate(-0.5 0)" style="fill:#b75326"/><path d="M184.1,1.3c5.2.2,7.9.7,7.9,1.4l.4,9.1a38.7,38.7,0,0,1-1.3,6.3,14.9,14.9,0,0,0-.3,2.5V21h.1a15.5,15.5,0,0,1,9.5-3.2c1,0,2.9.6,5.7,1.7a18.5,18.5,0,0,1,2,2.6,2.1,2.1,0,0,1,.6.8v.6c1.1,1,1.7,2.6,1.7,4.9.2,0,.3,2,.3,6.1h0a64.2,64.2,0,0,1-1,6.8l-.2,1.2h1.3c1.3.1,2,.2,2,.5s-.6.3-1.9.4h0c0,.1.4.3,1.4.5l.2.3v.2c-.8.1-1.1.2-1.1.3s1.1.4,1.1.8-.5,2.9-1.6,2.9h-.6c-1.6,0-2.4-.2-2.4-.7a7.9,7.9,0,0,0-2.5-.3l-1.8-.9v-.2a63.4,63.4,0,0,1,.8-7.8,40.2,40.2,0,0,1,1.1-6.5V30.1l.2-.2a2.1,2.1,0,0,1-.9-1.8,7.8,7.8,0,0,0-1.2-2.1,10.8,10.8,0,0,0-2.6-.9,8.9,8.9,0,0,0-6.2.2c-2.6,1.9-4,3.2-4,4l-.4,4.1.2,4.1c-.3,3.1-.6,4.6-.9,4.6v.3h.5l1-.5c1,.2,1.5.5,1.5,1l-.4.3v.3c0,.2.3.3.8.4v.4c-.2,2.1-.5,3.2-.9,3.2h-.2q-.9-.6-6.6-.9c-2.8-.2-4.1-.6-4.1-1.2V44.4c-.1-.1,0-.4.3-.8v-.4a4.1,4.1,0,0,1-.7-1.2c.2-.2,1.2-.3,3-.4s.5-.8.6-2.4.6-.8.7-1.9a1.4,1.4,0,0,0,.4-1h0a3,3,0,0,0-.7-1.9l.7-1.5c.2,0,.4-4.6.5-13.6l.8-9.1V7.4c0-.9-.3-1.3-.8-1.3h-2l-1.4.4c-.2,0-.3-.6-.4-1.7V4.1c0-1.8.3-2.7.7-2.7Zm-2.1,42v.2h2.6c0-.3-.6-.4-1.8-.5S182.1,43.1,182,43.3Zm.8,2.1h0a12.7,12.7,0,0,1,3.1.7,37.6,37.6,0,0,1,5.3.5h.2l.2-.3h0c0-.4-1.9-.6-5.9-.6a4.3,4.3,0,0,0-2.4-.6C182.9,45.2,182.8,45.3,182.8,45.4ZM183.2,3v.5h.3V3.2l-.2-.2Zm1-.8v.2a3.3,3.3,0,0,0,2.1.6V2.7a6.3,6.3,0,0,0-2.2-.5Zm.5,1.2v.4h.8V3.6l-.7-.2Zm.2,38.1q0,.3,2.1.6h.3v-.5a.5.5,0,0,0-.5-.3h-1.2C185.2,41.2,185,41.3,184.9,41.5Zm.2-37h0c0,.2.2.2.5.2h.8V4.5h-1.3Zm3,7.7a7.6,7.6,0,0,0-.2,2.2c.5,0,.8.4.8,1.1h.1c0-.2.1-.7.1-1.2v-.9h-.1l-.2.7h-.2v-.4c0-.3.1-.5.2-.5h.4C188.9,13.1,188.6,12.7,188.1,12.2Zm.4-1.7v.2l.3.2h.2v-.2l-.2-.3h-.1Zm.1-1.8v.4l.2.2.2-.2V8.7l-.2-.2Zm.9,18.2v.4h.1c.4,0,.7-.3.8-1.1h.1v-.3h-.1A3,3,0,0,0,189.5,26.9Zm.3-24.1c.1.3.3.4.6.6h0A.5.5,0,0,0,191,3h0l-.3-.3h-.6Zm.3,25.2.2.2h.4a.5.5,0,0,0,.5-.3h-.4A1,1,0,0,0,190.1,28Zm.3,15.6v.3l.3.3h.4l.2-.2h0l-.4-.4h-.5Zm.4-.8V43h.2v-.2Zm1.7-19.3h.2c.5-.2.7-.4.7-.6h-.2A2.2,2.2,0,0,0,192.5,23.5Zm2.5,1.4v.2h.1l.3-.3h-.2Zm2.6-3.1h0l.2.2h.4l-.2-.2Zm.8,2h0Zm.9-.7v.3a4.9,4.9,0,0,0,1.7.6l.2-.3c0-.2-.5-.5-1.5-.7Zm1.7-4.7h0c0,.2.2.3.7.4h0c0-.1-.2-.2-.7-.4Zm2.2,6.1h0a.5.5,0,0,0,.6.6h0Q203.6,24.5,203.2,24.5Zm.9,21.6v.2a.8.8,0,0,0,.8.4h.7v-.2c0-.1-.3-.2-.7-.4Zm.2-26.2h0a1.1,1.1,0,0,0,.9.5v-.2A1,1,0,0,0,204.3,19.9Zm.2,25.6h0v.2h.2v-.2l-.3-.2Zm.1-.9h2.7a5,5,0,0,0-2-.4.8.8,0,0,0-.8.6Zm.7-20.9v.2a6,6,0,0,1,1.8,2.8.7.7,0,0,0,.6.4v-.5c0-.8-.6-1.7-1.8-2.9h-.6Zm.5,18.8v.2h.7v-.3l-.2-.2A.5.5,0,0,0,205.8,42.5Zm1.1-16.8h0l-.6,1.3h.2c-.1-.2-.2-.4-.3-.4Zm1.4,14.1h.2c.3,0,.6-1.6,1.1-4.7,0-.4-.1-.7-.4-.8H209C208.7,34.3,208.5,36.1,208.3,39.8Zm.5-14.3h0l.3.4h.2v-.2l-.3-.4H209Zm.4,7.9.2.2h.1v-.4Z" transform="translate(-0.5 0)" style="fill:#b75326"/><path d="M216.6,14.8a2,2,0,0,0,1.3.4l.7-.4c5.6,0,8.4.2,8.4.5v1.5a5.2,5.2,0,0,1,.5,2.4v.9c-.4,5.7-.7,11.2-.9,16.4-.2.2-.2.6-.3,1.2a.6.6,0,0,0,.6.3h.2c2.2,0,3.4.3,3.4.8h-.1v.4a12.8,12.8,0,0,1,.7,4.7l.2,2.4v.2h-8.9c-4.7,0-7-.4-7-1.1a3.1,3.1,0,0,0-.3-1.3.9.9,0,0,1,.6-.7h.1l.6.2h.2l4.2-.3v-.2c-3.5-.2-5.3-.4-5.3-.8V41.3l-.2-1.6c0-.4,1.6-.6,4.7-.6.4,0,.6-1,.6-2.8l.7-16.2h-.1c-1.5,0-2.1-.2-1.6-.5-2.4,0-3.7-.2-3.7-.8a.6.6,0,0,1-.2-.5l.3-.8c0-.1-.1-.3-.4-.6h0c.4-.2.6-.9.7-1.9h.3Zm.2,26.4h0c.3.3,1.5.5,3.8.6h.4q.6,0,.6-.3h0l-4.4-.3Zm.6-25.2v.2h.4c1,0,1.6-.1,1.6-.2l-.2-.2H219C218,15.8,217.4,15.9,217.4,16Zm.3.9v.2c0,.1.2.2.8.2h2.9c.6,0,1-.1,1-.3h0c0-.3-1.2-.3-3.7-.2ZM225,2.7a3.8,3.8,0,0,1,3.4,2.2l.4,2a7.5,7.5,0,0,1-1.4,3,2.9,2.9,0,0,1-2.4.8c-2.6,0-4.2-.4-4.9-1.2a4.9,4.9,0,0,1-.8-3.4H219C220.3,4,221.5,3,222.9,3Zm-3.4,1.8h0q2.1-.3,2.1-.6h-.3Q221.6,4.2,221.6,4.5Zm.3,29.7c.1.3.2.5.3.5s.1-.2.2-.6v-.9a7.7,7.7,0,0,0,.7-2.5V29.5c.2-.2.4-.3.4-.5a3.5,3.5,0,0,1-.3-1.3h0c.2,0,.4-2.3.6-7-.1-.3-.2-.5-.3-.5h-.1c-.6,0-.9,2.1-1,6.1Zm1.4,9.4h-.9v.2h.9l1.7-.2h-1.7Zm-.5-37.3h.4c.5,0,.8-.2.9-.5h-.8a.6.6,0,0,0-.6.5Zm.2,35.6.2.3h.1c.3,0,.5-.2.5-.6h-.3C223.2,41.6,223,41.7,223,41.9Zm.6-4v.3h.2l.2-.2v-.4h-.1Zm0-1.2v.4h.2c.2-.1.3-.3.3-.7V36h-.2C223.8,36,223.7,36.2,223.6,36.7Zm.1-19.8h0a1.8,1.8,0,0,1,1,.6h.2c.1,0,.1,0,.1-.2h.1c.1,0,.3.2.4.6h.1l.8-.7V17h-2.7Zm.3,3.5.3,1-.4,1c.2.4.3.6.4.6h.1v-.7c0-1.6.2-2.3.7-2.3l.2-.2v-.3h-.6C224.3,19.4,224,19.7,224,20.4Zm.6,10.5a12.8,12.8,0,0,0-.6,3.4h.1c.2,0,.5-.9.8-2.6v-.8Zm-.5-21.8h1.3l-.2-.2h-1Zm.8,11.8v.3a.6.6,0,0,0,.3.6h.2l.2-.3v-.3l-.5-.4Zm.8-13.1V8h.2c.3,0,.5-.2.7-.5V7.3h-.2A1,1,0,0,0,225.7,7.8Zm0,7.9.2.2h.1v-.2l-.2-.2Zm1.2-9.6v.2h.1l.2-.2V5.8h-.1Zm1.3,35.8c.1.5.5.7,1.1.7h.2v-.3l.5-.3v-.3a.5.5,0,0,0-.3-.5h-.2c-.1,0-.3.2-.4.6Zm.4-2.7a2.5,2.5,0,0,0,1.2.3h0c0-.2-.2-.3-.7-.3h-.5Zm0,4.1v.2h.1l.2-.3h-.3Zm1.5,2.5V46h.3l.2-.2h-.3Z" transform="translate(-0.5 0)" style="fill:#b75326"/><path d="M252,12.3a5.5,5.5,0,0,0,2.5.9c.9,0,2.6.9,5.2,2.8l.8.3h.3l1.1.5c1.1.9,1.8,1.5,1.9,1.9h0c0,.2-.2.5-.7.9s-1,2-2.6,4.1v.8a8.3,8.3,0,0,0-1.8.5c-.2,0-.5-.3-.7-.9s-1.7-1.3-1.7-1.8l.7-1.9c0-.8-1.3-1.4-4-1.7l-4.1-.3a15.1,15.1,0,0,0-5.7,1.7,7,7,0,0,0-3.1,4.3c-.6,2-1.1,3.2-1.5,3.5l-.6-.5a2.4,2.4,0,0,0-.4,1.5h0l.8-.4c.1,0,.2.1.2.4l-.4,2.8c.2.1.6,1.3,1.2,3.7l-.2.4v.2a4.1,4.1,0,0,1,.5,2c.4,1.2,1.5,2.4,3.6,3.4l3.3,2.4a19,19,0,0,0,9.6-2.4q4.2-3.6,4.2-4.8l-.2-1h0a25.8,25.8,0,0,1,2.7-2.9l1,.9v.2h-.8V34c1.5.1,2.3.6,2.3,1.2s1.3,2.3,2.1,4c.2,0,.4.5.5,1.4s.9.5,1,.7-.3.6-.8.7a5.6,5.6,0,0,0-2.7,2,17.7,17.7,0,0,0-2.2-2.2L259.9,44a14.9,14.9,0,0,0-3.1,2l-6.4,2.1h-.9a21,21,0,0,1-5.9-1.2c-2.8-1.2-4.3-2.1-4.6-2.8-3.5-4.1-5.2-7.4-5.2-9.7l-.2-2.1a19.8,19.8,0,0,0,.6-5.3l1.6-4c0-1.1.8-2.6,2.3-4.4s3.1-3.7,6.8-5.3a30.3,30.3,0,0,1,7.1-1ZM235.8,31.8V32a.7.7,0,0,0,.6.8c.2,0,.2-.7.1-2v-.4h-.2C236.1,30.4,236,30.9,235.8,31.8Zm2.3-8L237,25.7V26l.3.3h.1c.2,0,.6-.7.9-2.1v-.4Zm-.4,9.1a1.5,1.5,0,0,0-.3,1,4.5,4.5,0,0,0,.5,1.3c.2.6.6,1,1,1V36a9.5,9.5,0,0,0-1.1-3.1Zm-.3,4.9v.3c.3.4.6.7.8.7a1.4,1.4,0,0,0-.6-1Zm.4,3h0c0,.7.6,1.3,1.9,2h.5c0-.5-.7-1.1-2.1-1.9Zm.2-18.4h0v.2h.1c.5-.4.7-.7.7-1.1h-.2C238.2,21.8,238,22.1,238,22.4Zm.9,16.8v.3q.2.6.6.6h.1v-.3C239.4,39.4,239.2,39.2,238.9,39.2Zm1-19.2h.2a1.4,1.4,0,0,0,.8-1C240.5,19,240.1,19.4,239.9,20Zm.1,23.7c.4.6,1.9,1.6,4.5,2.8l1.3.4h.1v-.2c-2.7-1.1-4.3-2.1-4.8-2.9l-.7-.3h-.2A.2.2,0,0,0,240,43.7Zm.5-27h.2l.3-.3h-.2Zm1.2-.7,3.2-1.2,2-.9c.8-.2,1.2-.3,1.2-.5h0q-2.7,0-6.3,2.4h-.1Zm.4,27.5h0c0,.3.8.7,2.3,1.2l3,.9h.6l.3-.2h-.1a3.3,3.3,0,0,1-2.3-.9l-1-.4h-.1l-.3.3h-.1a6.7,6.7,0,0,1-2.1-.9Zm.9-25.1h.3l.2-.3h-.2Zm2.3-1.5v.2h.2c.9-.1,1.4-.3,1.4-.6l-.2-.2h-.1C245.7,16.6,245.3,16.8,245.3,16.9Zm2.3-1.2V16h.8c2.4,0,3.7-.2,4-.6s-.3-.2-1-.2A19.4,19.4,0,0,0,247.6,15.7Zm1.1,1.8.6.2h.1c1.3-.1,2-.2,2.1-.5h-.7C249.4,17.1,248.7,17.2,248.7,17.5Zm.8,29.8h0c0,.2.4.4,1.2.4v-.2h0l.2-.3-.2-.2h-.4C249.8,47,249.5,47.1,249.5,47.3Zm3.2-30.2h0c0,.2.6.3,1.7.4h0l-1.1-.4Zm.2,27.5h.1c.4,0,.6-.1.7-.3h0C253.2,44.3,252.9,44.4,252.9,44.6Zm.1-28.9h0c0,.2.4.4,1.2.4l.2-.2c0-.2-.2-.3-.7-.3Zm.5-2h-.1v.2h.4v-.3Zm1.2,31.8h0a6.6,6.6,0,0,0,2.2-1.2h-.1A4.7,4.7,0,0,0,254.7,45.5Zm.2-29.3h0l.2.3h.2v-.2l-.2-.2Zm.7,27h.1c1.1-.4,1.6-.8,1.6-1.2h-.1c-1.1.5-1.7.9-1.7,1.2Zm2.6-25.3v.3h.1l.2-.2h-.3Zm1.1,22.2h.2a1.9,1.9,0,0,0,.8-.8h0C259.8,39.2,259.5,39.5,259.3,40.1Zm2.2-20.7h.5l.3-.3v-.3h-.1C261.8,18.8,261.5,19,261.5,19.4ZM263.3,37h0c.3.9.5,1.3.8,1.3h.1V38C264,37.4,263.7,37,263.3,37Zm1.2-1.2V36q0,.8,2.4,4.8h.3l.2-.2a27.4,27.4,0,0,1-1.8-3.8l-.8-1Zm.3,6.3v.3l.2.2h.4q.2,0,.9-.9h0c0-.1-.3-.2-1.1-.4S264.8,41.5,264.8,42.1Z" transform="translate(-0.5 0)" style="fill:#b75326"/><path d="M278,39.3c.8.3,2,1.4,3.4,3.3h0c0,.6-1.2,1.8-3.4,3.7h0l.9.2h0l-.9.2a7.7,7.7,0,0,1-4-1.7,3.4,3.4,0,0,1-.8-1.9c0-1.7,1.2-3,3.5-3.8Zm.1-37.2h.4a3.8,3.8,0,0,1,2.9,1.4V8.7l.4,8.2a24.3,24.3,0,0,1-.8,6.6v1l.2.8-.3,1.2v.8a5,5,0,0,0,.3,1.9c-.1,1-.3,1.5-.4,1.5h-.1l-.6-.3a12.9,12.9,0,0,0-2.3,1.7h.1c1.8-.1,2.7-.4,2.7-.6h.3l.3.3c0,.6-1.7,1.1-5.1,1.4a.5.5,0,0,1-.5-.3c0-.3.2-.4.8-.5h.2v-.2c0-.1-.2-.2-.7-.4v-.5c0-.2.3-.4.8-.5a2,2,0,0,0,.3-.8h0c0-.2-.4-.3-1.3-.4s-.5-5-.7-15.1a52.9,52.9,0,0,1-.3-6.3V6.4a1.8,1.8,0,0,1,1-1.7l-.7-1c0-.3.2-.4.7-.5h0V2.9h0C275.5,2.4,276.3,2.1,278.1,2.1Zm-2.9,40.6.2.3h.1v-.5h-.1C275.2,42.3,275.2,42.5,275.2,42.7Zm.3-34.1h0V9.9h.2V9.2Q275.7,8.6,275.5,8.6Zm0,2v3.7h.2a16.9,16.9,0,0,0,.3-2.1l-.3-1.5h-.3Zm.1,4.5v.3h.2l.2-.2V15h-.3Zm.6-11.6v.2h.6V3.5h-.6Zm.2,19.4v3.3c.1.6.1.9.2.9s1.1-.9,1.1-1.4v-.2c0-.1-.2-.2-.5-.4s-.2-.6-.2-1.7v-.2h-.1C276.6,23,276.6,22.9,276.4,22.9Zm.2,5.1h.2a.6.6,0,0,0,.3-.6h-.2Q276.8,27.4,276.6,28Zm.5,14.4v.2h.3c.5-.1.8-.2.8-.3l-.2-.2h-.4C277.2,42.1,277.1,42.2,277.1,42.4Zm.1-26.5h0l.2.2h.3v-.5h-.1Zm.2,2.9v.3h.1c.1,0,.2-.4.2-1V16.7C277.6,16.7,277.4,17.4,277.4,18.8Zm.1,22.1c0,.3.4.4,1.3.4h.1c0-.2-.3-.3-.9-.4h-.5Zm.4-15.6v.2h.3v-.3h-.2Zm0,18.2h0v.2h.2l.2-.2v-.2h-.3Zm.6-36.6h-.1v3.8c0,1.3.1,2,.4,2h.1V10a1.2,1.2,0,0,1,.4-1.1V8.7c-.3,0-.5-.5-.5-1.7h-.1Zm0-.7h-.1l.2.3h.1l.2-.2V6.2Zm.7,22.7v.2h0c.8,0,1.2-.3,1.2-.8V28h-.2C280,27.9,279.7,28.2,279.2,28.9Zm.1-14.9v.5l.2.2h.1V13.5h0A.5.5,0,0,0,279.3,14Zm.3-9.4h0c0,.5.1.7.3.7h.1c.2,0,.3-.3.4-1s-.1-.3-.4-.3S279.6,4.2,279.6,4.6Zm.2,12.5v.4h.2l.2-.2v-.2Z" transform="translate(-0.5 0)" style="fill:#231f20"/></g></g></svg>