<svg xmlns="http://www.w3.org/2000/svg" viewBox="0 0 338.6 48.8"><title>icn_rotator_Asset 49_adj</title><g id="Layer_2" data-name="Layer 2"><g id="Layer_1-2" data-name="Layer 1"><path d="M24,17.8c1.6,0,2.9,1.2,4,3.4.3,0,.5.3.9.8l.8,4.6c-.3.5-1.4.7-3.2.7h-.7c-1.5-.2-2.3-.7-2.3-1.5a4.4,4.4,0,0,0-1.4-2.4c-.1-.2-1-.3-2.6-.3a16.2,16.2,0,0,0-5.7,1.2,20.7,20.7,0,0,0-3.1,3.9c.3,7.4.4,11.9.3,13.2s.2.6.7.6h1.6q.9,0,.9.3h0l.3.8-.2,3.4-.3.5-2.9.3h-.3l-1.2.4c-4.8-.2-7.1-.3-7.1-.6s-1.3-.3-1.3-1.1-.1-1.3-.1-2.3.8-1.3,2.4-1.5c0-.4.6-.5,1.7-.5h.2L5,24.7c0-1-.3-1.5-.8-1.5H3.8a9.3,9.3,0,0,0-2.5.6H1.2c0-.1.2-.2.5-.3h0c-.4,0-.6-1.2-.6-3.5,0,0-.1-.4-.2-1.1a8.4,8.4,0,0,1,5.2-1.9H7.6a16,16,0,0,1,3.2.6v.2a2.8,2.8,0,0,0-.5,1.2v.4C13.6,17.6,18.2,17.2,24,17.8ZM2,45l-.2.2v.3h.4v-.4Zm.6-25.9a1.2,1.2,0,0,0,1,.4h.1V19l-.3-.3C2.8,18.8,2.6,18.9,2.6,19.1Zm.7,26.8h0q0,.3,1.8.3H7.3c0-.2-1.1-.3-3.3-.4Zm.2-24.4h.2c.4,0,.7-.1.7-.3H4.2C3.8,21.2,3.6,21.3,3.5,21.5ZM3.5,45H7v-.2H3.6ZM5.2,17.8v.3l.4.4h.5l-.7-.6Zm2.6,9.3v.4a2.5,2.5,0,0,1,.3,1.3,8.8,8.8,0,0,0-.2,2.5v2.5h.1c.2,0,.3-1.9.5-5.7.1,0,.1-.4.1-1.3s-.1-.6-.3-.6H8.3A.9.9,0,0,0,7.8,27.1Zm.5-3.2L8,25.1a.8.8,0,0,0,.4.7h0q.3,0,.3-.9l-.2-1Zm.5,21.4v.2h1l.2-.3c0-.1-.1-.2-.3-.2S8.8,45.1,8.8,45.3Zm.4-26.1h0v.2l.3-.3V19H9.4ZM9.3,18v.3h.3l.2-.2H9.3Zm0,20.7v.5h.3l.2-.3v-.3l-.2-.2h0Zm.1,1.2v.2h.2v-.2Zm1.2-18v.2l.2.2H11l.2-.2v-.2h-.6Zm4.2-1.4h0c.4,0,.8-.6,1.4-1.8v-.3h0A1.6,1.6,0,0,0,14.8,20.5Zm2.3-1.4.3,1.3h.5V19.1l-.2-.2h-.1C17.3,18.9,17.1,19,17.1,19.1Zm1.5-.4h0v.2h.6c.3,0,.5-.1.5-.2H18.6Zm2-.2v.2H21l.2-.3h-.1C20.8,18.3,20.6,18.4,20.6,18.5Zm1.5.4h.3v-.2h-.2Zm.6,3.6H23q.5-.2,1.2-1.5H24c-.7.3-1.1.7-1.1,1.3S22.8,22.2,22.7,22.5Zm1.8,1.6v.2h.1l.3-.3h-.1Zm0-5.4h0v.2h.3v-.2h0v-.2h-.3Zm1.9,2v.2a1.1,1.1,0,0,0,.9.5h.1v-.2a1.4,1.4,0,0,0-.9-.5Z" transform="translate(-0.9 0)" style="fill:#b75326"/><path d="M45.8,15.6c1.7,0,3.8.8,6.3,2.2s3.1,2.7,3.1,3.3c1.7,3.5,2.5,5.6,2.5,6.2v.5a9.4,9.4,0,0,0-.9,2.9H51.1l-1.7.2c-6-.5-10.1-.7-12.4-.7H35.6a3.5,3.5,0,0,0-.7,1.5,4.8,4.8,0,0,1,.4,2.2c0,1.6.2,2.5.7,2.8v.3h0l-.4-.2v.2l.6.6a3.1,3.1,0,0,0,1.1,2c1.4,2.4,2.8,3.9,4.4,4.5a16.3,16.3,0,0,0,4.7.6,3.9,3.9,0,0,0,1.7-.7c.8-.3,2.4-1.6,4.7-4.1h0c0-.1-.3-.2-.8-.3v-.3a6.8,6.8,0,0,1,3.4-3.5l2.3,1.7a49.7,49.7,0,0,0,3.6,4.9v.3c-1.3,1.7-2.3,2.5-2.9,2.5h-.2c0-.9-.5-1.4-1.6-1.5s-1.2.7-2.8,2A13.8,13.8,0,0,1,49,47.9a33.5,33.5,0,0,1-5.7.9l-3.5-1.3c-2,0-3.8-1.1-5.5-3.2a7.3,7.3,0,0,1-1.7-2.7c0-.3-.5-2-1.4-5.1a15.5,15.5,0,0,1-.4-3.4h0a21.9,21.9,0,0,1,4.9-14.4,4.7,4.7,0,0,1,2.9-2.3,32.9,32.9,0,0,1,3.6-.7ZM31.9,31.3h-.1v.2h.1a2,2,0,0,0-.2.9v.3a4.4,4.4,0,0,0,.7,2h.1C32.5,32.7,32.3,31.6,31.9,31.3Zm0-2.3v.4c.1.2.1.4.3.4s.2-.2.3-.6l-.3-.2Zm.8-3.3a5.4,5.4,0,0,0-.8,2.5H32c.2,0,.6-.7,1.1-2.2S32.9,25.7,32.7,25.7Zm.1,11h0V37h.2v-.2h-.3Zm.6,1.1h-.1c.2.6.5,1,.7,1h.1A1.5,1.5,0,0,0,33.4,37.8Zm1.8-8.2h.1l1-.2h0l-.2-.3h-.2A.7.7,0,0,0,35.2,29.6Zm.1-7.4h.1Zm0,3.9v.4h.1l.7-.7v-.2h-.3A.6.6,0,0,0,35.3,26.1Zm.6-1.6v.2c0,.5,3.7,1,11.2,1.5l.6.2h.8a13.6,13.6,0,0,0,3.3.9c0,.1.1.2.4.3a1.7,1.7,0,0,0,.4-1.1V25.3c0-.6-1-1.8-3.1-3.6A5.9,5.9,0,0,0,46.3,20l-2.1-.3c-3.4.7-5.6,1.5-6.7,2.5A16,16,0,0,1,35.9,24.5Zm0-1h0a.5.5,0,0,0,.3-.5h0A.5.5,0,0,0,35.9,23.5Zm.2,21.2v.2c0,.3.4.5,1.1.7l.2.3h0c-.5-.6-.8-1-1.1-1.1Zm.5-23.9V21h0c.6-.2.9-.3.9-.5h-.3A.7.7,0,0,0,36.6,20.8Zm.3,8.4v.3h.3v-.2h-.3Zm.7-11.3h0l.2.2h0c.8-.2,1.2-.4,1.2-.7v-.3l-.2-.3h-.1C37.9,17.2,37.6,17.5,37.6,17.9Zm.8,10.7v.2a46.2,46.2,0,0,0,6.5.5H43.7c0,.2.5.3,1.6.3s2.5-.1,2.5-.4S44.7,28.8,38.4,28.6Zm.6-2.1v.2a8.5,8.5,0,0,0,4.3.8h1.3v-.3Zm.1-6.1a9.5,9.5,0,0,1,2.5-1h-.7Q39.1,19.5,39.1,20.4Zm1-3.4h.1a14.8,14.8,0,0,0,3.7-.7c.3-.1.5-.2.5-.3h-.2a10.8,10.8,0,0,0-4,.9h-.1Zm.5,27.9h0q0,.3,1.2.6h.1a3.6,3.6,0,0,0-1.3-.5Zm2.1-26.6h0c0,.2.9.4,2.6.7h.1v-.2a2,2,0,0,0-1.7-.8h-.2C43,18,42.7,18.1,42.7,18.3ZM44,45.6v.2h.3v-.2Zm2.4,1.6H44.8c-.4,0-.6,0-.6.2h0l.2.2h1.1A18.6,18.6,0,0,0,50,47h0c0-.2-.3-.3-.7-.3H49A5.8,5.8,0,0,0,46.4,47.2ZM45.3,17.3v.2a6.1,6.1,0,0,0,2.5.4h0v-.2c0-.1-.2-.2-.7-.3Zm1.2,1.4h0a25,25,0,0,0,3.7,2h.1l.7-.2h.4L50.3,20l-1.2-.5a2,2,0,0,0-2-1.1h-.2C46.6,18.5,46.5,18.5,46.5,18.7Zm3.6,9.4v.2h.2v-.2Zm.1,1.7c0,.1.4.2,1.1.2h.6c0-.2-.4-.4-1.3-.4S50.2,29.7,50.2,29.8Zm0,14.1h.1a1.1,1.1,0,0,0,.6-.7h-.1C50.4,43.4,50.2,43.6,50.2,43.9Zm.4,2.7c.5,0,.8-.3,1.1-1h-.2C50.9,46,50.6,46.3,50.6,46.6Zm.7-24.9a.6.6,0,0,0,.6.5H52v-.6l-.3-.3C51.4,21.3,51.3,21.4,51.3,21.7Zm.8,20.2h.2c.4,0,.7-.3.8-.8h0C52.7,41.1,52.4,41.3,52.1,41.9Zm.5-19.4a5.4,5.4,0,0,0,1,2.2H54c-.3-1.3-.7-2-1.1-2h-.3Zm.9,15.9h.4c.3,0,.5-.1.5-.2l-.2-.3h-.1A.5.5,0,0,0,53.5,38.4Zm.3,5.8h.3q.6-.6.6-.9h-.1C54.1,43.5,53.8,43.8,53.8,44.2Zm1-18.8V26c.2,0,.3-.2.3-.4v-.2h-.4Zm.2,17,.2.2c.6-.2.9-.5.9-.8H56C55.4,41.7,55.1,41.9,55,42.4Zm1.4-.6h.2a.6.6,0,0,0,.5-.6h-.2C56.6,41.4,56.4,41.6,56.4,41.8Zm2.2-.6h-.1c.2.5.3.8.6.8h0l.2-.2h0A.7.7,0,0,0,58.6,41.2Z" transform="translate(-0.9 0)" style="fill:#b75326"/><path d="M79.1,4.8h.3a34.8,34.8,0,0,1,5.8,1.5,1.5,1.5,0,0,0,.8.5l.4-.2,2.9,3.8c.1-.1.2.1.2.6a12.3,12.3,0,0,1,.6,3.6c0,1.1-.7,1.6-2.2,1.6a7.1,7.1,0,0,1-2-.5h0c-.2,0-.3.2-.4.7h-.2q-.3,0-.9-2.4a23.7,23.7,0,0,0-1.2-3.6c-.6-.4-1.8-.5-3.7-.5h-.1l-4.7,1.1c-1.2.8-1.7,1.3-1.7,1.6q0,8.4.6,8.4t5.4.9c.5.2.7.4.7.6a2.9,2.9,0,0,1,1.2,2.2c0,1.7-1.3,2.6-3.8,2.6H77a3.5,3.5,0,0,1-2-.7h-.4c-.9.1-1.3.2-1.3.4v8.4a24.3,24.3,0,0,0,.3,3.8v3.5c0,.3,1.2.6,3.6,1s3.5.2,4,.6l.2.2c-.3,0-.5,1.2-.8,3.5l-2.6-.3h-.8a54.8,54.8,0,0,0-6.9-.6h-5a1.2,1.2,0,0,1-.3-.9V44.8a16.5,16.5,0,0,0-.2-2.7c0-.3.3-.4,1-.4l2.4.5h1a.8.8,0,0,0,.8-.4h0a12.1,12.1,0,0,1-.6-4.5,12.9,12.9,0,0,1-.3-2.4v-.2a61,61,0,0,1,.8-7.8c0-.2-.4-.3-1.1-.3h-.3a16.5,16.5,0,0,1-4.4.8l-.9-.2c.1-3.8.4-5.7.8-5.7s.2-.3.4-.3h.3q4.8,0,4.8-.3c0-2.6-.1-4.4-.1-5.5s-.1-2-.1-2.6v-.2l-.3-1.1h0a14.6,14.6,0,0,1,1.7-2.4l2.9-3A15.1,15.1,0,0,1,79.1,4.8Zm-15,17.4v.2l.2.2h.3a1.2,1.2,0,0,0,.5-.5l-.2-.3h-.2A.5.5,0,0,0,64.1,22.2Zm.6,3a2.2,2.2,0,0,0-.4,1v.2l.2.2h.6v-.2A1.6,1.6,0,0,0,64.7,25.2Zm1.9,20.1h0c0,.3.8.4,2.5.6h.1a3.3,3.3,0,0,0-2.1-.6h-.5Zm.2-22.6h0a.8.8,0,0,0,.4.7c.3,0,.6-.2,1.1-.6s-.4-.3-1.1-.4h-.1Zm0,19.9v.2c0,.2.3.3,1,.4h.6v-.2L67,42.6Zm.5-18-.2.2h.7C67.8,24.7,67.6,24.6,67.3,24.6Zm1.3,1.1h.8v-.2h-.8ZM70,45.2h0c.4.5.7.7,1,.7h.5A2.5,2.5,0,0,0,70,45.2Zm.8-12.8.2.6v.8c.1,1.3.3,2,.5,2h.1c.2,0,.3-.8.4-2.2v-.3c0-.8-.3-1.2-.8-1.2h-.2C70.8,32.1,70.8,32.2,70.8,32.4Zm.3-5-.2,1.8v1h.1V27.4Zm0,13c0,.5-.1,1.1-.1,1.9h.3l.2-.3v-.8q0-.9-.3-.9Zm0-1.6V39l.2.2h.2v-.4ZM71.4,24v.5h.2V24Zm.1,7.2h-.1v.4h.2v-.5Zm.1-1v.5h.1l.3-.2v-.3Zm.2-1.1v.2h.1v-.2Zm.5,16.7V46c0,.1.4.3,1.2.4h1l.2-.2c0-.2-.5-.4-1.4-.4Zm2-38.7h0a4.9,4.9,0,0,0,3.5-1V6h-.2A6.2,6.2,0,0,0,74.3,7.1Zm0,16.1v.2a1.1,1.1,0,0,0,1,.5h.4v-.2a1.4,1.4,0,0,0-1-.5Zm3.2.7v.2h.3v-.2Zm.2,1.6h.2c1.2-.2,1.8-.4,1.8-.7h-.4C78.2,24.9,77.7,25.1,77.7,25.5Zm.3,19h.6q1.2,0,1.2-.3H78.6C78.2,44.3,78,44.4,78,44.5ZM78.3,9h.2V8.9h-.1Zm.8,37h0l.4.5h.2l.2-.2V46l-.3-.3h-.3Zm.1-38.7h0l.4.2h1.1c0-.2-.3-.3-1-.3Zm4.5-.2a2.6,2.6,0,0,0,1.9,1.2V7.8a2.4,2.4,0,0,0-1.7-1h0C83.7,6.8,83.7,6.9,83.7,7.1Zm.7,3.3h0a2.3,2.3,0,0,0,.5,1.5h.3v-.4c0-.8-.3-1.2-.8-1.2Zm1.3,3.9h.4V13.3h-.1A1.1,1.1,0,0,0,85.7,14.3Z" transform="translate(-0.9 0)" style="fill:#b75326"/><path d="M92.5,16l4.3,1.4a4.4,4.4,0,0,0,.7,2V20c-.4,2.6-.4,8-.3,16.5a2.1,2.1,0,0,0,1.5,2.3l.4,1.1c0,.2,1.4.5,4.1.6h.3c.8,0,1.9-.9,3.2-2.8a9.5,9.5,0,0,0,1.9-2.3h.3v-.7a6.8,6.8,0,0,0,.6-1.6h.1v-.6l1.1-11.7V19.6l-.2-.6h0a1.6,1.6,0,0,0,.7-1.5c0-.4.2-.7.5-.7l1.4.7h1.4a4.9,4.9,0,0,1,3.5,1v.3c-.5,0-.7.1-.7.2l.6,1.5h.2c0-.6.1-.9.2-.9a4.1,4.1,0,0,1,.3,1l-.6,7.7h.1a43.3,43.3,0,0,0-.9,7.5v1.8c0,2.7.1,4,.4,4h.2a13.8,13.8,0,0,0,3.6-.5c.2,0,.6.3,1.1.8-.1,3.6-.4,5.5-.7,5.5l-.7-.6-1.9.2-6.8-.2c-.4,0-.7-.8-1.1-2.4a1,1,0,0,1-.4-.8V43h-.2a19.8,19.8,0,0,0-3.6,1.7,18.9,18.9,0,0,1-4.3,1.8,11.8,11.8,0,0,1-2.5,1,12,12,0,0,0-3-1.1,16.7,16.7,0,0,1-4.7-6.8c-1.1-1.5-1.6-4.7-1.6-9.7l.7-7.2v-.2a20.2,20.2,0,0,0-4.2-.8c-.3-.4-.4-1.4-.4-3.1s.2-1.7.6-1.7S89.4,16.1,92.5,16ZM88,18.9v.2h.9v-.2Zm0,1.9.2.2h.5v-.2l-.2-.2h-.3Zm.4-1.3v.2q0,.3.6.3h.1l-.3-.4Zm.9.8h.1l.5-.3v-.2h-.3Zm1.1,0c0,.3.7.7,2,1.1h.7c.1,0,.2-.2.2-.4a3.2,3.2,0,0,0-1.7-1h-.4C90.7,20,90.5,20.1,90.4,20.3Zm.9-3.5V17h.4v-.2h-.4Zm1.1,6.7v.6l.9-.3V22.4h-.1C93,22.3,92.7,22.7,92.4,23.5Zm0,10.8v.2c0,1.6.9,4.1,2.6,7.5.3.3.5.4.7.4V42l-1.8-4.9a9.7,9.7,0,0,0-1.2-3h-.1Zm.3-17h0c0,.1.3.3.9.5s.1.9.2.9h.4c1,0,1.6-.2,1.8-.5h0c0-.3-.7-.5-1.9-.7s-.2-.2-.7-.3h-.7Zm.5,13.1v.3h0V31l.3-.2v-.3Zm1.5,2.2V33a1.5,1.5,0,0,0,.9,1.3h.1c0-1.5-.1-2.3-.4-2.3h-.2A.5.5,0,0,0,94.7,32.6Zm.4-11.8V22h.1c.3-.1.4-.3.4-.7v-.7c0-.3,0-.5-.2-.5h-.1C95.2,20.2,95.1,20.4,95.1,20.8Zm.8,15.9h0a.5.5,0,0,0,.5.3h0C96.4,36.8,96.2,36.7,95.9,36.7ZM97,41.1v.2a.5.5,0,0,0,.5.3v-.3l-.2-.2Zm3.6,4.1h-.5L97.6,45h-.1l-.2.2h0c0,.3,1.1.8,3.4,1.2a12.1,12.1,0,0,0,4.1-1.5h.1v-.2h-.4A16,16,0,0,1,100.6,45.2Zm-3-5.3h0v.2h.1V40Zm1,1.7h0c0,.5.7,1.1,2.2,2a10.4,10.4,0,0,0,2.4-1.2h0a25.5,25.5,0,0,1-4.4-.7Zm3.2,2.2V44h.7a6,6,0,0,0,3.2-1.7v-.2h-.3A19.8,19.8,0,0,0,101.8,43.8Zm5.1-5h.2a6.3,6.3,0,0,0,1.4-2.2h-.1A8.3,8.3,0,0,0,106.9,38.8Zm3.2-1.7c-.3.3-.4.5-.4.7l.3.2h.1l.2-.2v-.4Zm.4,3.8h.2l.3-.4v-.2A.5.5,0,0,0,110.5,40.9Zm1.2-22.8c0,.4.4.6,1,.6h.5c0-.2-.4-.3-1.4-.4Zm.4,15.5v.6l.2.2.6-.5v-.3l-.3-.2h-.3Zm0-13.3h0l.5.2h.1l.5-.2h0a1,1,0,0,0-.7-.2h-.1Zm0,20.7v.7c0,2.9.2,4.4.5,4.4h.3c.2-.1.3-.2.3-.4a20,20,0,0,1-.5-4.5l-.3-.4Zm.2-3v.4h.2v-.2h-.2Zm.1-5.3.3.3c.2,0,.3-.5.4-1.2h-.2A1,1,0,0,0,112.4,32.7Zm.8-5.9v.3h.1c.4,0,.6-.5.6-1.4s-.1-.6-.2-.6S113.4,25.7,113.2,26.8Zm.3,10v.4a12.1,12.1,0,0,0,.3,2.5h.2a6.2,6.2,0,0,0,.2-1.8v-.4c0-.5-.2-.7-.6-.7Zm0-.8h0l.2.2.2-.2v-.2h-.3Zm1.3,8.8h0c.1.2.3.3.7.3h.8c0-.2-.3-.3-.8-.4h-.6Zm.7-16V29q.1.3.3.3h0v-.5Zm.8,11.1-.6.9V41h.6l.2-.2v-.3A.8.8,0,0,0,116.3,39.9Zm1.8,2.9V43h.6c.9,0,1.4-.2,1.4-.4H120Zm1.6.8V44h.3v-.2h0c0-.1,0-.1-.2-.1Z" transform="translate(-0.9 0)" style="fill:#b75326"/><path d="M147.3,17.8c1.6,0,3,1.2,4.1,3.4.2,0,.5.3.9.8l.8,4.6c-.4.5-1.5.7-3.3.7h-.6c-1.6-.2-2.3-.7-2.3-1.5a4.1,4.1,0,0,0-1.5-2.4c-.1-.2-.9-.3-2.6-.3a17.1,17.1,0,0,0-5.7,1.2,25.8,25.8,0,0,0-3.1,3.9c.3,7.4.4,11.9.3,13.2s.3.6.8.6h1.5c.7,0,1,.1,1,.3h0l.2.8v3.4l-.4.5-2.9.3h-.2l-1.3.4c-4.7-.2-7.1-.3-7.1-.6s-1.2-.3-1.2-1.1a14.2,14.2,0,0,1-.1-2.3c0-.7.8-1.3,2.4-1.5,0-.4.5-.5,1.6-.5h.2l-.4-16.9c0-1-.2-1.5-.7-1.5h-.4a8.6,8.6,0,0,0-2.5.6h-.1c0-.1.2-.2.5-.3h0c-.4,0-.6-1.2-.6-3.5-.1,0-.2-.4-.2-1.1a8.3,8.3,0,0,1,5.1-1.9H131a15.4,15.4,0,0,1,3.1.6v.2a2.2,2.2,0,0,0-.6,1.2v.4C136.9,17.6,141.5,17.2,147.3,17.8ZM125.3,45l-.2.2v.3h.4v-.4Zm.6-25.9a1.4,1.4,0,0,0,1.1.4h0V19l-.3-.3C126.2,18.8,125.9,18.9,125.9,19.1Zm.7,26.8h0q0,.3,1.8.3h2.3c0-.2-1.1-.3-3.3-.4Zm.3-24.4h.2c.4,0,.6-.1.7-.3h-.2C127.2,21.2,126.9,21.3,126.9,21.5Zm0,23.5h3.5v-.2H127Zm1.6-27.2v.3l.4.4h.5l-.7-.6Zm2.6,9.3v.4a2.5,2.5,0,0,1,.3,1.3c0,.2-.1,1-.2,2.5l.2,2.5h0c.2,0,.4-1.9.5-5.7.1,0,.2-.4.2-1.3s-.2-.6-.3-.6h-.2A1.1,1.1,0,0,0,131.1,27.1Zm.5-3.2-.3,1.2a.8.8,0,0,0,.4.7h.1q.1,0,.3-.9l-.3-1Zm.6,21.4v.2h.9l.3-.3c0-.1-.1-.2-.3-.2S132.2,45.1,132.2,45.3Zm.4-26.1h0v.2l.3-.3V19h-.2Zm.1-1.2v.3h.3l.2-.2h-.5Zm0,20.7v.5h.2l.3-.3v-.3l-.2-.2h-.1Zm.1,1.2v.2h.1v-.2Zm1.1-18v.2l.2.2h.2l.2-.2v-.2h-.6Zm4.3-1.4h0c.3,0,.8-.6,1.4-1.8v-.3h-.1A1.6,1.6,0,0,0,138.2,20.5Zm2.3-1.4.2,1.3h.6V18.9h-.2C140.6,18.9,140.5,19,140.5,19.1Zm1.4-.4h0l.2.2h.6a.6.6,0,0,0,.5-.2h-1.3Zm2-.2v.2h.4l.3-.3h-.2C144.1,18.3,143.9,18.4,143.9,18.5Zm1.6.4h.3v-.2h-.2Zm.6,3.6h.2c.3-.1.7-.6,1.3-1.5h-.3c-.7.3-1.1.7-1.1,1.3A.6.6,0,0,0,146.1,22.5Zm1.7,1.6v.2h.1l.3-.3h-.1Zm.1-5.4h0v.2h.2l.2-.2h0l-.2-.2H148Zm1.9,2v.2a1,1,0,0,0,.8.5h.1v-.2a1,1,0,0,0-.8-.5Z" transform="translate(-0.9 0)" style="fill:#b75326"/><path d="M154.2,1.9h-.1c0,.2.2.3.5.3h.1V2.3l-.2-.3h2.5c1.4,0,2.1.4,2.1,1.3l.3.2h.3l-.2-.5h.2q1.5,0,1.5,3.3c0,5.1.3,8.8,1,11.1h.1l3.9-.2c4.7.3,7,.7,7,1.2l2.4,1.9a14.3,14.3,0,0,1,4.5,5.8c.8.8,1.1,3.1,1.1,6.8v1.9a18.5,18.5,0,0,0-1.8,4.5c0,1.5-1.7,3.5-5,5.9-.4,1-2.9,1.5-7.5,1.6a23.2,23.2,0,0,0-4.2-.5h-1.4c-.7,0-1,.2-1,.8l-1.4,1.7-1.6.3a8.7,8.7,0,0,1-3-1.2v-.2a2.6,2.6,0,0,0,.4-1V46l-.2-1.1v-2l-.2-1.2a49.2,49.2,0,0,0,.7-5.4l.2-.6v-.8l.5-4.4v-.3c0-.8-.3-4.2-.8-10H155v-.6c.2-2.9.3-5.2.3-7V7.5h-.1a9.1,9.1,0,0,1-3.4,1.2c-.5,0-.8-1.1-1-3.3a5.4,5.4,0,0,1,.4-.8h-.4c0-1.6.2-2.3.6-2.3A8.5,8.5,0,0,1,154.2,1.9Zm-2.8,1.2h0c0,.2.4.3,1.3.5s1.2-.1,1.2-.3h0l-1.8-.2Zm.9,1.5v.9l.6.3c.7,0,1-.2,1.1-.5a2.5,2.5,0,0,0-1.5-.7Zm1.9.2h0l.2.2h.5l-.2-.2Zm.9,38h0l.2.2h.1v-.2h-.3Zm.5-37.7.2.2h.6l.3-.3V4.7l-.2-.2h-.1C155.9,4.5,155.6,4.7,155.6,5.1Zm.1-2.2h0Zm.9,42.2v.2l.2.3h.3v-.3l-.3-.3Zm.3-42h.5V2.9h-.3Zm.7,1.1V5.3h.2a1.2,1.2,0,0,0,.5-1,.6.6,0,0,0-.2-.5h-.2Zm.1,5.6c.1.9.2,1.3.4,1.3h.1c0-1-.2-1.5-.4-1.5S157.7,9.6,157.7,9.8Zm.4,35.3h.2c.4-.2.5-.3.5-.6h-.3C158.2,44.6,158.1,44.8,158.1,45.1Zm.6-3.8v.4h.4a.5.5,0,0,0-.3-.5ZM159.6,2v.2h0Zm1,30.6a21.8,21.8,0,0,0,.1,2.8v4.3c0,.6,1,1.1,2.9,1.7l2.4.2a20.4,20.4,0,0,0,7.7-2,14.4,14.4,0,0,0,3.3-4.9l.4-1.5a13.5,13.5,0,0,0-2-6.6,6.4,6.4,0,0,0-1.9-3.5l-2.8-2a23.3,23.3,0,0,0-9,2c-.3,0-.6,1.4-.7,4.3A37.4,37.4,0,0,0,160.6,32.6ZM161,44v.2l1,.3h.2v-.2l-.8-.3Zm.1-2.9h0c.1.2.2.3.4.3h0C161.5,41.1,161.4,41.1,161.1,41.1Zm1.2-20.6v.2h.1c1.1-.2,1.6-.3,1.6-.5V20h-.1A4.7,4.7,0,0,0,162.3,20.5Zm2.8-1.8.2.2h.4l.5-.2v-.3h-.3A1,1,0,0,0,165.1,18.7Zm1.4,25.5h.7a2.5,2.5,0,0,0,1.7-.4v-.2h-.2A4,4,0,0,0,166.5,44.2ZM169.6,18v.2a.8.8,0,0,0,.7.3h.1v-.2l-.3-.3Zm1.3,25.3v.2h.6l.2-.3h-.8Zm.6,2.3v.2h.2v-.2Zm.3-25.3c0,.4.6.7,1.8,1.1S175,23,175.3,23h0a3.2,3.2,0,0,0-1-1.8,8.5,8.5,0,0,0-2.2-.8Zm.3,20.8v.2h.3c.6,0,.8-.2.8-.3l-.2-.3h-.3A.6.6,0,0,0,172.1,41.1Zm1.9,1.7v.3c1.3-.4,2.1-.7,2.2-1h0A7.4,7.4,0,0,0,174,42.8Zm2.5-3.2h0l.2.2c.4-.2.7-.5.7-.8l-.2-.2H177A.8.8,0,0,0,176.5,39.6Zm.9-11.9v.2h.3v-.2Zm.6,13h0c.6,0,1-1,1.2-2.8h-.4a8.1,8.1,0,0,0-.7,2.3C178,40.3,178,40.4,178,40.7Zm1.6-14.6v.2c0,.3.1.5.4.5h.1a.6.6,0,0,0-.4-.6Z" transform="translate(-0.9 0)" style="fill:#b75326"/><path d="M183.1,14.8a1.6,1.6,0,0,0,1.2.4l.8-.3c5.6,0,8.4.1,8.4.5v1.4a6.7,6.7,0,0,1,.4,2.4v1c-.4,5.7-.7,11.1-.9,16.3a8.6,8.6,0,0,0-.3,1.3.6.6,0,0,0,.6.3h.2c2.3,0,3.4.2,3.4.7h-.1v.4a11.3,11.3,0,0,1,.7,4.7l.2,2.5h-9c-4.7,0-7-.3-7-1.1a3.5,3.5,0,0,0-.3-1.3,1.3,1.3,0,0,1,.6-.7h.2a.6.6,0,0,0,.5.2h.2a30.7,30.7,0,0,0,4.2-.3h0c-3.5-.2-5.2-.5-5.2-.8V41.3l-.2-1.5c0-.5,1.6-.7,4.7-.7q.6,0,.6-2.7l.7-16.3h-.1c-1.5,0-2-.1-1.6-.4q-3.6,0-3.6-.9c-.2,0-.3-.2-.3-.5l.3-.7a.7.7,0,0,0-.4-.6h0c.4-.3.6-.9.8-2h.3Zm.1,26.5h0c.3.4,1.6.6,3.8.6h.4q.6,0,.6-.3h0l-4.4-.3Zm.7-25.2v.2h.3c1,0,1.6-.1,1.6-.3h-.3C184.4,15.9,183.9,15.9,183.9,16.1Zm.2.9h0c0,.1.3.2.8.2h2.9c.7,0,1-.1,1-.2h0c0-.3-1.2-.3-3.6-.1Zm7.3-14.3a4,4,0,0,1,3.4,2.2l.4,2.1a9.4,9.4,0,0,1-1.3,3,3.7,3.7,0,0,1-2.5.8q-3.9,0-4.8-1.2a4.6,4.6,0,0,1-.9-3.4c-.2,0-.2-.1-.2-.2h0C186.7,4,188,3,189.3,3ZM188,4.6h0a5.3,5.3,0,0,0,2.1-.5l-.3-.2C188.6,4.1,188,4.3,188,4.6Zm.4,29.7c0,.3.1.5.2.5s.2-.2.2-.6v-1a9.2,9.2,0,0,0,.6-2.4V29.5c.3-.1.4-.3.4-.4a3.9,3.9,0,0,1-.3-1.4h0q.3,0,.6-6.9c-.1-.4-.2-.5-.3-.5h-.1c-.6,0-.9,2-1,6.1Zm1.3,9.3h-.9v.2h2.7v-.2h-1.8Zm-.5-37.3h.4c.5,0,.8-.1.9-.5h-.8a.6.6,0,0,0-.6.5Zm.2,35.7.2.2h.1c.3,0,.5-.2.5-.6h-.3C189.6,41.6,189.4,41.7,189.4,42Zm.6-4.1v.3h.2l.2-.2h0v-.2h-.1Zm0-1.1v.4h.2c.2-.1.3-.3.3-.8V36h-.1C190.2,36,190.1,36.2,190,36.8Zm.1-19.9v.2c.3,0,.6.2,1.1.6h.1a.2.2,0,0,0,.2-.2h.1q.2,0,.3.6h.1l.8-.7v-.3h-2.7Zm.3,3.5.4,1-.4,1c.1.5.3.7.4.7h0v-.8c0-1.5.3-2.3.7-2.3l.2-.2v-.3h-.6C190.7,19.4,190.4,19.8,190.4,20.4Zm.6,10.5a14.1,14.1,0,0,0-.6,3.5h.1c.2,0,.5-.9.8-2.6v-.9Zm-.5-21.8v.2h1.1l.2-.2h-1.3Zm.8,11.9v.3a.5.5,0,0,0,.3.5h.2l.2-.2v-.3a.8.8,0,0,0-.4-.4Zm.8-13.2V8h.2a.8.8,0,0,0,.7-.4V7.4h-.2A.9.9,0,0,0,192.1,7.8Zm0,8,.2.2h.1v-.2l-.2-.2Zm1.2-9.7v.2h.1l.2-.2V5.8h0Zm1.4,35.8c0,.5.4.8,1,.8h.3v-.2l-.2-.2q0-.1.6-.3v-.4a.5.5,0,0,0-.3-.5h-.3c-.1,0-.2.2-.4.6Zm.3-2.7a2.8,2.8,0,0,0,1.3.4v-.2c0-.1-.3-.2-.8-.3H195Zm0,4.2h.1l.2-.2h-.1Zm1.5,2.5h.5v-.2h-.1Z" transform="translate(-0.9 0)" style="fill:#b75326"/><path d="M212.5,9.4a63.9,63.9,0,0,1,9.3,1.8,26.1,26.1,0,0,0,4.1,1.7,2.4,2.4,0,0,0,.5-1.8h0v-.5c0-.5.4-.8,1.2-.8a4.1,4.1,0,0,1,2.1-.5c1.2,0,1.8.1,1.8.4l.6,5.8v1.8c0,1.5-.2,2.3-.6,2.6s-.7.6-.9.6c-2.3-.2-3.4-.5-3.4-1a3.5,3.5,0,0,0-2.2-2.1c-4-2-6.8-3-8.5-3h-1.8q-3,0-3.6,1.2a4.6,4.6,0,0,0-.8,2.7h0c0,2.3,1.2,4.1,3.6,5.6a15.2,15.2,0,0,0,6.1,1.4c0,.4.9.9,2.8,1.4a2.7,2.7,0,0,0,2.4.9c1.3.6,3.1,2.1,5.5,4.7l.2.3v.2h-.3a10.1,10.1,0,0,1,.8,2.2c0,3.7-.6,6.1-1.8,7s-1.6,2.2-3.3,3.3a8.9,8.9,0,0,1-6,2.6h-2.1c-3.3-.5-4.9-.9-4.9-1.2a14.9,14.9,0,0,0-3.3-2,11.3,11.3,0,0,1-4.2-2.9h-.2c-.6,1.4-1,2.1-1.3,2.1-2.6-.4-3.9-.8-3.9-1.3a31.5,31.5,0,0,1-.4-5.4l.6-3.8c0-1.4.2-2.1.5-2.1l3.9-.5c.3,0,.6,1.2.9,3.5l1.8,3.1a49.9,49.9,0,0,0,5.4,3.7,5.3,5.3,0,0,0,3.9,1.6h2.2a4.7,4.7,0,0,0,4.4-2.2,8.6,8.6,0,0,0,2.1-4.5h0c0-1.3-1-2.8-3.1-4.5a4.3,4.3,0,0,0-3.5-1.6c-.7-.4-2.5-.7-5.5-1.1l-5-2.6-2.4-2.1a8.4,8.4,0,0,1-1.6-3.3v-1l-.2-2.4a3.1,3.1,0,0,1,1.1-2c0-.5,1-1.7,3-3.4s2.9-1.8,3.2-2.4ZM200.8,38.3v1.6h0c.3-.3.4-1.3.4-3v-.5h-.2C201,36.3,200.9,36.9,200.8,38.3Zm1.7,3.2v.2l.3.3h0l.2-.2h0l-.2-.2Zm.4-8.2v.3h.4v-.3ZM205.4,17a7.6,7.6,0,0,0,.3,1.6h.2V16.8h-.2Zm.1,22.4v.2a2.4,2.4,0,0,0,1.8,1.2h0v-.2c-.8-.8-1.4-1.2-1.7-1.2Zm.4-24V16h.1l.3-.6h-.3Zm1,7.4h0v.2h.2v-.3h-.3Zm.1-5.2v.2h.2l.2-.3h-.1Zm.7-2.8h.4v-.2h-.4Zm.4,8.3h0c.3.9.5,1.3.8,1.3h.2l.3-.3h0c-.5-.7-.9-1-1.3-1Zm.1-7.4h.3c1-.6,1.4-1.1,1.4-1.5h-.2q-.6,0-1.5,1.5Zm1.5,6.9h.8c-.1-.2-.3-.3-.7-.3Zm1.5.5h-.1v.4l.4.4h.3v-.3A.7.7,0,0,0,211.2,23.1Zm0,3.2h0c0,.2.3.5.8.7h.1Q212.1,26.6,211.2,26.3Zm.4,18.5h0c0,.2.6.4,1.7.7l.2.2h.3c-.1-.6-.2-.8-.4-.8Zm.6-34.5v.2c0,.2.3.3.8.4s1.7-.2,1.7-.4v-.2c0-.3-.6-.5-1.8-.5A1,1,0,0,0,212.2,10.3Zm1,14.2h-.1a7,7,0,0,0,2.3,1.3l.2-.2C215.6,25.6,214.8,25.1,213.2,24.5Zm.8-11.6a.9.9,0,0,0,.6.3,1.9,1.9,0,0,0,1.3-.6l-.3-.3h-.7Q214,12.3,214,12.9Zm.8,33.6h0l.2.3h.5c0-.1-.2-.2-.6-.2Zm.4-.9v.3h.2v-.2Zm.9,1.2a4.3,4.3,0,0,0,2.4.5h2.8c-.2-.3-1.6-.5-4.3-.5C216.4,46.6,216.1,46.7,216.1,46.8Zm.5-32.9c0,.3.7.5,2.2.6v-.2c0-.2-.6-.4-1.9-.6h-.1Zm0,12.2c0,.2,1.4.6,4.4,1.2h1a9.7,9.7,0,0,0-4.6-1.6C216.9,25.9,216.6,26,216.6,26.1Zm.7,1.8v.2l1,.3h.7A5.4,5.4,0,0,0,217.3,27.9Zm4.6,18.7v.2h.4c.8,0,1.1-.1,1.1-.3h-1.5Zm.5-33.7h0c0,.2.2.3.7.3h.2Q223.3,12.9,222.4,12.9Zm.7,2.3H223a8.2,8.2,0,0,0,2.5,1.1h0Q225.5,16,223.1,15.2Zm.3,13.6h0a19.4,19.4,0,0,0,3.2,1.9,3.8,3.8,0,0,0,1.9,1.1h.1v-.2c-.9-1.3-2.5-2.2-4.8-2.9Zm1.4,12.8v.3h.1a2.4,2.4,0,0,0,.9-1.1v-.2A3,3,0,0,0,224.8,41.6Zm.6-9.1v.3c0,.4.4.9,1.1,1.5h.3v-.5c0-.5-.5-1-1.3-1.3Zm.6,11.4h0c0,.1.1.1.2.1s1.3-.6,2.1-1.9h-.2Zm.1-29.2a5.3,5.3,0,0,0,2,.9h.1c0-.3-.6-.5-1.9-.8h-.2Zm.1,22.6v.3h.3v-.4Zm1.5-18.2a2.5,2.5,0,0,0,1.7.4h1.3v-.3h-3Zm.6-9v.2c.5.7.9,1.1,1.2,1.1a1.3,1.3,0,0,0,.8-.7v-.2C230.3,10.3,229.6,10.1,228.3,10.1Zm1.3,27.7v.3l.2.2h.1c.3-.1.4-.4.4-1h-.2Zm.8-25.5h.4v-.3h-.3Z" transform="translate(-0.9 0)" style="fill:#b75326"/><path d="M236.5,1.3q7.8.3,7.8,1.5l.5,9a48.2,48.2,0,0,1-1.3,6.3,10.3,10.3,0,0,0-.4,2.6v.4h.2a14.9,14.9,0,0,1,9.5-3.2,17.4,17.4,0,0,1,5.7,1.7,18.5,18.5,0,0,1,2,2.6,1.9,1.9,0,0,1,.6.7v.6a6.5,6.5,0,0,1,1.7,4.9c.2,0,.3,2.1.3,6.1h0a68.1,68.1,0,0,1-1,6.9l-.2,1.1h1.3c1.3.1,2,.3,2,.6s-.6.3-1.9.4h0c0,.2.4.3,1.4.6l.2.3h0l-1.2.3c.8.2,1.2.5,1.2.8,0,2-.6,3-1.6,3h-.6c-1.6,0-2.4-.3-2.4-.8a7.9,7.9,0,0,0-2.5-.3,7.5,7.5,0,0,0-1.8-.8v-.2a50.1,50.1,0,0,1,.8-7.9,39,39,0,0,1,1.1-6.4l-.2-2.2.3-.3a2,2,0,0,1-.9-1.8L255.8,26a10.8,10.8,0,0,0-2.6-.9,8.3,8.3,0,0,0-6.2.3c-2.7,1.8-4,3.1-4,4l-.4,4,.2,4.2q-.5,4.5-.9,4.5v.3h.5l1-.4q1.5.1,1.5.9l-.4.4v.3l.8.4v.3c-.2,2.1-.5,3.2-1,3.2h-.1c-.7-.4-2.9-.7-6.7-.8s-4.1-.7-4.1-1.3v-1c0-.2.1-.4.4-.9v-.4A7,7,0,0,1,233,42a11.6,11.6,0,0,1,3.1-.3q.3,0,.6-2.4a2.9,2.9,0,0,0,.7-2,1.3,1.3,0,0,0,.4-1h0a3.2,3.2,0,0,0-.7-1.9l.7-1.5c.2,0,.4-4.5.4-13.5l.9-9.1V7.5c0-.9-.3-1.4-.9-1.4h-2l-1.3.4c-.2,0-.4-.5-.4-1.6V4.1c0-1.8.3-2.7.7-2.7Zm-2.1,42.1v.2H237c0-.3-.6-.5-1.9-.5A.8.8,0,0,0,234.4,43.4Zm.7,2h.1a13.3,13.3,0,0,1,3,.8,41.3,41.3,0,0,1,5.4.5h.2l.2-.3h0c0-.4-1.9-.6-5.9-.6a4.3,4.3,0,0,0-2.4-.6C235.3,45.2,235.1,45.3,235.1,45.4Zm.5-42.3v.4h.2V3.2h-.2Zm1-.9v.3a3.9,3.9,0,0,0,2,.5l.2-.2a4.9,4.9,0,0,0-2.2-.6Zm.5,1.3h0v.2h.8V3.6h-.9Zm.2,38q0,.4,2.1.6h.3v-.5a.6.6,0,0,0-.5-.2h-1.3C237.6,41.3,237.3,41.4,237.3,41.5Zm.2-36.9h0c0,.2.2.3.4.3h.9V4.6h-1.3Zm3,7.6a8.2,8.2,0,0,0-.2,2.2c.5,0,.8.4.8,1.1h0a2.9,2.9,0,0,0,.2-1.2v-.8h-.1l-.2.6h-.3v-.3c0-.4.1-.5.2-.5h.4A5.8,5.8,0,0,0,240.5,12.2Zm.4-1.6h0l.2.3h.3v-.2l-.3-.3h0Zm.1-1.9v.6l.3-.2V8.8l-.3-.3Zm.9,18.3v.4h.1c.4,0,.7-.4.8-1.1h.1v-.3h-.1A2.5,2.5,0,0,0,241.9,27Zm.3-24.1a1,1,0,0,0,.6.5h0a.6.6,0,0,0,.6-.3V2.9l-.3-.3h-.6Zm.3,25.2h.6c.3,0,.4-.1.4-.2v-.2h-.3C242.8,27.8,242.5,27.9,242.5,28.1Zm.3,15.6V44l.3.3h.4l.2-.3h0l-.4-.4h-.5Zm.3-.9V43h.3v-.2Zm1.8-19.3h.2c.4-.2.7-.4.7-.6h-.2A1.4,1.4,0,0,0,244.9,23.5Zm2.5,1.5h.1l.3-.2v-.2h-.2Zm2.6-3.1h0l.2.2h.4l-.2-.2Zm.8,2h.2v-.2h-.1Zm.8-.8v.3a5.2,5.2,0,0,0,1.8.6l.2-.2c0-.3-.5-.5-1.6-.8Zm1.8-4.6h0l.7.4h0c0-.2-.2-.3-.7-.4Zm2.2,6.1h0a.5.5,0,0,0,.6.6h0Q256.1,24.6,255.6,24.6Zm.9,21.6v.2a.9.9,0,0,0,.8.4h.6v-.2c0-.2-.2-.3-.7-.4Zm.2-26.3h0a.7.7,0,0,0,.8.5v-.2C257.4,20,257.1,19.9,256.7,19.9Zm.1,25.6h.3v-.2l-.2-.2Zm.2-.9h2.6a3.3,3.3,0,0,0-2-.4.8.8,0,0,0-.7.5Zm.7-20.9v.2a9.3,9.3,0,0,1,1.8,2.8c.2.3.4.4.5.4v-.4a4.7,4.7,0,0,0-1.7-2.9h-.6Zm.5,18.8v.3h.5l.2-.2v-.3l-.2-.2A.7.7,0,0,0,258.2,42.5Zm1-16.8v.2l-.5,1.3h.2l-.3-.4Zm1.5,14.1h.1c.3,0,.7-1.5,1.2-4.6,0-.5-.1-.7-.4-.8h-.2C261.1,34.4,260.8,36.2,260.7,39.8Zm.5-14.3h0l.3.3h.2v-.2l-.3-.4h-.1Zm.4,7.9.2.2h.1v-.2h-.3Z" transform="translate(-0.9 0)" style="fill:#b75326"/><path d="M281.7,15.6c1.8,0,3.9.8,6.4,2.2s3.1,2.7,3.1,3.3c1.6,3.5,2.5,5.6,2.5,6.2v.5a9.4,9.4,0,0,0-.9,2.9h-5.7l-1.7.2c-6-.5-10.1-.7-12.5-.7h-1.3a4.3,4.3,0,0,0-.8,1.5,4.8,4.8,0,0,1,.5,2.2c0,1.6.2,2.5.7,2.8v.3h0l-.4-.2v.2l.6.6a3.1,3.1,0,0,0,1.1,2c1.4,2.4,2.8,3.9,4.4,4.5a16.3,16.3,0,0,0,4.7.6,4.4,4.4,0,0,0,1.7-.7c.8-.3,2.4-1.6,4.7-4.1h0c0-.1-.3-.2-.8-.3v-.3a6.8,6.8,0,0,1,3.4-3.5l2.3,1.7a49.7,49.7,0,0,0,3.6,4.9v.3c-1.3,1.7-2.3,2.5-2.9,2.5h-.2c0-.9-.6-1.4-1.7-1.5a14.7,14.7,0,0,0-2.7,2,14.5,14.5,0,0,1-4.9,2.1,30.9,30.9,0,0,1-5.7.9l-3.5-1.3c-1.9,0-3.7-1.1-5.4-3.2a7.3,7.3,0,0,1-1.7-2.7c0-.3-.5-2-1.4-5.1a15.5,15.5,0,0,1-.4-3.4h0a21.9,21.9,0,0,1,4.9-14.4,4.7,4.7,0,0,1,2.9-2.3l3.5-.7ZM267.9,31.3h-.1v.2h.1a2,2,0,0,0-.2.9v.3a3.5,3.5,0,0,0,.7,2h.1C268.5,32.7,268.3,31.6,267.9,31.3Zm0-2.3v.4c0,.2.1.4.2.4s.3-.2.4-.6l-.3-.2Zm.8-3.3c-.4.3-.6,1.2-.8,2.5h.1c.2,0,.6-.7,1.1-2.2S268.9,25.7,268.7,25.7Zm.1,11h0V37h.2v-.2h-.3Zm.6,1.1h-.1c.2.6.5,1,.7,1h0A1.4,1.4,0,0,0,269.4,37.8Zm1.8-8.2h0l1.1-.2h0l-.2-.3h-.2A.7.7,0,0,0,271.2,29.6Zm0-7.4h.2Zm0,3.9v.2l.2.2h.1a2.3,2.3,0,0,0,.7-.7v-.2h-.3C271.6,25.6,271.4,25.8,271.2,26.1Zm.7-1.6v.2c0,.5,3.7,1,11.2,1.5l.6.2h.7a15.2,15.2,0,0,0,3.4.9c0,.1.1.2.4.3a1.7,1.7,0,0,0,.4-1.1V25.3c0-.6-1.1-1.8-3.1-3.6a5.9,5.9,0,0,0-3.2-1.7l-2.1-.3c-3.4.7-5.7,1.5-6.7,2.5A16,16,0,0,1,271.9,24.5Zm0-1h0a.5.5,0,0,0,.3-.5h0A.5.5,0,0,0,271.9,23.5Zm.2,21.2v.2c0,.3.4.5,1.1.7l.2.3h0a5.3,5.3,0,0,0-1.1-1.1Zm.4-23.9V21h.1c.6-.2.9-.3.9-.5h-.3A1,1,0,0,0,272.5,20.8Zm.3,8.4v.3h.4v-.2h-.4Zm.8-11.3h0v.2h.1c.8-.2,1.2-.4,1.2-.7v-.3l-.2-.3h-.1C273.9,17.2,273.6,17.5,273.6,17.9Zm.8,10.7v.2a44.7,44.7,0,0,0,6.5.5h-1.3c0,.2.6.3,1.6.3s2.6-.1,2.6-.4S280.7,28.8,274.4,28.6Zm.6-2.1v.2a8.3,8.3,0,0,0,4.2.8h1.4v-.3Zm.1-6.1a9.5,9.5,0,0,1,2.5-1h-.7Q275.1,19.5,275.1,20.4ZM276,17h.1a15.4,15.4,0,0,0,3.8-.7c.3-.1.5-.2.5-.3h-.2a11.7,11.7,0,0,0-4.1.9H276Zm.5,27.9h0c0,.2.5.4,1.3.6h.1a3.6,3.6,0,0,0-1.3-.5Zm2.2-26.6h0c0,.2.9.4,2.5.7h.1v-.2a1.7,1.7,0,0,0-1.6-.8h-.2C279,18,278.7,18.1,278.7,18.3ZM280,45.6v.2h.3v-.2Zm2.4,1.6h-1.6c-.4,0-.6,0-.6.2h0l.2.2h1.1A18.6,18.6,0,0,0,286,47h0c-.1-.2-.3-.3-.7-.3H285A5.5,5.5,0,0,0,282.4,47.2Zm-1.2-29.9v.2a6.7,6.7,0,0,0,2.5.4h.1v-.2c0-.1-.2-.2-.7-.3Zm1.2,1.4h0a22.8,22.8,0,0,0,3.8,2h.1l.6-.2h.4l-1-.4-1.2-.5a2,2,0,0,0-2-1.1h-.2C282.6,18.5,282.4,18.5,282.4,18.7Zm3.7,9.4v.2h.2v-.2Zm.1,1.7c0,.1.3.2,1.1.2h.6c0-.2-.4-.4-1.3-.4S286.2,29.7,286.2,29.8Zm0,14.1h.1c.3-.1.4-.4.6-.7h-.1C286.4,43.4,286.2,43.6,286.2,43.9Zm.4,2.7c.4,0,.8-.3,1.1-1h-.2C286.9,46,286.6,46.3,286.6,46.6Zm.7-24.9a.6.6,0,0,0,.6.5h.1v-.6l-.3-.3C287.4,21.3,287.3,21.4,287.3,21.7Zm.8,20.2h.2c.4,0,.7-.3.8-.8h0A1,1,0,0,0,288.1,41.9Zm.5-19.4c.4,1.3.7,2.1,1,2.2h.4c-.4-1.3-.7-2-1.1-2h-.3Zm.9,15.9h.4a.6.6,0,0,0,.5-.2l-.3-.3h0A.5.5,0,0,0,289.5,38.4Zm.3,5.8h.3q.6-.6.6-.9h-.1C290.1,43.5,289.8,43.8,289.8,44.2Zm1-18.8V26c.2,0,.3-.2.3-.4v-.2h-.4Zm.2,17,.2.2c.6-.2.9-.5.9-.8H292C291.4,41.7,291.1,41.9,291,42.4Zm1.4-.6h.2a.5.5,0,0,0,.4-.6h-.1C292.6,41.4,292.4,41.6,292.4,41.8Zm2.2-.6h-.1c.1.5.3.8.5.8h.1l.2-.2h0A.7.7,0,0,0,294.6,41.2Z" transform="translate(-0.9 0)" style="fill:#b75326"/><path d="M325.3,0a6.5,6.5,0,0,1,2.5.7c.1,0,.2.6.3,1.9a2.2,2.2,0,0,1,.7,1c-.2,2-.4,6-.6,12.1-.1,0-.1.2-.1.6s-.5.4-.5.7v.9a8.8,8.8,0,0,1-.6,2.9v.9c0,.2.2.3.6.4v.4c-.6,5.2-1,8.7-1,10.3s-.1,2.8-.3,2.8h0c.2,0,.3.3.4.8v.7a45.5,45.5,0,0,1-.7,5.6v1.5c2.1.4,3.1,1,3.1,1.7l-.3.4V47l.3.4h0c-.3.9-1.5,1.4-3.5,1.4h-.4l-.3-.6h-.7l-1.6.4h-2.4a10.5,10.5,0,0,1-.5-3.1v-2a5.3,5.3,0,0,0-2.5,1.4,24.7,24.7,0,0,1-9.1,3,14.5,14.5,0,0,1-6.4-3.5,14.5,14.5,0,0,1-2-2.9,8.9,8.9,0,0,1-1.1-1.9v-.2h.2a9,9,0,0,1,1.6,2.1h.3v-.8a5.5,5.5,0,0,0-1.2-3h-.4c-.2,0-.3.4-.4,1.1h-.2v-.3c.1-1.6.1-2.6.2-3.1h.3v.6h.2a.8.8,0,0,0,.3-.7V34l-.2-.2c-.1,0-.2.2-.2.6l-.3.4c-.1,0-.2-.2-.3-.5a20.6,20.6,0,0,1,3.1-9.9,24.7,24.7,0,0,1,2.8-4c1.4-1.2,3.4-1.7,6.3-1.7h.6a16.3,16.3,0,0,1,10.7,3.4l.4.2h.2c.3-1.8.7-6.4,1.1-13.8.1-.3.3-.4.4-.4h0a6.3,6.3,0,0,0-2.7-1.3c-.4,0-.6-1.4-.7-4.2l1-.3h0c0-.2-.2-.3-.5-.3s-.3-.3-.3-.5.5-.6,1.5-.6V.5l-.3-.3h3.1Zm-24,32.8a.2.2,0,0,0,.2.2c.3,0,.5-.4.6-1.3v-.3h-.2C301.7,31.4,301.5,31.9,301.3,32.8Zm.6-5.5v.2h.2c.2-.1.5-.5.8-1.5s2.1-2.5,2.5-2.5l.3-.5h-.4a6.1,6.1,0,0,0-2,1.3A7.8,7.8,0,0,0,301.9,27.3Zm.3,15.8h0c0,.3.7.4,2,.6v-.2l-1.7-.6Zm.1-7.2v.9c0,.6.8,2.3,2.3,5a8.8,8.8,0,0,0,3.8.9,18.1,18.1,0,0,0,8.2-2c1.2-1.7,2.1-2.5,3-2.5s.9-2.1,1.4-4.7a4.1,4.1,0,0,0,.5-2.3v-.6c0-1.7-.2-2.6-.7-2.6a10.1,10.1,0,0,1-1.4-1.5l.3-.4c0-.2-.6-.4-1.8-.7l-.4-.3h1c0-.4-2.2-.7-6.7-.7l-.9-.2c-3.3.3-4.9.7-4.9,1.3a12.6,12.6,0,0,0-3,6.6A12.9,12.9,0,0,0,302.3,35.9Zm1.4,8.3c0,.4,1.2.9,3.6,1.3h.5c0-.3-1.2-.8-3.6-1.3h-.3Zm.9-22v.2h.4c1.5-.4,2.2-.8,2.2-1.4s-.2-.2-.6-.2h-.3C305.7,20.9,305.1,21.3,304.6,22.2Zm2.9,24.4v.2h1a14.6,14.6,0,0,0,2.9-.4h0l-1.9-.2C308.2,46.2,307.5,46.4,307.5,46.6Zm1.2-26.1v.3l.2.2h.3l.3-.3v-.2l-.3-.2h-.3Zm.1,3h0Zm1.4,19.9v.2h.8c2.6-.2,4.1-.6,4.4-1.2v-.2h-.2C312.1,42.8,310.4,43.1,310.2,43.4Zm.6-20.3h.2Zm.9,21.7h.6c1.3,0,1.9-.2,1.9-.4h-1.3Q311.7,44.5,311.7,44.8Zm.4-21.1h.2l1.4-.2h-.4Q312.1,23.4,312.1,23.7Zm.4-2.7h2.8c-.1-.3-.8-.4-1.9-.5h-.7A.6.6,0,0,0,312.5,21Zm2.7,2.5.2.3h.4v-.2c0-.1-.2-.2-.5-.2h-.2Zm1.1,19.1v.2h.1a2.3,2.3,0,0,0,1-.7v-.2h-.2A2.2,2.2,0,0,0,316.3,42.6Zm.8-21H317v.2l1.9.6h.1c0-.4-.4-.7-1.1-.9Zm.8,1.9.3.2v-.2h-.4Zm1,.4c0,.1.6.4,1.8.7h0v-.2a1.2,1.2,0,0,0-1.1-.5Zm1.2,2.4v.5l.3.3h.2c.1,0,.2-.2.2-.4a.6.6,0,0,0-.3-.6h-.1Zm.9,15.8v.3c.2,0,.4.2.4.6h0l.4-.3v-.5a.6.6,0,0,1-.3-.6h-.2A.5.5,0,0,0,321,42.1Zm0,2.4h.2l.2-.2h-.1Zm1.5-40.1v.2h.4c.2,0,.4,0,.4-.2V4.2h-.6Zm.1-1.5h.7V2.7h-.5Zm1.1,19c0,.3.1.6.2.6h.1v-.5Zm.5-17.4h.1q1.5,0,1.5-.3l-.2-.2h-.8A.5.5,0,0,0,324.2,4.5Zm0,38V44h.1l.2-.2v-.6c0-.4-.1-.6-.3-.7Zm.2,2.2v.2h.5l-.2-.2Zm1.3,2c0,.1.3.2.6.2H328c0-.2-.3-.3-.7-.3S325.7,46.5,325.7,46.7ZM326,3.5h.1Zm1.3,17h.2v.3h-.2Z" transform="translate(-0.9 0)" style="fill:#b75326"/><path d="M336.6,39.4a5.3,5.3,0,0,1,2.7,1,3.6,3.6,0,0,1,.2,1.1v.8c0,1.7-1,2.9-2.9,3.7l-.7.4c-.9,0-1.7-.8-2.5-2.4v-.4c0-1.7.2-2.8.8-3.2A6.2,6.2,0,0,1,336.6,39.4Zm-2,2.7c.1,1.1.3,1.6.5,1.6a6.2,6.2,0,0,0,.5-2.1l.3-.4v-.3h-.1Q334.6,41.4,334.6,42.1Zm.3,2.7c0,.3.2.4.4.5h.7a1.4,1.4,0,0,0,1.2-.6h0Zm1.4-2.3h0c0,.4.1.7.3.7h0c.2,0,.5-.4.7-1.3v-.3H337C336.5,41.6,336.3,41.9,336.3,42.5Zm1.8.8h.3v-.6h-.1C338.3,42.8,338.2,43,338.1,43.3Z" transform="translate(-0.9 0)" style="fill:#231f20"/></g></g></svg>