<svg xmlns="http://www.w3.org/2000/svg" viewBox="0 0 407.6 64.9"><title>icn_rotator_Asset 60_adj</title><g id="Layer_2" data-name="Layer 2"><g id="Layer_1-2" data-name="Layer 1"><path d="M16.1,13a18.5,18.5,0,0,1,4.2.9c2.4,2.2,3.8,4,4.2,5.2s1.6,2.8,2.2,5.7c.6.6,1,2.1,1,4.4v1.5l-.2,6.1c0,1.2.8,2.7,2.3,4.6s2.3,2,2.7,2h0c0,.5-.7,1.3-2.2,2.4s-1.7,1.6-2,1.6h-.1c-.6-.1-2.2-1.3-4.9-3.7l-7.4,3a22.1,22.1,0,0,1-5.4.7h-.3a11.6,11.6,0,0,1-5.7-2.6,16.3,16.3,0,0,1-1.8-3.1,5.3,5.3,0,0,1-1.1-3.4V36.7a5.9,5.9,0,0,1,.9-3.2,14.7,14.7,0,0,1,2.8-4.8,5.6,5.6,0,0,1,2-1.6,14.1,14.1,0,0,1,6.4-1.6h3.1a5.4,5.4,0,0,1,3.3.7h.4a.3.3,0,0,0,.3-.3,26,26,0,0,0-2.2-5.6c-.9-1.5-2.6-2.3-5.1-2.3L11,17.6c-2.2.4-3.3.9-3.3,1.4a8,8,0,0,0-1.5,4.1c-.1.2-.8.3-2.2.3H3.6c-.2,0-.4.4-.7,1.1s-1.7-.4-1.7-.7a41.3,41.3,0,0,0,.5-4.5c.6-1.9,2.2-3.6,4.7-5.2a8.4,8.4,0,0,1,2-1.1ZM4,21.7v.9H4c.2,0,.3-.2.3-.4v-.5l-.2-.2Zm.6-4.6h.1c.4,0,.9-.4,1.7-1.2v-.2H6.3c-.4,0-1,.5-1.7,1.3Zm.8,24.8h.5l-.3-.3h0Zm.2,3.3h0c.2.4,1.2.9,3.1,1.4a6,6,0,0,0,2.4.5h0c0-.2-.8-.4-2.3-.7A12,12,0,0,1,6,45H5.7Zm.8-15.9v.3h.1a.5.5,0,0,0,.6-.4V29h0Zm0,5.6c.2,2.5.6,3.7,1,3.7l.6.8H7.4v.2a13.8,13.8,0,0,0,4.9,3l1.2.3c.8,0,3.7-1.2,8.6-3.6a.8.8,0,0,0,.4-.7v-.3c-.3-1.7-.6-3.7-.9-5.9h-.1c0-.4-.4-.8-1.4-1.1a25.8,25.8,0,0,0-6.2-1.3A13.1,13.1,0,0,0,7.4,33,3.2,3.2,0,0,0,6.4,34.9ZM10.2,15h0q0,.3.6.3a4.1,4.1,0,0,0,1.6-.4v-.2h-.3Zm2.1,29.3a.5.5,0,0,0,.5.3c.4,0,.6-.2.6-.3h0V44h-.8Zm.6-27.5.2.3h1l-.4-.3h-.5Zm2.3-2.4.3.2h.4l-.2-.3h-.3Zm2.2,29h.3a5.3,5.3,0,0,0,2.3-.7h-.3C18.3,42.9,17.5,43.2,17.4,43.4ZM20,14.7h0c.3.4.5.5.8.5h.1v-.2a1.2,1.2,0,0,0-.8-.4Zm2.9,21.2v.3l.3.2h.1l.2-.2v-.3l-.2-.2h-.2Zm.2-2.1.2.2h.2v-.2l-.2-.2h0Zm1.7-3V31h0Zm.1,1.3v.2h.3v-.2Zm0-3.3V29q.3.9.6.9h.1a2.1,2.1,0,0,0-.4-1.2h-.3Zm.4,5h0c0,1.5.2,2.3.4,2.3l.2-.2h0a6.7,6.7,0,0,0-.4-2.2Zm.9,8.9a1,1,0,0,0,.5.6h0L27,43h0l-.3-.3h-.5Zm.3-16.2h0c0,.3.1.5.2.5v-.3l-.2-.3Zm1.1,17.3V44l.2.2h.3l.2-.2h0l-.3-.4h-.3Zm.5-2.2V42c.2.5.4.7.6.7h.2c-.2-.7-.4-1-.6-1Z" transform="translate(-1.2 0)" style="fill:#b75326"/><path d="M37.2.3l2.6.6,4-.2c1,0,1.6.3,1.6,1A34.2,34.2,0,0,0,45,7.9V29.4l-.3,11.7a36.3,36.3,0,0,0,6.3.8h.1v.8c0,.3.2.6.7,1.1a37.3,37.3,0,0,0-1.6,4.3l-.5.5h-.2a1.8,1.8,0,0,0-1.6-.6L37.8,46.7c-3,0-4.6-.2-4.6-.5a14.1,14.1,0,0,0,1.1-4.8h1.4a4.3,4.3,0,0,1,1.7-.5l1,.3h.7q.6,0,.6-1.2c.2-1.5.4-6,.6-13.6-.2-2.4-.5-9.2-.7-20.4-.2-.2-.4-.4-.6-.4l-2.8.2c-.5-.1-.7-.2-.7-.5.2-3.2.5-4.8.8-4.8Zm-3,45.4.2.2h.3l.2-.2-.3-.2h-.1Zm.8-3h.4v-.3h-.2ZM36.3,3.4v.4l.2.3h1.7V3.8L37,3.3l-.3-.2h-.1Zm.2-1.6h0a.5.5,0,0,0,.6.6h.3a2.1,2.1,0,0,0,1.3-.7H36.5Zm.3,40.6h0a.5.5,0,0,0,.5.5h.1v-.5l-.3-.2h-.3Zm.7,2.1h0l.2.2h.9c.7,0,1-.1,1-.2h0l-1.7-.2h-.1Zm.7-1.3h.9V43h-.5C38.3,43,38.2,43,38.2,43.2ZM39.9,1.8l.5.2H41l.3-.2H39.9Zm.7,36.5v.2c.1.3.1.4.3.4l.3-.3v-.4c-.1-.6-.2-.8-.3-.8S40.6,37.7,40.6,38.3Zm.3-20v.3h.3v-.3h-.1c0-.2.2-.3.5-.4v-.2h-.3A.8.8,0,0,0,40.9,18.3Zm.2-6.6h.3v-.3h-.1Zm.2-3.4v.4h.1V8.1h-.1Zm.5,17.9h.1q.3,0,.3-2.4C42.1,23.9,41.9,24.6,41.8,26.2ZM42,4.1h.4l1.4-.8a1.3,1.3,0,0,0,.3-.7h-.3c-.4,0-.7.2-1.1.7S42,3.7,42,4.1Zm1.2,25H43V40.7h.6c.1,0,.2-.2.2-.6Q43.7,29.1,43.2,29.1Zm.7-12.4v2h.1c.1,0,.2-.3.2-.8v-1Zm-.1,2.5v.4h.3v-.3Zm0-3.3h0l.3.3h0V16h-.3Zm2,28.1h0c0,.2.7.4,2.1.4H50v-.2h-.6Zm1.6,1.7.2.2h1.3q.6,0,.6-.3H48.2C47.7,45.5,47.4,45.6,47.4,45.7Zm1.3-3.3h0c.2.3.5.4,1.1.4l.3-.2v-.2H48.7Zm.1,4.6v.2h.9V47h-.9Z" transform="translate(-1.2 0)" style="fill:#b75326"/><path d="M56.7.3l2.6.6,4-.2c1.1,0,1.6.3,1.6,1a34.2,34.2,0,0,0-.4,6.2V29.4l-.3,11.7a37.9,37.9,0,0,0,6.4.8h.1v.8c0,.3.2.6.6,1.1a37.3,37.3,0,0,0-1.6,4.3l-.5.5H69a1.8,1.8,0,0,0-1.5-.6L57.4,46.7c-3.1,0-4.7-.2-4.7-.5a14.1,14.1,0,0,0,1.1-4.8h1.4a4.4,4.4,0,0,1,1.8-.5,1.9,1.9,0,0,0,.9.3h.7q.6,0,.6-1.2c.2-1.5.4-6,.7-13.6-.3-2.4-.6-9.2-.8-20.4-.2-.2-.4-.4-.6-.4l-2.8.2c-.5-.1-.7-.2-.7-.5.2-3.2.5-4.8.8-4.8ZM53.8,45.7v.2h.3l.2-.2-.2-.2H54Zm.8-3h.3v-.3h-.2ZM55.8,3.4v.4l.2.3h1.7V3.8l-1.1-.5-.4-.2h-.1ZM56,1.8h0a.5.5,0,0,0,.6.6h.3a2.1,2.1,0,0,0,1.3-.7H56Zm.3,40.6h0a.5.5,0,0,0,.5.5h.1v-.5l-.3-.2h-.3Zm.7,2.1h0l.2.2h.9c.7,0,1-.1,1-.2h0l-1.7-.2h-.1Zm.7-1.3h.9V43h-.5C57.8,43,57.7,43,57.7,43.2ZM59.5,1.8l.4.2h.6l.3-.2H59.5Zm.7,36.5v.2c0,.3.1.4.2.4l.3-.3v-.4c-.1-.6-.2-.8-.3-.8S60.2,37.7,60.2,38.3Zm.2-20v.3h.3v-.3h-.1c0-.2.2-.3.5-.4v-.2h-.3A.8.8,0,0,0,60.4,18.3Zm.2-6.6h.3v-.3h-.1Zm.2-3.4v.4H61V8.1h-.1Zm.5,17.9h.1c.2,0,.4-.8.4-2.4C61.6,23.9,61.4,24.6,61.3,26.2Zm.2-22.1h.4l1.4-.8a1.3,1.3,0,0,0,.3-.7h-.3c-.4,0-.7.2-1,.7S61.5,3.7,61.5,4.1Zm1.2,25h-.1V40.7h.5c.1,0,.2-.2.2-.6Q63.2,29.1,62.7,29.1Zm.7-12.4v2h.1c.2,0,.2-.3.2-.8v-1Zm-.1,2.5v.4h.3v-.3Zm0-3.3h0l.3.3h0V16h-.3ZM65.4,44h0c0,.2.7.4,2.1.4h2v-.2h-.6Zm1.5,1.7.2.2h1.3q.6,0,.6-.3H67.7C67.2,45.5,66.9,45.6,66.9,45.7Zm1.4-3.3h0c.1.3.4.4,1,.4l.3-.2v-.2H68.3Zm0,4.6v.2h.9V47h-.9Z" transform="translate(-1.2 0)" style="fill:#b75326"/><path d="M96.4,15.1h.1a5.4,5.4,0,0,1,3.3.9c.7.1,1.1.2,1.1.3v.2c-.6,0-.9.2-.9.5l1.1.3c.1.2.4.3.9.5h1.6l.6.2,4.8-1.1h.2a22.2,22.2,0,0,1,8.4,4.2c2.6,2.6,4.1,4.6,4.5,5.9a14.4,14.4,0,0,1,.6,2.9c-.6,4.9-1.1,7.4-1.5,7.4a26.1,26.1,0,0,1-2.8,4.1l-.5.5V42h0a4.5,4.5,0,0,1-2.3,1.7,2.3,2.3,0,0,0-.6,1.2,3.9,3.9,0,0,1-2.9.9,28.5,28.5,0,0,1-6.1,1.4,6.9,6.9,0,0,1-2.7-1,16,16,0,0,0-3-.3l-.4.2c.3.4.4,1.5.4,3.3v.9l.5,2.8v4.9c0,1,.3,1.5,1,1.5l.4.4h0a.4.4,0,0,0-.4.4,3.2,3.2,0,0,1,.9,2.3l.4,1.2a7.3,7.3,0,0,1-2.2.3L96.8,64l-1.3.9c-1-.3-1.8-1.3-2.7-3.1h-.1v-.2l.4-.2h0a2.3,2.3,0,0,1-.5-1V60H93c.1,0,.1.1.1.2h.5v-.7a1.7,1.7,0,0,1,1.4-.6,12.4,12.4,0,0,0,.2-3V51.5a55.9,55.9,0,0,0-.4-5.6V20.6H93.2l-.2-.3V16.9a1.3,1.3,0,0,1,1.5-1.5A4.3,4.3,0,0,1,96.4,15.1Zm-2.8,1.2a.5.5,0,0,0,.4.5h.3c.3,0,.5-.1.5-.3v-.2c0-.2-.2-.3-.5-.3h-.2A.5.5,0,0,0,93.6,16.3Zm.6,46.1h0q0,.1.9.3c.7-.1,1-.2,1-.3H94.4Zm.1-44.5v.3a.8.8,0,0,0,.5.8h.1v-.6c0-.4-.1-.6-.2-.6h-.5Zm1,42.9h0c0,.2.2.3.5.3V61l-.2-.2Zm.8-38.6a3.3,3.3,0,0,0,.3,1.5h0L96,24.9l.4,1a72.5,72.5,0,0,0-.6,7.7v4.5a14.8,14.8,0,0,0,.3,3.1l-.3,1.9v.6L96,49h.1a.8.8,0,0,0,.7-.7h0l-.4-.6c.2,0,.3-1.7.4-5.2V38.2q.3-9.8.3-14.4h0c0-2.4-.2-3.7-.6-3.7S96.1,20.8,96.1,22.2Zm0,28.8v.9c0,.7.1,1,.3,1a4.1,4.1,0,0,0,.5-2.3v-.3l-.3-.3A1.1,1.1,0,0,0,96.1,51Zm.6,3.5-.2.3v.8a2.6,2.6,0,0,0,.3,1.1h.3V55.5c0-.7-.1-1-.3-1Zm1.4-28.4v4.6h.2V25.9h0Zm0,34.7h0l.2.3h.2V61h0l-.2-.3h-.1Zm.1-37.4v.4c.1,0,.2-.4.3-1.1h-.1A1,1,0,0,0,98.2,23.4ZM99.6,61h0l.3.2h.4V61h-.7Zm4.9-37.9c0,.2-.4.6-1.3,1h.6c-1.8.8-2.9,1.6-3.2,2.3s-.3,3.8-.6,11.5v.8c0,.2.9.9,2.7,2.3l2.6,1.2c0,.2.1.3.3.4h.2a9,9,0,0,0,4.2-1.4,8.4,8.4,0,0,1,2.7-1.4c2.2-1.8,3.2-3.4,3.2-4.9v-.9l-.2-.9h0l.5-.6v-.2c-.3-.2-.5-.6-.5-1.5a5.1,5.1,0,0,0-1.2-3.5,6.4,6.4,0,0,0-2.2-2.7c-.3-.5-1.4-1-3.2-1.4h-.6l-2.8.2h-.2a1,1,0,0,1-.9-.4ZM100,40a.8.8,0,0,0,.8.7h0a1,1,0,0,0-.5-.6Zm.2-22.1v.2h.4v-.2l-.2-.2h0Zm.3,25.6h-.1c0,.5,1.3.8,3.7,1l1.2-.7h0l-.2-.3h-.3l-1.7.3A11.4,11.4,0,0,0,100.5,43.5Zm.6-20.7V23h.2l.3-.3v-.2h-.2Zm.9-4.3h.5l.3-.2-.2-.2h-.1C102.2,18.3,102,18.4,102,18.5Zm3.8.6c0,.2.8.4,2.6.6,0,.1.1.2.5.2h.9l.3-.3h-1.4l.2-.3v-.3h-1.6C106.4,18.8,105.8,19,105.8,19.1Zm.7,3.7c0,.2.3.2.8.3h.4v-.2l-.2-.3h0l3.4-.4.4-.2-.3-.3h-.5C107.8,21.8,106.5,22.2,106.5,22.8Zm.8,21.2h.2c2.4-.4,3.5-.9,3.5-1.2h-.2C108.5,43.3,107.3,43.7,107.3,44Zm2.5-26.3v.2a2.7,2.7,0,0,0,1.2.3h.3c0-.3-.4-.4-1.4-.5Zm1.1,5h0a1.7,1.7,0,0,0,1.4.5h.6c-.1-.2-.6-.4-1.5-.4Zm1.1-4.2h0a2.7,2.7,0,0,0,1.7,1h.2C113.9,19.1,113.3,18.7,112,18.5Zm.8,3.5h0l.2.2h.2L113,22Zm.1,21.8h.1c.9-.2,1.4-.5,1.5-.7h0l-.2-.2h-.1C113.4,43.2,112.9,43.5,112.9,43.8Zm.9-20.2h0c0,.5.5.9,1.3,1.2h.2c0-.6-.4-1.1-1.2-1.4Zm.7,16.2h.2a1.9,1.9,0,0,0,.8-.8h-.1C114.9,39.3,114.6,39.5,114.5,39.8Zm.1,2v.3h.1c.5-.1.8-.4.8-.7h-.1A.9.9,0,0,0,114.6,41.8Zm.3-21.4h0c0,.2.2.3.5.5h.2v-.2a.5.5,0,0,0-.5-.3Zm.8,6v.3a6.7,6.7,0,0,0,.9,2.1h.2v-.3a2.6,2.6,0,0,0-.8-2.1Zm1,3.3V30h.4v-.3Zm0,5.6h.1a.7.7,0,0,0,.7-.6v-.5l-.2-.2h0A1.8,1.8,0,0,0,116.7,35.3Zm.6-3.4v.9l.3.2h0l.2-.2a1.1,1.1,0,0,0-.4-.9Zm.3-10.2h0a2.5,2.5,0,0,0,.9,1.1h.1C118.6,22.5,118.3,22.1,117.6,21.7Zm1.3,1.6v.2h.4l-.2-.2Zm.1,13.8h.1a7.6,7.6,0,0,0,1.3-4.4v-.8h-.2C119.8,31.9,119.5,33.6,119,37.1Zm.6-10.7.5.8h.2a.9.9,0,0,0-.6-.8Z" transform="translate(-1.2 0)" style="fill:#b75326"/><path d="M124,14.8a1.6,1.6,0,0,0,1.2.4l.8-.3c5.6,0,8.4.1,8.4.5v1.4a6.9,6.9,0,0,1,.5,2.4v1c-.5,5.7-.8,11.1-1,16.3a3.9,3.9,0,0,0-.2,1.3c0,.2.2.3.5.3h.3c2.2,0,3.3.2,3.3.7h-.1v.4a11.3,11.3,0,0,1,.7,4.7l.2,2.5h-9c-4.6,0-7-.3-7-1.1a3.5,3.5,0,0,0-.3-1.3,1.3,1.3,0,0,1,.6-.7h.2a.6.6,0,0,0,.5.2h.2l4.3-.3h0c-3.6-.2-5.3-.5-5.3-.8V41.3l-.2-1.5c0-.5,1.6-.7,4.7-.7q.6,0,.6-2.7l.7-16.3h0c-1.6,0-2.1-.1-1.6-.4-2.5,0-3.7-.3-3.7-.9s-.3-.2-.3-.5l.3-.7a.7.7,0,0,0-.4-.6h0c.4-.3.6-.9.8-2h.3Zm.1,26.5h0c.3.4,1.6.6,3.8.6h.4c.4,0,.6-.1.7-.3h0l-4.5-.3Zm.7-25.2v.2h.3c1.1,0,1.6-.1,1.6-.3h-.3C125.3,15.9,124.8,15.9,124.8,16.1Zm.2.9h0c0,.1.3.2.8.2h2.9c.7,0,1-.1,1-.2h0c0-.3-1.2-.3-3.6-.1Zm7.3-14.3a3.9,3.9,0,0,1,3.4,2.2l.4,2.1a7.5,7.5,0,0,1-1.3,3,3.7,3.7,0,0,1-2.5.8q-3.9,0-4.8-1.2a4.6,4.6,0,0,1-.9-3.4c-.2,0-.2-.1-.2-.2h0C127.6,4,128.9,3,130.2,3ZM129,4.6h0a5.1,5.1,0,0,0,2-.5l-.3-.2C129.5,4.1,129,4.3,129,4.6Zm.3,29.7c0,.3.1.5.2.5s.2-.2.2-.6v-1a9.2,9.2,0,0,0,.6-2.4V29.5c.3-.1.4-.3.4-.4a3.9,3.9,0,0,1-.3-1.4h0q.3,0,.6-6.9c-.1-.4-.2-.5-.3-.5h-.1c-.6,0-.9,2-1,6.1Zm1.3,9.3h-.9v.2h2.7v-.2h-1.8Zm-.5-37.3h.4c.5,0,.8-.1.9-.5h-.8a.5.5,0,0,0-.6.4Zm.2,35.7.2.2h.1c.4,0,.5-.2.5-.6h-.3C130.5,41.6,130.3,41.7,130.3,42Zm.6-4.1v.3h.2l.3-.2h0l-.2-.2h-.1Zm.1-1.1v.4h.1c.2-.1.3-.3.3-.8V36h-.1C131.1,36,131,36.3,131,36.8Zm0-19.9v.2c.3,0,.6.2,1.1.6h.1a.2.2,0,0,0,.2-.2h.1q.1,0,.3.6h.1l.9-.7v-.3H131Zm.4,3.5.3,1-.4,1c.1.5.3.7.4.7h.1v-.8c0-1.5.3-2.3.7-2.3l.2-.2v-.3h-.5C131.6,19.4,131.4,19.8,131.4,20.4Zm.5,10.5a13.2,13.2,0,0,0-.5,3.5h0c.2,0,.5-.9.8-2.6v-.9Zm-.5-21.8v.2h1.1l.2-.2h-1.3Zm.8,11.9v.3a.5.5,0,0,0,.3.5h.2l.2-.2v-.3a.8.8,0,0,0-.4-.4ZM133,7.8V8h.2a.7.7,0,0,0,.7-.4V7.4h-.1A.9.9,0,0,0,133,7.8Zm0,8,.2.2h.1v-.2l-.2-.2Zm1.2-9.7v.2h.1l.3-.2V5.9h-.1Zm1.4,35.8c0,.5.4.8,1,.8h.3v-.2l-.2-.2.6-.3v-.4a.5.5,0,0,0-.3-.5h-.3c-.1,0-.2.2-.4.6Zm.3-2.7a2.8,2.8,0,0,0,1.3.4v-.2c0-.1-.3-.2-.8-.3h-.5Zm0,4.2h.1l.2-.2h-.1Zm1.5,2.5h.5v-.2h-.1Z" transform="translate(-1.2 0)" style="fill:#b75326"/><path d="M150.5,15.1l.7.3-.3.4h3.3q5.4,0,7.2,2.7a10.6,10.6,0,0,1,1.5,2.2h.2c.4,0,2.7-1.1,7.1-3.3a2.7,2.7,0,0,1,1.3-.4,9.1,9.1,0,0,1,5.3,1.9c3.5,2.8,5.2,5.2,5.2,7s1,5,2,12.7v1.7q0,.6.3.6h.2a6,6,0,0,0,2-.5c.7,0,1,1.2,1,3.6s.1,2,.1,2.8h-.8a32.8,32.8,0,0,1-4.7.5l-1.9-.2H176c-.1,0-.1-.2-.1-.5l-.8-.8h0v-.6h0l-.3-1.7v-.8c0-.5.5-.8,1.3-.8s2.1-.4,1.8-1.7a43.5,43.5,0,0,1,.4-7.2h0V29.1c0-.7-.6-1.4-1.7-2.3h-.9l-.5.3c-.1,0-.1-.2-.1-.7a5.6,5.6,0,0,0-4.6-1.8c-2.7.3-4.2,1-4.8,2.4a23.1,23.1,0,0,0-.3,2.9v7.7c0,1.9.5,2.9,1.6,3.2s.6.2.6.4c-.4,2-.7,3.1-.8,3.4l-1.6.3-5.3-.4h-.6c-.7,0-1-1-1-3.2v-.2c0-.2.6-.5,1.9-.9s.4-.2.4-.5a16.9,16.9,0,0,1-.3-3.5V29.5a12.2,12.2,0,0,1-.3-2.2c0-1.1.2-1.6.4-1.6h.1l.4.3h.2c0-.9-1.4-2.2-4.3-3.9a6,6,0,0,0-2.2-.4,7.4,7.4,0,0,0-3.9,1.5V41.4l.3.2h.2c.2,0,.2-.1.3-.4h.1c1.1,0,1.8.3,2,.8v2c.1,1.7-.3,2.6-1.3,2.6a16.2,16.2,0,0,1-3.3.2l-8-.5c-.5,0-.8-1.3-1.2-3.7v-.2c0-.3.8-.7,2.5-1.2,0-.3.8-.6,2.5-.8a.5.5,0,0,0,.4-.6l.4-14.5V21.9c0-.4-.4-.5-1.1-.5l-2.9.3c-.7-.4-1.1-.8-1.1-1.2a1,1,0,0,0,.5-1V19c-.1-1.1-.4-1.6-.7-1.6h-.1c.3-.1.6-.5.9-1.1C144,15.7,147,15.4,150.5,15.1Zm-8.7,27.1a1.4,1.4,0,0,1-.6,1.1q.5,2.1.9,2.1h.2l-.3-3.1h-.2Zm.4-22.6c0,.5.3.7,1,.7a6,6,0,0,0,3-1h-.3C143.4,19.1,142.2,19.3,142.2,19.6Zm.2-1.7v.3h.1c1.7,0,2.5-.1,2.5-.3h-2.6Zm.4,24.1v.8h.1a2.8,2.8,0,0,1,1.2-.8v-.3h-1.1C142.9,41.6,142.9,41.7,142.8,42Zm.3,2v.4l.2.2h.1v-.4l-.2-.2Zm.8-.3c0,.5.7.6,2.2.3a.8.8,0,0,0,.7.4l3.2-.3v-.2l-3-.2h0l.8-.2h2q-.7.6-5.1.3l-.3-.2h-.2Zm.9-27.2.2.2q1.2-.1,1.2-.3h-.3C145.2,16.3,144.8,16.4,144.8,16.5Zm.9,25.9v.3H147v-.3h-1.3Zm.8-2.7c0,.7.1,1,.3,1h.2c.5,0,.7-.3.8-1Zm.9-20.9h.1l.2-.2h-.2Zm.4,2v3.1a5.7,5.7,0,0,1-.3,1.8l.4.7v1.7h.1c.2,0,.4-2.2.5-6.7h0a1.1,1.1,0,0,0-.4-1A.5.5,0,0,0,147.8,20.8Zm.1,7.6v.4h.2v-.5Zm.8,11.6h0c0,.9.3,1.3.8,1.3h.4a.4.4,0,0,0,.1-.3Zm.7-22.8h0v.2h.1l.3-.2v-.2h-.4Zm.1,5.9a12.8,12.8,0,0,0-.1,2.1v1.2h0c.3,0,.4-.6.4-1.7v-.5c0-.7-.1-1.1-.3-1.1Zm0-7h0l.2.2c.3,0,.5-.1.5-.4h-.6Zm0,12v.3l.3.4h.1v-.5l-.3-.4h-.1Zm.4,15.1v.2H152v-.2h-2.1Zm.5,2.2h.2a2.4,2.4,0,0,0,.9-.6h0A1.8,1.8,0,0,0,150.4,45.4Zm.2-26.6v.4h.1l.2-.2h-.3Zm0,1.9h.3c.5-.1.7-.2.7-.3v-.2h-.4C150.8,20.4,150.6,20.5,150.6,20.7Zm.1-3.5h.2l4-.7h-1.8q-2.4,0-2.4.6Zm0,26.6q0,.5,1.2.6l.3-.3v-.2c0-.2-.5-.3-1.3-.3Zm1.5-1.8v.3h.4v-.3h-.5Zm.2-23.1h0l3.2-.3a4.1,4.1,0,0,1,2.8,1.2h.2v-.3c-.3-.8-.7-1.2-1.3-1.2h-.6C153.9,18.3,152.5,18.5,152.4,18.9Zm1.5,1,1.8.5a4,4,0,0,0,2,.7h.1v-.2a4.8,4.8,0,0,0-3.2-1.3h-.4C154,19.7,153.9,19.7,153.9,19.9Zm3-2.8v.2l1.8.4h.1v-.2c0-.2-.5-.3-1.6-.4Zm2.1,2.8c0,.3.1.5.5.5h0a.6.6,0,0,0-.4-.6Zm.8-.5v.2c.4.6.7,1,1,1.1h.2a2.7,2.7,0,0,0-1.1-1.3Zm.2,1.5h0c0,.4.4.8,1.1,1h.1v-.6c0-.1-.4-.3-1.1-.5Zm1.7,10.6v3.9h.2a6.1,6.1,0,0,0,.2-1.5h0c0-1.6-.1-2.3-.3-2.3Zm.1-7.5a.5.5,0,0,0,.5.5h.1v-.2a.5.5,0,0,0-.5-.3Zm.2,19.4h.7l-.2-.2h-.4Zm1.2-2.6.3.2h.4l.3-.3h0l-.2-.2h-.5Zm.4-19.1v.6l.3.2a2.9,2.9,0,0,0,1.9-1.1h-1.5A.9.9,0,0,0,163.6,21.7Zm.1,3.5v.3c.1.3.1.4.3.4h.1l.3-.3h0Q164.3,25.2,163.7,25.2Zm-.1,14.2v.2h.3v-.4h-.1Zm2.6-18.8h.4c.5-.1.8-.3.8-.6h-.2C166.6,20.2,166.3,20.4,166.2,20.6Zm1.7-.7h.1c.3,0,1-.4,2.1-1.4v-.2C168.6,18.7,167.9,19.2,167.9,19.9Zm3.6.8v.2c.1.2.2.3.4.3a6.1,6.1,0,0,0,2.7-.3c-.2-.4-.8-.6-2-.6h-.1C171.9,20.3,171.5,20.5,171.5,20.7Zm.9-1.9h0q0,.3.6.3h.2V19c0-.1-.2-.2-.6-.2Zm.2-.6,1,.4a1.9,1.9,0,0,0,1.4.8h1.2v-.2c0-.4-1-.8-3.2-1.3h0C172.7,17.9,172.6,18,172.6,18.2Zm1.4,4.9a3.8,3.8,0,0,0,2.5,1.5h.2v-.3a5.1,5.1,0,0,0-1.3-1.2H174Zm3.2-1.4v.4a4.3,4.3,0,0,0,1.3,1.4v.3h.4c0-.6-.5-1.2-1.4-2Zm.3,22.4v.2h1.6c.4,0,.6-.1.7-.3s-.2-.3-.5-.3h-.9Zm1.1-18.8v.2c.3,1.1.6,1.6.9,1.6h.1a2.6,2.6,0,0,0-.9-1.7Zm.8,6.9v.2l.2,2.4V35l.2.2h.1l.3-.3V32.5l-.3-.3Zm.1,5.5v.4h.2v-.6h-.1Zm.1-9.7.8,1.2h.2v-1a.5.5,0,0,0-.3-.5h-.5C179.7,27.7,179.7,27.8,179.6,28Zm.1,11.5h0l.3.3v-.3h0v-.2Zm.3,3.7v.2h.8c1.1,0,1.7-.1,1.7-.4h-.4Q180,42.9,180,43.2Zm1.7-2.1h0l.2.2h.2l.3-.3v-.4l-.2-.2H182A.6.6,0,0,0,181.7,41.1Zm1.7,2.1h.3c.3,0,.4,0,.5-.2h0c0-.2-.1-.4-.2-.4S183.6,42.7,183.4,43.2Zm1.8-1.1v.7l.2.2c.1,0,.2-.3.2-.9v-.2h-.2Z" transform="translate(-1.2 0)" style="fill:#b75326"/><path d="M192.5,15.1h.1a5.4,5.4,0,0,1,3.3.9c.7.1,1.1.2,1.1.3v.2c-.6,0-.9.2-.9.5l1.1.3c.1.2.4.3.9.5h1.6l.6.2,4.8-1.1h.2a22.2,22.2,0,0,1,8.4,4.2c2.6,2.6,4.1,4.6,4.5,5.9a14.4,14.4,0,0,1,.6,2.9c-.6,4.9-1.1,7.4-1.5,7.4a26.1,26.1,0,0,1-2.8,4.1l-.5.5V42h0a4.5,4.5,0,0,1-2.3,1.7,2.3,2.3,0,0,0-.6,1.2,4,4,0,0,1-2.9.9,27.7,27.7,0,0,1-6.2,1.4,7.2,7.2,0,0,1-2.6-1,16,16,0,0,0-3-.3l-.4.2c.3.4.4,1.5.4,3.3v.9l.5,2.8v4.9c0,1,.3,1.5,1,1.5l.4.4h0a.4.4,0,0,0-.4.4,3.2,3.2,0,0,1,.9,2.3l.4,1.2a7.3,7.3,0,0,1-2.2.3l-4.4-.3-1.2.9c-1-.3-1.8-1.3-2.7-3.1h-.1v-.2l.4-.2h0a2.3,2.3,0,0,1-.5-1V60h.2c.1,0,.1.1.1.2h.5v-.7a1.6,1.6,0,0,1,1.4-.6,12.4,12.4,0,0,0,.2-3V51.5a55.9,55.9,0,0,0-.4-5.6V20.6h-1.5l-.2-.3V16.9a1.3,1.3,0,0,1,1.5-1.5A4.3,4.3,0,0,1,192.5,15.1Zm-2.8,1.2a.5.5,0,0,0,.3.5h.4a.5.5,0,0,0,.5-.3v-.2a.5.5,0,0,0-.5-.3h-.2A.5.5,0,0,0,189.7,16.3Zm.6,46.1h0q0,.1.9.3c.6-.1,1-.2,1-.3h-1.8Zm.1-44.5v.3a.9.9,0,0,0,.4.8h.2v-.6q0-.6-.3-.6h-.4Zm1,42.9h0c0,.2.2.3.5.3V61l-.2-.2Zm.8-38.6a3.3,3.3,0,0,0,.3,1.5h0l-.4,1.1.4,1a72.5,72.5,0,0,0-.6,7.7v4.5a14.8,14.8,0,0,0,.3,3.1l-.3,1.9v.6l.2,5.3h.1a.7.7,0,0,0,.6-.7h0l-.3-.6c.2,0,.3-1.7.4-5.2V38.2c.3-6.5.4-11.3.4-14.4h0c0-2.4-.2-3.7-.6-3.7S192.2,20.8,192.2,22.2Zm0,28.8v.9c0,.7.1,1,.3,1a5.2,5.2,0,0,0,.5-2.3v-.3q0-.1-.3-.3A1.1,1.1,0,0,0,192.2,51Zm.6,3.5-.2.3v.8a5.2,5.2,0,0,0,.2,1.1h.4V55.5c0-.7,0-1-.2-1Zm1.4-28.4-.2,4.3v.3h.2V25.9h0Zm0,34.7h0l.2.3h.2V61h0l-.2-.3h-.1Zm.1-37.4v.4c.1,0,.2-.4.3-1.1h-.1C194.3,22.8,194.3,23,194.3,23.4ZM195.7,61h0l.3.2h.4V61h-.7Zm4.9-37.9c0,.2-.4.6-1.3,1h.6c-1.8.8-2.9,1.6-3.2,2.3s-.4,3.8-.6,11.5v.8c0,.2.9.9,2.7,2.3l2.5,1.2a.8.8,0,0,0,.4.4h.2a9,9,0,0,0,4.2-1.4,8.4,8.4,0,0,1,2.7-1.4c2.1-1.8,3.2-3.4,3.2-4.9v-.9l-.2-.9h0l.5-.6v-.2c-.3-.2-.5-.6-.5-1.5a4.8,4.8,0,0,0-1.3-3.5,5.6,5.6,0,0,0-2.1-2.7c-.3-.5-1.4-1-3.2-1.4h-.6l-2.9.2h-.1a1,1,0,0,1-.9-.4ZM196.1,40a.8.8,0,0,0,.8.7h0a1,1,0,0,0-.5-.6Zm.2-22.1v.2h.4v-.2l-.2-.2h0Zm.3,25.6h-.1c0,.5,1.3.8,3.7,1l1.2-.7h0l-.2-.3h-.3l-1.7.3A11.4,11.4,0,0,0,196.6,43.5Zm.6-20.7V23h.2l.3-.3v-.2h-.2Zm.9-4.3h.5l.3-.2-.2-.2h-.1C198.3,18.3,198.1,18.4,198.1,18.5Zm3.8.6c0,.2.8.4,2.6.6,0,.1.1.2.5.2h.9l.3-.3h-1.4l.2-.3v-.3h-1.6C202.5,18.8,201.9,19,201.9,19.1Zm.7,3.7c0,.2.3.2.8.3h.4v-.2l-.2-.3h0L207,22l.3-.2-.2-.3h-.5C203.9,21.8,202.6,22.2,202.6,22.8Zm.8,21.2h.2c2.4-.4,3.5-.9,3.5-1.2h-.2C204.5,43.3,203.4,43.7,203.4,44Zm2.5-26.3v.2a2.7,2.7,0,0,0,1.2.3h.3c0-.3-.4-.4-1.4-.5Zm1.1,5h0a1.7,1.7,0,0,0,1.4.5h.6c-.1-.2-.6-.4-1.5-.4Zm1.1-4.2h0a2.7,2.7,0,0,0,1.6,1h.3C210,19.1,209.3,18.7,208.1,18.5Zm.8,3.5h0l.2.2h.2l-.2-.2Zm.1,21.8h.1c.9-.2,1.4-.5,1.4-.7h0v-.2h-.1C209.4,43.2,209,43.5,209,43.8Zm.9-20.2h0c0,.5.5.9,1.3,1.2h.2c0-.6-.4-1.1-1.3-1.4Zm.7,16.2h.2a2.9,2.9,0,0,0,.8-.8h-.1C211,39.3,210.7,39.5,210.6,39.8Zm.1,2v.3h.1c.5-.1.8-.4.8-.7h-.1A.9.9,0,0,0,210.7,41.8Zm.3-21.4h0c0,.2.2.3.5.5h.2v-.2a.5.5,0,0,0-.5-.3Zm.8,6v.3a6.7,6.7,0,0,0,.9,2.1h.2v-.3a2.6,2.6,0,0,0-.8-2.1Zm1,3.3V30h.4v-.3Zm0,5.6h.1a.7.7,0,0,0,.7-.6v-.5l-.2-.2h-.1A2.1,2.1,0,0,0,212.8,35.3Zm.6-3.4v.9l.3.2h0l.2-.2a1.5,1.5,0,0,0-.4-.9Zm.3-10.2h0a2.5,2.5,0,0,0,.9,1.1h.1C214.7,22.5,214.4,22.1,213.7,21.7Zm1.3,1.6v.2h.3v-.2Zm.1,13.8h.1a8.4,8.4,0,0,0,1.3-4.4v-.8h-.2C215.9,31.9,215.5,33.6,215.1,37.1Zm.6-10.7.4.8h.3a.9.9,0,0,0-.6-.8Z" transform="translate(-1.2 0)" style="fill:#b75326"/><path d="M235.6,15.6c1.7,0,3.8.8,6.3,2.2s3.2,2.7,3.2,3.3c1.6,3.5,2.4,5.6,2.4,6.2v.5a9.4,9.4,0,0,0-.9,2.9H241l-1.7.2c-6-.5-10.1-.7-12.5-.7h-1.3a4.3,4.3,0,0,0-.8,1.5,4.8,4.8,0,0,1,.5,2.2c0,1.6.2,2.5.7,2.8v.3h0l-.4-.2v.2l.6.6a3.1,3.1,0,0,0,1.1,2c1.3,2.4,2.8,3.9,4.4,4.5a15.8,15.8,0,0,0,4.7.6,5.1,5.1,0,0,0,1.7-.7c.8-.3,2.4-1.6,4.7-4.1h0c0-.1-.3-.2-.8-.3v-.3a6.5,6.5,0,0,1,3.4-3.5l2.2,1.7c1,1.4,2.2,3.1,3.7,4.9v.3c-1.3,1.7-2.3,2.5-2.9,2.5h-.2c0-.9-.6-1.4-1.7-1.5a14.7,14.7,0,0,0-2.7,2,14.5,14.5,0,0,1-4.9,2.1,30.9,30.9,0,0,1-5.7.9l-3.5-1.3c-1.9,0-3.7-1.1-5.4-3.2a7.3,7.3,0,0,1-1.7-2.7c0-.3-.5-2-1.4-5.1a15.5,15.5,0,0,1-.4-3.4h0a21.9,21.9,0,0,1,4.9-14.4,4.4,4.4,0,0,1,2.9-2.3l3.5-.7ZM221.8,31.3h-.1v.2h.1a2,2,0,0,0-.2.9v.3a4.1,4.1,0,0,0,.6,2h.2C222.4,32.7,222.2,31.6,221.8,31.3Zm0-2.3v.4c0,.2.1.4.2.4s.3-.2.3-.6L222,29Zm.8-3.3c-.4.3-.6,1.2-.8,2.5h0c.3,0,.6-.7,1.2-2.2S222.8,25.7,222.6,25.7Zm0,11h0l.2.2h.2v-.2h-.4Zm.7,1.1h-.1c.2.6.4,1,.7,1h0A1.4,1.4,0,0,0,223.3,37.8Zm1.7-8.2h1.2l-.2-.3h-.2A1,1,0,0,0,225,29.6Zm.1-7.4h.2Zm0,3.9v.2l.2.2h.1a4.6,4.6,0,0,0,.7-.7v-.2h-.3C225.5,25.6,225.3,25.8,225.1,26.1Zm.7-1.6v.2c0,.5,3.7,1,11.2,1.5l.6.2h.7a15.2,15.2,0,0,0,3.4.9c0,.1.1.2.4.3a2.5,2.5,0,0,0,.4-1.1V25.3c0-.6-1.1-1.8-3.1-3.6a5.9,5.9,0,0,0-3.2-1.7l-2.1-.3c-3.4.7-5.7,1.5-6.7,2.5Zm0-1h0a.5.5,0,0,0,.3-.5h0A.5.5,0,0,0,225.8,23.5Zm.2,21.2v.2c0,.3.4.5,1,.7l.3.3h0a5.3,5.3,0,0,0-1.1-1.1Zm.4-23.9V21h.1c.6-.2.9-.3.9-.5H227C226.8,20.4,226.6,20.6,226.4,20.8Zm.3,8.4v.4h.3v-.3h-.3Zm.7-11.3h0l.2.2h.1c.8-.2,1.2-.4,1.2-.7v-.3l-.2-.3h-.1C227.8,17.2,227.4,17.5,227.4,17.9Zm.8,10.7v.2a48.2,48.2,0,0,0,6.6.5h-1.3c0,.2.6.3,1.6.3s2.6-.1,2.6-.3S234.6,28.8,228.2,28.6Zm.7-2.1v.2a8.3,8.3,0,0,0,4.2.8h1.4v-.3Zm.1-6.1a9.5,9.5,0,0,1,2.5-1h-.7Q229,19.5,229,20.4Zm.9-3.4h.1a15.4,15.4,0,0,0,3.8-.7c.3-.1.5-.2.5-.3h-.2a11.7,11.7,0,0,0-4.1.9h-.1Zm.5,27.9h0c0,.2.5.4,1.3.6h.1a3.6,3.6,0,0,0-1.3-.5Zm2.2-26.6h0c0,.2.8.4,2.5.7h.1v-.2a1.7,1.7,0,0,0-1.6-.8h-.2C232.9,18,232.6,18.1,232.6,18.3Zm1.3,27.3v.2h.3v-.2Zm2.3,1.6h-1.5c-.4,0-.6,0-.6.2h0l.2.2h1.1a18.6,18.6,0,0,0,4.5-.6h0c-.1-.2-.3-.3-.7-.3h-.3A6,6,0,0,0,236.2,47.2Zm-1.1-29.9v.2a6.7,6.7,0,0,0,2.5.4h.1v-.2c0-.1-.2-.2-.7-.3Zm1.2,1.4h0a22.8,22.8,0,0,0,3.8,2h.1l.6-.2h.4l-1-.4-1.2-.5a2,2,0,0,0-2-1.1h-.2C236.5,18.5,236.3,18.5,236.3,18.7Zm3.7,9.4v.2h.2v-.2Zm.1,1.7c0,.1.3.2,1,.2h.7c0-.2-.5-.3-1.3-.3S240.1,29.7,240.1,29.8Zm0,14.1h.1a1.3,1.3,0,0,0,.5-.7h0C240.3,43.4,240.1,43.6,240.1,43.9Zm.4,2.7c.4,0,.8-.3,1-1h-.1C240.8,46,240.5,46.3,240.5,46.6Zm.6-24.9c.2.3.4.5.7.5h.1v-.6l-.3-.3C241.3,21.3,241.1,21.4,241.1,21.7Zm.9,20.2h.2c.4,0,.7-.3.8-.8h0A1,1,0,0,0,242,41.9Zm.5-19.4c.4,1.3.7,2.1,1,2.2h.4c-.4-1.3-.7-2-1.1-2h-.3Zm.9,15.9h.4a.6.6,0,0,0,.5-.2L244,38h-.1A.5.5,0,0,0,243.4,38.4Zm.3,5.8h.2c.5-.4.7-.7.7-.9h-.1C244,43.5,243.7,43.8,243.7,44.2Zm1-18.8V26c.2,0,.3-.2.3-.4v-.2h-.4Zm.2,17,.2.2c.6-.2.9-.5.9-.8h-.1C245.3,41.7,245,41.9,244.9,42.4Zm1.4-.6h.2a.5.5,0,0,0,.4-.6h-.2A.7.7,0,0,0,246.3,41.8Zm2.2-.6h-.1c.1.5.3.8.5.8h.1v-.2h0A.6.6,0,0,0,248.5,41.2Z" transform="translate(-1.2 0)" style="fill:#b75326"/><path d="M279.2,0a6.5,6.5,0,0,1,2.5.7c.1,0,.2.6.3,1.9a2.2,2.2,0,0,1,.7,1c-.2,2-.4,6-.6,12.1-.1,0-.1.2-.1.6s-.5.4-.5.7v.9a7.1,7.1,0,0,1-.7,2.9v.9c0,.2.2.3.6.4v.4a95.2,95.2,0,0,0-1,10.3c0,1.8-.1,2.8-.3,2.8h0c.2,0,.3.3.4.8v.7a45.5,45.5,0,0,1-.7,5.6v1.5c2.1.4,3.1,1,3.1,1.7l-.3.4V47l.3.4h0c-.3.9-1.5,1.4-3.5,1.4H279l-.3-.6H278l-1.6.4H274a10.5,10.5,0,0,1-.5-3.1v-2a5.3,5.3,0,0,0-2.5,1.4,24.7,24.7,0,0,1-9.1,3,14.5,14.5,0,0,1-6.4-3.5,14.5,14.5,0,0,1-2-2.9,8.9,8.9,0,0,1-1.1-1.9v-.2h.2a9,9,0,0,1,1.6,2.1h.3v-.8a5.5,5.5,0,0,0-1.2-3h-.4c-.2,0-.3.4-.4,1.1h-.2v-.3a17.6,17.6,0,0,1,.2-3.1h.3v.6h.1a.7.7,0,0,0,.4-.7V34l-.2-.2c-.1,0-.2.2-.2.6l-.3.4c-.1,0-.2-.2-.3-.5a19.6,19.6,0,0,1,3.1-9.9,24.7,24.7,0,0,1,2.8-4c1.3-1.2,3.4-1.7,6.3-1.7h.5c4.4,0,8,1.1,10.8,3.4l.4.2h.2c.3-1.8.7-6.4,1.1-13.8.1-.3.3-.4.4-.4h0a6.3,6.3,0,0,0-2.7-1.3c-.4,0-.6-1.4-.7-4.2l1-.3h0c0-.2-.2-.3-.5-.3s-.3-.3-.3-.5.5-.6,1.5-.6V.5l-.3-.3h3.1Zm-24,32.8a.2.2,0,0,0,.2.2c.3,0,.5-.4.6-1.3v-.3h-.2C255.6,31.4,255.4,31.9,255.2,32.8Zm.6-5.5v.2h.2c.2-.1.5-.5.8-1.5s2.1-2.5,2.5-2.5l.2-.5h-.4a9.9,9.9,0,0,0-2,1.3A9,9,0,0,0,255.8,27.3Zm.3,15.8h0c0,.3.7.4,2,.6v-.2a5.9,5.9,0,0,0-1.8-.6Zm.1-7.2v.9c0,.6.8,2.3,2.3,5a8.5,8.5,0,0,0,3.8.9,18.1,18.1,0,0,0,8.2-2c1.2-1.7,2.1-2.5,3-2.5s.9-2.1,1.4-4.7a4.1,4.1,0,0,0,.5-2.3v-.6c0-1.7-.2-2.6-.7-2.6a10.1,10.1,0,0,1-1.4-1.5l.3-.4c0-.2-.6-.4-1.8-.7l-.4-.3h1c0-.4-2.2-.7-6.7-.7l-.9-.2c-3.3.3-4.9.7-4.9,1.3a12.6,12.6,0,0,0-3,6.6A12.9,12.9,0,0,0,256.2,35.9Zm1.4,8.3c0,.4,1.2.9,3.6,1.3h.4c0-.3-1.1-.8-3.5-1.3h-.3Zm.9-22v.2h.4c1.5-.4,2.2-.8,2.2-1.4s-.2-.2-.6-.2h-.3C259.6,20.9,259,21.3,258.5,22.2Zm2.9,24.4v.2h.9a13.7,13.7,0,0,0,2.9-.4h0l-1.8-.2C262.1,46.2,261.4,46.4,261.4,46.6Zm1.2-26.1v.3l.2.2h.3l.3-.3v-.2l-.3-.2h-.3Zm.1,3h0ZM264,43.4v.2h.8q4.1-.3,4.5-1.2v-.2h-.2C266,42.8,264.3,43.1,264,43.4Zm.7-20.3h.1Zm.9,21.7h.6c1.2,0,1.9-.2,1.9-.4h-1.3Q265.6,44.5,265.6,44.8Zm.4-21.1h.2l1.4-.2h-.4Q266,23.4,266,23.7Zm.4-2.7h2.8c-.1-.3-.8-.4-2-.5h-.6A.6.6,0,0,0,266.4,21Zm2.7,2.5.2.3h.3l.2-.2c0-.1-.2-.2-.5-.2h-.2Zm1.1,19.1v.2h.1a2.3,2.3,0,0,0,1-.7v-.2h-.2A2.2,2.2,0,0,0,270.2,42.6Zm.8-21h-.2v.2l2,.6h0c0-.4-.3-.7-1-.9Zm.8,1.9.3.2v-.2h-.4Zm1,.4c0,.1.6.4,1.8.7h0v-.2a1.3,1.3,0,0,0-1.1-.5Zm1.2,2.4v.5l.3.3h.2c.1,0,.2-.2.2-.4a.6.6,0,0,0-.3-.6h-.1Zm.9,15.8v.3q.3,0,.3.6h.1l.3-.3v-.5a.8.8,0,0,1-.2-.6h-.2A.5.5,0,0,0,274.9,42.1Zm0,2.4h.2l.2-.2h-.1Zm1.5-40.1v.2h.4c.2,0,.4,0,.4-.2V4.2h-.6Zm0-1.5h.8V2.7h-.5Zm1.2,19c0,.3.1.6.2.6h.1v-.5ZM278,4.5h.2q1.5,0,1.5-.3l-.2-.2h-.8A.8.8,0,0,0,278,4.5Zm.1,38v1.3l.2.2h.1v-.8c0-.4,0-.6-.2-.7Zm.2,2.2v.2h.5l-.2-.2Zm1.3,2c0,.1.2.2.6.2h1.7c0-.2-.3-.3-.7-.3S279.6,46.5,279.6,46.7Zm.3-43.2h.1Zm1.3,17h.2v.3h-.2Z" transform="translate(-1.2 0)" style="fill:#b75326"/><path d="M303.7,24.8c.2,0,.4,1.6.7,4.8h.1c0,.5-2.1.8-6.4,1.1a58.2,58.2,0,0,1-9.1,1.5V32c0-.3,1.8-.7,5.2-1.1,1.5-.4,2.3-.6,2.3-.8h-.6c-4.9.3-7.3,1-7.3,2l-.5.3c-1.4,0-2.1-1.5-2.1-4.4,0-.8,1.6-1.3,4.8-1.7l.6-.2,1.3.3h.6l10-1.5ZM287,27.9v.8h.3c.1,0,.2-.2.3-.7v-.3h-.3Zm0,1.7h.3v-.2h-.1Zm1.9-1.7h.3v-.2h-.2Zm3.9-.2v.2h.1a3.9,3.9,0,0,0,2-.5h-.2A5.4,5.4,0,0,0,292.8,27.7Zm2.9-.6v.2h.1c.4,0,.6-.1.7-.3h-.3C295.9,26.9,295.7,27,295.7,27.1Zm2,2.8h.1c3.7-.2,5.5-.4,5.5-.6h0l-.4-.4h0a20.3,20.3,0,0,0-5.2,1Zm.7-2v.2h.3l-.2-.2Zm.6-1.3h.8c.4,0,.6-.1.7-.3h-.2C299.4,26.3,299,26.4,299,26.6Zm.7,1.2H301c1.4,0,2.1-.2,2.2-.5v-.2h-.3C300.8,27.4,299.7,27.6,299.7,27.8Zm2-1.9h0Z" transform="translate(-1.2 0)" style="fill:#b75326"/><path d="M324.8,17.9h.6a29.8,29.8,0,0,1,6.5,4.2c2.1,1.8,3.1,3.1,3.1,4h-.1c-.3-.5-.6-.8-1-.8h0c-.2,0-.2.1-.2.2a10.9,10.9,0,0,0,1.1,2.4h.1c.1,0,.2-.2.3-.7h.1a5.8,5.8,0,0,1,.5,1.8l.5,1.3v3c-.2.6-.4,2-.8,4s-2,3.8-5.7,8.8a6.8,6.8,0,0,1-4.8,2.3,27,27,0,0,1-4.9.4h-1.2a22.1,22.1,0,0,1-5.5-1.8c-3.7-3.4-5.6-6-5.6-7.7s-1-2.2-1.3-3.1a26.8,26.8,0,0,1,1.6-5.3,5.1,5.1,0,0,1,1.4-4c1.9-4.2,4.3-6.8,7.3-8.1a20.7,20.7,0,0,1,6.3-1.4ZM307.3,35.8c.1.4.1.6.2.6h.1v-.7h0Zm1.4,2.9v.5c.1,1.3.5,2.1,1.2,2.3h.1c-.4-1.9-.7-2.9-1-2.9Zm.7-9.8a.5.5,0,0,0,.5-.4h0C309.5,28.4,309.4,28.6,309.4,28.9Zm1.2-2.1h0c.2,0,.3-.2.3-.5h-.1A.8.8,0,0,0,310.6,26.8Zm.1,7.7h.2v-.2h0Zm.3,8.3h0a1.2,1.2,0,0,0,.5.5h.3c0-.3-.2-.5-.5-.7h-.1Zm1-6v.4c.4,1,1.1,2.2,1.8,3.6s.8,1,2.4,1.7,2.1,1.5,4.2,2h1.1a18.3,18.3,0,0,0,4-1.1l2.3-1.9c2.2-2.5,3.4-4.5,3.3-6.2v-.6a10.8,10.8,0,0,1-.4-3.2,10.1,10.1,0,0,1,.3-2.7c0-.3-.8-1-2.4-2.2a8,8,0,0,0-3.6-3h-.8q-7.2.3-7.2,1.2a9.2,9.2,0,0,0-2.2,3.2c-1.3,1.3-2,2.2-2,2.7A52.1,52.1,0,0,0,312,36.8Zm.2,8V45a3.6,3.6,0,0,0,2.8.9h.7a10.3,10.3,0,0,0-3.1-1Zm.9-18.4v.4h.1c.6-.4.9-.8.9-1.1h-.3A1.8,1.8,0,0,0,313.1,26.4Zm.6-4.2v.2a26.3,26.3,0,0,0,3.8-2.6l.5-.2h.3c2.8-.3,4.2-.6,4.2-.8h-1a10.7,10.7,0,0,0-7.7,3.2Zm.6,2.8v.2h0Zm.1-1.8a1.3,1.3,0,0,0,1-.7v-.2C314.7,22.5,314.4,22.8,314.4,23.2Zm1.1,23.2h.9v-.2h-.2C315.7,46.2,315.5,46.3,315.5,46.4Zm1.2-.8h0c0,.3.6.4,1.8.4h.1A4.1,4.1,0,0,0,316.7,45.6Zm1.9-24.5v.2a22.5,22.5,0,0,0,4.8-.7l-.5-.2h-.1A9.1,9.1,0,0,0,318.6,21.1Zm.1,2.1h0v.2h.9l4.3-1h0l-1.1-.2C320.1,22.4,318.7,22.8,318.7,23.2Zm4,23.9h0c0,.2.3.3,1,.3s1-.1,1-.3h0a1,1,0,0,0-.4-.5h-.5A1.2,1.2,0,0,0,322.7,47.1Zm1.1-28.4c.2.6.6.8,1.3.8h.8v-.2c0-.5-.4-.8-1.3-.9Zm.5,1.9h0l.2.2-.6.6h0c-.1-.2.3-.4,1-.8Zm.7.1h-.1a3,3,0,0,0,1.8.9h0A2.9,2.9,0,0,0,325,20.7Zm1.1,26.8h.1c.7-.3,1-.5,1-.7h-.1C326.5,47,326.2,47.2,326.1,47.5Zm.9-23.9c.3.4.6.6.8.6l.2-.2h0c0-.3-.2-.5-.6-.5S327,23.5,327,23.6Zm1-3.4h0a1.7,1.7,0,0,0,1.3.8c0-.4-.3-.8-1.1-1H328Zm1,2.6h0a3.5,3.5,0,0,0,1.8,1.5h.3A8.7,8.7,0,0,0,329,22.8Zm1.2,1.9h0c.2.6.8,1,1.8,1.4h.2v-.2h0a2.4,2.4,0,0,0-1.9-1.1ZM333,39.8h.1c.2,0,.5-.3.8-1h-.2C333.4,38.8,333.2,39.1,333,39.8Zm1-1V38h.1c.2-.1.3.2.2.9H334Zm.5-3.5c0,1.3.2,2,.3,2h.1a2.4,2.4,0,0,1,.6-1.5v-.2l-.7-.9h-.1C334.6,34.7,334.5,34.9,334.5,35.3Zm.8-4.2v.3l.2.2.2-.2v-.3h-.4Z" transform="translate(-1.2 0)" style="fill:#b75326"/><path d="M342.7,16l4.3,1.4a6,6,0,0,0,.7,2V20c-.3,2.6-.4,8-.3,16.5a2.1,2.1,0,0,0,1.5,2.3l.4,1.1c0,.2,1.4.5,4.1.6h.3c.8,0,1.9-.9,3.2-2.8a9.5,9.5,0,0,0,1.9-2.3h.3v-.7a7.6,7.6,0,0,0,.5-1.6h.1v-.6l1.1-11.7V19.6l-.2-.6h0a1.6,1.6,0,0,0,.7-1.5c0-.4.2-.7.5-.7l1.4.7h1.4a4.9,4.9,0,0,1,3.5,1v.3c-.5,0-.7.1-.7.2l.6,1.5h.2c0-.6.1-.9.2-.9a4.1,4.1,0,0,1,.3,1l-.6,7.7h.1a40,40,0,0,0-.9,7.4v1.8c0,2.7.1,4,.4,4h.2a13.8,13.8,0,0,0,3.6-.5c.2,0,.6.3,1.1.8-.1,3.6-.4,5.5-.7,5.5l-.7-.6-1.9.2-6.8-.2c-.4,0-.7-.8-1.1-2.4a1,1,0,0,1-.4-.8V43H361a19.8,19.8,0,0,0-3.6,1.7c-.1.2-1.6.9-4.3,1.8a11.8,11.8,0,0,1-2.5,1,12,12,0,0,0-3-1.1c-2.5-2.5-4.1-4.8-4.7-6.8s-1.6-4.7-1.6-9.7l.7-7.2v-.2a20.2,20.2,0,0,0-4.2-.8c-.3-.4-.4-1.4-.4-3.1s.2-1.7.6-1.7S339.6,16.1,342.7,16Zm-4.4,2.9v.2h.8v-.2Zm0,1.9V21h.5v-.2l-.2-.2h-.3Zm.3-1.3v.2q0,.3.6.3h.1l-.3-.4Zm.9.8h.1c.4-.1.5-.2.5-.3v-.2h-.2Zm1.2,0c0,.3.6.7,2,1.1h.6c.1,0,.2-.2.2-.4a3.2,3.2,0,0,0-1.7-1h-.4C341,20,340.7,20.1,340.7,20.3Zm.8-3.5V17h.4v-.2h-.4Zm1.1,6.7v.6l.9-.3V22.4h-.1C343.2,22.3,342.9,22.7,342.6,23.5Zm.1,10.8v.2c0,1.6.8,4.1,2.5,7.5.3.3.5.4.7.4V42l-1.8-4.9a9.7,9.7,0,0,0-1.2-3h-.1Zm.2-17h0c0,.1.3.3,1,.5s0,.9.1.9h.4c1,0,1.6-.2,1.8-.5h0c0-.3-.7-.5-1.9-.7s-.2-.2-.7-.3h-.7Zm.6,13.1-.2.3h0l.2.2.2-.2v-.3Zm1.4,2.2V33a1.5,1.5,0,0,0,.9,1.3h.1c0-1.5-.1-2.3-.4-2.3h-.2A.7.7,0,0,0,344.9,32.6Zm.4-11.8V22h.2a.7.7,0,0,0,.4-.7v-.7c0-.3-.1-.5-.3-.5h-.1C345.4,20.2,345.3,20.4,345.3,20.8Zm.8,15.9h0a.5.5,0,0,0,.5.3h0C346.6,36.8,346.4,36.7,346.1,36.7Zm1.1,4.4v.2c.2.2.3.3.5.3v-.3l-.2-.2Zm3.6,4.1h-.5l-2.5-.2h-.1l-.2.2h0c0,.3,1.1.8,3.4,1.2A12.1,12.1,0,0,0,355,45h.1v-.2h-.4A15.4,15.4,0,0,1,350.8,45.2Zm-3-5.3h0v.2h.1V40h-.2Zm1,1.7h0c0,.5.7,1.1,2.2,2a10.4,10.4,0,0,0,2.4-1.2h0a25.5,25.5,0,0,1-4.4-.7Zm3.2,2.2V44h.7a6,6,0,0,0,3.2-1.7v-.2h-.3A19.8,19.8,0,0,0,352,43.8Zm5.2-5h.1a7.7,7.7,0,0,0,1.5-2.2h-.2A8.4,8.4,0,0,0,357.2,38.8Zm3.1-1.7c-.3.3-.4.5-.4.7l.3.2h.1l.2-.2v-.4Zm.4,3.8h.2l.3-.4v-.2A.5.5,0,0,0,360.7,40.9ZM362,18.1q0,.6.9.6h.5c0-.2-.4-.3-1.4-.4Zm.3,15.5v.6l.2.2.6-.5v-.3l-.3-.2h-.3Zm.1-13.3h0c0,.1.2.2.4.2h.1a.6.6,0,0,0,.5-.2h0a.8.8,0,0,0-.6-.2h-.2Zm0,20.7v.7c0,2.9.1,4.4.4,4.4h.3c.2-.1.3-.2.3-.4a20,20,0,0,1-.5-4.5l-.3-.4Zm.1-3v.4h.3v-.2h-.3Zm.1-5.3.3.3c.2,0,.3-.5.4-1.2h-.2A1.2,1.2,0,0,0,362.6,32.7Zm.8-5.9v.3h.1c.4,0,.6-.5.6-1.4s-.1-.6-.2-.6S363.6,25.7,363.4,26.8Zm.3,10v.4a12.1,12.1,0,0,0,.3,2.5h.2a6.2,6.2,0,0,0,.2-1.8v-.4c0-.5-.2-.7-.6-.7Zm0-.8h0l.2.2.2-.2v-.2h-.3Zm1.3,8.8h0c.1.2.3.3.7.3h.8c0-.2-.2-.3-.8-.4h-.5Zm.7-16V29q.1.3.3.3h0v-.5Zm.8,11.1-.6.9V41h.6l.2-.2v-.3A.8.8,0,0,0,366.5,39.9Zm1.8,2.9V43h.6c.9,0,1.4-.2,1.4-.4h-.1Zm1.6.8V44h.3l.2-.2h0c0-.1-.1-.1-.3-.1Z" transform="translate(-1.2 0)" style="fill:#b75326"/><path d="M386.2,0a3.9,3.9,0,0,1,2.3.7,22.6,22.6,0,0,0-1,6.3l-.6,5.6c0,.3.8.5,2.4.5,4.9,0,7.4.2,7.4.6l.7.4a3.1,3.1,0,0,0-.6,1.2v.2l.2,1.2-.8,2.8q0,.3.9,1.2h0a7.9,7.9,0,0,1-2.4.5c-.7-.1-1-.2-1-.3h1l.2-.2v-.2h-7.8c-.2,0-.4,1.2-.6,3.5h-.1l-.8-.9-.2.6v.4c0,1.2.2,1.8.4,1.9s.3-.4.4-1.2v-.4h.2v.2l-.5,5.9c.4,6.5.8,9.8,1.1,9.8s.7,1.9,1.6,1.9a3.1,3.1,0,0,0,1.7.4h4.7c.2,0,.4,1.1.5,3.3s-.5,1.9-2.2,1.9h-4.7a10,10,0,0,1-6.6-2.1c-1.1-.5-1.7-1.7-1.7-3.8s-.3-4.9-.4-9.8l.9-5.4.2-3.7v-.5c-.2-1.7-.7-2.5-1.4-2.5h-4.1a5.4,5.4,0,0,0-1.9.5c-.4-.1-.9-.6-1.5-1.7l1.3-5.5,7.4-.3a3.5,3.5,0,0,1,.9-2c.2-6.4.4-9.6.7-9.6V.9c0-.1-.1-.2-.3-.2h0C382.2.4,383.5.2,386.2,0ZM373.9,13.7c0,.3.1.5.5.5h.9l4.7-.3h0c0-.3-1-.4-3-.4h-2.6C374,13.5,373.9,13.6,373.9,13.7Zm.8,1.4v.3q0,.6,4.2.6c1.3,0,2-.1,2-.3s-1.8-.7-5.4-.7h-.8Zm.4,2.2c0,.2.1.2.3.2h3.3a9,9,0,0,0-2.8-.3h-.6Zm0,.8h0c0,.3,1.6.4,4.7.4h.5v-.2Zm5.7,13.5.2,1.7v2.8h.2c.3,0,.4-.9.4-2.9V31.8c.2.1.1.2-.1.2A.9.9,0,0,1,380.8,31.6Zm2,8v1.3h0l.2-.2v-1h-.3Zm.3,4.2v.3c.1,1,.5,1.5,1.3,1.5h.8c0-.2-.4-.3-1.2-.5l-.8-1.1Zm.5-22.5v.5h.1c.2,0,.3-.1.3-.4v-.6h-.1C383.7,20.9,383.6,21.1,383.6,21.3Zm.1,1.2v1h.3v-.8l-.2-.2Zm.1-20.8V2h.3V1.8h-.3Zm0,25.1v.5l.2.2h.1v-.7Zm.3-22.9c0,.3-.1.8-.1,1.6v.3h.1l.2-1.1V4.1Zm.3,2.8-.3,6.1h.4c.2,0,.4-.5.4-1.5V7q-.2-.3-.3-.3Zm.3,29.8v.9c0,.3.1.5.3.5h.1c.2,0,.3-.2.3-.4s-.3-1-.4-1Zm.1,7h-.1v.4l.5.5h.4C385.6,43.9,385.3,43.6,384.8,43.5Zm.5-4.4-.2.8c0,.9.2,1.5.6,1.7l.2-.3v-.5C385.8,39.8,385.6,39.2,385.3,39.1Zm.3-16.9h0l.2.3h.1v-.2l-.3-.2ZM386.3,2h0l.2,1.5h.1a2.1,2.1,0,0,0,.7-1.3V2l-.2-.2h-.6Zm1.5,13.7h0c0,.2.7.4,2.3.4h1l1.4.3h.2c.3,0,.5-.1.5-.4h-.1l-4.7-.4H388Zm.9,2.8h0c.1.2.8.4,2.2.6h.1a3.6,3.6,0,0,0-2-.6Zm3.6-4.6h-1.8V14a7.5,7.5,0,0,0,2.4.4h1.4c.1,0,.1-.1.1-.2a.6.6,0,0,0-.7-.7h-.6Zm-.7,30.8h.2c1.5-.3,2.3-.6,2.3-.9H394Q391.6,44.4,391.6,44.7Zm.5-25.6a9.3,9.3,0,0,0,3,.5l.2-.2v-.6h-1.4C392.7,18.8,392.1,18.9,392.1,19.1Zm2.3-2h0l.2.3h.3a1,1,0,0,0,.8-.4l-.3-.2h-.8Zm.2-2.8h0l.2.2c.4,0,.6-.1.7-.3h-.7Z" transform="translate(-1.2 0)" style="fill:#b75326"/><path d="M405.9,39.4a4.9,4.9,0,0,1,2.7,1,3.6,3.6,0,0,1,.2,1.1v.8c0,1.7-.9,2.9-2.9,3.7l-.7.4c-.9,0-1.7-.8-2.5-2.4v-.4c0-1.7.3-2.8.8-3.2A6.2,6.2,0,0,1,405.9,39.4Zm-2,2.7c.1,1.1.3,1.6.5,1.6a7.8,7.8,0,0,0,.6-2.1l.2-.4v-.3h-.1Q403.9,41.4,403.9,42.1Zm.3,2.7c0,.3.2.4.4.5h.7a1.8,1.8,0,0,0,1.3-.6h0Zm1.4-2.3h0c0,.4.1.7.3.7h0c.3,0,.5-.4.7-1.3v-.3h-.3C405.9,41.6,405.6,41.9,405.6,42.5Zm1.8.8h.4v-.6h0C407.6,42.8,407.5,43,407.4,43.3Z" transform="translate(-1.2 0)" style="fill:#231f20"/></g></g></svg>