<svg xmlns="http://www.w3.org/2000/svg" viewBox="0 0 470.4 48.8"><title>icn_rotator_Asset 71_adj</title><g id="Layer_2" data-name="Layer 2"><g id="Layer_1-2" data-name="Layer 1"><path d="M24,17.8c1.6,0,2.9,1.2,4,3.4.3,0,.5.3.9.8l.8,4.6c-.3.5-1.4.7-3.2.7h-.7c-1.5-.2-2.3-.7-2.3-1.5a4.4,4.4,0,0,0-1.4-2.4c-.1-.2-1-.3-2.6-.3a16.2,16.2,0,0,0-5.7,1.2,20.7,20.7,0,0,0-3.1,3.9c.3,7.4.4,11.9.3,13.2s.2.6.7.6h1.6q.9,0,.9.3h0l.3.8-.2,3.4-.3.5-2.9.3h-.3l-1.2.4c-4.8-.2-7.1-.3-7.1-.6s-1.3-.3-1.3-1.1-.1-1.3-.1-2.3.8-1.3,2.4-1.5c0-.4.6-.5,1.7-.5h.2L5,24.7c0-1-.3-1.5-.8-1.5H3.8a9.3,9.3,0,0,0-2.5.6H1.2c0-.1.2-.2.5-.3h0c-.4,0-.6-1.2-.6-3.5,0,0-.1-.4-.2-1.1a8.4,8.4,0,0,1,5.2-1.9H7.6a16,16,0,0,1,3.2.6v.2a2.8,2.8,0,0,0-.5,1.2v.4C13.6,17.6,18.2,17.2,24,17.8ZM2,45l-.2.2v.3h.4v-.4Zm.6-25.9a1.2,1.2,0,0,0,1,.4h.1V19l-.3-.3C2.8,18.8,2.6,18.9,2.6,19.1Zm.7,26.8h0q0,.3,1.8.3H7.3c0-.2-1.1-.3-3.3-.4Zm.2-24.4h.2c.4,0,.7-.1.7-.3H4.2C3.8,21.2,3.6,21.3,3.5,21.5ZM3.5,45H7v-.2H3.6ZM5.2,17.8v.3l.4.4h.5l-.7-.6Zm2.6,9.3v.4a2.5,2.5,0,0,1,.3,1.3,8.8,8.8,0,0,0-.2,2.5v2.5h.1c.2,0,.3-1.9.5-5.7.1,0,.1-.4.1-1.3s-.1-.6-.3-.6H8.3A.9.9,0,0,0,7.8,27.1Zm.5-3.2L8,25.1a.8.8,0,0,0,.4.7h0q.3,0,.3-.9l-.2-1Zm.5,21.4v.2h1l.2-.3c0-.1-.1-.2-.3-.2S8.8,45.1,8.8,45.3Zm.4-26.1h0v.2l.3-.3V19H9.4ZM9.3,18v.3h.3l.2-.2H9.3Zm0,20.7v.5h.3l.2-.3v-.3l-.2-.2h0Zm.1,1.2v.2h.2v-.2Zm1.2-18v.2l.2.2H11l.2-.2v-.2h-.6Zm4.2-1.4h0c.4,0,.8-.6,1.4-1.8v-.3h0A1.6,1.6,0,0,0,14.8,20.5Zm2.3-1.4.3,1.3h.5V19.1l-.2-.2h-.1C17.3,18.9,17.1,19,17.1,19.1Zm1.5-.4h0v.2h.6c.3,0,.5-.1.5-.2H18.6Zm2-.2v.2H21l.2-.3h-.1C20.8,18.3,20.6,18.4,20.6,18.5Zm1.5.4h.3v-.2h-.2Zm.6,3.6H23q.5-.2,1.2-1.5H24c-.7.3-1.1.7-1.1,1.3S22.8,22.2,22.7,22.5Zm1.8,1.6v.2h.1l.3-.3h-.1Zm0-5.4h0v.2h.3v-.2h0v-.2h-.3Zm1.9,2v.2a1.1,1.1,0,0,0,.9.5h.1v-.2a1.4,1.4,0,0,0-.9-.5Z" transform="translate(-0.9 0)" style="fill:#b75326"/><path d="M45.8,15.6c1.7,0,3.8.8,6.3,2.2s3.1,2.7,3.1,3.3c1.7,3.5,2.5,5.6,2.5,6.2v.5a9.4,9.4,0,0,0-.9,2.9H51.1l-1.7.2c-6-.5-10.1-.7-12.4-.7H35.6a3.5,3.5,0,0,0-.7,1.5,4.8,4.8,0,0,1,.4,2.2c0,1.6.2,2.5.7,2.8v.3h0l-.4-.2v.2l.6.6a3.1,3.1,0,0,0,1.1,2c1.4,2.4,2.8,3.9,4.4,4.5a16.3,16.3,0,0,0,4.7.6,3.9,3.9,0,0,0,1.7-.7c.8-.3,2.4-1.6,4.7-4.1h0c0-.1-.3-.2-.8-.3v-.3a6.8,6.8,0,0,1,3.4-3.5l2.3,1.7a49.7,49.7,0,0,0,3.6,4.9v.3c-1.3,1.7-2.3,2.5-2.9,2.5h-.2c0-.9-.5-1.4-1.6-1.5s-1.2.7-2.8,2A13.8,13.8,0,0,1,49,47.9a33.5,33.5,0,0,1-5.7.9l-3.5-1.3c-2,0-3.8-1.1-5.5-3.2a7.3,7.3,0,0,1-1.7-2.7c0-.3-.5-2-1.4-5.1a15.5,15.5,0,0,1-.4-3.4h0a21.9,21.9,0,0,1,4.9-14.4,4.7,4.7,0,0,1,2.9-2.3,32.9,32.9,0,0,1,3.6-.7ZM31.9,31.3h-.1v.2h.1a2,2,0,0,0-.2.9v.3a4.4,4.4,0,0,0,.7,2h.1C32.5,32.7,32.3,31.6,31.9,31.3Zm0-2.3v.4c.1.2.1.4.3.4s.2-.2.3-.6l-.3-.2Zm.8-3.3a5.4,5.4,0,0,0-.8,2.5H32c.2,0,.6-.7,1.1-2.2S32.9,25.7,32.7,25.7Zm.1,11h0V37h.2v-.2h-.3Zm.6,1.1h-.1c.2.6.5,1,.7,1h.1A1.5,1.5,0,0,0,33.4,37.8Zm1.8-8.2h1.1l-.2-.3h-.2A.7.7,0,0,0,35.2,29.6Zm.1-7.4h.1Zm0,3.9v.4h.1l.7-.7v-.2h-.3A.6.6,0,0,0,35.3,26.1Zm.6-1.6v.2c0,.5,3.7,1,11.2,1.5l.6.2h.8a13.6,13.6,0,0,0,3.3.9c0,.1.1.2.4.3a1.7,1.7,0,0,0,.4-1.1V25.3c0-.6-1-1.8-3.1-3.6A5.9,5.9,0,0,0,46.3,20l-2.1-.3c-3.4.7-5.6,1.5-6.7,2.5A16,16,0,0,1,35.9,24.5Zm0-1h0a.5.5,0,0,0,.3-.5h0A.5.5,0,0,0,35.9,23.5Zm.2,21.2v.2c0,.3.4.5,1.1.7l.2.3h0c-.5-.6-.8-1-1.1-1.1Zm.5-23.9V21h0c.6-.2.9-.3.9-.5h-.3A.7.7,0,0,0,36.6,20.8Zm.3,8.4v.4h.3v-.3h-.3Zm.7-11.3h0l.2.2h0c.8-.2,1.2-.4,1.2-.7v-.3l-.2-.3h-.1C37.9,17.2,37.6,17.5,37.6,17.9Zm.8,10.7v.2a46.2,46.2,0,0,0,6.5.5H43.7c0,.2.5.3,1.6.3s2.5-.1,2.5-.3S44.7,28.8,38.4,28.6Zm.6-2.1v.2a8.5,8.5,0,0,0,4.3.8h1.3v-.3Zm.1-6.1a9.5,9.5,0,0,1,2.5-1h-.7Q39.1,19.5,39.1,20.4Zm1-3.4h.1a14.8,14.8,0,0,0,3.7-.7c.3-.1.5-.2.5-.3h-.2a10.8,10.8,0,0,0-4,.9h-.1Zm.5,27.9h0q0,.3,1.2.6h.1a3.6,3.6,0,0,0-1.3-.5Zm2.1-26.6h0c0,.2.9.4,2.6.7h.1v-.2a2,2,0,0,0-1.7-.8h-.2C43,18,42.7,18.1,42.7,18.3ZM44,45.6v.2h.3v-.2Zm2.4,1.6H44.8c-.4,0-.6,0-.6.2h0l.2.2h1.1A18.6,18.6,0,0,0,50,47h0c0-.2-.3-.3-.7-.3H49A5.8,5.8,0,0,0,46.4,47.2ZM45.3,17.3v.2a6.1,6.1,0,0,0,2.5.4h0v-.2c0-.1-.2-.2-.7-.3Zm1.2,1.4h0a25,25,0,0,0,3.7,2h.1l.7-.2h.4L50.3,20l-1.2-.5a2,2,0,0,0-2-1.1h-.2C46.6,18.5,46.5,18.5,46.5,18.7Zm3.6,9.4v.2h.2v-.2Zm.1,1.7c0,.1.4.2,1.1.2h.6c0-.2-.4-.3-1.3-.3S50.2,29.7,50.2,29.8Zm0,14.1h.1a1.1,1.1,0,0,0,.6-.7h-.1C50.4,43.4,50.2,43.6,50.2,43.9Zm.4,2.7c.5,0,.8-.3,1.1-1h-.2C50.9,46,50.6,46.3,50.6,46.6Zm.7-24.9a.6.6,0,0,0,.6.5H52v-.6l-.3-.3C51.4,21.3,51.3,21.4,51.3,21.7Zm.8,20.2h.2c.4,0,.7-.3.8-.8h0C52.7,41.1,52.4,41.3,52.1,41.9Zm.5-19.4a5.4,5.4,0,0,0,1,2.2H54c-.3-1.3-.7-2-1.1-2h-.3Zm.9,15.9h.4c.3,0,.5-.1.5-.2l-.2-.3h-.1A.5.5,0,0,0,53.5,38.4Zm.3,5.8h.3q.6-.6.6-.9h-.1C54.1,43.5,53.8,43.8,53.8,44.2Zm1-18.8V26c.2,0,.3-.2.3-.4v-.2h-.4Zm.2,17,.2.2c.6-.2.9-.5.9-.8H56C55.4,41.7,55.1,41.9,55,42.4Zm1.4-.6h.2a.6.6,0,0,0,.5-.6h-.2C56.6,41.4,56.4,41.6,56.4,41.8Zm2.2-.6h-.1c.2.5.3.8.6.8h0l.2-.2h0A.7.7,0,0,0,58.6,41.2Z" transform="translate(-0.9 0)" style="fill:#b75326"/><path d="M81.7,24.8c.3,0,.5,1.6.7,4.8h.1c0,.5-2.1.8-6.3,1.1a58.2,58.2,0,0,1-9.1,1.5V32c0-.3,1.7-.7,5.2-1.1,1.5-.4,2.3-.6,2.3-.8h-.7c-4.8.3-7.2,1-7.2,2l-.5.3c-1.4,0-2.1-1.5-2.1-4.4,0-.8,1.6-1.3,4.8-1.7l.6-.2,1.2.3h.6l10.1-1.5ZM65.1,27.9v.8h.2c.2,0,.3-.2.3-.7v-.3h-.3Zm0,1.7h.3v-.2h-.2ZM67,27.9h.3v-.2h-.2Zm3.8-.2v.2h.1a3.4,3.4,0,0,0,2-.5h-.1A6.3,6.3,0,0,0,70.8,27.7Zm3-.6v.2h.1c.4,0,.6-.1.7-.3h-.3C74,26.9,73.8,27,73.8,27.1Zm2,2.8h.1c3.7-.2,5.5-.4,5.5-.6h0l-.4-.4h0a20.3,20.3,0,0,0-5.2,1Zm.6-2v.2h.3v-.2Zm.7-1.3h.8c.3,0,.6-.1.6-.3h-.1C77.5,26.3,77.1,26.4,77.1,26.6Zm.7,1.2h1.3c1.3,0,2.1-.2,2.2-.5v-.2H81C78.8,27.4,77.8,27.6,77.8,27.8Zm2-1.9h0Z" transform="translate(-0.9 0)" style="fill:#b75326"/><path d="M103.7,12.3a5,5,0,0,0,2.4.9c.9,0,2.6,1,5.2,2.9l.8.2h.4l1.1.6q1.7,1.2,1.8,1.8h0c0,.3-.2.6-.7,1s-1,2-2.6,4v.9a5.9,5.9,0,0,0-1.7.4c-.3,0-.6-.3-.8-.8S108,23,108,22.5l.7-2c0-.8-1.3-1.3-4-1.7l-4.1-.2a14.6,14.6,0,0,0-5.7,1.6c-1.3.7-2.3,2.2-3.1,4.4a12,12,0,0,1-1.4,3.5l-.7-.5a2,2,0,0,0-.4,1.4h0l.8-.4c.2,0,.2.2.3.4L90,31.8a28.8,28.8,0,0,1,1.2,3.7l-.3.4v.2a4.3,4.3,0,0,1,.5,2.1Q92,40,95,41.5l3.3,2.4a19,19,0,0,0,9.6-2.4q4.2-3.6,4.2-4.8l-.2-.9h0a16.4,16.4,0,0,1,2.7-3l1,.9v.2h-.8V34c1.5.2,2.3.6,2.3,1.3a17.1,17.1,0,0,1,2.1,3.9c.2,0,.4.5.5,1.5s.9.4,1,.7-.3.5-.8.6a5.6,5.6,0,0,0-2.6,2L115,41.8,111.6,44a18.4,18.4,0,0,0-3.1,2L102,48.1h-.9A21.7,21.7,0,0,1,95.2,47c-2.8-1.2-4.3-2.1-4.6-2.8-3.4-4.1-5.2-7.3-5.2-9.6l-.2-2.1a20.6,20.6,0,0,0,.6-5.4l1.6-3.9c0-1.2.8-2.6,2.3-4.5s3.1-3.6,6.8-5.2a30.2,30.2,0,0,1,7.2-1.1ZM87.4,31.9v.2a.7.7,0,0,0,.6.7c.2,0,.3-.7.1-2v-.3h-.1C87.7,30.5,87.6,30.9,87.4,31.9Zm2.3-8.1-1,1.9V26l.2.3H89c.3,0,.6-.7,1-2v-.5ZM89.3,33a1.3,1.3,0,0,0-.3,1,3.1,3.1,0,0,0,.6,1.2c.2.7.5,1,.9,1h0A8.2,8.2,0,0,0,89.4,33Zm-.2,4.9v.3a.9.9,0,0,0,.8.6c0-.3-.2-.6-.7-.9Zm.3,2.9h0c0,.6.6,1.3,1.9,1.9h.6c0-.5-.8-1.2-2.2-2Zm.2-18.3h.2c.5-.4.7-.7.7-1v-.2h-.1A1.4,1.4,0,0,0,89.6,22.5Zm.9,16.7v.4a.8.8,0,0,0,.7.5h0v-.2C91,39.5,90.8,39.2,90.5,39.2Zm1-19.1h.2c.6-.4.8-.7.8-1S91.7,19.4,91.5,20.1Zm.1,23.7c.4.6,1.9,1.5,4.5,2.8l1.3.4h.1v-.3c-2.6-1.1-4.2-2-4.8-2.8l-.7-.3h-.2C91.7,43.6,91.6,43.6,91.6,43.8Zm.5-27.1v.2h.2l.3-.3h-.2Zm1.2-.6,3.2-1.3,2-.9c.8-.1,1.2-.3,1.2-.4h0q-2.7,0-6.3,2.4h-.1Zm.4,27.5h0c0,.3.8.7,2.3,1.2l3,1h.6l.3-.2v-.2h-.1a3.1,3.1,0,0,1-2.2-.9l-1.1-.3h-.1l-.3.3H96a5.7,5.7,0,0,1-2-.9Zm.9-25.2h.3l.2-.2-.2-.2ZM96.9,17v.2h.2c1-.2,1.4-.4,1.4-.6v-.2h-.2C97.3,16.7,96.9,16.8,96.9,17Zm2.3-1.3V16l.8.2c2.4,0,3.7-.2,4.1-.7l-1.1-.2A19.4,19.4,0,0,0,99.2,15.7Zm1.1,1.9h.7c1.4,0,2.1-.2,2.1-.4v-.2h-.7C101,17.1,100.3,17.3,100.3,17.6Zm.8,29.7h0c0,.3.4.4,1.3.4v-.2h-.1l.2-.2-.2-.3h-.4Zm3.3-30.1h0c0,.1.5.2,1.6.3h0l-1.1-.3Zm.1,27.4h.1c.4,0,.7-.1.7-.3h0C104.8,44.4,104.5,44.5,104.5,44.6Zm.1-28.9v.2c0,.2.4.3,1.2.4l.2-.2c0-.3-.2-.4-.7-.4Zm.5-1.9H105l.2.2h.3v-.3Zm1.2,31.8h.1a5.7,5.7,0,0,0,2.1-1.3h0A4.9,4.9,0,0,0,106.3,45.6Zm.2-29.3h0l.3.3h.1v-.2l-.2-.2Zm.7,26.9h.1c1.1-.4,1.6-.9,1.6-1.3h0q-1.8.8-1.8,1.2Zm2.6-25.3v.3h.2V18h-.3Zm1.1,22.3h.2a2.4,2.4,0,0,0,.8-.9h0C111.5,39.2,111.1,39.5,110.9,40.2Zm2.3-20.7h.4l.3-.3v-.5C113.4,18.8,113.2,19,113.2,19.5Zm1.7,17.6h0c.3.8.6,1.3.8,1.3v-.4C115.6,37.4,115.3,37.1,114.9,37.1Zm1.2-1.3v.3c0,.5.8,2,2.4,4.7h.4v-.2a24,24,0,0,1-1.7-3.9l-.9-1Zm.4,6.3v.5h.4q.1,0,.9-.9h0c0-.1-.3-.3-1-.5S116.5,41.5,116.5,42.1Z" transform="translate(-0.9 0)" style="fill:#b75326"/><path d="M140.2,17.9h.6a27.6,27.6,0,0,1,6.5,4.2c2.1,1.8,3.1,3.1,3.1,4h-.1c-.3-.5-.6-.8-1-.8h0a.2.2,0,0,0-.2.2,10.9,10.9,0,0,0,1.1,2.4h.1c.1,0,.2-.2.4-.7h0a5.8,5.8,0,0,1,.5,1.8l.5,1.3v.8l.2,2.2a29.4,29.4,0,0,0-.8,4c-.2.8-2.1,3.8-5.8,8.8a6.8,6.8,0,0,1-4.8,2.3,27,27,0,0,1-4.9.4h-1.2c-.7,0-2.5-.6-5.5-1.8-3.7-3.4-5.6-6-5.6-7.7s-1-2.2-1.3-3.1a23.6,23.6,0,0,1,1.7-5.3c0-1.9.4-3.2,1.3-4,1.9-4.2,4.3-6.8,7.3-8.1a20.7,20.7,0,0,1,6.3-1.4ZM122.7,35.8a3.2,3.2,0,0,0,.2.6h.1v-.7h0Zm1.4,2.9v.5c.1,1.3.5,2.1,1.2,2.3h.1c-.3-1.9-.7-2.9-1-2.9Zm.7-9.8a.5.5,0,0,0,.5-.4h0C124.9,28.4,124.8,28.6,124.8,28.9Zm1.2-2.1h.1c.1,0,.2-.2.2-.5h-.1A.8.8,0,0,0,126,26.8Zm.2,7.7h.1l.2-.2h-.1Zm.3,8.3h0a.6.6,0,0,0,.5.5h.2c0-.3-.2-.5-.5-.7h-.1Zm.9-6v.4c.5,1,1.1,2.2,1.9,3.6s.7,1,2.3,1.7a8.2,8.2,0,0,0,4.2,2h1.1a21.4,21.4,0,0,0,4.1-1.1l2.2-1.9c2.3-2.5,3.4-4.5,3.3-6.2v-.6a11.7,11.7,0,0,1-.3-3.2,10.6,10.6,0,0,1,.2-2.7c0-.3-.8-1-2.4-2.2a8,8,0,0,0-3.6-3h-.7q-7.2.3-7.2,1.2a8.3,8.3,0,0,0-2.3,3.2c-1.3,1.3-2,2.2-2,2.7A52.1,52.1,0,0,0,127.4,36.8Zm.2,8V45a3.9,3.9,0,0,0,2.9.9h.6a9.2,9.2,0,0,0-3.1-1Zm.9-18.4v.4h.1c.6-.4.9-.8.9-1.1h-.3A2.7,2.7,0,0,0,128.5,26.4Zm.6-4.2v.2a26.3,26.3,0,0,0,3.8-2.6l.5-.2h.3c2.8-.3,4.2-.6,4.2-.8h-1a10.4,10.4,0,0,0-7.6,3.2Zm.7,2.8v.2h0Zm0-1.8c.4,0,.7-.2,1-.7v-.2C130.1,22.5,129.8,22.8,129.8,23.2Zm1.1,23.2h.9v-.2h-.2C131.1,46.2,130.9,46.3,130.9,46.4Zm1.3-.8h0c0,.3.5.4,1.7.4h.1A3.7,3.7,0,0,0,132.2,45.6ZM134,21.1v.2a22.5,22.5,0,0,0,4.8-.7l-.5-.2h-.1A9.1,9.1,0,0,0,134,21.1Zm.1,2.1h0v.2h.9l4.3-1h0l-1.1-.2C135.5,22.4,134.1,22.8,134.1,23.2Zm4.1,23.9h0q0,.3.9.3c.7,0,1.1-.1,1.1-.3h0a1.2,1.2,0,0,0-.5-.5h-.5C138.7,46.6,138.4,46.7,138.2,47.1Zm1-28.4c.2.6.6.8,1.4.8h.7v-.2q0-.7-1.2-.9Zm.6,1.9h0v.2l-.6.6h0c0-.2.3-.4,1-.8Zm.6.1h-.1a3.6,3.6,0,0,0,1.8.9h.1A3.4,3.4,0,0,0,140.4,20.7Zm1.1,26.8h.1c.7-.3,1-.5,1-.7h0C142,47,141.6,47.2,141.5,47.5Zm.9-23.9a1.2,1.2,0,0,0,.9.6V24h0a.5.5,0,0,0-.5-.5C142.6,23.5,142.4,23.5,142.4,23.6Zm1-3.4h0a1.7,1.7,0,0,0,1.3.8c0-.4-.3-.8-1-1h-.3Zm1,2.6h0a3.5,3.5,0,0,0,1.8,1.5h.3A8.7,8.7,0,0,0,144.4,22.8Zm1.2,1.9h0c.2.6.8,1,1.8,1.4h.2l.2-.2h0a2.6,2.6,0,0,0-2-1.1Zm2.8,15.1h.1c.2,0,.5-.3.8-1h-.2C148.9,38.8,148.6,39.1,148.4,39.8Zm1-1V38h.1c.2-.1.3.2.2.9h-.5Zm.5-3.5c.1,1.3.2,2,.4,2h0a2.4,2.4,0,0,1,.6-1.5v-.2l-.7-.9h-.1C150,34.7,149.9,34.9,149.9,35.3Zm.8-4.2v.3l.2.2.2-.2v-.3h-.4Z" transform="translate(-0.9 0)" style="fill:#b75326"/><path d="M163.2,15.1c.5.1.7.2.7.3l-.2.4H167c3.6,0,5.9.9,7.1,2.7a21.6,21.6,0,0,1,1.6,2.2h.2c.4,0,2.7-1.1,7-3.3a3.3,3.3,0,0,1,1.4-.4,9.3,9.3,0,0,1,5.3,1.9c3.5,2.8,5.2,5.2,5.2,7s1,5,2,12.7v1.7c0,.4.1.6.2.6h.3a6,6,0,0,0,2-.5c.6,0,1,1.2,1,3.6s.1,2,.1,2.8h-.9a31.7,31.7,0,0,1-4.6.5l-1.9-.2h-4.2c-.1,0-.2-.2-.2-.5l-.8-.8h0l.2-.6h0l-.3-1.7v-.8c0-.5.4-.8,1.3-.8s2-.4,1.8-1.7a34.7,34.7,0,0,1,.4-7.2h0l-.2-3.7c0-.7-.5-1.4-1.6-2.3h-1l-.4.3c-.1,0-.2-.2-.2-.7s-2.4-1.8-4.6-1.8-4.2,1-4.7,2.4a8.5,8.5,0,0,0-.3,2.9v7.7c0,1.9.5,2.9,1.5,3.2s.7.2.7.4a14.9,14.9,0,0,1-.9,3.4l-1.5.3-5.3-.4h-.6c-.7,0-1.1-1-1.1-3.2v-.2c0-.2.7-.5,1.9-.9a.5.5,0,0,0,.5-.5,16.9,16.9,0,0,1-.3-3.5V29.5a12.2,12.2,0,0,1-.3-2.2c0-1.1.1-1.6.3-1.6h.1l.5.3h.1q0-1.3-4.2-3.9a6.4,6.4,0,0,0-2.2-.4,7.4,7.4,0,0,0-3.9,1.5v5.3l.2,13,.3.2h.2c.1,0,.2-.1.3-.4h.1c1.1,0,1.8.3,2,.8v2c.1,1.7-.4,2.6-1.3,2.6a18.4,18.4,0,0,1-3.4.2l-8-.5c-.4,0-.8-1.3-1.1-3.7v-.2c0-.3.8-.7,2.5-1.2,0-.3.8-.6,2.4-.8a.6.6,0,0,0,.5-.6l.4-14.5V21.9c0-.4-.4-.5-1.2-.5l-2.9.3c-.7-.4-1-.8-1-1.2a1.2,1.2,0,0,0,.5-1V19c-.2-1.1-.4-1.6-.7-1.6h-.1c.3-.1.5-.5.8-1.1C156.8,15.7,159.7,15.4,163.2,15.1Zm-8.7,27.1a1.6,1.6,0,0,1-.5,1.1q.5,2.1.9,2.1h.2l-.4-3.1h-.2Zm.4-22.6c0,.5.4.7,1.1.7a6,6,0,0,0,3-1h-.3C156.2,19.1,154.9,19.3,154.9,19.6Zm.2-1.7v.3h.2c1.6,0,2.5-.1,2.5-.3h-2.7Zm.5,24.1v.8h.1A2,2,0,0,1,157,42v-.3h-1.1C155.7,41.6,155.6,41.7,155.6,42Zm.3,2v.6h.2v-.4L156,44Zm.8-.3q0,.8,2.1.3c.3.3.5.4.7.4l3.2-.3v-.2l-3-.2h0l.9-.2h1.9c-.4.4-2.1.5-5,.3l-.4-.2h-.2Zm.8-27.2.2.2c.9-.1,1.3-.2,1.3-.3h-.3C157.9,16.3,157.5,16.4,157.5,16.5Zm1,25.9v.3h1.3v-.3h-1.3Zm.8-2.7c0,.7.1,1,.3,1h.1c.5,0,.8-.3.9-1Zm.8-20.9h.2v-.2h-.1Zm.5,2v3.1a5.7,5.7,0,0,1-.3,1.8l.4.7-.2.9v.6l.2.2h0c.3,0,.5-2.2.6-6.7h0a1.1,1.1,0,0,0-.5-1A.8.8,0,0,0,160.6,20.8Zm.1,7.6v.4h.2v-.3l-.2-.2Zm.8,11.6h0c0,.9.3,1.3.8,1.3h.3c.1,0,.1-.1.1-.3Zm.6-22.8h0l.2.2h.1l.2-.2v-.2h-.4Zm.2,5.9a11.5,11.5,0,0,0-.2,2.1v1.2h.1c.3,0,.4-.6.4-1.7v-.5c0-.7-.1-1.1-.3-1.1Zm-.1-7h0l.2.2c.4,0,.5-.1.5-.4h-.5Zm0,12v.3l.3.4h.1v-.5l-.3-.4h0Zm.5,15.1v.2h2.1v-.2h-2.1Zm.5,2.2h.2a1.6,1.6,0,0,0,.8-.6h0A1.6,1.6,0,0,0,163.2,45.4Zm.2-26.6-.2.2.2.2h.1V19h-.2Zm-.1,1.9h.3c.5-.1.8-.2.8-.3v-.2h-.5C163.5,20.4,163.3,20.5,163.3,20.7Zm.2-3.5h.2l4-.7h-1.8q-2.4,0-2.4.6Zm0,26.6c0,.3.3.5,1.1.6l.3-.3v-.2q0-.3-1.2-.3Zm1.4-1.8v.3h.4l.2-.3h-.6Zm.3-23.1h0l3.1-.3a3.9,3.9,0,0,1,2.8,1.2h.2v-.3q-.3-1.2-1.2-1.2h-.6C166.7,18.3,165.3,18.5,165.2,18.9Zm1.5,1,1.7.5a4.3,4.3,0,0,0,2.1.7h0l.2-.2a5,5,0,0,0-3.2-1.3h-.4C166.8,19.7,166.7,19.7,166.7,19.9Zm3-2.8v.2a5.4,5.4,0,0,0,1.8.4h0v-.2c0-.2-.5-.3-1.5-.4Zm2,2.8c0,.3.2.5.6.5h0a.8.8,0,0,0-.4-.6Zm.9-.5v.2c.4.6.7,1,1,1.1h.1a2.4,2.4,0,0,0-1-1.3Zm.2,1.5h0c0,.4.4.8,1.1,1h.1v-.6c0-.1-.4-.3-1.1-.5Zm1.6,10.6v3.9h.3a6.1,6.1,0,0,0,.2-1.5h0c0-1.6-.2-2.3-.4-2.3Zm.2-7.5c0,.3.1.5.5.5h.1v-.2a.5.5,0,0,0-.5-.3Zm.2,19.4h.7l-.2-.2h-.4Zm1.2-2.6.2.2h.4l.3-.3h0v-.2h-.5Zm.4-19.1v.6l.2.2a3.1,3.1,0,0,0,2-1.1H177A.6.6,0,0,0,176.4,21.7Zm0,3.5v.3c0,.3.1.4.2.4h.2l.3-.3h0C177,25.3,176.8,25.2,176.4,25.2Zm0,14.2v.2h.2l.2-.2-.2-.2h-.1Zm2.5-18.8h.4q.9-.1.9-.6H180C179.4,20.2,179,20.4,178.9,20.6Zm1.8-.7h.1c.3,0,.9-.4,2-1.4v-.2C181.4,18.7,180.7,19.2,180.7,19.9Zm3.5.8v.2a.5.5,0,0,0,.4.3q2.6,0,2.7-.3c-.1-.4-.8-.6-2-.6h-.1A1.2,1.2,0,0,0,184.2,20.7Zm.9-1.9h0q0,.3.6.3h.3V19c0-.1-.2-.2-.6-.2Zm.2-.6,1.1.4a1.7,1.7,0,0,0,1.3.8H189v-.2c0-.4-1.1-.8-3.2-1.3h-.1C185.5,17.9,185.4,18,185.3,18.2Zm1.5,4.9a3.6,3.6,0,0,0,2.5,1.5h.2v-.3a4.3,4.3,0,0,0-1.4-1.2h-1.3Zm3.2-1.4v.4a3.9,3.9,0,0,0,1.2,1.4v.3h.4c0-.6-.4-1.2-1.4-2Zm.2,22.4v.2h1.7c.4,0,.6-.1.7-.3a.5.5,0,0,0-.5-.3h-1Zm1.2-18.8v.2c.3,1.1.6,1.6.9,1.6h0a2.9,2.9,0,0,0-.8-1.7Zm.8,6.9v.2l.2,2.4V35l.2.2h.1l.3-.3V32.5l-.3-.3Zm.1,5.5v.4h.2v-.6h-.1Zm.1-9.7.7,1.2h.2v-1c0-.3,0-.4-.2-.5h-.6C192.5,27.7,192.4,27.8,192.4,28Zm.1,11.5h0l.2.3.2-.3h0l-.2-.2Zm.2,3.7v.2h.8c1.2,0,1.8-.1,1.8-.4h-.4C193.4,42.9,192.7,43,192.7,43.2Zm1.8-2.1h0l.2.2h.2l.3-.3v-.4l-.2-.2h-.2A.6.6,0,0,0,194.5,41.1Zm1.6,2.1h.4c.2,0,.4,0,.4-.2h0c0-.2,0-.4-.2-.4S196.3,42.7,196.1,43.2Zm1.9-1.1v.7l.2.2c.1,0,.2-.3.2-.9v-.2h-.1Z" transform="translate(-0.9 0)" style="fill:#b75326"/><path d="M201.5,1.9h-.1c0,.2.2.3.5.3h.1V2.3l-.2-.3h2.6c1.3,0,2,.4,2,1.3l.3.2h.3l-.2-.5h.2q1.5,0,1.5,3.3c0,5.1.3,8.8,1,11.1h.1l3.9-.2c4.7.3,7,.7,7,1.2a13.3,13.3,0,0,1,2.4,1.9,12.7,12.7,0,0,1,4.5,5.8c.8.8,1.1,3.1,1.1,6.8v1.9a18.5,18.5,0,0,0-1.8,4.5c0,1.5-1.7,3.5-5,5.9-.4,1-2.9,1.5-7.4,1.6a24,24,0,0,0-4.3-.5h-1.4c-.7,0-1,.2-1,.8l-1.3,1.7-1.7.3a8.7,8.7,0,0,1-3-1.2v-.2a1.6,1.6,0,0,0,.4-1V46l-.2-1.1v-2l-.2-1.2a32.4,32.4,0,0,0,.7-5.4l.2-.6v-.8l.5-4.4v-.3c0-.8-.3-4.2-.8-10h-.1v-.6c.2-2.9.3-5.2.3-7V7.5h-.1a9.1,9.1,0,0,1-3.4,1.2c-.5,0-.8-1.1-1-3.3a5.4,5.4,0,0,1,.4-.8h-.4c0-1.6.2-2.3.6-2.3A8.5,8.5,0,0,1,201.5,1.9Zm-2.8,1.2h0c0,.2.4.3,1.3.5s1.3-.1,1.3-.3h0l-1.9-.2Zm.9,1.5v.9q0,.1.6.3c.7,0,1-.2,1.1-.5a2.5,2.5,0,0,0-1.5-.7Zm1.9.2h0l.2.2h.5l-.2-.2Zm.9,38h0l.2.2h.1v-.2h-.3Zm.5-37.7.2.2h.6l.4-.3V4.7l-.3-.2h-.1C203.2,4.5,202.9,4.7,202.9,5.1Zm.1-2.2h0Zm.9,42.2v.2l.2.3h.4v-.3l-.4-.3Zm.3-42h.5V2.9h-.2Zm.7,1.1V5.3h.2a1.2,1.2,0,0,0,.5-1,.6.6,0,0,0-.2-.5h-.2Zm.1,5.6c.1.9.3,1.3.4,1.3h.1c0-1-.2-1.5-.4-1.5S205,9.6,205,9.8Zm.4,35.3h.2c.4-.2.5-.3.5-.6h-.3C205.5,44.6,205.4,44.8,205.4,45.1Zm.6-3.8v.4h.4a.5.5,0,0,0-.3-.5ZM206.9,2v.2h0Zm1,30.6a21.8,21.8,0,0,0,.1,2.8v4.3c0,.6,1,1.1,2.9,1.7l2.4.2a20.4,20.4,0,0,0,7.7-2,14.4,14.4,0,0,0,3.3-4.9l.4-1.5a13.5,13.5,0,0,0-2-6.6,6.4,6.4,0,0,0-1.9-3.5l-2.8-2a23.3,23.3,0,0,0-9,2c-.3,0-.5,1.4-.7,4.3A37.4,37.4,0,0,0,207.9,32.6Zm.4,11.4v.2l1,.3h.2v-.2l-.8-.3Zm.1-2.9h0a.5.5,0,0,0,.5.3h0C208.8,41.1,208.7,41.1,208.4,41.1Zm1.3-20.6v.2h0c1.1-.2,1.6-.3,1.6-.5V20h-.1A3.7,3.7,0,0,0,209.7,20.5Zm2.8-1.8v.2h.4l.5-.2v-.3h-.3A.7.7,0,0,0,212.5,18.7Zm1.3,25.5h.7a2.5,2.5,0,0,0,1.7-.4v-.2H216A4.2,4.2,0,0,0,213.8,44.2ZM217,18v.2c0,.2.3.3.7.3h.1v-.2l-.4-.3Zm1.2,25.3v.2h.6l.2-.3h-.8Zm.6,2.3v.2h.2v-.2Zm.3-25.3c0,.4.6.7,1.8,1.1s1.4,1.6,1.7,1.6h0a3.2,3.2,0,0,0-1-1.8,7.4,7.4,0,0,0-2.2-.8Zm.3,20.8v.2h.3c.6,0,.9-.2.9-.3l-.3-.3H220A.6.6,0,0,0,219.4,41.1Zm1.9,1.7v.3c1.3-.4,2.1-.7,2.2-1h0A7.4,7.4,0,0,0,221.3,42.8Zm2.5-3.2h0l.2.2c.4-.2.7-.5.7-.8l-.2-.2h-.2A1,1,0,0,0,223.8,39.6Zm.9-11.9v.2h.3v-.2Zm.6,13h0c.6,0,1-1,1.3-2.8h-.4c-.2,0-.4.7-.8,2.3A.6.6,0,0,0,225.3,40.7Zm1.6-14.6v.2c0,.3.1.5.4.5h.1a.6.6,0,0,0-.4-.6Z" transform="translate(-0.9 0)" style="fill:#b75326"/><path d="M248.9,17.9h.6a32.4,32.4,0,0,1,6.5,4.2c2.1,1.8,3.1,3.1,3.1,4H259a1.4,1.4,0,0,0-1-.8h-.1c-.1,0-.1.1-.1.2a10.9,10.9,0,0,0,1.1,2.4h.1c.1,0,.2-.2.3-.7h.1a5.8,5.8,0,0,1,.5,1.8l.4,1.3v3c-.2.6-.4,2-.8,4s-2.1,3.8-5.7,8.8a6.8,6.8,0,0,1-4.8,2.3,27,27,0,0,1-4.9.4H243a22.1,22.1,0,0,1-5.5-1.8c-3.7-3.4-5.6-6-5.6-7.7s-1-2.2-1.3-3.1a26.8,26.8,0,0,1,1.6-5.3,5.1,5.1,0,0,1,1.4-4c1.9-4.2,4.3-6.8,7.3-8.1a20.7,20.7,0,0,1,6.3-1.4ZM231.4,35.8c.1.4.1.6.2.6h.1v-.7h0Zm1.4,2.9v.5c.1,1.3.5,2.1,1.2,2.3h.1c-.4-1.9-.7-2.9-1.1-2.9Zm.6-9.8a.5.5,0,0,0,.6-.4h0C233.6,28.4,233.4,28.6,233.4,28.9Zm1.3-2.1h0c.2,0,.3-.2.3-.5h-.1A.8.8,0,0,0,234.7,26.8Zm.1,7.7h.2v-.2H235Zm.3,8.3h0l.5.5h.2a.8.8,0,0,0-.4-.7h-.1Zm1-6v.4c.4,1,1.1,2.2,1.8,3.6s.8,1,2.4,1.7,2.1,1.5,4.2,2h1.1a18.3,18.3,0,0,0,4-1.1l2.3-1.9c2.2-2.5,3.3-4.5,3.3-6.2v-.6a10.8,10.8,0,0,1-.4-3.2,10.1,10.1,0,0,1,.3-2.7c0-.3-.8-1-2.4-2.2a8,8,0,0,0-3.6-3h-.8q-7.2.3-7.2,1.2a9.2,9.2,0,0,0-2.2,3.2c-1.3,1.3-2,2.2-2,2.7A52.1,52.1,0,0,0,236.1,36.8Zm.1,8V45a4,4,0,0,0,2.9.9h.7a10.3,10.3,0,0,0-3.2-1Zm1-18.4v.4h.1c.6-.4.9-.8.9-1.1h-.4A2.4,2.4,0,0,0,237.2,26.4Zm.6-4.2v.2a26.3,26.3,0,0,0,3.8-2.6l.5-.2h.3c2.8-.3,4.2-.6,4.2-.8h-1a10.7,10.7,0,0,0-7.7,3.2Zm.6,2.8v.2h0Zm.1-1.8a1.3,1.3,0,0,0,1-.7v-.2C238.8,22.5,238.5,22.8,238.5,23.2Zm1.1,23.2h.9v-.2h-.2C239.8,46.2,239.6,46.3,239.6,46.4Zm1.2-.8h0c0,.3.6.4,1.8.4h.1A4.1,4.1,0,0,0,240.8,45.6Zm1.9-24.5v.2a22.5,22.5,0,0,0,4.8-.7l-.5-.2h-.1A8.8,8.8,0,0,0,242.7,21.1Zm.1,2.1h0v.2h.9l4.3-1h0l-1.1-.2C244.2,22.4,242.8,22.8,242.8,23.2Zm4,23.9h0c0,.2.3.3,1,.3s1-.1,1-.3h0a1,1,0,0,0-.4-.5h-.5A1.2,1.2,0,0,0,246.8,47.1Zm1.1-28.4c.1.6.6.8,1.3.8h.8v-.2c0-.5-.4-.8-1.3-.9Zm.5,1.9h0l.2.2-.6.6h0c-.1-.2.3-.4,1-.8Zm.7.1H249a3,3,0,0,0,1.8.9h0A2.9,2.9,0,0,0,249.1,20.7Zm1.1,26.8h.1c.7-.3,1-.5,1-.7h-.1C250.6,47,250.3,47.2,250.2,47.5Zm.9-23.9c.3.4.5.6.8.6l.2-.2h0c0-.3-.2-.5-.6-.5S251.1,23.5,251.1,23.6Zm1-3.4h0a1.7,1.7,0,0,0,1.3.8c0-.4-.3-.8-1.1-1h-.2Zm1,2.6h0a3.5,3.5,0,0,0,1.8,1.5h.3A8.7,8.7,0,0,0,253.1,22.8Zm1.2,1.9h0c.2.6.8,1,1.8,1.4h.2v-.2h0a2.4,2.4,0,0,0-1.9-1.1Zm2.8,15.1h0c.3,0,.6-.3.8-1h-.1C257.5,38.8,257.3,39.1,257.1,39.8Zm1-1V38h0q.4-.2.3.9h-.5Zm.5-3.5c0,1.3.1,2,.3,2h.1a3,3,0,0,1,.5-1.5v-.2l-.6-.9h-.1C258.7,34.7,258.6,34.9,258.6,35.3Zm.8-4.2v.5l.3-.2v-.3h-.4Z" transform="translate(-0.9 0)" style="fill:#b75326"/><path d="M263.1,1.9H263c0,.2.2.3.5.3h.1V2.3l-.2-.3H266c1.4,0,2.1.4,2.1,1.3l.3.2h.3l-.2-.5h.2q1.5,0,1.5,3.3c0,5.1.3,8.8,1,11.1h.1l3.9-.2c4.7.3,7,.7,7,1.2l2.4,1.9a14.3,14.3,0,0,1,4.5,5.8c.8.8,1.1,3.1,1.1,6.8v1.9a18.5,18.5,0,0,0-1.8,4.5c0,1.5-1.7,3.5-5,5.9-.4,1-2.9,1.5-7.5,1.6a23.2,23.2,0,0,0-4.2-.5h-1.4c-.7,0-1,.2-1,.8L268,48.4l-1.6.3a8.7,8.7,0,0,1-3-1.2v-.2a2.6,2.6,0,0,0,.4-1V46l-.2-1.1v-2l-.2-1.2a49.2,49.2,0,0,0,.7-5.4l.2-.6v-.8l.5-4.4v-.3c0-.8-.3-4.2-.8-10h-.1v-.6c.2-2.9.3-5.2.3-7V7.5h-.1a9.1,9.1,0,0,1-3.4,1.2c-.5,0-.8-1.1-1-3.3a5.4,5.4,0,0,1,.4-.8h-.4c0-1.6.2-2.3.6-2.3A8.5,8.5,0,0,1,263.1,1.9Zm-2.8,1.2h0c0,.2.4.3,1.3.5s1.2-.1,1.2-.3h0L261,3.1Zm.9,1.5v.9q0,.1.6.3c.7,0,1-.2,1.1-.5a2.5,2.5,0,0,0-1.5-.7Zm1.9.2h0l.2.2h.5l-.2-.2Zm.9,38h0l.2.2h.1v-.2H264Zm.5-37.7.2.2h.6l.3-.3V4.7l-.2-.2h-.1C264.8,4.5,264.5,4.7,264.5,5.1Zm.1-2.2h0Zm.9,42.2v.2l.2.3h.3v-.3l-.3-.3Zm.3-42h.5V2.9H266Zm.7,1.1V5.3h.2a1.2,1.2,0,0,0,.5-1,.6.6,0,0,0-.2-.5h-.2Zm.1,5.6c.1.9.2,1.3.4,1.3h.1c-.1-1-.2-1.5-.4-1.5S266.6,9.6,266.6,9.8Zm.4,35.3h.2c.4-.2.5-.3.5-.6h-.3C267.1,44.6,267,44.8,267,45.1Zm.6-3.8v.4h.4a.5.5,0,0,0-.3-.5ZM268.5,2v.2h0Zm1,30.6a21.8,21.8,0,0,0,.1,2.8v4.3c0,.6,1,1.1,2.9,1.7l2.4.2a19.5,19.5,0,0,0,7.6-2c1.1-.8,2.2-2.4,3.4-4.9l.4-1.5a13.5,13.5,0,0,0-2-6.6,6.4,6.4,0,0,0-1.9-3.5l-2.8-2a23.3,23.3,0,0,0-9,2c-.3,0-.6,1.4-.7,4.3A37.4,37.4,0,0,0,269.5,32.6Zm.4,11.4v.2c0,.1.3.2,1,.3h.2v-.2l-.8-.3Zm.1-2.9h0c.1.2.2.3.4.3h0C270.4,41.1,270.3,41.1,270,41.1Zm1.2-20.6v.2h.1c1.1-.2,1.6-.3,1.6-.5V20h-.1A4.7,4.7,0,0,0,271.2,20.5Zm2.8-1.8.2.2h.4l.5-.2v-.3h-.3A1,1,0,0,0,274,18.7Zm1.4,25.5h.7a2.5,2.5,0,0,0,1.7-.4v-.2h-.2A3.7,3.7,0,0,0,275.4,44.2ZM278.5,18v.2a.8.8,0,0,0,.7.3h.1v-.2L279,18Zm1.3,25.3v.2h.6l.2-.3h-.8Zm.6,2.3v.2h.2v-.2Zm.3-25.3c0,.4.6.7,1.7,1.1s1.5,1.6,1.8,1.6h0a3.2,3.2,0,0,0-1-1.8,8.5,8.5,0,0,0-2.2-.8Zm.3,20.8v.2h.3c.6,0,.8-.2.8-.3l-.2-.3h-.3A.6.6,0,0,0,281,41.1Zm1.9,1.7v.3c1.3-.4,2.1-.7,2.2-1h0A7.4,7.4,0,0,0,282.9,42.8Zm2.5-3.2h0l.2.2c.4-.2.7-.5.7-.8l-.2-.2h-.2A.8.8,0,0,0,285.4,39.6Zm.9-11.9v.2h.3v-.2Zm.6,13h0c.6,0,1-1,1.2-2.8h-.4a8.1,8.1,0,0,0-.7,2.3C286.9,40.3,286.9,40.4,286.9,40.7Zm1.6-14.6v.2c0,.3.1.5.4.5h.1a.6.6,0,0,0-.4-.6Z" transform="translate(-0.9 0)" style="fill:#b75326"/><path d="M295.4,16l4.2,1.4a6.4,6.4,0,0,0,.8,2V20c-.4,2.6-.5,8-.3,16.5a2.2,2.2,0,0,0,1.4,2.3l.5,1.1c0,.2,1.3.5,4.1.6h.2c.8,0,1.9-.9,3.2-2.8a10.7,10.7,0,0,0,2-2.3h.3v-.7a4.3,4.3,0,0,0,.5-1.6h.1v-.6l1.1-11.7V19h0a1.8,1.8,0,0,0,.7-1.5c0-.4.1-.7.4-.7l1.4.7h1.4a4.9,4.9,0,0,1,3.5,1v.3c-.5,0-.7.1-.7.2l.6,1.5h.2c.1-.6.1-.9.2-.9a1.3,1.3,0,0,1,.3,1l-.6,7.7h.1c-.3.8-.5,3.2-.8,7.4v1.8c0,2.7.1,4,.3,4h.3a13.7,13.7,0,0,0,3.5-.5c.3,0,.7.3,1.2.8-.2,3.6-.4,5.5-.8,5.5l-.7-.6-1.8.2-6.9-.2c-.3,0-.7-.8-1-2.4a1,1,0,0,1-.4-.8V43h-.1a16.5,16.5,0,0,0-3.7,1.7c-.1.2-1.5.9-4.3,1.8a10.8,10.8,0,0,1-2.4,1,16.2,16.2,0,0,0-3-1.1c-2.6-2.5-4.2-4.8-4.8-6.8s-1.5-4.7-1.5-9.7l.6-7.2v-.2a20.2,20.2,0,0,0-4.2-.8c-.3-.4-.4-1.4-.4-3.1s.2-1.7.6-1.7S292.2,16.1,295.4,16Zm-4.5,2.9v.2h.8v-.2Zm0,1.9V21h.5l.2-.2-.3-.2h-.3Zm.3-1.3v.2c.1.2.3.3.7.3h.1l-.3-.4Zm1,.8h.1l.5-.3v-.2h-.3Zm1.1,0c0,.3.7.7,2,1.1h.6c.1,0,.2-.2.3-.4a4.2,4.2,0,0,0-1.7-1H294C293.6,20,293.4,20.1,293.3,20.3Zm.8-3.5V17h.4v-.2h-.4Zm1.2,6.7v.6l.9-.3V22.4H296C295.8,22.3,295.6,22.7,295.3,23.5Zm0,10.8v.2c0,1.6.9,4.1,2.6,7.5a.9.9,0,0,0,.7.4V42l-1.8-4.9c-.6-1.9-1-2.9-1.3-3h0Zm.3-17h0c0,.1.3.3.9.5s0,.9.1.9h.4c1.1,0,1.7-.2,1.8-.5h0c0-.3-.6-.5-1.9-.7s-.2-.2-.7-.3h-.6Zm.5,13.1-.2.3h0l.2.2.2-.2v-.3Zm1.5,2.2V33a1.4,1.4,0,0,0,.8,1.3h.2c0-1.5-.1-2.3-.4-2.3H298A.5.5,0,0,0,297.6,32.6Zm.4-11.8V22h.1c.3-.1.4-.3.4-.7v-.7c0-.3-.1-.5-.2-.5h-.1C298,20.2,298,20.4,298,20.8Zm.7,15.9h0a.5.5,0,0,0,.5.3h0C299.2,36.8,299,36.7,298.7,36.7Zm1.2,4.4v.2a.5.5,0,0,0,.5.3v-.3l-.3-.2Zm3.6,4.1h-.6l-2.4-.2h-.1l-.3.2h0c0,.3,1.2.8,3.5,1.2a12.8,12.8,0,0,0,4.1-1.5h.1v-.2h-.5A14.6,14.6,0,0,1,303.5,45.2Zm-3-5.3h0v.2h.1V40Zm.9,1.7h0c0,.5.8,1.1,2.2,2a13.4,13.4,0,0,0,2.5-1.2h0a24.9,24.9,0,0,1-4.5-.7Zm3.2,2.2V44h.7a6.3,6.3,0,0,0,3.3-1.7v-.2h-.4Zm5.2-5h.1a7.7,7.7,0,0,0,1.5-2.2h-.1A8.3,8.3,0,0,0,309.8,38.8Zm3.1-1.7c-.3.3-.4.5-.4.7l.3.2h.1l.2-.2v-.4Zm.5,3.8h.1l.4-.4v-.2C313.5,40.4,313.4,40.6,313.4,40.9Zm1.2-22.8q0,.6.9.6h.6c0-.2-.5-.3-1.4-.4Zm.3,15.5v.6l.2.2a1,1,0,0,0,.6-.5v-.3l-.3-.2h-.3Zm.1-13.3h0a.5.5,0,0,0,.4.2h.1c.3,0,.5-.1.5-.2h0c0-.1-.2-.2-.6-.2h-.2ZM315,41v.7c0,2.9.1,4.4.4,4.4h.3c.2-.1.4-.2.4-.4a14,14,0,0,1-.6-4.5l-.3-.4Zm.1-3v.4h.3v-.2h-.3Zm.1-5.3.3.3c.2,0,.3-.5.4-1.2h-.1A1.1,1.1,0,0,0,315.2,32.7Zm.9-5.9v.3h.1c.4,0,.6-.5.6-1.4l-.2-.6C316.4,25.1,316.3,25.7,316.1,26.8Zm.3,10v.4a12.1,12.1,0,0,0,.3,2.5h.3a14.1,14.1,0,0,0,.2-1.8v-.4c0-.5-.2-.7-.6-.7Zm0-.8h0l.2.2.2-.2v-.2h-.3Zm1.2,8.8h0c.1.2.3.3.7.3h.9c0-.2-.3-.3-.9-.4h-.5Zm.7-16V29q.2.3.3.3h.1v-.5Zm.8,11.1-.6.9V41h.6l.3-.2v-.3A.6.6,0,0,0,319.1,39.9Zm1.8,2.9V43h.6c1,0,1.4-.2,1.4-.4h0Zm1.7.8V44h.3v-.2h0c0-.1-.1-.1-.2-.1Z" transform="translate(-0.9 0)" style="fill:#b75326"/><path d="M330.4.3l2.6.6,4-.2c1,0,1.6.3,1.6,1a34.2,34.2,0,0,0-.4,6.2V29.4l-.3,11.7a36.4,36.4,0,0,0,6.4.8h0v.8c0,.3.3.6.7,1.1a37.3,37.3,0,0,0-1.6,4.3l-.5.5h-.2a1.8,1.8,0,0,0-1.6-.6L331,46.7c-3,0-4.6-.2-4.6-.5a14.1,14.1,0,0,0,1.1-4.8h1.4a4.3,4.3,0,0,1,1.7-.5l1,.3h.7q.6,0,.6-1.2c.2-1.5.4-6,.6-13.6-.2-2.4-.5-9.2-.7-20.4-.2-.2-.4-.4-.6-.4l-2.8.2c-.5-.1-.7-.2-.7-.5.2-3.2.5-4.8.8-4.8Zm-3,45.4.2.2h.3l.2-.2-.3-.2h-.1Zm.8-3h.4v-.3h-.2Zm1.3-39.3v.4l.2.3h1.7V3.8l-1.2-.5-.3-.2h-.1Zm.2-1.6h0a.5.5,0,0,0,.6.6h.3a2.1,2.1,0,0,0,1.3-.7h-2.2Zm.3,40.6h0a.5.5,0,0,0,.5.5h.1v-.5l-.3-.2H330Zm.7,2.1h0l.2.2h.9c.7,0,1-.1,1-.2h0l-1.7-.2H331Zm.7-1.3h.9V43h-.5C331.5,43,331.4,43,331.4,43.2Zm1.7-41.4.5.2h.6l.3-.2h-1.4Zm.8,36.5v.2c0,.3.1.4.2.4l.3-.3v-.4c-.1-.6-.2-.8-.3-.8S333.9,37.7,333.9,38.3Zm.2-20v.3h.3v-.3h-.1c0-.2.2-.3.5-.4v-.2h-.3A.8.8,0,0,0,334.1,18.3Zm.2-6.6h.3v-.3h-.1Zm.2-3.4v.4h.1V8.1h-.1Zm.5,17.9h.1c.2,0,.4-.8.4-2.4C335.3,23.9,335.1,24.6,335,26.2Zm.2-22.1h.4l1.4-.8a1.3,1.3,0,0,0,.3-.7H337c-.4,0-.7.2-1.1.7S335.2,3.7,335.2,4.1Zm1.2,25h-.1V40.7h.5c.1,0,.2-.2.2-.6Q336.8,29.1,336.4,29.1Zm.7-12.4v2h.1c.1,0,.2-.3.2-.8v-1Zm-.1,2.5v.4h.3v-.3Zm0-3.3h0l.3.3h0V16H337ZM339.1,44h0c0,.2.7.4,2,.4h2.1v-.2h-.6Zm1.5,1.7.2.2h1.3q.6,0,.6-.3h-1.3C340.9,45.5,340.6,45.6,340.6,45.7Zm1.3-3.3h0c.2.3.5.4,1.1.4l.3-.2v-.2h-1.4ZM342,47v.2h.9V47H342Z" transform="translate(-0.9 0)" style="fill:#b75326"/><path d="M361.9,13a18,18,0,0,1,4.1.9c2.4,2.2,3.8,4,4.2,5.2s1.6,2.8,2.2,5.7c.7.6,1,2.1,1,4.4v1.5l-.3,6.1c0,1.2.8,2.7,2.3,4.6s2.3,2,2.7,2h0c0,.5-.7,1.3-2.2,2.4s-1.7,1.6-2,1.6h0c-.7-.1-2.3-1.3-5-3.7l-7.4,3a22.1,22.1,0,0,1-5.4.7h-.3a12.4,12.4,0,0,1-5.7-2.6,25.6,25.6,0,0,1-1.8-3.1,5.3,5.3,0,0,1-1.1-3.4V36.7a5.3,5.3,0,0,1,1-3.2,13.1,13.1,0,0,1,2.8-4.8,5.4,5.4,0,0,1,1.9-1.6,14.1,14.1,0,0,1,6.4-1.6h3.1a5.9,5.9,0,0,1,3.4.7h.3a.3.3,0,0,0,.3-.3,21.7,21.7,0,0,0-2.2-5.6c-.9-1.5-2.6-2.3-5.1-2.3l-2.4-.3c-2.2.4-3.3.9-3.3,1.4a7.3,7.3,0,0,0-1.6,4.1c-.1.2-.8.3-2.2.3h-.4c-.2,0-.4.4-.6,1.1s-1.8-.4-1.8-.7a24.5,24.5,0,0,0,.5-4.5,10.8,10.8,0,0,1,4.7-5.2,10.3,10.3,0,0,1,2.1-1.1Zm-12.2,8.7v.9h0c.2,0,.3-.2.3-.4v-.5l-.2-.2Zm.6-4.6h.1c.4,0,.9-.4,1.7-1.2v-.2H352c-.4,0-.9.5-1.7,1.3Zm.8,24.8h.5l-.2-.3h-.1Zm.2,3.3h0c.2.4,1.2.9,3.1,1.4a6,6,0,0,0,2.4.5h0c0-.2-.7-.4-2.3-.7a12,12,0,0,1-2.8-1.3h-.2Zm.8-15.9v.3h.1a.5.5,0,0,0,.6-.4V29h0Zm0,5.6c.2,2.5.6,3.7,1,3.7l.6.8h-.6v.2a13.8,13.8,0,0,0,4.9,3l1.2.3c.9,0,3.7-1.2,8.6-3.6.3-.2.5-.4.5-.7v-.3c-.4-1.7-.7-3.7-1-5.9h-.1c0-.4-.4-.8-1.3-1.1a26.3,26.3,0,0,0-6.3-1.3,13.6,13.6,0,0,0-6.5,3.1A3.2,3.2,0,0,0,352.1,34.9ZM355.9,15h0q0,.3.6.3a4.1,4.1,0,0,0,1.6-.4v-.2h-.3ZM358,44.3a.5.5,0,0,0,.5.3c.4,0,.7-.2.7-.3h0L359,44h-.8Zm.6-27.5.2.3h1l-.3-.3h-.6Zm2.3-2.4.3.2h.4l-.2-.3h-.3Zm2.2,29h.3a4.9,4.9,0,0,0,2.3-.7h-.2A5,5,0,0,0,363.1,43.4Zm2.6-28.7h0a1,1,0,0,0,.8.5h.1v-.2a1.2,1.2,0,0,0-.8-.4Zm3,21.2v.3l.2.2h.1l.2-.2v-.3l-.2-.2h-.2Zm.1-2.1.2.2h.2v-.2l-.2-.2h0Zm1.7-3V31h0Zm.1,1.3v.2h.3v-.2Zm.1-3.3V29c.1.6.3.9.5.9h.1a1.6,1.6,0,0,0-.4-1.2h-.2Zm.3,5h0c0,1.5.2,2.3.5,2.3V36h0a4.8,4.8,0,0,0-.4-2.2Zm.9,8.9a1,1,0,0,0,.5.6h0l.3-.3h0l-.3-.3h-.5Zm.3-16.2h0c.1.3.1.5.2.5v-.3c-.1-.2-.1-.3-.2-.3Zm1.1,17.3V44l.3.2h.3V44h0l-.3-.4h-.2Zm.6-2.2V42c.1.5.3.7.5.7h.2c-.2-.7-.4-1-.6-1Z" transform="translate(-0.9 0)" style="fill:#b75326"/><path d="M387.6,0a3.6,3.6,0,0,1,2.2.7,27.2,27.2,0,0,0-1,6.3l-.5,5.6c0,.3.8.5,2.4.5,4.9,0,7.3.2,7.3.6l.8.4a4.1,4.1,0,0,0-.7,1.2v.2l.2,1.2-.8,2.8q0,.3.9,1.2h0a8,8,0,0,1-2.3.5c-.7-.1-1.1-.2-1.1-.3h1.1l.2-.2v-.2h-7.8c-.2,0-.4,1.2-.7,3.5h-.1l-.8-.9-.2.6v.4c.1,1.2.2,1.8.4,1.9s.3-.4.5-1.2v-.4h.1v.2l-.5,5.9c.4,6.5.8,9.8,1.2,9.8s.6,1.9,1.5,1.9a3.3,3.3,0,0,0,1.7.4h4.8a10.6,10.6,0,0,1,.4,3.3c.2,1.3-.5,1.9-2.1,1.9H390a9.8,9.8,0,0,1-6.5-2.1c-1.2-.5-1.8-1.7-1.8-3.8s-.3-4.9-.4-9.8l1-5.4.2-3.7v-.5c-.3-1.7-.8-2.5-1.5-2.5h-4a4.9,4.9,0,0,0-1.9.5c-.4-.1-.9-.6-1.5-1.7l1.2-5.5,7.5-.3a3.5,3.5,0,0,1,.9-2q.2-9.6.6-9.6V.9c0-.1-.1-.2-.3-.2h0C383.5.4,384.9.2,387.6,0ZM375.2,13.7a.5.5,0,0,0,.5.5h.9l4.7-.3h0c0-.3-1-.4-3-.4h-2.6C375.4,13.5,375.2,13.6,375.2,13.7Zm.8,1.4v.3q0,.6,4.2.6c1.3,0,2-.1,2-.3s-1.8-.7-5.3-.7H376Zm.4,2.2c0,.2.2.2.4.2h3.3a9.7,9.7,0,0,0-2.9-.3h-.5Zm0,.8h0c0,.3,1.6.4,4.7.4h.6l-.2-.2Zm5.7,13.5.3,1.7v2.8h.1c.3,0,.4-.9.4-2.9V31.8c.2.1.2.2,0,.2A.9.9,0,0,1,382.1,31.6Zm2,8v1.3h0l.2-.2v-1h-.3Zm.3,4.2v.3c.1,1,.6,1.5,1.3,1.5h.8c0-.2-.4-.3-1.2-.5l-.8-1.1Zm.5-22.5v.5h.2c.2,0,.2-.1.2-.4v-.6h-.1C385,20.9,384.9,21.1,384.9,21.3Zm.2,1.2v1h.2v-1Zm.1-20.8V2h.2V1.8h-.2Zm0,25.1v.7h.2v-.7Zm.3-22.9a5.1,5.1,0,0,0-.2,1.6v.3h.2l.2-1.1V4.1Zm.2,2.8-.2,6.1h.3c.3,0,.4-.5.4-1.5V7l-.2-.3Zm.4,29.8v.9c0,.3.1.5.3.5h.1c.1,0,.2-.2.2-.4s-.2-1-.4-1Zm0,7h0v.4a.7.7,0,0,0,.4.5h.4C386.9,43.9,386.6,43.6,386.1,43.5Zm.6-4.4-.3.8c0,.9.2,1.5.6,1.7l.2-.3v-.5C387.1,39.8,386.9,39.2,386.7,39.1Zm.2-16.9h0l.2.3h.1v-.2l-.3-.2ZM387.7,2h0V3.6h.2a2.8,2.8,0,0,0,.7-1.3V2l-.2-.2h-.6Zm1.4,13.7h0c0,.2.8.4,2.3.4h1l1.4.3h.3c.3,0,.4-.1.4-.4h-.1l-4.7-.4h-.4Zm1,2.8h0q0,.3,2.1.6h.1a3.3,3.3,0,0,0-1.9-.6Zm3.6-4.6h-1.8V14a7,7,0,0,0,2.3.4h1.4c.1,0,.1-.1.1-.2s-.2-.7-.7-.7h-.6Zm-.8,30.8h.2c1.6-.3,2.3-.6,2.3-.9h-.1Q392.9,44.4,392.9,44.7Zm.6-25.6a8.6,8.6,0,0,0,3,.5l.2-.2V19l-.2-.2h-1.4C394,18.8,393.5,18.9,393.5,19.1Zm2.2-2h0l.3.3h.2a.9.9,0,0,0,.8-.4l-.2-.2H396Zm.3-2.8h0v.2c.4,0,.7-.1.8-.3h-.8Z" transform="translate(-0.9 0)" style="fill:#b75326"/><path d="M413.6,15.6c1.7,0,3.8.8,6.3,2.2s3.2,2.7,3.2,3.3c1.6,3.5,2.4,5.6,2.4,6.2v.5a9.4,9.4,0,0,0-.9,2.9H419l-1.8.2c-5.9-.5-10.1-.7-12.4-.7h-1.4a3.5,3.5,0,0,0-.7,1.5,4.8,4.8,0,0,1,.4,2.2c0,1.6.3,2.5.7,2.8v.3h0l-.4-.2v.2l.7.6a2.7,2.7,0,0,0,1.1,2c1.3,2.4,2.8,3.9,4.4,4.5a15.1,15.1,0,0,0,4.6.6,4.6,4.6,0,0,0,1.8-.7c.8-.3,2.3-1.6,4.6-4.1h0c0-.1-.2-.2-.8-.3v-.3a7.2,7.2,0,0,1,3.4-3.5l2.3,1.7a49.7,49.7,0,0,0,3.6,4.9v.3c-1.3,1.7-2.3,2.5-2.8,2.5H426c0-.9-.5-1.4-1.6-1.5s-1.2.7-2.7,2a15.5,15.5,0,0,1-4.9,2.1,33.5,33.5,0,0,1-5.7.9l-3.5-1.3c-2,0-3.8-1.1-5.4-3.2a7.5,7.5,0,0,1-1.8-2.7,34.5,34.5,0,0,0-1.4-5.1,25.5,25.5,0,0,1-.4-3.4h0a22.4,22.4,0,0,1,4.9-14.4,5,5,0,0,1,2.9-2.3l3.6-.7ZM399.7,31.3h0v.2h0a2.2,2.2,0,0,0-.1.9v.3a4.1,4.1,0,0,0,.6,2h.1C400.3,32.7,400.1,31.6,399.7,31.3Zm0-2.3v.4c0,.2.1.4.2.4s.2-.2.3-.6L400,29Zm.8-3.3a5.4,5.4,0,0,0-.8,2.5h.1c.2,0,.6-.7,1.1-2.2S400.7,25.7,400.5,25.7Zm.1,11h0V37h.2v-.2h-.3Zm.6,1.1h-.1c.3.6.5,1,.7,1h.1A1.3,1.3,0,0,0,401.2,37.8Zm1.8-8.2h1.2l-.3-.3h-.1A.9.9,0,0,0,403,29.6Zm.1-7.4h.1Zm0,3.9v.4h.1a2.3,2.3,0,0,0,.7-.7v-.2h-.2A.8.8,0,0,0,403.1,26.1Zm.6-1.6v.2c0,.5,3.7,1,11.2,1.5l.6.2h.8a14.9,14.9,0,0,0,3.3.9c0,.1.2.2.4.3a1.7,1.7,0,0,0,.4-1.1V25.3c0-.6-1-1.8-3.1-3.6a5.6,5.6,0,0,0-3.2-1.7l-2.1-.3c-3.4.7-5.6,1.5-6.7,2.5A10.6,10.6,0,0,1,403.7,24.5Zm.1-1h0a.5.5,0,0,0,.3-.5h0A.5.5,0,0,0,403.8,23.5Zm.1,21.2v.2c.1.3.4.5,1.1.7l.3.3h0a5.3,5.3,0,0,0-1.1-1.1Zm.5-23.9V21h.1c.5-.2.8-.3.8-.5H405A.7.7,0,0,0,404.4,20.8Zm.3,8.4v.4h.3v-.3h-.3Zm.7-11.3h0l.2.2h0c.8-.2,1.3-.4,1.3-.7v-.3l-.3-.3h-.1C405.8,17.2,405.4,17.5,405.4,17.9Zm.8,10.7v.2a47.8,47.8,0,0,0,6.5.5h-1.2c0,.2.5.3,1.6.3s2.6-.1,2.6-.3S412.5,28.8,406.2,28.6Zm.6-2.1v.2a8.5,8.5,0,0,0,4.3.8h1.3v-.3A53.2,53.2,0,0,0,406.8,26.5Zm.2-6.1a8.4,8.4,0,0,1,2.4-1h-.7C407.5,19.4,407,19.8,407,20.4Zm.9-3.4h.1a14.8,14.8,0,0,0,3.7-.7c.4-.1.5-.2.5-.3H412a11.3,11.3,0,0,0-4,.9h-.1Zm.5,27.9h0c0,.2.4.4,1.3.6h.1a3.9,3.9,0,0,0-1.4-.5Zm2.2-26.6h0c0,.2.8.4,2.5.7h.1v-.2a1.9,1.9,0,0,0-1.7-.8h-.2C410.8,18,410.6,18.1,410.6,18.3Zm1.2,27.3v.2h.3v-.2Zm2.4,1.6h-1.6c-.3,0-.5,0-.6.2h0l.2.2h1.2a18.5,18.5,0,0,0,4.4-.6h0c0-.2-.2-.3-.7-.3h-.3A5.8,5.8,0,0,0,414.2,47.2Zm-1.1-29.9v.2a6.1,6.1,0,0,0,2.5.4h.1v-.2c0-.1-.3-.2-.8-.3Zm1.2,1.4h0a19.1,19.1,0,0,0,3.8,2h.1l.6-.2h.4l-1-.4-1.3-.5a1.9,1.9,0,0,0-2-1.1h-.2C414.4,18.5,414.3,18.5,414.3,18.7Zm3.6,9.4v.2h.3v-.2Zm.1,1.7c0,.1.4.2,1.1.2h.6q0-.3-1.2-.3C418.2,29.6,418,29.7,418,29.8Zm0,14.1h.2a1.3,1.3,0,0,0,.5-.7h-.1C418.2,43.4,418,43.6,418,43.9Zm.5,2.7c.4,0,.7-.3,1-1h-.2C418.8,46,418.5,46.3,418.5,46.6Zm.6-24.9a.6.6,0,0,0,.6.5h.1v-.6l-.3-.3C419.3,21.3,419.1,21.4,419.1,21.7Zm.8,20.2h.2c.4,0,.7-.3.9-.8h0C420.5,41.1,420.2,41.3,419.9,41.9Zm.5-19.4a5.4,5.4,0,0,0,1,2.2h.4c-.3-1.3-.7-2-1.1-2h-.3Zm1,15.9h.4c.2,0,.4-.1.4-.2L422,38h-.1C421.6,38,421.4,38.1,421.4,38.4Zm.3,5.8h.2q.6-.6.6-.9h-.1A.9.9,0,0,0,421.7,44.2Zm.9-18.8V26a.4.4,0,0,0,.4-.4v-.2h-.5Zm.2,17,.2.2c.6-.2.9-.5.9-.8h0C423.3,41.7,422.9,41.9,422.8,42.4Zm1.5-.6h.2a.7.7,0,0,0,.4-.6h-.2A.7.7,0,0,0,424.3,41.8Zm2.1-.6h-.1c.2.5.4.8.6.8h.1v-.2h0A.7.7,0,0,0,426.4,41.2Z" transform="translate(-0.9 0)" style="fill:#b75326"/><path d="M457.1,0a7.6,7.6,0,0,1,2.6.7c.1,0,.2.6.2,1.9a1.6,1.6,0,0,1,.7,1c-.2,2-.4,6-.6,12.1a1.5,1.5,0,0,0-.1.6c-.3.2-.5.4-.5.7v.9a8.8,8.8,0,0,1-.6,2.9v.9c0,.2.2.3.6.4v.4c-.6,5.2-.9,8.7-.9,10.3s-.1,2.8-.4,2.8h0c.2,0,.4.3.5.8v.7c0,.7-.3,2.6-.8,5.6v1.5c2.1.4,3.1,1,3.1,1.7l-.3.4V47l.3.4h0c-.3.9-1.5,1.4-3.5,1.4h-.4l-.3-.6H456l-1.7.4H452c-.2,0-.4-1-.6-3.1v-2a5.8,5.8,0,0,0-2.5,1.4,24.3,24.3,0,0,1-9,3,14.8,14.8,0,0,1-6.5-3.5,14.6,14.6,0,0,1-1.9-2.9,5.6,5.6,0,0,1-1.1-1.9v-.2h.1a6.9,6.9,0,0,1,1.6,2.1h.4v-.8a5.8,5.8,0,0,0-1.3-3h-.3c-.3,0-.4.4-.4,1.1h-.3v-.3a28.4,28.4,0,0,1,.3-3.1h.3v.6h.1a.8.8,0,0,0,.3-.7V33.8c-.1,0-.2.2-.2.6l-.4.4-.2-.5a20.4,20.4,0,0,1,3-9.9,24.5,24.5,0,0,1,2.9-4c1.3-1.2,3.4-1.7,6.2-1.7h.6c4.4,0,7.9,1.1,10.7,3.4l.4.2h.2c.4-1.8.8-6.4,1.1-13.8.2-.3.3-.4.5-.4h0a7.5,7.5,0,0,0-2.7-1.3c-.4,0-.6-1.4-.7-4.2l1-.3h0c0-.2-.2-.3-.5-.3s-.3-.3-.3-.5.5-.6,1.4-.6V.5l-.2-.3h3Zm-24,32.8c0,.1.1.2.3.2s.4-.4.6-1.3v-.3h-.2C433.6,31.4,433.4,31.9,433.1,32.8Zm.7-5.5v.2h.2c.2-.1.4-.5.8-1.5s2.1-2.5,2.5-2.5l.2-.5h-.4a7.5,7.5,0,0,0-2,1.3A7.3,7.3,0,0,0,433.8,27.3Zm.3,15.8h0c0,.3.6.4,1.9.6v-.2l-1.7-.6Zm.1-7.2v.9c0,.6.7,2.3,2.3,5a8.1,8.1,0,0,0,3.7.9,18.5,18.5,0,0,0,8.3-2c1.1-1.7,2.1-2.5,2.9-2.5s1-2.1,1.5-4.7a5.2,5.2,0,0,0,.5-2.3v-.6c0-1.7-.3-2.6-.7-2.6a6,6,0,0,1-1.4-1.5l.2-.4c0-.2-.6-.4-1.8-.7l-.4-.3h1.1c0-.4-2.3-.7-6.8-.7l-.9-.2c-3.3.3-4.9.7-4.9,1.3a14.3,14.3,0,0,0-3,6.6A16.1,16.1,0,0,0,434.2,35.9Zm1.3,8.3c0,.4,1.3.9,3.7,1.3h.4c0-.3-1.2-.8-3.6-1.3h-.3Zm1-22v.2h.4c1.4-.4,2.2-.8,2.2-1.4a1,1,0,0,0-.7-.2h-.3C437.5,20.9,437,21.3,436.5,22.2Zm2.9,24.4v.2h.9a13.7,13.7,0,0,0,2.9-.4h0l-1.8-.2C440,46.2,439.4,46.4,439.4,46.6Zm1.1-26.1v.3l.2.2h.3l.3-.3v-.2l-.2-.2h-.4Zm.1,3h0ZM442,43.4v.2h.8q4.1-.3,4.5-1.2v-.2h-.2C443.9,42.8,442.3,43.1,442,43.4Zm.6-20.3h.2Zm.9,21.7h.6c1.3,0,1.9-.2,1.9-.4h-1.3Q443.5,44.5,443.5,44.8Zm.4-21.1h.3l1.3-.2h-.4Q443.9,23.4,443.9,23.7Zm.4-2.7h2.9c-.2-.3-.8-.4-2-.5h-.6A.5.5,0,0,0,444.3,21Zm2.8,2.5.2.3h.3l.2-.2a.6.6,0,0,0-.5-.2h-.2Zm1.1,19.1v.2h0a1.8,1.8,0,0,0,1-.7v-.2H449A1.5,1.5,0,0,0,448.2,42.6Zm.7-21h-.1v.2l1.9.6h.1c0-.4-.3-.7-1-.9Zm.9,1.9.2.2.2-.2h-.4Zm.9.4c0,.1.6.4,1.8.7h.1v-.2a1.3,1.3,0,0,0-1.2-.5Zm1.3,2.4v.5l.3.3h.1c.2,0,.3-.2.3-.4a.6.6,0,0,0-.3-.6h-.2Zm.8,15.8v.3c.3,0,.4.2.4.6h.1l.3-.3v-.5c-.2-.1-.2-.3-.2-.6h-.2A.5.5,0,0,0,452.8,42.1Zm.1,2.4h.2l.2-.2h-.1Zm1.4-40.1v.2h.4c.3,0,.4,0,.5-.2l-.2-.2h-.6Zm.1-1.5h.8l-.2-.2h-.5Zm1.2,19c0,.3,0,.6.2.6h.1v-.5ZM456,4.5h.2c1,0,1.4-.1,1.4-.3l-.2-.2h-.8A.6.6,0,0,0,456,4.5Zm.1,38v1.3l.2.2h.1v-.8a1,1,0,0,0-.2-.7Zm.2,2.2v.2h.4v-.2Zm1.3,2c0,.1.2.2.6.2h1.6c0-.2-.2-.3-.7-.3S457.6,46.5,457.6,46.7Zm.2-43.2h.2Zm1.3,17h.3v.3h-.3Z" transform="translate(-0.9 0)" style="fill:#b75326"/><path d="M468.5,39.4a4.9,4.9,0,0,1,2.6,1,2,2,0,0,1,.2,1.1v.8c0,1.7-.9,2.9-2.8,3.7l-.8.4c-.9,0-1.7-.8-2.5-2.4v-.4c0-1.7.3-2.8.8-3.2A5.9,5.9,0,0,1,468.5,39.4Zm-2.1,2.7c.2,1.1.3,1.6.5,1.6a7.8,7.8,0,0,0,.6-2.1l.2-.4v-.3h-.1Q466.4,41.4,466.4,42.1Zm.4,2.7c0,.3.1.4.4.5h.6a1.8,1.8,0,0,0,1.3-.6h0Zm1.3-2.3h0c0,.4.1.7.3.7h.1c.2,0,.4-.4.7-1.3v-.3h-.3C468.4,41.6,468.1,41.9,468.1,42.5Zm1.9.8h.3v-.6h0C470.2,42.8,470.1,43,470,43.3Z" transform="translate(-0.9 0)" style="fill:#231f20"/></g></g></svg>