<svg xmlns="http://www.w3.org/2000/svg" viewBox="0 0 436.2 61.5"><title>icn_rotator_Asset 59_adj</title><g id="Layer_2" data-name="Layer 2"><g id="Layer_1-2" data-name="Layer 1"><path d="M17.2,4.5h.3A29.2,29.2,0,0,1,23.3,6a2,2,0,0,0,.8.4l.4-.2L27.4,10c.1,0,.2.2.2.6a12.3,12.3,0,0,1,.6,3.6c0,1.1-.7,1.6-2.2,1.6a5.1,5.1,0,0,1-2-.5h0c-.2,0-.3.2-.4.7h-.2q-.3,0-.9-2.4A30.3,30.3,0,0,0,21.3,10a9.1,9.1,0,0,0-3.6-.5h-.2l-4.7,1.1c-1.2.8-1.7,1.4-1.7,1.6q0,8.4.6,8.4t5.4.9c.5.2.7.4.7.7A2.7,2.7,0,0,1,19,24.3c0,1.7-1.3,2.6-3.7,2.6h-.2a3.5,3.5,0,0,1-2-.7h-.4c-.9.1-1.3.2-1.3.3v8.4a23.4,23.4,0,0,0,.3,3.8v3.6c0,.2,1.2.5,3.7.9s3.4.2,3.9.6l.2.2c-.3,0-.5,1.2-.8,3.6l-2.5-.4h-.8a53.6,53.6,0,0,0-7-.5h-5q-.3-.1-.3-.9V44.6a14.7,14.7,0,0,0-.2-2.7c0-.3.3-.5,1-.5a9.8,9.8,0,0,1,2.4.6h1a.9.9,0,0,0,.8-.5H8A12.1,12.1,0,0,1,7.4,37a13.8,13.8,0,0,1-.3-2.5v-.2a62.7,62.7,0,0,1,.8-7.8c0-.1-.4-.2-1.1-.3H6.5a16.5,16.5,0,0,1-4.4.8l-.9-.2c.1-3.8.4-5.7.8-5.7s.2-.2.4-.2h.3a29.1,29.1,0,0,0,4.8-.3c0-2.6-.1-4.5-.1-5.6s-.1-1.9-.1-2.5v-.3L7,11.1H7A14.6,14.6,0,0,1,8.7,8.6l2.9-2.9A13.4,13.4,0,0,1,17.2,4.5ZM2.2,21.9v.3h.5l.5-.5L3,21.5H2.8A.7.7,0,0,0,2.2,21.9ZM2.8,25a1.6,1.6,0,0,0-.4.9v.3h.9A1.3,1.3,0,0,0,2.8,25ZM4.7,45.1h0c0,.2.8.4,2.5.5h.1a3.3,3.3,0,0,0-2.1-.6H4.8Zm.2-22.6h0a.5.5,0,0,0,.4.6,2.5,2.5,0,0,0,1.1-.5c0-.2-.4-.3-1.1-.4H5.2Zm0,19.9v.2c0,.1.3.2,1,.3h.6l-1.4-.3Zm.5-18.1-.2.2h.6v-.2C5.9,24.4,5.7,24.3,5.4,24.3Zm1.3,1.2h.1ZM8.1,44.9v.2c.4.4.7.6,1,.6h.5A2.5,2.5,0,0,0,8.1,44.9Zm.8-12.8.2.6v.8c.1,1.4.3,2,.5,2h.1c.2,0,.3-.7.4-2.2V33c0-.8-.3-1.2-.8-1.2H9C8.9,31.8,8.9,31.9,8.9,32.1Zm.3-5L9,28.9v1h.1V27.1Zm0,13.1c0,.4-.1,1-.1,1.8h.3l.2-.2V41c0-.5-.1-.8-.3-.8Zm0-1.7v.2l.2.2h.2v-.4Zm.3-14.8v.5h.2v-.6Zm.1,7.2H9.5v.4h.2V31Zm.1-1v.4h.1l.3-.2v-.3Zm.2-1.1V29H10v-.2Zm.5,16.7v.2c0,.2.4.3,1.2.4h1l.2-.2c0-.2-.5-.3-1.4-.4ZM12.5,6.9h0a4.8,4.8,0,0,0,3.4-1h-.2A5,5,0,0,0,12.5,6.9Zm0,16.1h0c.1.3.4.5.9.5h.4v-.2a1.3,1.3,0,0,0-1-.4Zm3.2.7h0Zm.1,1.6h.3c1.1-.2,1.7-.5,1.7-.7v-.2h-.4C16.3,24.6,15.8,24.9,15.8,25.3Zm.3,19h.6q1.2,0,1.2-.3H16.7Q16.1,44,16.1,44.3Zm.3-35.6h.2V8.6h-.3Zm.8,37h0l.5.5h.1l.2-.2v-.4l-.3-.2h-.3ZM17.3,7h0c0,.1.2.2.4.2h1.1c0-.2-.3-.3-1-.3Zm4.5-.2A2.6,2.6,0,0,0,23.7,8V7.5A2.2,2.2,0,0,0,22,6.6h0C21.8,6.6,21.8,6.6,21.8,6.8Zm.7,3.4h0a2.1,2.1,0,0,0,.5,1.5h.3v-.4c0-.8-.3-1.1-.8-1.1ZM23.8,14h.4V13h-.1A1.3,1.3,0,0,0,23.8,14Z" transform="translate(-1.2 0)" style="fill:#b75326"/><path d="M26.2,14.6a2.8,2.8,0,0,0,1.3.4l.7-.4c5.6,0,8.4.2,8.4.5v1.5a4.7,4.7,0,0,1,.5,2.4v.9c-.4,5.7-.7,11.2-.9,16.4a1.7,1.7,0,0,0-.3,1.2.6.6,0,0,0,.6.3h.2c2.2,0,3.4.3,3.4.8h-.1v.4a12.2,12.2,0,0,1,.7,4.6l.2,2.5v.2H32c-4.7,0-7-.3-7-1a3.5,3.5,0,0,0-.3-1.4,1.3,1.3,0,0,1,.6-.7h.1a.9.9,0,0,0,.6.3h.1a32.8,32.8,0,0,0,4.3-.4h0c-3.5-.2-5.3-.5-5.3-.8V41.1l-.2-1.6c0-.4,1.6-.7,4.7-.7q.6,0,.6-2.7l.7-16.2h-.1c-1.5,0-2.1-.2-1.6-.5-2.4,0-3.7-.3-3.7-.8a.8.8,0,0,1-.2-.5l.3-.8c0-.1-.1-.3-.4-.6h0c.4-.2.6-.9.7-2h.3ZM26.4,41h0c.3.3,1.5.5,3.8.5h.4c.4,0,.6-.1.6-.2v-.2l-4.4-.3ZM27,15.8V16h.3c1.1,0,1.6-.1,1.6-.2v-.2h-.2C27.6,15.6,27,15.7,27,15.8Zm.3.9h0c0,.2.2.2.8.2H31c.6,0,1,0,1-.2h0c0-.2-1.2-.3-3.7-.1ZM34.6,2.5A3.9,3.9,0,0,1,38,4.6l.4,2.1a7.5,7.5,0,0,1-1.4,3,3.5,3.5,0,0,1-2.4.8c-2.6,0-4.2-.4-4.9-1.2a4.9,4.9,0,0,1-.8-3.4h-.3c1.3-2,2.5-2.9,3.9-2.9ZM31.2,4.3h0c1.4-.1,2.1-.3,2.1-.5H33C31.8,3.8,31.2,4.1,31.2,4.3ZM31.5,34l.2.5c.2,0,.2-.2.3-.6V33a8.8,8.8,0,0,0,.7-2.5V29.2c.2-.1.4-.3.4-.4a3.5,3.5,0,0,1-.3-1.3h0c.2,0,.4-2.4.6-7a1.4,1.4,0,0,0-.3-.5h-.1c-.6,0-.9,2-1.1,6.1Zm1.4,9.3H32v.3h2.6v-.2H32.9ZM32.4,6.1h.4c.5,0,.8-.2.9-.5h-.8c-.4,0-.6.1-.6.5Zm.1,35.6.3.3h.1c.3,0,.5-.2.5-.6h-.3A.6.6,0,0,0,32.5,41.7Zm.7-4.1v.3h.2l.2-.2h0v-.2h-.1Zm0-1.1v.4h.2c.2-.1.3-.3.3-.7v-.5h-.2C33.4,35.7,33.3,36,33.2,36.5Zm.1-19.9v.2a1.8,1.8,0,0,1,1,.6h.2c.1,0,.1-.1.1-.2h.1c.1,0,.3.2.4.6h.1l.8-.7v-.3H33.3Zm.3,3.6.3.9-.4,1.1c.2.4.3.6.4.6H34V22c0-1.5.2-2.2.7-2.2l.2-.3v-.2l-.2-.2h-.4C33.9,19.1,33.6,19.5,33.6,20.2Zm.6,10.5a12.8,12.8,0,0,0-.6,3.4h.1c.2,0,.5-.9.8-2.6v-.8ZM33.7,8.9H35l-.2-.2h-1Zm.8,11.8V21c0,.3.1.5.3.5H35l.2-.2V21a1,1,0,0,0-.5-.4Zm.8-13.2v.3h.2c.3,0,.5-.2.7-.5V7.1H36A.9.9,0,0,0,35.3,7.5Zm0,8,.2.2h.1v-.2l-.2-.2Zm1.2-9.7v.3h.1l.2-.3V5.6h-.1Zm1.3,35.8a1,1,0,0,0,1.1.8h.2V42c0-.1.2-.2.5-.3v-.3a.6.6,0,0,0-.3-.6H39a1.4,1.4,0,0,0-.4.7Zm.4-2.6,1.2.3v-.2c0-.1-.2-.2-.7-.3h-.4Zm0,4.1h.1l.2-.2h-.1Zm1.5,2.5h.2Z" transform="translate(-1.2 0)" style="fill:#b75326"/><path d="M42.9,15.1l2.9.2h5.1v.2a8.2,8.2,0,0,0-.3,1.8v1c.2,1.2.5,1.8,1,1.8s1.1-.9,2.5-1.4a21.9,21.9,0,0,1,8.1-2.1,8.2,8.2,0,0,1,4.6,1.8,9,9,0,0,1,3.4,2.9,17.3,17.3,0,0,1,2.5,9.5v.5l-.4,4.4.4,3.3-.6,2.9h0v.5h3.4c.7,0,1.1,0,1.3.2-.3,3-.6,4.5-1,4.5a5,5,0,0,1-2.7.7H72a28.5,28.5,0,0,0-6.2.8c-1.5-.2-2.2-.9-2.2-2.2V44.5a3.8,3.8,0,0,1,1-3,45.8,45.8,0,0,1,1.4-5.6l.4-5.4a7.9,7.9,0,0,0,.1-1.4c0-1.1-.9-2.7-2.6-4.8a12.1,12.1,0,0,0-2.4-.8,8.8,8.8,0,0,0-6.4,3q-.3,0-3,3c-.6.5-1,1.9-1,4.2.1,4.1.3,6.2.5,6.2s2.4.6,2.4.9v.4L52.6,41l-1,.2h0c0,.2.8.4,2.4.7s.4.7.4,1.4h0a8.9,8.9,0,0,1-.6,3.1l-7.2.2a1.6,1.6,0,0,1-1.5-1.1,38.2,38.2,0,0,1-.6-4.5c0-.3.6-.5,1.9-.8l.3-.4h0a2.9,2.9,0,0,0-.5-1V33.5l.3-5.7c0-3.9-.2-5.9-.6-5.9h-.3l-2.9.4c-.3,0-.6-.2-1.1-.8v-.2a1.5,1.5,0,0,0,.3-1V18l.9-2.8Zm-.3,4.2h0c0,.1.1.2.4.3a2.4,2.4,0,0,0,1.1-.6H43C42.7,19.1,42.6,19.2,42.6,19.3Zm.4-2.2v.2c0,.1.4.2,1,.2,2.7,0,4-.2,4-.5l.2-.4v-.2h-.1Zm.1,4.1h.7l.2-.2h-.3Q43.1,21.1,43.1,21.2Zm1.2-2.5h.3c.5,0,.8-.1.8-.3h-.3C44.6,18.4,44.3,18.5,44.3,18.7Zm.5,1.4h1.4c.4,0,.7.1.8.3v.2a.7.7,0,0,0-.4.6l.8.2.2-.2V18.8h-.2a13.4,13.4,0,0,1-2.5,1.1h-.1Zm.6,21.4h0c.1.8.3,1.2.8,1.2h.4l.2-.2h0a1.7,1.7,0,0,1-.6-1.1h-.8Zm1.7-18.9v.2h.1l.2-.9h-.2C47.2,21.9,47.1,22.1,47.1,22.6Zm1,21.7c0,.2.6.3,1.7.3s3-.1,3-.3-.7-.4-2.1-.4S48.3,44,48.1,44.3ZM49,20.2v1.5a1.3,1.3,0,0,1-.3,1V23l.3.9v.4a.8.8,0,0,0,.4.8c.1,0,.2-.5.4-1.5s.8-.7.8-1a4.2,4.2,0,0,0-.6-1.4c-.2-.7-.3-1-.5-1Zm.8,3.9v.4a1.6,1.6,0,0,1-.5,1,.9.9,0,0,1,.3.6c0,2.1.1,3.1.4,3.1h.1a7.8,7.8,0,0,0,.4-2.9c0-1.5-.2-2.3-.5-2.4H50A.2.2,0,0,0,49.8,24.1Zm1.6-3.3V21a2.7,2.7,0,0,0,1.9-1.1h-.1C52.7,19.8,52.2,20.1,51.4,20.8Zm.1,3.5h0c1.1-.1,2.6-1,4.5-2.6h-.4a4.4,4.4,0,0,0-1.5.9C52.4,23.2,51.5,23.7,51.5,24.3Zm.4,1.6.2.2h.2v-.2h-.4Zm1.5-.2h.4v-.7h-.1Zm1.2-1h.1c.7-.5,1-1,1-1.3h-.1C55.2,23.4,54.9,23.9,54.6,24.7Zm.5-5.5h.1l.5-.3h-.1C55.3,19,55.1,19.1,55.1,19.2Zm1.1-.5h.1c2-.4,2.9-.8,2.9-1h-.1a5.7,5.7,0,0,0-2.9.9Zm.3,5.3c.9-.2,1.4-.4,1.4-.7h-.4A.9.9,0,0,0,56.5,24Zm2.9-3.5v.2h.3c.6-.1,1-.2,1-.4h-.4Q59.4,20.2,59.4,20.5Zm1-3h0a3.1,3.1,0,0,1,1.5.7l.7.2h2c-.1-.2-.3-.3-.7-.3h-.8a6,6,0,0,0-2-.8C60.7,17.2,60.5,17.3,60.4,17.5Zm.1,4.4h.2c.9,0,1.3,0,1.3-.2l-.5-.2C60.8,21.6,60.5,21.7,60.5,21.9ZM62.7,23v.2h1.5l.2-.2v-.2l-.3-.2h-.3C63,22.7,62.7,22.9,62.7,23Zm1.2-2.7c0,.2.4.3,1.1.4a.9.9,0,0,0,.3-.5c0-.2-.3-.4-1-.5A.5.5,0,0,0,63.9,20.3Zm.5,27.2h0c0,.3.6.4,1.7.4h.8a2.4,2.4,0,0,0-2-.7h-.2Zm.3-3.1V45H65v-.2h0l-.3-.4Zm.1-23.2h.4Zm1.3-1c0,.2.2.3.5.3h.3l.3-.3h0a.6.6,0,0,0-.6-.3h-.3Zm.1,1.7h0a5,5,0,0,0,.8,1.7c0,.4.1.6.2.6l.3-.3v-.3a2.4,2.4,0,0,0-1.2-1.8Zm0,24.1a.6.6,0,0,0,.7.5c2.2-.1,3.3-.2,3.3-.4a2.1,2.1,0,0,0-1.5-.5C67,45.7,66.2,45.8,66.2,46Zm.7-7.5a2.1,2.1,0,0,1,.3,1.2h.1l.2-.7V37.9A.5.5,0,0,0,66.9,38.5Zm.3-13.6v.2a13.2,13.2,0,0,0,.9,2.9l.2-.5V27C67.9,25.6,67.6,24.9,67.2,24.9Zm0,12.6h.1c.2,0,.2-.2.2-.6v-.7h0Q67.4,36.3,67.2,37.5Zm2.1,4.8v.2l.2.2h.2l-.2-.2Zm.1-1.1h0l.3-.7h-.1C69.4,40.4,69.4,40.6,69.4,41.2Zm0-3.3v.3h.2v-.3Zm.1-4.8h0l.2.8H70C70,33.3,69.8,33.1,69.5,33.1Zm.4-8c.1,2.1.3,3.2.6,3.2h.2c-.2-2.2-.4-3.2-.7-3.2ZM71,38.2l-.2,1.3V41h.1a2.9,2.9,0,0,0,.8-1.8h0C71.7,38.5,71.4,38.2,71,38.2Zm1.8,5.4v.2c1.9,0,2.8-.1,2.8-.4v-.2h-.8C73.5,43.3,72.8,43.4,72.8,43.6Zm.6,1.3v.2a.5.5,0,0,0,.5.3c.7,0,1.1-.1,1.3-.4v-.2c-.1-.2-.3-.3-.7-.3h-.3C73.8,44.5,73.5,44.6,73.4,44.9Z" transform="translate(-1.2 0)" style="fill:#b75326"/><path d="M93.9,12.7a18,18,0,0,1,4.1.9c2.4,2.3,3.8,4,4.2,5.3s1.6,2.7,2.2,5.6c.7.6,1,2.1,1,4.4v1.5l-.2,6.1c0,1.2.7,2.8,2.2,4.7s2.3,2,2.7,2h0q0,.8-2.1,2.4c-1.1,1.1-1.8,1.6-2.1,1.6h0c-.7,0-2.3-1.2-5-3.6-2.4.8-4.9,1.8-7.4,2.9a18.1,18.1,0,0,1-5.4.7h-.3a11.5,11.5,0,0,1-5.7-2.6,33.1,33.1,0,0,1-1.8-3.1,5.2,5.2,0,0,1-1.1-3.3V36.4a5.5,5.5,0,0,1,1-3.2,15,15,0,0,1,2.8-4.8A4.2,4.2,0,0,1,85,26.9a14.3,14.3,0,0,1,6.4-1.7h3.1a5.9,5.9,0,0,1,3.4.7h.3a.3.3,0,0,0,.3-.3,18.6,18.6,0,0,0-2.2-5.6c-.9-1.5-2.6-2.2-5.1-2.2l-2.4-.3c-2.2.4-3.3.8-3.3,1.3a7.6,7.6,0,0,0-1.6,4.1c-.1.2-.8.3-2.2.3h-.4c-.2,0-.4.4-.6,1.1s-1.8-.4-1.8-.7a24.5,24.5,0,0,0,.5-4.5,10.8,10.8,0,0,1,4.7-5.2,7.6,7.6,0,0,1,2.1-1ZM81.7,21.4v.9h0c.2,0,.3-.1.3-.4v-.5h-.3Zm.7-4.6h0c.4,0,.9-.4,1.7-1.1v-.3H84c-.4,0-.9.5-1.6,1.3Zm.8,24.8h.4l-.2-.2h-.2Zm.1,3.3h0c.2.4,1.2.9,3.1,1.5a8.6,8.6,0,0,0,2.4.4h0c0-.2-.7-.5-2.3-.8a12,12,0,0,1-2.8-1.3h-.2Zm.8-15.8v.2h.1a.5.5,0,0,0,.6-.4v-.2h0Zm0,5.5c.3,2.5.6,3.7,1,3.7l.6.8h-.5v.2a12.4,12.4,0,0,0,4.8,3,2.1,2.1,0,0,0,1.2.3c.9,0,3.7-1.2,8.6-3.6.3-.2.5-.4.5-.7V38a59.8,59.8,0,0,1-1-5.9h-.1c0-.4-.4-.8-1.3-1.1a32.7,32.7,0,0,0-6.3-1.3c-3,.7-5.2,1.8-6.4,3.1A2.9,2.9,0,0,0,84.1,34.6Zm3.8-19.9v.2c0,.1.2.2.6.2a4.1,4.1,0,0,0,1.6-.4v-.2h-.3ZM90,44a.5.5,0,0,0,.5.3c.4,0,.7-.1.7-.3h0l-.2-.2h-.8Zm.6-27.5.2.3h1l-.3-.3h-.6Zm2.3-2.4.3.2h.4l-.2-.3h-.3Zm2.2,29.1h.3a4.9,4.9,0,0,0,2.3-.7h-.2C96,42.6,95.3,42.9,95.1,43.2Zm2.6-28.8v.2a1.2,1.2,0,0,0,.8.4h.1a1.5,1.5,0,0,0-.8-.5Zm3,21.2v.3l.2.3h.1l.2-.3v-.3h-.5Zm.1-2.1.2.2h.2v-.2h-.4Zm1.7-3v.2h0Zm.1,1.3V32l.2.2v-.4Zm.1-3.3v.2c.2.6.3.9.5.9h.1a1.6,1.6,0,0,0-.4-1.2h-.2Zm.3,5h0c0,1.5.2,2.3.5,2.3h.1a5.1,5.1,0,0,0-.4-2.2Zm.9,8.9a1,1,0,0,0,.5.6h.1l.2-.2v-.2l-.3-.3h-.5Zm.3-16.2h0c.1.4.1.5.3.5v-.3c0-.2-.1-.3-.2-.3Zm1.1,17.4h0l.3.3h.3v-.2h0l-.3-.3h-.2Zm.6-2.3v.4c.1.5.3.7.5.7h.2c-.2-.7-.4-1-.6-1Z" transform="translate(-1.2 0)" style="fill:#b75326"/><path d="M114.9,0l2.6.6h4c1.1,0,1.6.3,1.6.9a34.2,34.2,0,0,0-.4,6.2V29.1l-.3,11.7a29.5,29.5,0,0,0,6.4.8h.1v.9a1.8,1.8,0,0,0,.6,1,33.6,33.6,0,0,0-1.6,4.4l-.5.4h-.2c-.2-.4-.8-.5-1.5-.5l-10.1-1.5c-3.1,0-4.7-.1-4.7-.5a16.4,16.4,0,0,0,1.2-4.8h1.3a6.9,6.9,0,0,1,1.8-.5l.9.3h.7q.6,0,.6-1.2c.2-1.4.4-5.9.7-13.5-.3-2.5-.5-9.3-.8-20.4a.7.7,0,0,0-.6-.4h-2.8c-.5,0-.7-.2-.7-.5.2-3.2.5-4.8.8-4.8ZM112,45.5h.6l-.2-.3h-.2Zm.8-3.1v.2h.2v-.4h-.3ZM114,3.1v.5l.2.2h1.7V3.6L114.8,3l-.3-.2h-.2Zm.2-1.6h0c0,.4.2.6.7.6h.2a1.6,1.6,0,0,0,1.3-.7h-2.2Zm.3,40.7h0c0,.3.2.4.5.4h.1v-.4l-.2-.3h-.2Zm.8,2h1c.7,0,1,0,1-.2h-1.8Zm.6-1.3h.9v-.2h-.5C116,42.7,115.9,42.8,115.9,42.9Zm1.8-41.3h1l.3-.2h-1.2Zm.7,36.4v.2c0,.3.1.5.2.5l.3-.4v-.4c-.1-.5-.2-.8-.3-.8S118.4,37.4,118.4,38Zm.2-19.9v.2h.3V18h-.1c0-.1.2-.3.5-.4H119A.7.7,0,0,0,118.6,18.1Zm.2-6.7h.3v-.2h-.3ZM119,8v.4h.1V7.8h-.1Zm.5,17.9v.2h.1c.3,0,.4-.9.4-2.5C119.8,23.6,119.6,24.4,119.5,25.9Zm.2-22.1h0l.2.2h.2a4.1,4.1,0,0,1,1.4-.8,1.7,1.7,0,0,0,.3-.7V2.4h-.2c-.4,0-.7.3-1,.7S119.7,3.5,119.7,3.8Zm1.2,25V40.4h.5c.1,0,.2-.2.2-.6Q121.4,28.8,120.9,28.8Zm.7-12.4v2h.1c.2,0,.2-.3.2-.8v-1Zm-.1,2.5v.4h.1l.2-.2v-.3Zm0-3.3h0l.3.3h0v-.2h-.3Zm2.1,28.1h0c0,.3.7.4,2.1.4h1.4Zm1.5,1.8h1.5c.4,0,.6-.1.6-.2v-.2h-1.3C125.4,45.2,125.1,45.3,125.1,45.5Zm1.4-3.4h0c.1.2.4.4,1,.4l.3-.2v-.3h-1.3Zm0,4.6v.2h.9v-.2h-.9Z" transform="translate(-1.2 0)" style="fill:#b75326"/><path d="M134.5,0l2.5.6h4c1.1,0,1.6.3,1.6.9a46.8,46.8,0,0,0-.4,6.2V29.1l-.3,11.7a30.5,30.5,0,0,0,6.4.8h.1v.9a1.8,1.8,0,0,0,.6,1,33.6,33.6,0,0,0-1.6,4.4l-.5.4h-.2c-.2-.4-.7-.5-1.5-.5l-10.1-1.5c-3.1,0-4.6-.1-4.6-.5a17,17,0,0,0,1.1-4.8h1.3a6.9,6.9,0,0,1,1.8-.5l.9.3h.7c.4,0,.7-.4.7-1.2s.3-5.9.6-13.5c-.3-2.5-.5-9.3-.7-20.4a.8.8,0,0,0-.7-.4h-2.8c-.4,0-.7-.2-.7-.5.2-3.2.5-4.8.8-4.8Zm-3,45.5h.6l-.2-.3h-.2Zm.8-3.1v.2h.2v-.4h-.3Zm1.2-39.3v.5l.3.2h1.6V3.6L134.3,3l-.3-.2h-.2Zm.3-1.6h0a.5.5,0,0,0,.6.6h.2a1.6,1.6,0,0,0,1.3-.7h-2.1Zm.3,40.7h0c0,.3.1.4.4.4h.1v-.4l-.2-.3h-.2Zm.7,2h1c.7,0,1.1,0,1.1-.2H135Zm.6-1.3h.9v-.2h-.5C135.5,42.7,135.4,42.8,135.4,42.9Zm1.8-41.3h1l.3-.2h-1.2Zm.7,36.4v.2c0,.3.1.5.2.5l.3-.4v-.4c0-.5-.1-.8-.3-.8S137.9,37.4,137.9,38Zm.2-19.9v.2h.3V18h-.1c0-.1.2-.3.6-.4h-.3A.8.8,0,0,0,138.1,18.1Zm.2-6.7h.3v-.2h-.3Zm.2-3.4v.4h.1l.2-.2V8l-.2-.2h-.1Zm.5,17.9v.2h.1c.3,0,.4-.9.4-2.5C139.3,23.6,139.2,24.4,139,25.9Zm.3-22.1h0v.2h.3a3.1,3.1,0,0,1,1.3-.8,1.3,1.3,0,0,0,.4-.7l-.2-.2H141a1.5,1.5,0,0,0-1,.7C139.5,3.3,139.3,3.5,139.3,3.8Zm1.1,25V40.4h.5c.1,0,.2-.2.2-.6Q141,28.8,140.4,28.8Zm.7-12.4v2h.1c.2,0,.3-.3.3-.8v-1Zm-.1,2.5v.4h.1l.2-.2v-.3Zm0-3.3h0l.3.3h.1v-.2H141Zm2.1,28.1h0c0,.3.7.4,2.1.4h1.4Zm1.5,1.8h1.5c.4,0,.6-.1.6-.2v-.2h-1.3C144.9,45.2,144.6,45.3,144.6,45.5Zm1.4-3.4h0a1.2,1.2,0,0,0,1,.4l.4-.2v-.3H146Zm0,4.6v.2h1v-.2h-1Z" transform="translate(-1.2 0)" style="fill:#b75326"/><path d="M158.3,17.8q.9,3.9,0,3.9c-.6.1.1,2.4,2.2,7.1a40,40,0,0,0,2.2,5c1.1,2.9,1.9,4.4,2.3,4.4s.3.2.6.8h.7q.8,0,2.4-5.4c4.3-7.9,5.3-11.7,3.1-11.2a34.7,34.7,0,0,0,.2-4.3l.3-.2c5.3.1,8,.3,8,.6s.3,1.1.3,3.2-.6,1.8-1.1,1.8-1,0-.5.2h-.4c-1.6,2.7-2.4,4.5-2.4,5.3a11.6,11.6,0,0,1-1.9,4.3,74.1,74.1,0,0,1-3,7.6,13.4,13.4,0,0,0-.9,3.2l-2.6,4.3a35.3,35.3,0,0,1-5.3,8.3l-3,2a13.5,13.5,0,0,1-2.9.5c-3,0-4.6-.3-4.6-.9a3,3,0,0,1-.8-1.8c-.5-.5-1.3-2.6-2.2-6.4h0q0-.6,1.2-.6a11.3,11.3,0,0,0,3.7-1.2c.5,0,1.3,1.9,2.2,5.7.3.9.6,1.3.7,1.3h.5c.4-.1.7-.6,1-1.5s1-1,2.4-3.2l2-3.6.2-.7V45a7.1,7.1,0,0,0-1.3-2.8,36.8,36.8,0,0,1-2-3.9,97.3,97.3,0,0,0-6.5-14.5l-.6-.2h-4V21.5l-.2-2.7,1.2-.4,6.1-.6h2.8Zm-9.2,4h0v.4l.2.3h.9l1.2-.3C151.4,22,150.7,21.9,149.1,21.8Zm2.6,28.7a3.4,3.4,0,0,1,.6,1.2l.4.5h.3v-.2a2.3,2.3,0,0,0-.8-1.6h-.3Zm1.3,2.9h0c0,.5.1.8.5,1h.1v-.2a.8.8,0,0,0-.5-.8Zm1.3,2.3v.2l.4.3h.5l.2-.2c0-.1-.2-.3-.7-.3Zm.4-33.1a3,3,0,0,0,.8,1.9h.1v-.7a1.7,1.7,0,0,0-.5-1.4h-.3Zm.8,35c.1.3.4.4.8.4h1v-.2c0-.1-.2-.2-.8-.3h-.9Zm2.2-.8,1.1.8h.3c.1,0,.2-.2.2-.4v-.4l-.4-.2h-.6C157.9,56.6,157.7,56.7,157.7,56.8Zm2.2-20.9h0l.2.2h.1V36h0l-.2-.2Zm0,18.3h0c.5,0,.9-.5,1.3-1.5h-.1A2.4,2.4,0,0,0,159.9,54.2Zm.4-21h0a16.4,16.4,0,0,0,1.6,3.6h.1c-.8-2.4-1.3-3.6-1.6-3.6Zm.6,23.1h.2a3.9,3.9,0,0,0,2-1.7.9.9,0,0,0-.6-.3h-.2q-.6,0-.9,1.2Zm.9-18.9h0l.4.4c.1,0,.1-.1.1-.3s-.1-.3-.3-.4h0Zm2.4,7.5h0c.3,0,.5-.1.5-.4v-.4h-.2C164.3,44.3,164.2,44.5,164.2,44.9Zm1.2,4.9V50a1.2,1.2,0,0,0,.6-.9h-.2Zm1.1-3V47h.3c.3,0,.9-1.1,1.7-3.1h0C168,43.8,167.3,44.8,166.5,46.8Zm.6-4h.3c.6,0,1.5-1.9,2.6-5.9q0-.1.6-.6a1,1,0,0,1,.3-.8h0V35c.5-1.1-.2.1-2.2,3.9a15.1,15.1,0,0,1-1.5,3.6Zm4.1-4.1h.1c.7,0,1.2-1.6,1.6-4.7h0q-.3,0-.6,1.5A11.9,11.9,0,0,0,171.2,38.7Zm2-19.3,1.5.6.9-.2h1.2c0-.2-.5-.3-1.3-.3h-.9c-.4,0-.6,0-.6.1Zm2.7,5.7a39.7,39.7,0,0,1-2.6,4.9v.4a2.1,2.1,0,0,0,.5.9l-.4,1.2h.2a33.8,33.8,0,0,0,2.4-6.4v-1Zm.1-1.8v.3h.4v-.3Zm.4-1.9v.2a.8.8,0,0,0,.8.4h0v-.3l-.4-.4h-.2Zm1.1.1v.2l.2.2h.1c1.4-.3,2.1-.6,2.1-.8h0l-.2-.2h-.2C178.2,21,177.6,21.2,177.5,21.5Zm.7-2h0c0,.2.2.3.4.4l1.1-.2v-.2c0-.1-.2-.2-.5-.2h-.8Z" transform="translate(-1.2 0)" style="fill:#b75326"/><path d="M224.5,17.5c1.6,0,3,1.2,4.1,3.5.2,0,.5.2.8.8l.9,4.5c-.4.5-1.5.8-3.3.8h-.6c-1.6-.3-2.3-.8-2.3-1.6a4.1,4.1,0,0,0-1.5-2.4c-.1-.2-1-.3-2.6-.3a15.3,15.3,0,0,0-5.7,1.3,20.6,20.6,0,0,0-3.1,3.8c.3,7.5.4,11.9.3,13.3s.3.5.8.5h1.5c.6,0,1,.1,1,.3h0l.2.8v3.5l-.4.4-2.9.3h-.3l-1.2.4c-4.7-.1-7.1-.3-7.1-.5s-1.2-.4-1.2-1.1a15.5,15.5,0,0,1-.1-2.3c0-.8.8-1.3,2.4-1.6,0-.3.5-.5,1.6-.5h.2l-.4-16.9c0-1.1-.2-1.6-.7-1.6h-.4a8.6,8.6,0,0,0-2.5.6h-.1v-.2c0-.1.1-.2.5-.3h0c-.4,0-.6-1.2-.6-3.5-.1,0-.2-.3-.2-1.1a8.3,8.3,0,0,1,5.1-1.9h1.6a15.4,15.4,0,0,1,3.1.6v.2a2.2,2.2,0,0,0-.6,1.3v.4C214.1,17.4,218.7,16.9,224.5,17.5Zm-22,27.2-.2.2v.3h.4v-.4Zm.6-25.9a1.4,1.4,0,0,0,1,.5h.1v-.5l-.3-.2C203.4,18.5,203.1,18.6,203.1,18.8Zm.7,26.8h0q0,.3,1.8.3h2.3c0-.3-1.1-.4-3.3-.5Zm.3-24.4v.2h.2c.4,0,.6-.1.7-.3v-.2h-.1C204.4,20.9,204.1,21,204.1,21.2Zm0,23.5h3.5v-.2h-3.5Zm1.6-27.2v.3l.4.4h.5l-.7-.6Zm2.6,9.4v.3a2.5,2.5,0,0,1,.3,1.3,17.2,17.2,0,0,0-.2,2.5l.2,2.5h0c.2,0,.4-1.9.5-5.7.1,0,.2-.4.2-1.3s-.2-.6-.4-.6h-.1A1.4,1.4,0,0,0,208.3,26.9Zm.5-3.3-.3,1.3a.6.6,0,0,0,.4.6h0c.2,0,.3-.3.4-.8l-.3-1.1Zm.5,21.4.2.2h.9l.3-.3c0-.1-.1-.2-.3-.2S209.3,44.9,209.3,45Zm.4-26h.2l.2-.2v-.3H210Zm.2-1.3V18h.2l.3-.2h-.5Zm0,20.7v.5h.2l.3-.2v-.4h-.3Zm.1,1.2v.2h.1v-.2Zm1.1-17.9v.2h.6v-.2h-.6Zm4.2-1.5h0c.4,0,.9-.6,1.5-1.7v-.4h-.1A1.7,1.7,0,0,0,215.3,20.2Zm2.4-1.3.2,1.2h.6V18.6h-.2C217.8,18.7,217.7,18.8,217.7,18.9Zm1.4-.5h.8a.6.6,0,0,0,.5-.2h-1.3Zm2-.2v.2h.4l.3-.2-.2-.2C221.3,18,221.1,18.1,221.1,18.2Zm1.6.4h0Zm.6,3.6h.2c.3-.1.7-.6,1.3-1.5h0c0-.1-.1-.2-.3-.2a1.6,1.6,0,0,0-1.1,1.4A.4.4,0,0,0,223.3,22.2Zm1.7,1.7h.1l.3-.2v-.2h-.1Q225,23.8,225,23.9Zm0-5.5h.6l-.2-.2h-.2Zm2,2v.2a.8.8,0,0,0,.8.5h.1a.9.9,0,0,0-.8-.6Z" transform="translate(-1.2 0)" style="fill:#b75326"/><path d="M237,15.7l4.2,1.4a5,5,0,0,0,.8,2v.7c-.4,2.5-.5,8-.3,16.4a2.4,2.4,0,0,0,1.4,2.4l.5,1c0,.3,1.4.5,4.1.7h.2c.9,0,1.9-1,3.2-2.8a10.6,10.6,0,0,0,2-2.4h.3v-.7a4.3,4.3,0,0,0,.5-1.6h.1v-.5l1.1-11.8V18.7h0a2.2,2.2,0,0,0,.7-1.6c0-.4.1-.6.4-.7l1.4.7h1.4c1.7,0,2.8.3,3.5,1.1v.2c-.4.1-.7.1-.7.3l.6,1.4h.2q.2-.9.3-.9a4.1,4.1,0,0,1,.3,1l-.7,7.7h.1a64.4,64.4,0,0,0-.8,7.4v1.8c0,2.7.1,4.1.3,4.1h.3a16.4,16.4,0,0,0,3.6-.6,3.9,3.9,0,0,1,1.1.8c-.2,3.7-.4,5.5-.7,5.5l-.7-.5-1.9.2-6.9-.2c-.3,0-.7-.9-1-2.5a1,1,0,0,1-.4-.8v-.5h-.2a15.7,15.7,0,0,0-3.7,1.6c-.1.3-1.5.9-4.2,1.9l-2.5.9a12,12,0,0,0-3-1.1c-2.6-2.5-4.2-4.8-4.8-6.8s-1.5-4.7-1.5-9.7l.6-7.2h0q0-.3-4.2-.9a8.2,8.2,0,0,1-.4-3.1c0-1.1.2-1.7.6-1.7S233.8,15.9,237,15.7Zm-4.5,3h0V19h.2l.6-.2h-.9Zm0,1.8v.2h.5l.2-.2-.3-.2h-.3Zm.3-1.2v.2c.1.2.3.3.7.3h.1l-.3-.3Zm1,.7v.2h.1c.3-.1.5-.2.5-.3h-.6Zm1.1.1c0,.2.7.6,2,1h.6c.2,0,.2-.1.3-.4a2.8,2.8,0,0,0-1.7-.9h-.5C235.2,19.8,235,19.9,234.9,20.1Zm.9-3.5h.4l-.2-.2h-.1Zm1.1,6.7v.5l.9-.3V22.2l-.2-.2C237.4,22,237.2,22.4,236.9,23.3Zm0,10.7v.2c0,1.6.9,4.2,2.6,7.6l.7.3v-.3l-1.8-5c-.6-1.9-1-2.9-1.3-3h0Zm.3-17h0l.9.6a2.8,2.8,0,0,0,.1.8h.4c1.1,0,1.7-.1,1.8-.5h0c0-.3-.6-.5-1.8-.7s-.3-.2-.8-.2h-.6Zm.5,13.2-.2.2v.2h.2l.2-.2v-.2Zm1.5,2.1v.4A1.4,1.4,0,0,0,240,34h.2c0-1.5-.1-2.3-.4-2.3h-.2A.5.5,0,0,0,239.2,32.3Zm.4-11.8v1.4a.8.8,0,0,0,.4-.8v-.7a.6.6,0,0,0-.2-.5h-.1A.8.8,0,0,0,239.6,20.5Zm.7,15.9h0c.2.2.3.3.5.3h0C240.8,36.5,240.7,36.4,240.3,36.4Zm1.2,4.4v.3a.5.5,0,0,0,.5.3v-.3l-.2-.3Zm3.6,4.1h-.5l-2.5-.2H242l-.2.2h0c0,.4,1.1.8,3.4,1.3.7,0,2-.6,4.1-1.6h.1v-.2H249A12.3,12.3,0,0,1,245.1,44.9Zm-3-5.3h0v.2h.1v-.2Zm1,1.7h0c0,.4.7,1,2.1,1.9s2.5-1,2.5-1.2h0a19,19,0,0,1-4.5-.7Zm3.2,2.3h.7a6.4,6.4,0,0,0,3.2-1.7v-.2h-.3A17,17,0,0,0,246.3,43.6Zm5.1-5h.1a9,9,0,0,0,1.5-2.3h-.1A9.1,9.1,0,0,0,251.4,38.6Zm3.1-1.8a2.7,2.7,0,0,0-.4.7l.3.3h.1l.2-.3v-.4Zm.5,3.9h.1l.4-.5v-.2C255.1,40.1,255,40.3,255,40.7Zm1.2-22.9c0,.5.3.7.9.7h.4l.2-.2h0c0-.2-.5-.3-1.4-.4Zm.3,15.6v.5l.2.2a1,1,0,0,0,.6-.5v-.2l-.2-.3h-.4Zm.1-13.4h0c.1.2.2.2.5.2h0c.3,0,.5,0,.5-.2h0c0-.1-.2-.2-.6-.2h-.2Zm0,20.8v.7c0,2.9.2,4.3.5,4.3h.2c.3-.1.4-.2.4-.4s-.4-2-.6-4.5l-.3-.4Zm.1-3.1v.5h.1l.2-.2h0l-.2-.2Zm.1-5.3.3.3c.2,0,.4-.4.4-1.2h-.1A1.1,1.1,0,0,0,256.8,32.4Zm.9-5.8v.2h.1c.4,0,.6-.4.6-1.4s-.1-.6-.2-.6S257.9,25.4,257.7,26.6Zm.3,9.9v.4a11.8,11.8,0,0,0,.4,2.5h.2a14.1,14.1,0,0,0,.2-1.8v-.4c0-.4-.2-.7-.6-.7Zm0-.7h.4v-.3h-.1Zm1.2,8.7h0a.8.8,0,0,0,.7.3h.9c0-.2-.3-.3-.9-.4h-.5Zm.7-16v.2c0,.3.1.4.2.4h.1v-.6Zm.8,11.1-.6.9v.3h.6l.3-.3v-.2C261,39.9,260.9,39.7,260.7,39.6Zm1.8,2.9v.3h.7c.9,0,1.3-.2,1.3-.4h0Zm1.7.9v.3h.4a.2.2,0,0,0-.2-.2Z" transform="translate(-1.2 0)" style="fill:#b75326"/><path d="M268.7,15.1l2.9.2h5.1v.2a8.2,8.2,0,0,0-.3,1.8v1q.2,1.8.9,1.8c.3-.5,1.1-.9,2.5-1.4a21.9,21.9,0,0,1,8.2-2.1,7.7,7.7,0,0,1,4.5,1.8,9.2,9.2,0,0,1,3.5,2.9,18.1,18.1,0,0,1,2.4,9.5v.5l-.4,4.4.4,3.3-.6,2.9h0v.5h3.3c.7,0,1.2,0,1.3.2q-.3,4.5-.9,4.5a5,5,0,0,1-2.7.7h-1.3a29.3,29.3,0,0,0-6.2.8c-1.4-.2-2.2-.9-2.2-2.2V44.5a3.8,3.8,0,0,1,1-3,45.9,45.9,0,0,1,1.3-5.6l.4-5.4c.1,0,.1-.5.1-1.4s-.8-2.7-2.6-4.8l-2.3-.8a9,9,0,0,0-6.5,3l-3,3q-.9.8-.9,4.2c.1,4.1.3,6.2.5,6.2s2.4.6,2.4.9v.4l-1.3-.2-1,.2h0c0,.2.8.4,2.4.7a2.1,2.1,0,0,1,.4,1.4h0a8.9,8.9,0,0,1-.6,3.1l-7.2.2a1.6,1.6,0,0,1-1.6-1.1,26.9,26.9,0,0,1-.5-4.5c0-.3.6-.5,1.8-.8l.3-.4h0a1.7,1.7,0,0,0-.5-1V33.5l.2-5.7c0-3.9-.2-5.9-.5-5.9h-.3l-2.9.4c-.3,0-.7-.2-1.2-.8v-.2a1.5,1.5,0,0,0,.3-1V18l.9-2.8Zm-.3,4.2h0q0,.2.3.3c.3,0,.6-.2,1.1-.6h-1C268.5,19.1,268.4,19.2,268.4,19.3Zm.4-2.2v.2c0,.1.3.2.9.2,2.7,0,4.1-.2,4.1-.5l.2-.4v-.2h-.1Zm.1,4.1h.6l.2-.2h-.3Zm1.1-2.5h.4c.5,0,.8-.1.8-.3h-.3Q270,18.4,270,18.7Zm.6,1.4H272c.4,0,.6.1.7.3v.2a.9.9,0,0,0-.3.6l.8.2c.1,0,.1-.1.1-.2V18.8h-.1l-2.5,1.1h-.1Zm.6,21.4h0c0,.8.3,1.2.8,1.2h.3l.2-.2h0a1.7,1.7,0,0,1-.6-1.1h-.7Zm1.6-18.9v.2h.2v-.9h-.1C272.9,21.9,272.9,22.1,272.8,22.6Zm1.1,21.7c0,.2.5.3,1.6.3s3-.1,3-.3-.6-.4-2-.4S274,44,273.9,44.3Zm.8-24.1v1.5a2.2,2.2,0,0,1-.2,1V23l.2.9v.4a1,1,0,0,0,.3.8c.1,0,.3-.5.4-1.5s.9-.7.9-1a3.3,3.3,0,0,0-.7-1.4c-.1-.7-.3-1-.5-1Zm.9,3.9v.4a1.2,1.2,0,0,1-.5,1,.9.9,0,0,1,.3.6c0,2.1.2,3.1.4,3.1h.2a10.6,10.6,0,0,0,.4-2.9q-.1-2.2-.6-2.4h-.1C275.6,23.9,275.6,24,275.6,24.1Zm1.6-3.3V21a2.9,2.9,0,0,0,1.9-1.1h-.2A2.8,2.8,0,0,0,277.2,20.8Zm.1,3.5h0c1-.1,2.5-1,4.4-2.6h-.4a3.6,3.6,0,0,0-1.4.9C278.1,23.2,277.3,23.7,277.3,24.3Zm.4,1.6v.2h.2v-.2h-.3Zm1.5-.2h.4v-.7h-.1Zm1.1-1h.2c.6-.5,1-1,1-1.3h-.2C281,23.4,280.6,23.9,280.3,24.7Zm.5-5.5h.1l.6-.3h-.2C281,19,280.8,19.1,280.8,19.2Zm1.2-.5h.1c1.9-.4,2.9-.8,2.9-1h-.1a5.2,5.2,0,0,0-2.9.9Zm.3,5.3c.9-.2,1.3-.4,1.3-.7h-.3A.9.9,0,0,0,282.3,24Zm2.9-3.5v.2h.3c.6-.1.9-.2.9-.4H286C285.4,20.2,285.2,20.3,285.2,20.5Zm.9-3h0a3.7,3.7,0,0,1,1.6.7l.6.2h2.1a.8.8,0,0,0-.7-.3h-.9a5.8,5.8,0,0,0-1.9-.8C286.5,17.2,286.2,17.3,286.1,17.5Zm.1,4.4h.2c.9,0,1.4,0,1.4-.2l-.5-.2C286.6,21.6,286.2,21.7,286.2,21.9Zm2.2,1.1v.2H290v-.4l-.2-.2h-.3C288.8,22.7,288.4,22.9,288.4,23Zm1.3-2.7c0,.2.3.3,1.1.4a.9.9,0,0,0,.3-.5c0-.2-.4-.4-1-.5A.5.5,0,0,0,289.7,20.3Zm.5,27.2h0c0,.3.5.4,1.6.4h.9a2.6,2.6,0,0,0-2-.7h-.2Zm.3-3.1V45h.2v-.2h0l-.3-.4Zm.1-23.2h.4Zm1.2-1a.5.5,0,0,0,.5.3h.4l.2-.3h0q0-.3-.6-.3h-.2Zm.1,1.7h0a6.8,6.8,0,0,0,.9,1.7c0,.4,0,.6.2.6l.3-.3v-.3a2.4,2.4,0,0,0-1.2-1.8Zm0,24.1c.2.4.4.5.7.5,2.3-.1,3.4-.2,3.4-.4a2.2,2.2,0,0,0-1.6-.5C292.7,45.7,291.9,45.8,291.9,46Zm.7-7.5a2.1,2.1,0,0,1,.3,1.2h.2l.2-.7V37.9C292.8,37.9,292.6,38.1,292.6,38.5Zm.3-13.6v.2a16.5,16.5,0,0,0,1,2.9V27C293.7,25.6,293.3,24.9,292.9,24.9Zm0,12.6h.2c.1,0,.2-.2.2-.6v-.7h0C293.1,36.3,293,36.7,292.9,37.5Zm2.1,4.8v.2l.3.2h.2l-.2-.2Zm.1-1.1h.1l.2-.7h-.1C295.2,40.4,295.1,40.6,295.1,41.2Zm.1-3.3v.3h.1v-.3Zm.1-4.8h0l.2.8h.3C295.8,33.3,295.6,33.1,295.3,33.1Zm.4-8c0,2.1.3,3.2.6,3.2h.1c-.1-2.2-.4-3.2-.7-3.2Zm1,13.1V41h.1a2.7,2.7,0,0,0,.7-1.8h0C297.4,38.5,297.2,38.2,296.7,38.2Zm1.9,5.4v.2c1.9,0,2.8-.1,2.8-.4v-.2h-.9C299.2,43.3,298.6,43.4,298.6,43.6Zm.6,1.3v.2c0,.2.2.3.5.3s1.1-.1,1.2-.4v-.2c0-.2-.3-.3-.7-.3h-.3C299.5,44.5,299.3,44.6,299.2,44.9Z" transform="translate(-1.2 0)" style="fill:#b75326"/><path d="M302.4,15.1l2.9.2h5.1l.2.2a5.4,5.4,0,0,0-.4,1.8v1c.2,1.2.5,1.8,1,1.8s1.1-.9,2.5-1.4a21.9,21.9,0,0,1,8.1-2.1,7.9,7.9,0,0,1,4.6,1.8,9,9,0,0,1,3.4,2.9,17.3,17.3,0,0,1,2.5,9.5v.5l-.4,4.4.4,3.3-.6,2.9h0v.5h3.4c.7,0,1.1,0,1.3.2-.3,3-.6,4.5-1,4.5a5,5,0,0,1-2.7.7h-1.2a28.5,28.5,0,0,0-6.2.8c-1.5-.2-2.2-.9-2.2-2.2V44.5a3.8,3.8,0,0,1,1-3,45.8,45.8,0,0,1,1.4-5.6l.4-5.4a7.9,7.9,0,0,0,.1-1.4c0-1.1-.9-2.7-2.6-4.8a12.1,12.1,0,0,0-2.4-.8,8.8,8.8,0,0,0-6.4,3q-.3,0-3,3-.9.8-.9,4.2c0,4.1.2,6.2.4,6.2s2.4.6,2.4.9v.4l-1.3-.2-1,.2h0c0,.2.8.4,2.4.7s.4.7.4,1.4h0a8.9,8.9,0,0,1-.6,3.1l-7.2.2a1.6,1.6,0,0,1-1.5-1.1,38.2,38.2,0,0,1-.6-4.5c0-.3.6-.5,1.9-.8l.3-.4h0a2.9,2.9,0,0,0-.5-1V33.5l.3-5.7c0-3.9-.2-5.9-.6-5.9h-.3l-2.9.4c-.3,0-.6-.2-1.1-.8v-.2a1.5,1.5,0,0,0,.3-1V18l.9-2.8Zm-.3,4.2h0c0,.1.1.2.4.3a2.4,2.4,0,0,0,1.1-.6h-1.1C302.3,19.1,302.1,19.2,302.1,19.3Zm.4-2.2v.2c0,.1.4.2,1,.2,2.7,0,4-.2,4-.5l.2-.4v-.2h-.1Zm.1,4.1h.7l.2-.2h-.3Zm1.2-2.5h.3c.5,0,.8-.1.8-.3h-.3C304.1,18.4,303.8,18.5,303.8,18.7Zm.5,1.4h1.4c.4,0,.7.1.8.3v.2c-.2.2-.4.4-.4.6l.8.2.2-.2V18.8h-.2a13.4,13.4,0,0,1-2.5,1.1h-.1Zm.6,21.4h0c.1.8.3,1.2.8,1.2h.4l.2-.2h0a1.7,1.7,0,0,1-.6-1.1h-.8Zm1.7-18.9v.2h.1l.2-.9h-.2C306.7,21.9,306.6,22.1,306.6,22.6Zm1,21.7c0,.2.6.3,1.7.3s3-.1,3-.3-.7-.4-2.1-.4S307.8,44,307.6,44.3Zm.9-24.1v1.5a1.3,1.3,0,0,1-.3,1V23l.3.9v.4a.8.8,0,0,0,.4.8c.1,0,.2-.5.4-1.5s.8-.7.8-1a4.2,4.2,0,0,0-.6-1.4c-.2-.7-.3-1-.5-1Zm.8,3.9v.4a1.6,1.6,0,0,1-.5,1,.9.9,0,0,1,.3.6c0,2.1.1,3.1.4,3.1h.1a7.8,7.8,0,0,0,.4-2.9c0-1.5-.2-2.3-.5-2.4h-.1A.2.2,0,0,0,309.3,24.1Zm1.7-3.3V21a2.8,2.8,0,0,0,1.8-1.1h-.1C312.2,19.8,311.7,20.1,311,20.8Zm0,3.5h0c1.1-.1,2.6-1,4.5-2.6h-.4a4.4,4.4,0,0,0-1.5.9C311.9,23.2,311,23.7,311,24.3Zm.4,1.6.2.2h.2v-.2h-.4Zm1.5-.2h.4v-.7h-.1Zm1.2-1h.1c.7-.5,1-1,1-1.3h-.1C314.7,23.4,314.4,23.9,314.1,24.7Zm.5-5.5h.1l.5-.3h-.1C314.8,19,314.6,19.1,314.6,19.2Zm1.1-.5h.1c2-.4,2.9-.8,2.9-1h-.1a5.7,5.7,0,0,0-2.9.9ZM316,24c.9-.2,1.4-.4,1.4-.7H317A.9.9,0,0,0,316,24Zm2.9-3.5v.2h.3c.6-.1,1-.2,1-.4h-.4Q318.9,20.2,318.9,20.5Zm1-3h0a3.1,3.1,0,0,1,1.5.7l.7.2h2c-.1-.2-.3-.3-.7-.3h-.8a6,6,0,0,0-2-.8C320.2,17.2,320,17.3,319.9,17.5Zm.1,4.4h.2c.9,0,1.3,0,1.3-.2l-.5-.2C320.3,21.6,320,21.7,320,21.9Zm2.2,1.1v.2h1.5l.2-.2v-.2l-.3-.2h-.3C322.5,22.7,322.2,22.9,322.2,23Zm1.2-2.7c0,.2.4.3,1.1.4a.9.9,0,0,0,.3-.5c0-.2-.3-.4-1-.5A.5.5,0,0,0,323.4,20.3Zm.5,27.2h0c0,.3.6.4,1.7.4h.8a2.4,2.4,0,0,0-2-.7h-.2Zm.3-3.1V45h.2v-.2h0l-.3-.4Zm.1-23.2h.4Zm1.3-1c0,.2.2.3.5.3h.3l.3-.3h0a.6.6,0,0,0-.6-.3h-.3Zm.1,1.7h0a9.1,9.1,0,0,0,.8,1.7c0,.4.1.6.2.6l.3-.3v-.3a2.4,2.4,0,0,0-1.2-1.8Zm0,24.1a.6.6,0,0,0,.7.5c2.2-.1,3.3-.2,3.3-.4a2.1,2.1,0,0,0-1.5-.5C326.5,45.7,325.7,45.8,325.7,46Zm.7-7.5a2.1,2.1,0,0,1,.3,1.2h.1l.2-.7V37.9A.5.5,0,0,0,326.4,38.5Zm.3-13.6v.2a13.2,13.2,0,0,0,.9,2.9l.2-.5V27C327.4,25.6,327.1,24.9,326.7,24.9Zm0,12.6h.1c.2,0,.2-.2.2-.6v-.7h0Q326.8,36.3,326.7,37.5Zm2.1,4.8v.2l.2.2h.2l-.2-.2Zm.1-1.1h0l.3-.7h-.1C328.9,40.4,328.9,40.6,328.9,41.2Zm0-3.3v.3h.2v-.3Zm.1-4.8h0l.2.8h.3C329.5,33.3,329.3,33.1,329,33.1Zm.4-8c.1,2.1.3,3.2.6,3.2h.2c-.2-2.2-.4-3.2-.7-3.2Zm1.1,13.1-.2,1.3V41h.1a2.9,2.9,0,0,0,.8-1.8h0C331.2,38.5,330.9,38.2,330.5,38.2Zm1.8,5.4v.2c1.9,0,2.8-.1,2.8-.4v-.2h-.8C333,43.3,332.3,43.4,332.3,43.6Zm.6,1.3v.2a.6.6,0,0,0,.6.3c.6,0,1-.1,1.2-.4v-.2c-.1-.2-.3-.3-.7-.3h-.3C333.3,44.5,333,44.6,332.9,44.9Z" transform="translate(-1.2 0)" style="fill:#b75326"/><path d="M340.3,14.6a2.8,2.8,0,0,0,1.3.4l.7-.4c5.6,0,8.4.2,8.4.5v1.5a4.7,4.7,0,0,1,.5,2.4v.9c-.4,5.7-.7,11.2-.9,16.4-.2.2-.2.6-.3,1.2a.6.6,0,0,0,.6.3h.2c2.2,0,3.4.3,3.4.8h-.1v.4a12.2,12.2,0,0,1,.7,4.6l.2,2.5v.2h-8.9c-4.7,0-7-.3-7-1a3.5,3.5,0,0,0-.3-1.4,1.3,1.3,0,0,1,.6-.7h.1c.3.2.4.3.6.3h.2a32.9,32.9,0,0,0,4.2-.4h0c-3.5-.2-5.3-.5-5.3-.8V41.1l-.2-1.6c0-.4,1.6-.7,4.7-.7q.6,0,.6-2.7l.7-16.2h-.1c-1.5,0-2.1-.2-1.6-.5-2.4,0-3.7-.3-3.7-.8a.8.8,0,0,1-.2-.5l.3-.8c0-.1-.1-.3-.4-.6h0c.4-.2.6-.9.7-2h.3Zm.2,26.4h0c.3.3,1.5.5,3.8.5h.4c.4,0,.6-.1.6-.2v-.2l-4.4-.3Zm.6-25.2V16h.4c1,0,1.6-.1,1.6-.2l-.2-.2h-.2C341.7,15.6,341.1,15.7,341.1,15.8Zm.3.9h0c0,.2.2.2.8.2h2.9c.7,0,1,0,1-.2h0c0-.2-1.2-.3-3.7-.1Zm7.3-14.2a3.9,3.9,0,0,1,3.4,2.1l.4,2.1a7.5,7.5,0,0,1-1.4,3,3.3,3.3,0,0,1-2.4.8c-2.6,0-4.2-.4-4.9-1.2a4.9,4.9,0,0,1-.8-3.4h-.3c1.3-2,2.5-2.9,3.9-2.9Zm-3.4,1.8h0c1.4-.1,2.1-.3,2.1-.5h-.3C345.9,3.8,345.3,4.1,345.3,4.3Zm.3,29.7c.1.3.2.5.3.5s.1-.2.2-.6V33a8.8,8.8,0,0,0,.7-2.5V29.2c.2-.1.4-.3.4-.4a3.5,3.5,0,0,1-.3-1.3h0c.2,0,.4-2.4.6-7-.1-.3-.2-.5-.3-.5h-.1c-.6,0-.9,2-1,6.1Zm1.4,9.3h-.9v.3h2.6v-.2H347Zm-.5-37.2h.4c.5,0,.8-.2.9-.5H347c-.3,0-.5.1-.6.5Zm.2,35.6.2.3h.1c.3,0,.5-.2.5-.6h-.3C346.9,41.4,346.7,41.5,346.7,41.7Zm.6-4.1v.3h.2l.2-.2h0v-.2h-.1Zm0-1.1v.4h.2c.2-.1.3-.3.3-.7v-.5h-.2C347.5,35.7,347.4,36,347.3,36.5Zm.1-19.9v.2c.3,0,.6.2,1,.6h.2c.1,0,.1-.1.1-.2h.1c.2,0,.3.2.4.6h.1l.8-.7v-.3h-2.7Zm.3,3.6.3.9-.4,1.1c.2.4.3.6.4.6h.1V22c0-1.5.2-2.2.7-2.2l.2-.3v-.2l-.2-.2h-.4C348,19.1,347.7,19.5,347.7,20.2Zm.6,10.5a12.8,12.8,0,0,0-.6,3.4h.1c.2,0,.5-.9.8-2.6v-.8Zm-.5-21.8h1.3l-.2-.2h-1Zm.8,11.8V21c0,.3.1.5.3.5h.2l.2-.2V21a1,1,0,0,0-.5-.4Zm.8-13.2v.3h.2c.3,0,.5-.2.7-.5V7.1h-.2A.9.9,0,0,0,349.4,7.5Zm0,8,.2.2h.1v-.2l-.2-.2Zm1.2-9.7v.3h.1l.2-.3V5.6h-.1Zm1.3,35.8a1,1,0,0,0,1.1.8h.2V42c0-.1.2-.2.5-.3v-.3a.6.6,0,0,0-.3-.6h-.2l-.4.7Zm.4-2.6,1.2.3v-.2c0-.1-.2-.2-.7-.3h-.4Zm0,4.1h.1l.2-.2h-.1Zm1.5,2.5h.2Z" transform="translate(-1.2 0)" style="fill:#b75326"/><path d="M357,15.1l3,.2h5l.2.2a5.4,5.4,0,0,0-.4,1.8v1c.2,1.2.5,1.8,1,1.8s1.1-.9,2.5-1.4a21.9,21.9,0,0,1,8.1-2.1,7.9,7.9,0,0,1,4.6,1.8,9,9,0,0,1,3.4,2.9,17.3,17.3,0,0,1,2.5,9.5v.5l-.4,4.4.4,3.3-.6,2.9h0v.5h3.4c.7,0,1.1,0,1.3.2-.2,3-.6,4.5-1,4.5a4.7,4.7,0,0,1-2.7.7h-1.2a28.5,28.5,0,0,0-6.2.8c-1.5-.2-2.2-.9-2.2-2.2V44.5a3.8,3.8,0,0,1,1-3,45.8,45.8,0,0,1,1.4-5.6l.4-5.4c.1,0,.1-.5.1-1.4s-.9-2.7-2.6-4.8a12.1,12.1,0,0,0-2.4-.8,8.8,8.8,0,0,0-6.4,3q-.3,0-3,3-.9.8-.9,4.2c0,4.1.2,6.2.4,6.2s2.4.6,2.4.9v.4l-1.3-.2-1,.2h0c0,.2.8.4,2.4.7s.4.7.4,1.4h0a8.9,8.9,0,0,1-.6,3.1l-7.1.2a1.6,1.6,0,0,1-1.6-1.1,38.2,38.2,0,0,1-.6-4.5c0-.3.6-.5,1.9-.8l.3-.4h0a2.9,2.9,0,0,0-.5-1V33.5l.2-5.7c0-3.9-.2-5.9-.6-5.9h-.3l-2.9.4c-.3,0-.6-.2-1.1-.8v-.2a1.5,1.5,0,0,0,.3-1V18l.9-2.8Zm-.3,4.2h0c0,.1.1.2.4.3a2.4,2.4,0,0,0,1.1-.6h-1C356.9,19.1,356.7,19.2,356.7,19.3Zm.5-2.2v.2c0,.1.3.2.9.2,2.7,0,4-.2,4-.5l.3-.4v-.2h-.2Zm0,4.1h.7l.2-.2h-.3Q357.2,21.1,357.2,21.2Zm1.2-2.5h.3c.5,0,.8-.1.8-.3h-.3C358.7,18.4,358.4,18.5,358.4,18.7Zm.5,1.4h1.5a.8.8,0,0,1,.7.3v.2a.9.9,0,0,0-.3.6l.7.2a.2.2,0,0,0,.2-.2V18.8h-.2a13.4,13.4,0,0,1-2.5,1.1h-.1Zm.6,21.4h0c.1.8.3,1.2.9,1.2h.3l.2-.2h0a1.7,1.7,0,0,1-.6-1.1h-.8Zm1.7-18.9v.2h.1l.2-.9h-.2C361.3,21.9,361.2,22.1,361.2,22.6Zm1,21.7c0,.2.6.3,1.7.3s3-.1,3-.3-.7-.4-2.1-.4S362.4,44,362.2,44.3Zm.9-24.1v1.5a2.2,2.2,0,0,1-.2,1V23l.2.9v.4a1,1,0,0,0,.4.8c.1,0,.2-.5.4-1.5s.8-.7.8-1a4.2,4.2,0,0,0-.6-1.4c-.2-.7-.3-1-.5-1Zm.8,3.9v.4a1.6,1.6,0,0,1-.5,1,.9.9,0,0,1,.3.6c0,2.1.1,3.1.4,3.1h.1a7.8,7.8,0,0,0,.4-2.9c0-1.5-.2-2.3-.5-2.4h-.1A.2.2,0,0,0,363.9,24.1Zm1.7-3.3V21a2.8,2.8,0,0,0,1.8-1.1h-.1C366.8,19.8,366.3,20.1,365.6,20.8Zm0,3.5h0c1.1-.1,2.6-1,4.5-2.6h-.4a4.4,4.4,0,0,0-1.5.9C366.5,23.2,365.6,23.7,365.6,24.3Zm.4,1.6.2.2h.2v-.2H366Zm1.5-.2h.4v-.7h-.1Zm1.2-1h.1c.7-.5,1-1,1-1.3h-.1C369.3,23.4,369,23.9,368.7,24.7Zm.5-5.5h.1l.5-.3h-.1C369.4,19,369.2,19.1,369.2,19.2Zm1.1-.5h.1c2-.4,2.9-.8,2.9-1h-.1a5.7,5.7,0,0,0-2.9.9Zm.3,5.3c.9-.2,1.4-.4,1.4-.7h-.4A1,1,0,0,0,370.6,24Zm2.9-3.5v.2h.3c.6-.1,1-.2,1-.4h-.4Q373.5,20.2,373.5,20.5Zm1-3h0a3.1,3.1,0,0,1,1.5.7l.7.2h2c-.1-.2-.3-.3-.7-.3h-.8a6,6,0,0,0-2-.8C374.8,17.2,374.6,17.3,374.5,17.5Zm.1,4.4h.2c.9,0,1.3,0,1.3-.2l-.5-.2C374.9,21.6,374.6,21.7,374.6,21.9Zm2.2,1.1v.2h1.5l.2-.2v-.2l-.3-.2h-.3C377.1,22.7,376.8,22.9,376.8,23Zm1.2-2.7c0,.2.4.3,1.1.4a.9.9,0,0,0,.3-.5c0-.2-.3-.4-1-.5A.5.5,0,0,0,378,20.3Zm.5,27.2h0c0,.3.6.4,1.7.4h.8a2.4,2.4,0,0,0-2-.7h-.2Zm.3-3.1V45h.2l.2-.2h0l-.4-.4Zm.1-23.2h.4Zm1.3-1c0,.2.2.3.5.3h.3l.3-.3h0a.6.6,0,0,0-.6-.3h-.3Zm.1,1.7h0a9.1,9.1,0,0,0,.8,1.7c0,.4.1.6.2.6l.3-.3v-.3a2.4,2.4,0,0,0-1.2-1.8Zm0,24.1a.6.6,0,0,0,.7.5c2.2-.1,3.3-.2,3.3-.4a2.1,2.1,0,0,0-1.5-.5C381.1,45.7,380.3,45.8,380.3,46Zm.7-7.5a2.1,2.1,0,0,1,.3,1.2h.1l.2-.7V37.9A.5.5,0,0,0,381,38.5Zm.3-13.6v.2a13.2,13.2,0,0,0,.9,2.9l.2-.5V27C382,25.6,381.7,24.9,381.3,24.9Zm0,12.6h.1q.3,0,.3-.6v-.7h-.1Q381.5,36.3,381.3,37.5Zm2.1,4.8v.2l.2.2h.2l-.2-.2Zm.1-1.1h0l.3-.7h-.1C383.5,40.4,383.5,40.6,383.5,41.2Zm0-3.3v.3h.2v-.3Zm.1-4.8h0l.2.8h.3C384.1,33.3,383.9,33.1,383.6,33.1Zm.4-8c.1,2.1.3,3.2.6,3.2h.2c-.2-2.2-.4-3.2-.7-3.2Zm1.1,13.1-.2,1.3V41h.1a2.9,2.9,0,0,0,.8-1.8h0C385.8,38.5,385.6,38.2,385.1,38.2Zm1.8,5.4v.2c1.9,0,2.8-.1,2.8-.4v-.2h-.8C387.6,43.3,386.9,43.4,386.9,43.6Zm.6,1.3v.2a.6.6,0,0,0,.6.3c.6,0,1.1-.1,1.2-.4v-.2c-.1-.2-.3-.3-.7-.3h-.3C387.9,44.5,387.6,44.6,387.5,44.9Z" transform="translate(-1.2 0)" style="fill:#b75326"/><path d="M405.5,14.1h2a16.2,16.2,0,0,1,4.8,1.2,8.9,8.9,0,0,1,3.9,1.6h.4c.4,0,1.4-.8,2.9-2.5.3,0,1,.6,1.9,1.8a6,6,0,0,1,1.4,1.1v.2c-2.4,2.5-3.5,4-3.5,4.3a39.3,39.3,0,0,1-2.2,6.2,9.9,9.9,0,0,1-3.3,2.2c-1.9,1.8-3.5,2.7-4.9,2.7H407l-4-.4h-.8c-.3,0-.7,1.3-1.3,4l.5.2h.2a4.3,4.3,0,0,0,2.1-.8h4a37,37,0,0,1,9.7,1.1,14.2,14.2,0,0,0,2.7,1.4l2.1,1.5a9.1,9.1,0,0,1,3.1,3.8,16.8,16.8,0,0,1,2.2,7.3c0,1.5-1.2,3.4-3.6,5.8l-3.7,2.6a12.6,12.6,0,0,1-7.1,1.9l-1.7.2c-7.3,0-12.3-1.5-14.9-4.4a5.2,5.2,0,0,1-2.8-4.5,9.8,9.8,0,0,1-1.1-5.2l-.2-1.4.2-.8h.2c.2,1,.3,1.5.5,1.5h.2a34.9,34.9,0,0,1,1.4-5.2h-.1a13.9,13.9,0,0,0-1.8,3.3h-.1c-.1,0-.3-.2-.3-.7s.9-2.2,2.3-4.3,2.4-2.3,2.4-2.6q.6-5.1.9-6.3a12.3,12.3,0,0,1-1.6-5.1v-1a20.1,20.1,0,0,1,.8-3.9l2.7-3.3C402.1,15.2,404,14.1,405.5,14.1ZM393.2,49v.4l.2.2h.1v-.8h-.2Zm.3,1v.2c.1.3.1.4.2.4h.2v-.2l-.3-.3Zm1.9-5.4v.3h.1c.2,0,.4-.6.7-1.8h-.1A1.9,1.9,0,0,0,395.4,44.6Zm.6-3.5h0v.2c1.1-.3,1.6-.6,1.6-1.1v-.4l-.2-.2A3.2,3.2,0,0,0,396,41.1Zm0,13.1c.1.3.2.5.3.5l.3-.3c0-.2-.1-.3-.4-.4Zm.7-5v1.3c.1.8.2,1.3.3,1.3h.1a.5.5,0,0,0,.3-.5v-.8c0-.9-.1-1.4-.4-1.4h-.2Zm.4-6.1v.2h.2l.4-.4v-.2A.5.5,0,0,0,397.1,43.1Zm.1-19a3.2,3.2,0,0,0,.6,2h.2a.2.2,0,0,0,.2-.2c-.2-1.7-.4-2.6-.6-2.6S397.3,23.6,397.2,24.1Zm10.4,17h.1l-1,.2-1.3-.2h-4.6c-1.9,1.7-2.8,2.9-2.8,3.6l-.4.4h0c.3,4.2.7,6.8,1.2,7.7a12.5,12.5,0,0,0,2.3,1.9c0,.3,1.2.8,3.6,1.4a61.1,61.1,0,0,0,9.1.9c3-.6,5.1-1.5,6.3-2.6s3-3.8,3-5.1v-.3q0-1.2-2.4-4.2a4,4,0,0,0-1.9-1.6,11.5,11.5,0,0,0-5.4-2.2h-3.9v-.4h-.7A1.9,1.9,0,0,0,407.6,41.1Zm-9.9,14.7h.6v-.3h-.4Zm.3-33.6h.1a3.3,3.3,0,0,0,1-1.2l-.2-.2C398.7,20.8,398.4,21.3,398,22.2Zm0,20.2v.2h.1l.8-.2v-.3h-.2C398.2,42.2,398,42.3,398,42.4Zm0-13.1v.2a3.4,3.4,0,0,0,1.8,1.4h0c-.3-1-.9-1.5-1.5-1.5Zm.5,10.6.3.2h.4l.3-.3v-.4l-.2-.2A.8.8,0,0,0,398.5,39.9Zm.1,15.3h0l.3.2h.3c0-.2-.2-.2-.5-.2Zm.8-22.9v.4a.7.7,0,0,0,.6.7V31.9h-.2Zm.7-7.3h0a3.4,3.4,0,0,0,.7,1.9h.1v-.2c-.1-1.1-.3-1.7-.6-1.9Zm.5,4.9h0a.9.9,0,0,0,.8.6l.4-.3c0-.3-.4-.4-1-.5Zm.5-6.7v.3c.6,3.2,1.1,4.7,1.4,4.7a3.6,3.6,0,0,0,2.5,1.4c3.1,0,5.3-.7,6.7-2.1a9.7,9.7,0,0,0,2.2-2.9,3.4,3.4,0,0,0,.5-1.4v-.9a5.8,5.8,0,0,0-1.5-3,14.2,14.2,0,0,0-4.6-1.5,8.2,8.2,0,0,0-5.6,2.5C401.6,21.7,401.1,22.6,401.1,23.2Zm.1,15.7a8,8,0,0,0,2,.2c.5,0,.8-.1.8-.2a1.6,1.6,0,0,0-.7-.7h-.7C401.7,38.3,401.2,38.6,401.2,38.9Zm.5-19.5h.2c.3,0,.6-.3,1.1-.8v-.2h-.4Q401.7,19,401.7,19.4Zm.5,11.2h-.1v.5l.2.2h1.1v-.2A3.4,3.4,0,0,0,402.2,30.6Zm.5,9.7.2.2h.4v-.2l-.2-.2H403Zm.5-24.7h0c1.4-.4,2.2-.7,2.2-1h-.2A3.2,3.2,0,0,0,403.2,15.6Zm10.3,42.9c-4.9-.3-7.8-.6-8.5-.9h-1.7a4,4,0,0,0,2.1.8h1.8l.5.3h.1a18.6,18.6,0,0,0,3.6.3h1.3a7.1,7.1,0,0,0,3.8-.7l2.5-1h0ZM404,31.4c0,.4.7.5,2.1.5h1.7c.3,0,.5,0,.5-.2a10,10,0,0,0-3.5-.5h-.6Zm.4,5.7Zm.3-20.2v.2h.1l1.9-.6v-.3h-.5C405.2,16.4,404.7,16.6,404.7,16.9Zm.5,42.8h.3Zm1,.5h0c0,.1.2.2.6.2h.7c0-.2-.4-.3-1.1-.3Zm1.7-29.9,1.1.3h.5c0-.2-.2-.3-.8-.4h-.5Zm.1,6.8h0c0,.4,2.1.6,6.3.7l1.3.5h.1l.5-.2H418v-.2c-.2-.4-.6-.6-1.4-.6H416l-.6.3h0l-1.4-.7-4.1-.2h-.6Zm1.5-7.5v.2l.3.3h.3c.2,0,.7-.3,1.3-1h-.6A1.8,1.8,0,0,0,409.5,29.6Zm1.8,30.8h0c0,.2.2.3.4.3h.4l.8-.2v-.2l-1.1-.2h-.4Zm.1-19.9c0,.2,1,.4,3.1.5a19.7,19.7,0,0,1,4.4,2h.8l.3-.3h0c-.4-.6-1.7-1.3-4-2l-4.3-.5Zm.3-10.9v.3h.1l.5-.4h-.4Zm0,9.5h0l1.5.3h.1l-1.5-.2Zm.4-10.3h.2a2.4,2.4,0,0,0,1.1-.8v-.2A4.8,4.8,0,0,0,412.1,28.8Zm1.3-1.3h.3c.8,0,1.3-.8,1.4-2.5v-.3h-.2A10.6,10.6,0,0,0,413.4,27.5Zm1.2,32.8h.2c.8-.2,1.2-.4,1.2-.8h-.2C415.1,59.8,414.7,60,414.6,60.3Zm.4-41.4h0c.3.7.6,1.1,1.1,1.1s.1-.1.1-.2-.3-.6-.9-1Zm1.3,8.3v.3h.1c.1,0,.2-.1.3-.4Zm0,33.3h.3a12,12,0,0,0,3-1.5h-.2C417.3,59.4,416.3,59.9,416.3,60.5Zm1.2-21.2.2.2h.2v-.3h-.2Zm1,.7c0,.3.5.5,1.5.8h.2a1.9,1.9,0,0,0-1.3-.7h-.4Zm.7-20.4v.3h.2a5,5,0,0,0,1.7-1.9v-.2H421Q420.4,17.8,419.2,19.6Zm.3-3.6h0a.6.6,0,0,0,.5.2h.3l-.4-.4h-.2Zm.7,27.3a9.7,9.7,0,0,0,1.8,2.5h.1v-.3c-.6-1.5-1.1-2.3-1.7-2.3Zm.3-2.1h0l2.4,2.2h.1a3.5,3.5,0,0,0-2.1-2.2Zm1.2,13.1h.1c1.1-.3,1.6-.9,1.6-1.6v-.4h-.2Q421.7,53.7,421.7,54.3Zm2.6-6h0l.2.3h.1l.2-.3h-.5Zm1.3,1.8h0a.8.8,0,0,0,.2.6h.1a3.1,3.1,0,0,0,.5-1.8h-.2A1.4,1.4,0,0,0,425.6,50.1Zm.1-2.2h0l.2.2h.1v-.2Z" transform="translate(-1.2 0)" style="fill:#b75326"/><path d="M434.5,39.1a4.9,4.9,0,0,1,2.6,1,2,2,0,0,1,.3,1.1V42c0,1.7-1,3-2.9,3.8l-.8.3c-.8,0-1.7-.8-2.5-2.4v-.3q0-2.7.9-3.3A5.2,5.2,0,0,1,434.5,39.1Zm-2,2.7c.1,1.1.2,1.7.4,1.7a9.5,9.5,0,0,0,.6-2.2l.2-.4v-.2h-.1C432.9,40.9,432.5,41.3,432.5,41.8Zm.3,2.7a.5.5,0,0,0,.4.6h.7a1.9,1.9,0,0,0,1.2-.7h0Zm1.3-2.3v.2c0,.4.1.6.3.7h.1c.2,0,.5-.5.7-1.4v-.3h-.3C434.4,41.3,434.2,41.6,434.1,42.2Zm1.9.9h.3v-.6h0C436.2,42.6,436.1,42.7,436,43.1Z" transform="translate(-1.2 0)" style="fill:#231f20"/></g></g></svg>