<svg xmlns="http://www.w3.org/2000/svg" viewBox="0 0 729.7 61.8"><title>icn_rotator_Asset 47_adj</title><g id="Layer_2" data-name="Layer 2"><g id="Layer_1-2" data-name="Layer 1"><path d="M4.2.3,6.8.9l4-.2c1,0,1.6.3,1.6,1A34.2,34.2,0,0,0,12,7.9V29.4l-.3,11.7a36.4,36.4,0,0,0,6.4.8h0v.8c0,.3.2.6.7,1.1a37.3,37.3,0,0,0-1.6,4.3l-.5.5h-.2a1.8,1.8,0,0,0-1.6-.6L4.8,46.7c-3,0-4.6-.2-4.6-.5a14.1,14.1,0,0,0,1.1-4.8H2.7a4.3,4.3,0,0,1,1.7-.5l1,.3h.7q.6,0,.6-1.2c.2-1.5.4-6,.6-13.6C7.1,24,6.8,17.2,6.6,6c-.2-.2-.4-.4-.6-.4l-2.8.2c-.5-.1-.7-.2-.7-.5C2.7,2.1,3,.5,3.3.5Zm-3,45.4.2.2h.3l.2-.2-.3-.2H1.5Zm.8-3h.4v-.3H2.2ZM3.3,3.4v.4l.2.3H5.2V3.8L4,3.3l-.3-.2H3.6Zm.2-1.6h0a.5.5,0,0,0,.6.6h.3a2.1,2.1,0,0,0,1.3-.7H3.5Zm.3,40.6h0a.5.5,0,0,0,.5.5h.1v-.5l-.3-.2H3.8Zm.7,2.1h0l.2.2h.9c.7,0,1-.1,1-.2h0l-1.7-.2H4.8Zm.7-1.3h.9V43H5.6C5.3,43,5.2,43,5.2,43.2ZM6.9,1.8l.5.2H8l.3-.2H6.9Zm.7,36.5v.2c.1.3.2.4.3.4l.3-.3v-.4c-.1-.6-.2-.8-.3-.8S7.6,37.7,7.6,38.3Zm.3-20v.3h.3v-.3H8.1c0-.2.2-.3.5-.4v-.2H8.3A.8.8,0,0,0,7.9,18.3Zm.2-6.6h.3v-.3H8.3Zm.2-3.4v.4h.1V8.1H8.4Zm.5,17.9h.1q.3,0,.3-2.4C9.1,23.9,8.9,24.6,8.8,26.2ZM9,4.1h.4l1.4-.8a1.3,1.3,0,0,0,.3-.7h-.3c-.4,0-.7.2-1.1.7S9,3.7,9,4.1Zm1.2,25H10V40.7h.6c.1,0,.2-.2.2-.6Q10.6,29.1,10.2,29.1Zm.7-12.4v2h.1c.1,0,.2-.3.2-.8v-1Zm-.1,2.5v.4h.3v-.3Zm0-3.3h0l.3.3h0V16h-.3ZM12.9,44h0c0,.2.6.4,2,.4H17v-.2h-.6Zm1.5,1.7.2.2h1.3q.6,0,.6-.3H15.2C14.7,45.5,14.4,45.6,14.4,45.7Zm1.3-3.3h0c.2.3.5.4,1.1.4l.3-.2v-.2H15.7Zm.1,4.6v.2h.9V47h-.9Z" transform="translate(-0.2 0)" style="fill:#b75326"/><path d="M22.6,14.8a2,2,0,0,0,1.3.4l.7-.3c5.6,0,8.4.1,8.4.5v1.4a5.2,5.2,0,0,1,.5,2.4v1c-.4,5.7-.7,11.1-.9,16.3a2.3,2.3,0,0,0-.3,1.3.6.6,0,0,0,.6.3h.2c2.2,0,3.4.2,3.4.7h-.1v.4a13.3,13.3,0,0,1,.7,4.7l.2,2.5h-9c-4.7,0-7-.3-7-1.1a3.5,3.5,0,0,0-.3-1.3,1.3,1.3,0,0,1,.6-.7h.1a.7.7,0,0,0,.6.2h.1l4.3-.3h0c-3.5-.2-5.3-.5-5.3-.8V41.3l-.2-1.5c0-.5,1.6-.7,4.7-.7q.6,0,.6-2.7l.7-16.3h-.1c-1.5,0-2.1-.1-1.6-.4-2.4,0-3.7-.3-3.7-.9s-.2-.2-.2-.5l.3-.7a.7.7,0,0,0-.4-.6h0c.4-.3.6-.9.7-2h.3Zm.2,26.5h0c.3.4,1.5.6,3.8.6H27q.6,0,.6-.3h0l-4.4-.3Zm.6-25.2v.2h.3c1.1,0,1.6-.1,1.6-.3H25C24,15.9,23.4,15.9,23.4,16.1Zm.3.9h0c0,.1.2.2.8.2h2.9c.6,0,1-.1,1-.2h0c0-.3-1.2-.3-3.7-.1ZM30.9,2.7a4.1,4.1,0,0,1,3.5,2.2L34.8,7a8.2,8.2,0,0,1-1.4,3,3.6,3.6,0,0,1-2.5.8q-3.7,0-4.8-1.2a5.1,5.1,0,0,1-.8-3.4c-.2,0-.3-.1-.3-.2h0C26.2,4,27.5,3,28.9,3ZM27.6,4.6h0a5.3,5.3,0,0,0,2.1-.5l-.3-.2C28.2,4.1,27.6,4.3,27.6,4.6Zm.3,29.7.2.5c.2,0,.2-.2.3-.6v-1a7.7,7.7,0,0,0,.7-2.4V29.5c.2-.1.4-.3.4-.4a3.9,3.9,0,0,1-.3-1.4h0q.3,0,.6-6.9a.7.7,0,0,0-.3-.5h-.1c-.6,0-.9,2-1.1,6.1Zm1.4,9.3h-.9v.2H31v-.2H29.3ZM28.8,6.3h.4c.5,0,.8-.1.9-.5h-.8c-.4,0-.6.1-.6.4ZM28.9,42l.3.2h.1c.3,0,.5-.2.5-.6h-.3A.7.7,0,0,0,28.9,42Zm.7-4.1v.3h.2L30,38h0v-.2h-.1Zm0-1.1v.4h.2c.2-.1.3-.3.3-.8V36h-.2C29.8,36,29.7,36.3,29.6,36.8Zm.1-19.9v.2a1.8,1.8,0,0,1,1,.6h.2c.1,0,.1-.1.1-.2h.1c.1,0,.3.2.4.6h.1l.8-.7v-.3H29.7Zm.3,3.5.3,1-.4,1c.2.5.3.7.4.7h.1v-.8c0-1.5.2-2.3.7-2.3v-.5h-.5C30.3,19.4,30,19.8,30,20.4Zm.5,10.5a19.3,19.3,0,0,0-.5,3.5h.1c.2,0,.5-.9.8-2.6v-.9ZM30.1,9.1v.2h1.1V9.1H30.1ZM30.9,21v.3a.5.5,0,0,0,.3.5h.1l.3-.2v-.3a1,1,0,0,0-.5-.4Zm.8-13.2V8h.2a.8.8,0,0,0,.7-.4V7.4h-.2A.8.8,0,0,0,31.7,7.8Zm0,8,.2.2H32v-.2l-.2-.2Zm1.2-9.7v.2H33l.2-.2V5.9h-.1Zm1.3,35.8a1,1,0,0,0,1.1.8h.2v-.4l.5-.3v-.4a.5.5,0,0,0-.3-.5h-.2c-.1,0-.3.2-.4.6Zm.3-2.7a3.3,3.3,0,0,0,1.3.4v-.2c0-.1-.2-.2-.7-.3h-.6Zm.1,4.2h.1l.2-.2h-.1Zm1.5,2.5h.5l-.2-.2h-.1Z" transform="translate(-0.2 0)" style="fill:#b75326"/><path d="M44.9,15.7c3,.3,4.5.9,4.5,1.6l.3.4v.8l.7.8a1.6,1.6,0,0,0-.7,1.1.5.5,0,0,0,.5.3h0l-.4.4h-.5a1.9,1.9,0,0,0-1-.5q-3.3.3-.9,5.4c1.2,4.2,2.2,6.8,3.1,7.8,2.3,5.2,3.8,8,4.7,8.2h.1c.2,0,.7-1,1.4-3.1a55.1,55.1,0,0,0,3.7-7.8,6.2,6.2,0,0,0,1-2.4l-.2-.7c3-5.5,2.8-7.9-.4-7.2h-.2c-.1-3.6.2-5.4,1.2-5.4s3.6-.7,7.7-.7c1.9,0,2.8.7,2.8,2.1a4.5,4.5,0,0,1,.7,1.5,2.4,2.4,0,0,0-1,1.9l-2.3.4a41.3,41.3,0,0,0-2,4.3,72.5,72.5,0,0,1-4.4,8.4l-1.7,5.1c-2.4,5.1-3.7,7.7-3.8,7.7s-.1.1-.1.4v.5h0c0,.7-.5,1-1.6,1.1l-1.2.7a4.6,4.6,0,0,1-2.2-.9q-1.5-2.2-3-4.2c-.5-1.8-1-2.7-1.4-2.7a15.5,15.5,0,0,1-1-3.1c-1-1.8-1.8-3-2.3-3.8a.6.6,0,0,1,.2-.5v-.3l-1-2.5c-.6-2.2-1-3.4-1.3-3.6-1.4-3.9-2.4-5.8-2.8-5.8s-.3.2-.8.3a4.5,4.5,0,0,1-2.5-1.1h0l.2-.3v-.2c0-.1-.3-.3-.8-.6h-.1c.9-.2,1.4-.4,1.4-.6l-.9-.5h0v-.2l.4-.6a1.5,1.5,0,0,0-.4-.6v-.2A78.7,78.7,0,0,1,44.9,15.7Zm-6.6,5.2.2.2h.9v-.2l-.8-.2h-.1Zm1.5-2.2V19h.3c.6-.1.9-.3.9-.4l-.2-.2h-.7Zm2.4,3.7v.2c.6.4.7.3.2-.2Zm.8-5.7c0,.1.3.2,1,.2h2.3a5.4,5.4,0,0,0-1.8-.4h-.8C43.3,16.4,43.1,16.5,43,16.7Zm1.9,10.6c.1.5.2.8.3.8h.1q-.1-.6-.3-.6ZM49,33.9h0c.5,1.7,1,2.5,1.4,2.5h0c-.5-1.6-.9-2.4-1.2-2.5Zm2.1,8.2v.2q0,.6,1.2,1.2h.1a3,3,0,0,0-1.1-1.2Zm1.4,3.2h0l.2.3h.2l-.2-.3Zm.3-3.2h0a3.2,3.2,0,0,0,1,1.6H54a4.8,4.8,0,0,0-1.1-1.5Zm.2,2.2c.6.8,1.1,1.1,1.6,1.1v-.2c-.4-.7-.8-1-1.4-1Zm1.9-.7c.2.8.6,1.2,1,1.2a3.3,3.3,0,0,0,.7-1.6V43h0a4.9,4.9,0,0,1-1.7.5Zm2.8.4-1.6,2.8V47h.1q1.2,0,1.5-2.4c.1,0,.2-.2.2-.6Zm1.4-7a28.6,28.6,0,0,0-2.2,4.7h.2a16.2,16.2,0,0,0,2-4.1.9.9,0,0,0,.3-.6h-.3ZM58,43.6h.1c.2,0,1.2-2,3-5.8v-1h-.1c-.4.3-1,1.5-1.7,3.5A8.7,8.7,0,0,0,58,43.6Zm2.9-25.9v.4a.7.7,0,0,0,.7.8h.3c-.4-1-.6-1.5-.8-1.5A.6.6,0,0,0,60.9,17.7Zm.6-1.6h0v.3l.2.3h.1c0-.2,2.3-.4,7.1-.6h.2v-.2c0-.1-.3-.2-1-.2A39.5,39.5,0,0,0,61.5,16.1Zm.3,16.2h.1a.5.5,0,0,0,.4-.5h0l-.3-.3A1,1,0,0,0,61.8,32.3Zm.5-.7.2.2.2-.2v-.3h0ZM62.6,18h.2c.3-.1.4-.2.4-.3h-.4Zm.3,12.6H63a3.1,3.1,0,0,0,.7-1.4h0C63.2,29.2,63,29.6,62.9,30.6Zm.9-2.6v.4H64a1.9,1.9,0,0,0,.7-1.3v-.2h-.3A1.1,1.1,0,0,0,63.8,28ZM65,25.4v.2h.2c.3,0,.5-.4.6-1.3v-.2h0C65.5,23.9,65.2,24.4,65,25.4Zm.8.2v.2H66v-.2Zm.3-1.9v.4h.1c.3-.1.6-.6.9-1.4s.4-.3.8-.3H68v-.8h.3a1.1,1.1,0,0,0-.5-.9C67.1,20.5,66.6,21.5,66.1,23.7Zm3.3-5.2h0l.9.2c.6,0,.9-.1.9-.2s-.3-.3-.9-.3h-.4C69.6,18.3,69.4,18.4,69.4,18.5Z" transform="translate(-0.2 0)" style="fill:#b75326"/><path d="M87.3,15.6a13.2,13.2,0,0,1,6.3,2.2c2.2,1.6,3.2,2.7,3.2,3.3,1.6,3.5,2.4,5.6,2.4,6.2v.5a9.4,9.4,0,0,0-.9,2.9H92.7L91,31c-6-.5-10.1-.7-12.5-.7H77.2a4.3,4.3,0,0,0-.8,1.5,4.8,4.8,0,0,1,.5,2.2c0,1.6.2,2.5.7,2.8v.3h0l-.4-.2v.2l.6.6a3.1,3.1,0,0,0,1.1,2c1.4,2.4,2.8,3.9,4.4,4.5a15.8,15.8,0,0,0,4.7.6,4.4,4.4,0,0,0,1.7-.7c.8-.3,2.4-1.6,4.7-4.1h0c0-.1-.3-.2-.8-.3v-.3A6.5,6.5,0,0,1,97,35.9l2.2,1.7c1,1.4,2.2,3.1,3.7,4.9v.3c-1.3,1.7-2.3,2.5-2.9,2.5h-.2c0-.9-.6-1.4-1.7-1.5a14.7,14.7,0,0,0-2.7,2,14.5,14.5,0,0,1-4.9,2.1,30.9,30.9,0,0,1-5.7.9l-3.5-1.3c-1.9,0-3.7-1.1-5.4-3.2a7.3,7.3,0,0,1-1.7-2.7c0-.3-.5-2-1.4-5.1a15.5,15.5,0,0,1-.4-3.4h0a21.9,21.9,0,0,1,4.9-14.4,4.7,4.7,0,0,1,2.9-2.3l3.5-.7ZM73.5,31.3h-.1v.2h.1a2,2,0,0,0-.2.9v.3a4.1,4.1,0,0,0,.6,2h.2C74.1,32.7,73.9,31.6,73.5,31.3Zm0-2.3v.4c0,.2.1.4.2.4s.3-.2.3-.6l-.2-.2Zm.8-3.3c-.4.3-.6,1.2-.8,2.5h0c.3,0,.7-.7,1.2-2.2S74.5,25.7,74.3,25.7Zm0,11h0l.2.2h.2v-.2h-.4Zm.7,1.1h-.1c.2.6.5,1,.7,1h0A1.4,1.4,0,0,0,75,37.8Zm1.7-8.2h1.2l-.2-.3h-.2A1,1,0,0,0,76.7,29.6Zm.1-7.4H77Zm0,3.9v.2l.2.2h.1a2.3,2.3,0,0,0,.7-.7v-.2h-.3C77.2,25.6,77,25.8,76.8,26.1Zm.7-1.6v.2c0,.5,3.7,1,11.2,1.5l.6.2H90a15.2,15.2,0,0,0,3.4.9c0,.1.1.2.4.3a2.5,2.5,0,0,0,.4-1.1V25.3c0-.6-1.1-1.8-3.1-3.6A5.9,5.9,0,0,0,87.9,20l-2.1-.3c-3.4.7-5.7,1.5-6.7,2.5Zm0-1h0a.5.5,0,0,0,.3-.5h0A.5.5,0,0,0,77.5,23.5Zm.2,21.2v.2c0,.3.4.5,1,.7l.3.3h0l-1.1-1.1Zm.4-23.9V21h.1c.6-.2.9-.3.9-.5h-.4C78.5,20.4,78.3,20.6,78.1,20.8Zm.3,8.4v.4h.3v-.3h-.3Zm.7-11.3h0l.2.2h.1c.8-.2,1.2-.4,1.2-.7v-.3l-.2-.3h-.1C79.5,17.2,79.1,17.5,79.1,17.9ZM80,28.6v.2a44.7,44.7,0,0,0,6.5.5H85.2c0,.2.6.3,1.6.3s2.6-.1,2.6-.3S86.3,28.8,80,28.6Zm.6-2.1v.2a8.3,8.3,0,0,0,4.2.8h1.4v-.3Zm.1-6.1a9.5,9.5,0,0,1,2.5-1h-.7Q80.7,19.5,80.7,20.4Zm.9-3.4h.1a15.4,15.4,0,0,0,3.8-.7c.3-.1.5-.2.5-.3h-.2a11.7,11.7,0,0,0-4.1.9h-.1Zm.5,27.9h0c0,.2.5.4,1.3.6h.1a3.6,3.6,0,0,0-1.3-.5Zm2.2-26.6h0c0,.2.9.4,2.5.7h.1v-.2a1.7,1.7,0,0,0-1.6-.8h-.2C84.6,18,84.3,18.1,84.3,18.3Zm1.3,27.3v.2h.3v-.2ZM88,47.2H86.4c-.4,0-.6,0-.6.2h0l.2.2h1.1a18.6,18.6,0,0,0,4.5-.6h0c-.1-.2-.3-.3-.7-.3h-.3A5.5,5.5,0,0,0,88,47.2ZM86.8,17.3v.2a6.7,6.7,0,0,0,2.5.4h.1v-.2c0-.1-.2-.2-.7-.3ZM88,18.7h0a22.8,22.8,0,0,0,3.8,2h.1l.6-.2h.4l-1-.4-1.2-.5a2,2,0,0,0-2-1.1h-.2C88.2,18.5,88,18.5,88,18.7Zm3.7,9.4v.2h.2v-.2Zm.1,1.7c0,.1.3.2,1,.2h.7c0-.2-.4-.3-1.3-.3S91.8,29.7,91.8,29.8Zm0,14.1h.1a1.3,1.3,0,0,0,.5-.7h0C92,43.4,91.8,43.6,91.8,43.9Zm.4,2.7c.4,0,.8-.3,1-1h-.1C92.5,46,92.2,46.3,92.2,46.6Zm.6-24.9c.2.3.4.5.7.5h.1v-.6l-.3-.3C93,21.3,92.8,21.4,92.8,21.7Zm.9,20.2h.2c.4,0,.7-.3.8-.8h0A1,1,0,0,0,93.7,41.9Zm.5-19.4c.4,1.3.7,2.1,1,2.2h.4c-.4-1.3-.7-2-1.1-2h-.3Zm.9,15.9h.4a.6.6,0,0,0,.5-.2l-.3-.3h-.1A.5.5,0,0,0,95.1,38.4Zm.3,5.8h.2c.5-.4.7-.7.7-.9h-.1C95.7,43.5,95.4,43.8,95.4,44.2Zm1-18.8V26c.2,0,.3-.2.3-.4v-.2h-.4Zm.2,17,.2.2c.6-.2.9-.5.9-.8h-.1C97,41.7,96.7,41.9,96.6,42.4Zm1.4-.6h.2a.5.5,0,0,0,.4-.6h-.2C98.2,41.4,98,41.6,98,41.8Zm2.2-.6h-.1c.1.5.3.8.5.8h.1v-.2h0A.6.6,0,0,0,100.2,41.2Z" transform="translate(-0.2 0)" style="fill:#b75326"/><path d="M117.1,9.4a61.2,61.2,0,0,1,9.2,1.8,29.5,29.5,0,0,0,4.2,1.7,3,3,0,0,0,.5-1.8h0v-.5c0-.5.4-.8,1.2-.8a4.1,4.1,0,0,1,2.1-.5c1.2,0,1.8.1,1.8.4l.6,5.8v1.8c0,1.5-.2,2.4-.6,2.6s-.7.6-.9.6c-2.3-.2-3.4-.5-3.4-1a3.5,3.5,0,0,0-2.2-2.1c-4-2-6.8-3-8.6-3h-1.7q-3,0-3.6,1.2a4.6,4.6,0,0,0-.8,2.7h0c0,2.3,1.2,4.1,3.6,5.6a15.2,15.2,0,0,0,6.1,1.4c0,.4.9.9,2.8,1.4q.5.9,2.4.9c1.3.6,3.1,2.1,5.5,4.7l.2.3v.2H135a7.8,7.8,0,0,1,.9,2.2c0,3.7-.6,6.1-1.8,7a8.3,8.3,0,0,1-3.4,3.3,8.7,8.7,0,0,1-5.9,2.6h-2.2c-3.2-.5-4.9-.9-4.9-1.2a13.2,13.2,0,0,0-3.2-2,11.3,11.3,0,0,1-4.2-2.9h-.2c-.6,1.4-1,2.1-1.3,2.1-2.6-.4-3.9-.8-3.9-1.3a23.2,23.2,0,0,1-.4-5.4l.6-3.8c0-1.4.2-2.1.5-2.1l3.9-.5c.3,0,.6,1.2.9,3.5l1.7,3.1a61.5,61.5,0,0,0,5.5,3.7,5.3,5.3,0,0,0,3.9,1.6h2.2a4.7,4.7,0,0,0,4.4-2.2,8.6,8.6,0,0,0,2.1-4.5h0c0-1.3-1-2.8-3.1-4.5a4.4,4.4,0,0,0-3.5-1.6,27,27,0,0,0-5.5-1.1l-5-2.6-2.4-2.1a11.2,11.2,0,0,1-1.7-3.3v-1l-.2-2.4a3.1,3.1,0,0,1,1.1-2c0-.5,1-1.7,2.9-3.4s3-1.8,3.3-2.4ZM105.4,38.3v1.6h0c.3-.3.4-1.3.4-3v-.5h-.2C105.5,36.3,105.4,36.9,105.4,38.3Zm1.7,3.2v.2l.2.3h.1l.2-.2h0l-.3-.2Zm.4-8.2v.3h.4v-.3ZM110,17a4.1,4.1,0,0,0,.3,1.6h.2V16.8h-.3Zm.1,22.4v.2c.6.8,1.2,1.2,1.7,1.2h.1v-.2c-.8-.8-1.4-1.2-1.7-1.2Zm.4-24V16h.1l.3-.6h-.3Zm.9,7.4h0l.2.2h.1v-.3h-.3Zm.2-5.2v.2h.1l.3-.3h-.2Zm.7-2.8h.3v-.2h-.3Zm.3,8.3h0c.3.9.6,1.3.9,1.3h.2l.3-.3h0c-.5-.7-.9-1-1.3-1Zm.2-7.4h.3c.9-.6,1.4-1.1,1.4-1.5h-.2q-.7,0-1.5,1.5Zm1.4,6.9h.8q0-.3-.6-.3Zm1.5.5h0v.4l.4.4h.3v-.3A.8.8,0,0,0,115.7,23.1Zm.1,3.2h-.1c0,.2.3.5.9.7h.1Q116.7,26.6,115.8,26.3Zm.4,18.5h0c0,.2.5.4,1.6.7l.3.2h.3c-.1-.6-.3-.8-.4-.8Zm.6-34.5v.2c0,.2.3.3.8.4s1.7-.2,1.7-.4v-.2c0-.3-.6-.5-1.8-.5A1,1,0,0,0,116.8,10.3Zm.9,14.2h0A6.1,6.1,0,0,0,120,26v-.2C120.1,25.6,119.3,25.1,117.7,24.5Zm.8-11.6.7.3a2.2,2.2,0,0,0,1.3-.6l-.4-.3h-.6C118.9,12.3,118.5,12.5,118.5,12.9Zm.9,33.6h0l.2.3h.5a.8.8,0,0,0-.6-.2Zm.4-.9v.3h.2l-.2-.2Zm.9,1.2a4.1,4.1,0,0,0,2.3.5h2.8c-.1-.3-1.5-.5-4.2-.5C121,46.6,120.7,46.7,120.7,46.8Zm.5-32.9q0,.4,2.1.6v-.2q0-.3-1.8-.6h-.1Zm0,12.2c0,.2,1.4.6,4.3,1.2h1.1a10.1,10.1,0,0,0-4.6-1.6C121.4,25.9,121.2,26,121.2,26.1Zm.7,1.8v.2l1,.3h.7A5.4,5.4,0,0,0,121.9,27.9Zm4.6,18.7v.2h.4c.7,0,1.1-.1,1.1-.3h-1.5Zm.5-33.7h0c0,.2.2.3.7.3h.2Q127.9,12.9,127,12.9Zm.7,2.3h-.1a8.2,8.2,0,0,0,2.5,1.1h0Q130.1,16,127.7,15.2Zm.2,13.6h0l3.3,1.9a3.5,3.5,0,0,0,1.9,1.1h.1v-.2c-.9-1.3-2.5-2.2-4.8-2.9Zm1.5,12.8v.3h.1a3.3,3.3,0,0,0,.9-1.1v-.2A2.2,2.2,0,0,0,129.4,41.6Zm.6-9.1v.3c0,.4.3.9,1,1.5h.4v-.5c0-.5-.5-1-1.3-1.3Zm.6,11.4h0c0,.1.1.1.2.1s1.2-.6,2.1-1.9h-.2Zm.1-29.2a5.3,5.3,0,0,0,2,.9h.1c0-.3-.6-.5-1.9-.8h-.2Zm.1,22.6v.3h.2l.2-.2v-.2Zm1.5-18.2c.3.3.8.4,1.7.4h1.3v-.3h-3Zm.6-9v.2c.5.7.9,1.1,1.2,1.1a1.3,1.3,0,0,0,.8-.7v-.2C134.9,10.3,134.2,10.1,132.9,10.1Zm1.3,27.7v.5h.2c.2-.1.4-.4.4-1h-.3Zm.8-25.5h.4v-.3h-.3Z" transform="translate(-0.2 0)" style="fill:#b75326"/><path d="M171.8,0a3.9,3.9,0,0,1,2.3.7,22.6,22.6,0,0,0-1,6.3l-.6,5.6c0,.3.8.5,2.4.5,4.9,0,7.4.2,7.4.6l.7.4a3.1,3.1,0,0,0-.6,1.2v.2l.2,1.2-.8,2.8q0,.3.9,1.2h0a7.9,7.9,0,0,1-2.4.5c-.7-.1-1-.2-1-.3h1l.2-.2v-.2h-7.8c-.2,0-.4,1.2-.6,3.5H172l-.9-.9v1c0,1.2.2,1.8.4,1.9s.3-.4.4-1.2v-.4h.2v.2l-.5,5.9c.4,6.5.8,9.8,1.1,9.8s.7,1.9,1.6,1.9a3.1,3.1,0,0,0,1.7.4h4.7c.2,0,.4,1.1.5,3.3s-.5,1.9-2.2,1.9h-4.7a10,10,0,0,1-6.6-2.1c-1.1-.5-1.7-1.7-1.7-3.8s-.3-4.9-.5-9.8l1-5.4.2-3.7v-.5c-.3-1.7-.8-2.5-1.5-2.5h-4a4.9,4.9,0,0,0-1.9.5c-.4-.1-.9-.6-1.5-1.7l1.3-5.5a67.2,67.2,0,0,1,7.4-.3,3.5,3.5,0,0,1,.9-2q.3-9.6.6-9.6V.9l-.2-.2h0C167.8.4,169.1.2,171.8,0ZM159.5,13.7c0,.3.1.5.4.5h1l4.7-.3h0c0-.3-1-.4-3-.4h-2.7C159.6,13.5,159.5,13.6,159.5,13.7Zm.8,1.4v.3c0,.4,1.3.6,4.1.6s2.1-.1,2.1-.3-1.8-.7-5.4-.7h-.8Zm.4,2.2c0,.2.1.2.3.2h3.3a9,9,0,0,0-2.8-.3h-.6Zm0,.8h0c0,.3,1.6.4,4.7.4h.5v-.2Zm5.7,13.5.2,1.7v2.8h.2c.3,0,.4-.9.4-2.9V31.8c.1.1.1.2-.1.2A.8.8,0,0,1,166.4,31.6Zm1.9,8v1.3h.1l.2-.2v-1h-.4Zm.4,4.2v.3c.1,1,.5,1.5,1.3,1.5h.7c0-.2-.3-.3-1.1-.5l-.8-1.1Zm.5-22.5v.5h.1c.2,0,.3-.1.3-.4v-.6h-.1C169.3,20.9,169.2,21.1,169.2,21.3Zm.1,1.2v1h.3v-1Zm.1-20.8V2h.2V1.8h-.2Zm0,25.1v.5l.2.2h.1v-.7Zm.3-22.9a6.2,6.2,0,0,0-.1,1.6v.3h.1l.2-1.1V4.1Zm.2,2.8-.2,6.1h.3c.3,0,.4-.5.4-1.5V7c0-.2-.1-.3-.2-.3Zm.4,29.8v.9c0,.3.1.5.3.5h.1c.2,0,.2-.2.2-.4s-.2-1-.4-1Zm0,7h0v.4a1,1,0,0,0,.4.5h.4C171.1,43.9,170.9,43.6,170.3,43.5Zm.6-4.4-.2.8c0,.9.2,1.5.6,1.7l.2-.3v-.5C171.3,39.8,171.2,39.2,170.9,39.1Zm.2-16.9h0l.3.3h.1v-.2l-.3-.2ZM171.9,2h0l.2,1.5h.1a2.1,2.1,0,0,0,.7-1.3V2l-.2-.2h-.6Zm1.5,13.7h0c0,.2.7.4,2.2.4h1.1l1.3.3h.3c.3,0,.5-.1.5-.4h-.1l-4.7-.4h-.4Zm.9,2.8h0q.1.3,2.1.6h.2a3.6,3.6,0,0,0-2-.6Zm3.6-4.6h-1.8V14a7.4,7.4,0,0,0,2.3.4h1.5c.1,0,.1-.1.1-.2s-.3-.7-.7-.7h-.6Zm-.7,30.8h.2c1.5-.3,2.3-.6,2.3-.9h-.1Q177.2,44.4,177.2,44.7Zm.5-25.6a9.3,9.3,0,0,0,3,.5l.2-.2v-.6h-1.4C178.3,18.8,177.7,18.9,177.7,19.1Zm2.3-2h0l.2.3h.3a.7.7,0,0,0,.7-.4l-.2-.2h-.8Zm.2-2.8h0l.2.2c.4,0,.6-.1.7-.3h-.7Z" transform="translate(-0.2 0)" style="fill:#b75326"/><path d="M203.7,17.9h.5a27.6,27.6,0,0,1,6.5,4.2c2.1,1.8,3.1,3.1,3.1,4h-.1c-.3-.5-.6-.8-1-.8h0a.2.2,0,0,0-.2.2,19.6,19.6,0,0,0,1.1,2.4h.1c.1,0,.2-.2.4-.7h0a5.8,5.8,0,0,1,.5,1.8l.5,1.3v.8l.2,2.2a29.4,29.4,0,0,0-.8,4c-.2.8-2.1,3.8-5.8,8.8a6.8,6.8,0,0,1-4.8,2.3,26.3,26.3,0,0,1-4.9.4h-1.2c-.7,0-2.5-.6-5.5-1.8-3.7-3.4-5.6-6-5.6-7.7s-1-2.2-1.3-3.1a31.6,31.6,0,0,1,1.7-5.3c0-1.9.4-3.2,1.3-4,1.9-4.2,4.4-6.8,7.4-8.1a19.6,19.6,0,0,1,6.2-1.4ZM186.1,35.8q.2.6.3.6h0v-.7h-.1Zm1.5,2.9v.5c0,1.3.4,2.1,1.1,2.3h.1c-.3-1.9-.7-2.9-1-2.9Zm.6-9.8a.5.5,0,0,0,.5-.4h0A.5.5,0,0,0,188.2,28.9Zm1.2-2.1h.1c.1,0,.2-.2.2-.5h-.1A.8.8,0,0,0,189.4,26.8Zm.2,7.7h.1l.2-.2h-.1Zm.3,8.3h0a.8.8,0,0,0,.5.5h.2c0-.3-.2-.5-.5-.7H190Zm.9-6v.4c.5,1,1.1,2.2,1.9,3.6s.8,1,2.3,1.7a8.2,8.2,0,0,0,4.2,2h1.1a21.4,21.4,0,0,0,4.1-1.1l2.2-1.9c2.3-2.5,3.4-4.5,3.3-6.2v-.6a11.7,11.7,0,0,1-.3-3.2,10.6,10.6,0,0,1,.2-2.7c0-.3-.8-1-2.4-2.2a8,8,0,0,0-3.6-3h-.7q-7.2.3-7.2,1.2a9.6,9.6,0,0,0-2.3,3.2c-1.3,1.3-2,2.2-2,2.7A52.1,52.1,0,0,0,190.8,36.8Zm.2,8V45a3.9,3.9,0,0,0,2.9.9h.6a9.2,9.2,0,0,0-3.1-1Zm.9-18.4v.4h.1c.6-.4.9-.8.9-1.1h-.3A2.7,2.7,0,0,0,191.9,26.4Zm.6-4.2v.2a26.3,26.3,0,0,0,3.8-2.6l.5-.2h.3c2.8-.3,4.2-.6,4.2-.8h-1a10.4,10.4,0,0,0-7.6,3.2Zm.7,2.8v.2h0Zm0-1.8c.4,0,.7-.2,1-.7v-.2C193.5,22.5,193.2,22.8,193.2,23.2Zm1.1,23.2h1l-.2-.2h-.2C194.6,46.2,194.3,46.3,194.3,46.4Zm1.3-.8h0c0,.3.6.4,1.7.4h.1A3.7,3.7,0,0,0,195.6,45.6Zm1.8-24.5v.2a22.5,22.5,0,0,0,4.8-.7l-.5-.2h-.1A9.1,9.1,0,0,0,197.4,21.1Zm.1,2.1h0l.2.2h.8l4.4-1h0l-1.2-.2C198.9,22.4,197.5,22.8,197.5,23.2Zm4.1,23.9h0q0,.3.9.3c.7,0,1.1-.1,1.1-.3h0a1.2,1.2,0,0,0-.5-.5h-.5C202.1,46.6,201.8,46.7,201.6,47.1Zm1-28.4c.2.6.6.8,1.4.8h.7v-.2q0-.7-1.2-.9Zm.6,1.9h0v.2l-.6.6h0c0-.2.3-.4,1-.8Zm.6.1h-.1a3.6,3.6,0,0,0,1.8.9h.1A3.4,3.4,0,0,0,203.8,20.7Zm1.1,26.8h.1c.7-.3,1.1-.5,1.1-.7H206C205.4,47,205,47.2,204.9,47.5Zm.9-23.9a1.2,1.2,0,0,0,.9.6V24h0a.5.5,0,0,0-.5-.5C206,23.5,205.8,23.5,205.8,23.6Zm1-3.4h0a1.7,1.7,0,0,0,1.3.8c0-.4-.3-.8-1-1h-.3Zm1,2.6h0a3.5,3.5,0,0,0,1.8,1.5h.3A8.7,8.7,0,0,0,207.8,22.8Zm1.2,1.9h0c.2.6.8,1,1.8,1.4h.2l.2-.2h0a2.6,2.6,0,0,0-1.9-1.1Zm2.8,15.1h.1c.2,0,.5-.3.8-1h-.2C212.3,38.8,212,39.1,211.8,39.8Zm1-1V38h.1c.2-.1.3.2.2.9h-.5Zm.5-3.5c.1,1.3.2,2,.4,2h0a2.4,2.4,0,0,1,.6-1.5v-.2l-.7-.9h-.1C213.4,34.7,213.3,34.9,213.3,35.3Zm.8-4.2v.3l.2.2.2-.2v-.3h-.4Z" transform="translate(-0.2 0)" style="fill:#b75326"/><path d="M252.9,4.8h.3A31.2,31.2,0,0,1,259,6.3c.3.2.5.4.8.4l.4-.2,2.9,3.8c.1-.1.2.1.2.6a12.3,12.3,0,0,1,.6,3.6c0,1.1-.7,1.6-2.3,1.6a7.6,7.6,0,0,1-1.9-.5h-.1c-.1,0-.2.2-.4.7h-.1c-.2,0-.6-.8-1-2.4s-1-3.5-1.2-3.6-1.7-.5-3.6-.5h-.1l-4.8,1.1c-1.1.8-1.7,1.3-1.7,1.6,0,5.6.2,8.4.7,8.4s2.8.9,5.4.9c.5.2.7.4.7.6a2.9,2.9,0,0,1,1.2,2.2c0,1.7-1.3,2.6-3.8,2.6h-.1a4,4,0,0,1-2.1-.7h-.4c-.8.1-1.2.2-1.2.4v8.4a24.3,24.3,0,0,0,.3,3.8v3.5c0,.3,1.2.6,3.6,1s3.5.2,3.9.6l.3.2c-.3,0-.5,1.2-.8,3.5l-2.6-.3h-.8A56.4,56.4,0,0,0,244,47h-5a1.2,1.2,0,0,1-.3-.9V44.8a16.5,16.5,0,0,0-.2-2.7c0-.3.3-.4,1-.4l2.4.5h.9c.4,0,.7-.1.8-.4h0a12.5,12.5,0,0,1-.5-4.5,8.5,8.5,0,0,1-.4-2.4v-.2c0-1.2.3-3.8.8-7.8,0-.2-.3-.3-1.1-.3h-.2a17.9,17.9,0,0,1-4.4.8l-1-.2c.2-3.8.5-5.7.8-5.7a.5.5,0,0,1,.5-.3h.3c3.2,0,4.7-.1,4.7-.3V15.3c-.1-1.1-.1-2-.1-2.6v-.2l-.3-1.1h0a14.6,14.6,0,0,1,1.7-2.4l2.9-3A14.7,14.7,0,0,1,252.9,4.8ZM237.8,22.2v.2l.2.2h.3a1,1,0,0,0,.6-.5l-.3-.3h-.1A.8.8,0,0,0,237.8,22.2Zm.7,3a2.2,2.2,0,0,0-.4,1v.4h.7v-.2A2.1,2.1,0,0,0,238.5,25.2Zm1.8,20.1h0c0,.3.9.4,2.6.6h.1a3.7,3.7,0,0,0-2.1-.6h-.6Zm.3-22.6h0a.8.8,0,0,0,.4.7,2.4,2.4,0,0,0,1.1-.6c0-.1-.4-.3-1.1-.4h-.2Zm0,19.9v.2c0,.2.3.3,1,.4h.6v-.2l-1.5-.3Zm.5-18-.2.2h.7C241.6,24.7,241.4,24.6,241.1,24.6Zm1.3,1.1h.7l.2-.2h-.8Zm1.4,19.5h0a1.3,1.3,0,0,0,1,.7h.4A2.1,2.1,0,0,0,243.8,45.2Zm.8-12.8.2.6v.8c.1,1.3.3,2,.5,2h0c.3,0,.4-.8.4-2.2v-.3c0-.8-.2-1.2-.7-1.2h-.2C244.6,32.1,244.6,32.2,244.6,32.4Zm.3-5-.2,1.8v1h.1V27.4Zm0,13a10.3,10.3,0,0,0-.1,1.9h.3l.2-.3v-.8q-.2-.9-.3-.9Zm0-1.6V39l.2.2h.1v-.4Zm.3-14.8v.5h.2v-.4l-.2-.2Zm0,7.2h0v.4h.3v-.5Zm.2-1v.5h.1l.2-.2v-.3Zm.1-1.1v.2h.2v-.2Zm.6,16.7V46c0,.1.4.3,1.2.4h1v-.2c0-.2-.4-.4-1.3-.4Zm2-38.7h0a4.6,4.6,0,0,0,3.4-1V6h-.1A5.7,5.7,0,0,0,248.1,7.1Zm0,16.1v.2a1.1,1.1,0,0,0,1,.5h.4v-.2a1.4,1.4,0,0,0-1.1-.5Zm3.2.7v.2h.2v-.2Zm.2,1.6h.2c1.2-.2,1.8-.4,1.8-.7h-.4C252,24.9,251.5,25.1,251.5,25.5Zm.3,19h.5c.9,0,1.3-.1,1.3-.3h-1.2C252,44.3,251.8,44.4,251.8,44.5ZM252.1,9h.2V8.9h-.1Zm.8,37h0l.4.5h.2V46l-.2-.3h-.3ZM253,7.3h0c0,.1.1.2.4.2h1q0-.3-.9-.3Zm4.5-.2a2.6,2.6,0,0,0,1.9,1.2V7.8a2.4,2.4,0,0,0-1.7-1h-.1C257.5,6.8,257.5,6.9,257.5,7.1Zm.6,3.3h0a2.4,2.4,0,0,0,.6,1.5h.2v-.4c-.1-.8-.3-1.2-.8-1.2Zm1.4,3.9h.4V13.3h0A1.1,1.1,0,0,0,259.5,14.3Z" transform="translate(-0.2 0)" style="fill:#b75326"/><path d="M261.9,14.8a2,2,0,0,0,1.3.4l.7-.3c5.6,0,8.4.1,8.4.5v1.4a6.9,6.9,0,0,1,.5,2.4v1c-.4,5.7-.7,11.1-.9,16.3a2.3,2.3,0,0,0-.3,1.3.6.6,0,0,0,.6.3h.2c2.2,0,3.3.2,3.3.7h-.1v.4a11.3,11.3,0,0,1,.7,4.7l.3,2.5h-9.1c-4.6,0-6.9-.3-6.9-1.1a2.4,2.4,0,0,0-.4-1.3,2.3,2.3,0,0,1,.7-.7h.1a.7.7,0,0,0,.6.2h.1l4.3-.3h0c-3.5-.2-5.3-.5-5.3-.8V39.8c0-.5,1.5-.7,4.6-.7.5,0,.7-.9.7-2.7l.7-16.3h-.1c-1.6,0-2.1-.1-1.6-.4-2.5,0-3.7-.3-3.7-.9s-.2-.2-.2-.5l.3-.7c0-.2-.2-.4-.4-.6h0a3.2,3.2,0,0,0,.7-2h.3Zm.1,26.5h0q.5.6,3.9.6h.4c.3,0,.6-.1.6-.3h0a35.2,35.2,0,0,0-4.5-.3Zm.7-25.2v.2h.3c1.1,0,1.6-.1,1.6-.3h-.3C263.2,15.9,262.7,15.9,262.7,16.1Zm.2.9h0c0,.1.3.2.9.2h2.9c.6,0,.9-.1.9-.2h0c0-.3-1.2-.3-3.6-.1Zm7.3-14.3a3.9,3.9,0,0,1,3.4,2.2L274,7a7.5,7.5,0,0,1-1.3,3,3.7,3.7,0,0,1-2.5.8q-3.9,0-4.8-1.2a5.7,5.7,0,0,1-.9-3.4.2.2,0,0,1-.2-.2h0C265.5,4,266.8,3,268.1,3Zm-3.3,1.9h0a5.3,5.3,0,0,0,2.1-.5l-.3-.2C267.5,4.1,266.9,4.3,266.9,4.6Zm.3,29.7c.1.3.1.5.2.5s.2-.2.2-.6v-1a7.7,7.7,0,0,0,.7-2.4v-.4l-.2-.9c.3-.1.4-.3.4-.4a7.8,7.8,0,0,1-.2-1.4h0a51.6,51.6,0,0,0,.5-6.9c-.1-.4-.2-.5-.3-.5h-.1c-.5,0-.9,2-1,6.1Zm1.3,9.3h-.9v.2h2.7v-.2h-1.8ZM268,6.3h.4c.5,0,.9-.1,1-.5h-.8c-.4,0-.6.1-.6.4Zm.2,35.7.2.2h.1a.5.5,0,0,0,.6-.6h-.3A.7.7,0,0,0,268.2,42Zm.6-4.1v.3h.3l.2-.2h0v-.2h-.1Zm.1-1.1v.4h.2c.2-.1.3-.3.3-.8V36h-.2C269,36,268.9,36.3,268.9,36.8Zm.1-19.9v.2a1.8,1.8,0,0,1,1,.6h.1a.2.2,0,0,0,.2-.2h.1c.1,0,.2.2.4.6h0l.9-.7v-.3H269Zm.3,3.5.3,1-.4,1c.2.5.3.7.4.7h.1v-.8c0-1.5.2-2.3.6-2.3l.2-.2v-.3h-.5C269.6,19.4,269.3,19.8,269.3,20.4Zm.5,10.5a19.3,19.3,0,0,0-.5,3.5h.1c.2,0,.4-.9.7-2.6v-.9Zm-.4-21.8v.2h1l.2-.2h-1.2Zm.7,11.9v.3a.5.5,0,0,0,.3.5h.2l.2-.2v-.3c0-.2-.2-.3-.4-.4Zm.8-13.2V8h.3a.8.8,0,0,0,.7-.4V7.4h-.2A1,1,0,0,0,270.9,7.8Zm0,8,.3.2h0v-.4Zm1.3-9.7v.2h.1l.2-.2V5.9h-.1Zm1.3,35.8c.1.5.4.8,1.1.8h.2v-.4c0-.1.1-.2.5-.3v-.4a.5.5,0,0,0-.3-.5h-.2c-.2,0-.3.2-.4.6Zm.3-2.7a3.3,3.3,0,0,0,1.3.4v-.2c0-.1-.2-.2-.7-.3h-.6Zm.1,4.2h.1l.2-.2H274Zm1.5,2.5h.4v-.2h-.1Z" transform="translate(-0.2 0)" style="fill:#b75326"/><path d="M291.4,14.3h2a17.3,17.3,0,0,1,4.8,1.3,8.9,8.9,0,0,1,3.9,1.6h.4c.4,0,1.4-.8,2.9-2.5.3,0,1,.6,1.9,1.7a4.7,4.7,0,0,1,1.4,1.2v.2c-2.4,2.5-3.5,3.9-3.5,4.2a42.8,42.8,0,0,1-2.2,6.3,8.5,8.5,0,0,1-3.3,2.1c-1.9,1.8-3.5,2.8-4.9,2.8h-1.9l-4-.4h-.8c-.3,0-.7,1.4-1.3,4.1l.5.2h.2a4.3,4.3,0,0,0,2.1-.8h4a33.2,33.2,0,0,1,9.7,1.1l2.7,1.4,2.2,1.5a8.9,8.9,0,0,1,3,3.8,16.4,16.4,0,0,1,2.2,7.3q0,2.3-3.6,5.7l-3.7,2.7a13.4,13.4,0,0,1-7.1,1.9l-1.7.2c-7.3,0-12.3-1.5-14.9-4.5a4.9,4.9,0,0,1-2.8-4.4,9.8,9.8,0,0,1-1.1-5.2l-.2-1.4.2-.8h.2c.2,1,.3,1.4.5,1.4h.2a38.8,38.8,0,0,1,1.4-5.2h-.1a13.5,13.5,0,0,0-1.8,3.4h-.1c-.1,0-.2-.3-.3-.7a12.9,12.9,0,0,1,2.3-4.3,11.6,11.6,0,0,0,2.4-2.6c.4-3.4.7-5.6.9-6.3a12.7,12.7,0,0,1-1.6-5.1V25a20.1,20.1,0,0,1,.8-3.9l2.7-3.3C288,15.5,289.9,14.3,291.4,14.3ZM279.1,49.2v.4l.2.3h.1v-.7h-.3Zm.3,1.1v.2c.1.2.1.4.2.4h.2v-.2l-.3-.3Zm1.9-5.4v.3h.1c.2,0,.4-.6.7-1.9h-.1A2.3,2.3,0,0,0,281.3,44.9Zm.6-3.6v.2h.1c1.1-.2,1.6-.6,1.6-1v-.4l-.2-.2A3.5,3.5,0,0,0,281.9,41.3Zm0,13.2c.1.3.2.4.3.4l.3-.3c0-.1-.1-.3-.4-.4Zm.7-5v1.3c.1.8.2,1.3.3,1.3h.1a.5.5,0,0,0,.3-.5v-.8c0-1-.1-1.5-.4-1.5h0Zm.4-6.2v.3h.2l.4-.4V43A.6.6,0,0,0,283,43.3Zm.1-19a3.3,3.3,0,0,0,.6,2.1h.2a.2.2,0,0,0,.2-.2c-.2-1.7-.4-2.6-.6-2.6S283.2,23.8,283.1,24.3Zm10.4,17h.1v.2h-6.9c-1.9,1.8-2.8,3-2.8,3.7l-.4.4h0c.3,4.2.7,6.8,1.2,7.7a10.2,10.2,0,0,0,2.3,1.8q0,.6,3.6,1.5a61.1,61.1,0,0,0,9.1.9q4.5-.9,6.3-2.7c2-2.1,3-3.8,3-5v-.4c0-.7-.8-2.1-2.4-4.1a4.6,4.6,0,0,0-1.9-1.7,12.6,12.6,0,0,0-5.4-2.2h-3.9v-.4h-.7Zm-9.9,14.8h.6v-.3h-.4Zm.3-33.7h.1a4,4,0,0,0,1-1.3h-.1C284.6,21.1,284.3,21.5,283.9,22.4Zm0,20.3v.2h.1l.8-.2v-.3h-.2C284.1,42.5,283.9,42.6,283.9,42.7Zm0-13.1v.2a3.4,3.4,0,0,0,1.8,1.4h0c-.3-1-.9-1.5-1.5-1.5Zm.5,10.6.3.2h.4l.3-.3v-.4l-.2-.2A.8.8,0,0,0,284.4,40.2Zm.1,15.2v.2l.3.2h.3c0-.2-.2-.3-.5-.3Zm.8-22.9v.4c0,.4.2.7.6.7l.2-.2v-1l-.2-.2h-.2Zm.8-7.3h0a2.8,2.8,0,0,0,.6,1.8h.1v-.2c-.1-1-.3-1.7-.6-1.8Zm.4,5h0a.9.9,0,0,0,.8.6l.4-.4c0-.2-.4-.3-1-.5Zm.5-6.7v.3c.6,3.1,1.1,4.7,1.4,4.7a4,4,0,0,0,2.5,1.4c3.1,0,5.3-.7,6.7-2.1a8.9,8.9,0,0,0,2.2-3,3.1,3.1,0,0,0,.5-1.3v-.9a6.4,6.4,0,0,0-1.5-3.1,16,16,0,0,0-4.6-1.4,8.2,8.2,0,0,0-5.6,2.5A5.6,5.6,0,0,0,287,23.5Zm.1,15.7,2,.2.8-.2a1.9,1.9,0,0,0-.7-.8h-.7C287.6,38.6,287.1,38.8,287.1,39.2Zm.5-19.5h.2c.3,0,.6-.3,1.1-.9v-.2h-.4C287.9,19.1,287.6,19.4,287.6,19.7Zm.5,11.1H288v.5l.2.2h1.1v-.2Zm.5,9.8.2.2h.4v-.3h-.3Zm.5-24.7h0c1.4-.3,2.2-.7,2.2-.9h-.2A3.2,3.2,0,0,0,289.1,15.9Zm10.3,42.9c-4.9-.4-7.8-.7-8.5-1h-1.7a5.1,5.1,0,0,0,2.1.9h1.8l.5.3h.1a18.6,18.6,0,0,0,3.6.3h1.3a7.1,7.1,0,0,0,3.8-.7,8.5,8.5,0,0,0,2.5-1.1h0C302.6,57.9,300.7,58.3,299.4,58.8Zm-9.5-27.1c0,.3.7.5,2.1.5h1.7c.3,0,.5-.1.5-.2a10,10,0,0,0-3.5-.5h-.6Zm.4,5.7Zm.3-20.3v.3h.1l1.9-.7v-.3h-.5C291.1,16.6,290.6,16.9,290.6,17.1Zm.5,42.9H291l.3.2h.1Zm1,.5h0q0,.3.6.3h.7c0-.2-.4-.3-1.1-.3Zm1.7-29.9c0,.1.4.2,1.1.2h.5c0-.2-.2-.4-.8-.4h-.5Zm.1,6.8h0c0,.3,2.1.6,6.3.7l1.3.5h.1c.2,0,.3-.1.5-.3h1.8c-.2-.4-.6-.6-1.4-.6h-.6l-.6.2h0l-1.4-.6-4.1-.2h-.6Zm1.5-7.5h0l.3.4h.3a3.5,3.5,0,0,0,1.3-1h-.6A1.8,1.8,0,0,0,295.4,29.9Zm1.8,30.7v.2c0,.1.2.2.4.2h1.2v-.3h-1.6Zm.1-19.8c0,.2,1,.3,3.1.4a19.9,19.9,0,0,1,4.4,2.1h.8l.3-.2h0c-.4-.6-1.7-1.2-4-1.9l-4.3-.6Zm.3-10.9v.2h.1l.5-.4h-.4Zm0,9.5h0q0,.2,1.5.3h.1l-1.5-.2Zm.4-10.3h.2a2.4,2.4,0,0,0,1.1-.8v-.2A4.8,4.8,0,0,0,298,29.1Zm1.3-1.4h.3c.8,0,1.3-.9,1.4-2.6v-.3h-.2A12.3,12.3,0,0,0,299.3,27.7Zm1.2,32.8h.2c.8-.1,1.2-.3,1.2-.7h-.2Q300.7,60.2,300.5,60.5Zm.4-41.4h0c.3.8.6,1.2,1.1,1.2s.1-.1.1-.2-.3-.6-.9-1.1Zm1.3,8.4v.3h.1c.1,0,.2-.2.3-.4Zm0,33.3h.3a12,12,0,0,0,3-1.5h-.2C303.2,59.7,302.2,60.2,302.2,60.8Zm1.2-21.2.2.2h.2v-.3h-.2Zm1,.7c0,.2.5.5,1.5.7h.2a1.8,1.8,0,0,0-1.3-.6h-.4Zm.7-20.4v.3h.2a7,7,0,0,0,1.7-1.9v-.2h-.1Q306.3,18.1,305.1,19.9Zm.3-3.6h0a.5.5,0,0,0,.5.3h.3v-.2l-.4-.3h-.2Zm.7,27.3a12.1,12.1,0,0,0,1.8,2.5h.1v-.2c-.6-1.5-1.1-2.3-1.7-2.3Zm.3-2.1h0l2.4,2.1h.1a3.6,3.6,0,0,0-2.1-2.1Zm1.2,13h0l.2.2c1-.3,1.5-.9,1.5-1.6v-.4h-.2C308.1,53.6,307.6,54.2,307.6,54.5Zm2.6-5.9h0l.2.2h.1l.2-.2h-.5Zm1.3,1.8h0a.8.8,0,0,0,.2.6h.1a3.2,3.2,0,0,0,.5-1.9h-.2A1.4,1.4,0,0,0,311.5,50.4Zm.1-2.2h0l.2.2h.1v-.2Z" transform="translate(-0.2 0)" style="fill:#b75326"/><path d="M317.2,1.3q7.8.3,7.8,1.5l.5,9a48.2,48.2,0,0,1-1.3,6.3,10.3,10.3,0,0,0-.4,2.6v.4h.2a14.9,14.9,0,0,1,9.5-3.2,17.4,17.4,0,0,1,5.7,1.7,18.5,18.5,0,0,1,2,2.6,1.9,1.9,0,0,1,.6.7v.6a6.5,6.5,0,0,1,1.7,4.9c.2,0,.3,2.1.3,6.1h0a68.1,68.1,0,0,1-1,6.9l-.2,1.1h1.3c1.3.1,2,.3,2,.6s-.6.3-1.9.4h0c0,.2.4.3,1.4.6l.2.3h0l-1.2.3c.8.2,1.2.5,1.2.8,0,2-.5,3-1.6,3h-.6c-1.6,0-2.4-.3-2.4-.8a7.9,7.9,0,0,0-2.5-.3,7.5,7.5,0,0,0-1.8-.8v-.2a50.1,50.1,0,0,1,.8-7.9,39,39,0,0,1,1.1-6.4l-.2-2.2.3-.3a2,2,0,0,1-.9-1.8,12,12,0,0,0-1.2-2.1,10.8,10.8,0,0,0-2.6-.9,8.4,8.4,0,0,0-6.2.3c-2.7,1.8-4,3.1-4,4l-.4,4,.2,4.2q-.5,4.5-.9,4.5v.3h.5l1-.4c1,.1,1.5.5,1.5.9l-.4.4v.3l.8.4v.3c-.2,2.1-.5,3.2-1,3.2h-.1c-.7-.4-2.9-.7-6.7-.8s-4-.7-4-1.3v-1c-.1-.2,0-.4.3-.9v-.4a4.1,4.1,0,0,1-.7-1.2l3-.3q.3,0,.6-2.4a2.9,2.9,0,0,0,.7-2,1.3,1.3,0,0,0,.4-1h0a3.2,3.2,0,0,0-.7-1.9l.7-1.5c.2,0,.4-4.5.5-13.5l.8-9.1V7.5c0-.9-.3-1.4-.8-1.4h-2l-1.4.4c-.2,0-.4-.5-.4-1.6V4.1c0-1.8.3-2.7.7-2.7Zm-2.1,42.1v.2h2.6c0-.3-.6-.5-1.9-.5A.8.8,0,0,0,315.1,43.4Zm.7,2h.1a15.1,15.1,0,0,1,3.1.8,41.3,41.3,0,0,1,5.3.5h.2l.2-.3h0c0-.4-1.9-.6-5.9-.6a4.3,4.3,0,0,0-2.4-.6C316,45.2,315.8,45.3,315.8,45.4Zm.5-42.3v.4h.3V3.2h-.3Zm1-.9v.3a4.1,4.1,0,0,0,2.1.5V2.8a4.9,4.9,0,0,0-2.2-.6Zm.5,1.3h0v.2h.8V3.6h-.9Zm.2,38q0,.4,2.1.6h.3v-.5a.6.6,0,0,0-.5-.2h-1.3A.8.8,0,0,0,318,41.5Zm.2-36.9h0c0,.2.2.3.4.3h.9V4.6h-1.3Zm3,7.6a8.2,8.2,0,0,0-.2,2.2c.5,0,.8.4.8,1.1h0a2.9,2.9,0,0,0,.2-1.2v-.8h-.1l-.2.6h-.3v-.3c0-.4.1-.5.2-.5h.4A5.8,5.8,0,0,0,321.2,12.2Zm.4-1.6h0l.2.3h.3v-.2l-.3-.3h0Zm.1-1.9v.6l.3-.2V8.8l-.3-.3Zm.9,18.3v.4h.1c.4,0,.7-.4.8-1.1h.1v-.3h-.1A3.5,3.5,0,0,0,322.6,27Zm.3-24.1a1,1,0,0,0,.6.5h0a.6.6,0,0,0,.6-.3V2.9l-.3-.3h-.6Zm.3,25.2h.6c.3,0,.4-.1.4-.2v-.2h-.3A.6.6,0,0,0,323.2,28.1Zm.3,15.6V44l.3.3h.4l.2-.3h0l-.4-.4h-.5Zm.3-.9V43h.3v-.2Zm1.8-19.3h.2c.4-.2.7-.4.7-.6h-.2A2.2,2.2,0,0,0,325.6,23.5Zm2.5,1.5h.1l.3-.2v-.2h-.2Zm2.6-3.1h0l.2.2h.4l-.2-.2Zm.8,2h.2v-.2h-.1Zm.8-.8v.3a5.2,5.2,0,0,0,1.8.6l.2-.2c0-.3-.5-.5-1.6-.8Zm1.8-4.6h0l.7.4h0c0-.2-.2-.3-.7-.4Zm2.2,6.1h0a.5.5,0,0,0,.6.6h0Q336.8,24.6,336.3,24.6Zm.9,21.6v.2a.9.9,0,0,0,.8.4h.7v-.2c0-.2-.3-.3-.8-.4Zm.2-26.3h0c.2.4.4.5.9.5v-.2A1.3,1.3,0,0,0,337.4,19.9Zm.1,25.6h.4v-.2l-.2-.2Zm.2-.9h2.6a3.3,3.3,0,0,0-2-.4.8.8,0,0,0-.7.5Zm.7-20.9v.2a9.3,9.3,0,0,1,1.8,2.8c.2.3.4.4.5.4v-.4a4.7,4.7,0,0,0-1.7-2.9h-.6Zm.5,18.8v.3h.5l.2-.2v-.3l-.2-.2A.7.7,0,0,0,338.9,42.5Zm1-16.8v.2l-.5,1.3h.2l-.3-.4Zm1.5,14.1h.1c.3,0,.7-1.5,1.2-4.6,0-.5-.1-.7-.4-.8h-.2C341.8,34.4,341.5,36.2,341.4,39.8Zm.5-14.3h0l.3.3h.2v-.2l-.3-.4h-.1Zm.4,7.9.2.2h.1v-.2h-.3Z" transform="translate(-0.2 0)" style="fill:#b75326"/><path d="M355.5,0a3.6,3.6,0,0,1,2.2.7,27.2,27.2,0,0,0-1,6.3l-.5,5.6c0,.3.8.5,2.4.5,4.9,0,7.3.2,7.3.6s.4.2.8.4a4.1,4.1,0,0,0-.7,1.2v.2l.2,1.2-.8,2.8q0,.3.9,1.2h0a8,8,0,0,1-2.3.5c-.7-.1-1.1-.2-1.1-.3H364l.2-.2v-.2h-7.8c-.2,0-.4,1.2-.7,3.5h-.1l-.8-.9-.2.6v.4c.1,1.2.2,1.8.4,1.9s.3-.4.5-1.2v-.4h.1v.2l-.5,5.9c.4,6.5.8,9.8,1.2,9.8s.6,1.9,1.5,1.9a3.3,3.3,0,0,0,1.7.4h4.8a10.6,10.6,0,0,1,.4,3.3c.2,1.3-.5,1.9-2.1,1.9h-4.8a9.8,9.8,0,0,1-6.5-2.1c-1.2-.5-1.8-1.7-1.8-3.8s-.3-4.9-.4-9.8l1-5.4V22.3c-.2-1.7-.7-2.5-1.4-2.5h-4a4.5,4.5,0,0,0-1.9.5c-.4-.1-1-.6-1.5-1.7l1.2-5.5,7.5-.3a3.5,3.5,0,0,1,.9-2q.1-9.6.6-9.6V.9c0-.1-.1-.2-.3-.2h0C351.4.4,352.8.2,355.5,0ZM343.1,13.7a.5.5,0,0,0,.5.5h.9l4.7-.3h0c0-.3-1-.4-3-.4h-2.6C343.3,13.5,343.1,13.6,343.1,13.7Zm.8,1.4v.3q0,.6,4.2.6c1.3,0,2-.1,2-.3s-1.8-.7-5.4-.7h-.8Zm.4,2.2c0,.2.1.2.4.2h3.2a8.5,8.5,0,0,0-2.8-.3h-.5Zm0,.8h0c0,.3,1.6.4,4.7.4h.5v-.2ZM350,31.6l.3,1.7v2.8h.1c.3,0,.4-.9.4-2.9V31.8c.2.1.2.2-.1.2A.9.9,0,0,1,350,31.6Zm2,8v1.3h0l.2-.2v-1H352Zm.3,4.2v.3c.1,1,.6,1.5,1.3,1.5h.8c0-.2-.4-.3-1.2-.5l-.8-1.1Zm.5-22.5v.5h.2c.1,0,.2-.1.2-.4v-.6h0C352.9,20.9,352.8,21.1,352.8,21.3Zm.2,1.2v1h.2v-.8l-.2-.2Zm.1-20.8V2h.2V1.8Zm0,25.1v.7h.2v-.7Zm.3-22.9a5.1,5.1,0,0,0-.2,1.6v.3h.2V3.9Zm.2,2.8-.2,6.1h.3c.2,0,.4-.5.4-1.5V7l-.2-.3Zm.3,29.8v.9c0,.3.1.5.3.5h.1c.1,0,.2-.2.2-.4s-.2-1-.4-1Zm.1,7h-.1v.4l.5.5h.4C354.8,43.9,354.5,43.6,354,43.5Zm.6-4.4-.3.8c0,.9.2,1.5.6,1.7l.2-.3v-.5C355,39.8,354.8,39.2,354.6,39.1Zm.2-16.9h0l.2.3h.1v-.2l-.3-.2ZM355.6,2h0V3.6h.2a2.8,2.8,0,0,0,.7-1.3V2l-.2-.2h-.6ZM357,15.7h0c0,.2.8.4,2.3.4h1l1.4.3h.3a.4.4,0,0,0,.4-.4h-.1l-4.7-.4h-.4Zm1,2.8h0q0,.3,2.1.6h.1a3.3,3.3,0,0,0-1.9-.6Zm3.6-4.6h-1.8V14a7,7,0,0,0,2.3.4h1.4c.1,0,.1-.1.1-.2a.6.6,0,0,0-.7-.7h-.6Zm-.8,30.8h.2c1.6-.3,2.3-.6,2.3-.9h-.1Q360.8,44.4,360.8,44.7Zm.6-25.6a8.6,8.6,0,0,0,3,.5l.2-.2V19l-.2-.2H363C361.9,18.8,361.4,18.9,361.4,19.1Zm2.2-2h0l.3.3h.2a.9.9,0,0,0,.8-.4l-.2-.2h-.8Zm.3-2.8h0v.2c.4,0,.7-.1.8-.3H364Z" transform="translate(-0.2 0)" style="fill:#b75326"/><path d="M404.3,13a19.6,19.6,0,0,1,4.2.9c2.4,2.2,3.8,4,4.2,5.2s1.6,2.8,2.2,5.7c.6.6.9,2.1.9,4.4v1.5l-.2,6.1c0,1.2.8,2.7,2.3,4.6s2.2,2,2.7,2h0c0,.5-.7,1.3-2.2,2.4s-1.7,1.6-2,1.6h-.1c-.6-.1-2.3-1.3-5-3.7l-7.3,3a22.1,22.1,0,0,1-5.4.7h-.3a11.6,11.6,0,0,1-5.7-2.6,16.3,16.3,0,0,1-1.8-3.1,5.3,5.3,0,0,1-1.1-3.4V36.7a5.9,5.9,0,0,1,.9-3.2,14.7,14.7,0,0,1,2.8-4.8,5.6,5.6,0,0,1,2-1.6,13.7,13.7,0,0,1,6.3-1.6H405a5.4,5.4,0,0,1,3.3.7h.4a.3.3,0,0,0,.3-.3,26,26,0,0,0-2.2-5.6c-.9-1.5-2.6-2.3-5.1-2.3l-2.5-.3c-2.2.4-3.3.9-3.3,1.4a8,8,0,0,0-1.5,4.1c-.1.2-.9.3-2.3.3h-.4c-.1,0-.3.4-.6,1.1s-1.7-.4-1.7-.7a41.3,41.3,0,0,0,.5-4.5c.6-1.9,2.2-3.6,4.6-5.2a10.3,10.3,0,0,1,2.1-1.1Zm-12.2,8.7v.9h.1c.2,0,.3-.2.3-.4v-.5l-.2-.2Zm.7-4.6h.1c.4,0,.9-.4,1.6-1.2v-.2h0c-.4,0-1,.5-1.7,1.3Zm.8,24.8h.5l-.3-.3h-.1Zm.1,3.3h0c.3.4,1.3.9,3.2,1.4a5.7,5.7,0,0,0,2.4.5h0c0-.2-.8-.4-2.4-.7a14.3,14.3,0,0,1-2.8-1.3h-.2Zm.8-15.9v.3h.2a.5.5,0,0,0,.6-.4V29h0Zm0,5.6c.3,2.5.7,3.7,1.1,3.7l.6.8h-.6v.2a13.8,13.8,0,0,0,4.9,3l1.2.3c.8,0,3.7-1.2,8.5-3.6.4-.2.5-.4.5-.7v-.3c-.3-1.7-.6-3.7-.9-5.9h-.1c0-.4-.4-.8-1.4-1.1a25.8,25.8,0,0,0-6.2-1.3,13.1,13.1,0,0,0-6.5,3.1A3.5,3.5,0,0,0,394.5,34.9ZM398.4,15h0q0,.3.6.3a4.1,4.1,0,0,0,1.6-.4v-.2h-.3Zm2.1,29.3a.5.5,0,0,0,.5.3c.4,0,.6-.2.6-.3h0V44h-.8Zm.6-27.5.2.3h.9l-.3-.3h-.5Zm2.3-2.4.3.2h.4l-.2-.3h-.3Zm2.2,29h.3a5.3,5.3,0,0,0,2.3-.7h-.3C406.5,42.9,405.7,43.2,405.6,43.4Zm2.6-28.7h0c.3.4.5.5.8.5h.1v-.2a1.2,1.2,0,0,0-.9-.4Zm2.9,21.2v.3l.3.2h0l.3-.2v-.3l-.2-.2h-.2Zm.2-2.1V34h.3v-.2l-.2-.2h-.1Zm1.7-3V31h0Zm0,1.3v.2h.4v-.2Zm.1-3.3V29q.3.9.6.9h.1a2.1,2.1,0,0,0-.4-1.2h-.3Zm.3,5h0c.1,1.5.3,2.3.5,2.3l.2-.2h0a6.7,6.7,0,0,0-.4-2.2Zm1,8.9a1,1,0,0,0,.5.6h0l.3-.3h0l-.3-.3h-.5Zm.3-16.2h0c0,.3.1.5.2.5v-.3l-.2-.3Zm1.1,17.3V44l.2.2h.3l.2-.2h0l-.3-.4h-.3Zm.5-2.2V42c.2.5.4.7.6.7h.1c-.1-.7-.3-1-.5-1Z" transform="translate(-0.2 0)" style="fill:#b75326"/><path d="M422,15.4l3,.2h5l.2.2a6.7,6.7,0,0,0-.3,1.7v1.1c.1,1.2.4,1.7.9,1.7a5.9,5.9,0,0,1,2.5-1.3c3.3-1.4,6-2.2,8.2-2.2a7.9,7.9,0,0,1,4.5,1.9,8.1,8.1,0,0,1,3.4,2.9,17,17,0,0,1,2.5,9.5v.5l-.4,4.4.4,3.2-.6,2.9h0v.6h3.4a1.9,1.9,0,0,1,1.3.3c-.2,3-.6,4.5-1,4.5a5.6,5.6,0,0,1-2.6.7h-1.3a23.5,23.5,0,0,0-6.2.8c-1.5-.2-2.2-.9-2.2-2.2V44.8a4.6,4.6,0,0,1,1-3.1,44.2,44.2,0,0,1,1.4-5.5l.4-5.4c.1,0,.1-.5.1-1.4s-.9-2.7-2.6-4.8a12.1,12.1,0,0,0-2.4-.8,8.8,8.8,0,0,0-6.4,3q-.3,0-3,3-.9.8-.9,4.2c.1,4.1.2,6.2.5,6.2s2.4.6,2.4.9v.3h-2.4v.2q0,.3,2.4.6a2.1,2.1,0,0,1,.4,1.5h0a9.4,9.4,0,0,1-.6,3.1h-7.1a1.5,1.5,0,0,1-1.6-1,40.8,40.8,0,0,1-.6-4.6c0-.2.7-.5,1.9-.7l.3-.4h0a2.3,2.3,0,0,0-.5-1V33.7l.2-5.7c0-3.8-.2-5.8-.5-5.8h-.4l-2.9.4c-.2,0-.6-.3-1.1-.8v-.2a1.7,1.7,0,0,0,.3-1V18.3l.9-2.8Zm-.3,4.1h0c0,.2.1.3.4.3a1.9,1.9,0,0,0,1.1-.5h-1C421.9,19.4,421.7,19.4,421.7,19.5Zm.5-2.1h0c0,.2.3.2.9.3,2.7,0,4-.2,4-.6l.3-.4h-.2Zm0,4.1h.7l.2-.2h-.3Q422.2,21.4,422.2,21.5Zm1.2-2.6.2.2h.1c.6-.1.8-.2.8-.3h-.2C423.7,18.7,423.4,18.8,423.4,18.9Zm.5,1.4h1.5a.8.8,0,0,1,.7.3h0a1.3,1.3,0,0,0-.3.7l.7.2a.2.2,0,0,0,.2-.2V19.1h-.2a9.9,9.9,0,0,1-2.5,1h-.1Zm.6,21.5h0q.2,1.2.9,1.2h.3l.2-.3h0a1.9,1.9,0,0,1-.6-1.2h-.6Zm1.7-19v.3h.1l.2-.9h-.2C426.3,22.2,426.2,22.4,426.2,22.8Zm1,21.7c0,.2.6.3,1.7.3s3-.1,3-.3-.7-.4-2-.4A5.4,5.4,0,0,0,427.2,44.5Zm.9-24V22a2,2,0,0,1-.2.9v.4l.2.9v.4a.8.8,0,0,0,.4.7c.1,0,.2-.4.4-1.4s.8-.8.8-1.1a4,4,0,0,0-.6-1.3c-.1-.7-.3-1-.5-1Zm.8,3.9v.4a1.4,1.4,0,0,1-.5.9.9.9,0,0,1,.3.6c0,2.1.1,3.2.4,3.2h.1a7.8,7.8,0,0,0,.4-2.9c0-1.6-.2-2.4-.5-2.4h-.1C429,24.2,428.9,24.2,428.9,24.4Zm1.7-3.3v.2a2.6,2.6,0,0,0,1.8-1.1h-.1A3.1,3.1,0,0,0,430.6,21.1Zm.1,3.4v.2c1-.1,2.5-1,4.4-2.7h-.4a5.4,5.4,0,0,0-1.5.8C431.5,23.4,430.7,24,430.7,24.5Zm.4,1.7v.2h.2V26h-.1Zm1.4-.3h0l.2.2h.2l.2-.7h-.2Zm1.2-.9h.2c.6-.6.9-1,.9-1.3h-.1C434.3,23.7,434,24.1,433.7,25Zm.5-5.5h.1c.4-.1.5-.2.5-.3h-.1C434.4,19.3,434.2,19.4,434.2,19.5Zm1.1-.6.2.2c1.9-.5,2.8-.8,2.8-1h0a5.8,5.8,0,0,0-3,.9Zm.3,5.4c.9-.2,1.4-.4,1.4-.7h-.3C436.1,23.5,435.7,23.7,435.6,24.3Zm2.9-3.5V21h.3c.7-.1,1-.3,1-.4v-.2h-.4C438.8,20.5,438.5,20.6,438.5,20.8Zm1-3h0a3.1,3.1,0,0,1,1.5.7l.7.2h2c-.1-.2-.3-.3-.7-.3h-.8a4,4,0,0,0-2-.8C439.8,17.5,439.6,17.6,439.5,17.8Zm.1,4.3h.2c.9,0,1.3-.1,1.3-.2l-.5-.2C439.9,21.9,439.6,22,439.6,22.1Zm2.2,1.2v.2h1.5l.2-.2v-.2l-.3-.3h-.3C442.2,23,441.8,23.1,441.8,23.3Zm1.2-2.7c0,.2.4.3,1.1.4a.9.9,0,0,0,.3-.6c0-.2-.3-.3-1-.5A.8.8,0,0,0,443,20.6Zm.5,27.1v.2c0,.2.6.4,1.7.4h.8a2.8,2.8,0,0,0-2-.6h-.2Zm.3-3v.4h.5l-.4-.3Zm.1-23.2h.4Zm1.3-1.1a.5.5,0,0,0,.5.3h.3l.3-.2h0a.8.8,0,0,0-.6-.2h-.3Zm.1,1.7v.2a9.1,9.1,0,0,0,.8,1.7c0,.3.1.5.3.5l.2-.2V24a2.6,2.6,0,0,0-1.2-1.9Zm0,24.2a.8.8,0,0,0,.7.5c2.2-.1,3.3-.2,3.3-.4a1.7,1.7,0,0,0-1.5-.5C446.1,45.9,445.3,46.1,445.3,46.3Zm.7-7.5a2.1,2.1,0,0,1,.3,1.2h.1l.2-.8v-1A.5.5,0,0,0,446,38.8Zm.3-13.7v.3c.5,1.9.9,2.8.9,2.9l.2-.5v-.5C447,25.9,446.7,25.1,446.3,25.1Zm0,12.7h.1c.2-.1.3-.3.3-.7v-.7h-.1C446.5,36.5,446.4,36.9,446.3,37.8Zm2.1,4.7v.3l.2.2h.1v-.2h0l-.2-.3Zm.1-1.1h0l.3-.7h-.1C448.6,40.7,448.5,40.9,448.5,41.4Zm0-3.2v.3h.2v-.3Zm.1-4.9h0l.2.8h.4Q449.1,33.3,448.6,33.3Zm.4-8q.2,3.3.6,3.3h.2c-.2-2.2-.4-3.3-.7-3.3Zm1.1,13.2v2.8h0a3.4,3.4,0,0,0,.8-1.8h0C450.8,38.8,450.6,38.5,450.1,38.5Zm1.9,5.4v.2c1.8,0,2.8-.2,2.8-.4v-.2h-.9C452.6,43.6,452,43.7,452,43.9Zm.5,1.3v.2a.6.6,0,0,0,.6.3c.6,0,1.1-.2,1.2-.5h0c-.1-.2-.3-.3-.7-.3h-.3C452.9,44.8,452.6,44.9,452.5,45.2Z" transform="translate(-0.2 0)" style="fill:#b75326"/><path d="M475.7,17.9h.5a27.6,27.6,0,0,1,6.5,4.2c2.1,1.8,3.1,3.1,3.1,4h-.1c-.3-.5-.6-.8-1-.8h0a.2.2,0,0,0-.2.2,19.6,19.6,0,0,0,1.1,2.4h.1c.1,0,.2-.2.4-.7h0a5.8,5.8,0,0,1,.5,1.8l.5,1.3v.8l.2,2.2a29.4,29.4,0,0,0-.8,4c-.2.8-2.1,3.8-5.8,8.8a6.8,6.8,0,0,1-4.8,2.3,26.3,26.3,0,0,1-4.9.4h-1.2c-.7,0-2.5-.6-5.5-1.8-3.7-3.4-5.6-6-5.6-7.7s-1-2.2-1.3-3.1a31.6,31.6,0,0,1,1.7-5.3c0-1.9.4-3.2,1.3-4,1.9-4.2,4.4-6.8,7.3-8.1a20.7,20.7,0,0,1,6.3-1.4ZM458.1,35.8q.1.6.3.6h0v-.7h-.1Zm1.5,2.9v.5c0,1.3.4,2.1,1.1,2.3h.1c-.3-1.9-.7-2.9-1-2.9Zm.6-9.8a.5.5,0,0,0,.5-.4h0A.5.5,0,0,0,460.2,28.9Zm1.2-2.1h.1c.1,0,.2-.2.2-.5h-.1A.8.8,0,0,0,461.4,26.8Zm.2,7.7h.1l.2-.2h-.1Zm.3,8.3h0a.8.8,0,0,0,.5.5h.2c0-.3-.2-.5-.5-.7H462Zm.9-6v.4c.5,1,1.1,2.2,1.9,3.6s.8,1,2.3,1.7a8.2,8.2,0,0,0,4.2,2h1.1a21.4,21.4,0,0,0,4.1-1.1l2.2-1.9c2.3-2.5,3.4-4.5,3.3-6.2v-.6a11.7,11.7,0,0,1-.3-3.2,10.6,10.6,0,0,1,.2-2.7c0-.3-.8-1-2.4-2.2a8,8,0,0,0-3.6-3h-.7q-7.2.3-7.2,1.2a8.3,8.3,0,0,0-2.3,3.2c-1.3,1.3-2,2.2-2,2.7A52.1,52.1,0,0,0,462.8,36.8Zm.2,8V45a3.9,3.9,0,0,0,2.9.9h.6a9.2,9.2,0,0,0-3.1-1Zm.9-18.4v.4h.1c.6-.4.9-.8.9-1.1h-.3A2.7,2.7,0,0,0,463.9,26.4Zm.6-4.2v.2a26.3,26.3,0,0,0,3.8-2.6l.5-.2h.3c2.8-.3,4.2-.6,4.2-.8h-1a10.4,10.4,0,0,0-7.6,3.2Zm.7,2.8v.2h0Zm0-1.8c.4,0,.7-.2,1-.7v-.2C465.5,22.5,465.2,22.8,465.2,23.2Zm1.1,23.2h.9v-.2h-.2C466.6,46.2,466.3,46.3,466.3,46.4Zm1.3-.8h0c0,.3.6.4,1.7.4h.1A3.7,3.7,0,0,0,467.6,45.6Zm1.8-24.5v.2a22.5,22.5,0,0,0,4.8-.7l-.5-.2h-.1A9.1,9.1,0,0,0,469.4,21.1Zm.1,2.1h0l.2.2h.8l4.4-1h0l-1.2-.2C470.9,22.4,469.5,22.8,469.5,23.2Zm4.1,23.9h0q0,.3.9.3c.7,0,1.1-.1,1.1-.3h0l-.5-.5h-.5C474.1,46.6,473.8,46.7,473.6,47.1Zm1-28.4c.2.6.6.8,1.4.8h.7v-.2q0-.7-1.2-.9T474.6,18.7Zm.6,1.9h0v.2l-.6.6h0c0-.2.3-.4,1-.8Zm.6.1h-.1a3.6,3.6,0,0,0,1.8.9h.1A3.4,3.4,0,0,0,475.8,20.7Zm1.1,26.8h.1c.7-.3,1.1-.5,1.1-.7H478C477.4,47,477,47.2,476.9,47.5Zm.9-23.9a1.2,1.2,0,0,0,.9.6V24h0a.5.5,0,0,0-.5-.5C478,23.5,477.8,23.5,477.8,23.6Zm1-3.4h0a1.7,1.7,0,0,0,1.3.8c0-.4-.3-.8-1-1h-.3Zm1,2.6h0a3.5,3.5,0,0,0,1.8,1.5h.3A8.7,8.7,0,0,0,479.8,22.8Zm1.2,1.9h0c.2.6.8,1,1.8,1.4h.2l.2-.2h0a2.6,2.6,0,0,0-1.9-1.1Zm2.8,15.1h.1c.2,0,.5-.3.8-1h-.2C484.3,38.8,484,39.1,483.8,39.8Zm1-1V38h.1c.2-.1.3.2.2.9h-.5Zm.5-3.5c.1,1.3.2,2,.4,2h0a2.4,2.4,0,0,1,.6-1.5v-.2l-.7-.9h-.1C485.4,34.7,485.3,34.9,485.3,35.3Zm.8-4.2v.3l.2.2.2-.2v-.3h-.4Z" transform="translate(-0.2 0)" style="fill:#b75326"/><path d="M498.7,0a4.2,4.2,0,0,1,2.3.7A21.7,21.7,0,0,0,499.9,7l-.5,5.6c0,.3.8.5,2.4.5,4.9,0,7.3.2,7.3.6l.8.4a3.1,3.1,0,0,0-.6,1.2v1.4l-.8,2.8q0,.3.9,1.2h0a7.4,7.4,0,0,1-2.3.5c-.7-.1-1-.2-1-.3h1l.2-.2v-.2h-7.8c-.2,0-.4,1.2-.6,3.5h-.1l-.9-.9-.2.6v.4c.1,1.2.2,1.8.4,1.9s.3-.4.5-1.2v-.4h.2v.2l-.5,5.9c.4,6.5.7,9.8,1.1,9.8s.6,1.9,1.5,1.9a3.3,3.3,0,0,0,1.7.4h4.8c.2,0,.3,1.1.5,3.3s-.6,1.9-2.2,1.9h-4.8a9.9,9.9,0,0,1-6.5-2.1c-1.2-.5-1.7-1.7-1.7-3.8s-.3-4.9-.5-9.8l1-5.4.2-3.7v-.5c-.3-1.7-.8-2.5-1.5-2.5h-4a4.9,4.9,0,0,0-1.9.5c-.4-.1-.9-.6-1.5-1.7l1.2-5.5,7.5-.3a3.5,3.5,0,0,1,.9-2q.1-9.6.6-9.6V.9c0-.1-.1-.2-.3-.2h0C494.6.4,496,.2,498.7,0ZM486.3,13.7a.5.5,0,0,0,.5.5h.9a39.9,39.9,0,0,0,4.8-.3h0c0-.3-1-.4-3.1-.4h-2.6C486.5,13.5,486.3,13.6,486.3,13.7Zm.8,1.4v.3q0,.6,4.2.6,2.1,0,2.1-.3c0-.4-1.8-.7-5.4-.7h-.9Zm.5,2.2c0,.2.1.2.3.2h3.3a9.4,9.4,0,0,0-2.8-.3h-.6Zm0,.8h0c0,.3,1.5.4,4.6.4h.6l-.2-.2Zm5.7,13.5.2,1.7v2.8h.2c.2,0,.4-.9.4-2.9V31.8c.1.1.1.2-.1.2A.8.8,0,0,1,493.3,31.6Zm1.9,8v1.3h.1V39.7h-.3Zm.3,4.2v.3c.1,1,.6,1.5,1.4,1.5h.7c0-.2-.4-.3-1.1-.5l-.8-1.1Zm.6-22.5v.5h.1c.2,0,.3-.1.3-.4v-.6h-.1C496.1,20.9,496.1,21.1,496.1,21.3Zm.1,1.2v1h.3v-1Zm.1-20.8V2h.2V1.8h-.2Zm0,25.1v.5l.2.2h.1v-.7Zm.3-22.9a6.2,6.2,0,0,0-.1,1.6v.3h.1l.2-1.1V4.1Zm.2,2.8-.2,6.1h.3c.3,0,.4-.5.4-1.5V7c-.1-.2-.1-.3-.2-.3Zm.4,29.8v.9c0,.3.1.5.3.5h.1c.1,0,.2-.2.2-.4s-.2-1-.4-1Zm0,7h0v.4a1,1,0,0,0,.4.5h.4C498,43.9,497.8,43.6,497.2,43.5Zm.6-4.4-.3.8c0,.9.2,1.5.7,1.7v-.8C498.2,39.8,498,39.2,497.8,39.1Zm.2-16.9h0l.2.3h.1v-.2l-.2-.2ZM498.8,2h0l.2,1.5h.1a2.1,2.1,0,0,0,.7-1.3V2l-.2-.2H499Zm1.4,13.7h0c0,.2.8.4,2.3.4h1l1.4.3h.3c.3,0,.4-.1.4-.4h-.1l-4.6-.4h-.5Zm1,2.8h0q0,.3,2.1.6h.1a3.1,3.1,0,0,0-1.9-.6Zm3.6-4.6H503V14a7.4,7.4,0,0,0,2.3.4h1.4a.2.2,0,0,0,.2-.2c-.1-.5-.3-.7-.7-.7h-.7ZM504,44.7h.2q2.4-.4,2.4-.9h-.2Q504,44.4,504,44.7Zm.6-25.6a9.3,9.3,0,0,0,3,.5l.2-.2v-.6h-1.5C505.1,18.8,504.6,18.9,504.6,19.1Zm2.3-2h0l.2.3h.3a.8.8,0,0,0,.7-.4l-.2-.2h-.8Zm.2-2.8h0l.2.2c.4,0,.6-.1.7-.3h-.7Z" transform="translate(-0.2 0)" style="fill:#b75326"/><path d="M513.3,1.3q7.8.3,7.8,1.5l.5,9a48.2,48.2,0,0,1-1.3,6.3,10.3,10.3,0,0,0-.4,2.6v.4h.2a14.9,14.9,0,0,1,9.5-3.2,17.4,17.4,0,0,1,5.7,1.7,18.5,18.5,0,0,1,2,2.6,1.9,1.9,0,0,1,.6.7v.6a6.5,6.5,0,0,1,1.7,4.9c.2,0,.3,2.1.3,6.1h0a68.1,68.1,0,0,1-1,6.9l-.2,1.1h1.3c1.3.1,2,.3,2,.6s-.6.3-1.9.4h0c0,.2.4.3,1.4.6l.2.3h0l-1.2.3c.8.2,1.2.5,1.2.8,0,2-.6,3-1.6,3h-.6c-1.6,0-2.4-.3-2.4-.8a7.9,7.9,0,0,0-2.5-.3,7.5,7.5,0,0,0-1.8-.8v-.2a50.1,50.1,0,0,1,.8-7.9,39,39,0,0,1,1.1-6.4l-.2-2.2.3-.3a2,2,0,0,1-.9-1.8L532.6,26a10.8,10.8,0,0,0-2.6-.9,8.3,8.3,0,0,0-6.2.3c-2.7,1.8-4,3.1-4,4l-.4,4,.2,4.2q-.5,4.5-.9,4.5v.3h.5l1-.4c1,.1,1.5.5,1.5.9l-.4.4v.3l.8.4v.3c-.2,2.1-.5,3.2-1,3.2H521c-.7-.4-2.9-.7-6.7-.8s-4.1-.7-4.1-1.3v-1c0-.2.1-.4.4-.9v-.4a7,7,0,0,1-.8-1.2l3.1-.3q.3,0,.6-2.4a2.9,2.9,0,0,0,.7-2,1.3,1.3,0,0,0,.4-1h0a3.2,3.2,0,0,0-.7-1.9l.7-1.5c.2,0,.4-4.5.5-13.5l.8-9.1V7.5c0-.9-.3-1.4-.8-1.4H513l-1.3.4c-.2,0-.4-.5-.4-1.6V4.1c0-1.8.3-2.7.7-2.7Zm-2.1,42.1v.2h2.6c0-.3-.6-.5-1.9-.5A.8.8,0,0,0,511.2,43.4Zm.7,2h.1a15.1,15.1,0,0,1,3.1.8,41.3,41.3,0,0,1,5.3.5h.2l.2-.3h0c0-.4-1.9-.6-5.9-.6a4.3,4.3,0,0,0-2.4-.6C512.1,45.2,511.9,45.3,511.9,45.4Zm.5-42.3v.4h.2V3.2h-.2Zm1-.9v.3a4.1,4.1,0,0,0,2.1.5V2.8a4.9,4.9,0,0,0-2.2-.6Zm.5,1.3h0v.2h.8V3.6h-.9Zm.2,38q0,.4,2.1.6h.3v-.5a.6.6,0,0,0-.5-.2h-1.3C514.4,41.3,514.1,41.4,514.1,41.5Zm.2-36.9h0c0,.2.2.3.4.3h.9V4.6h-1.3Zm3,7.6a8.2,8.2,0,0,0-.2,2.2c.5,0,.8.4.8,1.1h0a2.9,2.9,0,0,0,.2-1.2v-.8H518l-.2.6h-.3v-.3c0-.4.1-.5.2-.5h.4A5.8,5.8,0,0,0,517.3,12.2Zm.4-1.6h0l.2.3h.3v-.2l-.3-.3h0Zm.1-1.9v.6l.3-.2V8.8l-.3-.3Zm.9,18.3v.4h.1c.4,0,.7-.4.8-1.1h.1v-.3h-.1A2.5,2.5,0,0,0,518.7,27ZM519,2.9a1,1,0,0,0,.6.5h0a.6.6,0,0,0,.6-.3V2.9l-.3-.3h-.6Zm.3,25.2h.6c.3,0,.4-.1.4-.2v-.2h-.3C519.6,27.8,519.3,27.9,519.3,28.1Zm.3,15.6V44l.3.3h.4l.2-.3h0l-.4-.4h-.5Zm.3-.9V43h.3v-.2Zm1.8-19.3h.2c.4-.2.7-.4.7-.6h-.2A1.4,1.4,0,0,0,521.7,23.5Zm2.5,1.5h.1l.3-.2v-.2h-.2Zm2.6-3.1h0l.2.2h.4l-.2-.2Zm.8,2h.2v-.2h-.1Zm.8-.8v.3a5.2,5.2,0,0,0,1.8.6l.2-.2c0-.3-.5-.5-1.6-.8Zm1.8-4.6h0l.7.4h0c0-.2-.2-.3-.7-.4Zm2.2,6.1h0a.5.5,0,0,0,.6.6h0Q532.8,24.6,532.4,24.6Zm.9,21.6v.2a.9.9,0,0,0,.8.4h.6v-.2c0-.2-.2-.3-.7-.4Zm.2-26.3h0a.7.7,0,0,0,.8.5v-.2A.9.9,0,0,0,533.5,19.9Zm.1,25.6h.3v-.2l-.2-.2Zm.2-.9h2.6a3.3,3.3,0,0,0-2-.4.8.8,0,0,0-.7.5Zm.7-20.9v.2a9.3,9.3,0,0,1,1.8,2.8c.2.3.4.4.5.4v-.4a4.7,4.7,0,0,0-1.7-2.9h-.6Zm.5,18.8v.3h.5l.2-.2v-.3l-.2-.2A.7.7,0,0,0,535,42.5Zm1-16.8v.2l-.5,1.3h.2l-.3-.4Zm1.5,14.1h.1c.3,0,.7-1.5,1.2-4.6,0-.5-.1-.7-.4-.8h-.2C537.9,34.4,537.6,36.2,537.5,39.8Zm.5-14.3h0l.3.3h.2v-.2l-.3-.4h-.1Zm.4,7.9.2.2h.1v-.2h-.3Z" transform="translate(-0.2 0)" style="fill:#b75326"/><path d="M558.5,15.6c1.8,0,3.9.8,6.4,2.2s3.1,2.7,3.1,3.3c1.6,3.5,2.5,5.6,2.5,6.2v.5a9.4,9.4,0,0,0-.9,2.9h-5.7l-1.7.2c-6-.5-10.1-.7-12.5-.7h-1.3a4.3,4.3,0,0,0-.8,1.5,4.8,4.8,0,0,1,.5,2.2c0,1.6.2,2.5.7,2.8v.3h0l-.4-.2v.2l.6.6a3.1,3.1,0,0,0,1.1,2c1.4,2.4,2.8,3.9,4.4,4.5a16.3,16.3,0,0,0,4.7.6,4.4,4.4,0,0,0,1.7-.7c.8-.3,2.4-1.6,4.7-4.1h0c0-.1-.3-.2-.8-.3v-.3a6.8,6.8,0,0,1,3.4-3.5l2.3,1.7a49.7,49.7,0,0,0,3.6,4.9v.3c-1.3,1.7-2.3,2.5-2.9,2.5H571c0-.9-.6-1.4-1.7-1.5a14.7,14.7,0,0,0-2.7,2,14.5,14.5,0,0,1-4.9,2.1,30.9,30.9,0,0,1-5.7.9l-3.5-1.3c-1.9,0-3.7-1.1-5.4-3.2a7.3,7.3,0,0,1-1.7-2.7c0-.3-.5-2-1.4-5.1a15.5,15.5,0,0,1-.4-3.4h0a21.9,21.9,0,0,1,4.9-14.4,4.7,4.7,0,0,1,2.9-2.3l3.5-.7ZM544.7,31.3h-.1v.2h.1a2,2,0,0,0-.2.9v.3a3.5,3.5,0,0,0,.7,2h.1C545.3,32.7,545.1,31.6,544.7,31.3Zm0-2.3v.4c.1.2.1.4.2.4s.3-.2.4-.6l-.3-.2Zm.8-3.3c-.4.3-.6,1.2-.8,2.5h.1c.2,0,.6-.7,1.1-2.2S545.7,25.7,545.5,25.7Zm.1,11h0V37h.2v-.2h-.3Zm.6,1.1h-.1c.2.6.5,1,.7,1h0A1.4,1.4,0,0,0,546.2,37.8Zm1.8-8.2h1.1l-.2-.3h-.2A.7.7,0,0,0,548,29.6Zm0-7.4h.2Zm0,3.9v.2l.2.2h.1a2.3,2.3,0,0,0,.7-.7v-.2h-.3C548.4,25.6,548.2,25.8,548,26.1Zm.7-1.6v.2c0,.5,3.7,1,11.2,1.5l.6.2h.8a13.6,13.6,0,0,0,3.3.9c0,.1.1.2.4.3a1.7,1.7,0,0,0,.4-1.1V25.3c0-.6-1.1-1.8-3.1-3.6a5.9,5.9,0,0,0-3.2-1.7l-2.1-.3c-3.4.7-5.7,1.5-6.7,2.5A16,16,0,0,1,548.7,24.5Zm0-1h0a.5.5,0,0,0,.3-.5h0A.5.5,0,0,0,548.7,23.5Zm.2,21.2v.2c0,.3.4.5,1.1.7l.2.3h0a5.3,5.3,0,0,0-1.1-1.1Zm.4-23.9V21h.1c.6-.2.9-.3.9-.5H550A1,1,0,0,0,549.3,20.8Zm.3,8.4v.4h.4v-.3h-.4Zm.8-11.3h0v.2h.1c.8-.2,1.2-.4,1.2-.7v-.3l-.2-.3h-.1C550.7,17.2,550.4,17.5,550.4,17.9Zm.8,10.7v.2a44.7,44.7,0,0,0,6.5.5h-1.3c0,.2.6.3,1.6.3s2.6-.1,2.6-.3S557.5,28.8,551.2,28.6Zm.6-2.1v.2a8.3,8.3,0,0,0,4.2.8h1.4v-.3Zm.1-6.1a9.5,9.5,0,0,1,2.5-1h-.7Q551.9,19.5,551.9,20.4Zm.9-3.4h.1a14.7,14.7,0,0,0,3.8-.7c.3-.1.5-.2.5-.3H557a11.7,11.7,0,0,0-4.1.9h-.1Zm.5,27.9h0c0,.2.5.4,1.3.6h.1a3.6,3.6,0,0,0-1.3-.5Zm2.2-26.6h0c0,.2.9.4,2.5.7h.1v-.2a1.7,1.7,0,0,0-1.6-.8h-.2C555.8,18,555.5,18.1,555.5,18.3Zm1.3,27.3v.2h.3v-.2Zm2.4,1.6h-1.6c-.4,0-.6,0-.6.2h0l.2.2h1.1a18.6,18.6,0,0,0,4.5-.6h0c-.1-.2-.3-.3-.7-.3h-.3A5.5,5.5,0,0,0,559.2,47.2ZM558,17.3v.2a6.7,6.7,0,0,0,2.5.4h.1v-.2c0-.1-.2-.2-.7-.3Zm1.2,1.4h0a28.6,28.6,0,0,0,3.8,2h.1l.6-.2h.4l-1-.4-1.2-.5a2,2,0,0,0-2-1.1h-.2C559.4,18.5,559.2,18.5,559.2,18.7Zm3.7,9.4v.2h.2v-.2Zm.1,1.7c0,.1.3.2,1.1.2h.6c0-.2-.4-.3-1.3-.3S563,29.7,563,29.8Zm0,14.1h.1c.3-.1.4-.4.6-.7h-.1C563.2,43.4,563,43.6,563,43.9Zm.4,2.7c.4,0,.8-.3,1.1-1h-.2C563.7,46,563.4,46.3,563.4,46.6Zm.7-24.9a.6.6,0,0,0,.6.5h.1v-.6l-.3-.3C564.2,21.3,564.1,21.4,564.1,21.7Zm.8,20.2h.2c.4,0,.7-.3.8-.8h0A1,1,0,0,0,564.9,41.9Zm.5-19.4c.4,1.3.7,2.1,1,2.2h.4c-.4-1.3-.7-2-1.1-2h-.3Zm.9,15.9h.4a.6.6,0,0,0,.5-.2l-.3-.3h0A.5.5,0,0,0,566.3,38.4Zm.3,5.8h.3q.6-.6.6-.9h-.1C566.9,43.5,566.6,43.8,566.6,44.2Zm1-18.8V26c.2,0,.3-.2.3-.4v-.2h-.4Zm.2,17,.2.2c.6-.2.9-.5.9-.8h-.1C568.2,41.7,567.9,41.9,567.8,42.4Zm1.4-.6h.2a.5.5,0,0,0,.4-.6h-.1C569.4,41.4,569.2,41.6,569.2,41.8Zm2.2-.6h-.1c.1.5.3.8.5.8h.1l.2-.2h0A.7.7,0,0,0,571.4,41.2Z" transform="translate(-0.2 0)" style="fill:#b75326"/><path d="M598.6,17.8c1.6,0,3,1.2,4.1,3.4.2,0,.5.3.9.8l.8,4.6c-.3.5-1.4.7-3.3.7h-.6c-1.5-.2-2.3-.7-2.3-1.5a4.4,4.4,0,0,0-1.4-2.4c-.1-.2-1-.3-2.6-.3a16.2,16.2,0,0,0-5.7,1.2,17.2,17.2,0,0,0-3.1,3.9c.2,7.4.4,11.9.3,13.2s.2.6.7.6h1.5c.7,0,1,.1,1,.3h0l.2.8v3.4l-.4.5-2.8.3h-.3l-1.3.4c-4.7-.2-7-.3-7-.6s-1.3-.3-1.3-1.1a14.2,14.2,0,0,1-.1-2.3c0-.7.8-1.3,2.4-1.5,0-.4.5-.5,1.6-.5h.3l-.4-16.9c0-1-.3-1.5-.8-1.5h-.4a9.3,9.3,0,0,0-2.5.6h-.1c0-.1.2-.2.5-.3h0c-.4,0-.6-1.2-.6-3.5-.1,0-.1-.4-.2-1.1a8.4,8.4,0,0,1,5.2-1.9h1.5a14.3,14.3,0,0,1,3.1.6v.2a1.9,1.9,0,0,0-.5,1.2v.4C588.3,17.6,592.8,17.2,598.6,17.8ZM576.6,45v.5h.4v-.4Zm.7-25.9a1.1,1.1,0,0,0,1,.4h.1V19l-.3-.3C577.5,18.8,577.3,18.9,577.3,19.1Zm.7,26.8h0c0,.2.6.3,1.7.3H582c0-.2-1.1-.3-3.3-.4Zm.2-24.4h.2c.4,0,.7-.1.7-.3h-.2C578.5,21.2,578.3,21.3,578.2,21.5Zm0,23.5h3.5v-.2h-3.4Zm1.6-27.2v.3l.4.4h.6l-.7-.6Zm2.7,9.3v.4a2.5,2.5,0,0,1,.3,1.3,11.7,11.7,0,0,0-.3,2.5l.2,2.5h.1c.2,0,.3-1.9.5-5.7.1,0,.1-.4.1-1.3s-.2-.6-.3-.6H583A.9.9,0,0,0,582.5,27.1Zm.5-3.2-.4,1.2a1,1,0,0,0,.4.7h.1q.3,0,.3-.9l-.2-1Zm.5,21.4v.2h1l.2-.3c0-.1-.1-.2-.3-.2S583.5,45.1,583.5,45.3Zm.4-26.1h0v.2l.3-.3V19h-.2ZM584,18v.3h.3l.2-.2H584Zm0,20.7v.5h.2l.3-.3v-.3l-.2-.2h-.1Zm.1,1.2v.2h.1v-.2Zm1.2-18v.4h.3v-.4h-.5Zm4.2-1.4h0c.3,0,.8-.6,1.4-1.8v-.3h0A1.6,1.6,0,0,0,589.5,20.5Zm2.3-1.4.3,1.3h.5V19.1l-.2-.2h-.2C591.9,18.9,591.8,19,591.8,19.1Zm1.5-.4h0v.2h.6c.3,0,.5-.1.5-.2h-1.2Zm2-.2v.2h.4l.2-.3h-.1C595.4,18.3,595.3,18.4,595.3,18.5Zm1.5.4h.3v-.2H597Zm.6,3.6h.3a4.2,4.2,0,0,0,1.2-1.5h-.3a1.3,1.3,0,0,0-1,1.3C597.5,22.1,597.4,22.2,597.4,22.5Zm1.7,1.6v.2h.2l.2-.3h-.1Zm.1-5.4h0v.2h.3v-.2h0v-.2h-.3Zm1.9,2v.2a1,1,0,0,0,.8.5h.2v-.2a1.4,1.4,0,0,0-.9-.5Z" transform="translate(-0.2 0)" style="fill:#b75326"/><path d="M652.6,0a7.6,7.6,0,0,1,2.6.7c.1,0,.2.6.2,1.9a1.6,1.6,0,0,1,.7,1c-.2,2-.4,6-.5,12.1-.1,0-.2.2-.2.6s-.5.4-.5.7v.9a8.8,8.8,0,0,1-.6,2.9v.9c0,.2.2.3.6.4v.4c-.6,5.2-.9,8.7-.9,10.3s-.1,2.8-.3,2.8h0c.2,0,.3.3.4.8v.7a45.5,45.5,0,0,1-.7,5.6v1.5c2,.4,3.1,1,3.1,1.7l-.3.4V47l.3.4h0c-.4.9-1.5,1.4-3.5,1.4h-.4l-.4-.6h-.6l-1.7.4h-2.3c-.2,0-.4-1-.6-3.1v-2a5.8,5.8,0,0,0-2.5,1.4,23.7,23.7,0,0,1-9,3,14,14,0,0,1-6.4-3.5,14.5,14.5,0,0,1-2-2.9,8.9,8.9,0,0,1-1.1-1.9v-.2h.2a13.1,13.1,0,0,1,1.6,2.1h.3v-.8a5.1,5.1,0,0,0-1.3-3h-.3c-.2,0-.4.4-.4,1.1h-.3v-.3a17.6,17.6,0,0,1,.2-3.1h.3v.6h.1a.8.8,0,0,0,.3-.7V33.8c-.1,0-.2.2-.2.6l-.3.4c-.1,0-.2-.2-.3-.5a19.9,19.9,0,0,1,3.1-9.9,19.7,19.7,0,0,1,2.8-4c1.3-1.2,3.4-1.7,6.2-1.7h.6c4.4,0,7.9,1.1,10.7,3.4l.4.2h.2q.6-2.7,1.2-13.8c.1-.3.2-.4.4-.4h0a7.5,7.5,0,0,0-2.7-1.3c-.4,0-.6-1.4-.7-4.2l1-.3h0c0-.2-.2-.3-.5-.3s-.3-.3-.3-.5.5-.6,1.4-.6V.5l-.2-.3h3ZM628.7,32.8c0,.1,0,.2.2.2s.5-.4.6-1.3v-.3h-.2C629.1,31.4,628.9,31.9,628.7,32.8Zm.6-5.5v.2h.2c.2-.1.5-.5.8-1.5s2.1-2.5,2.5-2.5l.2-.5h-.4a7.5,7.5,0,0,0-2,1.3A7.3,7.3,0,0,0,629.3,27.3Zm.3,15.8h0c0,.3.6.4,2,.6v-.2a6.9,6.9,0,0,0-1.8-.6Zm.1-7.2v.9c0,.6.8,2.3,2.3,5a8.4,8.4,0,0,0,3.7.9,18.5,18.5,0,0,0,8.3-2c1.1-1.7,2.1-2.5,2.9-2.5s1-2.1,1.5-4.7a5.2,5.2,0,0,0,.5-2.3v-.6c0-1.7-.2-2.6-.7-2.6a10.1,10.1,0,0,1-1.4-1.5l.2-.4c0-.2-.6-.4-1.8-.7l-.4-.3h1.1c0-.4-2.3-.7-6.7-.7l-1-.2c-3.2.3-4.9.7-4.9,1.3a13.3,13.3,0,0,0-2.9,6.6A12.9,12.9,0,0,0,629.7,35.9Zm1.4,8.3c0,.4,1.2.9,3.6,1.3h.4c0-.3-1.2-.8-3.5-1.3h-.4Zm.9-22v.2h.4c1.4-.4,2.2-.8,2.2-1.4l-.6-.2h-.4C633,20.9,632.5,21.3,632,22.2Zm2.9,24.4v.2h.9a13.7,13.7,0,0,0,2.9-.4h0l-1.8-.2C635.6,46.2,634.9,46.4,634.9,46.6ZM636,20.5v.3l.2.2h.3l.3-.3v-.2l-.2-.2h-.3Zm.1,3h0Zm1.4,19.9v.2h.8q4.1-.3,4.5-1.2v-.2h-.2C639.5,42.8,637.8,43.1,637.5,43.4Zm.6-20.3h.2Zm1,21.7h.5c1.3,0,2-.2,2-.4h-1.3Q639.1,44.5,639.1,44.8Zm.4-21.1h.2l1.3-.2h-.4C639.9,23.4,639.5,23.5,639.5,23.7Zm.4-2.7h2.8c-.2-.3-.8-.4-2-.5h-.6C639.9,20.6,639.9,20.7,639.9,21Zm2.7,2.5.2.3h.3l.2-.2a.6.6,0,0,0-.5-.2h-.2Zm1.1,19.1v.2h0a2.1,2.1,0,0,0,1.1-.7v-.2h-.3C644.2,41.9,644,42.2,643.7,42.6Zm.7-21h-.1v.2l1.9.6h.1c0-.4-.3-.7-1-.9Zm.9,1.9.3.2v-.2h-.4Zm.9.4c0,.1.6.4,1.8.7h.1v-.2a1.3,1.3,0,0,0-1.2-.5Zm1.3,2.4v.5l.3.3h.2c.1,0,.2-.2.2-.4a.6.6,0,0,0-.3-.6h-.2Zm.9,15.8v.3q.3,0,.3.6h.1l.3-.3v-.5a.8.8,0,0,1-.2-.6h-.2A.5.5,0,0,0,648.4,42.1Zm0,2.4h.2l.2-.2h-.1Zm1.4-40.1v.2h.4c.3,0,.4,0,.5-.2l-.2-.2H650Zm.1-1.5h.8l-.2-.2H650Zm1.2,19c0,.3,0,.6.2.6h.1v-.5Zm.4-17.4h.2q1.5,0,1.5-.3l-.3-.2h-.8A.7.7,0,0,0,651.5,4.5Zm.1,38v1.3l.2.2h.1v-.8a1,1,0,0,0-.2-.7Zm.2,2.2v.2h.4v-.2Zm1.3,2c0,.1.2.2.6.2h1.6c0-.2-.2-.3-.7-.3S653.1,46.5,653.1,46.7Zm.2-43.2h.2Zm1.3,17h.3v.3h-.3Z" transform="translate(-0.2 0)" style="fill:#b75326"/><path d="M673.4,13a18.5,18.5,0,0,1,4.2.9c2.4,2.2,3.8,4,4.2,5.2s1.6,2.8,2.2,5.7c.6.6,1,2.1,1,4.4v1.5l-.2,6.1c0,1.2.8,2.7,2.3,4.6s2.3,2,2.7,2h0c0,.5-.7,1.3-2.2,2.4s-1.7,1.6-2,1.6h-.1c-.6-.1-2.2-1.3-4.9-3.7l-7.4,3a22.1,22.1,0,0,1-5.4.7h-.3a11.6,11.6,0,0,1-5.7-2.6,16.3,16.3,0,0,1-1.8-3.1,5.3,5.3,0,0,1-1.1-3.4V36.7a5.9,5.9,0,0,1,.9-3.2,14.7,14.7,0,0,1,2.8-4.8,5.6,5.6,0,0,1,2-1.6,14,14,0,0,1,6.3-1.6h3.2a5.4,5.4,0,0,1,3.3.7h.4a.3.3,0,0,0,.3-.3,26,26,0,0,0-2.2-5.6c-.9-1.5-2.6-2.3-5.1-2.3l-2.5-.3c-2.2.4-3.3.9-3.3,1.4a8,8,0,0,0-1.5,4.1c-.1.2-.9.3-2.2.3h-.4c-.2,0-.4.4-.7,1.1s-1.7-.4-1.7-.7a41.3,41.3,0,0,0,.5-4.5c.6-1.9,2.2-3.6,4.7-5.2a8.4,8.4,0,0,1,2-1.1Zm-12.1,8.7v.9h0c.2,0,.3-.2.3-.4v-.5l-.2-.2Zm.6-4.6h.1c.4,0,.9-.4,1.7-1.2v-.2h-.1c-.4,0-1,.5-1.7,1.3Zm.8,24.8h.5l-.3-.3h0Zm.2,3.3h0c.2.4,1.2.9,3.1,1.4a6,6,0,0,0,2.4.5h0c0-.2-.8-.4-2.3-.7a10.4,10.4,0,0,1-2.8-1.3H663Zm.8-15.9v.3h.1a.5.5,0,0,0,.6-.4V29h0Zm0,5.6c.2,2.5.6,3.7,1,3.7l.6.8h-.6v.2a13.8,13.8,0,0,0,4.9,3l1.2.3c.8,0,3.7-1.2,8.6-3.6a.8.8,0,0,0,.4-.7v-.3c-.3-1.7-.6-3.7-.9-5.9h-.1c0-.4-.4-.8-1.4-1.1a25.8,25.8,0,0,0-6.2-1.3,13.1,13.1,0,0,0-6.5,3.1A3.2,3.2,0,0,0,663.7,34.9ZM667.5,15h0q0,.3.6.3a4.1,4.1,0,0,0,1.6-.4v-.2h-.3Zm2.1,29.3a.5.5,0,0,0,.5.3c.4,0,.6-.2.6-.3h0V44h-.8Zm.6-27.5.2.3h.9l-.3-.3h-.5Zm2.3-2.4.3.2h.4l-.2-.3h-.3Zm2.2,29h.3a5.3,5.3,0,0,0,2.3-.7H677C675.6,42.9,674.8,43.2,674.7,43.4Zm2.6-28.7h0c.3.4.5.5.8.5h.1v-.2a1.2,1.2,0,0,0-.8-.4Zm2.9,21.2v.3l.3.2h.1l.2-.2v-.3l-.2-.2h-.2Zm.2-2.1.2.2h.2v-.2l-.2-.2h0Zm1.7-3V31h0Zm.1,1.3v.2h.3v-.2Zm0-3.3V29q.3.9.6.9h.1a2.1,2.1,0,0,0-.4-1.2h-.3Zm.4,5h0c0,1.5.2,2.3.4,2.3l.2-.2h0a6.7,6.7,0,0,0-.4-2.2Zm.9,8.9a1,1,0,0,0,.5.6h0l.3-.3h0l-.3-.3h-.5Zm.3-16.2h0c0,.3.1.5.2.5v-.3l-.2-.3Zm1.1,17.3V44l.2.2h.3l.2-.2h0l-.3-.4H685Zm.5-2.2V42c.2.5.4.7.6.7h.2c-.2-.7-.4-1-.6-1Z" transform="translate(-0.2 0)" style="fill:#b75326"/><path d="M697.9,18c.5,2.7.5,4-.1,4s.2,2.4,2.2,7.1c1,2.4,1.7,4,2.2,5,1.1,2.9,1.9,4.3,2.4,4.3s.3.3.6.8h.7c.5,0,1.2-1.8,2.3-5.3,4.3-8,5.3-11.7,3.1-11.3a20.9,20.9,0,0,0,.2-4.2l.3-.2c5.3.1,8,.3,8,.6s.4,1,.4,3.2-.7,1.8-1.1,1.8-1.1,0-.5.2h-.4c-1.6,2.7-2.4,4.5-2.4,5.3a10.2,10.2,0,0,1-2,4.2c-1.3,3.8-2.3,6.3-2.9,7.6a8.2,8.2,0,0,0-.9,3.2l-2.6,4.4a37.5,37.5,0,0,1-5.3,8.3l-3,2a13.5,13.5,0,0,1-2.9.5c-3.1,0-4.6-.3-4.6-.9a3,3,0,0,1-.8-1.8c-.6-.5-1.3-2.7-2.3-6.4h0c0-.5.4-.7,1.3-.7a9.5,9.5,0,0,0,3.6-1.1c.6,0,1.3,1.9,2.3,5.7.3.8.5,1.3.7,1.3h.5a2.7,2.7,0,0,0,1-1.5c.2,0,1-1.1,2.4-3.2a25.6,25.6,0,0,1,2-3.7l.2-.7V45.3a7.1,7.1,0,0,0-1.4-2.8,44.1,44.1,0,0,1-1.9-4,107.2,107.2,0,0,0-6.6-14.4.7.7,0,0,0-.6-.2h-3.9V21.8l-.2-2.7,1.1-.4,6.1-.6h1.2Zm-9.2,4.1h-.1v.5l.3.2h.8c.8,0,1.3-.1,1.3-.3S690.2,22.2,688.7,22.1Zm2.6,28.7a4.3,4.3,0,0,1,.5,1.2l.4.5h.3v-.3a1.9,1.9,0,0,0-.8-1.5h-.3Zm1.2,2.9h0a1.2,1.2,0,0,0,.5,1l.2-.2h0a.9.9,0,0,0-.6-.8Zm1.4,2.3h0l.3.4h.5l.2-.2q0-.3-.6-.3Zm.3-33.2a3.2,3.2,0,0,0,.9,2h0v-.7c0-.7-.1-1.2-.5-1.4h-.4Zm.8,35c.2.4.4.5.9.5h.8l.2-.2h0c0-.1-.3-.2-.8-.3H695Zm2.2-.7,1.1.8h.4c.1,0,.2-.2.2-.5v-.3a.6.6,0,0,0-.5-.2h-.5A1,1,0,0,0,697.2,57.1Zm2.3-21v.2h.4l-.2-.2Zm0,18.4h0q.6,0,1.2-1.5h0A2.3,2.3,0,0,0,699.5,54.5Zm.4-21h0c.9,2.4,1.4,3.6,1.6,3.6h0q-1.2-3.6-1.5-3.6Zm.5,23.1h.2c1.1-.6,1.8-1.1,2-1.8l-.5-.2h-.2c-.5,0-.8.4-.9,1.1Zm1-18.9h0l.4.3c.1,0,.1,0,.1-.2s-.2-.4-.3-.4h-.1Zm2.3,7.5h.1a.5.5,0,0,0,.5-.5v-.4H704C703.8,44.5,703.7,44.8,703.7,45.2ZM705,50v.2a.9.9,0,0,0,.5-.9h-.1Zm1-2.9h.3c.4,0,.9-1,1.8-3.1h0C707.5,44,706.9,45.1,706,47.1Zm.7-4h.3c.6,0,1.4-2,2.5-5.9,0-.1.3-.3.7-.7a.8.8,0,0,1,.3-.7h0l-.2-.4c.6-1.2-.1.1-2.2,3.9a21.3,21.3,0,0,1-1.4,3.6Zm4.1-4.2h.1c.6,0,1.2-1.5,1.6-4.6h-.1q-.1,0-.6,1.5A11.4,11.4,0,0,0,710.8,38.9Zm2-19.3,1.5.7.8-.2h1.2V20q0-.2-1.2-.3h-1c-.3,0-.5.1-.5.2Zm2.7,5.8c-1.6,3-2.4,4.7-2.6,4.9v.4a2,2,0,0,0,.5.9l-.4,1.2h.1a33.8,33.8,0,0,0,2.4-6.4l.2-1Zm.1-1.8v.3h.3v-.3Zm.4-2v.3a.7.7,0,0,0,.7.4h.1v-.3l-.4-.4H716Zm1,.2h0l.2.3h.1c1.4-.4,2.1-.6,2.1-.8h0l-.2-.2H719C717.8,21.3,717.1,21.5,717,21.8Zm.8-2h0c0,.1.1.2.4.3h1v-.2c0-.1-.1-.2-.4-.2H718Z" transform="translate(-0.2 0)" style="fill:#b75326"/><path d="M727.1,39.4a4.9,4.9,0,0,1,2.6,1,2,2,0,0,1,.3,1.1v.8c0,1.7-1,2.9-2.9,3.7l-.8.4c-.9,0-1.7-.8-2.5-2.4v-.4c0-1.7.3-2.8.9-3.2A5.2,5.2,0,0,1,727.1,39.4Zm-2,2.7c.1,1.1.2,1.6.4,1.6a6.4,6.4,0,0,0,.6-2.1l.2-.4v-.3h-.1C725.4,41.2,725.1,41.6,725.1,42.1Zm.3,2.7c0,.3.1.4.4.5h.6a1.8,1.8,0,0,0,1.3-.6h0Zm1.3-2.3h0c0,.4.1.7.3.7h.1c.2,0,.4-.4.7-1.3v-.3h-.3C727,41.6,726.7,41.9,726.7,42.5Zm1.9.8h.3v-.6h0C728.8,42.8,728.7,43,728.6,43.3Z" transform="translate(-0.2 0)" style="fill:#231f20"/></g></g></svg>