<svg xmlns="http://www.w3.org/2000/svg" viewBox="0 0 247.5 64.9"><title>icn_rotator_Asset 69_adj</title><g id="Layer_2" data-name="Layer 2"><g id="Layer_1-2" data-name="Layer 1"><path d="M24,17.8c1.6,0,2.9,1.2,4,3.4.2,0,.5.3.9.8l.8,4.6c-.3.5-1.4.7-3.2.7h-.7c-1.5-.2-2.3-.7-2.3-1.5a4.4,4.4,0,0,0-1.4-2.4c-.1-.2-1-.3-2.6-.3a16.2,16.2,0,0,0-5.7,1.2,20.7,20.7,0,0,0-3.1,3.9c.3,7.4.4,11.9.3,13.2s.2.6.7.6h1.5c.7,0,1,.1,1,.3h0l.3.8-.2,3.4-.3.5-2.9.3h-.3l-1.2.4c-4.8-.2-7.1-.3-7.1-.6s-1.3-.3-1.3-1.1-.1-1.3-.1-2.3.8-1.3,2.4-1.5c0-.4.6-.5,1.7-.5h.2L5,24.7c0-1-.3-1.5-.8-1.5H3.8a9.3,9.3,0,0,0-2.5.6H1.2c0-.1.2-.2.5-.3h0c-.4,0-.6-1.2-.6-3.5,0,0-.1-.4-.2-1.1a8.4,8.4,0,0,1,5.2-1.9H7.6a16,16,0,0,1,3.2.6v.2a2.8,2.8,0,0,0-.5,1.2v.4C13.6,17.6,18.2,17.2,24,17.8ZM2,45l-.2.2v.3h.4v-.4Zm.6-25.9a1.2,1.2,0,0,0,1,.4h.1V19l-.3-.3C2.8,18.8,2.6,18.9,2.6,19.1Zm.7,26.8h0q0,.3,1.8.3H7.3c0-.2-1.1-.3-3.3-.4Zm.2-24.4h.2c.4,0,.7-.1.7-.3H4.2C3.8,21.2,3.6,21.3,3.5,21.5ZM3.5,45H7v-.2H3.6ZM5.2,17.8v.3l.4.4h.5l-.7-.6Zm2.6,9.3v.4a2.5,2.5,0,0,1,.3,1.3,8.8,8.8,0,0,0-.2,2.5v2.5h.1c.2,0,.3-1.9.5-5.7.1,0,.1-.4.1-1.3s-.1-.6-.3-.6H8.3A.9.9,0,0,0,7.8,27.1Zm.5-3.2L8,25.1a.8.8,0,0,0,.4.7h0q.3,0,.3-.9l-.2-1Zm.5,21.4v.2h1l.2-.3c0-.1-.1-.2-.3-.2S8.8,45.1,8.8,45.3Zm.4-26.1h0v.2l.3-.3V19H9.4ZM9.3,18v.3h.3l.2-.2H9.3Zm0,20.7v.5h.3l.2-.3v-.3l-.2-.2h0Zm.1,1.2v.2h.2v-.2Zm1.2-18v.2l.2.2H11l.2-.2v-.2h-.6Zm4.2-1.4h0c.4,0,.8-.6,1.4-1.8v-.3h0A1.6,1.6,0,0,0,14.8,20.5Zm2.3-1.4.3,1.3h.5V19.1l-.2-.2h-.1C17.3,18.9,17.1,19,17.1,19.1Zm1.5-.4h0v.2h.6c.3,0,.5-.1.5-.2H18.6Zm2-.2v.2H21l.2-.3h-.1C20.8,18.3,20.6,18.4,20.6,18.5Zm1.5.4h.3v-.2h-.2Zm.6,3.6H23q.5-.2,1.2-1.5H24c-.7.3-1.1.7-1.1,1.3S22.8,22.2,22.7,22.5Zm1.8,1.6v.2h.1l.3-.3h-.1Zm0-5.4h0v.2h.3v-.2h0v-.2h-.3Zm1.9,2v.2a1.1,1.1,0,0,0,.9.5h.1v-.2a1.4,1.4,0,0,0-.9-.5Z" transform="translate(-0.9 0)" style="fill:#b75326"/><path d="M45.8,15.6c1.7,0,3.8.8,6.3,2.2s3.1,2.7,3.1,3.3c1.7,3.5,2.5,5.6,2.5,6.2v.5a9.4,9.4,0,0,0-.9,2.9H51.1l-1.7.2c-6-.5-10.1-.7-12.4-.7H35.6a3.5,3.5,0,0,0-.7,1.5,4.8,4.8,0,0,1,.4,2.2c0,1.6.2,2.5.7,2.8v.3h0l-.4-.2v.2l.6.6a3.1,3.1,0,0,0,1.1,2c1.4,2.4,2.8,3.9,4.4,4.5a16.3,16.3,0,0,0,4.7.6,3.9,3.9,0,0,0,1.7-.7c.8-.3,2.4-1.6,4.7-4.1h0c0-.1-.3-.2-.8-.3v-.3a6.8,6.8,0,0,1,3.4-3.5l2.3,1.7a49.7,49.7,0,0,0,3.6,4.9v.3c-1.3,1.7-2.3,2.5-2.9,2.5h-.2c0-.9-.5-1.4-1.6-1.5s-1.2.7-2.8,2A13.8,13.8,0,0,1,49,47.9a33.5,33.5,0,0,1-5.7.9l-3.5-1.3c-2,0-3.8-1.1-5.5-3.2a7.3,7.3,0,0,1-1.7-2.7c0-.3-.5-2-1.4-5.1a15.5,15.5,0,0,1-.4-3.4h0a21.9,21.9,0,0,1,4.9-14.4,4.7,4.7,0,0,1,2.9-2.3,32.9,32.9,0,0,1,3.6-.7ZM31.9,31.3h-.1v.2h.1a2,2,0,0,0-.2.9v.3a4.4,4.4,0,0,0,.7,2h.1C32.5,32.7,32.3,31.6,31.9,31.3Zm0-2.3v.4c.1.2.1.4.3.4s.2-.2.3-.6l-.3-.2Zm.8-3.3a5.4,5.4,0,0,0-.8,2.5H32c.2,0,.6-.7,1.1-2.2S32.9,25.7,32.7,25.7Zm.1,11h0V37h.2v-.2h-.3Zm.6,1.1h-.1c.2.6.5,1,.7,1h.1A1.5,1.5,0,0,0,33.4,37.8Zm1.8-8.2h1.1l-.2-.3h-.2A.7.7,0,0,0,35.2,29.6Zm.1-7.4h.1Zm0,3.9v.4h.1l.7-.7v-.2h-.3A.6.6,0,0,0,35.3,26.1Zm.6-1.6v.2c0,.5,3.7,1,11.2,1.5l.6.2h.8a13.6,13.6,0,0,0,3.3.9c0,.1.1.2.4.3a1.7,1.7,0,0,0,.4-1.1V25.3c0-.6-1-1.8-3.1-3.6A5.9,5.9,0,0,0,46.3,20l-2.1-.3c-3.4.7-5.6,1.5-6.7,2.5A16,16,0,0,1,35.9,24.5Zm0-1h0a.5.5,0,0,0,.3-.5h0A.5.5,0,0,0,35.9,23.5Zm.2,21.2v.2c0,.3.4.5,1.1.7l.2.3h0c-.5-.6-.8-1-1.1-1.1Zm.5-23.9V21h0c.6-.2.9-.3.9-.5h-.3A.7.7,0,0,0,36.6,20.8Zm.3,8.4v.4h.3v-.3h-.3Zm.7-11.3h0l.2.2h0c.8-.2,1.2-.4,1.2-.7v-.3l-.2-.3h-.1C37.9,17.2,37.6,17.5,37.6,17.9Zm.8,10.7v.2a46.2,46.2,0,0,0,6.5.5H43.7c0,.2.5.3,1.6.3s2.5-.1,2.5-.3S44.7,28.8,38.4,28.6Zm.6-2.1v.2a8.5,8.5,0,0,0,4.3.8h1.3v-.3Zm.1-6.1a9.5,9.5,0,0,1,2.5-1h-.7Q39.1,19.5,39.1,20.4Zm1-3.4h.1a14.8,14.8,0,0,0,3.7-.7c.3-.1.5-.2.5-.3h-.2a10.8,10.8,0,0,0-4,.9h-.1Zm.5,27.9h0q0,.3,1.2.6h.1a3.6,3.6,0,0,0-1.3-.5Zm2.1-26.6h0c0,.2.9.4,2.6.7h.1v-.2a2,2,0,0,0-1.7-.8h-.2C43,18,42.7,18.1,42.7,18.3ZM44,45.6v.2h.3v-.2Zm2.4,1.6H44.8c-.4,0-.6,0-.6.2h0l.2.2h1.1A18.6,18.6,0,0,0,50,47h0c0-.2-.3-.3-.7-.3H49A5.8,5.8,0,0,0,46.4,47.2ZM45.3,17.3v.2a6.1,6.1,0,0,0,2.5.4h0v-.2c0-.1-.2-.2-.7-.3Zm1.2,1.4h0a25,25,0,0,0,3.7,2h.1l.7-.2h.4L50.3,20l-1.2-.5a2,2,0,0,0-2-1.1h-.2C46.6,18.5,46.5,18.5,46.5,18.7Zm3.6,9.4v.2h.2v-.2Zm.1,1.7c0,.1.4.2,1.1.2h.6c0-.2-.4-.3-1.3-.3S50.2,29.7,50.2,29.8Zm0,14.1h.1a1.1,1.1,0,0,0,.6-.7h-.1C50.4,43.4,50.2,43.6,50.2,43.9Zm.4,2.7c.5,0,.8-.3,1.1-1h-.2C50.9,46,50.6,46.3,50.6,46.6Zm.7-24.9a.6.6,0,0,0,.6.5H52v-.6l-.3-.3C51.4,21.3,51.3,21.4,51.3,21.7Zm.8,20.2h.2c.4,0,.7-.3.8-.8h0C52.7,41.1,52.4,41.3,52.1,41.9Zm.5-19.4a5.4,5.4,0,0,0,1,2.2H54c-.3-1.3-.7-2-1.1-2h-.3Zm.9,15.9h.4c.3,0,.5-.1.5-.2l-.2-.3h-.1A.5.5,0,0,0,53.5,38.4Zm.3,5.8h.3q.6-.6.6-.9h-.1C54.1,43.5,53.8,43.8,53.8,44.2Zm1-18.8V26c.2,0,.3-.2.3-.4v-.2h-.4Zm.2,17,.2.2c.6-.2.9-.5.9-.8H56C55.4,41.7,55.1,41.9,55,42.4Zm1.4-.6h.2a.5.5,0,0,0,.4-.6h-.1C56.6,41.4,56.4,41.6,56.4,41.8Zm2.2-.6h-.1c.2.5.3.8.6.8h0l.2-.2h0A.7.7,0,0,0,58.6,41.2Z" transform="translate(-0.9 0)" style="fill:#b75326"/><path d="M66.6,15.1h.1A5.4,5.4,0,0,1,70,16c.7.1,1.1.2,1.1.3v.2c-.7,0-1,.2-1,.5l1.2.3c.1.2.4.3.9.5h1.5l.7.2,4.7-1.1h.2A22.2,22.2,0,0,1,87.7,21c2.7,2.6,4.2,4.6,4.5,5.9a14.4,14.4,0,0,1,.6,2.9c-.5,4.9-1,7.4-1.4,7.4a26.1,26.1,0,0,1-2.8,4.1l-.6.5.2.2h0a4.9,4.9,0,0,1-2.3,1.7,2.4,2.4,0,0,0-.7,1.2,3.6,3.6,0,0,1-2.8.9,27.7,27.7,0,0,1-6.2,1.4,7.5,7.5,0,0,1-2.7-1L70.6,46l-.4.2c.3.4.4,1.5.4,3.3v.9l.5,2.8v4.9c0,1,.4,1.5,1.1,1.5l.4.4h0c-.3,0-.4.1-.4.4a3.2,3.2,0,0,1,.9,2.3l.4,1.2a8,8,0,0,1-2.3.3L66.9,64c-.7.6-1.1.9-1.3.9s-1.8-1.3-2.6-3.1h-.1v-.2l.4-.2h0a1.5,1.5,0,0,1-.5-1V60h.1a.2.2,0,0,1,.2.2h.5v-.7a1.5,1.5,0,0,1,1.3-.6q.3-.3.3-3V51.5c0-1-.2-2.9-.4-5.6V20.6H63.4l-.3-.3V16.9a1.3,1.3,0,0,1,1.5-1.5A4,4,0,0,1,66.6,15.1Zm-2.8,1.2a.5.5,0,0,0,.3.5h.3a.6.6,0,0,0,.6-.3v-.2a.6.6,0,0,0-.6-.3h-.1C64,16,63.8,16.1,63.8,16.3Zm.6,46.1h0c0,.1.3.2.8.3s1.1-.2,1.1-.3H64.5Zm0-44.5v.3a1,1,0,0,0,.5.8h.2v-.6c0-.4,0-.6-.2-.6h-.5Zm1.1,42.9h0c0,.2.2.3.4.3l.2-.2-.2-.2Zm.8-38.6a3.3,3.3,0,0,0,.3,1.5h0l-.4,1.1.4,1a72.5,72.5,0,0,0-.6,7.7v4.5a14.8,14.8,0,0,0,.3,3.1L66,43.1v.6l.2,5.3h.1a.7.7,0,0,0,.6-.7h0l-.3-.6c.2,0,.3-1.7.4-5.2V38.2q.3-9.8.3-14.4h0c0-2.4-.1-3.7-.5-3.7S66.3,20.8,66.3,22.2Zm0,28.8v.9c0,.7.1,1,.3,1a5.2,5.2,0,0,0,.5-2.3v-.3q0-.1-.3-.3A1.1,1.1,0,0,0,66.3,51Zm.6,3.5-.2.3v.8a5.2,5.2,0,0,0,.2,1.1h.3V55.5c0-.7-.1-1-.2-1Zm1.4-28.4-.2,4.3v.3h.1l.2-.2V25.9h-.1Zm0,34.7h0l.2.3h.2V61h0l-.2-.3h-.2Zm0-37.4v.4c.2,0,.3-.4.4-1.1h-.1C68.4,22.8,68.3,23,68.3,23.4ZM69.8,61h0l.2.2h.4V61h-.6Zm4.9-37.9c0,.2-.5.6-1.3,1h.5a7.4,7.4,0,0,0-3.2,2.3c-.1,0-.3,3.8-.5,11.5v.8c0,.2.9.9,2.7,2.3l2.6,1.2.3.4h.2a9,9,0,0,0,4.3-1.4A8.4,8.4,0,0,1,82.9,40c2.1-1.8,3.2-3.4,3.2-4.9v-.9l-.2-.9h0l.5-.6v-.2c-.4-.2-.5-.6-.5-1.5a5.2,5.2,0,0,0-1.3-3.5,5.6,5.6,0,0,0-2.1-2.7c-.3-.5-1.4-1-3.3-1.4h-.5l-2.9.2h-.2a.9.9,0,0,1-.8-.4ZM70.2,40a.8.8,0,0,0,.8.7h0c-.2-.3-.3-.5-.6-.6Zm.1-22.1v.2h.4v-.4h-.1Zm.4,25.6h-.1c0,.5,1.2.8,3.7,1l1.2-.7h0l-.2-.3H75l-1.8.3A10.8,10.8,0,0,0,70.7,43.5Zm.5-20.7V23h.3l.3-.3v-.2h-.3Zm1-4.3h.5l.2-.2v-.2h-.1C72.4,18.3,72.2,18.4,72.2,18.5Zm3.7.6c0,.2.9.4,2.6.6,0,.1.2.2.6.2H80l.3-.3H78.8l.3-.3v-.3H77.5A2.9,2.9,0,0,0,75.9,19.1Zm.8,3.7c0,.2.2.2.8.3h.4v-.2l-.2-.3h0l3.4-.4.3-.2-.2-.3h-.5C78,21.8,76.7,22.2,76.7,22.8ZM77.5,44h.2c2.3-.4,3.5-.9,3.5-1.2h-.3C78.6,43.3,77.5,43.7,77.5,44Zm2.4-26.3v.2l1.3.3h.3c0-.3-.5-.4-1.4-.5Zm1.2,5h0a1.6,1.6,0,0,0,1.3.5h.7c-.1-.2-.6-.4-1.5-.4Zm1.1-4.2h-.1a3.3,3.3,0,0,0,1.7,1H84C84,19.1,83.4,18.7,82.2,18.5ZM83,22h0l.2.2h.2l-.2-.2Zm.1,21.8h.1c.9-.2,1.3-.5,1.4-.7h0l-.2-.2h0C83.5,43.2,83.1,43.5,83.1,43.8ZM84,23.6h0c0,.5.4.9,1.3,1.2h.2c0-.6-.5-1.1-1.3-1.4Zm.7,16.2h.1a2.4,2.4,0,0,0,.9-.8h-.1C85,39.3,84.8,39.5,84.7,39.8Zm.1,2v.3h0c.6-.1.9-.4.9-.7h-.1A.8.8,0,0,0,84.8,41.8Zm.3-21.4h0c0,.2.2.3.5.5h.2v-.2a.6.6,0,0,0-.6-.3Zm.8,6v.3a6.7,6.7,0,0,0,.9,2.1h.1v-.3a2.5,2.5,0,0,0-.7-2.1Zm.9,3.3V30h.4v-.3Zm0,5.6h.1c.5,0,.7-.3.7-.6V34h-.1A1.8,1.8,0,0,0,86.8,35.3Zm.7-3.4v.9l.2.2h.1l.2-.2a1.5,1.5,0,0,0-.4-.9Zm.3-10.2h-.1a2.7,2.7,0,0,0,1,1.1h.1C88.8,22.5,88.5,22.1,87.8,21.7Zm1.3,1.6v.2h.3v-.2Zm.1,13.8h.1a8.3,8.3,0,0,0,1.2-4.4v-.8h-.1C90,31.9,89.6,33.6,89.2,37.1Zm.5-10.7.5.8h.2a.8.8,0,0,0-.5-.8Z" transform="translate(-0.9 0)" style="fill:#b75326"/><path d="M110,13a18,18,0,0,1,4.1.9c2.4,2.2,3.9,4,4.3,5.2s1.6,2.8,2.1,5.7c.7.6,1,2.1,1,4.4v1.5l-.2,6.1c0,1.2.7,2.7,2.3,4.6s2.2,2,2.7,2h0c0,.5-.8,1.3-2.2,2.4s-1.8,1.6-2.1,1.6h0c-.6-.1-2.3-1.3-5-3.7l-7.3,3a22.8,22.8,0,0,1-5.4.7h-.3a11.6,11.6,0,0,1-5.7-2.6,16.3,16.3,0,0,1-1.8-3.1,4.8,4.8,0,0,1-1.1-3.4V36.7a5.9,5.9,0,0,1,.9-3.2,14.7,14.7,0,0,1,2.8-4.8,5.6,5.6,0,0,1,2-1.6,13.4,13.4,0,0,1,6.3-1.6h3.1c1.7,0,2.8.2,3.4.7h.4c.1,0,.2-.1.2-.3a21.3,21.3,0,0,0-2.1-5.6c-.9-1.5-2.6-2.3-5.1-2.3l-2.5-.3c-2.2.4-3.3.9-3.3,1.4a9,9,0,0,0-1.6,4.1c0,.2-.8.3-2.2.3h-.4c-.1,0-.3.4-.6,1.1s-1.7-.4-1.7-.7a41.3,41.3,0,0,0,.5-4.5c.6-1.9,2.2-3.6,4.6-5.2a10.3,10.3,0,0,1,2.1-1.1ZM97.8,21.7v.9h.1c.1,0,.2-.2.2-.4v-.7Zm.7-4.6h.1c.3,0,.9-.4,1.6-1.2v-.2h-.1c-.3,0-.9.5-1.6,1.3Zm.8,24.8h.4l-.2-.3h-.1Zm.1,3.3h0c.2.4,1.3.9,3.1,1.4a6.2,6.2,0,0,0,2.5.5h0c0-.2-.8-.4-2.4-.7A14.3,14.3,0,0,1,99.8,45h-.2Zm.8-15.9v.3h.2a.5.5,0,0,0,.6-.4V29h-.1Zm0,5.6c.3,2.5.6,3.7,1,3.7l.7.8h-.6v.2a14.2,14.2,0,0,0,4.8,3l1.3.3c.8,0,3.7-1.2,8.5-3.6.3-.2.5-.4.5-.7v-.3c-.3-1.7-.7-3.7-.9-5.9h-.1c0-.4-.5-.8-1.4-1.1a25.8,25.8,0,0,0-6.2-1.3c-3.1.7-5.3,1.8-6.5,3.1A3.5,3.5,0,0,0,100.2,34.9ZM104.1,15h0q0,.3.6.3a3.4,3.4,0,0,0,1.5-.4v-.2H106Zm2,29.3a.6.6,0,0,0,.6.3c.4,0,.6-.2.6-.3h0V44h-.8Zm.7-27.5.2.3h.9l-.3-.3h-.5Zm2.3-2.4.2.2h.5l-.2-.3h-.3Zm2.2,29h.3a4.6,4.6,0,0,0,2.2-.7h-.2C112.2,42.9,111.4,43.2,111.3,43.4Zm2.5-28.7h0a1.1,1.1,0,0,0,.9.5h.1v-.2a1.2,1.2,0,0,0-.9-.4Zm3,21.2v.3l.2.2h.1l.2-.2v-.5h-.3Zm.1-2.1.2.2h.2v-.4h-.1Zm1.8-3V31h0Zm0,1.3v.2h.3v-.2Zm.1-3.3V29c.2.6.4.9.5.9h.1a1.6,1.6,0,0,0-.4-1.2h-.2Zm.3,5h0c.1,1.5.2,2.3.5,2.3V36h0a4.8,4.8,0,0,0-.4-2.2Zm1,8.9a.9.9,0,0,0,.4.6h.1l.3-.3h0l-.4-.3h-.4Zm.3-16.2h0c0,.3.1.5.2.5v-.3l-.2-.3Zm1.1,17.3V44l.2.2h.3V44h0l-.3-.4h-.2Zm.5-2.2V42c.2.5.3.7.5.7h.2c-.2-.7-.3-1-.6-1Z" transform="translate(-0.9 0)" style="fill:#b75326"/><path d="M129,14.8a2,2,0,0,0,1.3.4l.7-.3c5.6,0,8.4.1,8.4.5v1.4a5.2,5.2,0,0,1,.5,2.4v1c-.4,5.7-.7,11.1-.9,16.3a3.5,3.5,0,0,0-.3,1.3.6.6,0,0,0,.6.3h.2c2.2,0,3.4.2,3.4.7h-.1v.4a13.3,13.3,0,0,1,.7,4.7l.2,2.5h-9c-4.7,0-7-.3-7-1.1a3.5,3.5,0,0,0-.3-1.3,1.3,1.3,0,0,1,.6-.7h.1a.7.7,0,0,0,.6.2h.2l4.2-.3h0c-3.5-.2-5.3-.5-5.3-.8V41.3l-.2-1.5c0-.5,1.6-.7,4.7-.7q.6,0,.6-2.7l.7-16.3h-.1c-1.5,0-2.1-.1-1.6-.4-2.4,0-3.7-.3-3.7-.9s-.2-.2-.2-.5l.3-.7a.7.7,0,0,0-.4-.6h0c.4-.3.6-.9.7-2h.3Zm.2,26.5h0c.3.4,1.5.6,3.8.6h.4q.6,0,.6-.3h0l-4.4-.3Zm.6-25.2v.2h.4c1,0,1.6-.1,1.6-.3h-.4C130.4,15.9,129.8,15.9,129.8,16.1Zm.3.9h0c0,.1.2.2.8.2h2.9c.6,0,1-.1,1-.2h0c0-.3-1.2-.3-3.7-.1Zm7.3-14.3a4,4,0,0,1,3.4,2.2l.4,2.1a8.2,8.2,0,0,1-1.4,3,3.3,3.3,0,0,1-2.4.8c-2.6,0-4.2-.4-4.9-1.2a5.1,5.1,0,0,1-.8-3.4c-.2,0-.3-.1-.3-.2h0C132.7,4,133.9,3,135.3,3ZM134,4.6h0a5.3,5.3,0,0,0,2.1-.5l-.3-.2C134.6,4.1,134,4.3,134,4.6Zm.3,29.7c.1.3.2.5.3.5s.1-.2.2-.6v-1a7.7,7.7,0,0,0,.7-2.4V29.5l.4-.4a3.9,3.9,0,0,1-.3-1.4h0q.3,0,.6-6.9c-.1-.4-.2-.5-.3-.5h-.1c-.6,0-.9,2-1,6.1Zm1.4,9.3h-.9v.2h2.6v-.2h-1.7Zm-.5-37.3h.4c.5,0,.8-.1.9-.5h-.8c-.3,0-.6.1-.6.4Zm.2,35.7.2.2h.1c.3,0,.5-.2.5-.6h-.3C135.6,41.6,135.4,41.7,135.4,42Zm.6-4.1v.3h.2l.2-.2h0v-.2h-.1Zm0-1.1v.4h.2c.2-.1.3-.3.3-.8V36h-.2C136.2,36,136.1,36.3,136,36.8Zm.1-19.9v.2a1.8,1.8,0,0,1,1,.6h.2c.1,0,.1-.1.1-.2h.1c.2,0,.3.2.4.6h.1l.8-.7v-.3h-2.7Zm.3,3.5.3,1-.4,1c.2.5.3.7.4.7h.1v-.8c0-1.5.2-2.3.7-2.3l.2-.2v-.3h-.6C136.7,19.4,136.4,19.8,136.4,20.4Zm.6,10.5a14.1,14.1,0,0,0-.6,3.5h.1c.2,0,.5-.9.8-2.6v-.9Zm-.5-21.8v.2h1.1l.2-.2h-1.3Zm.8,11.9v.3a.5.5,0,0,0,.3.5h.2l.2-.2v-.3a1,1,0,0,0-.5-.4Zm.8-13.2V8h.2a.8.8,0,0,0,.7-.4V7.4h-.2A.9.9,0,0,0,138.1,7.8Zm0,8,.2.2h.1v-.2l-.2-.2Zm1.2-9.7v.2h.1l.2-.2V5.9h-.1Zm1.3,35.8a1,1,0,0,0,1.1.8h.2v-.4l.5-.3v-.4a.5.5,0,0,0-.3-.5h-.2c-.1,0-.3.2-.4.6Zm.4-2.7a2.4,2.4,0,0,0,1.2.4v-.2c0-.1-.2-.2-.7-.3H141Zm0,4.2h.1l.2-.2h-.1Zm1.5,2.5h.5l-.2-.2h-.1Z" transform="translate(-0.9 0)" style="fill:#b75326"/><path d="M168.8,17.8c1.6,0,3,1.2,4.1,3.4.2,0,.5.3.9.8l.8,4.6c-.3.5-1.4.7-3.3.7h-.6c-1.5-.2-2.3-.7-2.3-1.5a4.4,4.4,0,0,0-1.4-2.4q-.1-.3-2.7-.3a16.1,16.1,0,0,0-5.6,1.2,22,22,0,0,0-3.2,3.9c.3,7.4.4,11.9.4,13.2s.2.6.7.6h1.5c.7,0,1,.1,1,.3h0l.2.8v3.4l-.4.5-2.9.3h-.2l-1.3.4c-4.7-.2-7-.3-7-.6s-1.3-.3-1.3-1.1a14.2,14.2,0,0,1-.1-2.3c0-.7.8-1.3,2.4-1.5,0-.4.5-.5,1.6-.5h.2l-.4-16.9c0-1-.2-1.5-.7-1.5h-.4a9.3,9.3,0,0,0-2.5.6h-.1c0-.1.2-.2.5-.3h0c-.4,0-.6-1.2-.6-3.5-.1,0-.1-.4-.2-1.1a8.4,8.4,0,0,1,5.2-1.9h1.5a14.3,14.3,0,0,1,3.1.6v.2a2.2,2.2,0,0,0-.6,1.2v.4C158.5,17.6,163,17.2,168.8,17.8ZM146.8,45l-.2.2v.3h.4v-.4Zm.6-25.9a1.4,1.4,0,0,0,1.1.4h.1V19l-.4-.3C147.7,18.8,147.4,18.9,147.4,19.1Zm.8,26.8h0c0,.2.6.3,1.7.3h2.3c0-.2-1.1-.3-3.3-.4Zm.2-24.4h.2c.4,0,.7-.1.7-.3h-.2C148.7,21.2,148.4,21.3,148.4,21.5Zm0,23.5h3.5v-.2h-3.4ZM150,17.8v.3l.4.4h.6l-.8-.6Zm2.7,9.3v.4a2.5,2.5,0,0,1,.3,1.3,11.7,11.7,0,0,0-.3,2.5l.2,2.5h.1a35.4,35.4,0,0,0,.5-5.7,6,6,0,0,0,.1-1.3q-.2-.6-.3-.6h-.2A1,1,0,0,0,152.7,27.1Zm.4-3.2-.3,1.2a1,1,0,0,0,.4.7h.1q.3,0,.3-.9l-.2-1Zm.6,21.4v.2h.9l.3-.3c0-.1-.1-.2-.3-.2S153.7,45.1,153.7,45.3Zm.4-26.1h0v.2l.3-.3V19h-.2Zm.1-1.2v.3h.3l.2-.2h-.5Zm0,20.7v.5h.2l.3-.3v-.3l-.2-.2h-.1Zm.1,1.2v.2h.1v-.2Zm1.2-18v.4h.3v-.4h-.5Zm4.2-1.4h0c.3,0,.8-.6,1.4-1.8v-.3h0A1.6,1.6,0,0,0,159.7,20.5Zm2.3-1.4.3,1.3h.5V18.9h-.2C162.1,18.9,162,19,162,19.1Zm1.5-.4h0v.2h.6a.6.6,0,0,0,.5-.2h-1.2Zm2-.2v.2h.4l.2-.3h-.2C165.6,18.3,165.5,18.4,165.5,18.5Zm1.5.4h.3v-.2h-.2Zm.6,3.6h.3a5.8,5.8,0,0,0,1.2-1.5h-.3a1.3,1.3,0,0,0-1,1.3C167.7,22.1,167.6,22.2,167.6,22.5Zm1.7,1.6v.2h.2l.2-.3h-.1Zm.1-5.4h0v.2h.3v-.2h0v-.2h-.3Zm1.9,2v.2a1,1,0,0,0,.8.5h.2v-.2a1.4,1.4,0,0,0-.9-.5Z" transform="translate(-0.9 0)" style="fill:#b75326"/><path d="M190.6,15.6c1.7,0,3.8.8,6.3,2.2s3.2,2.7,3.2,3.3c1.6,3.5,2.4,5.6,2.4,6.2v.5a9.4,9.4,0,0,0-.9,2.9H196l-1.7.2c-6-.5-10.1-.7-12.5-.7h-1.3a4.3,4.3,0,0,0-.8,1.5,4.8,4.8,0,0,1,.5,2.2c0,1.6.2,2.5.7,2.8v.3h0l-.4-.2v.2l.6.6a3.1,3.1,0,0,0,1.1,2c1.3,2.4,2.8,3.9,4.4,4.5a15.8,15.8,0,0,0,4.7.6,5.1,5.1,0,0,0,1.7-.7c.8-.3,2.4-1.6,4.7-4.1h0c0-.1-.3-.2-.8-.3v-.3a6.5,6.5,0,0,1,3.4-3.5l2.2,1.7c1,1.4,2.2,3.1,3.7,4.9v.3c-1.3,1.7-2.3,2.5-2.9,2.5h-.2c0-.9-.6-1.4-1.7-1.5a14.7,14.7,0,0,0-2.7,2,14.5,14.5,0,0,1-4.9,2.1,30.9,30.9,0,0,1-5.7.9l-3.5-1.3c-1.9,0-3.7-1.1-5.4-3.2a7.3,7.3,0,0,1-1.7-2.7c0-.3-.5-2-1.4-5.1a15.5,15.5,0,0,1-.4-3.4h0a21.9,21.9,0,0,1,4.9-14.4,4.7,4.7,0,0,1,2.9-2.3l3.5-.7ZM176.8,31.3h-.1v.2h.1a2,2,0,0,0-.2.9v.3a4.1,4.1,0,0,0,.6,2h.2C177.4,32.7,177.2,31.6,176.8,31.3Zm0-2.3v.4c0,.2.1.4.2.4s.3-.2.3-.6L177,29Zm.8-3.3c-.4.3-.6,1.2-.8,2.5h0c.3,0,.6-.7,1.2-2.2S177.8,25.7,177.6,25.7Zm0,11h0l.2.2h.2v-.2h-.4Zm.7,1.1h-.1c.2.6.4,1,.7,1h0A1.4,1.4,0,0,0,178.3,37.8Zm1.7-8.2h1.2l-.2-.3h-.2A1,1,0,0,0,180,29.6Zm.1-7.4h.2Zm0,3.9v.2l.2.2h.1a2.3,2.3,0,0,0,.7-.7v-.2h-.3C180.5,25.6,180.3,25.8,180.1,26.1Zm.7-1.6v.2c0,.5,3.7,1,11.2,1.5l.6.2h.7a15.2,15.2,0,0,0,3.4.9c0,.1.1.2.4.3a2.5,2.5,0,0,0,.4-1.1V25.3c0-.6-1.1-1.8-3.1-3.6a5.9,5.9,0,0,0-3.2-1.7l-2.1-.3c-3.4.7-5.7,1.5-6.7,2.5Zm0-1h0a.5.5,0,0,0,.3-.5h0A.5.5,0,0,0,180.8,23.5Zm.2,21.2v.2c0,.3.4.5,1,.7l.3.3h0a5.3,5.3,0,0,0-1.1-1.1Zm.4-23.9V21h.1c.6-.2.9-.3.9-.5H182C181.8,20.4,181.6,20.6,181.4,20.8Zm.3,8.4v.4h.3v-.3h-.3Zm.7-11.3h0l.2.2h.1c.8-.2,1.2-.4,1.2-.7v-.3l-.2-.3h-.1C182.8,17.2,182.4,17.5,182.4,17.9Zm.8,10.7v.2a48.2,48.2,0,0,0,6.6.5h-1.3c0,.2.6.3,1.6.3s2.6-.1,2.6-.3S189.6,28.8,183.2,28.6Zm.7-2.1v.2a8.3,8.3,0,0,0,4.2.8h1.4v-.3Zm.1-6.1a9.5,9.5,0,0,1,2.5-1h-.7Q184,19.5,184,20.4Zm.9-3.4h.1a15.4,15.4,0,0,0,3.8-.7c.3-.1.5-.2.5-.3h-.2a11.7,11.7,0,0,0-4.1.9h-.1Zm.5,27.9h0c0,.2.5.4,1.3.6h.1a3.6,3.6,0,0,0-1.3-.5Zm2.2-26.6h0c0,.2.8.4,2.5.7h.1v-.2a1.7,1.7,0,0,0-1.6-.8h-.2C187.9,18,187.6,18.1,187.6,18.3Zm1.3,27.3v.2h.3v-.2Zm2.3,1.6h-1.5c-.4,0-.6,0-.6.2h0l.2.2h1.1a18.6,18.6,0,0,0,4.5-.6h0c-.1-.2-.3-.3-.7-.3h-.3A6,6,0,0,0,191.2,47.2Zm-1.1-29.9v.2a6.7,6.7,0,0,0,2.5.4h.1v-.2c0-.1-.2-.2-.7-.3Zm1.2,1.4h0a22.8,22.8,0,0,0,3.8,2h.1l.6-.2h.4l-1-.4-1.2-.5a2,2,0,0,0-2-1.1h-.2C191.5,18.5,191.3,18.5,191.3,18.7Zm3.7,9.4v.2h.2v-.2Zm.1,1.7c0,.1.3.2,1,.2h.7c0-.2-.5-.3-1.3-.3S195.1,29.7,195.1,29.8Zm0,14.1h.1a1.3,1.3,0,0,0,.5-.7h0C195.3,43.4,195.1,43.6,195.1,43.9Zm.4,2.7c.4,0,.8-.3,1-1h-.1C195.8,46,195.5,46.3,195.5,46.6Zm.6-24.9c.2.3.4.5.7.5h.1v-.6l-.3-.3C196.3,21.3,196.1,21.4,196.1,21.7Zm.9,20.2h.2c.4,0,.7-.3.8-.8h0A1,1,0,0,0,197,41.9Zm.5-19.4c.4,1.3.7,2.1,1,2.2h.4c-.4-1.3-.7-2-1.1-2h-.3Zm.9,15.9h.4a.6.6,0,0,0,.5-.2L199,38h-.1A.5.5,0,0,0,198.4,38.4Zm.3,5.8h.2c.5-.4.7-.7.7-.9h-.1C199,43.5,198.7,43.8,198.7,44.2Zm1-18.8V26c.2,0,.3-.2.3-.4v-.2h-.4Zm.2,17,.2.2c.6-.2.9-.5.9-.8h-.1C200.3,41.7,200,41.9,199.9,42.4Zm1.4-.6h.2a.5.5,0,0,0,.4-.6h-.2A.7.7,0,0,0,201.3,41.8Zm2.2-.6h-.1c.1.5.3.8.5.8h.1v-.2h0A.6.6,0,0,0,203.5,41.2Z" transform="translate(-0.9 0)" style="fill:#b75326"/><path d="M234.2,0a6.5,6.5,0,0,1,2.5.7c.1,0,.2.6.3,1.9a2.2,2.2,0,0,1,.7,1c-.2,2-.4,6-.6,12.1-.1,0-.1.2-.1.6s-.5.4-.5.7v.9a7.1,7.1,0,0,1-.7,2.9v.9c0,.2.2.3.6.4v.4a95.2,95.2,0,0,0-1,10.3c0,1.8-.1,2.8-.3,2.8h0c.2,0,.3.3.4.8v.7a45.5,45.5,0,0,1-.7,5.6v1.5c2.1.4,3.1,1,3.1,1.7l-.3.4V47l.3.4h0c-.3.9-1.5,1.4-3.5,1.4H234l-.3-.6H233l-1.6.4H229a10.5,10.5,0,0,1-.5-3.1v-2a5.3,5.3,0,0,0-2.5,1.4,24.7,24.7,0,0,1-9.1,3,14.5,14.5,0,0,1-6.4-3.5,14.5,14.5,0,0,1-2-2.9,8.9,8.9,0,0,1-1.1-1.9v-.2h.2a9,9,0,0,1,1.6,2.1h.3v-.8a5.5,5.5,0,0,0-1.2-3h-.4c-.2,0-.3.4-.4,1.1h-.2v-.3a17.6,17.6,0,0,1,.2-3.1h.3v.6h.1a.7.7,0,0,0,.4-.7V34l-.2-.2c-.1,0-.2.2-.2.6l-.3.4c-.1,0-.2-.2-.3-.5a19.6,19.6,0,0,1,3.1-9.9,24.7,24.7,0,0,1,2.8-4c1.3-1.2,3.4-1.7,6.3-1.7h.5c4.4,0,8,1.1,10.8,3.4l.4.2h.2c.3-1.8.7-6.4,1.1-13.8.1-.3.3-.4.4-.4h0a6.3,6.3,0,0,0-2.7-1.3c-.4,0-.6-1.4-.7-4.2l1-.3h0c0-.2-.2-.3-.5-.3s-.3-.3-.3-.5.5-.6,1.5-.6V.5l-.3-.3h3.1Zm-24,32.8a.2.2,0,0,0,.2.2c.3,0,.5-.4.6-1.3v-.3h-.2C210.6,31.4,210.4,31.9,210.2,32.8Zm.6-5.5v.2h.2c.2-.1.5-.5.8-1.5s2.1-2.5,2.5-2.5l.2-.5h-.4a9.9,9.9,0,0,0-2,1.3A9,9,0,0,0,210.8,27.3Zm.3,15.8h0c0,.3.7.4,2,.6v-.2l-1.8-.6Zm.1-7.2v.9c0,.6.8,2.3,2.3,5a8.5,8.5,0,0,0,3.8.9,18.1,18.1,0,0,0,8.2-2c1.2-1.7,2.1-2.5,3-2.5s.9-2.1,1.4-4.7a4.1,4.1,0,0,0,.5-2.3v-.6c0-1.7-.2-2.6-.7-2.6a10.1,10.1,0,0,1-1.4-1.5l.3-.4c0-.2-.6-.4-1.8-.7l-.4-.3h1c0-.4-2.2-.7-6.7-.7l-.9-.2c-3.3.3-4.9.7-4.9,1.3a12.6,12.6,0,0,0-3,6.6A12.9,12.9,0,0,0,211.2,35.9Zm1.4,8.3c0,.4,1.2.9,3.6,1.3h.4c0-.3-1.1-.8-3.5-1.3h-.3Zm.9-22v.2h.4c1.5-.4,2.2-.8,2.2-1.4s-.2-.2-.6-.2h-.3C214.6,20.9,214,21.3,213.5,22.2Zm2.9,24.4v.2h.9a13.7,13.7,0,0,0,2.9-.4h0l-1.8-.2C217.1,46.2,216.4,46.4,216.4,46.6Zm1.2-26.1v.3l.2.2h.3l.3-.3v-.2l-.3-.2h-.3Zm.1,3h0ZM219,43.4v.2h.8q4-.3,4.5-1.2v-.2h-.2C221,42.8,219.3,43.1,219,43.4Zm.7-20.3h.1Zm.9,21.7h.6c1.2,0,1.9-.2,1.9-.4h-1.3Q220.6,44.5,220.6,44.8Zm.4-21.1h.2l1.4-.2h-.4Q221,23.4,221,23.7Zm.4-2.7h2.8c-.1-.3-.8-.4-2-.5h-.6A.6.6,0,0,0,221.4,21Zm2.7,2.5.2.3h.3l.2-.2c0-.1-.2-.2-.5-.2h-.2Zm1.1,19.1v.2h.1a2.3,2.3,0,0,0,1-.7v-.2h-.2A2.2,2.2,0,0,0,225.2,42.6Zm.8-21h-.2v.2l2,.6h0c0-.4-.3-.7-1-.9Zm.8,1.9.3.2v-.2h-.4Zm1,.4c0,.1.6.4,1.8.7h0v-.2a1.3,1.3,0,0,0-1.1-.5Zm1.2,2.4v.5l.3.3h.2c.1,0,.2-.2.2-.4a.6.6,0,0,0-.3-.6h-.1Zm.9,15.8v.3q.3,0,.3.6h.1l.3-.3v-.5a.8.8,0,0,1-.2-.6h-.2A.5.5,0,0,0,229.9,42.1Zm0,2.4h.2l.2-.2h-.1Zm1.5-40.1v.2h.4c.2,0,.4,0,.4-.2V4.2h-.6Zm0-1.5h.8V2.7h-.5Zm1.2,19c0,.3.1.6.2.6h.1v-.5ZM233,4.5h.2q1.5,0,1.5-.3l-.2-.2h-.8A.8.8,0,0,0,233,4.5Zm.1,38v1.3l.2.2h.1v-.8c0-.4,0-.6-.2-.7Zm.2,2.2v.2h.5l-.2-.2Zm1.3,2c0,.1.2.2.6.2h1.7c0-.2-.3-.3-.7-.3S234.6,46.5,234.6,46.7Zm.3-43.2h.1Zm1.3,17h.2v.3h-.2Z" transform="translate(-0.9 0)" style="fill:#b75326"/><path d="M245.5,39.4a5.7,5.7,0,0,1,2.7,1,3.6,3.6,0,0,1,.2,1.1v.8c0,1.7-1,2.9-2.9,3.7l-.8.4c-.8,0-1.6-.8-2.5-2.4v-.4c0-1.7.3-2.8.9-3.2A6.2,6.2,0,0,1,245.5,39.4Zm-2,2.7c.1,1.1.3,1.6.4,1.6s.4-.8.6-2.1l.2-.4v-.3h0Q243.5,41.4,243.5,42.1Zm.3,2.7c0,.3.1.4.4.5h.7a1.6,1.6,0,0,0,1.2-.6h0Zm1.3-2.3h0c0,.4.1.7.4.7h0c.2,0,.5-.4.7-1.3v-.3h-.3C245.4,41.6,245.2,41.9,245.1,42.5Zm1.9.8h.3v-.6h-.1C247.2,42.8,247.1,43,247,43.3Z" transform="translate(-0.9 0)" style="fill:#231f20"/></g></g></svg>