<svg xmlns="http://www.w3.org/2000/svg" viewBox="0 0 386.9 64.9"><title>icn_rotator_Asset 64_adj</title><g id="Layer_2" data-name="Layer 2"><g id="Layer_1-2" data-name="Layer 1"><path d="M16.1,13a18.5,18.5,0,0,1,4.2.9c2.4,2.2,3.8,4,4.2,5.2s1.6,2.8,2.2,5.7c.6.6,1,2.1,1,4.4v1.5l-.2,6.1c0,1.2.8,2.7,2.3,4.6s2.3,2,2.7,2h0c0,.5-.7,1.3-2.2,2.4s-1.7,1.6-2,1.6h-.1c-.6-.1-2.2-1.3-4.9-3.7l-7.4,3a22.1,22.1,0,0,1-5.4.7h-.3a11.6,11.6,0,0,1-5.7-2.6,16.3,16.3,0,0,1-1.8-3.1,5.3,5.3,0,0,1-1.1-3.4V36.7a5.9,5.9,0,0,1,.9-3.2,14.7,14.7,0,0,1,2.8-4.8,5.6,5.6,0,0,1,2-1.6,14.1,14.1,0,0,1,6.4-1.6h3.1a5.4,5.4,0,0,1,3.3.7h.4a.3.3,0,0,0,.3-.3,26,26,0,0,0-2.2-5.6c-.9-1.5-2.6-2.3-5.1-2.3L11,17.6c-2.2.4-3.3.9-3.3,1.4a8,8,0,0,0-1.5,4.1c-.1.2-.8.3-2.2.3H3.6c-.2,0-.4.4-.7,1.1s-1.7-.4-1.7-.7a41.3,41.3,0,0,0,.5-4.5c.6-1.9,2.2-3.6,4.7-5.2a8.4,8.4,0,0,1,2-1.1ZM4,21.7v.9H4c.2,0,.3-.2.3-.4v-.5l-.2-.2Zm.6-4.6h.1c.4,0,.9-.4,1.7-1.2v-.2H6.3c-.4,0-1,.5-1.7,1.3Zm.8,24.8h.5l-.3-.3h0Zm.2,3.3h0c.2.4,1.2.9,3.1,1.4a6,6,0,0,0,2.4.5h0c0-.2-.8-.4-2.3-.7A12,12,0,0,1,6,45H5.7Zm.8-15.9v.3h.1a.5.5,0,0,0,.6-.4V29h0Zm0,5.6c.2,2.5.6,3.7,1,3.7l.6.8H7.4v.2a13.8,13.8,0,0,0,4.9,3l1.2.3c.8,0,3.7-1.2,8.6-3.6a.8.8,0,0,0,.4-.7v-.3c-.3-1.7-.6-3.7-.9-5.9h-.1c0-.4-.4-.8-1.4-1.1a25.8,25.8,0,0,0-6.2-1.3A13.1,13.1,0,0,0,7.4,33,3.2,3.2,0,0,0,6.4,34.9ZM10.2,15h0q0,.3.6.3a4.1,4.1,0,0,0,1.6-.4v-.2h-.3Zm2.1,29.3a.5.5,0,0,0,.5.3c.4,0,.6-.2.6-.3h0V44h-.8Zm.6-27.5.2.3h1l-.4-.3h-.5Zm2.3-2.4.3.2h.4l-.2-.3h-.3Zm2.2,29h.3a5.3,5.3,0,0,0,2.3-.7h-.3C18.3,42.9,17.5,43.2,17.4,43.4ZM20,14.7h0c.3.4.5.5.8.5h.1v-.2a1.2,1.2,0,0,0-.8-.4Zm2.9,21.2v.3l.3.2h.1l.2-.2v-.3l-.2-.2h-.2Zm.2-2.1.2.2h.2v-.2l-.2-.2h0Zm1.7-3V31h0Zm.1,1.3v.2h.3v-.2Zm0-3.3V29q.3.9.6.9h.1a2.1,2.1,0,0,0-.4-1.2h-.3Zm.4,5h0c0,1.5.2,2.3.4,2.3l.2-.2h0a6.7,6.7,0,0,0-.4-2.2Zm.9,8.9a1,1,0,0,0,.5.6h0L27,43h0l-.3-.3h-.5Zm.3-16.2h0c0,.3.1.5.2.5v-.3l-.2-.3Zm1.1,17.3V44l.2.2h.3l.2-.2h0l-.3-.4h-.3Zm.5-2.2V42c.2.5.4.7.6.7h.2c-.2-.7-.4-1-.6-1Z" transform="translate(-1.2 0)" style="fill:#b75326"/><path d="M37.2.3l2.6.6,4-.2c1,0,1.6.3,1.6,1A34.2,34.2,0,0,0,45,7.9V29.4l-.3,11.7a36.3,36.3,0,0,0,6.3.8h.1v.8c0,.3.2.6.7,1.1a37.3,37.3,0,0,0-1.6,4.3l-.5.5h-.2a1.8,1.8,0,0,0-1.6-.6L37.8,46.7c-3,0-4.6-.2-4.6-.5a14.1,14.1,0,0,0,1.1-4.8h1.4a4.3,4.3,0,0,1,1.7-.5l1,.3h.7q.6,0,.6-1.2c.2-1.5.4-6,.6-13.6-.2-2.4-.5-9.2-.7-20.4-.2-.2-.4-.4-.6-.4l-2.8.2c-.5-.1-.7-.2-.7-.5.2-3.2.5-4.8.8-4.8Zm-3,45.4.2.2h.3l.2-.2-.3-.2h-.1Zm.8-3h.4v-.3h-.2ZM36.3,3.4v.4l.2.3h1.7V3.8L37,3.3l-.3-.2h-.1Zm.2-1.6h0a.5.5,0,0,0,.6.6h.3a2.1,2.1,0,0,0,1.3-.7H36.5Zm.3,40.6h0a.5.5,0,0,0,.5.5h.1v-.5l-.3-.2h-.3Zm.7,2.1h0l.2.2h.9c.7,0,1-.1,1-.2h0l-1.7-.2h-.1Zm.7-1.3h.9V43h-.5C38.3,43,38.2,43,38.2,43.2ZM39.9,1.8l.5.2H41l.3-.2H39.9Zm.7,36.5v.2c.1.3.1.4.3.4l.3-.3v-.4c-.1-.6-.2-.8-.3-.8S40.6,37.7,40.6,38.3Zm.3-20v.3h.3v-.3h-.1c0-.2.2-.3.5-.4v-.2h-.3A.8.8,0,0,0,40.9,18.3Zm.2-6.6h.3v-.3h-.1Zm.2-3.4v.4h.1V8.1h-.1Zm.5,17.9h.1q.3,0,.3-2.4C42.1,23.9,41.9,24.6,41.8,26.2ZM42,4.1h.4l1.4-.8a1.3,1.3,0,0,0,.3-.7h-.3c-.4,0-.7.2-1.1.7S42,3.7,42,4.1Zm1.2,25H43V40.7h.6c.1,0,.2-.2.2-.6Q43.7,29.1,43.2,29.1Zm.7-12.4v2h.1c.1,0,.2-.3.2-.8v-1Zm-.1,2.5v.4h.3v-.3Zm0-3.3h0l.3.3h0V16h-.3Zm2,28.1h0c0,.2.7.4,2.1.4H50v-.2h-.6Zm1.6,1.7.2.2h1.3q.6,0,.6-.3H48.2C47.7,45.5,47.4,45.6,47.4,45.7Zm1.3-3.3h0c.2.3.5.4,1.1.4l.3-.2v-.2H48.7Zm.1,4.6v.2h.9V47h-.9Z" transform="translate(-1.2 0)" style="fill:#b75326"/><path d="M56.7.3l2.6.6,4-.2c1.1,0,1.6.3,1.6,1a34.2,34.2,0,0,0-.4,6.2V29.4l-.3,11.7a37.9,37.9,0,0,0,6.4.8h.1v.8c0,.3.2.6.6,1.1a37.3,37.3,0,0,0-1.6,4.3l-.5.5H69a1.8,1.8,0,0,0-1.5-.6L57.4,46.7c-3.1,0-4.7-.2-4.7-.5a14.1,14.1,0,0,0,1.1-4.8h1.4a4.4,4.4,0,0,1,1.8-.5,1.9,1.9,0,0,0,.9.3h.7q.6,0,.6-1.2c.2-1.5.4-6,.7-13.6-.3-2.4-.6-9.2-.8-20.4-.2-.2-.4-.4-.6-.4l-2.8.2c-.5-.1-.7-.2-.7-.5.2-3.2.5-4.8.8-4.8ZM53.8,45.7v.2h.3l.2-.2-.2-.2H54Zm.8-3h.3v-.3h-.2ZM55.8,3.4v.4l.2.3h1.7V3.8l-1.1-.5-.4-.2h-.1ZM56,1.8h0a.5.5,0,0,0,.6.6h.3a2.1,2.1,0,0,0,1.3-.7H56Zm.3,40.6h0a.5.5,0,0,0,.5.5h.1v-.5l-.3-.2h-.3Zm.7,2.1h0l.2.2h.9c.7,0,1-.1,1-.2h0l-1.7-.2h-.1Zm.7-1.3h.9V43h-.5C57.8,43,57.7,43,57.7,43.2ZM59.5,1.8l.4.2h.6l.3-.2H59.5Zm.7,36.5v.2c0,.3.1.4.2.4l.3-.3v-.4c-.1-.6-.2-.8-.3-.8S60.2,37.7,60.2,38.3Zm.2-20v.3h.3v-.3h-.1c0-.2.2-.3.5-.4v-.2h-.3A.8.8,0,0,0,60.4,18.3Zm.2-6.6h.3v-.3h-.1Zm.2-3.4v.4H61V8.1h-.1Zm.5,17.9h.1c.2,0,.4-.8.4-2.4C61.6,23.9,61.4,24.6,61.3,26.2Zm.2-22.1h.4l1.4-.8a1.3,1.3,0,0,0,.3-.7h-.3c-.4,0-.7.2-1,.7S61.5,3.7,61.5,4.1Zm1.2,25h-.1V40.7h.5c.1,0,.2-.2.2-.6Q63.2,29.1,62.7,29.1Zm.7-12.4v2h.1c.2,0,.2-.3.2-.8v-1Zm-.1,2.5v.4h.3v-.3Zm0-3.3h0l.3.3h0V16h-.3ZM65.4,44h0c0,.2.7.4,2.1.4h2v-.2h-.6Zm1.5,1.7.2.2h1.3q.6,0,.6-.3H67.7C67.2,45.5,66.9,45.6,66.9,45.7Zm1.4-3.3h0c.1.3.4.4,1,.4l.3-.2v-.2H68.3Zm0,4.6v.2h.9V47h-.9Z" transform="translate(-1.2 0)" style="fill:#b75326"/><path d="M105.4,9.4c1.1,0,4.1.6,9.2,1.8a21.9,21.9,0,0,0,4.2,1.7,3,3,0,0,0,.5-1.8h0v-.5c0-.5.4-.8,1.1-.8a4.1,4.1,0,0,1,2.1-.5c1.3,0,1.9.1,1.9.4l.6,5.8v1.8c0,1.5-.2,2.3-.7,2.6a1.2,1.2,0,0,1-.9.6c-2.2-.2-3.4-.5-3.4-1a3.3,3.3,0,0,0-2.2-2.1c-3.9-2-6.8-3-8.5-3h-1.7c-2.1,0-3.3.4-3.7,1.2a4.5,4.5,0,0,0-.7,2.7h0c0,2.3,1.2,4.1,3.5,5.6a15.2,15.2,0,0,0,6.1,1.4c0,.4,1,.9,2.8,1.4a2.7,2.7,0,0,0,2.4.9,19.3,19.3,0,0,1,5.5,4.7l.3.3v.2h-.4a6.4,6.4,0,0,1,.8,2.2c0,3.7-.5,6.1-1.7,7a8.3,8.3,0,0,1-3.4,3.3,8.9,8.9,0,0,1-6,2.6h-2.1c-3.3-.5-4.9-.9-4.9-1.2a13.2,13.2,0,0,0-3.2-2,11,11,0,0,1-4.3-2.9h-.2Q97.6,44,97.1,44c-2.6-.4-3.9-.8-3.9-1.3s-.4-2.4-.5-5.4l.6-3.8q0-2.1.6-2.1l3.9-.5c.3,0,.6,1.2.8,3.5l1.8,3.1a46.7,46.7,0,0,0,5.5,3.7,5,5,0,0,0,3.8,1.6h2.2a4.9,4.9,0,0,0,4.5-2.2,8.6,8.6,0,0,0,2.1-4.5h0c0-1.3-1.1-2.8-3.2-4.5a4.3,4.3,0,0,0-3.5-1.6,25.4,25.4,0,0,0-5.5-1.1l-5-2.6-2.4-2.1a10.2,10.2,0,0,1-1.6-3.3v-1l-.2-2.4a2.9,2.9,0,0,1,1-2c0-.5,1-1.7,3-3.4a10.5,10.5,0,0,0,3.3-2.4ZM93.6,38.3v1.6h.1a7.1,7.1,0,0,0,.4-3v-.5H94C93.8,36.3,93.7,36.9,93.6,38.3Zm1.7,3.2v.2l.3.3h0l.2-.2h0l-.2-.2Zm.4-8.2v.3h.4v-.3ZM98.2,17l.3,1.6h.3l-.2-1.7h-.2Zm.1,22.4v.2a2.4,2.4,0,0,0,1.8,1.2h.1v-.2q-1.4-1.2-1.8-1.2Zm.5-24-.2.4V16h.2l.2-.6h-.2Zm.9,7.4h0l.2.2h.1v-.3h-.3Zm.2-5.2v.2h.1l.3-.3h-.2Zm.7-2.8h.3v-.2h-.3Zm.3,8.3h0c.3.9.6,1.3.8,1.3h.3l.3-.3h0c-.5-.7-1-1-1.4-1Zm.1-7.4h.3q1.5-.9,1.5-1.5h-.2c-.5,0-1,.5-1.6,1.5Zm1.5,6.9h.8q0-.3-.6-.3Zm1.5.5h-.1v.4l.4.4h.3v-.3A.5.5,0,0,0,104,23.1Zm0,3.2h0c0,.2.3.5.9.7h0Q104.9,26.6,104,26.3Zm.5,18.5h0c0,.2.5.4,1.6.7l.2.2h.3c-.1-.6-.2-.8-.4-.8Zm.6-34.5v.2c0,.2.2.3.8.4s1.7-.2,1.7-.4v-.2c0-.3-.6-.5-1.8-.5S105.3,10,105.1,10.3Zm.9,14.2h-.1a6.6,6.6,0,0,0,2.4,1.3v-.2C108.4,25.6,107.6,25.1,106,24.5Zm.8-11.6.6.3a1.8,1.8,0,0,0,1.3-.6l-.3-.3h-.7Q106.8,12.3,106.8,12.9Zm.9,33.6h0l.2.3h.5a1,1,0,0,0-.7-.2Zm.4-.9v.3h.2l-.2-.2Zm.9,1.2a3.7,3.7,0,0,0,2.3.5h2.8c-.1-.3-1.5-.5-4.3-.5C109.3,46.6,109,46.7,109,46.8Zm.4-32.9c0,.3.8.5,2.2.6v-.2c0-.2-.6-.4-1.9-.6h0Zm0,12.2c0,.2,1.5.6,4.4,1.2h1a9.7,9.7,0,0,0-4.6-1.6C109.7,25.9,109.4,26,109.4,26.1Zm.7,1.8v.2l1.1.3h.6A4.9,4.9,0,0,0,110.1,27.9Zm4.6,18.7v.2h.4q1.2,0,1.2-.3h-1.6Zm.5-33.7h0c0,.2.3.3.8.3h.1Q116.1,12.9,115.2,12.9Zm.8,2.3h-.1a9.4,9.4,0,0,0,2.4,1.1h0C118.3,16.1,117.5,15.7,116,15.2Zm.2,13.6h0l3.3,1.9c.8.7,1.4,1.1,1.8,1.1h.1l.2-.2a9.4,9.4,0,0,0-4.8-2.9Zm1.4,12.8v.3h.1a3.6,3.6,0,0,0,1-1.1l-.2-.2A3,3,0,0,0,117.6,41.6Zm.6-9.1v.3c0,.4.4.9,1.1,1.5h.3v-.5c0-.5-.4-1-1.3-1.3Zm.7,11.4h0c0,.1,0,.1.2.1s1.2-.6,2-1.9h-.2Zm0-29.2a6.1,6.1,0,0,0,2,.9h.1c0-.3-.6-.5-1.8-.8h-.3Zm.2,22.6v.3h.2l.2-.2v-.2Zm1.4-18.2a2.6,2.6,0,0,0,1.8.4h1.2v-.3h-3Zm.7-9v.2c.4.7.8,1.1,1.2,1.1a1.2,1.2,0,0,0,.7-.7v-.2C123.1,10.3,122.5,10.1,121.2,10.1Zm1.2,27.7v.3l.2.2h.1c.3-.1.4-.4.4-1h-.2Zm.8-25.5h.4v-.3h-.3Z" transform="translate(-1.2 0)" style="fill:#b75326"/><path d="M130.5,15.1h.1a5.4,5.4,0,0,1,3.3.9c.7.1,1.1.2,1.1.3v.2c-.6,0-.9.2-.9.5l1.1.3c.1.2.4.3.9.5h1.6l.6.2,4.8-1.1h.2a22.2,22.2,0,0,1,8.4,4.2c2.6,2.6,4.1,4.6,4.5,5.9a14.4,14.4,0,0,1,.6,2.9c-.6,4.9-1.1,7.4-1.5,7.4a26.1,26.1,0,0,1-2.8,4.1l-.5.5V42h0a4.7,4.7,0,0,1-2.2,1.7,1.9,1.9,0,0,0-.7,1.2,3.9,3.9,0,0,1-2.9.9,27.2,27.2,0,0,1-6.1,1.4,6.9,6.9,0,0,1-2.7-1l-2.9-.3-.4.2a9.2,9.2,0,0,1,.4,3.3v.9l.4,2.8v4.9c0,1,.3,1.5,1.1,1.5l.4.4h0c-.3,0-.4.1-.4.4a3.6,3.6,0,0,1,.8,2.3l.4,1.2a7.3,7.3,0,0,1-2.2.3l-4.3-.3-1.3.9c-.9-.3-1.8-1.3-2.7-3.1h-.1v-.2l.4-.2h0a2.3,2.3,0,0,1-.5-1V60h.2c.1,0,.1.1.1.2h.6v-.7a1.4,1.4,0,0,1,1.3-.6,12.4,12.4,0,0,0,.2-3V51.5c0-1-.1-2.9-.3-5.6V20.6h-1.6l-.2-.3V16.9c0-1,.5-1.5,1.6-1.5A3.6,3.6,0,0,1,130.5,15.1Zm-2.8,1.2a.5.5,0,0,0,.4.5h.3a.6.6,0,0,0,.6-.3v-.2a.6.6,0,0,0-.6-.3h-.2A.5.5,0,0,0,127.7,16.3Zm.6,46.1h0q0,.1.9.3c.7-.1,1-.2,1-.3h-1.7Zm.1-44.5v.3a.8.8,0,0,0,.5.8h.1v-.6c0-.4-.1-.6-.2-.6h-.5Zm1,42.9h0a.5.5,0,0,0,.5.3V61l-.2-.2Zm.8-38.6a2.4,2.4,0,0,0,.4,1.5h0l-.5,1.1.4,1a72.5,72.5,0,0,0-.6,7.7v4.5a14.8,14.8,0,0,0,.3,3.1l-.3,1.9v.6l.2,5.3h.1c.5-.1.7-.4.7-.7h0l-.3-.6a40.2,40.2,0,0,0,.4-5.2V38.2q.3-9.8.3-14.4h0c0-2.4-.2-3.7-.6-3.7S130.2,20.8,130.2,22.2Zm0,28.8v.9c0,.7.1,1,.3,1a4.1,4.1,0,0,0,.5-2.3v-.3q0-.1-.3-.3A1.1,1.1,0,0,0,130.2,51Zm.6,3.5-.2.3v.8a2.6,2.6,0,0,0,.3,1.1h.3V55.5c0-.7-.1-1-.3-1Zm1.4-28.4v4.6h.2V25.9h0Zm0,34.7h0l.2.3h.2V61h0l-.2-.3h-.1Zm.1-37.4v.4c.1,0,.2-.4.3-1.1h-.1A1,1,0,0,0,132.3,23.4ZM133.8,61h0l.2.2h.4V61h-.6Zm4.8-37.9c0,.2-.4.6-1.2,1h.5c-1.8.8-2.9,1.6-3.2,2.3s-.3,3.8-.5,11.5v.8c0,.2.9.9,2.7,2.3l2.6,1.2c0,.2.1.3.3.4h.2a9,9,0,0,0,4.2-1.4,8.4,8.4,0,0,1,2.7-1.4c2.2-1.8,3.2-3.4,3.2-4.9V33.3h0l.4-.6v-.2c-.3-.2-.5-.6-.5-1.5a5.1,5.1,0,0,0-1.2-3.5,6.4,6.4,0,0,0-2.2-2.7c-.3-.5-1.4-1-3.2-1.4h-.6l-2.8.2h-.2a1,1,0,0,1-.9-.4ZM134.2,40a.6.6,0,0,0,.7.7h0a1,1,0,0,0-.5-.6Zm.1-22.1v.2h.4v-.4h-.1Zm.3,25.6h0c0,.5,1.2.8,3.6,1l1.2-.7h0l-.2-.3h-.3l-1.7.3A11.4,11.4,0,0,0,134.6,43.5Zm.6-20.7V23h.2l.3-.3v-.2h-.2Zm1-4.3h.4l.3-.2-.2-.2h-.1C136.3,18.3,136.2,18.4,136.2,18.5Zm3.7.6c0,.2.8.4,2.6.6,0,.1.1.2.5.2h.9l.3-.3h-1.4l.2-.3v-.3h-1.6C140.5,18.8,139.9,19,139.9,19.1Zm.7,3.7c0,.2.3.2.8.3h.4v-.2l-.2-.3h0L145,22l.4-.2-.3-.3h-.5C142,21.8,140.6,22.2,140.6,22.8Zm.8,21.2h.2c2.4-.4,3.5-.9,3.5-1.2h-.2C142.6,43.3,141.4,43.7,141.4,44Zm2.5-26.3v.2a2.7,2.7,0,0,0,1.2.3h.3c0-.3-.4-.4-1.4-.5Zm1.1,5h0a1.8,1.8,0,0,0,1.4.5h.6c-.1-.2-.6-.4-1.5-.4Zm1.1-4.2h0a2.7,2.7,0,0,0,1.7,1h.2C148,19.1,147.4,18.7,146.1,18.5Zm.8,3.5h0l.2.2h.2l-.2-.2Zm.1,21.8h.1c.9-.2,1.4-.5,1.5-.7h0l-.2-.2h-.1C147.5,43.2,147,43.5,147,43.8Zm.9-20.2h0c0,.5.5.9,1.3,1.2h.2c0-.6-.4-1.1-1.2-1.4Zm.7,16.2h.2a1.9,1.9,0,0,0,.8-.8h-.1C149,39.3,148.7,39.5,148.6,39.8Zm.1,2v.3h.1c.5-.1.8-.4.8-.7h-.1A.9.9,0,0,0,148.7,41.8Zm.3-21.4h0c0,.2.2.3.5.5h.2v-.2a.5.5,0,0,0-.5-.3Zm.8,6v.3a6.7,6.7,0,0,0,.9,2.1h.2v-.3a2.6,2.6,0,0,0-.8-2.1Zm1,3.3V30h.4v-.3Zm0,5.6h.1a.7.7,0,0,0,.7-.6v-.5l-.2-.2h0A1.8,1.8,0,0,0,150.8,35.3Zm.6-3.4v.9l.3.2h0l.2-.2a1.1,1.1,0,0,0-.4-.9Zm.3-10.2h0a2.2,2.2,0,0,0,1,1.1h0C152.7,22.5,152.4,22.1,151.7,21.7Zm1.4,1.6v.2h.3l-.2-.2Zm0,13.8h.1a7.6,7.6,0,0,0,1.3-4.4v-.8h-.2C153.9,31.9,153.6,33.6,153.1,37.1Zm.6-10.7.5.8h.2a1,1,0,0,0-.5-.8Z" transform="translate(-1.2 0)" style="fill:#b75326"/><path d="M158.1,14.8a1.6,1.6,0,0,0,1.2.4l.8-.3c5.6,0,8.4.1,8.4.5v1.4a6.9,6.9,0,0,1,.5,2.4v1c-.5,5.7-.8,11.1-1,16.3a3.9,3.9,0,0,0-.2,1.3c0,.2.2.3.5.3h.3c2.2,0,3.3.2,3.3.7h-.1v.4a11.3,11.3,0,0,1,.7,4.7l.2,2.5h-9c-4.6,0-7-.3-7-1.1a3.5,3.5,0,0,0-.3-1.3,1.3,1.3,0,0,1,.6-.7h.2a.7.7,0,0,0,.6.2h.1l4.3-.3h0c-3.6-.2-5.3-.5-5.3-.8V41.3l-.2-1.5c0-.5,1.6-.7,4.7-.7q.6,0,.6-2.7l.7-16.3h0c-1.6,0-2.1-.1-1.6-.4-2.5,0-3.7-.3-3.7-.9s-.3-.2-.3-.5l.4-.7c0-.2-.2-.4-.4-.6h0a4,4,0,0,0,.7-2h.3Zm.1,26.5h0c.3.4,1.6.6,3.8.6h.4c.4,0,.6-.1.7-.3h0l-4.5-.3Zm.7-25.2v.2h.3c1.1,0,1.6-.1,1.6-.3h-.3C159.4,15.9,158.9,15.9,158.9,16.1Zm.2.9h0c0,.1.3.2.8.2h2.9c.7,0,1-.1,1-.2h0c0-.3-1.2-.3-3.6-.1Zm7.3-14.3a3.9,3.9,0,0,1,3.4,2.2l.4,2.1a7.5,7.5,0,0,1-1.3,3,3.7,3.7,0,0,1-2.5.8q-3.9,0-4.8-1.2a4.6,4.6,0,0,1-.9-3.4.2.2,0,0,1-.2-.2h0C161.7,4,163,3,164.3,3Zm-3.3,1.9h0c1.4-.2,2-.4,2-.5l-.3-.2C163.6,4.1,163.1,4.3,163.1,4.6Zm.3,29.7c0,.3.1.5.2.5s.2-.2.2-.6v-1a9.2,9.2,0,0,0,.6-2.4V29.5c.3-.1.4-.3.4-.4a3.9,3.9,0,0,1-.3-1.4h0q.3,0,.6-6.9c-.1-.4-.2-.5-.3-.5h-.1c-.6,0-.9,2-1,6.1Zm1.3,9.3h-.9v.2h2.7v-.2h-1.8Zm-.5-37.3h.4c.5,0,.8-.1.9-.5h-.8a.5.5,0,0,0-.6.4Zm.2,35.7.2.2h.1c.4,0,.5-.2.5-.6h-.3C164.6,41.6,164.5,41.7,164.4,42Zm.6-4.1v.3h.2l.3-.2h0l-.2-.2h-.1Zm.1-1.1v.4h.1c.2-.1.3-.3.3-.8V36h-.1C165.2,36,165.1,36.3,165.1,36.8Zm0-19.9v.2c.3,0,.6.2,1.1.6h.1a.2.2,0,0,0,.2-.2h.1q.2,0,.3.6h.1l.9-.7v-.3h-2.8Zm.4,3.5.3,1-.4,1c.1.5.3.7.4.7h.1v-.8c0-1.5.3-2.3.7-2.3l.2-.2v-.3h-.5C165.7,19.4,165.5,19.8,165.5,20.4Zm.5,10.5a13.2,13.2,0,0,0-.5,3.5h0c.3,0,.5-.9.8-2.6v-.9Zm-.5-21.8v.2h1.1l.2-.2h-1.3Zm.8,11.9v.3a.5.5,0,0,0,.3.5h.2l.2-.2v-.3a.8.8,0,0,0-.4-.4Zm.8-13.2V8h.2a.7.7,0,0,0,.7-.4V7.4h-.1A.9.9,0,0,0,167.1,7.8Zm0,8,.2.2h.1v-.2l-.2-.2Zm1.2-9.7v.2h.1l.3-.2V5.9h-.1Zm1.4,35.8c0,.5.4.8,1.1.8h.2v-.2l-.2-.2q0-.1.6-.3v-.4a.5.5,0,0,0-.3-.5h-.3c-.1,0-.2.2-.4.6Zm.3-2.7a2.8,2.8,0,0,0,1.3.4v-.2c0-.1-.3-.2-.8-.3H170Zm0,4.2h.1l.2-.2h-.1Zm1.5,2.5h.5v-.2h-.1Z" transform="translate(-1.2 0)" style="fill:#b75326"/><path d="M191.1,4.8h.3a31.5,31.5,0,0,1,5.9,1.6,1.2,1.2,0,0,0,.8.4l.3-.2,2.9,3.8c.1-.1.2.1.2.6a12.3,12.3,0,0,1,.6,3.6c0,1.1-.7,1.6-2.2,1.6a8,8,0,0,1-2-.5h0c-.2,0-.3.2-.4.7h-.2q-.3,0-.9-2.4a23.7,23.7,0,0,0-1.2-3.6c-.6-.4-1.8-.5-3.6-.5h-.2l-4.7,1.1c-1.2.8-1.7,1.3-1.7,1.6q0,8.4.6,8.4t5.4.9c.5.2.7.4.7.6a2.9,2.9,0,0,1,1.2,2.2c0,1.7-1.3,2.6-3.7,2.6H189a3.5,3.5,0,0,1-2-.7h-.4c-.9.1-1.3.2-1.3.4v8.4a24.3,24.3,0,0,0,.3,3.8v3.5c0,.3,1.2.6,3.7,1s3.4.2,3.9.6l.2.2c-.2,0-.5,1.2-.8,3.5l-2.5-.3h-.8a56.1,56.1,0,0,0-7-.6h-5a1.2,1.2,0,0,1-.3-.9V44.8a9.8,9.8,0,0,0-.2-2.7c0-.3.3-.4,1-.4l2.4.5h1a.8.8,0,0,0,.8-.4h0a12.1,12.1,0,0,1-.6-4.5,12.9,12.9,0,0,1-.3-2.4v-.2a61,61,0,0,1,.8-7.8c0-.2-.4-.3-1.1-.3h-.3a16.5,16.5,0,0,1-4.4.8l-.9-.2c.1-3.8.4-5.7.8-5.7s.2-.3.4-.3h.3q4.8,0,4.8-.3c0-2.6,0-4.4-.1-5.5s-.1-2-.1-2.6v-.2l-.3-1.1h0a14.6,14.6,0,0,1,1.7-2.4l2.9-3A15.1,15.1,0,0,1,191.1,4.8Zm-15,17.4v.2l.2.2h.3a1.2,1.2,0,0,0,.5-.5l-.2-.3h-.2A.5.5,0,0,0,176.1,22.2Zm.6,3a2.2,2.2,0,0,0-.4,1v.2l.2.2h.6v-.2A1.6,1.6,0,0,0,176.7,25.2Zm1.9,20.1h0c0,.3.8.4,2.6.6h0a3.3,3.3,0,0,0-2.1-.6h-.5Zm.2-22.6h0a.8.8,0,0,0,.4.7c.3,0,.6-.2,1.1-.6s-.4-.3-1.1-.4h-.1Zm0,19.9v.2c0,.2.3.3,1,.4h.6v-.2l-1.4-.3Zm.5-18-.2.2h.7C179.8,24.7,179.6,24.6,179.3,24.6Zm1.3,1.1h.8l.2-.2h-.8ZM182,45.2h0c.4.5.7.7,1,.7h.5A2.5,2.5,0,0,0,182,45.2Zm.8-12.8.2.6v.8c.2,1.3.3,2,.5,2h.1c.2,0,.3-.8.4-2.2v-.3c0-.8-.3-1.2-.7-1.2h-.3C182.8,32.1,182.8,32.2,182.8,32.4Zm.3-5-.2,1.8v1h.2V27.4Zm.1,13a9.2,9.2,0,0,0-.2,1.9h.3l.3-.3v-.8c-.1-.6-.2-.9-.4-.9Zm0-1.6v.4h.2v-.4Zm.2-14.8v.5h.2V24Zm.1,7.2h-.1v.4h.2v-.5Zm.1-1v.5h0l.3-.2v-.3Zm.2-1.1v.2h.2v-.2Zm.6,16.7V46c0,.1.3.3,1.1.4h1l.2-.2c0-.2-.5-.4-1.4-.4Zm2-38.7h0a4.8,4.8,0,0,0,3.4-1V6h-.2A5.6,5.6,0,0,0,186.4,7.1Zm0,16.1v.2c.1.3.4.5.9.5h.4v-.2a1.2,1.2,0,0,0-1-.5Zm3.2.7v.2h.2v-.2Zm.1,1.6h.3c1.1-.2,1.7-.4,1.7-.7h-.4C190.2,24.9,189.7,25.1,189.7,25.5Zm.3,19h.6q1.2,0,1.2-.3h-1.2C190.2,44.3,190,44.4,190,44.5ZM190.3,9h.2V8.9h-.1Zm.8,37h0l.5.5h.1l.2-.2V46l-.3-.3h-.3Zm.1-38.7h0l.4.2h1.1c0-.2-.3-.3-1-.3Zm4.5-.2a2.6,2.6,0,0,0,2,1.2V7.8a2.8,2.8,0,0,0-1.8-1h0C195.8,6.8,195.7,6.9,195.7,7.1Zm.7,3.3h0a3,3,0,0,0,.5,1.5h.3v-.4c-.1-.8-.4-1.2-.8-1.2Zm1.3,3.9h.4V13.3h-.1A1.1,1.1,0,0,0,197.7,14.3Z" transform="translate(-1.2 0)" style="fill:#b75326"/><path d="M216.1,4.8h.4a31.2,31.2,0,0,1,5.8,1.6c.3.2.5.4.8.4l.3-.2,2.9,3.8q.3-.2.3.6a12.3,12.3,0,0,1,.6,3.6c0,1.1-.8,1.6-2.3,1.6a6.7,6.7,0,0,1-1.9-.5h-.1c-.1,0-.3.2-.4.7h-.2q-.3,0-.9-2.4c-.6-2.4-1-3.5-1.2-3.6s-1.8-.5-3.6-.5h-.1l-4.8,1.1c-1.1.8-1.7,1.3-1.7,1.6q0,8.4.6,8.4c1,.6,2.8.9,5.5.9.4.2.7.4.7.6a3.1,3.1,0,0,1,1.1,2.2c0,1.7-1.2,2.6-3.7,2.6h-.1a3.7,3.7,0,0,1-2.1-.7h-.4c-.8.1-1.2.2-1.2.4v8.4a24.3,24.3,0,0,0,.3,3.8l-.2,1.8v1.7c0,.3,1.3.6,3.7,1s3.5.2,3.9.6l.2.2c-.2,0-.5,1.2-.8,3.5l-2.5-.3h-.8a56.4,56.4,0,0,0-6.9-.6h-5.1a2,2,0,0,1-.2-.9V44.8a9.1,9.1,0,0,0-.3-2.7c0-.3.4-.4,1.1-.4l2.4.5h.9c.4,0,.7-.1.8-.4h0a12.1,12.1,0,0,1-.6-4.5,12.9,12.9,0,0,1-.3-2.4v-.2c0-1.2.3-3.8.8-7.8,0-.2-.4-.3-1.1-.3h-.2a17.8,17.8,0,0,1-4.5.8l-.9-.2c.2-3.8.4-5.7.8-5.7s.2-.3.4-.3h.4c3.1,0,4.7-.1,4.7-.3,0-2.6,0-4.4-.1-5.5V12.5l-.3-1.1h0a10.4,10.4,0,0,1,1.7-2.4l2.8-3A15.5,15.5,0,0,1,216.1,4.8Zm-15,17.4v.2l.2.2h.3a1.2,1.2,0,0,0,.5-.5l-.2-.3h-.2A.5.5,0,0,0,201.1,22.2Zm.6,3a4.9,4.9,0,0,0-.4,1v.2l.2.2h.6l.2-.2A1.7,1.7,0,0,0,201.7,25.2Zm1.9,20.1h0c0,.3.9.4,2.6.6h.1a3.8,3.8,0,0,0-2.2-.6h-.5Zm.2-22.6h0a1,1,0,0,0,.4.7,1.7,1.7,0,0,0,1.1-.6c0-.1-.3-.3-1.1-.4h-.1Zm0,19.9v.2c0,.2.4.3,1.1.4h.6v-.2l-1.5-.3Zm.5-18-.2.2h.8C204.9,24.7,204.7,24.6,204.3,24.6Zm1.4,1.1h.7l.2-.2h-.8ZM207,45.2h0a1.6,1.6,0,0,0,1.1.7h.4A2.1,2.1,0,0,0,207,45.2Zm.8-12.8.3.6v.8c.1,1.3.2,2,.5,2h0c.2,0,.4-.8.4-2.2v-.3c0-.8-.2-1.2-.7-1.2H208C207.9,32.1,207.8,32.2,207.8,32.4Zm.3-5v2.8h.1V27.4Zm.1,13a10.3,10.3,0,0,0-.1,1.9h.3l.2-.3v-.8q-.2-.9-.3-.9Zm0-1.6V39l.2.2h.1v-.4Zm.3-14.8v.5h.2v-.4l-.2-.2Zm0,7.2h0v.4h.3v-.5Zm.2-1v.5h.1l.2-.2v-.3Zm.1-1.1v.2h.2v-.2Zm.6,16.7V46c0,.1.4.3,1.1.4h1.1v-.2c0-.2-.5-.4-1.4-.4Zm2-38.7h0a4.6,4.6,0,0,0,3.4-1V6h-.1A5.7,5.7,0,0,0,211.4,7.1Zm0,16.1v.2a1.1,1.1,0,0,0,.9.5h.4v-.2a1.2,1.2,0,0,0-1-.5Zm3.2.7v.2h.2v-.2Zm.1,1.6h.3c1.2-.2,1.8-.4,1.8-.7h-.4C215.3,24.9,214.7,25.1,214.7,25.5Zm.3,19h.6c.8,0,1.3-.1,1.3-.3h-1.2A1,1,0,0,0,215,44.5ZM215.3,9h.2l.2-.2h-.2Zm.8,37h0l.5.5h.2V46l-.2-.3h-.3Zm.1-38.7h0a.6.6,0,0,0,.5.2h1q0-.3-.9-.3Zm4.5-.2a2.7,2.7,0,0,0,2,1.2V7.8a2.4,2.4,0,0,0-1.7-1h-.1C220.8,6.8,220.7,6.9,220.7,7.1Zm.7,3.3h0A2.4,2.4,0,0,0,222,12h.2v-.4c-.1-.8-.4-1.2-.8-1.2Zm1.3,3.9h.4V13.3h-.1A1.3,1.3,0,0,0,222.7,14.3Z" transform="translate(-1.2 0)" style="fill:#b75326"/><path d="M239.8,15.6c1.7,0,3.8.8,6.3,2.2s3.2,2.7,3.2,3.3c1.6,3.5,2.4,5.6,2.4,6.2v.5a8,8,0,0,0-1,2.9h-5.6l-1.7.2c-6-.5-10.2-.7-12.5-.7h-1.3a4.3,4.3,0,0,0-.8,1.5,4.8,4.8,0,0,1,.5,2.2c0,1.6.2,2.5.7,2.8v.3h0l-.4-.2v.2l.6.6a2.7,2.7,0,0,0,1.1,2c1.3,2.4,2.8,3.9,4.4,4.5a15.8,15.8,0,0,0,4.7.6,5.1,5.1,0,0,0,1.7-.7c.8-.3,2.4-1.6,4.7-4.1h0c0-.1-.3-.2-.8-.3l-.2-.3a7,7,0,0,1,3.5-3.5l2.2,1.7a52.5,52.5,0,0,0,3.7,4.9v.3c-1.4,1.7-2.3,2.5-2.9,2.5h-.2c0-.9-.6-1.4-1.7-1.5a14.7,14.7,0,0,0-2.7,2,15.5,15.5,0,0,1-4.9,2.1,32.2,32.2,0,0,1-5.7.9l-3.5-1.3c-2,0-3.8-1.1-5.4-3.2a9.1,9.1,0,0,1-1.8-2.7,42.3,42.3,0,0,0-1.3-5.1,15.5,15.5,0,0,1-.4-3.4h0a21.9,21.9,0,0,1,4.9-14.4,4.4,4.4,0,0,1,2.8-2.3l3.6-.7ZM225.9,31.3h0v.2h0a2.2,2.2,0,0,0-.1.9v.3a4.1,4.1,0,0,0,.6,2h.2C226.6,32.7,226.3,31.6,225.9,31.3Zm0-2.3v.4c0,.2.1.4.2.4s.3-.2.3-.6l-.2-.2Zm.8-3.3a5.4,5.4,0,0,0-.8,2.5h.1c.3,0,.6-.7,1.1-2.2S226.9,25.7,226.7,25.7Zm.1,11h0l.2.2h.1v-.2h-.3Zm.6,1.1h0c.2.6.4,1,.7,1h0A1.3,1.3,0,0,0,227.4,37.8Zm1.8-8.2h1.2l-.2-.3H230A.9.9,0,0,0,229.2,29.6Zm.1-7.4h.1Zm0,3.9v.4h.1a1.6,1.6,0,0,0,.7-.7v-.2H230C229.7,25.6,229.5,25.8,229.3,26.1Zm.6-1.6v.2c0,.5,3.8,1,11.2,1.5l.7.2h.7a15.2,15.2,0,0,0,3.4.9c0,.1.1.2.4.3a2.5,2.5,0,0,0,.4-1.1V25.3c0-.6-1.1-1.8-3.2-3.6a5.3,5.3,0,0,0-3.2-1.7l-2.1-.3c-3.4.7-5.6,1.5-6.7,2.5A10.6,10.6,0,0,1,229.9,24.5Zm.1-1h0a.5.5,0,0,0,.3-.5h0A.5.5,0,0,0,230,23.5Zm.2,21.2v.2c0,.3.3.5,1,.7l.3.3h0l-1.1-1.1Zm.4-23.9V21h.1c.6-.2.8-.3.8-.5h-.3A.8.8,0,0,0,230.6,20.8Zm.3,8.4v.4h.3v-.3h-.3Zm.7-11.3h0l.2.2h0c.9-.2,1.3-.4,1.3-.7v-.3l-.2-.3h-.2C232,17.2,231.6,17.5,231.6,17.9Zm.8,10.7v.2a48.2,48.2,0,0,0,6.6.5h-1.3c0,.2.5.3,1.6.3s2.6-.1,2.6-.3S238.7,28.8,232.4,28.6Zm.6-2.1v.2a8.8,8.8,0,0,0,4.3.8h1.3v-.3A50.5,50.5,0,0,0,233,26.5Zm.2-6.1a9.5,9.5,0,0,1,2.5-1H235Q233.2,19.5,233.2,20.4Zm.9-3.4h.1a14.1,14.1,0,0,0,3.7-.7q.6-.2.6-.3h-.3a11.3,11.3,0,0,0-4,.9h-.1Zm.5,27.9h0c0,.2.4.4,1.3.6h.1a3.9,3.9,0,0,0-1.4-.5Zm2.2-26.6h0c0,.2.8.4,2.5.7h.1v-.2a1.8,1.8,0,0,0-1.6-.8h-.3C237,18,236.8,18.1,236.8,18.3Zm1.3,27.3v.2h.2v-.2Zm2.3,1.6h-1.5c-.4,0-.6,0-.7.2h0l.3.2h1.1a19.9,19.9,0,0,0,4.5-.6h0c-.1-.2-.3-.3-.7-.3h-.3A6,6,0,0,0,240.4,47.2Zm-1.1-29.9v.2a6.1,6.1,0,0,0,2.5.4h.1v-.2c0-.1-.3-.2-.8-.3Zm1.2,1.4h0a22.8,22.8,0,0,0,3.8,2h.1l.6-.2h.4l-1-.4-1.3-.5a1.9,1.9,0,0,0-2-1.1H241C240.7,18.5,240.5,18.5,240.5,18.7Zm3.7,9.4v.2h.2v-.2Zm.1,1.7c0,.1.3.2,1,.2h.6q0-.3-1.2-.3C244.4,29.6,244.3,29.7,244.3,29.8Zm0,14.1h.1a1.3,1.3,0,0,0,.5-.7h0C244.5,43.4,244.3,43.6,244.3,43.9Zm.4,2.7c.4,0,.8-.3,1-1h-.2C245,46,244.7,46.3,244.7,46.6Zm.6-24.9a.6.6,0,0,0,.6.5h.1l.2-.2v-.4l-.3-.3C245.5,21.3,245.3,21.4,245.3,21.7Zm.9,20.2h.1c.5,0,.7-.3.9-.8h0C246.7,41.1,246.4,41.3,246.2,41.9Zm.5-19.4c.4,1.3.7,2.1,1,2.2h.3c-.3-1.3-.7-2-1-2h-.3Zm.9,15.9h.4c.3,0,.4-.1.4-.2l-.2-.3h-.1A.5.5,0,0,0,247.6,38.4Zm.3,5.8h.2q.6-.6.6-.9h0C248.1,43.5,247.9,43.8,247.9,44.2Zm.9-18.8v.4l.2.2c.2,0,.3-.2.3-.4v-.2h-.5Zm.3,17v.2c.7-.2,1-.5,1-.8h-.1C249.5,41.7,249.1,41.9,249.1,42.4Zm1.4-.6h.2a.5.5,0,0,0,.4-.6h-.2A.7.7,0,0,0,250.5,41.8Zm2.2-.6h-.1c.1.5.3.8.5.8h.1v-.2h0Q253.2,41.2,252.7,41.2Z" transform="translate(-1.2 0)" style="fill:#b75326"/><path d="M283.3,0a6.7,6.7,0,0,1,2.6.7c.1,0,.2.6.2,1.9s.8.8.8,1c-.3,2-.4,6-.6,12.1-.1,0-.2.2-.2.6s-.5.4-.5.7v.9a8.8,8.8,0,0,1-.6,2.9v.9c0,.2.2.3.6.4v.4c-.6,5.2-.9,8.7-.9,10.3s-.1,2.8-.3,2.8h0c.2,0,.3.3.4.8v.7a45.5,45.5,0,0,1-.7,5.6v1.5c2,.4,3.1,1,3.1,1.7l-.3.4V47l.3.4h0c-.4.9-1.5,1.4-3.5,1.4h-.4l-.4-.6h-.6l-1.7.4h-2.3c-.2,0-.3-1-.6-3.1v-2a5.8,5.8,0,0,0-2.5,1.4,23.7,23.7,0,0,1-9,3,14,14,0,0,1-6.4-3.5,14.5,14.5,0,0,1-2-2.9,8.9,8.9,0,0,1-1.1-1.9v-.2h.2a9,9,0,0,1,1.6,2.1h.3v-.8a5.1,5.1,0,0,0-1.3-3h-.3c-.2,0-.4.4-.4,1.1h-.2v-.3a17.6,17.6,0,0,1,.2-3.1h.3v.6h.1a.8.8,0,0,0,.3-.7V33.8c-.1,0-.2.2-.2.6l-.3.4c-.1,0-.2-.2-.3-.5a19.6,19.6,0,0,1,3.1-9.9,19.7,19.7,0,0,1,2.8-4c1.3-1.2,3.4-1.7,6.2-1.7h.6c4.4,0,7.9,1.1,10.7,3.4l.4.2h.3c.3-1.8.7-6.4,1.1-13.8.1-.3.2-.4.4-.4h0a7.5,7.5,0,0,0-2.7-1.3c-.4,0-.6-1.4-.7-4.2l1-.3h0c0-.2-.2-.3-.5-.3s-.3-.3-.3-.5.5-.6,1.4-.6V.5l-.2-.3h3ZM259.4,32.8c0,.1,0,.2.2.2s.5-.4.6-1.3v-.3H260C259.8,31.4,259.6,31.9,259.4,32.8Zm.6-5.5v.2h.2c.2-.1.5-.5.8-1.5s2.1-2.5,2.5-2.5l.2-.5h-.4a9.9,9.9,0,0,0-2,1.3A9,9,0,0,0,260,27.3Zm.3,15.8h0c0,.3.7.4,2,.6v-.2a6.9,6.9,0,0,0-1.8-.6Zm.1-7.2v.9c0,.6.8,2.3,2.3,5a8.4,8.4,0,0,0,3.7.9,18.5,18.5,0,0,0,8.3-2c1.1-1.7,2.1-2.5,2.9-2.5s1-2.1,1.5-4.7a5.2,5.2,0,0,0,.5-2.3v-.6c0-1.7-.2-2.6-.7-2.6a10.1,10.1,0,0,1-1.4-1.5l.2-.4c0-.2-.6-.4-1.7-.7l-.4-.3h1c0-.4-2.3-.7-6.7-.7l-1-.2c-3.2.3-4.9.7-4.9,1.3a13.3,13.3,0,0,0-2.9,6.6A12.9,12.9,0,0,0,260.4,35.9Zm1.4,8.3c0,.4,1.2.9,3.6,1.3h.4c0-.3-1.2-.8-3.5-1.3h-.4Zm.9-22v.2h.4c1.5-.4,2.2-.8,2.2-1.4s-.3-.2-.6-.2h-.3C263.8,20.9,263.2,21.3,262.7,22.2Zm2.9,24.4v.2h.9a13.7,13.7,0,0,0,2.9-.4h0l-1.8-.2C266.3,46.2,265.6,46.4,265.6,46.6Zm1.2-26.1V21h.3l.4-.3v-.2l-.3-.2H267Zm0,3h0Zm1.4,19.9v.2h.8q4-.3,4.5-1.2v-.2h-.2C270.2,42.8,268.5,43.1,268.2,43.4Zm.6-20.3h.2Zm1,21.7h.6c1.2,0,1.9-.2,1.9-.4H271Q269.8,44.5,269.8,44.8Zm.4-21.1h.2l1.3-.2h-.4C270.6,23.4,270.2,23.5,270.2,23.7Zm.4-2.7h2.8c-.1-.3-.8-.4-2-.5h-.6C270.6,20.6,270.6,20.7,270.6,21Zm2.7,2.5.2.3h.3l.2-.2a.6.6,0,0,0-.5-.2h-.2Zm1.1,19.1v.2h0a2.1,2.1,0,0,0,1.1-.7v-.2h-.3C274.9,41.9,274.7,42.2,274.4,42.6Zm.8-21H275v.2l1.9.6h.1c0-.4-.3-.7-1-.9Zm.8,1.9.3.2v-.2H276Zm.9.4c0,.1.6.4,1.9.7h0v-.2a1.3,1.3,0,0,0-1.2-.5Zm1.3,2.4v.5l.3.3h.2c.1,0,.2-.2.2-.4a.6.6,0,0,0-.3-.6h-.2Zm.9,15.8v.3q.3,0,.3.6h.1l.3-.3v-.5a.8.8,0,0,1-.2-.6h-.2A.5.5,0,0,0,279.1,42.1Zm0,2.4h.2l.2-.2h-.1Zm1.4-40.1v.2h.4c.3,0,.5,0,.5-.2l-.2-.2h-.5Zm.1-1.5h.8l-.2-.2h-.4Zm1.2,19c0,.3.1.6.2.6h.1v-.5Zm.4-17.4h.2q1.5,0,1.5-.3l-.3-.2h-.8A.7.7,0,0,0,282.2,4.5Zm.1,38v1.3l.2.2h.1v-.8c0-.4,0-.6-.2-.7Zm.2,2.2v.2h.4v-.2Zm1.3,2c0,.1.2.2.6.2H286c0-.2-.2-.3-.7-.3S283.8,46.5,283.8,46.7ZM284,3.5h.2Zm1.3,17h.3v.3h-.3Z" transform="translate(-1.2 0)" style="fill:#b75326"/><path d="M307.8,24.8c.3,0,.5,1.6.7,4.8h.1c0,.5-2.1.8-6.3,1.1a58.2,58.2,0,0,1-9.1,1.5V32c0-.3,1.7-.7,5.2-1.1,1.5-.4,2.3-.6,2.3-.8h-.6c-4.9.3-7.3,1-7.3,2l-.5.3c-1.4,0-2.1-1.5-2.1-4.4,0-.8,1.6-1.3,4.8-1.7l.6-.2,1.3.3h.5l10.1-1.5Zm-16.6,3.1v.8h.2c.2,0,.3-.2.3-.7v-.3h-.3Zm0,1.7h.3v-.2h-.2Zm1.9-1.7h.3v-.2h-.2Zm3.8-.2v.2h.1a3.4,3.4,0,0,0,2-.5h-.1A6.3,6.3,0,0,0,296.9,27.7Zm3-.6v.2h.1c.4,0,.6-.1.7-.3h-.3C300.1,26.9,299.9,27,299.9,27.1Zm2,2.8h.1c3.7-.2,5.5-.4,5.5-.6h0l-.4-.4h0a20.3,20.3,0,0,0-5.2,1Zm.6-2v.2h.4l-.2-.2Zm.7-1.3h.8q.6,0,.6-.3h-.1C303.6,26.3,303.2,26.4,303.2,26.6Zm.7,1.2h1.3c1.3,0,2.1-.2,2.2-.5v-.2h-.3C304.9,27.4,303.9,27.6,303.9,27.8Zm2-1.9h0Z" transform="translate(-1.2 0)" style="fill:#b75326"/><path d="M315.8,16l4.2,1.4a6.4,6.4,0,0,0,.8,2V20c-.4,2.6-.5,8-.3,16.5a2.2,2.2,0,0,0,1.4,2.3l.5,1.1c0,.2,1.3.5,4.1.6h.2c.9,0,1.9-.9,3.2-2.8a10.7,10.7,0,0,0,2-2.3h.3v-.7a4.3,4.3,0,0,0,.5-1.6h.1v-.6l1.1-11.7V19h0a1.8,1.8,0,0,0,.7-1.5c0-.4.1-.7.4-.7l1.4.7h1.4a4.9,4.9,0,0,1,3.5,1v.3c-.4,0-.7.1-.7.2l.6,1.5h.2a6.6,6.6,0,0,1,.2-.9,1.9,1.9,0,0,1,.4,1l-.7,7.7h.1a61.4,61.4,0,0,0-.8,7.4v1.8c0,2.7.1,4,.3,4h.3a15,15,0,0,0,3.6-.5c.2,0,.6.3,1.1.8-.2,3.6-.4,5.5-.7,5.5l-.8-.6-1.8.2-6.9-.2c-.3,0-.7-.8-1-2.4a1,1,0,0,1-.4-.8V43h-.2a16.5,16.5,0,0,0-3.7,1.7c-.1.2-1.5.9-4.2,1.8a14.5,14.5,0,0,1-2.5,1,13.8,13.8,0,0,0-3-1.1c-2.6-2.5-4.2-4.8-4.8-6.8s-1.5-4.7-1.5-9.7l.6-7.2v-.2a20.2,20.2,0,0,0-4.2-.8,8.2,8.2,0,0,1-.4-3.1c0-1.1.2-1.7.6-1.7S312.6,16.1,315.8,16Zm-4.5,2.9v.2h.9v-.2Zm0,1.9V21h.5l.2-.2-.3-.2h-.3Zm.3-1.3v.2c.1.2.3.3.7.3h.1l-.3-.4Zm1,.8h.1l.5-.3v-.2h-.3Zm1.1,0c0,.3.7.7,2,1.1h.6c.1,0,.2-.2.3-.4a4.2,4.2,0,0,0-1.7-1h-.5C314,20,313.8,20.1,313.7,20.3Zm.9-3.5V17h.4v-.2h-.4Zm1.1,6.7v.6l.9-.3V22.4h-.2C316.2,22.3,316,22.7,315.7,23.5Zm0,10.8v.2c0,1.6.9,4.1,2.6,7.5.3.3.5.4.7.4V42l-1.8-4.9c-.6-1.9-1-2.9-1.3-3h0Zm.3-17h0c0,.1.3.3.9.5a3.1,3.1,0,0,0,.1.9h.4c1.1,0,1.7-.2,1.8-.5h0c0-.3-.6-.5-1.8-.7s-.3-.2-.8-.3H316Zm.5,13.1-.2.3h0l.2.2.2-.2v-.3Zm1.5,2.2V33a1.6,1.6,0,0,0,.8,1.3h.2c0-1.5-.1-2.3-.4-2.3h-.2A.5.5,0,0,0,318,32.6Zm.4-11.8V22h.1c.3-.1.4-.3.4-.7v-.7c0-.3-.1-.5-.2-.5h-.1C318.5,20.2,318.4,20.4,318.4,20.8Zm.7,15.9h0c.2.2.3.3.5.3h0C319.6,36.8,319.5,36.7,319.1,36.7Zm1.2,4.4v.2a.5.5,0,0,0,.5.3v-.3l-.2-.2Zm3.6,4.1h-.5l-2.5-.2h-.1l-.2.2h0c0,.3,1.1.8,3.4,1.2a12.8,12.8,0,0,0,4.1-1.5h.1v-.2h-.4A16,16,0,0,1,323.9,45.2Zm-3-5.3h0v.2h.1V40Zm.9,1.7h0c0,.5.8,1.1,2.2,2a10.1,10.1,0,0,0,2.5-1.2h0a24.9,24.9,0,0,1-4.5-.7Zm3.2,2.2V44h.8a6.4,6.4,0,0,0,3.2-1.7v-.2h-.4Zm5.2-5h.1a7.7,7.7,0,0,0,1.5-2.2h-.1A8.3,8.3,0,0,0,330.2,38.8Zm3.1-1.7c-.2.3-.4.5-.4.7l.3.2h.1l.2-.2v-.4Zm.5,3.8h.1l.4-.4v-.2C333.9,40.4,333.8,40.6,333.8,40.9ZM335,18.1q0,.6.9.6h.6c0-.2-.5-.3-1.4-.4Zm.3,15.5v.6l.2.2a1,1,0,0,0,.6-.5v-.3l-.2-.2h-.4Zm.1-13.3h0a.6.6,0,0,0,.5.2h0c.3,0,.5-.1.5-.2h0c0-.1-.2-.2-.6-.2h-.2Zm0,20.7v.7c0,2.9.2,4.4.5,4.4h.2c.3-.1.4-.2.4-.4s-.4-2.1-.6-4.5l-.3-.4Zm.1-3v.4h.3v-.2h-.3Zm.1-5.3.3.3c.2,0,.4-.5.4-1.2h-.1A1.1,1.1,0,0,0,335.6,32.7Zm.9-5.9v.3h.1c.4,0,.6-.5.6-1.4s-.1-.6-.2-.6S336.7,25.7,336.5,26.8Zm.3,10v.4a8.1,8.1,0,0,0,.4,2.5h.2a14.1,14.1,0,0,0,.2-1.8v-.4c0-.5-.2-.7-.6-.7Zm0-.8h0l.2.2.2-.2v-.2h-.3Zm1.2,8.8h0a.8.8,0,0,0,.7.3h.9c0-.2-.3-.3-.9-.4h-.5Zm.7-16V29c0,.2.1.3.2.3h.1v-.5Zm.8,11.1-.6.9V41h.6l.3-.2v-.3A.6.6,0,0,0,339.5,39.9Zm1.8,2.9V43h.6c1,0,1.4-.2,1.4-.4h0Zm1.7.8V44h.3v-.2h0c0-.1-.1-.1-.2-.1Z" transform="translate(-1.2 0)" style="fill:#b75326"/><path d="M351.3,15.1h.1a5.4,5.4,0,0,1,3.3.9c.7.1,1.1.2,1.1.3v.2c-.6,0-1,.2-1,.5l1.2.3c.1.2.4.3.9.5h1.5l.7.2,4.8-1.1h.1a20.8,20.8,0,0,1,8.4,4.2c2.7,2.6,4.2,4.6,4.5,5.9a11,11,0,0,1,.7,2.9c-.6,4.9-1.1,7.4-1.5,7.4a26.1,26.1,0,0,1-2.8,4.1l-.5.5V42h0a4.5,4.5,0,0,1-2.3,1.7A1.7,1.7,0,0,0,370,45a4,4,0,0,1-2.9.9,27.7,27.7,0,0,1-6.2,1.4,7.2,7.2,0,0,1-2.6-1l-3-.3-.4.2c.3.4.4,1.5.4,3.3v.9l.5,2.8v4.9c0,1,.3,1.5,1,1.5l.4.4h0a.4.4,0,0,0-.4.4,3.2,3.2,0,0,1,.9,2.3l.4,1.2a7.3,7.3,0,0,1-2.2.3l-4.4-.3c-.7.6-1.1.9-1.3.9s-1.8-1.3-2.6-3.1h-.1v-.2l.4-.2h0a2.3,2.3,0,0,1-.5-1V60h.2a.3.3,0,0,1,.1.2h.5v-.7a1.6,1.6,0,0,1,1.4-.6,12.4,12.4,0,0,0,.2-3V51.5a55.9,55.9,0,0,0-.4-5.6V20.6h-1.5l-.2-.3V16.9a1.3,1.3,0,0,1,1.5-1.5A4,4,0,0,1,351.3,15.1Zm-2.8,1.2a.5.5,0,0,0,.3.5h.3a.6.6,0,0,0,.6-.3v-.2a.6.6,0,0,0-.6-.3H349C348.7,16,348.5,16.1,348.5,16.3Zm.6,46.1h0c0,.1.3.2.8.3s1.1-.2,1.1-.3h-1.8Zm0-44.5v.3a1,1,0,0,0,.5.8h.2v-.6q0-.6-.3-.6h-.5Zm1.1,42.9h0c0,.2.2.3.5.3V61l-.2-.2Zm.8-38.6a3.3,3.3,0,0,0,.3,1.5h0l-.4,1.1.4,1a72.5,72.5,0,0,0-.6,7.7v4.5a14.8,14.8,0,0,0,.3,3.1l-.3,1.9v.6l.2,5.3h.1a.7.7,0,0,0,.6-.7h0l-.3-.6c.2,0,.3-1.7.4-5.2V38.2q.3-9.8.3-14.4h0c0-2.4-.1-3.7-.5-3.7S351,20.8,351,22.2ZM351,51v.9c0,.7.1,1,.3,1a5.2,5.2,0,0,0,.5-2.3v-.3l-.3-.3A1.1,1.1,0,0,0,351,51Zm.6,3.5-.2.3v.8a5.2,5.2,0,0,0,.2,1.1h.3V55.5c0-.7,0-1-.2-1ZM353,26.1l-.2,4.3v.3h.2V25.9h-.1Zm0,34.7h0l.2.3h.2V61h0l-.2-.3h-.2Zm.1-37.4v.4c.1,0,.2-.4.3-1.1h-.1C353.1,22.8,353.1,23,353.1,23.4ZM354.5,61h0l.3.2h.4V61h-.7Zm4.9-37.9c0,.2-.4.6-1.3,1h.6c-1.8.8-2.9,1.6-3.2,2.3s-.4,3.8-.6,11.5v.8c0,.2.9.9,2.8,2.3l2.5,1.2.3.4h.3a9,9,0,0,0,4.2-1.4,8.4,8.4,0,0,1,2.7-1.4c2.1-1.8,3.2-3.4,3.2-4.9v-.9l-.2-.9h0l.5-.6v-.2c-.3-.2-.5-.6-.5-1.5a4.8,4.8,0,0,0-1.3-3.5,5.6,5.6,0,0,0-2.1-2.7c-.3-.5-1.4-1-3.2-1.4h-.6l-2.9.2h-.1a1,1,0,0,1-.9-.4ZM354.9,40a.8.8,0,0,0,.8.7h0a1,1,0,0,0-.5-.6Zm.2-22.1v.2h.4v-.2l-.2-.2h-.1Zm.3,25.6h-.1c0,.5,1.2.8,3.7,1l1.2-.7h0l-.2-.3h-.3L358,44A11.4,11.4,0,0,0,355.4,43.5Zm.6-20.7V23h.2l.3-.3v-.2h-.2Zm.9-4.3h.5l.2-.2v-.2h-.1C357.1,18.3,356.9,18.4,356.9,18.5Zm3.8.6c0,.2.8.4,2.5.6,0,.1.2.2.6.2h.9l.3-.3h-1.4l.2-.3v-.3h-1.6C361.2,18.8,360.7,19,360.7,19.1Zm.7,3.7c0,.2.2.2.8.3h.4v-.2l-.2-.3h0l3.4-.4.3-.2-.2-.3h-.5C362.7,21.8,361.4,22.2,361.4,22.8Zm.8,21.2h.2c2.3-.4,3.5-.9,3.5-1.2h-.3C363.3,43.3,362.2,43.7,362.2,44Zm2.5-26.3v.2l1.2.3h.3c0-.3-.5-.4-1.4-.5Zm1.1,5h0a1.7,1.7,0,0,0,1.4.5h.6c-.1-.2-.6-.4-1.5-.4Zm1.1-4.2h-.1a3.3,3.3,0,0,0,1.7,1h.3C368.8,19.1,368.1,18.7,366.9,18.5Zm.8,3.5h0l.2.2h.2l-.2-.2Zm.1,21.8h.1c.9-.2,1.3-.5,1.4-.7h0v-.2h-.1C368.2,43.2,367.8,43.5,367.8,43.8Zm.9-20.2h0c0,.5.4.9,1.3,1.2h.2c0-.6-.4-1.1-1.3-1.4Zm.7,16.2h.2a2.9,2.9,0,0,0,.8-.8h-.1C369.8,39.3,369.5,39.5,369.4,39.8Zm.1,2v.3h.1c.5-.1.8-.4.8-.7h-.1A.9.9,0,0,0,369.5,41.8Zm.3-21.4h0c0,.2.2.3.5.5h.2v-.2a.5.5,0,0,0-.5-.3Zm.8,6v.3a6.7,6.7,0,0,0,.9,2.1h.1v-.3a2.5,2.5,0,0,0-.7-2.1Zm1,3.3V30h.4v-.3Zm0,5.6h0c.5,0,.8-.3.8-.6v-.5l-.2-.2h-.1A2.1,2.1,0,0,0,371.6,35.3Zm.6-3.4v.9l.2.2h.1l.2-.2a1.5,1.5,0,0,0-.4-.9Zm.3-10.2h-.1a2.7,2.7,0,0,0,1,1.1h.1C373.5,22.5,373.2,22.1,372.5,21.7Zm1.3,1.6v.2h.3v-.2Zm.1,13.8h.1a8.3,8.3,0,0,0,1.2-4.4v-.8h-.1C374.7,31.9,374.3,33.6,373.9,37.1Zm.5-10.7.5.8h.3a.9.9,0,0,0-.6-.8Z" transform="translate(-1.2 0)" style="fill:#b75326"/><path d="M385.3,39.4a4.9,4.9,0,0,1,2.6,1,2,2,0,0,1,.2,1.1v.8c0,1.7-.9,2.9-2.8,3.7l-.8.4c-.9,0-1.7-.8-2.5-2.4v-.4c0-1.7.3-2.8.9-3.2A5.2,5.2,0,0,1,385.3,39.4Zm-2,2.7c.1,1.1.2,1.6.4,1.6a7.8,7.8,0,0,0,.6-2.1l.2-.4v-.3h-.1C383.6,41.2,383.3,41.6,383.3,42.1Zm.3,2.7c0,.3.1.4.4.5h.6a1.8,1.8,0,0,0,1.3-.6h0Zm1.3-2.3h0c0,.4.1.7.3.7h.1c.2,0,.4-.4.7-1.3v-.3h-.3C385.2,41.6,384.9,41.9,384.9,42.5Zm1.9.8h.3v-.6h0C387,42.8,386.9,43,386.8,43.3Z" transform="translate(-1.2 0)" style="fill:#231f20"/></g></g></svg>