<svg xmlns="http://www.w3.org/2000/svg" viewBox="0 0 153.1 48.8"><title>icn_rotator_Asset 55_adj</title><g id="Layer_2" data-name="Layer 2"><g id="Layer_1-2" data-name="Layer 1"><path d="M17.2,4.8h.3a29.2,29.2,0,0,1,5.8,1.6,2,2,0,0,0,.8.4l.4-.2,2.9,3.8c.1-.1.2.1.2.6a12.3,12.3,0,0,1,.6,3.6c0,1.1-.7,1.6-2.2,1.6a8,8,0,0,1-2-.5h0c-.2,0-.3.2-.4.7h-.2q-.3,0-.9-2.4a23.7,23.7,0,0,0-1.2-3.6c-.6-.4-1.8-.5-3.6-.5h-.2l-4.7,1.1c-1.2.8-1.7,1.3-1.7,1.6q0,8.4.6,8.4t5.4.9c.5.2.7.4.7.6A2.9,2.9,0,0,1,19,24.6c0,1.7-1.3,2.6-3.7,2.6h-.2a3.5,3.5,0,0,1-2-.7h-.4c-.9.1-1.3.2-1.3.4v8.4a24.3,24.3,0,0,0,.3,3.8v3.5c0,.3,1.2.6,3.7,1s3.4.2,3.9.6l.2.2c-.3,0-.5,1.2-.8,3.5l-2.5-.3h-.8a57.7,57.7,0,0,0-7-.6h-5a1.2,1.2,0,0,1-.3-.9V44.8a16.5,16.5,0,0,0-.2-2.7c0-.3.3-.4,1-.4l2.4.5h1a.8.8,0,0,0,.8-.4H8a12.1,12.1,0,0,1-.6-4.5,12.9,12.9,0,0,1-.3-2.4v-.2a61,61,0,0,1,.8-7.8c0-.2-.4-.3-1.1-.3H6.5a16.5,16.5,0,0,1-4.4.8l-.9-.2c.1-3.8.4-5.7.8-5.7s.2-.3.4-.3h.3q4.8,0,4.8-.3c0-2.6-.1-4.4-.1-5.5s-.1-2-.1-2.6v-.2L7,11.4H7A14.6,14.6,0,0,1,8.7,8.9l2.9-3A15.1,15.1,0,0,1,17.2,4.8ZM2.2,22.2v.2l.2.2h.3l.5-.5L3,21.8H2.8A.5.5,0,0,0,2.2,22.2Zm.6,3a2.2,2.2,0,0,0-.4,1v.2l.2.2h.6v-.2A1.6,1.6,0,0,0,2.8,25.2ZM4.7,45.3h0c0,.3.8.4,2.5.6h.1a3.3,3.3,0,0,0-2.1-.6H4.7Zm.2-22.6h0a.8.8,0,0,0,.4.7c.3,0,.6-.2,1.1-.6s-.4-.3-1.1-.4H5.2Zm0,19.9v.2c0,.2.3.3,1,.4h.6v-.2l-1.4-.3Zm.5-18-.2.2h.7C5.9,24.7,5.7,24.6,5.4,24.6Zm1.3,1.1h.8v-.2H6.8ZM8.1,45.2h0c.4.5.7.7,1,.7h.5A2.5,2.5,0,0,0,8.1,45.2Zm.8-12.8.2.6v.8c.1,1.3.3,2,.5,2h.1c.2,0,.3-.8.4-2.2v-.3c0-.8-.3-1.2-.8-1.2H9C8.9,32.1,8.9,32.2,8.9,32.4Zm.3-5L9,29.2v1h.1V27.4Zm0,13c0,.5-.1,1.1-.1,1.9h.3l.2-.3v-.8q0-.9-.3-.9Zm0-1.6V39l.2.2h.2v-.4ZM9.5,24v.5h.2V24Zm.1,7.2H9.5v.4h.2v-.5Zm.1-1v.5h.1l.3-.2v-.3Zm.2-1.1v.2H10v-.2Zm.6,16.7V46c0,.1.3.3,1.1.4h1l.2-.2c0-.2-.5-.4-1.4-.4Zm2-38.7h0a4.8,4.8,0,0,0,3.4-1V6h-.2A5.6,5.6,0,0,0,12.5,7.1Zm0,16.1v.2c.1.3.4.5.9.5h.4v-.2a1.4,1.4,0,0,0-1-.5Zm3.2.7v.2h.2v-.2Zm.1,1.6h.3c1.1-.2,1.7-.4,1.7-.7h-.4C16.3,24.9,15.8,25.1,15.8,25.5Zm.3,19h.6q1.2,0,1.2-.3H16.7C16.3,44.3,16.1,44.4,16.1,44.5ZM16.4,9h.2V8.9h-.1Zm.8,37h0l.5.5h.1l.2-.2V46l-.3-.3h-.3Zm.1-38.7h0l.4.2h1.1c0-.2-.3-.3-1-.3Zm4.5-.2a2.6,2.6,0,0,0,1.9,1.2V7.8a2.4,2.4,0,0,0-1.7-1h0C21.8,6.8,21.8,6.9,21.8,7.1Zm.7,3.3h0A2.3,2.3,0,0,0,23,12h.3v-.4c0-.8-.3-1.2-.8-1.2Zm1.3,3.9h.4V13.3h-.1A1.1,1.1,0,0,0,23.8,14.3Z" transform="translate(-1.2 0)" style="fill:#b75326"/><path d="M26.2,14.8a2,2,0,0,0,1.3.4l.7-.3c5.6,0,8.4.1,8.4.5v1.4a5.2,5.2,0,0,1,.5,2.4v1c-.4,5.7-.7,11.1-.9,16.3a2.3,2.3,0,0,0-.3,1.3.6.6,0,0,0,.6.3h.2c2.2,0,3.4.2,3.4.7h-.1v.4a13.3,13.3,0,0,1,.7,4.7l.2,2.5H32c-4.7,0-7-.3-7-1.1a3.5,3.5,0,0,0-.3-1.3,1.3,1.3,0,0,1,.6-.7h.1a.7.7,0,0,0,.6.2h.1l4.3-.3h0c-3.5-.2-5.3-.5-5.3-.8V41.3l-.2-1.5c0-.5,1.6-.7,4.7-.7q.6,0,.6-2.7l.7-16.3h-.1c-1.5,0-2.1-.1-1.6-.4-2.4,0-3.7-.3-3.7-.9s-.2-.2-.2-.5l.3-.7a.7.7,0,0,0-.4-.6h0c.4-.3.6-.9.7-2h.3Zm.2,26.5h0c.3.4,1.5.6,3.8.6h.4q.6,0,.6-.3h0l-4.4-.3ZM27,16.1v.2h.3c1.1,0,1.6-.1,1.6-.3h-.3C27.6,15.9,27,15.9,27,16.1Zm.3.9h0c0,.1.2.2.8.2H31c.6,0,1-.1,1-.2h0c0-.3-1.2-.3-3.7-.1ZM34.6,2.7A4,4,0,0,1,38,4.9L38.4,7A8.2,8.2,0,0,1,37,10a3.5,3.5,0,0,1-2.4.8c-2.6,0-4.2-.4-4.9-1.2a5.1,5.1,0,0,1-.8-3.4c-.2,0-.3-.1-.3-.2h0C29.9,4,31.1,3,32.5,3ZM31.2,4.6h0a5.3,5.3,0,0,0,2.1-.5L33,3.9C31.8,4.1,31.2,4.3,31.2,4.6Zm.3,29.7.2.5c.2,0,.2-.2.3-.6v-1a7.7,7.7,0,0,0,.7-2.4V29.5c.2-.1.4-.3.4-.4a3.9,3.9,0,0,1-.3-1.4h0q.3,0,.6-6.9c-.1-.4-.2-.5-.3-.5h-.1c-.6,0-.9,2-1.1,6.1Zm1.4,9.3H32v.2h2.6v-.2H32.9ZM32.4,6.3h.4c.5,0,.8-.1.9-.5h-.8c-.4,0-.6.1-.6.4ZM32.5,42l.3.2h.1c.3,0,.5-.2.5-.6h-.3A.7.7,0,0,0,32.5,42Zm.7-4.1v.3h.2l.2-.2h0v-.2h-.1Zm0-1.1v.4h.2c.2-.1.3-.3.3-.8V36h-.2C33.4,36,33.3,36.3,33.2,36.8Zm.1-19.9v.2a1.8,1.8,0,0,1,1,.6h.2c.1,0,.1-.1.1-.2h.1c.1,0,.3.2.4.6h.1l.8-.7v-.3H33.3Zm.3,3.5.3,1-.4,1c.2.5.3.7.4.7H34v-.8c0-1.5.2-2.3.7-2.3l.2-.2v-.3h-.6C33.9,19.4,33.6,19.8,33.6,20.4Zm.6,10.5a14.1,14.1,0,0,0-.6,3.5h.1c.2,0,.5-.9.8-2.6v-.9ZM33.7,9.1v.2h1.1l.2-.2H33.7ZM34.5,21v.3a.5.5,0,0,0,.3.5H35l.2-.2v-.3a1,1,0,0,0-.5-.4Zm.8-13.2V8h.2a.8.8,0,0,0,.7-.4V7.4H36A.9.9,0,0,0,35.3,7.8Zm0,8,.2.2h.1v-.2l-.2-.2Zm1.2-9.7v.2h.1l.2-.2V5.9h-.1Zm1.3,35.8a1,1,0,0,0,1.1.8h.2v-.4l.5-.3v-.4a.5.5,0,0,0-.3-.5H39c-.1,0-.3.2-.4.6Zm.4-2.7a2.4,2.4,0,0,0,1.2.4v-.2c0-.1-.2-.2-.7-.3h-.5Zm0,4.2h.1l.2-.2h-.1Zm1.5,2.5h.5l-.2-.2h-.1Z" transform="translate(-1.2 0)" style="fill:#b75326"/><path d="M48.8,13c5.1,0,7.7.2,7.7.6s-1,.3-2.9.3l-.2.2,2.7.2.9.6-.7,1.4h0l4.6,7.9h.2c.5-.3,1.6-1.7,3.2-4.3.7-.6,1.1-1.1,1.1-1.3s.9-.5,1.6-1.6a2.6,2.6,0,0,1,.9-2.1h.2a2.1,2.1,0,0,1-.5,1.2h.1q1.2-1.2,1.2-1.8v-.4h-.1q0-.6,1.5-.6h1.6c5.8.2,8.7.7,8.7,1.3V16l-.2.3H78.8l1.7.6v1l-.2.3h-.5q-2.4,0-2.4.3h0c2,.1,3,.2,3,.4h0l-.5.4.6.3h0l-.2.2a51,51,0,0,0-9.1-.6,73.4,73.4,0,0,0-5.1,6q-2.7,2.7-2.7,3.3A42.7,42.7,0,0,0,66,33.3,57.7,57.7,0,0,0,69.2,39c0,.6,1.1,1.2,3.1,1.8a2,2,0,0,0,1.3.4l4.3-.2.5.8v.7a.7.7,0,0,0-.2.6,3.4,3.4,0,0,0,.1.9c.2.4,0,1.2-.4,2.5a1.3,1.3,0,0,1-.8.3,87.7,87.7,0,0,0-9-.4h-.7l-1,.2h-.9a1.6,1.6,0,0,0,.5-1.2h-.2l-.6.5H65c-.4,0-.6-1-.6-2.9a11.4,11.4,0,0,1,.1-1.5.8.8,0,0,0,.2-.5,25.4,25.4,0,0,0-3.8-7.5h-.3c-.6.2-1.2,1.2-2,3.2a24.2,24.2,0,0,0-2.1,3.9q-.6,1.2-1.2,1.2l.6,1.2.7.8-.3.8.2.6v.2l-1.3,1.5h0v.5H55l-1.9-.2h-.5c-1,0-2.7,0-5-.2s-3.5.1-3.5.5h-.4v-1l-.3-.7c.3,0,.4-.9.5-2.7a1.3,1.3,0,0,1,.6-.5c0-.5.2-.7.6-.7l4.9-.8a3.8,3.8,0,0,0,.8-1.1c.2,0,.6-.5,1-1.5s1-1.1,1.1-1.1.5-.1.5-.3H52.4v-.2a1.2,1.2,0,0,0,.6-1,24.4,24.4,0,0,1,2.3-3.1l2.8-4.1L56.4,26q-3.7-6.3-4.8-6.9a16.9,16.9,0,0,0-4.2-.4c-1.8-.3-2.8-.5-2.8-.7.2-2.2.3-3.7.3-4.3S46.6,13,48.8,13Zm-3.5,3-.2.3h0c0,.3.6.5,1.9.6h.1l1-.2h0C48.1,16.4,47.1,16.2,45.3,16Zm-.2,28h0a.7.7,0,0,0,.7.4l1.9-.2h0c0-.2-.7-.4-2.1-.5S45.1,43.9,45.1,44Zm3-30.1v.2h.7l-.3-.2h-.4Zm1.4,2.9h-.1l.3.3h.2v-.3Zm1.8,23.7v.2a.6.6,0,0,0,.6-.5h0Zm1.8-21.1h0l.2.2h.1v-.2h-.3Zm.1-3.1c0,.1.2.2.5.2v-.2h0l-.2-.3h-.2Zm.4,3.7h0a1.2,1.2,0,0,0,.6,1h.1v-.2a1.2,1.2,0,0,0-.6-.9Zm.7,25.5v.2h0Zm.6-29.3v.2c.3.3.5.5.8.5v-.3l-.4-.4ZM55,39.9h.1l.3-.2v-.2h-.1Zm1.5-7h.1a9.1,9.1,0,0,0,1.8-2.7h-.1A6.1,6.1,0,0,0,56.5,32.9Zm6.1-6h.1a1.7,1.7,0,0,0,.8-1.3Q62.6,26.3,62.6,26.9Zm4.7-6.4h.2a1,1,0,0,0,.4-.5h-.1C67.5,20.1,67.3,20.3,67.3,20.5Zm.1,22a1,1,0,0,0,.4.5h.5c0-.4-.2-.6-.7-.6Zm1.2,1.2v.2h.3v-.2Zm.9-3.4h-.1v.4c0,.2.3.3,1.1.4h.7l.2-.2Zm.6,3.5h1.1C70.5,43.5,70.1,43.6,70.1,43.8ZM70.8,17v.2h.1a1.2,1.2,0,0,0,.9-.6v-.3h-.3A2.2,2.2,0,0,0,70.8,17Zm3.4.4h2.3v-.2H74.2Zm1.3-1.5v.2h1.6V16H75.5Zm.5,30v.2l1.4.3h.1c0-.1-.3-.2-.8-.3Zm.1-2.7H77V43a.2.2,0,0,0-.2-.2C76.3,43,76.1,43.1,76.1,43.2Z" transform="translate(-1.2 0)" style="fill:#b75326"/><path d="M96.4,15.6c1.8,0,3.9.8,6.4,2.2s3.1,2.7,3.1,3.3c1.6,3.5,2.5,5.6,2.5,6.2v.5a9.4,9.4,0,0,0-.9,2.9h-5.7l-1.7.2c-6-.5-10.1-.7-12.5-.7H86.3a3.5,3.5,0,0,0-.7,1.5A6.7,6.7,0,0,1,86,34c0,1.6.2,2.5.7,2.8v.3h0l-.4-.2v.2l.6.6a3.1,3.1,0,0,0,1.1,2c1.4,2.4,2.8,3.9,4.4,4.5a16.3,16.3,0,0,0,4.7.6,4.4,4.4,0,0,0,1.7-.7c.8-.3,2.4-1.6,4.7-4.1h0c0-.1-.3-.2-.8-.3v-.3a6.8,6.8,0,0,1,3.4-3.5l2.3,1.7a49.7,49.7,0,0,0,3.6,4.9v.3c-1.3,1.7-2.3,2.5-2.9,2.5h-.2c0-.9-.6-1.4-1.6-1.5s-1.2.7-2.8,2a14.5,14.5,0,0,1-4.9,2.1,31.5,31.5,0,0,1-5.6.9l-3.6-1.3c-1.9,0-3.7-1.1-5.4-3.2a7.3,7.3,0,0,1-1.7-2.7c0-.3-.5-2-1.4-5.1a15.5,15.5,0,0,1-.4-3.4h0a21.9,21.9,0,0,1,4.9-14.4,4.7,4.7,0,0,1,2.9-2.3l3.5-.7ZM82.6,31.3h-.1v.2h.1a2,2,0,0,0-.2.9v.3a3.5,3.5,0,0,0,.7,2h.1C83.2,32.7,83,31.6,82.6,31.3Zm0-2.3v.4c.1.2.1.4.3.4s.2-.2.3-.6l-.3-.2Zm.8-3.3c-.4.3-.6,1.2-.8,2.5h.1c.2,0,.6-.7,1.1-2.2S83.6,25.7,83.4,25.7Zm.1,11h0V37h.2v-.2h-.3Zm.6,1.1H84c.2.6.5,1,.7,1h.1A1.5,1.5,0,0,0,84.1,37.8Zm1.8-8.2H87l-.2-.3h-.2A.7.7,0,0,0,85.9,29.6Zm.1-7.4h.1Zm0,3.9v.4h.1l.7-.7v-.2h-.3A.6.6,0,0,0,86,26.1Zm.6-1.6v.2c0,.5,3.7,1,11.2,1.5l.6.2h.8a13.6,13.6,0,0,0,3.3.9c0,.1.1.2.4.3a1.7,1.7,0,0,0,.4-1.1V25.3c0-.6-1-1.8-3.1-3.6A5.9,5.9,0,0,0,97,20l-2.1-.3c-3.4.7-5.7,1.5-6.7,2.5A16,16,0,0,1,86.6,24.5Zm0-1h0a.5.5,0,0,0,.3-.5h0A.5.5,0,0,0,86.6,23.5Zm.2,21.2v.2c0,.3.4.5,1.1.7l.2.3h0c-.5-.6-.8-1-1.1-1.1Zm.4-23.9V21h.1c.6-.2.9-.3.9-.5h-.3A1,1,0,0,0,87.2,20.8Zm.4,8.4v.4h.3v-.3h-.3Zm.7-11.3h0v.2h.1c.8-.2,1.2-.4,1.2-.7v-.3l-.2-.3h-.1C88.6,17.2,88.3,17.5,88.3,17.9Zm.8,10.7v.2a44.7,44.7,0,0,0,6.5.5H94.4c0,.2.5.3,1.6.3s2.5-.1,2.5-.3S95.4,28.8,89.1,28.6Zm.6-2.1v.2a8.5,8.5,0,0,0,4.3.8h1.3v-.3Zm.1-6.1a9.5,9.5,0,0,1,2.5-1h-.7Q89.8,19.5,89.8,20.4Zm1-3.4h0a14.7,14.7,0,0,0,3.8-.7c.3-.1.5-.2.5-.3h-.2a11.7,11.7,0,0,0-4.1.9h0Zm.4,27.9h0c0,.2.5.4,1.3.6h.1a3.6,3.6,0,0,0-1.3-.5Zm2.2-26.6h0c0,.2.9.4,2.6.7h0v-.2a1.7,1.7,0,0,0-1.6-.8h-.2C93.7,18,93.4,18.1,93.4,18.3Zm1.3,27.3v.2H95v-.2Zm2.4,1.6H95.5c-.4,0-.6,0-.6.2h0l.2.2h1.1a18.6,18.6,0,0,0,4.5-.6h0c0-.2-.3-.3-.7-.3h-.3A5.5,5.5,0,0,0,97.1,47.2ZM96,17.3v.2a5.8,5.8,0,0,0,2.4.4h.1v-.2c0-.1-.2-.2-.7-.3Zm1.2,1.4h0a25,25,0,0,0,3.7,2h.1l.6-.2h.4l-1-.4-1.2-.5a2,2,0,0,0-2-1.1h-.2C97.3,18.5,97.2,18.5,97.2,18.7Zm3.6,9.4v.2h.2v-.2Zm.1,1.7c0,.1.3.2,1.1.2h.6c0-.2-.4-.3-1.3-.3S100.9,29.7,100.9,29.8Zm0,14.1h.1c.3-.1.4-.4.6-.7h-.1C101.1,43.4,100.9,43.6,100.9,43.9Zm.4,2.7c.5,0,.8-.3,1.1-1h-.2C101.6,46,101.3,46.3,101.3,46.6Zm.7-24.9a.6.6,0,0,0,.6.5h.1v-.6l-.3-.3C102.1,21.3,102,21.4,102,21.7Zm.8,20.2h.2c.4,0,.7-.3.8-.8h0A1,1,0,0,0,102.8,41.9Zm.5-19.4a5.4,5.4,0,0,0,1,2.2h.4c-.4-1.3-.7-2-1.1-2h-.3Zm.9,15.9h.4a.6.6,0,0,0,.5-.2l-.2-.3h-.1A.5.5,0,0,0,104.2,38.4Zm.3,5.8h.3q.6-.6.6-.9h-.1C104.8,43.5,104.5,43.8,104.5,44.2Zm1-18.8V26c.2,0,.3-.2.3-.4v-.2h-.4Zm.2,17,.2.2c.6-.2.9-.5.9-.8h-.1C106.1,41.7,105.8,41.9,105.7,42.4Zm1.4-.6h.2a.5.5,0,0,0,.4-.6h-.1C107.3,41.4,107.1,41.6,107.1,41.8Zm2.2-.6h-.1c.2.5.3.8.5.8h.1l.2-.2h0A.7.7,0,0,0,109.3,41.2Z" transform="translate(-1.2 0)" style="fill:#b75326"/><path d="M140,0a7.6,7.6,0,0,1,2.6.7s.1.6.2,1.9a1.6,1.6,0,0,1,.7,1c-.2,2-.4,6-.6,12.1-.1,0-.1.2-.1.6s-.5.4-.5.7v.9a8.8,8.8,0,0,1-.6,2.9v.9c0,.2.2.3.6.4v.4c-.6,5.2-.9,8.7-.9,10.3s-.2,2.8-.4,2.8h0c.2,0,.4.3.4.8v.7c0,.7-.3,2.6-.8,5.6v1.5c2.1.4,3.1,1,3.1,1.7l-.3.4V47l.3.4h0c-.3.9-1.5,1.4-3.5,1.4h-.4l-.3-.6h-.7l-1.6.4h-2.4a10.5,10.5,0,0,1-.5-3.1v-2a5.3,5.3,0,0,0-2.5,1.4,24.9,24.9,0,0,1-9,3,14.3,14.3,0,0,1-6.5-3.5,14.6,14.6,0,0,1-1.9-2.9,7.3,7.3,0,0,1-1.2-1.9v-.2h.2a9,9,0,0,1,1.6,2.1h.3v-.8a5.5,5.5,0,0,0-1.2-3h-.4c-.2,0-.3.4-.4,1.1h-.2v-.3c.1-1.6.1-2.6.2-3.1h.3v.6h.2a.8.8,0,0,0,.3-.7V34l-.2-.2c-.1,0-.1.2-.2.6l-.3.4c-.1,0-.2-.2-.3-.5,0-3,1.1-6.3,3.1-9.9a19.7,19.7,0,0,1,2.9-4c1.3-1.2,3.3-1.7,6.2-1.7h.6a16.3,16.3,0,0,1,10.7,3.4l.4.2h.2c.4-1.8.7-6.4,1.1-13.8a.5.5,0,0,1,.5-.4h0a7.1,7.1,0,0,0-2.8-1.3c-.3,0-.6-1.4-.7-4.2l1.1-.3h0a.6.6,0,0,0-.6-.3.6.6,0,0,1-.2-.5c0-.4.4-.6,1.4-.6V.5L137,.2h3ZM116,32.8a.2.2,0,0,0,.2.2c.3,0,.5-.4.7-1.3v-.3h-.3C116.4,31.4,116.2,31.9,116,32.8Zm.6-5.5v.2h.3a5.1,5.1,0,0,0,.8-1.5c1.2-1.7,2-2.5,2.4-2.5l.3-.5H120a6.1,6.1,0,0,0-2,1.3A9.6,9.6,0,0,0,116.6,27.3Zm.3,15.8h0c0,.3.7.4,2,.6v-.2l-1.7-.6Zm.1-7.2v.9c0,.6.8,2.3,2.3,5a8.8,8.8,0,0,0,3.8.9,18.8,18.8,0,0,0,8.3-2c1.1-1.7,2.1-2.5,2.9-2.5s.9-2.1,1.5-4.7a5.3,5.3,0,0,0,.4-2.3v-.6c0-1.7-.2-2.6-.7-2.6a6.7,6.7,0,0,1-1.3-1.5l.2-.4c0-.2-.6-.4-1.8-.7l-.4-.3h1c0-.4-2.2-.7-6.7-.7l-.9-.2c-3.3.3-4.9.7-4.9,1.3a12.6,12.6,0,0,0-3,6.6A17,17,0,0,0,117,35.9Zm1.4,8.3c0,.4,1.2.9,3.7,1.3h.4c0-.3-1.2-.8-3.6-1.3h-.3Zm.9-22v.2h.4c1.5-.4,2.2-.8,2.2-1.4s-.2-.2-.6-.2H121C120.4,20.9,119.9,21.3,119.3,22.2Zm2.9,24.4v.2h1a14.6,14.6,0,0,0,2.9-.4h0l-1.9-.2C122.9,46.2,122.2,46.4,122.2,46.6Zm1.2-26.1v.3l.2.2h.3l.3-.3v-.2l-.3-.2h-.3Zm.1,3h0Zm1.4,19.9v.2h.8q4-.3,4.5-1.2v-.2h-.3C126.8,42.8,125.1,43.1,124.9,43.4Zm.6-20.3h.2Zm.9,21.7h.6c1.3,0,1.9-.2,1.9-.4h-1.3Q126.4,44.5,126.4,44.8Zm.4-21.1h.2l1.4-.2H128Q126.8,23.4,126.8,23.7Zm.4-2.7H130c-.1-.3-.8-.4-1.9-.5h-.7A.6.6,0,0,0,127.2,21Zm2.7,2.5.3.3h.3v-.2c0-.1-.2-.2-.4-.2h-.3ZM131,42.6v.2h.1a2.3,2.3,0,0,0,1-.7v-.2h-.2A2.2,2.2,0,0,0,131,42.6Zm.8-21h-.1v.2l1.9.6h.1c0-.4-.4-.7-1.1-.9Zm.8,1.9.3.2v-.2h-.4Zm1,.4c0,.1.6.4,1.8.7h0v-.2a1.2,1.2,0,0,0-1.1-.5Zm1.2,2.4v.5l.3.3h.2c.2,0,.2-.2.2-.4a.6.6,0,0,0-.3-.6h-.1Zm.9,15.8v.3c.2,0,.4.2.4.6h.1l.3-.3v-.5a.6.6,0,0,1-.3-.6H136A.5.5,0,0,0,135.7,42.1Zm.1,2.4h.1l.3-.2H136Zm1.4-40.1v.2h.4c.2,0,.4,0,.4-.2V4.2h-.6Zm.1-1.5h.7V2.7h-.5Zm1.1,19c0,.3.1.6.2.6h.1v-.5Zm.5-17.4h.1q1.5,0,1.5-.3l-.2-.2h-.8A.5.5,0,0,0,138.9,4.5Zm.1,38V44h.1l.2-.2v-.6c0-.4-.1-.6-.3-.7Zm.1,2.2v.2h.5l-.2-.2Zm1.3,2a.8.8,0,0,0,.6.2h1.7c0-.2-.2-.3-.7-.3S140.4,46.5,140.4,46.7Zm.3-43.2h.1Zm1.3,17h.2v.3H142Z" transform="translate(-1.2 0)" style="fill:#b75326"/><path d="M151.3,39.4a4.9,4.9,0,0,1,2.7,1,3.6,3.6,0,0,1,.2,1.1v.8c0,1.7-1,2.9-2.9,3.7l-.7.4c-.9,0-1.7-.8-2.5-2.4v-.4c0-1.7.3-2.8.8-3.2A6.2,6.2,0,0,1,151.3,39.4Zm-2,2.7c.1,1.1.3,1.6.5,1.6a5.3,5.3,0,0,0,.5-2.1l.3-.4v-.3h-.1Q149.3,41.4,149.3,42.1Zm.3,2.7c0,.3.2.4.4.5h.7a1.4,1.4,0,0,0,1.2-.6h0Zm1.4-2.3h0c0,.4.1.7.3.7h0c.3,0,.5-.4.7-1.3v-.3h-.3C151.2,41.6,151,41.9,151,42.5Zm1.8.8h.3v-.6h-.1C153,42.8,152.9,43,152.8,43.3Z" transform="translate(-1.2 0)" style="fill:#231f20"/></g></g></svg>