<svg xmlns="http://www.w3.org/2000/svg" viewBox="0 0 269.7 59.3"><title>icn_rotator_Asset 44_adj</title><g id="Layer_2" data-name="Layer 2"><g id="Layer_1-2" data-name="Layer 1"><path d="M16.1,12.7a18.5,18.5,0,0,1,4.2.9c2.4,2.3,3.8,4,4.2,5.3s1.6,2.7,2.2,5.6c.6.6,1,2.1,1,4.4v1.5l-.2,6.1c0,1.2.8,2.8,2.3,4.7s2.3,2,2.7,2h0c0,.5-.7,1.3-2.2,2.4s-1.7,1.6-2,1.6h-.1c-.6,0-2.2-1.2-4.9-3.6-2.4.8-4.9,1.8-7.4,2.9a18.1,18.1,0,0,1-5.4.7h-.3a10.8,10.8,0,0,1-5.7-2.6,13.3,13.3,0,0,1-1.8-3.1,5.2,5.2,0,0,1-1.1-3.3V36.4a6.2,6.2,0,0,1,.9-3.2,17.1,17.1,0,0,1,2.8-4.8,4.4,4.4,0,0,1,2-1.5,14.3,14.3,0,0,1,6.4-1.7h3.1a5.4,5.4,0,0,1,3.3.7h.4a.3.3,0,0,0,.3-.3,26,26,0,0,0-2.2-5.6c-.9-1.5-2.6-2.2-5.1-2.2L11,17.4c-2.2.4-3.3.8-3.3,1.3a8.4,8.4,0,0,0-1.5,4.1c-.1.2-.8.3-2.2.3H3.6c-.2,0-.4.4-.7,1.1s-1.7-.4-1.7-.7a41.3,41.3,0,0,0,.5-4.5c.6-1.9,2.2-3.6,4.7-5.2a6.5,6.5,0,0,1,2-1ZM4,21.4v.9H4c.2,0,.3-.1.3-.4v-.5H4Zm.6-4.6h.1c.4,0,.9-.4,1.7-1.1v-.3H6.3c-.4,0-1,.5-1.7,1.3Zm.8,24.8h.5l-.3-.2H5.4Zm.2,3.3h0c.2.4,1.2.9,3.1,1.5a8.6,8.6,0,0,0,2.4.4h0c0-.2-.8-.5-2.3-.8A12,12,0,0,1,6,44.7H5.7Zm.8-15.8v.2h.1a.5.5,0,0,0,.6-.4v-.2h0Zm0,5.5c.2,2.5.6,3.7,1,3.7l.6.8H7.4v.2a13.8,13.8,0,0,0,4.9,3,2.1,2.1,0,0,0,1.2.3c.8,0,3.7-1.2,8.6-3.6a.8.8,0,0,0,.4-.7V38c-.3-1.7-.6-3.6-.9-5.9h-.1c0-.4-.4-.8-1.4-1.1a32.2,32.2,0,0,0-6.2-1.3,13.1,13.1,0,0,0-6.5,3.1A3.2,3.2,0,0,0,6.4,34.6Zm3.8-19.9v.2c0,.1.2.2.6.2a4.1,4.1,0,0,0,1.6-.4v-.2h-.3ZM12.3,44a.5.5,0,0,0,.5.3q.6,0,.6-.3h0v-.2h-.8Zm.6-27.5.2.3h1l-.4-.3h-.5Zm2.3-2.4.3.2h.4l-.2-.3h-.3Zm2.2,29.1h.3a5.3,5.3,0,0,0,2.3-.7h-.3C18.3,42.6,17.5,42.9,17.4,43.2ZM20,14.4v.2a1,1,0,0,0,.8.4h.1a1.5,1.5,0,0,0-.8-.5Zm2.9,21.2v.3l.3.3h.1l.2-.3v-.3h-.6Zm.2-2.1.2.2h.2v-.2h-.4Zm1.7-3v.2h0Zm.1,1.3v.4l.2-.2v-.2Zm0-3.3v.2q.3.9.6.9h.1a2.1,2.1,0,0,0-.4-1.2h-.3Zm.4,5h0c0,1.5.2,2.3.4,2.3h.2a7.2,7.2,0,0,0-.4-2.2Zm.9,8.9a1,1,0,0,0,.5.6h0l.3-.2v-.2l-.3-.3h-.5Zm.3-16.2h0c0,.4.1.5.2.5v-.3l-.2-.3Zm1.1,17.4h0l.2.3h.3l.2-.2h0l-.3-.3h-.3Zm.5-2.3v.4c.2.5.4.7.6.7h.2c-.2-.7-.4-1-.6-1Z" transform="translate(-1.2 0)" style="fill:#b75326"/><path d="M37.2,0l2.6.6h4c1,0,1.6.3,1.6.9A34.2,34.2,0,0,0,45,7.6V29.1l-.3,11.7a28.3,28.3,0,0,0,6.3.8h.1v.9a1.6,1.6,0,0,0,.7,1A33.6,33.6,0,0,0,50.2,48l-.5.4h-.2c-.3-.4-.8-.5-1.6-.5L37.8,46.4c-3,0-4.6-.1-4.6-.5a14.1,14.1,0,0,0,1.1-4.8h1.4a7.1,7.1,0,0,1,1.7-.5l1,.3h.7q.6,0,.6-1.2t.6-13.5c-.2-2.5-.5-9.3-.7-20.4a.7.7,0,0,0-.6-.4H36.2c-.5,0-.7-.2-.7-.5.2-3.2.5-4.8.8-4.8Zm-3,45.5h.7l-.3-.3h-.1Zm.8-3.1v.2h.3v-.4H35ZM36.3,3.1v.5l.2.2h1.7V3.6L37,3l-.3-.2h-.1Zm.2-1.6h0a.5.5,0,0,0,.6.6h.3a1.7,1.7,0,0,0,1.3-.7H36.5Zm.3,40.7h0c0,.3.2.4.5.4h.1v-.4l-.3-.3H37Zm.7,2h1.1c.7,0,1,0,1-.2H37.8Zm.7-1.3h.9v-.2h-.5C38.3,42.7,38.2,42.8,38.2,42.9ZM39.9,1.6H41l.3-.2H40.1ZM40.6,38v.2c.1.3.1.5.3.5l.3-.4v-.4c-.1-.5-.2-.8-.3-.8S40.6,37.4,40.6,38Zm.3-19.9v.2h.3V18h-.1c0-.1.2-.3.5-.4h-.3A.7.7,0,0,0,40.9,18.1Zm.2-6.7h.3v-.2h-.3ZM41.3,8v.4h.1V7.8h-.1Zm.5,17.9v.2h.1c.2,0,.3-.9.3-2.5A5.6,5.6,0,0,0,41.8,25.9ZM42,3.8h0l.2.2h.2a3.4,3.4,0,0,1,1.4-.8,1.7,1.7,0,0,0,.3-.7V2.4h-.2c-.4,0-.7.3-1.1.7S42,3.5,42,3.8Zm1.2,25L43,29V40.4h.6c.1,0,.2-.2.2-.6Q43.7,28.8,43.2,28.8Zm.7-12.4v2h.1c.1,0,.2-.3.2-.8v-1Zm-.1,2.5v.4h.1l.2-.2v-.3Zm0-3.3h0l.3.3h0v-.2h-.3Zm2,28.1h0c0,.3.7.4,2.1.4h1.5Zm1.6,1.8h1.5c.4,0,.6-.1.6-.2v-.2H48.2C47.7,45.2,47.4,45.3,47.4,45.5Zm1.3-3.4h0a1.4,1.4,0,0,0,1.1.4l.3-.2v-.3H48.7Zm.1,4.6v.2h.9v-.2h-.9Z" transform="translate(-1.2 0)" style="fill:#b75326"/><path d="M56.7,0l2.6.6h4c1.1,0,1.6.3,1.6.9a34.2,34.2,0,0,0-.4,6.2V29.1l-.3,11.7a29.5,29.5,0,0,0,6.4.8h.1v.9a1.8,1.8,0,0,0,.6,1A33.6,33.6,0,0,0,69.7,48l-.5.4H69a1.7,1.7,0,0,0-1.5-.5L57.4,46.4c-3.1,0-4.7-.1-4.7-.5a14.1,14.1,0,0,0,1.1-4.8h1.4a6.9,6.9,0,0,1,1.8-.5l.9.3h.7q.6,0,.6-1.2c.2-1.4.4-5.9.7-13.5-.3-2.5-.6-9.3-.8-20.4a.7.7,0,0,0-.6-.4H55.7c-.5,0-.7-.2-.7-.5.2-3.2.5-4.8.8-4.8ZM53.8,45.5h.6l-.2-.3H54Zm.8-3.1v.2h.2v-.4h-.3ZM55.8,3.1v.5l.2.2h1.7V3.6L56.6,3l-.4-.2h-.1ZM56,1.5h0a.5.5,0,0,0,.6.6h.3a1.7,1.7,0,0,0,1.3-.7H56Zm.3,40.7h0c0,.3.2.4.5.4h.1v-.4l-.3-.3h-.1Zm.7,2h1.1c.7,0,1,0,1-.2H57.3Zm.7-1.3h.9v-.2h-.5C57.8,42.7,57.7,42.8,57.7,42.9ZM59.5,1.6h1l.3-.2H59.6ZM60.2,38v.2c0,.3.1.5.2.5l.3-.4v-.4c-.1-.5-.2-.8-.3-.8S60.2,37.4,60.2,38Zm.2-19.9v.2h.3V18h-.1c0-.1.2-.3.5-.4h-.3A.7.7,0,0,0,60.4,18.1Zm.2-6.7h.3v-.2h-.3ZM60.8,8v.4H61V7.8h-.1Zm.5,17.9v.2h.1c.2,0,.4-.9.4-2.5C61.6,23.6,61.4,24.4,61.3,25.9Zm.2-22.1h0l.2.2h.2a3.4,3.4,0,0,1,1.4-.8,1.7,1.7,0,0,0,.3-.7V2.4h-.2c-.4,0-.7.3-1,.7S61.5,3.5,61.5,3.8Zm1.2,25V40.4h.5c.1,0,.2-.2.2-.6Q63.2,28.8,62.7,28.8Zm.7-12.4v2h.1c.2,0,.2-.3.2-.8v-1Zm-.1,2.5v.4h.1l.2-.2v-.3Zm0-3.3h0l.3.3h0v-.2h-.3Zm2.1,28.1h0c0,.3.7.4,2.1.4h1.4Zm1.5,1.8h1.5c.4,0,.6-.1.6-.2v-.2H67.7C67.2,45.2,66.9,45.3,66.9,45.5Zm1.4-3.4h0c.1.2.4.4,1,.4l.3-.2v-.3H68.3Zm0,4.6v.2h.9v-.2h-.9Z" transform="translate(-1.2 0)" style="fill:#b75326"/><path d="M105.4,9.1c1.1,0,4.1.6,9.2,1.9a18.4,18.4,0,0,0,4.2,1.6,2.9,2.9,0,0,0,.5-1.7h0v-.5c0-.5.4-.8,1.1-.8a4.1,4.1,0,0,1,2.1-.5c1.3,0,1.9.1,1.9.4l.6,5.8V17c0,1.5-.2,2.4-.7,2.7a1.4,1.4,0,0,1-.9.5c-2.2-.2-3.4-.5-3.4-.9a3.4,3.4,0,0,0-2.2-2.2c-3.9-2-6.8-2.9-8.5-2.9h-1.7c-2.1,0-3.3.4-3.7,1.1a4.5,4.5,0,0,0-.7,2.7h0a6.4,6.4,0,0,0,3.5,5.6,15.5,15.5,0,0,0,6.1,1.5c0,.4,1,.8,2.8,1.3a2.5,2.5,0,0,0,2.4,1c1.3.5,3.2,2,5.5,4.6l.3.4h0c0,.1-.2.2-.4.2h0a5.5,5.5,0,0,1,.8,2.1c0,3.8-.5,6.1-1.7,7.1a8.8,8.8,0,0,1-3.4,3.2,9,9,0,0,1-6,2.7h-2.1c-3.3-.5-4.9-.9-4.9-1.3a11.2,11.2,0,0,0-3.2-1.9,12.2,12.2,0,0,1-4.3-3h-.2q-.7,2.1-1.2,2.1c-2.6-.4-3.9-.8-3.9-1.3s-.4-2.4-.5-5.4l.6-3.8q0-2.1.6-2.1l3.9-.4c.3,0,.6,1.1.8,3.4l1.8,3.1a46.7,46.7,0,0,0,5.5,3.7,4.6,4.6,0,0,0,3.8,1.6h2.2c2.2,0,3.6-.7,4.5-2.2a8.6,8.6,0,0,0,2.1-4.4v-.2c0-1.2-1.1-2.7-3.2-4.5a4.6,4.6,0,0,0-3.5-1.6,25.4,25.4,0,0,0-5.5-1.1l-5-2.6-2.4-2a10.4,10.4,0,0,1-1.6-3.4v-1l-.2-2.4a3.1,3.1,0,0,1,1-2c0-.5,1-1.6,3-3.4a10.5,10.5,0,0,0,3.3-2.4ZM93.6,38v1.6h.1a6.4,6.4,0,0,0,.4-3v-.4L94,36h0C93.8,36,93.7,36.7,93.6,38Zm1.7,3.2v.3l.3.2h0l.2-.2h0l-.2-.3Zm.4-8.1v.2l.2.2.2-.2v-.2Zm2.5-16.4c.1.6.2,1.2.3,1.6h.3l-.2-1.6h-.4Zm.1,22.4v.3a2.6,2.6,0,0,0,1.8,1.1h.1v-.2q-1.4-1.2-1.8-1.2Zm.5-24-.2.4v.2h.2l.2-.6h-.2Zm.9,7.5h0l.2.2h.1v-.4Zm.2-5.3v.2h.1l.3-.2v-.2h-.2Zm.7-2.8h.3v-.2h-.3Zm.3,8.3h0c.3.9.6,1.4.8,1.4h.3l.3-.4h0c-.5-.8-1-1.1-1.4-1.1Zm.1-7.4h.3q1.5-.9,1.5-1.5h-.2c-.5,0-1,.5-1.6,1.5Zm1.5,6.9h0l.2.2h.6v-.2c0-.2-.2-.2-.6-.2Zm1.5.5h-.1v.3l.4.4h.3v-.3A.5.5,0,0,0,104,22.8Zm0,3.2h0c0,.3.3.5.9.7h0C104.9,26.4,104.6,26.2,104,26Zm.5,18.6h0c0,.1.5.3,1.6.6l.2.2h.3c-.1-.5-.2-.8-.4-.8Zm.6-34.6v.2c0,.2.2.3.8.4s1.7-.1,1.7-.4V10c0-.3-.6-.5-1.8-.5S105.3,9.7,105.1,10Zm.9,14.3h-.1a5.4,5.4,0,0,0,2.4,1.3v-.2Q108.4,25.2,106,24.3Zm.8-11.7a.7.7,0,0,0,.6.4,1.9,1.9,0,0,0,1.3-.7l-.3-.3h-.7Q106.8,12,106.8,12.6Zm.9,33.6h0l.2.2h.5a1,1,0,0,0-.7-.2Zm.4-.9v.3h.2l-.2-.2Zm.9,1.3a4.6,4.6,0,0,0,2.3.5h2.8v-.2c-.1-.3-1.5-.4-4.3-.4C109.3,46.4,109,46.4,109,46.6Zm.4-32.9c0,.3.8.4,2.2.5h0c0-.2-.6-.4-1.9-.7h0Zm0,12.1c0,.2,1.5.6,4.4,1.3h1a9.8,9.8,0,0,0-4.6-1.7Zm.7,1.8v.3l1.1.3h.6V28A4.9,4.9,0,0,0,110.1,27.6Zm4.6,18.8h0l.2.2h.2q1.2-.2,1.2-.3l-.2-.2h-1.2Zm.5-33.8h0c0,.2.3.3.8.4h.1Q116.1,12.8,115.2,12.6Zm.8,2.3h-.1a6.6,6.6,0,0,0,2.4,1.1h0C118.3,15.9,117.5,15.4,116,14.9Zm.2,13.6h0l3.3,1.9c.8.7,1.4,1.1,1.8,1.1h.1l.2-.2a10.1,10.1,0,0,0-4.8-2.9Zm1.4,12.9v.2h.1a2.7,2.7,0,0,0,1-1.1l-.2-.2A3.5,3.5,0,0,0,117.6,41.4Zm.6-9.2v.3c0,.4.4.9,1.1,1.5h.3v-.5c0-.5-.4-.9-1.3-1.3Zm.7,11.4h0c0,.1,0,.2.2.2s1.2-.7,2-2h-.2Zm0-29.1a6,6,0,0,0,2,.8h.1c0-.2-.6-.5-1.8-.8h-.1Zm.2,22.5v.3h.2l.2-.2V37Zm1.4-18.1a3.6,3.6,0,0,0,1.8.3h1.2v-.2l-2.2-.2h-.6Zm.7-9.1V10c.4.7.8,1.1,1.2,1.1s.5-.2.7-.6v-.3C123.1,10,122.5,9.8,121.2,9.8Zm1.2,27.7v.4h.3c.3-.1.4-.4.4-1h-.2Zm.8-25.5h.4v-.3h-.3Z" transform="translate(-1.2 0)" style="fill:#b75326"/><path d="M142,12.7a18,18,0,0,1,4.1.9c2.4,2.3,3.8,4,4.2,5.3s1.6,2.7,2.2,5.6c.7.6,1,2.1,1,4.4v1.5l-.2,6.1c0,1.2.7,2.8,2.2,4.7s2.3,2,2.7,2h0q0,.8-2.1,2.4c-1.1,1.1-1.8,1.6-2.1,1.6h0c-.6,0-2.3-1.2-5-3.6a73.8,73.8,0,0,0-7.3,2.9,19.3,19.3,0,0,1-5.5.7H136a11.5,11.5,0,0,1-5.7-2.6,23.2,23.2,0,0,1-1.7-3.1,4.8,4.8,0,0,1-1.2-3.3V36.4a6.3,6.3,0,0,1,1-3.2,15,15,0,0,1,2.8-4.8,4.2,4.2,0,0,1,1.9-1.5,14.3,14.3,0,0,1,6.4-1.7h3.1a5.7,5.7,0,0,1,3.4.7h.3a.3.3,0,0,0,.3-.3,18.6,18.6,0,0,0-2.2-5.6c-.9-1.5-2.6-2.2-5-2.2l-2.5-.3c-2.2.4-3.3.8-3.3,1.3a7.6,7.6,0,0,0-1.6,4.1c-.1.2-.8.3-2.2.3h-.4c-.2,0-.4.4-.6,1.1s-1.8-.4-1.8-.7a17.5,17.5,0,0,0,.5-4.5,10.8,10.8,0,0,1,4.7-5.2,7.6,7.6,0,0,1,2.1-1Zm-12.2,8.7v.9h0c.2,0,.3-.1.3-.4v-.5h-.3Zm.7-4.6h.1a3.4,3.4,0,0,0,1.6-1.1v-.3h-.1c-.4,0-.9.5-1.6,1.3Zm.8,24.8h.4l-.2-.2h-.2Zm.1,3.3h0c.2.4,1.2.9,3.1,1.5a8.7,8.7,0,0,0,2.5.4h0c0-.2-.8-.5-2.4-.8a14.3,14.3,0,0,1-2.8-1.3h-.2Zm.8-15.8v.2h.1a.8.8,0,0,0,.7-.4v-.2h-.1Zm0,5.5c.3,2.5.6,3.7,1,3.7l.6.8h-.5v.2a12.4,12.4,0,0,0,4.8,3,2.5,2.5,0,0,0,1.3.3c.8,0,3.6-1.2,8.5-3.6.3-.2.5-.4.5-.7V38a59.8,59.8,0,0,1-1-5.9h0c0-.4-.5-.8-1.4-1.1a32.2,32.2,0,0,0-6.2-1.3c-3.1.7-5.3,1.8-6.5,3.1A3.5,3.5,0,0,0,132.2,34.6ZM136,14.7v.2l.6.2a4.1,4.1,0,0,0,1.6-.4v-.2h-.3ZM138.1,44a.5.5,0,0,0,.5.3c.5,0,.7-.1.7-.3h0l-.2-.2h-.8Zm.6-27.5.3.3h.9l-.3-.3H139Zm2.3-2.4.3.2h.5l-.3-.3h-.3Zm2.2,29.1h.3a4.9,4.9,0,0,0,2.3-.7h-.2C144.2,42.6,143.4,42.9,143.2,43.2Zm2.6-28.8v.2a1.2,1.2,0,0,0,.8.4h.1c-.3-.3-.5-.5-.8-.5Zm3,21.2v.3l.2.3h.1l.2-.3v-.3h-.5Zm.1-2.1.2.2h.2v-.2h-.4Zm1.8-3v.2h0Zm0,1.3V32l.2.2v-.4Zm.1-3.3v.2c.2.6.3.9.5.9h.1a1.6,1.6,0,0,0-.4-1.2h-.2Zm.3,5h0c.1,1.5.2,2.3.5,2.3h.1a5.1,5.1,0,0,0-.4-2.2Zm.9,8.9a1,1,0,0,0,.5.6h.1l.2-.2v-.2l-.3-.3H152Zm.3-16.2h0c.1.4.1.5.3.5v-.3q-.1-.3-.3-.3Zm1.2,17.4h0l.2.3h.3v-.2h0l-.3-.3h-.2Zm.5-2.3v.4c.1.5.3.7.5.7h.2c-.2-.7-.4-1-.6-1Z" transform="translate(-1.2 0)" style="fill:#b75326"/><path d="M170.6,9.1c1.1,0,4.1.6,9.2,1.9a18.4,18.4,0,0,0,4.2,1.6,2.9,2.9,0,0,0,.4-1.7h0v-.5c0-.5.3-.8,1.1-.8a4.1,4.1,0,0,1,2.1-.5c1.2,0,1.9.1,1.9.4l.5,5.8V17q0,2.3-.6,2.7a2.1,2.1,0,0,1-.9.5c-2.2-.2-3.4-.5-3.4-.9a3.4,3.4,0,0,0-2.2-2.2c-3.9-2-6.8-2.9-8.5-2.9h-1.7c-2.1,0-3.3.4-3.7,1.1a4.5,4.5,0,0,0-.7,2.7h0a6.2,6.2,0,0,0,3.5,5.6,15.5,15.5,0,0,0,6.1,1.5c0,.4.9.8,2.8,1.3a2.5,2.5,0,0,0,2.4,1c1.3.5,3.2,2,5.5,4.6l.2.4h0c0,.1-.1.2-.3.2h0a5.5,5.5,0,0,1,.8,2.1c0,3.8-.6,6.1-1.7,7.1a8.8,8.8,0,0,1-3.4,3.2,9,9,0,0,1-6,2.7h-2.1c-3.3-.5-4.9-.9-4.9-1.3-1.8-1.3-2.9-1.9-3.3-1.9a12.6,12.6,0,0,1-4.2-3h-.2q-.7,2.1-1.2,2.1c-2.7-.4-4-.8-4-1.3a31.5,31.5,0,0,1-.4-5.4l.6-3.8q0-2.1.6-2.1l3.9-.4c.3,0,.5,1.1.8,3.4l1.8,3.1a46.7,46.7,0,0,0,5.5,3.7,4.6,4.6,0,0,0,3.8,1.6h2.2a4.8,4.8,0,0,0,4.5-2.2,7.9,7.9,0,0,0,2-4.4v-.2c0-1.2-1-2.7-3.1-4.5a4.6,4.6,0,0,0-3.5-1.6,25.4,25.4,0,0,0-5.5-1.1l-5-2.6-2.4-2a10.4,10.4,0,0,1-1.6-3.4v-1l-.3-2.4a3.4,3.4,0,0,1,1.1-2c0-.5,1-1.6,3-3.4s2.9-1.8,3.2-2.4ZM158.8,38v1.6h.1a6.4,6.4,0,0,0,.4-3v-.4l-.2-.2h-.1A5.5,5.5,0,0,0,158.8,38Zm1.7,3.2v.3l.3.2h0l.2-.2h0l-.2-.3Zm.4-8.1v.2l.2.2.2-.2v-.2Zm2.5-16.4c.1.6.2,1.2.3,1.6h.2V16.6h-.4Zm.1,22.4v.3a2.6,2.6,0,0,0,1.8,1.1h.1v-.2q-1.3-1.2-1.8-1.2Zm.4-24v.6h.1l.3-.6h-.3Zm1,7.5h0l.2.2h.1v-.4Zm.2-5.3v.2h.1l.3-.2v-.2h-.2Zm.7-2.8h.3v-.2h-.3Zm.3,8.3h0c.3.9.6,1.4.8,1.4h.2l.4-.4h0c-.5-.8-1-1.1-1.4-1.1Zm.1-7.4h.3c1-.6,1.4-1.1,1.4-1.5h-.1c-.5,0-1,.5-1.6,1.5Zm1.5,6.9h0l.2.2h.6v-.2c0-.2-.3-.2-.6-.2Zm1.5.5h-.1v.3l.4.4h.3v-.3A.5.5,0,0,0,169.2,22.8Zm0,3.2h0c0,.3.3.5.8.7h.1C170.1,26.4,169.8,26.2,169.2,26Zm.4,18.6h0l1.7.6.2.2h.3c-.1-.5-.2-.8-.4-.8Zm.7-34.6v.2c0,.2.2.3.8.4s1.7-.1,1.7-.4V10c0-.3-.6-.5-1.8-.5S170.5,9.7,170.3,10Zm.9,14.3h-.1a5.4,5.4,0,0,0,2.4,1.3v-.2Q173.6,25.2,171.2,24.3Zm.8-11.7a.7.7,0,0,0,.6.4,1.9,1.9,0,0,0,1.3-.7l-.3-.3h-.7Q172,12,172,12.6Zm.8,33.6h0l.3.2h.5a1,1,0,0,0-.7-.2Zm.4-.9v.3h.3l-.2-.2Zm1,1.3a4.6,4.6,0,0,0,2.3.5h2.8v-.2c-.1-.3-1.6-.4-4.3-.4C174.5,46.4,174.2,46.4,174.2,46.6Zm.4-32.9c0,.3.7.4,2.2.5h0c0-.2-.6-.4-1.9-.7h-.1Zm0,12.1c0,.2,1.5.6,4.4,1.3h1a9.8,9.8,0,0,0-4.6-1.7Zm.7,1.8v.3l1.1.3h.6V28A4.9,4.9,0,0,0,175.3,27.6Zm4.6,18.8h0l.2.2h.2q1.2-.2,1.2-.3l-.2-.2h-1.2Zm.5-33.8h0c0,.2.3.3.8.4h.1Zm.8,2.3h-.1a6,6,0,0,0,2.4,1.1h0C183.5,15.9,182.7,15.4,181.2,14.9Zm.2,13.6h0l3.3,1.9c.8.7,1.4,1.1,1.8,1.1h.1l.2-.2a10.1,10.1,0,0,0-4.8-2.9Zm1.4,12.9v.2h.1a2.7,2.7,0,0,0,1-1.1l-.2-.2A3.5,3.5,0,0,0,182.8,41.4Zm.6-9.2v.3c0,.4.4.9,1.1,1.5h.3v-.5c0-.5-.4-.9-1.3-1.3Zm.6,11.4h0c0,.1.1.2.3.2s1.2-.7,2-2h-.2Zm.1-29.1a6,6,0,0,0,2,.8h.1c0-.2-.6-.5-1.8-.8h-.1Zm.2,22.5v.3h.2l.2-.2V37Zm1.4-18.1a3.6,3.6,0,0,0,1.8.3h1.2v-.2l-2.3-.2h-.5Zm.7-9.1V10c.4.7.8,1.1,1.2,1.1s.5-.2.7-.6v-.3C188.3,10,187.7,9.8,186.4,9.8Zm1.2,27.7v.4h.3c.3-.1.4-.4.4-1h-.2Zm.8-25.5h.4v-.3h-.3Z" transform="translate(-1.2 0)" style="fill:#b75326"/><path d="M204.7,9.1c1.1,0,4.1.6,9.2,1.9a18.4,18.4,0,0,0,4.2,1.6,2.9,2.9,0,0,0,.5-1.7h0v-.5c0-.5.3-.8,1.1-.8a4.1,4.1,0,0,1,2.1-.5c1.3,0,1.9.1,1.9.4l.6,5.8V17c0,1.5-.3,2.4-.7,2.7a2.1,2.1,0,0,1-.9.5c-2.2-.2-3.4-.5-3.4-.9a3.4,3.4,0,0,0-2.2-2.2c-3.9-2-6.8-2.9-8.5-2.9h-1.7c-2.1,0-3.3.4-3.7,1.1a4.5,4.5,0,0,0-.7,2.7h0a6.2,6.2,0,0,0,3.5,5.6A15.5,15.5,0,0,0,212,25c0,.4.9.8,2.8,1.3a2.5,2.5,0,0,0,2.4,1c1.3.5,3.2,2,5.5,4.6l.3.4h0c0,.1-.2.2-.4.2h0a5.5,5.5,0,0,1,.8,2.1c0,3.8-.6,6.1-1.7,7.1a8.8,8.8,0,0,1-3.4,3.2,9,9,0,0,1-6,2.7h-2.1c-3.3-.5-4.9-.9-4.9-1.3a11.2,11.2,0,0,0-3.2-1.9,12.2,12.2,0,0,1-4.3-3h-.2q-.7,2.1-1.2,2.1c-2.6-.4-4-.8-4-1.3A31.5,31.5,0,0,1,192,37l.6-3.8q0-2.1.6-2.1l3.9-.4c.3,0,.6,1.1.8,3.4l1.8,3.1a46.7,46.7,0,0,0,5.5,3.7,4.6,4.6,0,0,0,3.8,1.6h2.2a4.8,4.8,0,0,0,4.5-2.2,8.6,8.6,0,0,0,2.1-4.4v-.2c0-1.2-1.1-2.7-3.2-4.5a4.6,4.6,0,0,0-3.5-1.6,25.4,25.4,0,0,0-5.5-1.1l-5-2.6-2.4-2a10.4,10.4,0,0,1-1.6-3.4v-1l-.2-2.4a3.1,3.1,0,0,1,1-2c0-.5,1-1.6,3-3.4s2.9-1.8,3.2-2.4ZM192.9,38v1.6h.1a6.4,6.4,0,0,0,.4-3v-.4l-.2-.2h-.1A5.5,5.5,0,0,0,192.9,38Zm1.7,3.2v.3l.3.2h0l.2-.2h0l-.2-.3Zm.4-8.1v.2l.2.2.2-.2v-.2Zm2.5-16.4c.1.6.2,1.2.3,1.6h.3l-.2-1.6h-.4Zm.1,22.4v.3a2.6,2.6,0,0,0,1.8,1.1h.1v-.2q-1.4-1.2-1.8-1.2Zm.5-24-.2.4v.2h.2l.2-.6h-.2Zm.9,7.5h0l.2.2h.1v-.4Zm.2-5.3v.2h.1l.3-.2v-.2h-.2Zm.7-2.8h.3v-.2h-.3Zm.3,8.3h0c.3.9.6,1.4.8,1.4h.3l.3-.4h0c-.5-.8-1-1.1-1.4-1.1Zm.1-7.4h.3q1.5-.9,1.5-1.5h-.2c-.5,0-1,.5-1.6,1.5Zm1.5,6.9h0l.2.2h.6v-.2c0-.2-.3-.2-.6-.2Zm1.5.5h-.1v.3l.4.4h.3v-.3A.5.5,0,0,0,203.3,22.8Zm0,3.2h0c0,.3.3.5.8.7h.1C204.2,26.4,203.9,26.2,203.3,26Zm.4,18.6h0l1.7.6.2.2h.3c-.1-.5-.2-.8-.4-.8Zm.7-34.6v.2c0,.2.2.3.8.4s1.7-.1,1.7-.4V10c0-.3-.6-.5-1.8-.5S204.6,9.7,204.4,10Zm.9,14.3h-.1a5.4,5.4,0,0,0,2.4,1.3v-.2Q207.7,25.2,205.3,24.3Zm.8-11.7a.7.7,0,0,0,.6.4,1.9,1.9,0,0,0,1.3-.7l-.3-.3H207Q206.1,12,206.1,12.6Zm.8,33.6h0l.3.2h.5a1,1,0,0,0-.7-.2Zm.4-.9v.3h.3l-.2-.2Zm1,1.3a4.6,4.6,0,0,0,2.3.5h2.8v-.2c-.1-.3-1.5-.4-4.3-.4C208.6,46.4,208.3,46.4,208.3,46.6Zm.4-32.9c0,.3.7.4,2.2.5h0c0-.2-.6-.4-1.9-.7h-.1Zm0,12.1c0,.2,1.5.6,4.4,1.3h1a9.8,9.8,0,0,0-4.6-1.7Zm.7,1.8v.3l1.1.3h.6V28A4.9,4.9,0,0,0,209.4,27.6ZM214,46.4h0l.2.2h.2q1.2-.2,1.2-.3l-.2-.2h-1.2Zm.5-33.8h0c0,.2.3.3.8.4h.1Zm.8,2.3h-.1a6,6,0,0,0,2.4,1.1h0C217.6,15.9,216.8,15.4,215.3,14.9Zm.2,13.6h0l3.3,1.9c.8.7,1.4,1.1,1.8,1.1h.1l.2-.2a10.1,10.1,0,0,0-4.8-2.9Zm1.4,12.9v.2h.1a2.7,2.7,0,0,0,1-1.1l-.2-.2A3.5,3.5,0,0,0,216.9,41.4Zm.6-9.2v.3c0,.4.4.9,1.1,1.5h.3v-.5c0-.5-.4-.9-1.3-1.3Zm.7,11.4h0c0,.1,0,.2.2.2s1.2-.7,2-2h-.2Zm0-29.1a6,6,0,0,0,2,.8h.1c0-.2-.6-.5-1.8-.8h-.1Zm.2,22.5v.3h.2l.2-.2V37Zm1.4-18.1a3.6,3.6,0,0,0,1.8.3h1.2v-.2l-2.2-.2H220Zm.7-9.1V10c.4.7.8,1.1,1.2,1.1s.5-.2.7-.6v-.3C222.4,10,221.8,9.8,220.5,9.8Zm1.2,27.7v.4h.3c.3-.1.4-.4.4-1h-.2Zm.8-25.5h.4v-.3h-.3Z" transform="translate(-1.2 0)" style="fill:#b75326"/><path d="M236.6,17.8c.5,2.6.5,3.9-.1,3.9s.1,2.4,2.2,7.1a40,40,0,0,0,2.2,5c1.1,2.9,1.9,4.4,2.3,4.4s.3.2.7.8h.7c.4,0,1.2-1.8,2.3-5.4,4.3-7.9,5.3-11.7,3.1-11.2a22.2,22.2,0,0,0,.2-4.3l.3-.2c5.3.1,8,.3,8,.6s.3,1.1.3,3.2-.6,1.8-1.1,1.8-1,0-.5.2h-.4c-1.6,2.7-2.4,4.5-2.4,5.3a11.6,11.6,0,0,1-1.9,4.3,74.1,74.1,0,0,1-3,7.6,10.9,10.9,0,0,0-.8,3.2L246,48.5a32.4,32.4,0,0,1-5.3,8.3l-2.9,2a15.3,15.3,0,0,1-3,.5c-3,0-4.6-.3-4.6-.9s-.5-.8-.8-1.8-1.3-2.6-2.2-6.4h0q0-.6,1.2-.6a10.6,10.6,0,0,0,3.7-1.2c.5,0,1.3,1.9,2.2,5.7.3.9.6,1.3.7,1.3h.5c.4-.1.7-.6,1-1.5s1-1,2.5-3.2a24.3,24.3,0,0,1,2-3.6V45a5.8,5.8,0,0,0-1.3-2.8c-.9-1.6-1.5-2.9-2-3.9a97.3,97.3,0,0,0-6.5-14.5l-.6-.2h-4V18.8l1.1-.4,6.1-.6h2.9Zm-9.2,4h-.1v.4l.2.3h.9l1.2-.3C229.6,22,228.9,21.9,227.4,21.8Zm2.5,28.7a3.4,3.4,0,0,1,.6,1.2l.4.5h.3v-.2a2.3,2.3,0,0,0-.8-1.6h-.3Zm1.3,2.9h0a1.1,1.1,0,0,0,.5,1h.1v-.2a.8.8,0,0,0-.5-.8Zm1.4,2.3v.2l.3.3h.5l.2-.2c0-.1-.2-.3-.6-.3Zm.3-33.1a3.2,3.2,0,0,0,.9,1.9h0v-.7a1.7,1.7,0,0,0-.5-1.4H233Zm.8,35c.1.3.4.4.8.4h1v-.2c0-.1-.2-.2-.8-.3h-.9Zm2.2-.8,1.1.8h.3c.2,0,.2-.2.2-.4v-.4c0-.1-.2-.2-.4-.2h-.6C236.1,56.6,235.9,56.7,235.9,56.8Zm2.3-20.9h0v.2h.1l.2-.2h0l-.3-.2Zm0,18.3h0q.6,0,1.2-1.5h-.1A2,2,0,0,0,238.2,54.2Zm.4-21h0a14.2,14.2,0,0,0,1.5,3.6h.1c-.8-2.4-1.3-3.6-1.6-3.6Zm.5,23.1h.2a3.9,3.9,0,0,0,2-1.7.9.9,0,0,0-.6-.3h-.2q-.6,0-.9,1.2Zm.9-18.9h0l.4.4c.1,0,.2-.1.2-.3a.8.8,0,0,0-.4-.4h0Zm2.4,7.5h0c.4,0,.5-.1.5-.4v-.4h-.2C242.5,44.3,242.4,44.5,242.4,44.9Zm1.2,4.9.2.2a1.4,1.4,0,0,0,.5-.9h-.1Zm1.1-3V47h.3c.3,0,.9-1.1,1.7-3.1h0C246.2,43.8,245.5,44.8,244.7,46.8Zm.6-4h.3c.7,0,1.5-1.9,2.6-5.9q0-.1.6-.6a1,1,0,0,1,.3-.8h0V35c.6-1.1-.2.1-2.2,3.9a15.1,15.1,0,0,1-1.5,3.6Zm4.2-4.1h0c.7,0,1.2-1.6,1.6-4.7h0q-.3,0-.6,1.5A10.8,10.8,0,0,0,249.5,38.7Zm2-19.3,1.4.6.9-.2H255c0-.2-.4-.3-1.3-.3h-.9c-.4,0-.5,0-.5.1Zm2.6,5.7c-1.5,3.1-2.3,4.7-2.6,4.9v.4a2.1,2.1,0,0,0,.5.9l-.4,1.2h.2a33.8,33.8,0,0,0,2.4-6.4v-1Zm.2-1.8v.3h.3v-.3Zm.4-1.9v.2c.1.3.3.4.7.4h.1v-.3l-.4-.4h-.3Zm1,.1v.2l.2.2h.1c1.4-.3,2.1-.6,2.1-.8h0l-.2-.2h-.2C256.5,21,255.8,21.2,255.7,21.5Zm.7-2h0l.4.4,1.1-.2v-.2c0-.1-.2-.2-.4-.2h-.9Z" transform="translate(-1.2 0)" style="fill:#b75326"/><path d="M267.2,39.1c.9.3,2,1.4,3.4,3.3h0c0,.5-1.1,1.8-3.4,3.7h0l1,.2h0l-1,.2a7.7,7.7,0,0,1-4-1.7,3.4,3.4,0,0,1-.8-1.9c0-1.7,1.2-3,3.6-3.8Zm.1-37.2h.4a3.5,3.5,0,0,1,2.9,1.4V8.4l.4,8.2a21.6,21.6,0,0,1-.8,6.7v1l.2.8-.3,1.2v.8a3.6,3.6,0,0,0,.4,1.9c-.2.9-.3,1.4-.5,1.4h-.1l-.5-.2c-1.6,1-2.4,1.5-2.4,1.7h.1c1.8-.2,2.7-.4,2.7-.7h.3l.4.3c0,.7-1.8,1.2-5.2,1.5-.2,0-.3-.1-.5-.3s.3-.5.9-.5h.2V32c0-.1-.3-.2-.8-.5v-.4q0-.3.9-.6a1.3,1.3,0,0,0,.3-.7h0l-1.4-.3c-.2,0-.4-5.1-.7-15.2a54.6,54.6,0,0,1-.2-6.3V6.2a1.9,1.9,0,0,1,.9-1.7L264,3.4c0-.2.2-.4.7-.4h.1V2.6h-.1C264.7,2.1,265.6,1.9,267.3,1.9Zm-2.9,40.6.2.3h.2v-.5l-.2-.2A.6.6,0,0,0,264.4,42.5Zm.4-34.2h-.1V9.7h.1V9C265,8.5,264.9,8.3,264.8,8.3Zm0,2.1V14h.3a7.8,7.8,0,0,0,.2-2.1l-.3-1.5h-.2Zm0,4.5v.3h.2l.2-.2v-.3H265Zm.7-11.6h0v.2h.3V3.4h-.5Zm.2,19.4v3.2c0,.7.1,1,.2,1s1-.9,1-1.4v-.3c0-.1-.1-.2-.4-.3s-.2-.6-.3-1.7V23h-.1C265.9,22.7,265.8,22.7,265.7,22.7Zm.2,5.1h.1a.6.6,0,0,0,.3-.6h-.1Q265.9,27.2,265.9,27.8Zm.4,14.3v.3h.3c.6-.1.8-.2.8-.4h-.6C266.5,41.9,266.3,42,266.3,42.1Zm.2-26.4h0v.2h.3v-.5h-.1Zm.1,2.9v.2h.1c.1,0,.2-.3.2-1V16.5C266.8,16.5,266.7,17.2,266.6,18.6Zm.1,22.1c0,.2.5.4,1.3.4h.1v-.2q0-.1-.9-.3h-.5Zm.4-15.6v.2h.1l.2-.2v-.3h-.2Zm0,18.2h0v.2h.2l.2-.2v-.2h-.3Zm.6-36.6h-.1v3.8c0,1.3.1,2,.4,2h0V9.8a1.6,1.6,0,0,1,.4-1.2h0c-.4,0-.5-.6-.5-1.7h-.2Zm0-.8h-.1l.3.2h.2V6Zm.7,22.8v.2h.1a1,1,0,0,0,1.2-.9v-.2l-.2-.2h-.1C269.2,27.6,268.9,28,268.4,28.7Zm.2-14.9v.4l.2.2h.1V13.3h-.1C268.6,13.4,268.6,13.5,268.6,13.8Zm.2-9.4h0c0,.4.1.7.3.7h.1c.2,0,.3-.3.4-1s-.1-.3-.3-.4S268.8,4,268.8,4.4Zm.3,12.4v.4h.1l.3-.3v-.2Z" transform="translate(-1.2 0)" style="fill:#231f20"/></g></g></svg>