<svg xmlns="http://www.w3.org/2000/svg" viewBox="0 0 540.6 59.5"><title>icn_rotator_Asset 41_adj</title><g id="Layer_2" data-name="Layer 2"><g id="Layer_1-2" data-name="Layer 1"><path d="M13.7,9.3a58.6,58.6,0,0,1,9.2,1.9A20.8,20.8,0,0,0,27,12.8a2.2,2.2,0,0,0,.5-1.7h0v-.4c0-.6.4-.8,1.2-.8a3.3,3.3,0,0,1,2.1-.6c1.2,0,1.8.2,1.8.4l.6,5.9v1.7q0,2.3-.6,2.7a1.4,1.4,0,0,1-.9.5c-2.3-.1-3.4-.5-3.4-.9A4,4,0,0,0,26,17.3c-4-1.9-6.8-2.9-8.5-2.9H15.7q-3,0-3.6,1.2a4,4,0,0,0-.8,2.6h0c0,2.2,1.2,4.1,3.6,5.6A17.1,17.1,0,0,0,21,25.2c0,.4.9.8,2.8,1.4a2.7,2.7,0,0,0,2.4.9c1.3.5,3.1,2.1,5.5,4.7l.2.3v.2h-.3a8.5,8.5,0,0,1,.8,2.2c0,3.7-.6,6-1.8,7s-1.6,2.1-3.3,3.2a9,9,0,0,1-6,2.7H19.2c-3.3-.5-4.9-.9-4.9-1.2-1.9-1.3-2.9-2-3.3-2a12.6,12.6,0,0,1-4.2-3H6.6C6,43.2,5.6,44,5.3,44c-2.6-.4-3.9-.9-3.9-1.4A29.3,29.3,0,0,1,1,37.2l.6-3.8c0-1.4.2-2.1.5-2.1L6,30.9c.3,0,.6,1.1.9,3.4l1.8,3.1c0,.2,1.8,1.4,5.4,3.8A5.3,5.3,0,0,0,18,42.7h2.2c2.1,0,3.6-.7,4.4-2.1a9.4,9.4,0,0,0,2.1-4.5v-.2c0-1.2-1-2.7-3.1-4.5a4.5,4.5,0,0,0-3.5-1.5,19.7,19.7,0,0,0-5.5-1.2l-5-2.6-2.4-2c-1-1.6-1.6-2.7-1.6-3.4v-1l-.2-2.4a3.7,3.7,0,0,1,1.1-2c0-.5,1-1.6,3-3.4s2.9-1.7,3.2-2.4ZM1.9,38.3v1.5H2c.3-.2.4-1.2.4-3v-.6H2.2A5.8,5.8,0,0,0,1.9,38.3Zm1.7,3.2v.2l.3.2h.2l-.2-.2ZM4,33.3v.2l.2.2.2-.2v-.2ZM6.5,16.9l.3,1.7H7V16.8H6.5Zm.1,22.4v.3a2.4,2.4,0,0,0,1.8,1.2h0v-.2c-.8-.9-1.4-1.3-1.7-1.3Zm.4-24v.5h0v.2l.3-.6H7Zm1,7.5H8V23h.2v-.2l-.2-.2Zm.1-5.3v.2h.2l.2-.2v-.2H8.4Zm.7-2.8h.4v-.2H8.8ZM9.2,23h0c.3.9.5,1.4.8,1.4h.2l.3-.3h0C10,23.4,9.6,23,9.2,23Zm.1-7.4h.3c1-.6,1.4-1.2,1.4-1.6h-.2c-.4,0-.9.5-1.5,1.4Zm1.5,6.9h0v.2h.7v-.2a1,1,0,0,0-.7-.2Zm1.5.5h-.1v.4l.4.4h.1l.2-.2v-.3A.7.7,0,0,0,12.3,23Zm0,3.2h0c0,.2.3.4.8.7h.1C13.2,26.7,12.9,26.5,12.3,26.2Zm.4,18.6h0c0,.2.6.4,1.7.6l.2.2h.3c-.1-.5-.2-.8-.4-.8Zm.6-34.5v.2c0,.1.3.3.8.4s1.7-.2,1.7-.4v-.2c0-.4-.6-.5-1.7-.5A.8.8,0,0,0,13.3,10.3Zm1,14.2h-.1a5.5,5.5,0,0,0,2.3,1.2l.2-.2Q16.7,25.4,14.3,24.5Zm.8-11.6.6.3a1.7,1.7,0,0,0,1.3-.7l-.3-.3H16C15.4,12.2,15.1,12.4,15.1,12.9Zm.8,33.5h0l.2.3h.5q0-.3-.6-.3Zm.4-.8v.3h.2v-.2h-.2Zm1,1.2a4.6,4.6,0,0,0,2.3.5h2.8c-.2-.4-1.6-.5-4.3-.5C17.5,46.6,17.3,46.7,17.3,46.8Zm.4-32.9c0,.3.7.5,2.2.5h0c0-.2-.6-.4-1.9-.6h-.1Zm0,12.1c0,.2,1.4.7,4.4,1.3h1a9.8,9.8,0,0,0-4.6-1.7Zm.7,1.8v.3l1,.3h.7v-.2A5.4,5.4,0,0,0,18.4,27.8ZM23,46.6v.2h.4c.8-.1,1.1-.2,1.1-.3v-.2H23.2Zm.5-33.8h0c0,.1.2.2.7.3h.2Zm.7,2.3h-.1a7,7,0,0,0,2.5,1.2h0C26.6,16.1,25.8,15.7,24.2,15.1Zm.3,13.6h0a13.7,13.7,0,0,0,3.2,1.9,3.8,3.8,0,0,0,1.9,1.1h.1v-.2A9.2,9.2,0,0,0,25,28.7Zm1.4,12.9v.2H26a2.2,2.2,0,0,0,.9-1v-.2A3,3,0,0,0,25.9,41.6Zm.6-9.2v.4c0,.4.4.9,1.1,1.4h.3v-.5c0-.5-.4-.9-1.3-1.3Zm.6,11.5h.2c.6,0,1.3-.7,2.1-2h-.2Zm.1-29.2a4,4,0,0,0,2,.8h.1c0-.3-.6-.6-1.9-.9h-.1Zm.1,22.5v.4h.4v-.3Zm1.5-18.1a3.4,3.4,0,0,0,1.7.3h1.3v-.3h-3Zm.6-9v.2c.5.7.9,1,1.2,1a.9.9,0,0,0,.8-.6v-.2C31.4,10.2,30.7,10.1,29.4,10.1Zm1.3,27.6v.4l.2.2H31c.3-.1.4-.5.4-1.1h-.2Zm.8-25.5h.4V12h-.3Z" transform="translate(-1 0)" style="fill:#b75326"/><path d="M35,15.3a14.6,14.6,0,0,0,2.9.2H43v.2a8.2,8.2,0,0,0-.3,1.8v1.1c.1,1.1.4,1.7.9,1.7A5,5,0,0,1,46.2,19a20.5,20.5,0,0,1,8.2-2.2,7.2,7.2,0,0,1,4.5,1.9,7.8,7.8,0,0,1,3.4,2.8A17.3,17.3,0,0,1,64.8,31v.5L64.4,36l.4,3.2-.6,2.9h0v.5h3.3a3.1,3.1,0,0,1,1.3.2c-.2,3-.5,4.5-1,4.5a4.4,4.4,0,0,1-2.6.7H64a29.3,29.3,0,0,0-6.2.8c-1.4-.2-2.2-.9-2.2-2.2V44.7a3.8,3.8,0,0,1,1.1-3,40.4,40.4,0,0,1,1.3-5.5l.4-5.5c.1,0,.1-.5.1-1.4s-.8-2.6-2.6-4.7a9.3,9.3,0,0,0-2.4-.9,8.9,8.9,0,0,0-6.4,3c-.1,0-1.1,1.1-3,3.1-.6.4-.9,1.8-.9,4.1.1,4.2.2,6.2.5,6.2s2.4.6,2.4,1v.3l-1.4-.2-.9.2v.2a8.1,8.1,0,0,0,2.4.6,2.6,2.6,0,0,1,.4,1.4h0a7.3,7.3,0,0,1-.7,3.1l-7.1.2a1.6,1.6,0,0,1-1.6-1.1,25.5,25.5,0,0,1-.5-4.5c0-.3.6-.5,1.8-.8l.3-.4h0a1.7,1.7,0,0,0-.5-1V33.7l.2-5.7c0-3.9-.2-5.8-.5-5.8h-.3l-2.9.4c-.3,0-.7-.3-1.2-.8v-.3a1.5,1.5,0,0,0,.3-1V18.3l1-2.8Zm-.4,4.2h0l.4.3a2.5,2.5,0,0,0,1.1-.5h-1C34.8,19.3,34.6,19.4,34.6,19.5Zm.5-2.2v.2c0,.1.3.2.9.2,2.7,0,4.1-.2,4.1-.5l.2-.4h-.1Zm.1,4.2h.6l.2-.2h-.3C35.4,21.2,35.2,21.3,35.2,21.5Zm1.1-2.6.2.2h.1c.6-.1.8-.2.8-.4h-.2C36.6,18.7,36.3,18.7,36.3,18.9Zm.6,1.4h1.4c.4,0,.6.1.7.3v.2a.9.9,0,0,0-.3.6,1,1,0,0,0,.7.2c.2,0,.2,0,.2-.2V19.1h-.2l-2.4,1h-.1Zm.5,21.5h0c.1.7.4,1.1.9,1.1h.3l.2-.2h0a1.7,1.7,0,0,1-.6-1.1h-.6Zm1.7-19V23h.2v-.8h-.1C39.2,22.2,39.2,22.4,39.1,22.8Zm1.1,21.7c0,.2.5.3,1.6.3s3-.1,3-.3-.7-.4-2-.4S40.3,44.2,40.2,44.5ZM41,20.4v1.5a2.2,2.2,0,0,1-.2,1v.3l.2.9v.5a.9.9,0,0,0,.3.7c.1,0,.2-.5.4-1.4s.9-.8.9-1.1a4.2,4.2,0,0,0-.7-1.3c-.1-.7-.3-1.1-.5-1.1Zm.8,3.9v.4a1.1,1.1,0,0,1-.5,1,.9.9,0,0,1,.3.6c0,2.1.1,3.1.4,3.1h.1a7.5,7.5,0,0,0,.4-2.9c0-1.5-.2-2.3-.5-2.4H42A.2.2,0,0,0,41.8,24.3ZM43.5,21v.2a2.6,2.6,0,0,0,1.9-1.1h-.2A2.8,2.8,0,0,0,43.5,21Zm.1,3.5v.2A10.6,10.6,0,0,0,48,22h-.4a3.6,3.6,0,0,0-1.4.9C44.4,23.4,43.6,23.9,43.6,24.5Zm.4,1.6v.2h.2v-.2H44Zm1.4-.2h.4l.2-.7h-.2Zm1.2-.9h.2c.6-.6,1-1,1-1.4h-.2C47.3,23.6,46.9,24.1,46.6,25Zm.5-5.5h.1q.6-.2.6-.3h-.2C47.3,19.2,47.1,19.3,47.1,19.5Zm1.1-.6.2.2c1.9-.5,2.9-.9,2.9-1.1h-.1a5.8,5.8,0,0,0-3,.9Zm.4,5.4c.8-.2,1.3-.5,1.3-.8h-.3C49,23.4,48.6,23.7,48.6,24.3Zm2.8-3.6v.2h.4c.6-.1.9-.2.9-.4h-.4C51.7,20.4,51.4,20.6,51.4,20.7Zm1-3h0a3.6,3.6,0,0,1,1.5.8h2.8v-.2c-.1-.2-.4-.3-.8-.3h-.2l-.6.2a4.5,4.5,0,0,0-2-.9A.8.8,0,0,0,52.4,17.7Zm.1,4.4h.2c.9,0,1.4-.1,1.4-.3h-.6C52.9,21.8,52.5,21.9,52.5,22.1Zm2.2,1.1v.2h1.5l.2-.2V23l-.2-.2h-.4C55.1,22.9,54.7,23.1,54.7,23.2Zm1.2-2.7c0,.2.4.4,1.1.4s.4-.3.4-.5-.4-.4-1.1-.5A.8.8,0,0,0,55.9,20.5Zm.6,27.2h0c0,.3.5.4,1.6.4H59a3,3,0,0,0-2-.6h-.3Zm.2-3V45l.2.2H57l.2-.2h0l-.3-.3Zm.2-23.2h-.1l.2.2h.1l.2-.2Zm1.2-1.1a.5.5,0,0,0,.5.3H59l.2-.3h0q0-.3-.6-.3h-.3Zm.1,1.7v.2a7.2,7.2,0,0,0,.9,1.6c0,.4,0,.6.2.6l.2-.2v-.4a2.4,2.4,0,0,0-1.2-1.8Zm0,24.2c.2.3.4.5.7.5a11.8,11.8,0,0,0,3.4-.4,2,2,0,0,0-1.6-.6C59,45.9,58.2,46,58.2,46.3Zm.7-7.5a1.8,1.8,0,0,1,.3,1.1h.2V38.1C59.1,38.1,58.9,38.3,58.9,38.8Zm.3-13.7v.3a17.1,17.1,0,0,0,1,2.8v-1C60,25.8,59.6,25.1,59.2,25.1Zm0,12.6h.2c.1,0,.2-.2.2-.6v-.7h-.1Q59.4,36.5,59.2,37.7Zm2.1,4.8v.2l.2.2h.3l-.3-.2Zm.1-1.1h.1l.2-.7v-.2h-.1C61.5,40.6,61.4,40.9,61.4,41.4Zm.1-3.2v.2h.1v-.2Zm0-4.9h0l.3.7h.3C62,33.6,61.9,33.3,61.5,33.3Zm.4-8c.1,2.1.3,3.2.7,3.2h.1c-.2-2.1-.4-3.2-.7-3.2ZM63,38.4v2.8H63a2.7,2.7,0,0,0,.7-1.8h0C63.7,38.8,63.5,38.4,63,38.4Zm1.9,5.5h0c1.8,0,2.8-.1,2.8-.4h-.9C65.5,43.5,64.9,43.7,64.9,43.9Zm.6,1.2v.2c0,.2.2.3.5.3s1.1-.1,1.2-.4V45c-.1-.2-.3-.3-.7-.3h-.3C65.8,44.7,65.5,44.8,65.5,45.1Z" transform="translate(-1 0)" style="fill:#b75326"/><path d="M85.9,12.9a18,18,0,0,1,4.1.9c2.4,2.3,3.9,4.1,4.3,5.3s1.6,2.8,2.1,5.6c.7.7,1,2.1,1,4.4v1.5l-.2,6.2c0,1.1.7,2.7,2.3,4.6s2.2,2,2.7,2h0c0,.5-.8,1.3-2.2,2.4s-1.8,1.5-2.1,1.5h0c-.6,0-2.3-1.2-5-3.6-2.4.9-4.8,1.8-7.3,2.9a18.6,18.6,0,0,1-5.4.7H80a10.8,10.8,0,0,1-5.7-2.6,13.3,13.3,0,0,1-1.8-3.1,4.7,4.7,0,0,1-1.1-3.3V36.6a6.2,6.2,0,0,1,.9-3.2,17.1,17.1,0,0,1,2.8-4.8,4.4,4.4,0,0,1,2-1.5,13.5,13.5,0,0,1,6.3-1.7h3.1a6.4,6.4,0,0,1,3.4.7h.4c.1,0,.2-.1.2-.3a20.7,20.7,0,0,0-2.1-5.5c-.9-1.5-2.6-2.3-5.1-2.3l-2.5-.3c-2.2.4-3.3.8-3.3,1.3a10,10,0,0,0-1.6,4.2c0,.2-.8.3-2.2.3h-.4c-.1,0-.3.3-.6,1s-1.7-.4-1.7-.7a34.8,34.8,0,0,0,.5-4.5c.6-1.8,2.2-3.6,4.6-5.2a7.6,7.6,0,0,1,2.1-1ZM73.7,21.6v1h.1a.6.6,0,0,0,.2-.5v-.5h-.3Zm.7-4.5h.1c.3,0,.9-.4,1.6-1.2v-.2H76c-.3,0-.9.4-1.6,1.3Zm.8,24.7h.4l-.2-.2h-.2Zm.1,3.3h0c.2.4,1.3.8,3.1,1.4a6.2,6.2,0,0,0,2.5.4h0c0-.2-.8-.4-2.4-.7a14.7,14.7,0,0,1-2.8-1.4h-.2Zm.8-15.8v.2h.2a.5.5,0,0,0,.6-.4h-.1Zm0,5.5c.3,2.5.6,3.8,1,3.8l.7.7h-.6v.2a12.8,12.8,0,0,0,4.8,3,2.8,2.8,0,0,0,1.3.3c.8,0,3.7-1.2,8.5-3.6a.8.8,0,0,0,.5-.7v-.3a57.7,57.7,0,0,1-.9-5.9h-.1c0-.5-.5-.9-1.4-1.1a25.8,25.8,0,0,0-6.2-1.3c-3.1.7-5.3,1.7-6.5,3.1A3.3,3.3,0,0,0,76.1,34.8ZM80,15h0q0,.3.6.3a5.6,5.6,0,0,0,1.5-.4v-.3h-.2A4.4,4.4,0,0,0,80,15Zm2,29.2a.6.6,0,0,0,.6.3q.6,0,.6-.3h0V44h-.8Zm.7-27.5.2.4h.8v-.2h0l-.3-.3H83ZM85,14.3l.2.3h.4v-.2l-.2-.2H85Zm2.2,29.1h.3a6.1,6.1,0,0,0,2.2-.7h-.2C88.1,42.9,87.3,43.1,87.2,43.4Zm2.5-28.7h0a1.4,1.4,0,0,0,.9.5h.1v-.2a1.2,1.2,0,0,0-.9-.4Zm3,21.1v.3l.2.3H93l.2-.3v-.3h-.5Zm.1-2.1.2.3h.2v-.2h-.4Zm1.8-3v.2h0Zm0,1.3v.3h.3V32Zm.1-3.3v.2c.2.6.4,1,.5,1h.1a1.7,1.7,0,0,0-.4-1.3h-.2Zm.3,5h0c.1,1.6.2,2.3.5,2.3h.1a5.4,5.4,0,0,0-.4-2.2Zm1,9c.1.3.2.5.4.5h.1l.3-.2v-.2l-.4-.3h-.3Zm.3-16.3v.2c0,.3.1.5.2.5v-.4l-.2-.3Zm1.1,17.4h0l.2.3h.3V44h0l-.3-.3h-.2Zm.5-2.3v.4c.2.5.3.8.5.8h.2v-.2c-.2-.6-.3-1-.6-1Z" transform="translate(-1 0)" style="fill:#b75326"/><path d="M129.8,14.9c0,.2.5.3,1.7.4a21.5,21.5,0,0,1,.3,4.1,2.6,2.6,0,0,1-.7,1.2,20.2,20.2,0,0,0-2.7,3.4c-3.8,3.6-7.1,6.6-10,8.9l-3.1,2.3-3.8,5.1a4.2,4.2,0,0,0-.5,1.2h.2l5.3.2h6.4c3.3,0,4.9-.1,4.9-.3V40.3l.4-2.8c2.5-.4,4.1-.4,4.5,0s1.2,1.9,1.1,5.7-.8,3.6-4.1,3.5v-.2h.5l.9-.7h-1.2c-.4.3-2,.5-4.9.6a65.6,65.6,0,0,1-8.7.4c-5.7,0-9.3-.3-10.7-1s-1.1-.5-1.1-1.5a39.7,39.7,0,0,1-.4-5.3l6.2-5.2c6.3-4.2,10.3-7.4,12.1-9.8l1.9-2.3v-.3l-10.5-.6h-3.6v.4a2.6,2.6,0,0,1-.5,1.3l-.2.9h0v1.7l-.3.2H107c-2-.3-3.1-.7-3.1-1.1s.6-2.1,1-6.5a6,6,0,0,1,.3-2.3h.1l2.3.4c2.5-.2,9.5-.5,20.7-.7ZM104.8,40a.9.9,0,0,0,.3.7h.1c.3,0,1.3-.8,2.9-2.2H108a13.6,13.6,0,0,0-2.6,1.4C105,39.9,104.8,39.9,104.8,40Zm.2,2.3v.4h.1q.2,0,.3-.6h-.2Zm.7-20h-.3a3.3,3.3,0,0,0-.3,1.5v.5h.2l.3-.2v-.5c0-.5.2-.7.7-.9a6.3,6.3,0,0,0,1.3-3.3v-.6h-.4c-.7,0-1.1.7-1.1,1.9S106,22.3,105.7,22.3Zm-.1,22h.1c.4,0,1-.7,1.9-1.9h-.1C106.2,43.2,105.6,43.8,105.6,44.3Zm.8-27h.5v-.2h-.3Zm.3,27.9h0l.2.2h0c.3,0,.5,0,.5-.2v-.3h-.5Zm.2-4v.3h.1a3.4,3.4,0,0,0,1.2-1.2V40H108C107.8,40,107.4,40.4,106.9,41.2Zm1-17.2v.2h.8l.3-.2h0q0-1.2-.3-1.2C108.4,22.8,108.1,23.2,107.9,24Zm.2-1.7h0c.2,0,.5-.8,1-2.2l.2-1.1v-.3H109A7.9,7.9,0,0,0,108.1,22.3ZM109.5,44a.2.2,0,0,0,.2.2h9.1l-.3.3h0c6.3-.1,9.4-.3,9.4-.6v-.6l-.2-.3c-1.9.2-7.8.5-18,.7Zm.9-25.3v1h.6c.8,0,1.2-.1,1.2-.2s-1.7-.2-1.7-.4h0a.5.5,0,0,1,.6-.4h-.7Zm.3,17.7v.4c.6,0,1.4-.8,2.5-2.4h-.1C112.5,34.4,111.7,35,110.7,36.4Zm2.1-17.9v.2h1.5c0-.1-.4-.2-1.3-.3Zm.8,15.4v.2h.2c2.4-1.6,3.9-3.1,4.4-4.4h-.1A27.2,27.2,0,0,0,113.6,33.9Zm2.9-14v.2h7.3c.7,0,1-.1,1-.3s.3-.4,1-.4.7-.4.7-.8h-.4a9.3,9.3,0,0,0-4.3.7Zm3.2,24.2h.4c0,.1-.2.2-.4.2h-.2Zm1.1-26.3h0Zm1.3,10.9h0l.2-.2h-.1Zm0-2.7,1.8-1.3c.6,0,.9-.3,1.2-.9a7.1,7.1,0,0,0,2.3-2.3c.1,0,.2-.1.2-.3V21l-.2-.4a1.7,1.7,0,0,1,.4-1.1v-.2c-.4,0-1,.7-1.6,2C123.5,24.1,122.1,25.6,122.1,26Zm.6,1.8h.1a5.2,5.2,0,0,0,1.7-1.6h-.1A7.6,7.6,0,0,0,122.7,27.8Zm1,14.8h.2Zm1.8,2.7v.2h1.1a.6.6,0,0,0,.6-.3l1.4.2h.3a.9.9,0,0,0,.6-.8h-.1c0,.2-.9.3-2.5.3Zm1-29.1h1.9v-.3h-.6Zm.1,8v.2h0Zm.8-6.2h0l.2.3h.2v-.2h-.4Zm1.4,24.7h0l.2.2h.3l.2-.2v-.6H129A.6.6,0,0,0,128.8,42.7Zm2.6,1.2-.2.4v.3l.2.3h.4l.2-.2v-.4A.7.7,0,0,0,131.4,43.9Zm.7-5.5V40a4.7,4.7,0,0,0,.2,1.8h.2c.1-.4.1-1.1.2-2.2l-.3-1.2Zm.2,3.2v.2h.2v-.2Z" transform="translate(-1 0)" style="fill:#b75326"/><path d="M162,14.9c0,.2.6.3,1.8.4a21.5,21.5,0,0,1,.3,4.1c0,.2-.3.6-.8,1.2a16,16,0,0,0-2.6,3.4c-3.9,3.6-7.2,6.6-10,8.9l-3.2,2.3-3.7,5.1a2.4,2.4,0,0,0-.5,1.2h.1l5.3.2h6.4c3.3,0,4.9-.1,4.9-.3V40.3l.3-2.8c2.6-.4,4.1-.4,4.6,0s1.2,1.9,1.1,5.7-.9,3.6-4.2,3.5v-.2h.5l1-.7h-1.3q-.6.5-4.8.6a67.3,67.3,0,0,1-8.8.4c-5.7,0-9.2-.3-10.7-1s-1.1-.5-1.1-1.5-.2-2.2-.4-5.3l6.2-5.2c6.3-4.2,10.3-7.4,12.1-9.8l1.9-2.3v-.3L146,20.8h-3.5v.4a4.5,4.5,0,0,1-.5,1.3l-.2.9h0v1.7l-.3.2h-2.2c-2.1-.3-3.1-.7-3.1-1.1s.5-2.1.9-6.5a9,9,0,0,1,.3-2.3h.1l2.3.4c2.6-.2,9.5-.5,20.8-.7ZM137,40a.8.8,0,0,0,.4.7h0c.4,0,1.3-.8,2.9-2.2h-.1a11.7,11.7,0,0,0-2.5,1.4C137.2,39.9,137,39.9,137,40Zm.2,2.3v.4h.2c.1,0,.2-.2.2-.6h-.2Zm.7-20h-.3a3.3,3.3,0,0,0-.3,1.5v.5h.2l.3-.2v-.5c0-.5.3-.7.8-.9a6.1,6.1,0,0,0,1.2-3.3v-.6h-.4c-.7,0-1.1.7-1.1,1.9S138.2,22.3,137.9,22.3Zm-.1,22h.2c.4,0,1-.7,1.8-1.9h-.1C138.5,43.2,137.8,43.8,137.8,44.3Zm.8-27h.6l-.2-.2h-.2Zm.3,27.9h0l.2.2h.1c.2,0,.4,0,.4-.2v-.3h-.4Zm.2-4v.3h.1a3.4,3.4,0,0,0,1.2-1.2V40h-.2C140.1,40,139.7,40.4,139.1,41.2Zm1-17.2v.2h.9l.2-.2h0q0-1.2-.3-1.2C140.6,22.8,140.4,23.2,140.1,24Zm.2-1.7h0c.2,0,.6-.8,1.1-2.2V18.8h-.1A6.9,6.9,0,0,0,140.3,22.3ZM141.7,44c0,.1.1.2.3.2h9l-.3.3h0c6.3-.1,9.5-.3,9.5-.6v-.6l-.3-.3c-1.8.2-7.8.5-17.9.7Zm.9-25.3v.8l.2.2h.5c.8,0,1.3-.1,1.3-.2s-1.8-.2-1.8-.4h0a.5.5,0,0,1,.6-.4h-.6Zm.4,17.7v.4q.9,0,2.4-2.4h-.1C144.8,34.4,144,35,143,36.4Zm2-17.9v.2h1.6l-1.3-.3Zm.8,15.4v.2h.2c2.4-1.6,3.9-3.1,4.4-4.4h-.1A27.2,27.2,0,0,0,145.8,33.9Zm2.9-14v.2h7.4q.9,0,.9-.3c0-.2.4-.4,1-.4s.7-.4.7-.8h-.4a9.3,9.3,0,0,0-4.3.7Zm3.2,24.2h.5a.6.6,0,0,1-.5.2h-.1Zm1.2-26.3h0Zm1.2,10.9h0l.2-.2h-.1Zm0-2.7a9.9,9.9,0,0,0,1.9-1.3,1.1,1.1,0,0,0,1.1-.9,7.1,7.1,0,0,0,2.3-2.3c.1,0,.2-.1.2-.3V21l-.2-.4a1.7,1.7,0,0,1,.4-1.1v-.2c-.4,0-.9.7-1.6,2C155.7,24.1,154.3,25.6,154.3,26Zm.7,1.8h.1a6.4,6.4,0,0,0,1.7-1.6h-.2A6,6,0,0,0,155,27.8Zm1,14.8h.1Zm1.8,2.7v.2h1a.8.8,0,0,0,.7-.3l1.3.2h.3a.9.9,0,0,0,.6-.8h-.1c0,.2-.8.3-2.5.3Zm.9-29.1h2v-.3H160Zm.1,8v.2h0Zm.8-6.2h0l.2.3h.2v-.2h-.4ZM161,42.7h0l.2.2h.3l.2-.2v-.6h-.3A.5.5,0,0,0,161,42.7Zm2.6,1.2v.7l.2.3h.4v-.6A.7.7,0,0,0,163.6,43.9Zm.7-5.5V40a8.2,8.2,0,0,0,.2,1.8h.2a9.5,9.5,0,0,0,.2-2.2l-.2-1.2Zm.2,3.2v.2h.2v-.2Z" transform="translate(-1 0)" style="fill:#b75326"/><path d="M176.8,18c.5,2.6.5,4-.1,4s.1,2.3,2.2,7.1a44.3,44.3,0,0,0,2.2,4.9c1.1,2.9,1.9,4.4,2.3,4.4s.3.3.6.8h.8c.4,0,1.2-1.8,2.3-5.4,4.3-7.9,5.3-11.6,3.1-11.2a33.9,33.9,0,0,0,.2-4.3h.3c5.3,0,8,.2,8,.5s.3,1.1.3,3.2-.6,1.9-1.1,1.9-1,0-.5.1H197c-1.6,2.8-2.4,4.5-2.4,5.3a11.6,11.6,0,0,1-1.9,4.3,65.4,65.4,0,0,1-3,7.6,15.3,15.3,0,0,0-.9,3.2l-2.6,4.4a33.7,33.7,0,0,1-5.3,8.2L178,59a10.2,10.2,0,0,1-3,.5c-3,0-4.6-.3-4.6-.9a2.9,2.9,0,0,1-.8-1.7c-.5-.6-1.3-2.7-2.2-6.5h0q0-.6,1.2-.6a10.6,10.6,0,0,0,3.7-1.2c.5,0,1.3,1.9,2.2,5.7.3.9.6,1.3.7,1.3h.5c.4-.1.7-.6,1-1.4s1-1.1,2.5-3.3a30.7,30.7,0,0,1,2-3.6v-2a5.8,5.8,0,0,0-1.3-2.8c-.9-1.6-1.5-2.9-2-3.9A102.2,102.2,0,0,0,171.5,24l-.6-.2h-4V19.1l1.1-.5,6.1-.6h2.9Zm-9.3,4h0v.5l.2.2h.9q1.2,0,1.2-.3C169.8,22.3,169.1,22.1,167.5,22Zm2.6,28.7a3.1,3.1,0,0,1,.6,1.3l.4.4h.3v-.3a2.3,2.3,0,0,0-.8-1.6h-.3Zm1.3,2.9h0a1.2,1.2,0,0,0,.5,1.1v-.2h0a.9.9,0,0,0-.5-.9Zm1.4,2.3v.2l.3.3h.5l.2-.2q0-.2-.6-.3Zm.3-33.1a3,3,0,0,0,.9,1.9h0V24a1.4,1.4,0,0,0-.5-1.3h-.4Zm.8,35a.8.8,0,0,0,.8.5h.9v-.2h0c0-.2-.2-.3-.8-.3h-1Zm2.2-.7,1.1.8h.3c.2-.1.2-.2.2-.5v-.3c0-.2-.2-.2-.4-.2h-.6C176.3,56.9,176.1,56.9,176.1,57.1Zm2.3-21h0v.2h.1l.2-.2h0l-.3-.3Zm0,18.4h0q.6,0,1.2-1.5h-.1A2,2,0,0,0,178.4,54.5Zm.4-21.1h0a16.5,16.5,0,0,0,1.5,3.7h.1c-.8-2.4-1.3-3.6-1.6-3.6Zm.5,23.1h.2a3.9,3.9,0,0,0,2-1.7.7.7,0,0,0-.6-.2h-.2c-.4,0-.7.3-.9,1.1Zm.9-18.9h0l.4.4a.2.2,0,0,0,.2-.2c-.1-.3-.2-.4-.4-.4h-.2Zm2.4,7.5h0c.3,0,.5-.1.5-.4v-.4h-.2C182.7,44.5,182.6,44.7,182.6,45.1Zm1.2,4.9.2.2a1.4,1.4,0,0,0,.5-.9h-.1Zm1.1-2.9h.3c.3,0,.9-1,1.7-3.1h0C186.4,44,185.7,45,184.9,47.1Zm.6-4h.3c.6,0,1.5-2,2.6-5.9a1.5,1.5,0,0,1,.6-.7c0-.4.1-.6.3-.7h0v-.5c.6-1.1-.2.2-2.2,3.9a15.3,15.3,0,0,1-1.5,3.7Zm4.1-4.2h.1c.7,0,1.2-1.6,1.6-4.7h0c-.2,0-.4.5-.6,1.6A11.6,11.6,0,0,0,189.6,38.9Zm2-19.3,1.5.6.9-.2h1.2c0-.2-.5-.3-1.3-.3H193c-.4,0-.6,0-.6.1Zm2.7,5.7c-1.5,3.1-2.4,4.7-2.6,5v.3a2.1,2.1,0,0,0,.5.9l-.4,1.3h.2a35.7,35.7,0,0,0,2.4-6.5v-1Zm.2-1.8v.4h.3v-.4Zm.4-1.9v.3c.1.2.3.3.7.3h.1v-.3l-.4-.4h-.4Zm1,.1v.2l.2.2h.1c1.4-.3,2.1-.6,2.1-.8h0l-.2-.2h-.2C196.7,21.2,196,21.4,195.9,21.7Zm.7-2h0l.4.3,1.1-.2h0c0-.2-.2-.3-.4-.3h-.9Z" transform="translate(-1 0)" style="fill:#b75326"/><path d="M205.9,39.3a5.8,5.8,0,0,1,2.7,1,4.3,4.3,0,0,1,.2,1.1v.9c0,1.7-1,2.9-2.9,3.7l-.7.3c-.9,0-1.7-.8-2.5-2.4v-.3c0-1.8.3-2.9.8-3.3A8.5,8.5,0,0,1,205.9,39.3Zm-2,2.7c.1,1.1.3,1.7.5,1.7a7.3,7.3,0,0,0,.5-2.2l.3-.4v-.2h-.1C204.3,41.2,203.9,41.5,203.9,42Zm.3,2.8a.7.7,0,0,0,.4.5h.7a1.3,1.3,0,0,0,1.2-.7h0Zm1.4-2.4v.2c0,.4.1.6.3.7h0c.3,0,.5-.5.7-1.3v-.4h-.3C205.8,41.5,205.6,41.8,205.6,42.4Zm1.8.9h.3v-.6h-.1C207.6,42.8,207.5,43,207.4,43.3Z" transform="translate(-1 0)" style="fill:#231f20"/><path d="M255.5,17.8c1.6,0,3,1.1,4.1,3.4.2,0,.5.3.9.8l.8,4.6c-.3.4-1.4.7-3.3.7h-.6c-1.5-.2-2.3-.7-2.3-1.6a3.9,3.9,0,0,0-1.4-2.3c-.1-.2-1-.3-2.6-.3a16.2,16.2,0,0,0-5.7,1.2,17.1,17.1,0,0,0-3.1,3.8c.2,7.5.4,11.9.3,13.3s.2.5.7.5h1.5c.7,0,1,.1,1,.3h0l.2.9v3.4l-.4.5-2.8.2h-.3l-1.3.4c-4.7-.1-7-.3-7-.5s-1.3-.4-1.3-1.1a14.8,14.8,0,0,1-.1-2.3c0-.8.8-1.3,2.4-1.6,0-.3.5-.5,1.6-.5h.3l-.4-16.9c0-1-.3-1.6-.8-1.6h-.4a10.9,10.9,0,0,0-2.5.7h-.1v-.2l.5-.3h0c-.4,0-.6-1.1-.6-3.5-.1,0-.1-.3-.2-1a8.5,8.5,0,0,1,5.2-2h1.5a14.3,14.3,0,0,1,3.1.6v.3a1.9,1.9,0,0,0-.5,1.2v.4C245.2,17.6,249.7,17.1,255.5,17.8Zm-22,27.1v.7h.3v-.4Zm.7-25.9a1.1,1.1,0,0,0,1,.5h.1V19l-.3-.3C234.4,18.8,234.2,18.9,234.2,19Zm.7,26.9h0c0,.2.6.3,1.7.3h2.3c0-.2-1.1-.4-3.3-.5Zm.2-24.4h.2c.4,0,.7-.1.7-.3v-.2h-.1C235.4,21.1,235.2,21.2,235.1,21.5Zm0,23.4h3.5v-.2h-3.5Zm1.6-27.1v.3l.4.4h.6v-.2l-.7-.5Zm2.7,9.3v.3a2.8,2.8,0,0,1,.3,1.3,9.4,9.4,0,0,0-.2,2.5v2.5h.1c.2,0,.3-1.9.5-5.7.1,0,.1-.4.1-1.3s-.2-.5-.3-.5h-.1A.9.9,0,0,0,239.4,27.1Zm.5-3.2-.4,1.2a.7.7,0,0,0,.4.6h.1c.2,0,.3-.3.3-.8l-.2-1Zm.5,21.3v.2h1l.2-.2c0-.2-.1-.2-.3-.3S240.4,45.1,240.4,45.2Zm.4-26h.1l.3-.2V19H241Zm.1-1.3v.4h.3l.2-.3h-.5Zm0,20.7v.5h.2l.3-.2v-.3l-.2-.2h-.1Zm.1,1.2V40h.1v-.2Zm1.2-17.9v.2h.5v-.2h-.5Zm4.2-1.5v.2c.3,0,.8-.6,1.4-1.8v-.3h0C246.7,18.8,246.2,19.4,246.4,20.4Zm2.3-1.3.3,1.2h.5V19l-.2-.2h-.2C248.8,18.9,248.7,19,248.7,19.1Zm1.5-.5h.7c.3,0,.5,0,.5-.2h-1.2Zm2-.1h.4l.2-.2v-.2C252.3,18.3,252.2,18.4,252.2,18.5Zm1.5.3h0Zm.6,3.6h.3a4.6,4.6,0,0,0,1.2-1.4h0c0-.1-.1-.2-.3-.2a1.5,1.5,0,0,0-1,1.4C254.4,22.1,254.3,22.2,254.3,22.4Zm1.7,1.7v.2h.2l.2-.3h-.1C256.1,23.9,256,24,256,24.1Zm.1-5.5h0Zm1.9,2.1h0a.9.9,0,0,0,.8.6h.2v-.2a1.1,1.1,0,0,0-.9-.5Z" transform="translate(-1 0)" style="fill:#b75326"/><path d="M261.8,14.8a1.6,1.6,0,0,0,1.2.4l.8-.4c5.6,0,8.4.2,8.4.5v1.5a6.9,6.9,0,0,1,.5,2.4v.9c-.5,5.7-.8,11.2-1,16.4a2.9,2.9,0,0,0-.2,1.2c0,.2.2.3.5.3h.3c2.2,0,3.3.3,3.3.8h-.1v.4a11,11,0,0,1,.7,4.7l.2,2.4v.2h-8.9c-4.6,0-7-.4-7-1.1a3.1,3.1,0,0,0-.3-1.3.9.9,0,0,1,.6-.7h.2l.5.2h.2l4.3-.3v-.2c-3.6-.2-5.3-.4-5.3-.8V41.3l-.2-1.6c0-.4,1.6-.6,4.7-.6.4,0,.6-1,.6-2.8l.7-16.2h0c-1.6,0-2.1-.2-1.6-.5-2.5,0-3.7-.2-3.7-.8a.5.5,0,0,1-.3-.5l.3-.8c0-.1-.1-.3-.4-.6h0c.4-.2.6-.9.8-1.9h.3Zm.1,26.4h0c.3.3,1.6.5,3.8.6h.4c.4,0,.6-.1.7-.3h0l-4.5-.3Zm.7-25.2v.2h.3c1.1,0,1.6-.1,1.6-.2v-.2h-.2C263.1,15.8,262.6,15.9,262.6,16Zm.2.9v.2c0,.1.3.2.8.2h2.9c.7,0,1-.1,1-.3h0c0-.3-1.2-.3-3.6-.2Zm7.3-14.2a3.7,3.7,0,0,1,3.4,2.2l.4,2a7,7,0,0,1-1.3,3,3.3,3.3,0,0,1-2.5.8q-3.9,0-4.8-1.2a4.5,4.5,0,0,1-.9-3.4h-.2C265.4,4,266.7,3,268,3Zm-3.3,1.8h0c1.3-.2,2-.4,2-.6h-.3C267.3,4.1,266.8,4.3,266.8,4.5Zm.3,29.7c0,.3.1.5.2.5s.2-.2.2-.6v-.9a9.2,9.2,0,0,0,.6-2.5V29.5c.3-.2.4-.3.4-.5a3.5,3.5,0,0,1-.3-1.3h0c.2,0,.4-2.3.6-7-.1-.3-.2-.5-.3-.5h-.1c-.6,0-.9,2.1-1,6.1Zm1.3,9.4h-.9v.2h.9l1.8-.2h-1.8Zm-.5-37.3h.4c.5,0,.8-.2.9-.5h-.8a.6.6,0,0,0-.6.5Zm.2,35.6.2.3h.1c.4,0,.5-.2.5-.6h-.3C268.3,41.6,268.1,41.7,268.1,41.9Zm.6-4v.3h.2l.3-.2v-.2l-.2-.2h-.1Zm.1-1.2v.4h.1c.2-.1.3-.3.3-.7V36h-.1C268.9,36,268.8,36.2,268.8,36.7Zm0-19.8h0c.3,0,.6.2,1.1.6h.1c.1,0,.2,0,.2-.2h.1q.1,0,.3.6h.1l.9-.7V17h-2.8Zm.4,3.5.3,1-.4,1c.1.4.3.6.4.6h.1v-.7c0-1.6.3-2.3.7-2.3l.2-.2v-.3H270C269.4,19.4,269.2,19.7,269.2,20.4Zm.5,10.5a12.1,12.1,0,0,0-.5,3.4h0c.2,0,.5-.9.8-2.6v-.8Zm-.5-21.8h1.3l-.2-.2h-.9Zm.8,11.8v.3a.6.6,0,0,0,.3.6h.2l.2-.3v-.3c-.1-.1-.2-.3-.4-.4Zm.8-13.1V8h.2a.8.8,0,0,0,.7-.5V7.3h-.1A1,1,0,0,0,270.8,7.8Zm0,7.9.2.2h.1v-.2l-.2-.2ZM272,6.1v.2h.1l.3-.2V5.8h-.1Zm1.4,35.8c0,.5.4.7,1,.7h.3l-.2-.3.6-.3v-.3a.5.5,0,0,0-.3-.5h-.3c-.1,0-.2.2-.4.6Zm.3-2.7a3.1,3.1,0,0,0,1.3.3h0c0-.2-.3-.3-.8-.3h-.5Zm0,4.1v.2h.1l.2-.3h-.3Zm1.5,2.5V46h.4v-.2h-.2Z" transform="translate(-1 0)" style="fill:#b75326"/><path d="M292.1,0a3.3,3.3,0,0,1,2.3.7,22.4,22.4,0,0,0-1,6.2l-.5,5.7c0,.3.8.5,2.4.5,4.8,0,7.3.2,7.3.6a1.3,1.3,0,0,1,.7.4,4,4,0,0,0-.6,1.1v.3l.2,1.2-.8,2.7c0,.3.3.7.9,1.3h0a5.7,5.7,0,0,1-2.4.5c-.6,0-1-.1-1-.3h1l.3-.2v-.2H293a11.2,11.2,0,0,0-.6,3.5h-.1l-.8-1-.2.7v.4c.1,1.1.2,1.8.4,1.8s.3-.4.4-1.1v-.4h.2v.2l-.5,5.9c.4,6.5.8,9.7,1.1,9.7s.7,2,1.6,2a3.3,3.3,0,0,0,1.7.4h1.1l3.6-.2c.2,0,.4,1.1.5,3.3s-.5,2-2.2,2h-4.7a9.2,9.2,0,0,1-6.5-2.2c-1.2-.4-1.8-1.7-1.8-3.7s-.3-4.9-.4-9.9l1-5.4V22.3c-.2-1.7-.7-2.6-1.4-2.6h-4a5.1,5.1,0,0,0-2,.4c-.4,0-.9-.6-1.5-1.6l1.3-5.5q0-.3,7.5-.3a3,3,0,0,1,.8-2c.2-6.5.4-9.7.7-9.7V.8c0-.1-.1-.1-.3-.1V.5A17.3,17.3,0,0,1,292.1,0ZM279.8,13.7c0,.3.1.4.5.4h.9l4.7-.2h0q0-.3-3-.3h-2.6C279.9,13.5,279.8,13.6,279.8,13.7Zm.8,1.4v.3q0,.6,4.2.6c1.3,0,2-.1,2-.3s-1.8-.7-5.4-.8h-.7Zm.4,2.1a.3.3,0,0,0,.3.3h3.3a8.5,8.5,0,0,0-2.8-.3h-.6Zm0,.8v.2c0,.2,1.6.4,4.7.4h.4Zm5.7,13.6.2,1.7v2.8h.2c.3,0,.4-1,.4-2.9V31.7c.2.2.1.3-.1.3A1.3,1.3,0,0,1,286.7,31.6Zm2,7.9v1.3h.2v-1l-.2-.2Zm.3,4.3V44c.1,1.1.5,1.6,1.3,1.6h.6l.2-.2h0c0-.1-.4-.3-1.2-.4l-.8-1.1Zm.5-22.5v.5h.2c.1,0,.2-.2.2-.4v-.7h-.1A.6.6,0,0,0,289.5,21.3Zm.2,1.2v1h.2v-.9h-.3Zm0-20.9V2h.3V1.8l-.2-.2Zm0,25.1v.6l.2.2h.2v-.8Zm.4-22.9a5.9,5.9,0,0,0-.2,1.7v.2h.2V3.8Zm.2,2.8-.2,6.1h0V13h.2c.2,0,.4-.6.4-1.6V7l-.2-.4Zm.3,29.9v.8a.5.5,0,0,0,.4.6h0a.5.5,0,0,0,.3-.5c-.1-.6-.3-.9-.4-.9Zm.1,6.9h-.1v.4c.1.2.3.3.5.5h.4A.9.9,0,0,0,290.7,43.4Zm.6-4.3-.3.7a2.2,2.2,0,0,0,.6,1.8l.2-.3v-.5C291.7,39.7,291.5,39.2,291.3,39.1Zm.2-16.9h0l.2.2h.1l-.3-.2ZM292.2,2h0l.2,1.4h.1c.5-.5.8-.9.8-1.3V2l-.3-.2h-.5Zm1.5,13.6h0c0,.2.8.3,2.3.4h1l1.4.3h.2a.5.5,0,0,0,.5-.4H299l-4.7-.4h-.6Zm.9,2.8v.2l2.2.6h.1a3.5,3.5,0,0,0-2-.7Zm3.6-4.6h-1.7V14a6.6,6.6,0,0,0,2.3.4h1.4c.1,0,.1-.1.1-.3s-.3-.6-.7-.6H299Zm-.7,30.9h.2c1.5-.3,2.3-.5,2.3-.8v-.2C298.3,44.1,297.5,44.5,297.5,44.7Zm.6-25.6a11.8,11.8,0,0,0,2.9.5l.3-.2V19l-.2-.2h-1.4C298.6,18.8,298.1,18.9,298.1,19.1Zm2.2-2.1h0l.2.2h.3c.4,0,.7-.1.8-.4h-1.1Zm.2-2.8h.2c.4,0,.6-.1.7-.3h-.9Z" transform="translate(-1 0)" style="fill:#b75326"/><path d="M330.3,14.9c0,.2.6.3,1.8.4a21.5,21.5,0,0,1,.3,4.1c0,.2-.3.6-.8,1.2A16,16,0,0,0,329,24c-3.9,3.6-7.2,6.6-10,8.9l-3.2,2.3-3.7,5.1a2.4,2.4,0,0,0-.5,1.2h.2l5.2.2h6.4c3.3,0,4.9-.1,4.9-.3V40.3l.3-2.8c2.6-.4,4.1-.4,4.6,0s1.2,1.9,1.1,5.7-.9,3.6-4.2,3.5v-.2h.5l1-.7h-1.3q-.6.5-4.8.6a67.3,67.3,0,0,1-8.8.4c-5.7,0-9.2-.3-10.7-1s-1.1-.5-1.1-1.5-.2-2.2-.4-5.3l6.2-5.2c6.3-4.2,10.3-7.4,12.1-9.8l1.9-2.3v-.3l-10.5-.6h-3.5v.4a4.5,4.5,0,0,1-.5,1.3l-.2.9h0v1.7l-.4.2h-2.2c-2.1-.3-3.1-.7-3.1-1.1s.5-2.1.9-6.5a18.8,18.8,0,0,1,.3-2.3h.1l2.3.4c2.6-.2,9.5-.5,20.8-.7ZM305.3,40a.8.8,0,0,0,.4.7h0c.4,0,1.3-.8,2.9-2.2h0a9.2,9.2,0,0,0-2.6,1.4C305.5,39.9,305.3,39.9,305.3,40Zm.2,2.3v.4h.2c.1,0,.2-.2.2-.6h-.2Zm.7-20h-.3a3.3,3.3,0,0,0-.3,1.5v.5h.2l.3-.2v-.5c0-.5.3-.7.8-.9a6.1,6.1,0,0,0,1.2-3.3v-.6h-.4c-.7,0-1.1.7-1.1,1.9S306.5,22.3,306.2,22.3Zm-.1,22h.2c.4,0,1-.7,1.8-1.9H308C306.8,43.2,306.1,43.8,306.1,44.3Zm.8-27h.6l-.2-.2h-.2Zm.3,27.9h0l.2.2h.1c.3,0,.4,0,.4-.2v-.3h-.4Zm.2-4v.3h.1a3.4,3.4,0,0,0,1.2-1.2V40h-.1Q308.3,40,307.4,41.2Zm1-17.2v.2h.9l.2-.2h0q0-1.2-.3-1.2C309,22.8,308.7,23.2,308.4,24Zm.2-1.7h0c.2,0,.6-.8,1.1-2.2V18.8h-.2A6.9,6.9,0,0,0,308.6,22.3ZM310,44c0,.1.1.2.3.2h9l-.3.3h0c6.3-.1,9.5-.3,9.5-.6v-.6l-.3-.3c-1.8.2-7.8.5-17.9.7Zm.9-25.3v.8l.2.2h.5c.8,0,1.3-.1,1.3-.2s-1.8-.2-1.8-.4h0a.5.5,0,0,1,.6-.4h-.6Zm.4,17.7v.4q.9,0,2.4-2.4h-.1C313.1,34.4,312.3,35,311.3,36.4Zm2-17.9v.2h1.6l-1.3-.3Zm.9,15.4v.2h.1c2.4-1.6,3.9-3.1,4.4-4.4h-.1A23.9,23.9,0,0,0,314.2,33.9Zm2.8-14v.2h7.4q.9,0,.9-.3c0-.2.4-.4,1-.4s.7-.4.7-.8h-.4a9.3,9.3,0,0,0-4.3.7Zm3.2,24.2h.5a.6.6,0,0,1-.5.2h-.1Zm1.2-26.3h0Zm1.2,10.9h0l.2-.2h-.1Zm0-2.7a9.9,9.9,0,0,0,1.9-1.3,1.1,1.1,0,0,0,1.1-.9,6.2,6.2,0,0,0,2.3-2.3c.1,0,.2-.1.2-.3V21l-.2-.4a1.7,1.7,0,0,1,.4-1.1v-.2c-.4,0-.9.7-1.6,2C324,24.1,322.6,25.6,322.6,26Zm.7,1.8h.1a6.4,6.4,0,0,0,1.7-1.6h-.2A6,6,0,0,0,323.3,27.8Zm1,14.8h.1Zm1.8,2.7v.2h1a.8.8,0,0,0,.7-.3l1.3.2h.3a.9.9,0,0,0,.6-.8h-.1c0,.2-.8.3-2.5.3Zm.9-29.1h2v-.3h-.7Zm.1,8v.2h0Zm.8-6.2h0l.2.3h.2v-.2h-.4Zm1.4,24.7h0l.2.2h.3l.2-.2v-.6h-.3A.5.5,0,0,0,329.3,42.7Zm2.6,1.2v.7l.2.3h.4v-.6A.7.7,0,0,0,331.9,43.9Zm.8-5.5-.2,1.6a8.2,8.2,0,0,0,.2,1.8h.2a9.5,9.5,0,0,0,.2-2.2l-.2-1.2Zm.1,3.2v.2h.2v-.2Z" transform="translate(-1 0)" style="fill:#b75326"/><path d="M345.1,18c.5,2.6.5,4-.1,4s.1,2.3,2.2,7.1a44.3,44.3,0,0,0,2.2,4.9c1.1,2.9,1.9,4.4,2.3,4.4s.3.3.6.8h.8c.4,0,1.2-1.8,2.3-5.4,4.3-7.9,5.3-11.6,3.1-11.2a21.9,21.9,0,0,0,.2-4.3h.3c5.3,0,8,.2,8,.5s.3,1.1.3,3.2-.6,1.9-1.1,1.9-1,0-.5.1h-.4c-1.6,2.8-2.4,4.5-2.4,5.3a11.6,11.6,0,0,1-1.9,4.3,65.4,65.4,0,0,1-3,7.6,12.1,12.1,0,0,0-.8,3.2l-2.7,4.4a33.7,33.7,0,0,1-5.3,8.2l-2.9,2a10.2,10.2,0,0,1-3,.5c-3,0-4.6-.3-4.6-.9a2.9,2.9,0,0,1-.8-1.7c-.5-.6-1.3-2.7-2.2-6.5h0q0-.6,1.2-.6a10.6,10.6,0,0,0,3.7-1.2c.5,0,1.3,1.9,2.2,5.7.3.9.6,1.3.7,1.3h.5c.4-.1.7-.6,1-1.4s1-1.1,2.5-3.3a30.7,30.7,0,0,1,2-3.6v-2a5.8,5.8,0,0,0-1.3-2.8c-.9-1.6-1.5-2.9-2-3.9A102.2,102.2,0,0,0,339.8,24l-.6-.2h-4V19.1l1.1-.5,6.1-.6h2.9Zm-9.2,4h-.1v.5l.2.2h.9q1.2,0,1.2-.3C338.1,22.3,337.4,22.1,335.9,22Zm2.5,28.7A3.1,3.1,0,0,1,339,52l.4.4h.3v-.3a2.3,2.3,0,0,0-.8-1.6h-.3Zm1.3,2.9h0a1.4,1.4,0,0,0,.5,1.1v-.2h0a.9.9,0,0,0-.5-.9Zm1.4,2.3v.2l.3.3h.5l.2-.2q0-.2-.6-.3Zm.3-33.1a3,3,0,0,0,.9,1.9h0V24a1.4,1.4,0,0,0-.5-1.3h-.4Zm.8,35a.8.8,0,0,0,.8.5h.9v-.2h0c0-.2-.2-.3-.8-.3h-1Zm2.2-.7,1.1.8h.3c.2-.1.2-.2.2-.5v-.3c0-.2-.2-.2-.4-.2H345C344.6,56.9,344.4,56.9,344.4,57.1Zm2.3-21h0v.2h.1l.2-.2h0l-.3-.3Zm0,18.4h0q.6,0,1.2-1.5h-.1A2,2,0,0,0,346.7,54.5Zm.4-21.1h0a16.5,16.5,0,0,0,1.5,3.7h.1c-.8-2.4-1.3-3.6-1.6-3.6Zm.5,23.1h.2a3.9,3.9,0,0,0,2-1.7.7.7,0,0,0-.6-.2H349c-.4,0-.7.3-.9,1.1Zm.9-18.9h0l.4.4a.2.2,0,0,0,.2-.2c-.1-.3-.2-.4-.4-.4h-.2Zm2.4,7.5h0c.4,0,.5-.1.5-.4v-.4h-.2C351,44.5,350.9,44.7,350.9,45.1Zm1.2,4.9.2.2a1.4,1.4,0,0,0,.5-.9h-.1Zm1.1-2.9h.3c.3,0,.9-1,1.7-3.1h0C354.7,44,354,45,353.2,47.1Zm.6-4h.3c.7,0,1.5-2,2.6-5.9a1.5,1.5,0,0,1,.6-.7c0-.4.1-.6.3-.7h0v-.5c.6-1.1-.2.2-2.2,3.9a15.3,15.3,0,0,1-1.5,3.7Zm4.2-4.2h0c.7,0,1.2-1.6,1.6-4.7h0c-.2,0-.4.5-.6,1.6A10.4,10.4,0,0,0,358,38.9Zm2-19.3,1.4.6.9-.2h1.2c0-.2-.4-.3-1.3-.3h-.9c-.4,0-.5,0-.5.1Zm2.6,5.7c-1.5,3.1-2.4,4.7-2.6,5v.3a2.1,2.1,0,0,0,.5.9l-.4,1.3h.2a35.7,35.7,0,0,0,2.4-6.5v-1Zm.2-1.8v.4h.3v-.4Zm.4-1.9v.3c.1.2.3.3.7.3h.1v-.3l-.4-.4h-.4Zm1,.1v.2l.2.2h.1c1.4-.3,2.1-.6,2.1-.8h0l-.2-.2h-.2C365,21.2,364.3,21.4,364.2,21.7Zm.7-2h0l.4.3,1.1-.2h0c0-.2-.2-.3-.4-.3h-.9Z" transform="translate(-1 0)" style="fill:#b75326"/><path d="M372.3,36.4a9.4,9.4,0,0,1,3.8,1.5h0c-.7.1-1,.2-1,.4s1.4,1.6,1.6,1.6l.6-.2c.2,0,.3.2.4.4l-.2.8a2.3,2.3,0,0,1,.3.9c0,1.6-.4,2.7-1.1,3.2s.1.2.3.2h0c0,.1-.2.2-.6.4v.3l.8.2a9,9,0,0,1-1.6,2.8q-1.7,2.1-2.4,2.1l-.4-.5a1,1,0,0,1-.7.2v-.2a1.9,1.9,0,0,1,1.6-1.2h.1l-.9-.4h0a21.1,21.1,0,0,0,.6-3.6V45q0-.2-1.8-.3a4.3,4.3,0,0,1-1.7-3.6v-.6c0-1.9.6-2.9,1.8-2.9s.7-.3.7-.4V37h-1A1.1,1.1,0,0,1,372.3,36.4Zm-.7,3.7v.2A6.9,6.9,0,0,0,374,39h-.4c-1.2,0-1.9.2-1.9.7Zm.7,1.6v.2h.1l.5-.4h.6v-.8l-.3-.2h-.1A1,1,0,0,0,372.3,41.7Zm.8-4h.8v-.2h-.8Z" transform="translate(-1 0)" style="fill:#b75326"/><path d="M415.7,15.6a12.9,12.9,0,0,1,6.3,2.2c2.1,1.5,3.2,2.6,3.2,3.2,1.6,3.6,2.4,5.6,2.4,6.2v.5a10.1,10.1,0,0,0-1,3h-5.6a5.2,5.2,0,0,0-1.7.2c-6-.5-10.1-.7-12.5-.7h-1.3a3.6,3.6,0,0,0-.8,1.5,4.2,4.2,0,0,1,.5,2.2c0,1.6.2,2.5.7,2.8v.3h-.4l.6.6a3.6,3.6,0,0,0,1.1,2.1c1.3,2.4,2.8,3.9,4.4,4.4a12.9,12.9,0,0,0,4.7.7l1.7-.8c.8-.2,2.4-1.6,4.7-4v-.2c0-.1-.3-.2-.8-.2l-.2-.3a7.2,7.2,0,0,1,3.5-3.6,12.4,12.4,0,0,0,2.2,1.7,52.5,52.5,0,0,0,3.7,5v.2c-1.4,1.7-2.3,2.6-2.9,2.6h-.2c0-.9-.6-1.4-1.7-1.6a13,13,0,0,0-2.7,2.1,15.5,15.5,0,0,1-4.9,2.1,38.7,38.7,0,0,1-5.7.8l-3.5-1.2c-1.9,0-3.8-1.1-5.4-3.2a7.3,7.3,0,0,1-1.7-2.7c0-.3-.5-2-1.4-5.2a14.8,14.8,0,0,1-.4-3.4h0a22.2,22.2,0,0,1,4.9-14.4,4.3,4.3,0,0,1,2.9-2.2,17.7,17.7,0,0,1,3.5-.7A9.7,9.7,0,0,1,415.7,15.6ZM401.8,31.3h0c0,.2-.1.5-.1.8v.3a3.6,3.6,0,0,0,.6,2h.2C402.5,32.7,402.3,31.6,401.8,31.3Zm0-2.3v.3c0,.3.1.4.2.4s.3-.2.3-.6h-.5Zm.8-3.3a5,5,0,0,0-.8,2.5h.1c.3,0,.6-.8,1.1-2.2S402.8,25.7,402.6,25.7Zm.1,11h0l.2.2h.1v-.2h-.3Zm.7,1h-.1c.2.7.4,1,.7,1h0A1.5,1.5,0,0,0,403.4,37.7Zm1.7-8.1h1.2l-.2-.2h-.2C405.5,29.2,405.2,29.3,405.1,29.6Zm.1-7.5h.2V22h-.1Zm0,4v.2l.2.2h0a2.7,2.7,0,0,0,.8-.7v-.2h-.3C405.6,25.6,405.4,25.8,405.2,26.1Zm.6-1.7v.2c0,.5,3.8,1.1,11.2,1.6l.7.2h.7a13,13,0,0,0,3.4.8c0,.2.1.3.4.3a2.1,2.1,0,0,0,.4-1V25.2c0-.5-1.1-1.7-3.2-3.6a5.2,5.2,0,0,0-3.2-1.6l-2-.3c-3.5.6-5.7,1.5-6.8,2.5A10.2,10.2,0,0,1,405.8,24.4Zm.1-.9h0a.5.5,0,0,0,.3-.5h0A.5.5,0,0,0,405.9,23.5Zm.2,21.2v.2c0,.2.4.5,1,.7l.3.2h0a3.5,3.5,0,0,0-1.1-1.1Zm.4-23.9h.1c.6-.1.8-.3.8-.4h-.3A.7.7,0,0,0,406.5,20.8Zm.3,8.4v.3h.3v-.2h-.3Zm.7-11.3h.3q1.2-.3,1.2-.6v-.4l-.2-.2h-.2C407.9,17.1,407.5,17.5,407.5,17.9Zm.8,10.7h0a62.5,62.5,0,0,0,6.6.6h0l-1.3.2c0,.1.6.2,1.6.2s2.6-.1,2.6-.3S414.6,28.8,408.3,28.6Zm.7-2.1h0a8.3,8.3,0,0,0,4.2.8h1.4v-.2A27.4,27.4,0,0,0,409,26.5Zm.1-6.1a8.7,8.7,0,0,1,2.5-1.1h-.7C409.7,19.4,409.1,19.8,409.1,20.4ZM410,17h.1a15.5,15.5,0,0,0,3.7-.8q.6,0,.6-.3h-.2a11.7,11.7,0,0,0-4.1.9H410Zm.5,27.9h0c0,.2.4.3,1.3.5h.1a3.6,3.6,0,0,0-1.3-.5Zm2.2-26.7h0a5.7,5.7,0,0,0,2.5.6h.1v-.2a1.8,1.8,0,0,0-1.6-.7h-.3C412.9,18,412.7,18.1,412.7,18.2ZM414,45.6v.2h.2v-.2Zm2.3,1.6L415,47h-.2c-.4,0-.6.1-.6.2h0l.2.3h1.1a15,15,0,0,0,4.5-.7h0c-.1-.2-.3-.3-.7-.3H419A5,5,0,0,0,416.3,47.2Zm-1.1-29.9v.2a8.7,8.7,0,0,0,2.5.3h.1v-.2c0-.2-.2-.3-.8-.3Zm1.2,1.3h0a39.2,39.2,0,0,0,3.8,2h.1l.6-.2h.4a1.9,1.9,0,0,0-1-.4l-1.3-.5c-.2-.8-.9-1.1-2-1.1h-.1C416.6,18.4,416.4,18.5,416.4,18.6Zm3.7,9.5v.2h.2v-.2Zm.1,1.6c0,.2.3.2,1,.2h.7c0-.2-.5-.3-1.3-.3Zm0,14.1h.1a1,1,0,0,0,.5-.6h0A1,1,0,0,0,420.2,43.8Zm.4,2.7a1.1,1.1,0,0,0,1-.9h-.1Q420.6,46.1,420.6,46.5Zm.6-24.9a.6.6,0,0,0,.7.5h0l.2-.2v-.4l-.3-.3C421.4,21.2,421.2,21.4,421.2,21.6Zm.9,20.3h.1c.5,0,.7-.3.9-.9h0A1.1,1.1,0,0,0,422.1,41.9Zm.5-19.4c.4,1.3.7,2,1,2.2h.2v-.2c-.3-1.3-.6-1.9-1-1.9h-.3Zm.9,15.8h.4c.3,0,.4,0,.4-.2l-.2-.2H424A.5.5,0,0,0,423.5,38.3Zm.3,5.8h.2c.4-.3.7-.6.7-.8h-.1C424.1,43.5,423.8,43.8,423.8,44.1Zm.9-18.7v.4l.2.2a.5.5,0,0,0,.3-.5h0v-.2h-.2Zm.3,17v.2c.7-.2,1-.5,1-.9H426A.9.9,0,0,0,425,42.4Zm1.4-.7h.2a.5.5,0,0,0,.4-.6h-.2A.7.7,0,0,0,426.4,41.7Zm2.2-.6h-.1c.1.6.3.8.5.8h.2C429.1,41.3,428.9,41.1,428.6,41.1Z" transform="translate(-1 0)" style="fill:#b75326"/><path d="M435.4,15.6c3,.4,4.5.9,4.5,1.7l.4.4v.7l.6.8a1.7,1.7,0,0,0-.6,1.2c0,.2.2.3.4.3h0l-.4.4h-.4a2.5,2.5,0,0,0-1.1-.5c-2.1.1-2.4,1.9-.8,5.4s2.2,6.7,3.1,7.8c2.2,5.2,3.8,7.9,4.6,8.1h.2a13.4,13.4,0,0,0,1.4-3,54.3,54.3,0,0,0,3.6-7.8,8.2,8.2,0,0,0,1.1-2.5l-.2-.6c2.9-5.5,2.8-7.9-.5-7.3h-.1c-.2-3.6.2-5.4,1.1-5.4s3.7-.6,7.7-.6c1.9,0,2.8.7,2.8,2.1a3.3,3.3,0,0,1,.7,1.4,2.8,2.8,0,0,0-1,1.9l-2.2.4c-.2.3-.9,1.8-2.1,4.4a83,83,0,0,1-4.3,8.4l-1.7,5c-2.5,5.2-3.8,7.7-3.8,7.7s-.2.2-.2.4V47h.1c0,.6-.6,1-1.6,1.1l-1.2.7a4.2,4.2,0,0,1-2.2-.9c-1.1-1.5-2.1-2.9-3-4.3s-1-2.7-1.4-2.7a8.7,8.7,0,0,1-1-3.1c-1.1-1.7-1.8-3-2.4-3.7a.9.9,0,0,1,.3-.6v-.2l-1.1-2.6c-.5-2.2-1-3.4-1.3-3.6-1.4-3.8-2.3-5.8-2.8-5.8s-.3.3-.8.3a4.5,4.5,0,0,1-2.5-1h0l.2-.3v-.2c0-.1-.3-.3-.8-.6h-.1c1-.2,1.4-.3,1.4-.6l-.8-.4h-.1l.4-.6c0-.2-.1-.4-.4-.7h0C431.7,16,434.5,15.6,435.4,15.6Zm-6.5,5.3h1l-.7-.2h-.1Zm1.4-2.2v.2h.4c.5-.1.8-.2.8-.4v-.2h-.8Zm2.4,3.6v.3c.7.3.8.3.2-.3Zm.8-5.6c0,.1.4.2,1.1.2h2.2v-.2a7.4,7.4,0,0,0-1.8-.4h-.7C433.8,16.3,433.6,16.4,433.5,16.7Zm2,10.5c0,.6.1.8.3.8h0c-.1-.5-.2-.7-.3-.7Zm4,6.7h0q.9,2.4,1.5,2.4h0c-.5-1.6-.9-2.5-1.3-2.5Zm2.2,8.2v.2c0,.4.4.7,1.1,1.1h.2a2.3,2.3,0,0,0-1.2-1.2Zm1.4,3.2h0l.2.3h.2v-.2l-.3-.2Zm.3-3.3h0a2.5,2.5,0,0,0,.9,1.5h.2a4.4,4.4,0,0,0-1-1.5Zm.1,2.3c.6.7,1.1,1.1,1.6,1.1v-.2c-.4-.7-.9-1.1-1.4-1.1Zm2-.7c.2.8.5,1.2,1,1.2a3.5,3.5,0,0,0,.7-1.7h-.1a4.9,4.9,0,0,1-1.6.4Zm2.7.4-1.5,2.7v.2h0c.8,0,1.4-.8,1.6-2.4.1,0,.1-.2.1-.5Zm1.5-7a39.9,39.9,0,0,0-2.3,4.6l.2.2a22.5,22.5,0,0,0,2.1-4.1,1.4,1.4,0,0,0,.2-.6h-.2Zm-1.2,6.5h.2c.2,0,1.2-1.9,2.9-5.8l.2-.9h-.1c-.5.2-1.1,1.4-1.8,3.4A10.9,10.9,0,0,0,448.5,43.5Zm3-25.9V18c0,.6.2.9.7.9h.1v-.2h0c-.4-1-.6-1.5-.7-1.5S451.5,17.4,451.5,17.6Zm.6-1.5H452v.3l.3.3h0c0-.3,2.4-.5,7.2-.7h.1c0-.2-.3-.3-1-.3A29.3,29.3,0,0,0,452.1,16.1Zm.2,16.1h.2c.2,0,.3-.1.3-.4v-.2l-.2-.2Q452.3,31.6,452.3,32.2Zm.6-.6v.2l.2-.3v-.2h0Zm.2-13.7h.2c.3,0,.4-.1.4-.2v-.2h-.4Zm.3,12.7h.1a3.9,3.9,0,0,0,.8-1.4h0Q453.6,29.1,453.4,30.6Zm1-2.7v.4h.2a1.6,1.6,0,0,0,.6-1.2v-.3H455A1.4,1.4,0,0,0,454.4,27.9Zm1.1-2.5h.2c.3,0,.5-.4.7-1.2V24h-.1C456,23.9,455.8,24.4,455.5,25.4Zm.9.2h0Zm.2-2V24h.2c.2-.1.5-.5.8-1.4a1.4,1.4,0,0,1,.9-.2h0v-.7h.3a1.2,1.2,0,0,0-.5-1C457.7,20.4,457.1,21.5,456.6,23.6Zm3.4-5.2v.2h.8c.6,0,.9-.1.9-.2s-.2-.2-.8-.3h-.5C460.1,18.2,460,18.3,460,18.4Z" transform="translate(-1 0)" style="fill:#b75326"/><path d="M477.9,15.6a12.9,12.9,0,0,1,6.3,2.2c2.1,1.5,3.1,2.6,3.1,3.2,1.7,3.6,2.5,5.6,2.5,6.2v.5a9.1,9.1,0,0,0-.9,3h-5.6a6.2,6.2,0,0,0-1.8.2c-5.9-.5-10.1-.7-12.4-.7h-1.4a3.1,3.1,0,0,0-.7,1.5,4.3,4.3,0,0,1,.4,2.2c0,1.6.3,2.5.7,2.8v.3h-.4l.7.6a3.1,3.1,0,0,0,1.1,2.1c1.3,2.4,2.8,3.9,4.4,4.4a12.4,12.4,0,0,0,4.6.7,5.6,5.6,0,0,0,1.8-.8c.8-.2,2.3-1.6,4.6-4v-.2c0-.1-.2-.2-.8-.2v-.3a7.5,7.5,0,0,1,3.4-3.6,15.8,15.8,0,0,0,2.3,1.7,49.7,49.7,0,0,0,3.6,5v.2c-1.3,1.7-2.3,2.6-2.8,2.6h-.3c0-.9-.5-1.4-1.6-1.6s-1.2.7-2.7,2.1a15.5,15.5,0,0,1-4.9,2.1,42.5,42.5,0,0,1-5.7.8l-3.5-1.2c-2,0-3.8-1.1-5.4-3.2a7.5,7.5,0,0,1-1.8-2.7,37.4,37.4,0,0,0-1.4-5.2,23.8,23.8,0,0,1-.4-3.4h0a22.8,22.8,0,0,1,4.9-14.4,4.8,4.8,0,0,1,2.9-2.2,20.8,20.8,0,0,1,3.6-.7Q474.8,15.3,477.9,15.6ZM464,31.3h0a1.9,1.9,0,0,0-.1.8v.3a3.6,3.6,0,0,0,.6,2h.1C464.6,32.7,464.4,31.6,464,31.3Zm0-2.3v.3c0,.3.1.4.2.4s.2-.2.3-.6H464Zm.8-3.3a5,5,0,0,0-.8,2.5h.1c.2,0,.6-.8,1.1-2.2S465,25.7,464.8,25.7Zm.1,11h0V37h.2v-.2h-.3Zm.6,1h-.1c.3.7.5,1,.7,1h.1C466.2,38.4,466,38.1,465.5,37.7Zm1.8-8.1h1.2l-.3-.2h-.1C467.7,29.2,467.4,29.3,467.3,29.6Zm.1-7.5h.1l.2-.2h-.2Zm0,4v.4h.1a2.3,2.3,0,0,0,.7-.7v-.2h-.2A.8.8,0,0,0,467.4,26.1Zm.6-1.7v.2c0,.5,3.7,1.1,11.2,1.6l.6.2h.8a12.6,12.6,0,0,0,3.3.8c0,.2.2.3.4.3a1.4,1.4,0,0,0,.4-1V25.2c0-.5-1-1.7-3.1-3.6a5.5,5.5,0,0,0-3.2-1.6l-2.1-.3c-3.4.6-5.6,1.5-6.7,2.5A10.2,10.2,0,0,1,468,24.4Zm.1-.9h0a.5.5,0,0,0,.3-.5h0A.5.5,0,0,0,468.1,23.5Zm.1,21.2v.2a1.7,1.7,0,0,0,1.1.7l.3.2h0a3.5,3.5,0,0,0-1.1-1.1Zm.5-23.9h.1c.5-.1.8-.3.8-.4h-.3A.5.5,0,0,0,468.7,20.8Zm.3,8.4v.3h.3v-.2H469Zm.7-11.3h.2c.8-.2,1.3-.4,1.3-.6v-.4l-.3-.2h-.1C470.1,17.1,469.7,17.5,469.7,17.9Zm.8,10.7h0a62.6,62.6,0,0,0,6.5.6h.1l-1.3.2c0,.1.5.2,1.6.2s2.6-.1,2.6-.3S476.8,28.8,470.5,28.6Zm.6-2.1h0a8.5,8.5,0,0,0,4.3.8h1.3v-.2A26.7,26.7,0,0,0,471.1,26.5Zm.2-6.1a7.8,7.8,0,0,1,2.4-1.1H473C471.8,19.4,471.3,19.8,471.3,20.4Zm.9-3.4h.1a16.5,16.5,0,0,0,3.7-.8c.4,0,.5-.1.5-.3h-.2a11.3,11.3,0,0,0-4,.9h-.1Zm.5,27.9h0c0,.2.4.3,1.3.5h.1a3.9,3.9,0,0,0-1.4-.5Zm2.2-26.7h0a5.7,5.7,0,0,0,2.5.6h.1v-.2a1.8,1.8,0,0,0-1.7-.7h-.2C475.1,18,474.9,18.1,474.9,18.2Zm1.2,27.4v.2h.3v-.2Zm2.4,1.6-1.3-.2h-.3l-.6.2h0l.2.3h1.2a14.8,14.8,0,0,0,4.4-.7h0c0-.2-.3-.3-.7-.3h-.3A4.8,4.8,0,0,0,478.5,47.2Zm-1.1-29.9v.2a7.9,7.9,0,0,0,2.5.3h.1v-.2c0-.2-.3-.3-.8-.3Zm1.2,1.3h0a29.1,29.1,0,0,0,3.8,2h.1l.6-.2h.4a2.3,2.3,0,0,0-1-.4l-1.3-.5c-.3-.8-1-1.1-2-1.1H479C478.7,18.4,478.6,18.5,478.6,18.6Zm3.6,9.5v.2h.3v-.2Zm.1,1.6c0,.2.4.2,1.1.2h.6q0-.3-1.2-.3Zm0,14.1h.2a1,1,0,0,0,.5-.6h-.1A1,1,0,0,0,482.3,43.8Zm.5,2.7c.4,0,.7-.3,1-.9h-.2C483,45.9,482.8,46.2,482.8,46.5Zm.6-24.9c.1.4.3.5.6.5h.1v-.6l-.3-.3A.5.5,0,0,0,483.4,21.6Zm.8,20.3h.2q.6,0,.9-.9h0C484.8,41,484.5,41.3,484.2,41.9Zm.5-19.4a6.4,6.4,0,0,0,1,2.2h.3v-.2c-.3-1.3-.7-1.9-1.1-1.9h-.3Zm1,15.8h.4c.2,0,.4,0,.4-.2l-.2-.2h-.1C485.9,38,485.7,38.1,485.7,38.3Zm.3,5.8h.2c.4-.3.6-.6.6-.8h-.1C486.2,43.5,486,43.8,486,44.1Zm.9-18.7V26a.5.5,0,0,0,.3-.5h0v-.2H487Zm.2,17,.2.2q.9-.3.9-.9h-.1A1,1,0,0,0,487.1,42.4Zm1.4-.7h.3a.7.7,0,0,0,.4-.6H489C488.7,41.3,488.5,41.5,488.5,41.7Zm2.2-.6h-.1c.2.6.4.8.6.8h.2C491.3,41.3,491.1,41.1,490.7,41.1Z" transform="translate(-1 0)" style="fill:#b75326"/><path d="M494.9,15.3a14.6,14.6,0,0,0,2.9.2h5.1v.2a8.2,8.2,0,0,0-.3,1.8v1.1c.1,1.1.4,1.7.9,1.7a5,5,0,0,1,2.5-1.3,20.5,20.5,0,0,1,8.2-2.2,7.2,7.2,0,0,1,4.5,1.9,8,8,0,0,1,3.5,2.8,18.1,18.1,0,0,1,2.4,9.5v.5l-.4,4.5.4,3.2-.6,2.9h0v.5h3.3a2.7,2.7,0,0,1,1.3.2q-.3,4.5-.9,4.5a5,5,0,0,1-2.7.7h-1.3a29.3,29.3,0,0,0-6.2.8c-1.4-.2-2.2-.9-2.2-2.2V44.7a3.8,3.8,0,0,1,1-3,40.4,40.4,0,0,1,1.3-5.5l.4-5.5c.1,0,.1-.5.1-1.4s-.8-2.6-2.6-4.7l-2.3-.9a9,9,0,0,0-6.5,3c-.1,0-1.1,1.1-3,3.1-.6.4-.9,1.8-.9,4.1.1,4.2.3,6.2.5,6.2s2.4.6,2.4,1v.3l-1.3-.2-1,.2v.2a8.1,8.1,0,0,0,2.4.6,2.6,2.6,0,0,1,.4,1.4h0a8.9,8.9,0,0,1-.6,3.1l-7.2.2a1.6,1.6,0,0,1-1.6-1.1,25.5,25.5,0,0,1-.5-4.5c0-.3.6-.5,1.8-.8l.3-.4h0a1.7,1.7,0,0,0-.5-1V33.7l.2-5.7c0-3.9-.2-5.8-.5-5.8h-.3l-2.9.4c-.3,0-.7-.3-1.2-.8v-.3a1.5,1.5,0,0,0,.3-1V18.3l.9-2.8Zm-.3,4.2h0q0,.1.3.3a2.5,2.5,0,0,0,1.1-.5h-1C494.7,19.3,494.6,19.4,494.6,19.5Zm.4-2.2v.2c0,.1.3.2.9.2,2.7,0,4.1-.2,4.1-.5l.2-.4h-.1Zm.1,4.2h.6l.2-.2h-.3C495.3,21.2,495.1,21.3,495.1,21.5Zm1.1-2.6.2.2h.2c.5-.1.8-.2.8-.4h-.3C496.5,18.7,496.2,18.7,496.2,18.9Zm.6,1.4h1.4c.4,0,.6.1.7.3v.2a.9.9,0,0,0-.3.6,1.1,1.1,0,0,0,.8.2c.1,0,.1,0,.1-.2V19.1h-.1l-2.5,1h-.1Zm.6,21.5h0c0,.7.3,1.1.8,1.1h.3l.2-.2h0a1.7,1.7,0,0,1-.6-1.1h-.6Zm1.6-19V23h.2v-.8h-.1C499.1,22.2,499.1,22.4,499,22.8Zm1.1,21.7c0,.2.5.3,1.6.3s3-.1,3-.3-.6-.4-2-.4S500.2,44.2,500.1,44.5Zm.8-24.1v1.5a2.2,2.2,0,0,1-.2,1v.3l.2.9v.5a.9.9,0,0,0,.3.7c.1,0,.3-.5.4-1.4s.9-.8.9-1.1a2.7,2.7,0,0,0-.7-1.3c-.1-.7-.3-1.1-.5-1.1Zm.9,3.9v.4a1.1,1.1,0,0,1-.5,1,.9.9,0,0,1,.3.6c0,2.1.2,3.1.4,3.1h.2a10,10,0,0,0,.4-2.9q-.2-2.2-.6-2.4h-.1C501.8,24.1,501.8,24.2,501.8,24.3Zm1.6-3.3v.2a2.6,2.6,0,0,0,1.9-1.1h-.2A2.8,2.8,0,0,0,503.4,21Zm.1,3.5v.2a10.6,10.6,0,0,0,4.4-2.7h-.4a3.6,3.6,0,0,0-1.4.9C504.3,23.4,503.5,23.9,503.5,24.5Zm.4,1.6v.2h.2v-.2h-.3Zm1.5-.2h.4v-.7h-.1Zm1.1-.9h.2c.6-.6,1-1,1-1.4h-.2C507.2,23.6,506.8,24.1,506.5,25Zm.5-5.5h.1l.6-.3h-.2C507.2,19.2,507,19.3,507,19.5Zm1.2-.6v.2c1.9-.5,2.9-.9,2.9-1.1h-.1a5.2,5.2,0,0,0-2.9.9Zm.3,5.4c.9-.2,1.3-.5,1.3-.8h-.3A.9.9,0,0,0,508.5,24.3Zm2.9-3.6v.2h.3c.6-.1.9-.2.9-.4h-.4C511.6,20.4,511.4,20.6,511.4,20.7Zm.9-3h0a3.6,3.6,0,0,1,1.5.8h2.8v-.2a.8.8,0,0,0-.7-.3h-.3l-.6.2a4.5,4.5,0,0,0-2-.9A.8.8,0,0,0,512.3,17.7Zm.1,4.4h.2c.9,0,1.4-.1,1.4-.3h-.6C512.8,21.8,512.4,21.9,512.4,22.1Zm2.2,1.1v.2h1.6V23l-.2-.2h-.3C515,22.9,514.6,23.1,514.6,23.2Zm1.3-2.7c0,.2.3.4,1.1.4s.3-.3.3-.5-.4-.4-1-.5A.6.6,0,0,0,515.9,20.5Zm.5,27.2h0c0,.3.5.4,1.6.4h.9a3,3,0,0,0-2-.6h-.2Zm.3-3v.5h.2V45h0l-.3-.3Zm.1-23.2h-.1l.3.2h0l.2-.2Zm1.2-1.1a.5.5,0,0,0,.5.3h.4l.2-.3h0q0-.3-.6-.3h-.2Zm.1,1.7v.2a7.2,7.2,0,0,0,.9,1.6c0,.4,0,.6.2.6l.3-.2v-.4a2.4,2.4,0,0,0-1.2-1.8Zm0,24.2c.2.3.4.5.7.5a11,11,0,0,0,3.4-.4,2,2,0,0,0-1.6-.6C518.9,45.9,518.1,46,518.1,46.3Zm.7-7.5a1.8,1.8,0,0,1,.3,1.1h.2l.2-.7V38.1C519,38.1,518.8,38.3,518.8,38.8Zm.3-13.7v.3a17.1,17.1,0,0,0,1,2.8v-1C519.9,25.8,519.5,25.1,519.1,25.1Zm0,12.6h.2c.1,0,.2-.2.2-.6v-.7h0C519.3,36.5,519.2,36.9,519.1,37.7Zm2.1,4.8v.2l.3.2h.2l-.2-.2Zm.1-1.1h.1l.2-.7v-.2h-.1C521.4,40.6,521.3,40.9,521.3,41.4Zm.1-3.2v.2h.1v-.2Zm.1-4.9h0l.2.7h.3C522,33.6,521.8,33.3,521.5,33.3Zm.4-8c0,2.1.3,3.2.6,3.2h.1c-.1-2.1-.4-3.2-.7-3.2Zm1,13.1v2.8h.1a2.7,2.7,0,0,0,.7-1.8h0C523.6,38.8,523.4,38.4,522.9,38.4Zm1.9,5.5h0c1.9,0,2.8-.1,2.8-.4h-.9C525.4,43.5,524.8,43.7,524.8,43.9Zm.6,1.2v.2c0,.2.2.3.5.3s1.1-.1,1.2-.4V45c0-.2-.3-.3-.7-.3h-.3C525.7,44.7,525.5,44.8,525.4,45.1Z" transform="translate(-1 0)" style="fill:#b75326"/><path d="M537.9,39.3q1.2.5,3.3,3.3h0c0,.6-1.1,1.8-3.4,3.7h0l1,.2h0l-1,.2a8,8,0,0,1-4-1.7,3.2,3.2,0,0,1-.7-1.9c0-1.7,1.1-3,3.5-3.8ZM538,2.1h.4a3.8,3.8,0,0,1,2.8,1.4V8.7l.4,8.2a24.3,24.3,0,0,1-.8,6.6v1.8l-.3,1.2v.8a3.6,3.6,0,0,0,.4,1.9c-.1,1-.3,1.5-.5,1.5h-.1a.5.5,0,0,0-.5-.3,11.9,11.9,0,0,0-2.4,1.7h.1c1.8-.1,2.8-.4,2.8-.6h.3l.3.3c0,.6-1.7,1.1-5.1,1.4l-.6-.3c0-.3.3-.4.9-.5h.2v-.2c0-.1-.3-.2-.8-.4v-.5c0-.2.3-.4.9-.5a2,2,0,0,0,.3-.8h0l-1.4-.3c-.2,0-.4-5-.7-15.1-.1-1.6-.2-3.7-.2-6.3V6.4a1.9,1.9,0,0,1,.9-1.7l-.7-1c0-.3.3-.4.7-.5h.1V2.9h-.1C535.3,2.4,536.2,2.1,538,2.1Zm-3,40.6.2.3h.2v-.5h-.2C535.1,42.3,535,42.5,535,42.7Zm.4-34.1h-.1V9.9h.1V9.2C535.6,8.8,535.5,8.6,535.4,8.6Zm0,2v3.7h.2a9.1,9.1,0,0,0,.2-2.1l-.3-1.5h-.2Zm.1,4.5v.3h.1l.3-.2V15h-.3Zm.6-11.6v.2h.5V3.5h-.5Zm.2,19.4v3.3c0,.6.1.9.2.9a1.7,1.7,0,0,0,1-1.4v-.2c0-.1-.1-.2-.4-.4s-.2-.6-.3-1.7v-.2h-.1A.2.2,0,0,0,536.3,22.9Zm.2,5.1h.1a.6.6,0,0,0,.3-.6h-.1Q536.5,27.4,536.5,28Zm.4,14.4v.2h.3c.6-.1.8-.2.8-.3v-.2h-.5C537.1,42.1,536.9,42.2,536.9,42.4Zm.2-26.5h0v.2h.3v-.5h-.1Zm.1,2.9v.3h.1c.2,0,.2-.4.2-1V16.7C537.4,16.7,537.3,17.4,537.2,18.8Zm.1,22.1c0,.3.5.4,1.4.4h.1c0-.2-.4-.3-1-.4h-.5Zm.4-15.6v.2h.3v-.3H538Zm0,18.2h0l.2.2h.1l.3-.2v-.2H538Zm.7-36.6h-.1v3.8c0,1.3.1,2,.4,2h.1V10a1.2,1.2,0,0,1,.4-1.1V8.7c-.4,0-.5-.5-.5-1.7Zm0-.7h-.1l.2.3h.1l.2-.2V6.2Zm.7,22.7v.2h0c.7,0,1.1-.3,1.2-.8V28H540C539.9,27.9,539.5,28.2,539.1,28.9Zm.1-14.9v.5l.2.2h.1V13.5h-.1A.8.8,0,0,0,539.2,14Zm.2-9.4h0c0,.5.1.7.3.7h.1c.2,0,.4-.3.4-1a.3.3,0,0,0-.3-.3C539.6,4.1,539.4,4.2,539.4,4.6Zm.3,12.5v.4h.1l.3-.2v-.2Z" transform="translate(-1 0)" style="fill:#231f20"/></g></g></svg>