<svg xmlns="http://www.w3.org/2000/svg" viewBox="0 0 275.4 49.1"><title>icn_rotator_Asset 62_adj</title><g id="Layer_2" data-name="Layer 2"><g id="Layer_1-2" data-name="Layer 1"><path d="M15.8,15.6a13.6,13.6,0,0,1,6.3,2.2c2.1,1.6,3.2,2.7,3.2,3.3,1.6,3.5,2.4,5.6,2.4,6.2v.5a9.4,9.4,0,0,0-.9,2.9H21.2l-1.7.2c-6-.5-10.1-.7-12.5-.7H5.7a4.3,4.3,0,0,0-.8,1.5A4.8,4.8,0,0,1,5.4,34c0,1.6.2,2.5.7,2.8v.3h0L5.8,37v.2l.6.6a3.1,3.1,0,0,0,1.1,2c1.3,2.4,2.8,3.9,4.4,4.5a15.8,15.8,0,0,0,4.7.6,4.4,4.4,0,0,0,1.7-.7c.8-.3,2.4-1.6,4.7-4.1h0c0-.1-.3-.2-.8-.3v-.3a6.5,6.5,0,0,1,3.4-3.5l2.2,1.7c1,1.4,2.2,3.1,3.7,4.9v.3c-1.3,1.7-2.3,2.5-2.9,2.5h-.2c0-.9-.6-1.4-1.7-1.5a14.7,14.7,0,0,0-2.7,2A14.5,14.5,0,0,1,19,47.9a30.9,30.9,0,0,1-5.7.9L9.8,47.5c-1.9,0-3.7-1.1-5.4-3.2a7.3,7.3,0,0,1-1.7-2.7c0-.3-.5-2-1.4-5.1a15.5,15.5,0,0,1-.4-3.4h0A21.9,21.9,0,0,1,5.8,18.6a4.7,4.7,0,0,1,2.9-2.3l3.5-.7ZM2,31.3H1.9v.2H2a2,2,0,0,0-.2.9v.3a4.1,4.1,0,0,0,.6,2h.2C2.6,32.7,2.4,31.6,2,31.3ZM2,29v.4c0,.2.1.4.2.4s.3-.2.3-.6L2.2,29Zm.8-3.3c-.4.3-.6,1.2-.8,2.5H2c.3,0,.7-.7,1.2-2.2S3,25.7,2.8,25.7Zm0,11h0L3,37h.2v-.2H2.8Zm.7,1.1H3.4c.2.6.5,1,.7,1h0A1.4,1.4,0,0,0,3.5,37.8Zm1.7-8.2H6.4l-.2-.3H6A1,1,0,0,0,5.2,29.6Zm.1-7.4h.2Zm0,3.9v.2l.2.2h.1a2.3,2.3,0,0,0,.7-.7v-.2H6C5.7,25.6,5.5,25.8,5.3,26.1ZM6,24.5v.2c0,.5,3.7,1,11.2,1.5l.6.2h.7a15.2,15.2,0,0,0,3.4.9c0,.1.1.2.4.3a2.5,2.5,0,0,0,.4-1.1V25.3c0-.6-1.1-1.8-3.1-3.6A5.9,5.9,0,0,0,16.4,20l-2.1-.3c-3.4.7-5.7,1.5-6.7,2.5Zm0-1H6a.5.5,0,0,0,.3-.5h0A.5.5,0,0,0,6,23.5Zm.2,21.2v.2c0,.3.4.5,1,.7l.3.3h0a5.3,5.3,0,0,0-1.1-1.1Zm.4-23.9V21h.1c.6-.2.9-.3.9-.5H7.2C7,20.4,6.8,20.6,6.6,20.8Zm.3,8.4v.4h.3v-.3H6.9Zm.7-11.3h0l.2.2h.1c.8-.2,1.2-.4,1.2-.7v-.3l-.2-.3H8.8C8,17.2,7.6,17.5,7.6,17.9Zm.8,10.7v.2a48.2,48.2,0,0,0,6.6.5H13.7c0,.2.6.3,1.6.3s2.6-.1,2.6-.3S14.8,28.8,8.4,28.6Zm.7-2.1v.2a8.3,8.3,0,0,0,4.2.8h1.4v-.3Zm.1-6.1a9.5,9.5,0,0,1,2.5-1H11Q9.2,19.5,9.2,20.4Zm.9-3.4h.1a15.4,15.4,0,0,0,3.8-.7c.3-.1.5-.2.5-.3h-.2a11.7,11.7,0,0,0-4.1.9h-.1Zm.5,27.9h0c0,.2.5.4,1.3.6H12a3.6,3.6,0,0,0-1.3-.5Zm2.2-26.6h0c0,.2.9.4,2.5.7h.1v-.2a1.7,1.7,0,0,0-1.6-.8h-.2C13.1,18,12.8,18.1,12.8,18.3Zm1.3,27.3v.2h.3v-.2Zm2.4,1.6H14.9c-.4,0-.6,0-.6.2h0l.2.2h1.1a18.6,18.6,0,0,0,4.5-.6h0c-.1-.2-.3-.3-.7-.3h-.3A5.5,5.5,0,0,0,16.5,47.2ZM15.3,17.3v.2a6.7,6.7,0,0,0,2.5.4h.1v-.2c0-.1-.2-.2-.7-.3Zm1.2,1.4h0a22.8,22.8,0,0,0,3.8,2h.1l.6-.2h.4l-1-.4-1.2-.5a2,2,0,0,0-2-1.1H17C16.7,18.5,16.5,18.5,16.5,18.7Zm3.7,9.4v.2h.2v-.2Zm.1,1.7c0,.1.3.2,1,.2H22c0-.2-.4-.3-1.3-.3S20.3,29.7,20.3,29.8Zm0,14.1h.1a1.3,1.3,0,0,0,.5-.7h0C20.5,43.4,20.3,43.6,20.3,43.9Zm.4,2.7c.4,0,.8-.3,1-1h-.1C21,46,20.7,46.3,20.7,46.6Zm.6-24.9c.2.3.4.5.7.5h.1v-.6l-.3-.3C21.5,21.3,21.3,21.4,21.3,21.7Zm.9,20.2h.2c.4,0,.7-.3.8-.8h0A1,1,0,0,0,22.2,41.9Zm.5-19.4c.4,1.3.7,2.1,1,2.2h.4c-.4-1.3-.7-2-1.1-2h-.3Zm.9,15.9H24a.6.6,0,0,0,.5-.2l-.3-.3h-.1A.5.5,0,0,0,23.6,38.4Zm.3,5.8h.2c.5-.4.7-.7.7-.9h-.1C24.2,43.5,23.9,43.8,23.9,44.2Zm1-18.8V26c.2,0,.3-.2.3-.4v-.2h-.4Zm.2,17,.2.2c.6-.2.9-.5.9-.8h-.1C25.5,41.7,25.2,41.9,25.1,42.4Zm1.4-.6h.2a.5.5,0,0,0,.4-.6h-.2A.7.7,0,0,0,26.5,41.8Zm2.2-.6h-.1c.1.5.3.8.5.8h.1v-.2h0A.6.6,0,0,0,28.7,41.2Z" transform="translate(-0.9 0)" style="fill:#b75326"/><path d="M32.8,15.4l3,.2h5l.2.2a4.5,4.5,0,0,0-.4,1.7v1.1c.2,1.2.5,1.7,1,1.7s1.1-.8,2.5-1.3c3.3-1.4,6-2.2,8.1-2.2a8.1,8.1,0,0,1,4.6,1.9,8.1,8.1,0,0,1,3.4,2.9,17,17,0,0,1,2.5,9.5v.5L62.3,36l.4,3.2-.6,2.9h0v.6h3.4a1.9,1.9,0,0,1,1.3.3c-.2,3-.6,4.5-1,4.5a6,6,0,0,1-2.7.7H61.9a23.5,23.5,0,0,0-6.2.8c-1.5-.2-2.2-.9-2.2-2.2V44.8a4.1,4.1,0,0,1,1-3.1,44.2,44.2,0,0,1,1.4-5.5l.4-5.4a7.9,7.9,0,0,0,.1-1.4c0-1.1-.9-2.7-2.6-4.8a12.1,12.1,0,0,0-2.4-.8,8.8,8.8,0,0,0-6.4,3q-.3,0-3,3-.9.8-.9,4.2c0,4.1.2,6.2.4,6.2s2.4.6,2.4.9v.3H41.5v.2q0,.3,2.4.6a2.1,2.1,0,0,1,.4,1.5h0a9.4,9.4,0,0,1-.6,3.1H36.6A1.5,1.5,0,0,1,35,46a40.8,40.8,0,0,1-.6-4.6c0-.2.6-.5,1.9-.7l.3-.4h0a2.3,2.3,0,0,0-.5-1V33.7l.2-5.7c0-3.8-.2-5.8-.6-5.8h-.3l-2.9.4c-.3,0-.6-.3-1.1-.8v-.2a1.7,1.7,0,0,0,.3-1V18.3l.9-2.8Zm-.3,4.1h0c0,.2.1.3.4.3a1.9,1.9,0,0,0,1.1-.5H32.9C32.7,19.4,32.5,19.4,32.5,19.5Zm.4-2.1h0c0,.2.4.2,1,.3,2.7,0,4-.2,4-.6l.3-.4H38Zm.1,4.1h.7l.2-.2h-.3Q33,21.4,33,21.5Zm1.2-2.6.2.2h.1l.8-.3H35C34.5,18.7,34.2,18.8,34.2,18.9Zm.5,1.4h1.5a.8.8,0,0,1,.7.3h0a1.3,1.3,0,0,0-.3.7l.7.2a.2.2,0,0,0,.2-.2V19.1h-.2l-2.5,1h-.1Zm.6,21.5h0c.1.8.3,1.2.9,1.2h.3l.2-.3h0a1.9,1.9,0,0,1-.6-1.2h-.7Zm1.7-19v.3h.1l.2-.9h-.2C37.1,22.2,37,22.4,37,22.8Zm1,21.7c0,.2.6.3,1.7.3s3-.1,3-.3-.7-.4-2.1-.4A4.9,4.9,0,0,0,38,44.5Zm.9-24V22a2,2,0,0,1-.2.9v.4l.2.9v.4a.7.7,0,0,0,.4.7c.1,0,.2-.4.4-1.4s.8-.8.8-1.1a4,4,0,0,0-.6-1.3c-.2-.7-.3-1-.5-1Zm.8,3.9v.4a1.4,1.4,0,0,1-.5.9.9.9,0,0,1,.3.6c0,2.1.1,3.2.4,3.2h.1a7.8,7.8,0,0,0,.4-2.9c0-1.6-.2-2.4-.5-2.4h-.1C39.8,24.2,39.7,24.2,39.7,24.4Zm1.7-3.3v.2a2.8,2.8,0,0,0,1.8-1.1h-.1C42.6,20,42.1,20.4,41.4,21.1Zm0,3.4v.2q1.6-.1,4.5-2.7h-.4a5.4,5.4,0,0,0-1.5.8C42.3,23.4,41.4,24,41.4,24.5Zm.4,1.7.2.2h.2V26H42Zm1.5-.3h0v.2h.3v-.7h-.1Zm1.2-.9h.1c.7-.6,1-1,1-1.3h-.1C45.1,23.7,44.8,24.1,44.5,25Zm.5-5.5h.1l.5-.3h-.1C45.2,19.3,45,19.4,45,19.5Zm1.1-.6v.2c2-.5,2.9-.8,2.9-1H49a5.7,5.7,0,0,0-2.9.9Zm.3,5.4c.9-.2,1.4-.4,1.4-.7h-.4A.9.9,0,0,0,46.4,24.3Zm2.9-3.5V21h.3c.6-.1,1-.3,1-.4v-.2h-.4C49.6,20.5,49.3,20.6,49.3,20.8Zm1-3h0a3.1,3.1,0,0,1,1.5.7l.7.2h2c-.1-.2-.3-.3-.7-.3H53a4.4,4.4,0,0,0-2-.8C50.6,17.5,50.4,17.6,50.3,17.8Zm.1,4.3h.2c.9,0,1.3-.1,1.3-.2l-.5-.2C50.7,21.9,50.4,22,50.4,22.1Zm2.2,1.2v.2h1.5l.2-.2v-.2l-.3-.3h-.3C52.9,23,52.6,23.1,52.6,23.3Zm1.2-2.7c0,.2.4.3,1.1.4a.9.9,0,0,0,.3-.6c0-.2-.3-.3-1-.5A.8.8,0,0,0,53.8,20.6Zm.5,27.1v.2c0,.2.6.4,1.7.4h.8a2.8,2.8,0,0,0-2-.6h-.2Zm.3-3v.4H55l-.3-.3Zm.1-23.2h.4ZM56,20.4c0,.2.2.3.5.3h.3l.3-.2h0l-.6-.2h-.3Zm.1,1.7v.2a9.1,9.1,0,0,0,.8,1.7c0,.3.1.5.2.5l.3-.2V24a2.6,2.6,0,0,0-1.2-1.9Zm0,24.2a.8.8,0,0,0,.7.5c2.2-.1,3.3-.2,3.3-.4a1.7,1.7,0,0,0-1.5-.5C56.9,45.9,56.1,46.1,56.1,46.3Zm.7-7.5a2.1,2.1,0,0,1,.3,1.2h.1l.2-.8v-1A.5.5,0,0,0,56.8,38.8Zm.3-13.7v.3a16.2,16.2,0,0,0,.9,2.9l.2-.5v-.5C57.8,25.9,57.5,25.1,57.1,25.1Zm0,12.7h.1c.2-.1.3-.3.3-.7v-.7h-.1C57.3,36.5,57.2,36.9,57.1,37.8Zm2.1,4.7v.3l.2.2h.1v-.2h0l-.2-.3Zm.1-1.1h0l.3-.7h-.1C59.3,40.7,59.3,40.9,59.3,41.4Zm0-3.2v.3h.2v-.3Zm.1-4.9h0l.2.8h.3C59.9,33.6,59.7,33.3,59.4,33.3Zm.4-8q.2,3.3.6,3.3h.2c-.2-2.2-.4-3.3-.7-3.3Zm1.1,13.2-.2,1.3v1.5h.1a3.4,3.4,0,0,0,.8-1.8h0C61.6,38.8,61.3,38.5,60.9,38.5Zm1.8,5.4v.2c1.9,0,2.8-.2,2.8-.4v-.2h-.8C63.4,43.6,62.7,43.7,62.7,43.9Zm.6,1.3v.2a.6.6,0,0,0,.6.3,1.4,1.4,0,0,0,1.2-.5h0c-.1-.2-.3-.3-.7-.3h-.3C63.7,44.8,63.4,44.9,63.3,45.2Z" transform="translate(-0.9 0)" style="fill:#b75326"/><path d="M71.1,1.3c5.2.2,7.9.7,7.9,1.5l.4,9a34.9,34.9,0,0,1-1.3,6.3,15.8,15.8,0,0,0-.3,2.6v.4h.1a14.9,14.9,0,0,1,9.5-3.2,16.2,16.2,0,0,1,5.7,1.7,28,28,0,0,1,2.1,2.6,1.5,1.5,0,0,1,.5.7v.6c1.2,1,1.7,2.7,1.7,4.9.2,0,.3,2.1.3,6.1h0a68.1,68.1,0,0,1-1,6.9l-.2,1.1h1.3c1.4.1,2,.3,2,.6s-.6.3-1.9.4h0c0,.2.5.3,1.4.6l.2.3h0l-1.1.3c.7.2,1.1.5,1.1.8,0,2-.5,3-1.6,3h-.6c-1.6,0-2.4-.3-2.4-.8a7.5,7.5,0,0,0-2.4-.3l-1.9-.8v-.2a66.4,66.4,0,0,1,.8-7.9,39,39,0,0,1,1.1-6.4V30.2l.2-.3a2,2,0,0,1-.9-1.8A7.8,7.8,0,0,0,90.4,26a10.8,10.8,0,0,0-2.6-.9,8.4,8.4,0,0,0-6.2.3c-2.6,1.8-4,3.1-4,4l-.4,4,.2,4.2q-.5,4.5-.9,4.5v.3h.5l1-.4c1,.1,1.5.5,1.5.9l-.4.4v.3l.8.4v.3c-.2,2.1-.5,3.2-.9,3.2h-.2c-.6-.4-2.8-.7-6.6-.8s-4.1-.7-4.1-1.3v-1c-.1-.2,0-.4.3-.9v-.4a4.1,4.1,0,0,1-.7-1.2,10,10,0,0,1,3-.3q.5,0,.6-2.4a2.9,2.9,0,0,0,.7-2,1.3,1.3,0,0,0,.4-1h0a3.2,3.2,0,0,0-.7-1.9l.7-1.5c.2,0,.4-4.5.5-13.5l.8-9.1V7.5c0-.9-.3-1.4-.8-1.4h-2l-1.4.4c-.2,0-.3-.5-.4-1.6V4.1c0-1.8.3-2.7.8-2.7Zm-2,42.1v.2h2.5c0-.3-.6-.5-1.8-.5S69.1,43.2,69.1,43.4Zm.7,2h.1a16.7,16.7,0,0,1,3,.8,41.3,41.3,0,0,1,5.4.5h.1l.3-.3h0q0-.6-6-.6a4.3,4.3,0,0,0-2.4-.6C69.9,45.2,69.8,45.3,69.8,45.4Zm.5-42.3v.4h.2V3.2Zm.9-.9v.3a4.1,4.1,0,0,0,2.1.5V2.8a4.9,4.9,0,0,0-2.2-.6Zm.5,1.3h0l.2.2h.8V3.6h-1Zm.2,38q0,.4,2.1.6h.3v-.5a.6.6,0,0,0-.5-.2H72.6A1,1,0,0,0,71.9,41.5Zm.2-36.9h0a.5.5,0,0,0,.5.3h.8V4.6H72.1Zm3,7.6a8.2,8.2,0,0,0-.2,2.2c.5,0,.8.4.8,1.1h.1a3.5,3.5,0,0,0,.1-1.2v-.8h0l-.3.6h-.2v-.3c0-.4.1-.5.2-.5h.4C75.9,13.2,75.6,12.8,75.1,12.2Zm.4-1.6h0l.3.3H76v-.2l-.2-.3h-.1Zm.1-1.9v.4l.2.2.2-.2V8.8l-.2-.3ZM76.5,27v.4h.1c.4,0,.7-.4.9-1.1h0v-.3h0A2.7,2.7,0,0,0,76.5,27Zm.3-24.1c.2.2.3.4.6.5h.1a.5.5,0,0,0,.5-.3V2.9l-.3-.3h-.6Zm.3,25.2h.6a.6.6,0,0,0,.5-.2l-.2-.2h-.2C77.4,27.8,77.2,27.9,77.1,28.1Zm.3,15.6V44l.3.3h.4l.2-.3h0l-.4-.4h-.5Zm.4-.9V43H78v-.2Zm1.7-19.3h.2c.5-.2.7-.4.7-.6h-.1A1.8,1.8,0,0,0,79.5,23.5ZM82,25h.1l.3-.2v-.2h-.2Zm2.6-3.1h0l.2.2h.4l-.2-.2Zm.8,2h.2v-.2h0Zm.9-.8v.3A4.9,4.9,0,0,0,88,24l.2-.2c0-.3-.5-.5-1.5-.8ZM88,18.5h0l.8.4h0c0-.2-.3-.3-.8-.4Zm2.2,6.1h0a.5.5,0,0,0,.6.6h0Q90.7,24.6,90.2,24.6Zm1,21.6v.2a.8.8,0,0,0,.8.4h.6v-.2c0-.2-.3-.3-.7-.4Zm.1-26.3h0a.9.9,0,0,0,.9.5v-.2A1.3,1.3,0,0,0,91.3,19.9Zm.2,25.6h.3v-.2l-.3-.2Zm.1-.9h2.7a3.5,3.5,0,0,0-2-.4c-.4,0-.7.2-.7.5Zm.8-20.9v.2a7.2,7.2,0,0,1,1.7,2.8.7.7,0,0,0,.6.4v-.4c0-.8-.6-1.8-1.8-2.9h-.5Zm.4,18.8v.3h.5l.2-.2v-.3l-.2-.2A.7.7,0,0,0,92.8,42.5Zm1.1-16.8v.2l-.6,1.3h.2l-.3-.4Zm1.4,14.1h.2c.3,0,.7-1.5,1.1-4.6,0-.5-.1-.7-.4-.8H96C95.7,34.4,95.5,36.2,95.3,39.8Zm.5-14.3h0l.3.3h.2v-.2l-.3-.4H96Zm.4,7.9.2.2h.1v-.2h-.3Z" transform="translate(-0.9 0)" style="fill:#b75326"/><path d="M115.7,13a18,18,0,0,1,4.1.9,17.6,17.6,0,0,1,4.3,5.2q1.2,1.3,2.1,5.7c.7.6,1,2.1,1,4.4v1.5l-.2,6.1c0,1.2.7,2.7,2.3,4.6s2.2,2,2.7,2h0c0,.5-.8,1.3-2.2,2.4s-1.8,1.6-2.1,1.6h0c-.6-.1-2.3-1.3-5-3.7l-7.3,3a23.5,23.5,0,0,1-5.4.7h-.4a11.6,11.6,0,0,1-5.6-2.6,16.3,16.3,0,0,1-1.8-3.1,4.8,4.8,0,0,1-1.1-3.4V36.7a5.9,5.9,0,0,1,.9-3.2,14.7,14.7,0,0,1,2.8-4.8,4.9,4.9,0,0,1,2-1.6,13.4,13.4,0,0,1,6.3-1.6h3.1c1.7,0,2.8.2,3.4.7h.4c.1,0,.2-.1.2-.3a18.6,18.6,0,0,0-2.2-5.6c-.8-1.5-2.5-2.3-5-2.3l-2.5-.3c-2.2.4-3.3.9-3.3,1.4a8,8,0,0,0-1.6,4.1c0,.2-.8.3-2.2.3h-.4c-.1,0-.3.4-.6,1.1s-1.7-.4-1.7-.7a30.4,30.4,0,0,0,.4-4.5c.7-1.9,2.3-3.6,4.7-5.2a10.3,10.3,0,0,1,2.1-1.1Zm-12.2,8.7v.9h.1c.1,0,.2-.2.2-.4v-.7Zm.7-4.6h.1c.3,0,.9-.4,1.6-1.2v-.2h-.1c-.4,0-.9.5-1.6,1.3Zm.8,24.8h.4l-.2-.3h-.1Zm.1,3.3h0c.2.4,1.3.9,3.1,1.4a6.2,6.2,0,0,0,2.5.5h0c0-.2-.8-.4-2.4-.7a14.3,14.3,0,0,1-2.8-1.3h-.2Zm.8-15.9v.3h.2a.6.6,0,0,0,.6-.4V29h-.1Zm0,5.6c.3,2.5.6,3.7,1,3.7l.7.8H107v.2a13.2,13.2,0,0,0,4.8,3l1.3.3c.8,0,3.7-1.2,8.5-3.6.3-.2.5-.4.5-.7v-.3a43.4,43.4,0,0,1-.9-5.9h-.1c0-.4-.5-.8-1.4-1.1a25.8,25.8,0,0,0-6.2-1.3c-3.1.7-5.3,1.8-6.5,3.1A3.5,3.5,0,0,0,105.9,34.9ZM109.7,15h0c.1.2.3.3.7.3a3.7,3.7,0,0,0,1.5-.4v-.2h-.2Zm2.1,29.3a.6.6,0,0,0,.6.3c.4,0,.6-.2.6-.3h0V44h-.8Zm.7-27.5.2.3h.9l-.3-.3h-.5Zm2.3-2.4.2.2h.5l-.2-.3h-.4Zm2.1,29h.4a4.9,4.9,0,0,0,2.2-.7h-.2A5.5,5.5,0,0,0,116.9,43.4Zm2.6-28.7h0a1.1,1.1,0,0,0,.9.5h.1v-.2a1.2,1.2,0,0,0-.9-.4Zm3,21.2v.3l.2.2h.1l.2-.2v-.5h-.3Zm.1-2.1.2.2h.2v-.4h-.1Zm1.8-3V31h0Zm0,1.3v.2h.3v-.2Zm.1-3.3V29c.2.6.4.9.5.9h.1a1.6,1.6,0,0,0-.4-1.2h-.2Zm.3,5h0c.1,1.5.2,2.3.5,2.3V36h0a4.8,4.8,0,0,0-.4-2.2Zm1,8.9a.9.9,0,0,0,.4.6h.1l.3-.3h0l-.4-.3h-.4Zm.3-16.2h0c0,.3.1.5.2.5v-.3l-.2-.3Zm1.1,17.3V44l.2.2h.3V44h0l-.3-.4h-.2Zm.5-2.2V42c.2.5.3.7.5.7h.2c-.2-.7-.4-1-.6-1Z" transform="translate(-0.9 0)" style="fill:#b75326"/><path d="M133.4,15.4l2.9.2h5.1v.2a6.7,6.7,0,0,0-.3,1.7v1.1c.2,1.2.5,1.7,1,1.7s1.1-.8,2.4-1.3a22.9,22.9,0,0,1,8.2-2.2,8.4,8.4,0,0,1,4.6,1.9,8.1,8.1,0,0,1,3.4,2.9,17.9,17.9,0,0,1,2.5,9.5v.5l-.4,4.4.4,3.2-.6,2.9h0v.6h3.4a1.9,1.9,0,0,1,1.3.3c-.3,3-.6,4.5-1,4.5a6,6,0,0,1-2.7.7h-1.2a23.5,23.5,0,0,0-6.2.8c-1.5-.2-2.2-.9-2.2-2.2V44.8a4.1,4.1,0,0,1,1-3.1c.4-1.9.8-3.8,1.3-5.5l.4-5.4c.1,0,.2-.5.2-1.4s-.9-2.7-2.6-4.8l-2.4-.8a9.1,9.1,0,0,0-6.5,3,27,27,0,0,0-2.9,3c-.7.5-1,1.9-1,4.2.1,4.1.3,6.2.5,6.2s2.4.6,2.4.9v.3h-2.3v.2q0,.3,2.4.6a2.1,2.1,0,0,1,.4,1.5h0a9.4,9.4,0,0,1-.6,3.1h-7.2a1.4,1.4,0,0,1-1.5-1,40.8,40.8,0,0,1-.6-4.6c0-.2.6-.5,1.9-.7l.3-.4h0a1.8,1.8,0,0,0-.6-1V33.7L137,28c0-3.8-.2-5.8-.6-5.8h-.3l-2.9.4c-.3,0-.7-.3-1.1-.8v-.2a1.7,1.7,0,0,0,.3-1V18.3l.9-2.8Zm-.3,4.1h0a.3.3,0,0,0,.3.3,1.9,1.9,0,0,0,1.2-.5h-1.1C133.2,19.4,133.1,19.4,133.1,19.5Zm.4-2.1h0c0,.2.3.2,1,.3,2.7,0,4-.2,4-.6l.2-.4h-.1Zm.1,4.1h.6l.3-.2h-.3Q133.6,21.4,133.6,21.5Zm1.2-2.6.2.2h.1l.8-.3h-.3C135.1,18.7,134.8,18.8,134.8,18.9Zm.5,1.4h1.4c.4,0,.7.1.7.3h0a1.3,1.3,0,0,0-.3.7l.8.2a.2.2,0,0,0,.2-.2V19.1h-.2l-2.5,1h-.1Zm.6,21.5h0c0,.8.3,1.2.8,1.2h.3l.3-.3h0c-.4-.5-.7-.8-.7-1.2H136Zm1.7-19v.3h.1l.2-.9h-.2C137.7,22.2,137.6,22.4,137.6,22.8Zm1,21.7c0,.2.5.3,1.6.3s3.1-.1,3.1-.3-.7-.4-2.1-.4S138.7,44.3,138.6,44.5Zm.8-24V22a1.2,1.2,0,0,1-.3.9v.4l.3.9v.4a.7.7,0,0,0,.4.7c.1,0,.2-.4.4-1.4s.8-.8.8-1.1a3.2,3.2,0,0,0-.7-1.3c-.1-.7-.2-1-.4-1Zm.9,3.9v.4a1.2,1.2,0,0,1-.6.9.7.7,0,0,1,.4.6c0,2.1.1,3.2.4,3.2h.1a7.8,7.8,0,0,0,.4-2.9c0-1.6-.2-2.4-.5-2.4h-.1C140.3,24.2,140.3,24.2,140.3,24.4Zm1.6-3.3v.2a2.7,2.7,0,0,0,1.9-1.1h-.1A3,3,0,0,0,141.9,21.1Zm.1,3.4v.2c1.1-.1,2.5-1,4.5-2.7h-.4a5.4,5.4,0,0,0-1.5.8C142.9,23.4,142,24,142,24.5Zm.4,1.7.2.2h.2l-.2-.2h0Zm1.5-.3h0v.2h.3v-.7h-.1ZM145,25h.2c.7-.6,1-1,1-1.3h-.1C145.7,23.7,145.4,24.1,145,25Zm.6-5.5h.1l.5-.3h-.1C145.7,19.3,145.6,19.4,145.6,19.5Zm1.1-.6v.2c2-.5,2.9-.8,2.9-1h-.1a5.5,5.5,0,0,0-2.9.9Zm.3,5.4c.9-.2,1.3-.4,1.3-.7H148C147.4,23.5,147.1,23.7,147,24.3Zm2.9-3.5V21h.3c.6-.1.9-.3.9-.4v-.2h-.4C150.2,20.5,149.9,20.6,149.9,20.8Zm1-3h0a3.1,3.1,0,0,1,1.5.7l.7.2h2c-.1-.2-.3-.3-.7-.3h-.9a3.8,3.8,0,0,0-1.9-.8C151.2,17.5,151,17.6,150.9,17.8Zm.1,4.3h.1c1,0,1.4-.1,1.4-.2l-.5-.2C151.3,21.9,151,22,151,22.1Zm2.1,1.2v.2h1.6l.2-.2v-.2l-.3-.3h-.3C153.5,23,153.1,23.1,153.1,23.3Zm1.3-2.7c0,.2.4.3,1.1.4a.9.9,0,0,0,.3-.6c0-.2-.3-.3-1-.5A.8.8,0,0,0,154.4,20.6Zm.5,27.1v.2c0,.2.6.4,1.7.4h.8a2.8,2.8,0,0,0-2-.6h-.2Zm.3-3v.4h.4l-.3-.3Zm.1-23.2h.4Zm1.3-1.1c0,.2.2.3.5.3h.3l.3-.2h0a.8.8,0,0,0-.6-.2h-.3Zm.1,1.7v.2a5,5,0,0,0,.8,1.7c0,.3.1.5.2.5l.3-.2V24a2.6,2.6,0,0,0-1.2-1.9Zm0,24.2a.7.7,0,0,0,.7.5c2.2-.1,3.3-.2,3.3-.4s-.8-.5-1.6-.5S156.7,46.1,156.7,46.3Zm.7-7.5a2.1,2.1,0,0,1,.3,1.2h.1l.2-.8v-1A.5.5,0,0,0,157.4,38.8Zm.3-13.7v.3a16.2,16.2,0,0,0,.9,2.9v-1C158.4,25.9,158.1,25.1,157.7,25.1Zm0,12.7h.1c.2-.1.2-.3.2-.7v-.7h0C157.9,36.5,157.8,36.9,157.7,37.8Zm2.1,4.7v.3l.2.2h.1v-.2h0l-.2-.3Zm.1-1.1h0l.3-.7h-.1C159.9,40.7,159.9,40.9,159.9,41.4Zm0-3.2v.3h.2v-.3Zm.1-4.9h0l.2.8h.3C160.5,33.6,160.3,33.3,160,33.3Zm.4-8q.2,3.3.6,3.3h.1q-.2-3.3-.6-3.3Zm1.1,13.2-.2,1.3v1.5h.1a3.4,3.4,0,0,0,.8-1.8h0C162.2,38.8,161.9,38.5,161.5,38.5Zm1.8,5.4v.2c1.9,0,2.8-.2,2.8-.4v-.2h-.8C164,43.6,163.3,43.7,163.3,43.9Zm.6,1.3v.2a.5.5,0,0,0,.5.3,1.4,1.4,0,0,0,1.3-.5h0c-.1-.2-.3-.3-.7-.3h-.3C164.2,44.8,164,44.9,163.9,45.2Z" transform="translate(-0.9 0)" style="fill:#b75326"/><path d="M184.9,12.3a5.5,5.5,0,0,0,2.5.9c.9,0,2.6,1,5.2,2.9l.8.2h.3l1.2.6c1,.8,1.7,1.4,1.8,1.8h0c0,.3-.2.6-.7,1s-1,2-2.6,4v.9a7.4,7.4,0,0,0-1.8.4c-.2,0-.5-.3-.7-.8s-1.7-1.3-1.7-1.8l.7-2c0-.8-1.3-1.3-4-1.7l-4.1-.2a14.6,14.6,0,0,0-5.7,1.6,7.3,7.3,0,0,0-3.1,4.4c-.6,2-1.1,3.2-1.5,3.5l-.6-.5a2,2,0,0,0-.4,1.4h0l.8-.4c.1,0,.2.2.2.4l-.4,2.8c.2.1.6,1.3,1.2,3.7l-.2.4v.2a4.3,4.3,0,0,1,.5,2.1c.4,1.2,1.5,2.3,3.6,3.3l3.3,2.4a19,19,0,0,0,9.6-2.4q4.2-3.6,4.2-4.8l-.2-.9h0a16.4,16.4,0,0,1,2.7-3l1,.9v.2h-.8V34c1.5.2,2.3.6,2.3,1.3a31.6,31.6,0,0,1,2.1,3.9c.2,0,.4.5.5,1.5s.9.4,1,.7-.3.5-.8.6a6.4,6.4,0,0,0-2.7,2l-2.2-2.2L192.8,44a32.8,32.8,0,0,0-3.1,2l-6.4,2.1h-.9a21,21,0,0,1-5.9-1.2c-2.8-1.2-4.3-2.1-4.6-2.8-3.5-4.1-5.2-7.3-5.2-9.6l-.2-2.1a20.6,20.6,0,0,0,.6-5.4l1.6-3.9c0-1.2.8-2.6,2.3-4.5s3.1-3.6,6.8-5.2a29.2,29.2,0,0,1,7.1-1.1ZM168.7,31.9v.2a.7.7,0,0,0,.6.7c.2,0,.2-.7.1-2v-.3h-.2C169,30.5,168.9,30.9,168.7,31.9Zm2.3-8.1-1.1,1.9V26l.3.3h.1c.2,0,.6-.7.9-2v-.5Zm-.4,9.2a1.3,1.3,0,0,0-.3,1,4.2,4.2,0,0,0,.5,1.2c.2.7.6,1,1,1h0a8.2,8.2,0,0,0-1.1-3.1Zm-.3,4.9v.3a1.2,1.2,0,0,0,.9.6c0-.3-.3-.6-.7-.9Zm.4,2.9h0c0,.6.6,1.3,1.9,1.9h.6c0-.5-.8-1.2-2.2-2Zm.2-18.3h.2c.5-.4.7-.7.7-1v-.2h-.2A1.3,1.3,0,0,0,170.9,22.5Zm.9,16.7v.4a.6.6,0,0,0,.6.5h.1v-.2C172.3,39.5,172.1,39.2,171.8,39.2Zm1-19.1h.2c.5-.4.8-.7.8-1S173,19.4,172.8,20.1Zm.1,23.7c.4.6,1.9,1.5,4.5,2.8l1.3.4h.1v-.3c-2.7-1.1-4.3-2-4.8-2.8l-.7-.3h-.2C173,43.6,172.9,43.6,172.9,43.8Zm.5-27.1v.2h.2l.3-.3h-.2Zm1.2-.6,3.2-1.3,2-.9c.8-.1,1.2-.3,1.2-.4h0q-2.7,0-6.3,2.4h-.1Zm.4,27.5h0c0,.3.8.7,2.3,1.2l3,1h.6l.3-.2v-.2h-.1a3.5,3.5,0,0,1-2.3-.9l-1-.3h-.1l-.3.3h-.1a6.7,6.7,0,0,1-2.1-.9Zm.9-25.2h.3l.2-.2-.2-.2Zm2.3-1.4v.2h.2c.9-.2,1.4-.4,1.4-.6l-.2-.2h-.1C178.6,16.7,178.2,16.8,178.2,17Zm2.3-1.3V16l.8.2c2.4,0,3.7-.2,4-.7l-1-.2A19.4,19.4,0,0,0,180.5,15.7Zm1.1,1.9h.7c1.3,0,2-.2,2.1-.4v-.2h-.7C182.3,17.1,181.6,17.3,181.6,17.6Zm.8,29.7h0c0,.3.4.4,1.2.4v-.2h0l.2-.2-.2-.3h-.4Zm3.2-30.1h0l1.7.3h0l-1.1-.3Zm.2,27.4h.1c.4,0,.6-.1.7-.3h0C186.1,44.4,185.8,44.5,185.8,44.6Zm.1-28.9v.2c0,.2.4.3,1.2.4l.2-.2c0-.3-.2-.4-.7-.4Zm.5-1.9h-.1v.2h.4v-.3Zm1.2,31.8h0a5.4,5.4,0,0,0,2.2-1.3h-.1A5.4,5.4,0,0,0,187.6,45.6Zm.2-29.3h0l.2.3h.2v-.2l-.2-.2Zm.7,26.9h.1c1.1-.4,1.6-.9,1.6-1.3h-.1c-1.1.5-1.7.9-1.7,1.2Zm2.6-25.3v.3h.1l.2-.2h-.3Zm1.1,22.3h.2a2.4,2.4,0,0,0,.8-.9h0C192.7,39.2,192.4,39.5,192.2,40.2Zm2.3-20.7h.4l.3-.3v-.5C194.7,18.8,194.5,19,194.5,19.5Zm1.7,17.6h0c.3.8.5,1.3.8,1.3v-.4C196.9,37.4,196.6,37.1,196.2,37.1Zm1.2-1.3v.3c0,.5.8,2,2.4,4.7h.3l.2-.2a36.6,36.6,0,0,1-1.8-3.9l-.8-1Zm.3,6.3v.3l.2.2h.4l.9-.9h0c0-.1-.3-.3-1.1-.5S197.7,41.5,197.7,42.1Z" transform="translate(-0.9 0)" style="fill:#b75326"/><path d="M218.6,15.6c1.7,0,3.8.8,6.3,2.2s3.1,2.7,3.1,3.3c1.7,3.5,2.5,5.6,2.5,6.2v.5a9.4,9.4,0,0,0-.9,2.9h-5.7l-1.7.2c-6-.5-10.1-.7-12.5-.7h-1.3a3.5,3.5,0,0,0-.7,1.5,4.8,4.8,0,0,1,.4,2.2c0,1.6.2,2.5.7,2.8v.3h0l-.4-.2v.2l.6.6a3.1,3.1,0,0,0,1.1,2c1.4,2.4,2.8,3.9,4.4,4.5a16.3,16.3,0,0,0,4.7.6,3.9,3.9,0,0,0,1.7-.7c.8-.3,2.4-1.6,4.7-4.1h0c0-.1-.3-.2-.8-.3v-.3a6.8,6.8,0,0,1,3.4-3.5l2.3,1.7a49.7,49.7,0,0,0,3.6,4.9v.3c-1.3,1.7-2.3,2.5-2.9,2.5H231c0-.9-.5-1.4-1.6-1.5s-1.2.7-2.8,2a13.8,13.8,0,0,1-4.8,2.1,33.5,33.5,0,0,1-5.7.9l-3.6-1.3c-1.9,0-3.7-1.1-5.4-3.2a7.3,7.3,0,0,1-1.7-2.7c0-.3-.5-2-1.4-5.1a15.5,15.5,0,0,1-.4-3.4h0a21.9,21.9,0,0,1,4.9-14.4,4.7,4.7,0,0,1,2.9-2.3l3.5-.7ZM204.7,31.3h-.1v.2h.1a2,2,0,0,0-.2.9v.3a4.4,4.4,0,0,0,.7,2h.1C205.3,32.7,205.1,31.6,204.7,31.3Zm0-2.3v.4c.1.2.1.4.3.4s.2-.2.3-.6l-.3-.2Zm.8-3.3a5.4,5.4,0,0,0-.8,2.5h.1c.2,0,.6-.7,1.1-2.2S205.7,25.7,205.5,25.7Zm.1,11h0V37h.2v-.2h-.3Zm.6,1.1h-.1c.2.6.5,1,.7,1h.1A1.5,1.5,0,0,0,206.2,37.8Zm1.8-8.2h1.1l-.2-.3h-.2A.7.7,0,0,0,208,29.6Zm.1-7.4h.1Zm0,3.9v.4h.1a2.3,2.3,0,0,0,.7-.7v-.2h-.3A.6.6,0,0,0,208.1,26.1Zm.6-1.6v.2c0,.5,3.7,1,11.2,1.5l.6.2h.8a13.6,13.6,0,0,0,3.3.9c0,.1.1.2.4.3a1.7,1.7,0,0,0,.4-1.1V25.3c0-.6-1-1.8-3.1-3.6a5.9,5.9,0,0,0-3.2-1.7l-2.1-.3c-3.4.7-5.7,1.5-6.7,2.5A16,16,0,0,1,208.7,24.5Zm0-1h0a.5.5,0,0,0,.3-.5h0A.5.5,0,0,0,208.7,23.5Zm.2,21.2v.2c0,.3.4.5,1.1.7l.2.3h0c-.5-.6-.8-1-1.1-1.1Zm.4-23.9V21h.1c.6-.2.9-.3.9-.5H210A1,1,0,0,0,209.3,20.8Zm.4,8.4v.4h.3v-.3h-.3Zm.7-11.3h0v.2h.1c.8-.2,1.2-.4,1.2-.7v-.3l-.2-.3h-.1C210.7,17.2,210.4,17.5,210.4,17.9Zm.8,10.7v.2a44.7,44.7,0,0,0,6.5.5h-1.2c0,.2.5.3,1.6.3s2.5-.1,2.5-.3S217.5,28.8,211.2,28.6Zm.6-2.1v.2a8.5,8.5,0,0,0,4.3.8h1.3v-.3Zm.1-6.1a9.5,9.5,0,0,1,2.5-1h-.7Q211.9,19.5,211.9,20.4Zm1-3.4h0a14.7,14.7,0,0,0,3.8-.7c.3-.1.5-.2.5-.3H217a11.7,11.7,0,0,0-4.1.9h0Zm.4,27.9h0c0,.2.5.4,1.3.6h.1a3.6,3.6,0,0,0-1.3-.5Zm2.2-26.6h0c0,.2.9.4,2.6.7h.1v-.2a2,2,0,0,0-1.7-.8h-.2C215.8,18,215.5,18.1,215.5,18.3Zm1.3,27.3v.2h.3v-.2Zm2.4,1.6h-1.6c-.4,0-.6,0-.6.2h0l.2.2h1.1a18.6,18.6,0,0,0,4.5-.6h0c0-.2-.3-.3-.7-.3h-.3A5.5,5.5,0,0,0,219.2,47.2Zm-1.1-29.9v.2a6.1,6.1,0,0,0,2.5.4h0v-.2c0-.1-.2-.2-.7-.3Zm1.2,1.4h0a25,25,0,0,0,3.7,2h.1l.7-.2h.4l-1.1-.4-1.2-.5a2,2,0,0,0-2-1.1h-.2C219.4,18.5,219.3,18.5,219.3,18.7Zm3.6,9.4v.2h.2v-.2Zm.1,1.7c0,.1.4.2,1.1.2h.6c0-.2-.4-.3-1.3-.3S223,29.7,223,29.8Zm0,14.1h.1c.3-.1.4-.4.6-.7h-.1C223.2,43.4,223,43.6,223,43.9Zm.4,2.7c.5,0,.8-.3,1.1-1h-.2C223.7,46,223.4,46.3,223.4,46.6Zm.7-24.9a.6.6,0,0,0,.6.5h.1v-.6l-.3-.3C224.2,21.3,224.1,21.4,224.1,21.7Zm.8,20.2h.2c.4,0,.7-.3.8-.8h0A1,1,0,0,0,224.9,41.9Zm.5-19.4a5.4,5.4,0,0,0,1,2.2h.4c-.3-1.3-.7-2-1.1-2h-.3Zm.9,15.9h.4a.6.6,0,0,0,.5-.2L227,38h-.1A.5.5,0,0,0,226.3,38.4Zm.3,5.8h.3q.6-.6.6-.9h-.1C226.9,43.5,226.6,43.8,226.6,44.2Zm1-18.8V26c.2,0,.3-.2.3-.4v-.2h-.4Zm.2,17,.2.2c.6-.2.9-.5.9-.8h-.1C228.2,41.7,227.9,41.9,227.8,42.4Zm1.4-.6h.2a.5.5,0,0,0,.4-.6h-.1C229.4,41.4,229.2,41.6,229.2,41.8Zm2.2-.6h-.1c.2.5.3.8.5.8h.1l.2-.2h0A.7.7,0,0,0,231.4,41.2Z" transform="translate(-0.9 0)" style="fill:#b75326"/><path d="M262.1,0a7.6,7.6,0,0,1,2.6.7c.1,0,.1.6.2,1.9a1.6,1.6,0,0,1,.7,1c-.2,2-.4,6-.6,12.1-.1,0-.1.2-.1.6s-.5.4-.5.7v.9a8.8,8.8,0,0,1-.6,2.9v.9c0,.2.2.3.7.4v.4c-.6,5.2-.9,8.7-.9,10.3s-.2,2.8-.4,2.8h0c.2,0,.4.3.5.8v.7c0,.7-.3,2.6-.8,5.6v1.5c2.1.4,3.1,1,3.1,1.7l-.3.4V47l.3.4h0c-.3.9-1.5,1.4-3.5,1.4h-.4l-.3-.6h-.7l-1.6.4h-2.4a10.5,10.5,0,0,1-.5-3.1v-2a5.3,5.3,0,0,0-2.5,1.4,24.9,24.9,0,0,1-9,3,14.3,14.3,0,0,1-6.5-3.5,14.6,14.6,0,0,1-1.9-2.9,7.3,7.3,0,0,1-1.2-1.9v-.2h.2a9,9,0,0,1,1.6,2.1h.3v-.8a5.5,5.5,0,0,0-1.2-3H236c-.2,0-.3.4-.4,1.1h-.2v-.3c.1-1.6.1-2.6.2-3.1h.3v.6h.2a.8.8,0,0,0,.3-.7V34l-.2-.2c-.1,0-.1.2-.2.6l-.3.4c-.1,0-.2-.2-.3-.5a20.6,20.6,0,0,1,3.1-9.9,19.7,19.7,0,0,1,2.9-4c1.3-1.2,3.3-1.7,6.2-1.7h.6a16.3,16.3,0,0,1,10.7,3.4l.4.2h.2c.4-1.8.7-6.4,1.1-13.8a.5.5,0,0,1,.5-.4h0a7.1,7.1,0,0,0-2.8-1.3c-.3,0-.6-1.4-.7-4.2l1.1-.3h0c-.1-.2-.2-.3-.6-.3a.6.6,0,0,1-.2-.5c0-.4.4-.6,1.4-.6V.5l-.2-.3h3Zm-24,32.8a.2.2,0,0,0,.2.2c.3,0,.5-.4.7-1.3v-.3h-.3C238.5,31.4,238.3,31.9,238.1,32.8Zm.6-5.5v.2h.3a5.1,5.1,0,0,0,.8-1.5c1.2-1.7,2-2.5,2.5-2.5l.2-.5h-.4a6.1,6.1,0,0,0-2,1.3A9.6,9.6,0,0,0,238.7,27.3Zm.3,15.8h0c0,.3.7.4,2,.6v-.2l-1.7-.6Zm.1-7.2v.9c0,.6.8,2.3,2.4,5a8.1,8.1,0,0,0,3.7.9,18.8,18.8,0,0,0,8.3-2c1.1-1.7,2.1-2.5,2.9-2.5s.9-2.1,1.5-4.7a5.3,5.3,0,0,0,.4-2.3v-.6c0-1.7-.2-2.6-.7-2.6a6.7,6.7,0,0,1-1.3-1.5l.2-.4c0-.2-.6-.4-1.8-.7l-.4-.3h1c0-.4-2.2-.7-6.7-.7l-.9-.2c-3.3.3-4.9.7-4.9,1.3a12.6,12.6,0,0,0-3,6.6A17,17,0,0,0,239.1,35.9Zm1.4,8.3c0,.4,1.2.9,3.7,1.3h.4c0-.3-1.2-.8-3.6-1.3h-.3Zm1-22v.2h.4c1.4-.4,2.1-.8,2.1-1.4s-.2-.2-.6-.2h-.3C242.5,20.9,242,21.3,241.5,22.2Zm2.8,24.4v.2h1a14.6,14.6,0,0,0,2.9-.4h0l-1.9-.2C245,46.2,244.3,46.4,244.3,46.6Zm1.2-26.1v.3l.2.2h.3l.3-.3v-.2l-.3-.2h-.3Zm.1,3h0ZM247,43.4v.2h.8q4-.3,4.5-1.2v-.2H252C248.9,42.8,247.2,43.1,247,43.4Zm.6-20.3h.2Zm.9,21.7h.6c1.3,0,1.9-.2,1.9-.4h-1.3Q248.5,44.5,248.5,44.8Zm.4-21.1h.2l1.4-.2h-.4Q248.9,23.4,248.9,23.7Zm.4-2.7h2.8c-.1-.3-.7-.4-1.9-.5h-.7A.6.6,0,0,0,249.3,21Zm2.7,2.5.3.3h.3v-.2c0-.1-.2-.2-.4-.2H252Zm1.1,19.1v.2h.1a2.3,2.3,0,0,0,1-.7v-.2H254A2.2,2.2,0,0,0,253.1,42.6Zm.8-21h-.1v.2l1.9.6h.1c0-.4-.4-.7-1.1-.9Zm.8,1.9.3.2v-.2h-.4Zm1,.4c0,.1.6.4,1.8.7h0v-.2c-.2-.4-.6-.5-1.1-.5Zm1.2,2.4v.5l.3.3h.2c.2,0,.2-.2.2-.4a.6.6,0,0,0-.3-.6h-.1Zm.9,15.8v.3c.3,0,.4.2.4.6h.1l.3-.3v-.5a.6.6,0,0,1-.3-.6h-.2A.5.5,0,0,0,257.8,42.1Zm.1,2.4h.1l.3-.2h-.2Zm1.4-40.1v.2h.4c.2,0,.4,0,.4-.2V4.2h-.6Zm.1-1.5h.7V2.7h-.5Zm1.1,19c0,.3.1.6.2.6h.1v-.5ZM261,4.5h.1q1.5,0,1.5-.3l-.2-.2h-.8A.5.5,0,0,0,261,4.5Zm.1,38V44h.1l.2-.2v-.6c0-.4-.1-.6-.3-.7Zm.1,2.2v.2h.5l-.2-.2Zm1.3,2a1,1,0,0,0,.7.2h1.6c0-.2-.2-.3-.7-.3S262.5,46.5,262.5,46.7Zm.3-43.2h.1Zm1.3,17h.3v.3h-.3Z" transform="translate(-0.9 0)" style="fill:#b75326"/><path d="M273.4,39.4a4.9,4.9,0,0,1,2.7,1,3.6,3.6,0,0,1,.2,1.1v.8c0,1.7-1,2.9-2.9,3.7l-.7.4c-.9,0-1.7-.8-2.5-2.4v-.4c0-1.7.3-2.8.8-3.2A6.2,6.2,0,0,1,273.4,39.4Zm-2,2.7c.1,1.1.3,1.6.5,1.6a6.2,6.2,0,0,0,.5-2.1l.3-.4v-.3h-.1Q271.4,41.4,271.4,42.1Zm.3,2.7c0,.3.2.4.4.5h.7a1.4,1.4,0,0,0,1.2-.6h0Zm1.4-2.3h0c0,.4.1.7.3.7h0c.3,0,.5-.4.7-1.3v-.3h-.3C273.3,41.6,273.1,41.9,273.1,42.5Zm1.8.8h.3v-.6h-.1C275.1,42.8,275,43,274.9,43.3Z" transform="translate(-0.9 0)" style="fill:#231f20"/></g></g></svg>