<svg xmlns="http://www.w3.org/2000/svg" viewBox="0 0 858.1 49.2"><title>icn_rotator_Asset 61_adj</title><g id="Layer_2" data-name="Layer 2"><g id="Layer_1-2" data-name="Layer 1"><path d="M4.2.3,6.8.9l4-.2c1,0,1.6.3,1.6,1A34.2,34.2,0,0,0,12,7.9V29.4l-.3,11.7a36.4,36.4,0,0,0,6.4.8h0v.8c0,.3.2.6.7,1.1a37.3,37.3,0,0,0-1.6,4.3l-.5.5h-.2a1.8,1.8,0,0,0-1.6-.6L4.8,46.7c-3,0-4.6-.2-4.6-.5a14.1,14.1,0,0,0,1.1-4.8H2.7a4.3,4.3,0,0,1,1.7-.5l1,.3h.7q.6,0,.6-1.2c.2-1.5.4-6,.6-13.6C7.1,24,6.8,17.2,6.6,6c-.2-.2-.4-.4-.6-.4l-2.8.2c-.5-.1-.7-.2-.7-.5C2.7,2.1,3,.5,3.3.5Zm-3,45.4.2.2h.3l.2-.2-.3-.2H1.5Zm.8-3h.4v-.3H2.2ZM3.3,3.4v.4l.2.3H5.2V3.8L4,3.3l-.3-.2H3.6Zm.2-1.6h0a.5.5,0,0,0,.6.6h.3a2.1,2.1,0,0,0,1.3-.7H3.5Zm.3,40.6h0a.5.5,0,0,0,.5.5h.1v-.5l-.3-.2H3.8Zm.7,2.1h0l.2.2h.9c.7,0,1-.1,1-.2h0l-1.7-.2H4.8Zm.7-1.3h.9V43H5.6C5.3,43,5.2,43,5.2,43.2ZM6.9,1.8l.5.2H8l.3-.2H6.9Zm.7,36.5v.2c.1.3.2.4.3.4l.3-.3v-.4c-.1-.6-.2-.8-.3-.8S7.6,37.7,7.6,38.3Zm.3-20v.3h.3v-.3H8.1c0-.2.2-.3.5-.4v-.2H8.3A.8.8,0,0,0,7.9,18.3Zm.2-6.6h.3v-.3H8.3Zm.2-3.4v.4h.1V8.1H8.4Zm.5,17.9h.1q.3,0,.3-2.4C9.1,23.9,8.9,24.6,8.8,26.2ZM9,4.1h.4l1.4-.8a1.3,1.3,0,0,0,.3-.7h-.3c-.4,0-.7.2-1.1.7S9,3.7,9,4.1Zm1.2,25H10V40.7h.6c.1,0,.2-.2.2-.6Q10.6,29.1,10.2,29.1Zm.7-12.4v2h.1c.1,0,.2-.3.2-.8v-1Zm-.1,2.5v.4h.3v-.3Zm0-3.3h0l.3.3h0V16h-.3ZM12.9,44h0c0,.2.6.4,2,.4H17v-.2h-.6Zm1.5,1.7.2.2h1.3q.6,0,.6-.3H15.2C14.7,45.5,14.4,45.6,14.4,45.7Zm1.3-3.3h0c.2.3.5.4,1.1.4l.3-.2v-.2H15.7Zm.1,4.6v.2h.9V47h-.9Z" transform="translate(-0.2 0)" style="fill:#b75326"/><path d="M22.6,14.8a2,2,0,0,0,1.3.4l.7-.3c5.6,0,8.4.1,8.4.5v1.4a5.2,5.2,0,0,1,.5,2.4v1c-.4,5.7-.7,11.1-.9,16.3a2.3,2.3,0,0,0-.3,1.3.6.6,0,0,0,.6.3h.2c2.2,0,3.4.2,3.4.7h-.1v.4a13.3,13.3,0,0,1,.7,4.7l.2,2.5h-9c-4.7,0-7-.3-7-1.1a3.5,3.5,0,0,0-.3-1.3,1.3,1.3,0,0,1,.6-.7h.1a.7.7,0,0,0,.6.2h.1l4.3-.3h0c-3.5-.2-5.3-.5-5.3-.8V41.3l-.2-1.5c0-.5,1.6-.7,4.7-.7q.6,0,.6-2.7l.7-16.3h-.1c-1.5,0-2.1-.1-1.6-.4-2.4,0-3.7-.3-3.7-.9s-.2-.2-.2-.5l.3-.7a.7.7,0,0,0-.4-.6h0c.4-.3.6-.9.7-2h.3Zm.2,26.5h0c.3.4,1.5.6,3.8.6H27q.6,0,.6-.3h0l-4.4-.3Zm.6-25.2v.2h.3c1.1,0,1.6-.1,1.6-.3H25C24,15.9,23.4,15.9,23.4,16.1Zm.3.9h0c0,.1.2.2.8.2h2.9c.6,0,1-.1,1-.2h0c0-.3-1.2-.3-3.7-.1ZM30.9,2.7a4.1,4.1,0,0,1,3.5,2.2L34.8,7a8.2,8.2,0,0,1-1.4,3,3.6,3.6,0,0,1-2.5.8q-3.7,0-4.8-1.2a5.1,5.1,0,0,1-.8-3.4c-.2,0-.3-.1-.3-.2h0C26.2,4,27.5,3,28.9,3ZM27.6,4.6h0a5.3,5.3,0,0,0,2.1-.5l-.3-.2C28.2,4.1,27.6,4.3,27.6,4.6Zm.3,29.7.2.5c.2,0,.2-.2.3-.6v-1a7.7,7.7,0,0,0,.7-2.4V29.5c.2-.1.4-.3.4-.4a3.9,3.9,0,0,1-.3-1.4h0q.3,0,.6-6.9a.7.7,0,0,0-.3-.5h-.1c-.6,0-.9,2-1.1,6.1Zm1.4,9.3h-.9v.2H31v-.2H29.3ZM28.8,6.3h.4c.5,0,.8-.1.9-.5h-.8c-.4,0-.6.1-.6.4ZM28.9,42l.3.2h.1c.3,0,.5-.2.5-.6h-.3A.5.5,0,0,0,28.9,42Zm.7-4.1v.3h.2L30,38h0v-.2h-.1Zm0-1.1v.4h.2c.2-.1.3-.3.3-.8V36h-.2C29.8,36,29.7,36.3,29.6,36.8Zm.1-19.9v.2a1.8,1.8,0,0,1,1,.6h.2c.1,0,.1-.1.1-.2h.1c.1,0,.3.2.4.6h.1l.8-.7v-.3H29.7Zm.3,3.5.3,1-.4,1c.2.5.3.7.4.7h.1v-.8c0-1.5.2-2.3.7-2.3v-.5h-.5C30.3,19.4,30,19.8,30,20.4Zm.5,10.5a19.3,19.3,0,0,0-.5,3.5h.1c.2,0,.5-.9.8-2.6v-.9ZM30.1,9.1v.2h1.1V9.1H30.1ZM30.9,21v.3a.5.5,0,0,0,.3.5h.1l.3-.2v-.3a1,1,0,0,0-.5-.4Zm.8-13.2V8h.2a.8.8,0,0,0,.7-.4V7.4h-.2A.8.8,0,0,0,31.7,7.8Zm0,8,.2.2H32v-.2l-.2-.2Zm1.2-9.7v.2H33l.2-.2V5.9h-.1Zm1.3,35.8a1,1,0,0,0,1.1.8h.2v-.4l.5-.3v-.4a.5.5,0,0,0-.3-.5h-.2c-.1,0-.3.2-.4.6Zm.3-2.7a3.3,3.3,0,0,0,1.3.4v-.2c0-.1-.2-.2-.7-.3h-.6Zm.1,4.2h.1l.2-.2h-.1Zm1.5,2.5h.5l-.2-.2h-.1Z" transform="translate(-0.2 0)" style="fill:#b75326"/><path d="M39.1,0h.5c3.7.4,5.8.9,6.5,1.5s.5.8.8,2.4l-.3.6v.2c.4.6.7,3.1.9,7.7,0,8.4.2,13.7.6,16h.3c2.2-1.8,5.6-4.3,10.3-7.5.4,0,.7-1.9.9-5.5,0-.9.4-1.4,1.3-1.4h2.5q5.5,0,6.6,1.2h0l-.2.3a5.4,5.4,0,0,0-1.7-.4h-.2c0,.3.6.5,1.8.7s.5.9.5,2.8-.3,1.2-.9,1.2-.5.3-.9.8H66.7c0,.6-.5,1-1.4,1.4s-.2.1-.2.3v.4l-5.8,4.1v.2c0,.3,2.1,4.5,6.1,12.5.5,1.2.9,2.1,1.1,2.8h-.3l-.4-.4h-.2c0,.5.8.7,2.3.7s4.2.3,4.2.8l-.5.6a8.3,8.3,0,0,1,.8,4,.8.8,0,0,1-.9.9H71a55,55,0,0,0-7.3-.3h-.3c-.5,0-.9-.6-1.1-1.9A27.3,27.3,0,0,0,61,41.1c-.6-1.5-2-4.4-4.1-8.5-.7-2.1-1.2-3.1-1.6-3.1s-1.8.6-3.4,1.8a1.9,1.9,0,0,1-1.2.7c-.2,0-.3-.1-.3-.2h0l.2-.2v-.2h-.4c-.2,0-.5.6-.8,1.7v.4a1,1,0,0,0-.5,1v6.7c0,.5.9.8,2.7,1a4.9,4.9,0,0,0,1.8.9l.3.6v1.6l.2.8v.2a2.4,2.4,0,0,1-.9.8h-.4v.2c0,.3.3.5.8.7h0c0,.2-.2.3-.7.4l-2.9-.8a61.8,61.8,0,0,1-7.8-.7l-.8.2c-.6-.3-.8-.9-.8-2v-.3h-.1a2.3,2.3,0,0,1,.9-1.8h.3v1l.2.3h.8l-.3-.3v-.2h1.1l-.7-.8h.9v-.2a.8.8,0,0,0-.6-.2H41.4c0-.3.9-.6,2.8-.9l2.1-.4.2-.2h-.9c-.3,0-.5-1.8-.5-5.3A40.4,40.4,0,0,0,44,26.6c-.3-10.1-.6-16.3-1-18.4a5.3,5.3,0,0,0-2.2-.4L39,8.3a2.6,2.6,0,0,1-.7-1.2v-4q.1-.9.3-.9H39a2.3,2.3,0,0,0-.5-1V1c.3-.1.5-.1.5-.3L38.8.3V0Zm1.5,4.6h0c0,.2.4.4,1,.5v.2q-1.2,0-1.2.3v.3h.8a1.3,1.3,0,0,0,1.3-1l.3-.4q0-.3-1.5-.3h-.2C40.8,4.4,40.6,4.4,40.6,4.6Zm1.6,40.3h3.3c1.3,0,2-.1,2-.3h0l-1.3-.2ZM44,46.1l6.6.9v-.2c0-.6-1.2-.8-3.7-.8H44Zm.5-42.6v.2a1,1,0,0,0,.7.6,1.6,1.6,0,0,0,.5-1.1h-.3A1.5,1.5,0,0,0,44.5,3.5Zm1,6.5v1.5q0,1.5.3,1.5h.1V11.9C45.9,10.6,45.7,10,45.5,10Zm-.1,9v.3h.1l.3-.2-.3-.2Zm1.3,25.2v.2h.2v-.2Zm.2-14.6h.3v-.2h-.1Zm0,5.2v.9H47c.4,0,.5-.2.5-.6V34h-.2A1,1,0,0,0,46.9,34.8Zm0-2.4V33h.3c.2-.1.3-.3.3-.7h0a3.6,3.6,0,0,0-.2-1.4h-.1Q46.9,30.9,46.9,32.4Zm0,8.5.3.3h.1a.5.5,0,0,0,.3-.5c0-.3-.1-.4-.2-.4A.6.6,0,0,0,46.9,40.9Zm.4-3.7v1h.1c.2-.1.2-.3.2-.6v-.4Zm1.4-8v.2H49a1.9,1.9,0,0,0,1.3-.7v-.3A2.3,2.3,0,0,0,48.7,29.2Zm0,15.2H49v-.2Zm.5,1.2h0l.9.2h.4c0-.1-.4-.2-1.1-.2Zm1.6-1.4a1.5,1.5,0,0,0,1.4.8h0l.2-.2a1.7,1.7,0,0,0-.6-.9h-.4A.7.7,0,0,0,50.8,44.2Zm.4-13.6h.2a6,6,0,0,0,2.1-1.3h0C52,30,51.2,30.4,51.2,30.6Zm0,16.2V47H52a.5.5,0,0,0-.5-.3Zm1.7-3.3h0l.2.2h.1v-.2h-.3Zm3.3-14.4q.4,1.2.9,1.2h.1c-.1-.9-.4-1.4-.9-1.4S56.2,28.9,56.2,29.1Zm2.2,3.3h0a20.1,20.1,0,0,0,2.2,5.2h.3v-.2c0-.9-.8-2.6-2.4-5Zm1-7.7v.2h.1c1.4-.4,3.3-1.6,5.8-3.6v-.2h-.1A15.9,15.9,0,0,0,59.4,24.7Zm.1-2.6h0A8.9,8.9,0,0,0,61.4,21c.4-.1.6-.3.6-.4v-.3h-.3c-.5,0-1.3.6-2.2,1.7Zm.6-2.9.2.2h.1a.5.5,0,0,0,.5-.3h-.2C60.3,19,60.1,19,60.1,19.2Zm.2-1.4c.1.5.2.8.3.8H61c.1,0,.2-.1.2-.3l-.3-.7.3-1.1v-.2h-.1A1.4,1.4,0,0,0,60.3,17.8Zm.8,20.5h0a4.2,4.2,0,0,0,1.1,2h.1a4.1,4.1,0,0,0-1.1-2.1h-.1Zm.3-24h0v.2h.3v-.2h-.5Zm.2,20.3v.2l.3.2h0v-.4Zm2,7.8h0l.2.3h.5l.2-.3h0a.5.5,0,0,0-.5-.3C63.7,42.2,63.6,42.3,63.6,42.4Zm2.3-24.1,2,.3c.5-.1.7-.2.7-.3v-.2H66.9C66.2,18,65.9,18.1,65.9,18.3ZM66.8,48h.6C67,47.8,66.8,47.9,66.8,48Zm.3-3,.3.2h.3l.2-.2v-.2h-.5Zm1.3.1h0l.3.2H69v-.3Zm2.7-1v.3h.3v-.3h-.3Zm.1,1.9v1.1h.1c.1,0,.2-.4.2-1.2v-.5h0A.6.6,0,0,0,71.2,46Z" transform="translate(-0.2 0)" style="fill:#b75326"/><path d="M87.2,15.6c1.7,0,3.8.8,6.3,2.2s3.1,2.7,3.1,3.3c1.7,3.5,2.5,5.6,2.5,6.2v.5a9.4,9.4,0,0,0-.9,2.9H92.5l-1.7.2c-6-.5-10.1-.7-12.5-.7H77a3.5,3.5,0,0,0-.7,1.5,4.8,4.8,0,0,1,.4,2.2c0,1.6.2,2.5.7,2.8v.3h0l-.4-.2v.2l.6.6a3.1,3.1,0,0,0,1.1,2c1.4,2.4,2.8,3.9,4.4,4.5a16.3,16.3,0,0,0,4.7.6,3.9,3.9,0,0,0,1.7-.7c.8-.3,2.4-1.6,4.7-4.1h0c0-.1-.3-.2-.8-.3v-.3a6.8,6.8,0,0,1,3.4-3.5l2.3,1.7a49.7,49.7,0,0,0,3.6,4.9v.3c-1.3,1.7-2.3,2.5-2.9,2.5h-.2c0-.9-.5-1.4-1.6-1.5s-1.2.7-2.8,2a13.8,13.8,0,0,1-4.8,2.1,33.5,33.5,0,0,1-5.7.9l-3.5-1.3c-2,0-3.8-1.1-5.5-3.2A7.3,7.3,0,0,1,74,41.6c0-.3-.5-2-1.4-5.1a15.5,15.5,0,0,1-.4-3.4h0a21.9,21.9,0,0,1,4.9-14.4A4.7,4.7,0,0,1,80,16.3a32.9,32.9,0,0,1,3.6-.7ZM73.3,31.3h-.1v.2h.1a2,2,0,0,0-.2.9v.3a4.4,4.4,0,0,0,.7,2h.1C73.9,32.7,73.7,31.6,73.3,31.3Zm0-2.3v.4c.1.2.1.4.3.4s.2-.2.3-.6l-.3-.2Zm.8-3.3a5.4,5.4,0,0,0-.8,2.5h.1c.2,0,.6-.7,1.1-2.2S74.3,25.7,74.1,25.7Zm.1,11h0V37h.2v-.2h-.3Zm.6,1.1h-.1c.2.6.5,1,.7,1h.1A1.5,1.5,0,0,0,74.8,37.8Zm1.8-8.2h1.1l-.2-.3h-.2A.7.7,0,0,0,76.6,29.6Zm.1-7.4h.1Zm0,3.9v.4h.1a2.3,2.3,0,0,0,.7-.7v-.2h-.3A.6.6,0,0,0,76.7,26.1Zm.6-1.6v.2c0,.5,3.7,1,11.2,1.5l.6.2h.8a13.6,13.6,0,0,0,3.3.9c0,.1.1.2.4.3a1.7,1.7,0,0,0,.4-1.1V25.3c0-.6-1-1.8-3.1-3.6A5.9,5.9,0,0,0,87.7,20l-2.1-.3c-3.4.7-5.6,1.5-6.7,2.5A16,16,0,0,1,77.3,24.5Zm0-1h0a.5.5,0,0,0,.3-.5h0A.5.5,0,0,0,77.3,23.5Zm.2,21.2v.2c0,.3.4.5,1.1.7l.2.3h0c-.5-.6-.8-1-1.1-1.1Zm.4-23.9V21H78c.6-.2.9-.3.9-.5h-.3A1,1,0,0,0,77.9,20.8Zm.4,8.4v.4h.3v-.3h-.3ZM79,17.9h0v.2h.1c.8-.2,1.2-.4,1.2-.7v-.3l-.2-.3h-.1C79.3,17.2,79,17.5,79,17.9Zm.8,10.7v.2a46.2,46.2,0,0,0,6.5.5H85.1c0,.2.5.3,1.6.3s2.5-.1,2.5-.3S86.1,28.8,79.8,28.6Zm.6-2.1v.2a8.5,8.5,0,0,0,4.3.8H86v-.3Zm.1-6.1a9.5,9.5,0,0,1,2.5-1h-.7Q80.5,19.5,80.5,20.4Zm1-3.4h.1a14.8,14.8,0,0,0,3.7-.7c.3-.1.5-.2.5-.3h-.2a10.8,10.8,0,0,0-4,.9h-.1ZM82,44.9h0q0,.3,1.2.6h.1a3.6,3.6,0,0,0-1.3-.5Zm2.1-26.6h0c0,.2.9.4,2.6.7h.1v-.2a2,2,0,0,0-1.7-.8h-.2C84.4,18,84.1,18.1,84.1,18.3Zm1.3,27.3v.2h.3v-.2Zm2.4,1.6H86.2c-.4,0-.6,0-.6.2h0l.2.2h1.1a18.6,18.6,0,0,0,4.5-.6h0c0-.2-.3-.3-.7-.3h-.3A5.8,5.8,0,0,0,87.8,47.2ZM86.7,17.3v.2a6.1,6.1,0,0,0,2.5.4h0v-.2c0-.1-.2-.2-.7-.3Zm1.2,1.4h0a25,25,0,0,0,3.7,2h.1l.7-.2h.4L91.7,20l-1.2-.5a2,2,0,0,0-2-1.1h-.2C88,18.5,87.9,18.5,87.9,18.7Zm3.6,9.4v.2h.2v-.2Zm.1,1.7c0,.1.4.2,1.1.2h.6c0-.2-.4-.3-1.3-.3S91.6,29.7,91.6,29.8Zm0,14.1h.1c.3-.1.4-.4.6-.7h-.1C91.8,43.4,91.6,43.6,91.6,43.9Zm.4,2.7c.5,0,.8-.3,1.1-1h-.2C92.3,46,92,46.3,92,46.6Zm.7-24.9a.6.6,0,0,0,.6.5h.1v-.6l-.3-.3C92.8,21.3,92.7,21.4,92.7,21.7Zm.8,20.2h.2c.4,0,.7-.3.8-.8h0A1,1,0,0,0,93.5,41.9ZM94,22.5a5.4,5.4,0,0,0,1,2.2h.4c-.3-1.3-.7-2-1.1-2H94Zm.9,15.9h.4c.3,0,.5-.1.5-.2l-.2-.3h-.1A.5.5,0,0,0,94.9,38.4Zm.3,5.8h.3q.6-.6.6-.9H96C95.5,43.5,95.2,43.8,95.2,44.2Zm1-18.8V26c.2,0,.3-.2.3-.4v-.2h-.4Zm.2,17,.2.2c.6-.2.9-.5.9-.8h-.1C96.8,41.7,96.5,41.9,96.4,42.4Zm1.4-.6H98a.5.5,0,0,0,.4-.6h-.1C98,41.4,97.8,41.6,97.8,41.8Zm2.2-.6h-.1c.2.5.3.8.5.8h.1l.2-.2h0A.7.7,0,0,0,100,41.2Z" transform="translate(-0.2 0)" style="fill:#b75326"/><path d="M137.5,0a3.9,3.9,0,0,1,2.3.7,22.6,22.6,0,0,0-1,6.3l-.6,5.6c0,.3.8.5,2.4.5,4.9,0,7.4.2,7.4.6l.7.4a3.1,3.1,0,0,0-.6,1.2v.2l.2,1.2-.8,2.8q0,.3.9,1.2h0a7.9,7.9,0,0,1-2.4.5c-.7-.1-1-.2-1-.3h1l.2-.2v-.2h-7.8c-.2,0-.4,1.2-.6,3.5h-.1l-.8-.9-.2.6v.4c0,1.2.2,1.8.4,1.9s.3-.4.4-1.2v-.4h.2v.2l-.5,5.9c.4,6.5.8,9.8,1.1,9.8s.7,1.9,1.6,1.9a3.1,3.1,0,0,0,1.7.4h4.7c.2,0,.4,1.1.5,3.3s-.5,1.9-2.2,1.9H140a10,10,0,0,1-6.6-2.1c-1.1-.5-1.7-1.7-1.7-3.8s-.3-4.9-.4-9.8l.9-5.4.2-3.7v-.5c-.2-1.7-.7-2.5-1.4-2.5h-4a5.3,5.3,0,0,0-2,.5c-.4-.1-.9-.6-1.5-1.7l1.3-5.5,7.4-.3a3.5,3.5,0,0,1,.9-2c.2-6.4.4-9.6.7-9.6V.9c0-.1-.1-.2-.3-.2h0C133.5.4,134.8.2,137.5,0ZM125.2,13.7c0,.3.1.5.5.5h.9l4.7-.3h0c0-.3-1-.4-3-.4h-2.6C125.3,13.5,125.2,13.6,125.2,13.7Zm.8,1.4v.3q0,.6,4.2.6c1.3,0,2-.1,2-.3s-1.8-.7-5.4-.7H126Zm.4,2.2c0,.2.1.2.3.2H130a8.5,8.5,0,0,0-2.8-.3h-.6Zm0,.8h0c0,.3,1.6.4,4.7.4h.5v-.2Zm5.7,13.5.2,1.7v2.8h.2c.3,0,.4-.9.4-2.9V31.8c.2.1.1.2-.1.2A.9.9,0,0,1,132.1,31.6Zm2,8v1.3h0l.2-.2v-1h-.3Zm.3,4.2v.3c.1,1,.5,1.5,1.3,1.5h.8c0-.2-.4-.3-1.2-.5l-.8-1.1Zm.5-22.5v.5h.1c.2,0,.3-.1.3-.4v-.6h-.1C135,20.9,134.9,21.1,134.9,21.3Zm.1,1.2v1h.3v-.8l-.2-.2Zm.1-20.8V2h.3V1.8h-.3Zm0,25.1v.5l.2.2h.1v-.7Zm.3-22.9c0,.3-.1.8-.1,1.6v.3h.1l.2-1.1V4.1Zm.3,2.8-.3,6.1h.4c.2,0,.4-.5.4-1.5V7q-.2-.3-.3-.3Zm.3,29.8v.9c0,.3.1.5.3.5h.1c.2,0,.3-.2.3-.4s-.3-1-.4-1Zm.1,7H136v.4a1.2,1.2,0,0,0,.5.5h.4C136.9,43.9,136.6,43.6,136.1,43.5Zm.5-4.4-.2.8c0,.9.2,1.5.6,1.7l.2-.3v-.5C137.1,39.8,136.9,39.2,136.6,39.1Zm.3-16.9h0l.2.3h.1v-.2l-.3-.2ZM137.6,2h0l.2,1.5h.1a2.1,2.1,0,0,0,.7-1.3V2l-.2-.2h-.6Zm1.5,13.7h0c0,.2.7.4,2.3.4h1l1.4.3h.2c.3,0,.5-.1.5-.4h-.1l-4.7-.4h-.4Zm.9,2.8h0c.1.2.8.4,2.2.6h.1a3.6,3.6,0,0,0-2-.6Zm3.6-4.6h-1.8V14a7.5,7.5,0,0,0,2.4.4h1.4c.1,0,.1-.1.1-.2a.6.6,0,0,0-.7-.7h-.6Zm-.7,30.8h.2c1.5-.3,2.3-.6,2.3-.9h-.1Q142.9,44.4,142.9,44.7Zm.5-25.6a9.3,9.3,0,0,0,3,.5l.2-.2v-.6h-1.4C144,18.8,143.4,18.9,143.4,19.1Zm2.3-2h0l.2.3h.3a1,1,0,0,0,.8-.4l-.3-.2h-.8Zm.2-2.8h0l.2.2c.4,0,.6-.1.7-.3h-.7Z" transform="translate(-0.2 0)" style="fill:#b75326"/><path d="M152.1,1.3c5.3.2,7.9.7,7.9,1.5l.4,9a34.9,34.9,0,0,1-1.3,6.3,15.8,15.8,0,0,0-.3,2.6v.4h.2a14.7,14.7,0,0,1,9.4-3.2,16.2,16.2,0,0,1,5.7,1.7,28,28,0,0,1,2.1,2.6,1.5,1.5,0,0,1,.5.7v.6c1.2,1,1.8,2.7,1.8,4.9a48.1,48.1,0,0,1,.3,6.1h0c0,.6-.4,2.9-1.1,6.9v1.1h1.2q2.1.1,2.1.6c0,.1-.7.3-2,.4h0c0,.2.5.3,1.4.6l.2.3h0l-1.1.3c.8.2,1.1.5,1.1.8,0,2-.5,3-1.6,3h-.5c-1.6,0-2.4-.3-2.4-.8a8.7,8.7,0,0,0-2.5-.3l-1.9-.8v-.2a53.5,53.5,0,0,1,.9-7.9,38.4,38.4,0,0,1,1-6.4V30.2l.2-.3a1.9,1.9,0,0,1-.8-1.8,13.5,13.5,0,0,0-1.3-2.1,9.6,9.6,0,0,0-2.6-.9,8.1,8.1,0,0,0-6.1.3c-2.7,1.8-4,3.1-4,4l-.4,4v4.2q-.3,4.5-.9,4.5v.3h.5l1.1-.4c.9.1,1.4.5,1.4.9l-.4.4v.3l.8.4v.3c-.2,2.1-.5,3.2-.9,3.2h-.2c-.6-.4-2.8-.7-6.6-.8s-4.1-.7-4.1-1.3v-1c-.1-.2.1-.4.4-.9v-.4a3.4,3.4,0,0,1-.8-1.2,10,10,0,0,1,3-.3q.5,0,.6-2.4c.4-.2.6-.9.8-2a1.8,1.8,0,0,0,.4-1h0a3.4,3.4,0,0,0-.8-1.9l.8-1.5c.2,0,.3-4.5.4-13.5l.8-9.1V7.5c0-.9-.2-1.4-.8-1.4h-2l-1.3.4c-.3,0-.4-.5-.4-1.6V4.1c0-1.8.2-2.7.7-2.7Zm-2,42.1v.2h2.6c0-.3-.7-.5-1.9-.5S150.2,43.2,150.1,43.4Zm.7,2h.1a16.7,16.7,0,0,1,3,.8,41.3,41.3,0,0,1,5.4.5h.1l.3-.3h0c0-.4-2-.6-5.9-.6a4.9,4.9,0,0,0-2.5-.6C151,45.2,150.8,45.3,150.8,45.4Zm.5-42.3v.4h.2V3.2Zm.9-.9v.3a4.1,4.1,0,0,0,2.1.5V2.8a4.8,4.8,0,0,0-2.1-.6Zm.5,1.3h0l.2.2h.8V3.6h-1Zm.3,38q0,.4,2.1.6h.2v-.5c0-.1-.2-.2-.5-.2h-1.2C153.2,41.3,153,41.4,153,41.5Zm.1-36.9h0a.5.5,0,0,0,.5.3h.8V4.6h-1.3Zm3.1,7.6a4.8,4.8,0,0,0-.3,2.2c.5,0,.8.4.8,1.1h.1a3.5,3.5,0,0,0,.1-1.2v-.8h0l-.3.6h-.2v-.3c.1-.4.1-.5.3-.5h.3A4.1,4.1,0,0,0,156.2,12.2Zm.4-1.6h0l.2.3h.2v-.2l-.2-.3h-.1Zm0-1.9v.4l.2.2.2-.2V8.8l-.2-.3Zm.9,18.3v.4h.1c.4,0,.7-.4.9-1.1h.1v-.3h-.1A2.7,2.7,0,0,0,157.5,27Zm.4-24.1a1.2,1.2,0,0,0,.5.5h.1a.6.6,0,0,0,.6-.3V2.9l-.4-.3h-.6Zm.3,25.2h.5c.3,0,.5-.1.5-.2v-.2h-.3Q158.2,27.8,158.2,28.1Zm.2,15.6V44l.3.3h.4l.3-.3h0l-.4-.4h-.6Zm.4-.9V43h.3v-.2Zm1.7-19.3h.2a1.4,1.4,0,0,0,.8-.6h-.2A1.8,1.8,0,0,0,160.5,23.5ZM163,25h.1l.3-.2v-.2h-.2Zm2.6-3.1h0l.2.2h.5l-.3-.2Zm.8,2h.3v-.2h-.1Zm.9-.8v.3a4.9,4.9,0,0,0,1.7.6l.2-.2c0-.3-.5-.5-1.5-.8Zm1.7-4.6h0l.8.4h0c0-.2-.3-.3-.7-.4Zm2.2,6.1h0a.5.5,0,0,0,.6.6h0A.5.5,0,0,0,171.2,24.6Zm1,21.6v.2a.9.9,0,0,0,.8.4h.6v-.2c0-.2-.2-.3-.7-.4Zm.2-26.3h0c.1.4.4.5.8.5v-.2A1.2,1.2,0,0,0,172.4,19.9Zm.1,25.6h.3v-.2l-.2-.2Zm.2-.9h2.6a3.5,3.5,0,0,0-2-.4.7.7,0,0,0-.7.5Zm.7-20.9v.2a9.3,9.3,0,0,1,1.8,2.8c.2.3.3.4.5.4v-.4c0-.8-.6-1.8-1.8-2.9h-.5Zm.4,18.8v.3h.6v-.7A.7.7,0,0,0,173.8,42.5Zm1.1-16.8v.2l-.5,1.3h.1l-.3-.4Zm1.4,14.1h.2c.3,0,.7-1.5,1.1-4.6,0-.5-.1-.7-.4-.8H177C176.7,34.4,176.5,36.2,176.3,39.8Zm.5-14.3h0l.4.3h.1l.2-.2-.4-.4H177Zm.4,7.9.2.2h.2v-.2h-.4Z" transform="translate(-0.2 0)" style="fill:#b75326"/><path d="M197.4,15.6c1.7,0,3.8.8,6.3,2.2s3.2,2.7,3.2,3.3c1.6,3.5,2.4,5.6,2.4,6.2v.5a9.4,9.4,0,0,0-.9,2.9h-5.6L201,31c-5.9-.5-10.1-.7-12.4-.7h-1.4a3.5,3.5,0,0,0-.7,1.5,4.8,4.8,0,0,1,.4,2.2c0,1.6.3,2.5.7,2.8v.3h0l-.4-.2v.2l.7.6a2.7,2.7,0,0,0,1.1,2c1.3,2.4,2.8,3.9,4.4,4.5a15.1,15.1,0,0,0,4.6.6,4.6,4.6,0,0,0,1.8-.7c.8-.3,2.3-1.6,4.6-4.1h0c0-.1-.2-.2-.8-.3v-.3a7.2,7.2,0,0,1,3.4-3.5l2.3,1.7a49.7,49.7,0,0,0,3.6,4.9v.3c-1.3,1.7-2.2,2.5-2.8,2.5h-.3c0-.9-.5-1.4-1.6-1.5a11.7,11.7,0,0,0-2.7,2,15.5,15.5,0,0,1-4.9,2.1,33.5,33.5,0,0,1-5.7.9l-3.5-1.3c-2,0-3.8-1.1-5.4-3.2a7.5,7.5,0,0,1-1.8-2.7,34.5,34.5,0,0,0-1.4-5.1,25.5,25.5,0,0,1-.4-3.4h0a22.4,22.4,0,0,1,4.9-14.4,5,5,0,0,1,2.9-2.3l3.6-.7ZM183.5,31.3h0v.2h0a2.2,2.2,0,0,0-.1.9v.3a4.1,4.1,0,0,0,.6,2h.1C184.1,32.7,183.9,31.6,183.5,31.3Zm0-2.3v.4c0,.2.1.4.2.4s.2-.2.3-.6l-.2-.2Zm.8-3.3a5.4,5.4,0,0,0-.8,2.5h.1c.2,0,.6-.7,1.1-2.2S184.5,25.7,184.3,25.7Zm.1,11h0V37h.2v-.2h-.3Zm.6,1.1h-.1c.3.6.5,1,.7,1h.1A1.3,1.3,0,0,0,185,37.8Zm1.8-8.2H188l-.3-.3h-.1A.9.9,0,0,0,186.8,29.6Zm.1-7.4h.1Zm0,3.9v.4h.1a2.3,2.3,0,0,0,.7-.7v-.2h-.2A.8.8,0,0,0,186.9,26.1Zm.6-1.6v.2c0,.5,3.7,1,11.2,1.5l.6.2h.8a14.9,14.9,0,0,0,3.3.9c0,.1.2.2.4.3a1.7,1.7,0,0,0,.4-1.1V25.3c0-.6-1-1.8-3.1-3.6a5.6,5.6,0,0,0-3.2-1.7l-2.1-.3c-3.4.7-5.6,1.5-6.7,2.5A10.6,10.6,0,0,1,187.5,24.5Zm.1-1h0a.5.5,0,0,0,.3-.5h0A.5.5,0,0,0,187.6,23.5Zm.1,21.2v.2c.1.3.4.5,1.1.7l.3.3h0L188,44.7Zm.5-23.9V21h.1c.5-.2.8-.3.8-.5h-.3A.7.7,0,0,0,188.2,20.8Zm.3,8.4v.4h.3v-.3h-.3Zm.7-11.3h0l.2.2h0c.9-.2,1.3-.4,1.3-.7v-.3l-.3-.3h-.1C189.6,17.2,189.2,17.5,189.2,17.9Zm.8,10.7v.2a47.8,47.8,0,0,0,6.5.5h-1.2c0,.2.5.3,1.6.3s2.6-.1,2.6-.3S196.3,28.8,190,28.6Zm.6-2.1v.2a8.5,8.5,0,0,0,4.3.8h1.3v-.3A53.2,53.2,0,0,0,190.6,26.5Zm.2-6.1a8.4,8.4,0,0,1,2.4-1h-.7C191.4,19.4,190.8,19.8,190.8,20.4Zm.9-3.4h.1a14.1,14.1,0,0,0,3.7-.7q.6-.2.6-.3h-.3a11.3,11.3,0,0,0-4,.9h-.1Zm.5,27.9h0c0,.2.4.4,1.3.6h.1a3.9,3.9,0,0,0-1.4-.5Zm2.2-26.6h0c0,.2.8.4,2.5.7h.1v-.2a1.9,1.9,0,0,0-1.7-.8h-.2C194.6,18,194.4,18.1,194.4,18.3Zm1.3,27.3v.2h.2v-.2Zm2.3,1.6h-1.5c-.4,0-.6,0-.7.2h0l.3.2h1.1a19.9,19.9,0,0,0,4.5-.6h0c-.1-.2-.3-.3-.8-.3h-.3A5.8,5.8,0,0,0,198,47.2Zm-1.1-29.9v.2a6.1,6.1,0,0,0,2.5.4h.1v-.2c0-.1-.3-.2-.8-.3Zm1.2,1.4h0a19.1,19.1,0,0,0,3.8,2h.1l.6-.2h.4l-1-.4-1.3-.5a1.9,1.9,0,0,0-2-1.1h-.2C198.2,18.5,198.1,18.5,198.1,18.7Zm3.6,9.4v.2h.3v-.2Zm.1,1.7c0,.1.4.2,1.1.2h.6q0-.3-1.2-.3C202,29.6,201.8,29.7,201.8,29.8Zm0,14.1h.2a1.3,1.3,0,0,0,.5-.7h0C202,43.4,201.8,43.6,201.8,43.9Zm.5,2.7c.4,0,.7-.3,1-1h-.2C202.6,46,202.3,46.3,202.3,46.6Zm.6-24.9a.6.6,0,0,0,.6.5h.1v-.6l-.3-.3C203.1,21.3,202.9,21.4,202.9,21.7Zm.8,20.2h.2c.4,0,.7-.3.9-.8h0C204.3,41.1,204,41.3,203.7,41.9Zm.5-19.4c.4,1.3.8,2.1,1.1,2.2h.3c-.3-1.3-.7-2-1.1-2h-.3Zm1,15.9h.4c.2,0,.4-.1.4-.2l-.2-.3h-.1C205.4,38,205.3,38.1,205.2,38.4Zm.3,5.8h.2q.6-.6.6-.9h-.1A.9.9,0,0,0,205.5,44.2Zm.9-18.8V26a.4.4,0,0,0,.4-.4v-.2h-.5Zm.2,17,.2.2c.6-.2.9-.5.9-.8h0C207.1,41.7,206.7,41.9,206.6,42.4Zm1.5-.6h.2a.7.7,0,0,0,.4-.6h-.2A.7.7,0,0,0,208.1,41.8Zm2.1-.6h-.1c.2.5.4.8.6.8h.1v-.2h0A.7.7,0,0,0,210.2,41.2Z" transform="translate(-0.2 0)" style="fill:#b75326"/><path d="M233.9,0h.5c3.6.4,5.8.9,6.4,1.5s.6.8.8,2.4l-.2.6v.2c.3.6.6,3.1.9,7.7,0,8.4.2,13.7.6,16h.3a114.6,114.6,0,0,1,10.3-7.5c.4,0,.7-1.9.9-5.5,0-.9.4-1.4,1.2-1.4h2.5c3.7,0,6,.4,6.7,1.2h0l-.2.3a5.4,5.4,0,0,0-1.8-.4h-.1c0,.3.6.5,1.8.7s.5.9.5,2.8-.3,1.2-1,1.2-.5.3-.8.8h-1.7c0,.6-.5,1-1.5,1.4s-.2.1-.2.3l.2.4-5.9,4.1v.2c0,.3,2,4.5,6,12.5a10.5,10.5,0,0,1,1.1,2.8h-.3l-.4-.4h-.2c0,.5.8.7,2.4.7s4.1.3,4.1.8l-.4.6a8.3,8.3,0,0,1,.8,4c0,.6-.4.9-1,.9h-.5a52.2,52.2,0,0,0-7.2-.3h-.4c-.5,0-.8-.6-1.1-1.9a35.8,35.8,0,0,0-1.2-5.9c-.7-1.5-2.1-4.4-4.2-8.5-.6-2.1-1.2-3.1-1.6-3.1a7.1,7.1,0,0,0-3.3,1.8,1.9,1.9,0,0,1-1.2.7c-.2,0-.3-.1-.3-.2h0l.2-.2v-.2H245c-.2,0-.5.6-.8,1.7v.4a1.1,1.1,0,0,0-.6,1l.2,6.7c0,.5.8.8,2.6,1a6.7,6.7,0,0,0,1.9.9l.3.6v1.6l.2.8v.2a2.4,2.4,0,0,1-.9.8h-.4v.2c0,.3.2.5.8.7h0c0,.2-.3.3-.8.4l-2.8-.8a61.8,61.8,0,0,1-7.8-.7l-.9.2c-.5-.3-.8-.9-.8-2v-.3h-.1a2.1,2.1,0,0,1,1-1.8h.2v1l.3.3h.7l-.2-.3v-.2h1.1l-.7-.8h.8v-.2c0-.1-.2-.2-.6-.2h-1.5c0-.3.9-.6,2.8-.9a9.4,9.4,0,0,1,2.1-.4v-.2h-.8c-.3,0-.5-1.8-.5-5.3a45.7,45.7,0,0,0-1.2-8.8c-.2-10.1-.6-16.3-1-18.4,0-.1-.7-.3-2.2-.4l-1.7.5a3,3,0,0,1-.8-1.2v-4q.1-.9.3-.9h.7a2.3,2.3,0,0,0-.5-1V1c.3-.1.5-.1.5-.3l-.3-.4V0Zm1.5,4.6h0c0,.2.3.4.9.5v.2q-1.2,0-1.2.3v.3h.8a1.4,1.4,0,0,0,1.4-1l.3-.4q0-.3-1.5-.3h-.3C235.6,4.4,235.4,4.4,235.4,4.6ZM237,44.9h3.3c1.3,0,2-.1,2-.3h0l-1.4-.2Zm1.7,1.2,6.7.9v-.2c0-.6-1.3-.8-3.8-.8h-2.9Zm.6-42.6v.2c.2.4.4.6.7.6a1.5,1.5,0,0,0,.4-1.1h-.2A1.3,1.3,0,0,0,239.3,3.5Zm1,6.5-.2.3v1.2q0,1.5.3,1.5h.1l.2-.2v-.9C240.6,10.6,240.5,10,240.3,10Zm-.2,9v.3h.2l.2-.2-.2-.2Zm1.4,25.2v.2h.2l-.2-.2Zm.1-14.6h.3v-.2h0Zm0,5.2v.9h.2c.3,0,.5-.2.5-.6V34H242A.8.8,0,0,0,241.6,34.8Zm.1-2.4V33h.3c.2-.1.3-.3.3-.7h0a7.8,7.8,0,0,0-.2-1.4H242Q241.7,30.9,241.7,32.4Zm0,8.5.3.3h.1a.5.5,0,0,0,.3-.5c0-.3-.1-.4-.2-.4S241.7,40.6,241.7,40.9Zm.4-3.7v1h.1a.8.8,0,0,0,.2-.6v-.4Zm1.4-8v.2h.2a1.9,1.9,0,0,0,1.4-.7v-.3A2.3,2.3,0,0,0,243.5,29.2Zm0,15.2h.3l-.2-.2Zm.4,1.2h0l1,.2h.4c0-.1-.4-.2-1.1-.2Zm1.7-1.4a1.4,1.4,0,0,0,1.3.8h.1v-.2a1.7,1.7,0,0,0-.6-.9h-.3A.6.6,0,0,0,245.6,44.2Zm.4-13.6h.1a5.6,5.6,0,0,0,2.2-1.3h0C246.8,30,246,30.4,246,30.6Zm0,16.2V47h.7c0-.2-.2-.3-.4-.3Zm1.7-3.3h0l.2.2h.1v-.2h-.3ZM251,29.1q.5,1.2.9,1.2h0c-.1-.9-.4-1.4-.8-1.4S251,28.9,251,29.1Zm2.1,3.3h0a25.2,25.2,0,0,0,2.3,5.2h.2v-.2c0-.9-.7-2.6-2.3-5Zm1-7.7v.2h.1c1.5-.4,3.4-1.6,5.8-3.6v-.2H260A17.7,17.7,0,0,0,254.1,24.7Zm.1-2.6h.1l1.9-1.1c.4-.1.6-.3.6-.4v-.3h-.3c-.6,0-1.3.6-2.3,1.7Zm.6-2.9.3.2h0a.6.6,0,0,0,.6-.3h-.2C255.1,19,254.9,19,254.8,19.2Zm.3-1.4c0,.5.1.8.3.8h.4c.1,0,.1-.1.1-.3l-.3-.7.3-1.1v-.2h0C255.3,16.5,255.1,17,255.1,17.8Zm.8,20.5h0a5.3,5.3,0,0,0,1,2h.2a5.2,5.2,0,0,0-1.1-2.1Zm.3-24h0v.2h.3v-.2h-.5Zm.2,20.3v.2l.2.2h.1v-.4Zm1.9,7.8h0l.3.3h.5l.2-.3h0a.6.6,0,0,0-.6-.3C258.5,42.2,258.3,42.3,258.3,42.4Zm2.4-24.1c0,.1.6.2,2,.3s.6-.2.6-.3v-.2h-1.6C261,18,260.7,18.1,260.7,18.3Zm.8,29.7h.7A1,1,0,0,0,261.5,48Zm.4-3,.3.2h.3l.2-.2-.2-.2h-.4Zm1.3.1h0l.2.2h.3v-.3Zm2.6-1v.3h.3v-.3h-.3ZM266,46v1.1h0q.3,0,.3-1.2v-.5h-.1C266,45.5,266,45.7,266,46Z" transform="translate(-0.2 0)" style="fill:#b75326"/><path d="M271.1,14.8a1.6,1.6,0,0,0,1.2.4l.8-.3c5.6,0,8.4.1,8.4.5v1.4a6.7,6.7,0,0,1,.4,2.4v1c-.4,5.7-.7,11.1-.9,16.3a8.6,8.6,0,0,0-.3,1.3.6.6,0,0,0,.6.3h.2c2.3,0,3.4.2,3.4.7h-.1v.4a11.3,11.3,0,0,1,.7,4.7l.2,2.5h-9c-4.7,0-7-.3-7-1.1a3.5,3.5,0,0,0-.3-1.3,1.3,1.3,0,0,1,.6-.7h.2a.6.6,0,0,0,.5.2h.2a30.7,30.7,0,0,0,4.2-.3h0c-3.5-.2-5.2-.5-5.2-.8V41.3l-.2-1.5c0-.5,1.6-.7,4.7-.7q.6,0,.6-2.7l.7-16.3h-.1c-1.5,0-2-.1-1.6-.4q-3.6,0-3.6-.9c-.2,0-.3-.2-.3-.5l.3-.7a.7.7,0,0,0-.4-.6h0c.4-.3.6-.9.8-2h.3Zm.1,26.5h0c.3.4,1.6.6,3.8.6h.4q.6,0,.6-.3h0l-4.4-.3Zm.7-25.2v.2h.3c1,0,1.6-.1,1.6-.3h-.3C272.4,15.9,271.9,15.9,271.9,16.1Zm.2.9h0c0,.1.3.2.8.2h2.9c.7,0,1-.1,1-.2h0c0-.3-1.2-.3-3.6-.1Zm7.3-14.3a4,4,0,0,1,3.4,2.2l.4,2.1a9.4,9.4,0,0,1-1.3,3,3.7,3.7,0,0,1-2.5.8q-3.9,0-4.8-1.2a4.6,4.6,0,0,1-.9-3.4c-.2,0-.2-.1-.2-.2h0C274.7,4,276,3,277.3,3ZM276,4.6h0a5.3,5.3,0,0,0,2.1-.5l-.3-.2C276.6,4.1,276,4.3,276,4.6Zm.4,29.7c0,.3.1.5.2.5s.2-.2.2-.6v-1a9.2,9.2,0,0,0,.6-2.4V29.5c.3-.1.4-.3.4-.4a3.9,3.9,0,0,1-.3-1.4h0q.3,0,.6-6.9c-.1-.4-.2-.5-.3-.5h-.1c-.6,0-.9,2-1,6.1Zm1.3,9.3h-.9v.2h2.7v-.2h-1.8Zm-.5-37.3h.4c.5,0,.8-.1.9-.5h-.8a.5.5,0,0,0-.6.4Zm.2,35.7.2.2h.1c.3,0,.5-.2.5-.6h-.3C277.6,41.6,277.4,41.7,277.4,42Zm.6-4.1v.3h.2l.2-.2h0v-.2h-.1Zm0-1.1v.4h.2c.2-.1.3-.3.3-.8V36h-.1C278.2,36,278.1,36.3,278,36.8Zm.1-19.9v.2c.3,0,.6.2,1.1.6h.1a.2.2,0,0,0,.2-.2h.1q.1,0,.3.6h.1l.8-.7v-.3h-2.7Zm.3,3.5.4,1-.4,1c.1.5.3.7.4.7h0v-.8c0-1.5.3-2.3.7-2.3l.2-.2v-.3h-.6C278.7,19.4,278.4,19.8,278.4,20.4Zm.6,10.5a14.1,14.1,0,0,0-.6,3.5h.1c.2,0,.5-.9.8-2.6v-.9Zm-.5-21.8v.2h1.1l.2-.2h-1.3Zm.8,11.9v.3a.5.5,0,0,0,.3.5h.2l.2-.2v-.3a.8.8,0,0,0-.4-.4Zm.8-13.2V8h.2a.8.8,0,0,0,.7-.4V7.4h-.2A.9.9,0,0,0,280.1,7.8Zm0,8,.2.2h.1v-.2l-.2-.2Zm1.2-9.7v.2h.1l.2-.2V5.9h0Zm1.4,35.8c0,.5.4.8,1,.8h.3v-.2l-.2-.2.6-.3v-.4a.5.5,0,0,0-.4-.5h-.2c-.1,0-.2.2-.4.6Zm.3-2.7a2.4,2.4,0,0,0,1.3.4v-.2c0-.1-.3-.2-.8-.3H283Zm0,4.2h.1l.2-.2h-.1Zm1.5,2.5h.5v-.2h-.1Z" transform="translate(-0.2 0)" style="fill:#b75326"/><path d="M314.3,0a7.6,7.6,0,0,1,2.6.7c.1,0,.1.6.2,1.9a1.6,1.6,0,0,1,.7,1c-.2,2-.4,6-.6,12.1-.1,0-.1.2-.1.6s-.5.4-.5.7v.9a8.8,8.8,0,0,1-.6,2.9v.9c0,.2.2.3.7.4v.4c-.6,5.2-.9,8.7-.9,10.3s-.2,2.8-.4,2.8h0c.2,0,.4.3.5.8v.7c0,.7-.3,2.6-.8,5.6v1.5c2.1.4,3.1,1,3.1,1.7l-.3.4V47l.3.4h0c-.3.9-1.5,1.4-3.5,1.4h-.4l-.3-.6h-.7l-1.6.4h-2.4a10.5,10.5,0,0,1-.5-3.1v-2a5.8,5.8,0,0,0-2.5,1.4,24.9,24.9,0,0,1-9,3,14.3,14.3,0,0,1-6.5-3.5,14.6,14.6,0,0,1-1.9-2.9,5.6,5.6,0,0,1-1.1-1.9v-.2h.2a9,9,0,0,1,1.6,2.1h.3v-.8a5.5,5.5,0,0,0-1.2-3h-.4c-.2,0-.3.4-.4,1.1h-.2v-.3c.1-1.6.2-2.6.2-3.1h.4v.6h.2a.8.8,0,0,0,.3-.7V33.8c-.2,0-.2.2-.3.6l-.3.4c-.1,0-.2-.2-.2-.5a20.4,20.4,0,0,1,3-9.9,19.7,19.7,0,0,1,2.9-4c1.3-1.2,3.3-1.7,6.2-1.7h.6a16.3,16.3,0,0,1,10.7,3.4l.4.2h.2c.4-1.8.7-6.4,1.1-13.8a.5.5,0,0,1,.5-.4h0a7.5,7.5,0,0,0-2.7-1.3c-.4,0-.7-1.4-.8-4.2l1.1-.3h0c-.1-.2-.2-.3-.6-.3s-.2-.3-.2-.5.4-.6,1.4-.6V.5l-.2-.3h3Zm-24,32.8a.2.2,0,0,0,.2.2c.3,0,.5-.4.7-1.3v-.3h-.3C290.7,31.4,290.5,31.9,290.3,32.8Zm.6-5.5v.2h.3A5.1,5.1,0,0,0,292,26c1.2-1.7,2-2.5,2.5-2.5l.2-.5h-.4a6.1,6.1,0,0,0-2,1.3A9.6,9.6,0,0,0,290.9,27.3Zm.4,15.8h0c0,.3.6.4,1.9.6v-.2l-1.7-.6Zm0-7.2v.9c0,.6.8,2.3,2.4,5a8.1,8.1,0,0,0,3.7.9,18.5,18.5,0,0,0,8.3-2c1.1-1.7,2.1-2.5,2.9-2.5s.9-2.1,1.5-4.7a5.2,5.2,0,0,0,.5-2.3v-.6c0-1.7-.3-2.6-.8-2.6a6.7,6.7,0,0,1-1.3-1.5l.2-.4c0-.2-.6-.4-1.8-.7l-.4-.3h1c0-.4-2.2-.7-6.7-.7l-.9-.2c-3.3.3-4.9.7-4.9,1.3a13.4,13.4,0,0,0-3,6.6A17,17,0,0,0,291.3,35.9Zm1.4,8.3c0,.4,1.2.9,3.7,1.3h.4c0-.3-1.2-.8-3.6-1.3h-.3Zm1-22v.2h.4c1.4-.4,2.1-.8,2.1-1.4s-.2-.2-.6-.2h-.3C294.7,20.9,294.2,21.3,293.7,22.2Zm2.8,24.4v.2h1a14.6,14.6,0,0,0,2.9-.4h0l-1.9-.2C297.2,46.2,296.5,46.4,296.5,46.6Zm1.2-26.1v.3l.2.2h.3l.3-.3v-.2l-.3-.2h-.3Zm.1,3h0Zm1.4,19.9v.2h.8q4-.3,4.5-1.2v-.2h-.3C301.1,42.8,299.4,43.1,299.2,43.4Zm.6-20.3h.2Zm.9,21.7h.6c1.3,0,1.9-.2,1.9-.4h-1.3Q300.7,44.5,300.7,44.8Zm.4-21.1h.2l1.4-.2h-.4Q301.1,23.4,301.1,23.7Zm.4-2.7h2.8c-.1-.3-.7-.4-1.9-.5h-.7A.6.6,0,0,0,301.5,21Zm2.7,2.5.3.3h.3v-.2c0-.1-.2-.2-.4-.2h-.3Zm1.1,19.1v.2h.1a2.3,2.3,0,0,0,1-.7v-.2h-.2A2.2,2.2,0,0,0,305.3,42.6Zm.8-21H306v.2l1.9.6h.1c0-.4-.4-.7-1.1-.9Zm.8,1.9.3.2.2-.2h-.5Zm1,.4c0,.1.6.4,1.8.7h.1v-.2a1.3,1.3,0,0,0-1.2-.5Zm1.2,2.4v.5l.3.3h.2c.2,0,.2-.2.2-.4a.6.6,0,0,0-.3-.6h-.1Zm.9,15.8v.3c.3,0,.4.2.4.6h.1l.3-.3v-.5c-.2-.1-.2-.3-.2-.6h-.3A.5.5,0,0,0,310,42.1Zm.1,2.4h.1l.3-.2h-.2Zm1.4-40.1v.2h.4c.3,0,.4,0,.4-.2V4.2h-.6Zm.1-1.5h.7V2.7h-.5Zm1.1,19c0,.3.1.6.3.6h0v-.5Zm.5-17.4h.2c.9,0,1.4-.1,1.4-.3l-.2-.2h-.8A.5.5,0,0,0,313.2,4.5Zm.1,38v1.3l.2.2h0l.2-.2v-.6a1,1,0,0,0-.2-.7Zm.1,2.2v.2h.5v-.2Zm1.3,2a1,1,0,0,0,.7.2H317c0-.2-.2-.3-.7-.3S314.7,46.5,314.7,46.7ZM315,3.5h.1Zm1.3,17h.3v.3h-.3Z" transform="translate(-0.2 0)" style="fill:#b75326"/><path d="M332.6,9.4a61.2,61.2,0,0,1,9.2,1.8,21.9,21.9,0,0,0,4.2,1.7,3,3,0,0,0,.5-1.8h0v-.5c0-.5.4-.8,1.1-.8a4.3,4.3,0,0,1,2.1-.5c1.3,0,1.9.1,1.9.4l.6,5.8v1.8c0,1.5-.2,2.3-.6,2.6s-.7.6-.9.6c-2.3-.2-3.5-.5-3.5-1a3.2,3.2,0,0,0-2.1-2.1c-4-2-6.9-3-8.6-3h-1.7c-2,0-3.3.4-3.6,1.2a4,4,0,0,0-.8,2.7h0c0,2.3,1.2,4.1,3.6,5.6a14.8,14.8,0,0,0,6,1.4c0,.4,1,.9,2.8,1.4a2.7,2.7,0,0,0,2.4.9,20.7,20.7,0,0,1,5.6,4.7l.2.3v.2h-.4a7.8,7.8,0,0,1,.9,2.2c0,3.7-.6,6.1-1.8,7a8.3,8.3,0,0,1-3.4,3.3,8.9,8.9,0,0,1-5.9,2.6h-2.2c-3.2-.5-4.9-.9-4.9-1.2a13.2,13.2,0,0,0-3.2-2,11.3,11.3,0,0,1-4.2-2.9h-.3q-.7,2.1-1.2,2.1c-2.6-.4-3.9-.8-3.9-1.3a27.3,27.3,0,0,1-.5-5.4l.7-3.8c0-1.4.1-2.1.5-2.1l3.9-.5c.3,0,.6,1.2.8,3.5l1.8,3.1a46.7,46.7,0,0,0,5.5,3.7,5,5,0,0,0,3.9,1.6h2.1c2.2,0,3.7-.8,4.5-2.2a8.6,8.6,0,0,0,2.1-4.5h0c0-1.3-1.1-2.8-3.1-4.5a4.6,4.6,0,0,0-3.5-1.6,27,27,0,0,0-5.6-1.1l-4.9-2.6-2.4-2.1a11.2,11.2,0,0,1-1.7-3.3v-1l-.2-2.4a2.9,2.9,0,0,1,1-2c0-.5,1-1.7,3-3.4a9.3,9.3,0,0,0,3.3-2.4ZM320.9,38.3v1.6h0c.3-.3.4-1.3.4-3v-.5h-.2C321,36.3,320.9,36.9,320.9,38.3Zm1.7,3.2v.2l.2.3h.1v-.2h0l-.2-.2Zm.4-8.2v.3h.4v-.3ZM325.4,17a7.5,7.5,0,0,0,.4,1.6h.2l-.2-1.7h-.2Zm.1,22.4v.2q1,1.2,1.8,1.2h.1v-.2c-.9-.8-1.4-1.2-1.7-1.2Zm.5-24-.2.4V16h.2l.2-.6H326Zm.9,7.4h0l.2.2h.1v-.3h-.3Zm.2-5.2v.2h.1l.3-.3h-.2Zm.7-2.8h.3v-.2h-.3Zm.3,8.3h0c.3.9.6,1.3.9,1.3h.2l.3-.3h0c-.5-.7-1-1-1.3-1Zm.1-7.4h.4c.9-.6,1.4-1.1,1.4-1.5h-.2c-.5,0-1,.5-1.6,1.5Zm1.5,6.9h.8q0-.3-.6-.3Zm1.5.5h-.1v.4l.4.4h.4v-.3A.8.8,0,0,0,331.2,23.1Zm.1,3.2h-.1c0,.2.3.5.9.7h.1Q332.2,26.6,331.3,26.3Zm.4,18.5h0c0,.2.5.4,1.6.7l.2.2h.4c-.1-.6-.3-.8-.4-.8Zm.6-34.5v.2c0,.2.3.3.8.4s1.7-.2,1.7-.4v-.2c0-.3-.6-.5-1.8-.5S332.5,10,332.3,10.3Zm.9,14.2h-.1a6.6,6.6,0,0,0,2.4,1.3v-.2C335.6,25.6,334.8,25.1,333.2,24.5Zm.8-11.6a.9.9,0,0,0,.7.3,1.7,1.7,0,0,0,1.2-.6l-.3-.3H335C334.3,12.3,334,12.5,334,12.9Zm.9,33.6h0l.2.3h.5a.8.8,0,0,0-.6-.2Zm.4-.9v.3h.2l-.2-.2Zm.9,1.2a3.9,3.9,0,0,0,2.3.5h2.8c-.1-.3-1.5-.5-4.2-.5C336.5,46.6,336.2,46.7,336.2,46.8Zm.5-32.9q0,.4,2.1.6v-.2q0-.3-1.8-.6h-.1Zm0,12.2c0,.2,1.4.6,4.3,1.2h1a9.3,9.3,0,0,0-4.5-1.6C336.9,25.9,336.7,26,336.7,26.1Zm.7,1.8v.2l1,.3h.7A5.4,5.4,0,0,0,337.4,27.9Zm4.5,18.7v.2h.4q1.2,0,1.2-.3h-1.6Zm.5-33.7h0c0,.2.3.3.8.3h.2C343.4,13,343.1,12.9,342.4,12.9Zm.8,2.3h-.1a9.4,9.4,0,0,0,2.4,1.1h0C345.5,16.1,344.8,15.7,343.2,15.2Zm.2,13.6h0l3.3,1.9a3.5,3.5,0,0,0,1.9,1.1h.1v-.2a9.4,9.4,0,0,0-4.8-2.9Zm1.4,12.8v.3h.2a5.3,5.3,0,0,0,.9-1.1v-.2A2.4,2.4,0,0,0,344.8,41.6Zm.7-9.1v.3c0,.4.3.9,1,1.5h.3v-.5c0-.5-.4-1-1.3-1.3Zm.6,11.4h0c0,.1.1.1.2.1s1.2-.6,2-1.9h-.1Zm.1-29.2a5.3,5.3,0,0,0,2,.9h.1c0-.3-.7-.5-1.9-.8h-.2Zm.1,22.6v.3h.2l.2-.2v-.2Zm1.5-18.2c.2.3.8.4,1.7.4h1.2v-.3h-2.9Zm.6-9v.2c.4.7.8,1.1,1.2,1.1a1.2,1.2,0,0,0,.7-.7v-.2C350.3,10.3,349.7,10.1,348.4,10.1Zm1.2,27.7v.3l.2.2h.1c.3-.1.4-.4.4-1h-.2Zm.8-25.5h.4v-.3h-.2Z" transform="translate(-0.2 0)" style="fill:#b75326"/><path d="M373.6,15.4l2.9.2h5.1v.2a6.7,6.7,0,0,0-.3,1.7v1.1c.2,1.2.5,1.7,1,1.7s1.1-.8,2.5-1.3a21.9,21.9,0,0,1,8.1-2.2,8.4,8.4,0,0,1,4.6,1.9,8.1,8.1,0,0,1,3.4,2.9,17,17,0,0,1,2.5,9.5v.5l-.4,4.4.4,3.2-.6,2.9h0v.6h3.4a1.9,1.9,0,0,1,1.3.3c-.3,3-.6,4.5-1,4.5a6,6,0,0,1-2.7.7h-1.2a23.5,23.5,0,0,0-6.2.8c-1.5-.2-2.2-.9-2.2-2.2V44.8a4.1,4.1,0,0,1,1-3.1c.4-1.9.8-3.8,1.3-5.5l.4-5.4c.1,0,.2-.5.2-1.4s-.9-2.7-2.6-4.8l-2.4-.8a8.8,8.8,0,0,0-6.4,3q-.3,0-3,3c-.6.5-1,1.9-1,4.2.1,4.1.3,6.2.5,6.2s2.4.6,2.4.9v.3h-2.3v.2q0,.3,2.4.6a2.1,2.1,0,0,1,.4,1.5h0a9.4,9.4,0,0,1-.6,3.1h-7.2a1.5,1.5,0,0,1-1.5-1,40.8,40.8,0,0,1-.6-4.6c0-.2.6-.5,1.9-.7l.3-.4h0a2.3,2.3,0,0,0-.5-1V33.7l.3-5.7c0-3.8-.2-5.8-.6-5.8h-.3l-2.9.4c-.3,0-.7-.3-1.1-.8v-.2a1.7,1.7,0,0,0,.3-1V18.3l.9-2.8Zm-.3,4.1h0a.3.3,0,0,0,.3.3,1.9,1.9,0,0,0,1.2-.5h-1.1C373.4,19.4,373.3,19.4,373.3,19.5Zm.4-2.1h0c0,.2.3.2,1,.3,2.7,0,4-.2,4-.6l.2-.4h-.1Zm.1,4.1h.6l.3-.2h-.3Q373.8,21.4,373.8,21.5Zm1.2-2.6.2.2h.1l.8-.3h-.3C375.3,18.7,375,18.8,375,18.9Zm.5,1.4h1.4c.4,0,.7.1.8.3h0c-.3.3-.4.5-.4.7l.8.2a.2.2,0,0,0,.2-.2V19.1h-.2l-2.5,1h-.1Zm.6,21.5h0c.1.8.3,1.2.8,1.2h.4l.2-.3h0a1.9,1.9,0,0,1-.6-1.2h-.7Zm1.7-19v.3h.1l.2-.9H378C377.9,22.2,377.8,22.4,377.8,22.8Zm1,21.7c0,.2.6.3,1.7.3s3-.1,3-.3-.7-.4-2.1-.4A4.9,4.9,0,0,0,378.8,44.5Zm.9-24V22a1.2,1.2,0,0,1-.3.9v.4l.3.9v.4a.7.7,0,0,0,.4.7c.1,0,.2-.4.4-1.4s.8-.8.8-1.1a4,4,0,0,0-.6-1.3c-.2-.7-.3-1-.5-1Zm.8,3.9v.4a1.4,1.4,0,0,1-.5.9.9.9,0,0,1,.3.6c0,2.1.1,3.2.4,3.2h.1a7.8,7.8,0,0,0,.4-2.9c0-1.6-.2-2.4-.5-2.4h-.1C380.6,24.2,380.5,24.2,380.5,24.4Zm1.6-3.3v.2a2.7,2.7,0,0,0,1.9-1.1h-.1C383.4,20,382.9,20.4,382.1,21.1Zm.1,3.4v.2q1.7-.1,4.5-2.7h-.4a5.4,5.4,0,0,0-1.5.8C383.1,23.4,382.2,24,382.2,24.5Zm.4,1.7.2.2h.2V26h-.1Zm1.5-.3h0v.2h.3v-.7h-.1Zm1.2-.9h.1c.7-.6,1-1,1-1.3h-.1C385.9,23.7,385.6,24.1,385.3,25Zm.5-5.5h.1l.5-.3h-.1C386,19.3,385.8,19.4,385.8,19.5Zm1.1-.6v.2c2-.5,2.9-.8,2.9-1h-.1a5.7,5.7,0,0,0-2.9.9Zm.3,5.4c.9-.2,1.3-.4,1.3-.7h-.3C387.6,23.5,387.3,23.7,387.2,24.3Zm2.9-3.5V21h.3c.6-.1.9-.3.9-.4v-.2h-.4C390.4,20.5,390.1,20.6,390.1,20.8Zm1-3h0a3.1,3.1,0,0,1,1.5.7l.7.2h2c-.1-.2-.3-.3-.7-.3h-.9a3.8,3.8,0,0,0-1.9-.8C391.4,17.5,391.2,17.6,391.1,17.8Zm.1,4.3h.1c1,0,1.4-.1,1.4-.2l-.5-.2C391.5,21.9,391.2,22,391.2,22.1Zm2.1,1.2v.2h1.6l.2-.2v-.2l-.3-.3h-.3C393.7,23,393.3,23.1,393.3,23.3Zm1.3-2.7c0,.2.4.3,1.1.4a.9.9,0,0,0,.3-.6c0-.2-.3-.3-1-.5A.8.8,0,0,0,394.6,20.6Zm.5,27.1v.2c0,.2.6.4,1.7.4h.8a2.8,2.8,0,0,0-2-.6h-.2Zm.3-3v.4h.4l-.3-.3Zm.1-23.2h.4Zm1.3-1.1c0,.2.2.3.5.3h.3l.3-.2h0a.8.8,0,0,0-.6-.2H397Zm.1,1.7v.2a5,5,0,0,0,.8,1.7c0,.3.1.5.2.5l.3-.2V24a2.6,2.6,0,0,0-1.2-1.9Zm0,24.2a.7.7,0,0,0,.7.5c2.2-.1,3.3-.2,3.3-.4a1.7,1.7,0,0,0-1.5-.5C397.7,45.9,396.9,46.1,396.9,46.3Zm.7-7.5a2.1,2.1,0,0,1,.3,1.2h.1l.2-.8v-1A.5.5,0,0,0,397.6,38.8Zm.3-13.7v.3a16.2,16.2,0,0,0,.9,2.9v-1C398.6,25.9,398.3,25.1,397.9,25.1Zm0,12.7h.1c.2-.1.2-.3.2-.7v-.7h0C398.1,36.5,398,36.9,397.9,37.8Zm2.1,4.7v.3l.2.2h.1v-.2h0l-.2-.3Zm.1-1.1h0l.3-.7h-.1C400.1,40.7,400.1,40.9,400.1,41.4Zm0-3.2v.3h.2v-.3Zm.1-4.9h0l.2.8h.3C400.7,33.6,400.5,33.3,400.2,33.3Zm.4-8q.1,3.3.6,3.3h.2c-.2-2.2-.4-3.3-.7-3.3Zm1.1,13.2-.2,1.3v1.5h.1a3.4,3.4,0,0,0,.8-1.8h0C402.4,38.8,402.1,38.5,401.7,38.5Zm1.8,5.4v.2c1.9,0,2.8-.2,2.8-.4v-.2h-.8C404.2,43.6,403.5,43.7,403.5,43.9Zm.6,1.3v.2a.5.5,0,0,0,.5.3,1.4,1.4,0,0,0,1.3-.5h0c-.1-.2-.3-.3-.7-.3h-.3C404.4,44.8,404.2,44.9,404.1,45.2Z" transform="translate(-0.2 0)" style="fill:#b75326"/><path d="M424.3,15.6c1.7,0,3.8.8,6.3,2.2s3.1,2.7,3.1,3.3c1.7,3.5,2.5,5.6,2.5,6.2v.5a9.4,9.4,0,0,0-.9,2.9h-5.7l-1.7.2c-6-.5-10.1-.7-12.5-.7h-1.3a3.5,3.5,0,0,0-.7,1.5,4.8,4.8,0,0,1,.4,2.2c0,1.6.2,2.5.7,2.8v.3h0l-.4-.2v.2l.6.6a3.1,3.1,0,0,0,1.1,2c1.4,2.4,2.8,3.9,4.4,4.5a16.3,16.3,0,0,0,4.7.6,3.9,3.9,0,0,0,1.7-.7c.8-.3,2.4-1.6,4.7-4.1h0c0-.1-.3-.2-.8-.3v-.3a6.8,6.8,0,0,1,3.4-3.5l2.3,1.7a49.7,49.7,0,0,0,3.6,4.9v.3c-1.3,1.7-2.3,2.5-2.9,2.5h-.2c0-.9-.5-1.4-1.6-1.5s-1.2.7-2.8,2a13.8,13.8,0,0,1-4.8,2.1,33.5,33.5,0,0,1-5.7.9l-3.6-1.3c-1.9,0-3.7-1.1-5.4-3.2a7.3,7.3,0,0,1-1.7-2.7c0-.3-.5-2-1.4-5.1a15.5,15.5,0,0,1-.4-3.4h0a21.9,21.9,0,0,1,4.9-14.4,4.7,4.7,0,0,1,2.9-2.3l3.5-.7ZM410.4,31.3h-.1v.2h.1a2,2,0,0,0-.2.9v.3a4.4,4.4,0,0,0,.7,2h.1C411,32.7,410.8,31.6,410.4,31.3Zm0-2.3v.4c.1.2.1.4.3.4s.2-.2.3-.6l-.3-.2Zm.8-3.3a5.4,5.4,0,0,0-.8,2.5h.1c.2,0,.6-.7,1.1-2.2S411.4,25.7,411.2,25.7Zm.1,11h0V37h.2v-.2h-.3Zm.6,1.1h-.1c.2.6.5,1,.7,1h.1A1.5,1.5,0,0,0,411.9,37.8Zm1.8-8.2h1.1l-.2-.3h-.2A.7.7,0,0,0,413.7,29.6Zm.1-7.4h.1Zm0,3.9v.4h.1a2.3,2.3,0,0,0,.7-.7v-.2h-.3A.6.6,0,0,0,413.8,26.1Zm.6-1.6v.2c0,.5,3.7,1,11.2,1.5l.6.2h.8a13.6,13.6,0,0,0,3.3.9c0,.1.1.2.4.3a1.7,1.7,0,0,0,.4-1.1V25.3c0-.6-1-1.8-3.1-3.6a5.9,5.9,0,0,0-3.2-1.7l-2.1-.3c-3.4.7-5.7,1.5-6.7,2.5A16,16,0,0,1,414.4,24.5Zm0-1h0a.5.5,0,0,0,.3-.5h0A.5.5,0,0,0,414.4,23.5Zm.2,21.2v.2c0,.3.4.5,1.1.7l.2.3h0c-.5-.6-.8-1-1.1-1.1Zm.4-23.9V21h.1c.6-.2.9-.3.9-.5h-.3A1,1,0,0,0,415,20.8Zm.4,8.4v.4h.3v-.3h-.3Zm.7-11.3h0v.2h.1c.8-.2,1.2-.4,1.2-.7v-.3l-.2-.3h-.1C416.4,17.2,416.1,17.5,416.1,17.9Zm.8,10.7v.2a44.7,44.7,0,0,0,6.5.5h-1.2c0,.2.5.3,1.6.3s2.5-.1,2.5-.3S423.2,28.8,416.9,28.6Zm.6-2.1v.2a8.5,8.5,0,0,0,4.3.8h1.3v-.3Zm.1-6.1a9.5,9.5,0,0,1,2.5-1h-.7Q417.6,19.5,417.6,20.4Zm1-3.4h0a14.7,14.7,0,0,0,3.8-.7c.3-.1.5-.2.5-.3h-.2a11.7,11.7,0,0,0-4.1.9h0Zm.4,27.9h0c0,.2.5.4,1.3.6h.1a3.6,3.6,0,0,0-1.3-.5Zm2.2-26.6h0c0,.2.9.4,2.6.7h.1v-.2a2,2,0,0,0-1.7-.8H422C421.5,18,421.2,18.1,421.2,18.3Zm1.3,27.3v.2h.3v-.2Zm2.4,1.6h-1.6c-.4,0-.6,0-.6.2h0l.2.2H424a18.6,18.6,0,0,0,4.5-.6h0c0-.2-.3-.3-.7-.3h-.3A5.5,5.5,0,0,0,424.9,47.2Zm-1.1-29.9v.2a6.1,6.1,0,0,0,2.5.4h0v-.2c0-.1-.2-.2-.7-.3Zm1.2,1.4h0a25,25,0,0,0,3.7,2h.1l.7-.2h.4l-1.1-.4-1.2-.5a2,2,0,0,0-2-1.1h-.2C425.1,18.5,425,18.5,425,18.7Zm3.6,9.4v.2h.2v-.2Zm.1,1.7c0,.1.4.2,1.1.2h.6c0-.2-.4-.3-1.3-.3S428.7,29.7,428.7,29.8Zm0,14.1h.1c.3-.1.4-.4.6-.7h-.1C428.9,43.4,428.7,43.6,428.7,43.9Zm.4,2.7c.5,0,.8-.3,1.1-1H430C429.4,46,429.1,46.3,429.1,46.6Zm.7-24.9a.6.6,0,0,0,.6.5h.1v-.6l-.3-.3C429.9,21.3,429.8,21.4,429.8,21.7Zm.8,20.2h.2c.4,0,.7-.3.8-.8h0A1,1,0,0,0,430.6,41.9Zm.5-19.4a5.4,5.4,0,0,0,1,2.2h.4c-.3-1.3-.7-2-1.1-2h-.3Zm.9,15.9h.4a.6.6,0,0,0,.5-.2l-.2-.3h-.1A.5.5,0,0,0,432,38.4Zm.3,5.8h.3q.6-.6.6-.9h-.1C432.6,43.5,432.3,43.8,432.3,44.2Zm1-18.8V26c.2,0,.3-.2.3-.4v-.2h-.4Zm.2,17,.2.2c.6-.2.9-.5.9-.8h-.1C433.9,41.7,433.6,41.9,433.5,42.4Zm1.4-.6h.2a.5.5,0,0,0,.4-.6h-.1C435.1,41.4,434.9,41.6,434.9,41.8Zm2.2-.6H437c.2.5.3.8.5.8h.1l.2-.2h0A.7.7,0,0,0,437.1,41.2Z" transform="translate(-0.2 0)" style="fill:#b75326"/><path d="M443.9,15.7c3.1.3,4.6.9,4.6,1.6l.3.4v.8l.7.8a1.6,1.6,0,0,0-.7,1.1c.1.2.2.3.4.3h0l-.4.4h-.4a2.3,2.3,0,0,0-1-.5q-3.3.3-.9,5.4c1.2,4.2,2.2,6.8,3.1,7.8,2.2,5.2,3.8,8,4.7,8.2h.1c.2,0,.7-1,1.4-3.1a55.1,55.1,0,0,0,3.7-7.8,8.5,8.5,0,0,0,1-2.4l-.2-.7c3-5.5,2.8-7.9-.4-7.2h-.2c-.2-3.6.2-5.4,1.1-5.4s3.7-.7,7.8-.7c1.9,0,2.8.7,2.8,2.1a4.5,4.5,0,0,1,.7,1.5,2.4,2.4,0,0,0-1,1.9l-2.3.4a41.3,41.3,0,0,0-2,4.3c-.4,1-1.8,3.8-4.4,8.4l-1.7,5.1c-2.4,5.1-3.7,7.7-3.8,7.7s-.1.1-.1.4v.5h0c0,.7-.5,1-1.6,1.1l-1.2.7a4.2,4.2,0,0,1-2.2-.9q-1.5-2.2-3-4.2c-.5-1.8-1-2.7-1.4-2.7a15.5,15.5,0,0,1-1-3.1,33.4,33.4,0,0,0-2.4-3.8c0-.2.1-.3.3-.5v-.3l-1-2.5c-.6-2.2-1.1-3.4-1.4-3.6-1.3-3.9-2.3-5.8-2.8-5.8s-.2.2-.8.3a4.2,4.2,0,0,1-2.4-1.1h0v-.5c0-.1-.2-.3-.8-.6h-.1q1.5-.3,1.5-.6l-.9-.5h-.1v-.2l.4-.6a.9.9,0,0,0-.4-.6v-.2C440.3,16,443,15.7,443.9,15.7Zm-6.5,5.2.2.2h.8v-.2l-.7-.2h-.1Zm1.5-2.2V19h.3c.6-.1.9-.3.9-.4l-.2-.2h-.8Zm2.3,3.7v.2c.7.4.8.3.3-.2Zm.9-5.7c0,.1.3.2,1,.2h2.3a5.4,5.4,0,0,0-1.9-.4h-.7C442.4,16.4,442.1,16.5,442.1,16.7ZM444,27.3c.1.5.2.8.3.8h.1c-.1-.4-.2-.6-.4-.6Zm4.1,6.6h0c.5,1.7,1,2.5,1.4,2.5h0c-.5-1.6-.9-2.4-1.2-2.5Zm2.1,8.2v.2q0,.6,1.2,1.2h.1a4,4,0,0,0-1.1-1.2Zm1.4,3.2h0l.2.3h.2l-.2-.3Zm.3-3.2h0a2.4,2.4,0,0,0,.9,1.6h.3a4.8,4.8,0,0,0-1.1-1.5Zm.2,2.2a2,2,0,0,0,1.5,1.1v-.2c-.4-.7-.8-1-1.4-1Zm1.9-.7c.2.8.5,1.2,1,1.2a3.3,3.3,0,0,0,.7-1.6V43h-.1c-.1.2-.7.3-1.6.5Zm2.8.4-1.6,2.8V47h0c.9,0,1.4-.8,1.6-2.4.1,0,.2-.2.2-.6Zm1.4-7a28.6,28.6,0,0,0-2.2,4.7h.1a14.2,14.2,0,0,0,2.1-4.1.7.7,0,0,0,.2-.6h-.2Zm-1.1,6.6h.1c.2,0,1.2-2,3-5.8v-1h-.1a11.1,11.1,0,0,0-1.8,3.5A9.7,9.7,0,0,0,457.1,43.6ZM460,17.7v.4c0,.5.2.8.7.8h.2c-.3-1-.6-1.5-.7-1.5A.6.6,0,0,0,460,17.7Zm.6-1.6h-.1v.3l.3.3h0q0-.3,7.2-.6h.2v-.2c0-.1-.4-.2-1-.2A38.6,38.6,0,0,0,460.6,16.1Zm.2,16.2h.2c.2,0,.3-.2.3-.5h0l-.2-.3C460.9,31.7,460.8,31.9,460.8,32.3Zm.6-.7.2.2.2-.2v-.3h-.1Zm.2-13.6h.3c.2-.1.4-.2.4-.3h-.4Zm.4,12.6h0a2.5,2.5,0,0,0,.8-1.4h0C462.3,29.2,462,29.6,462,30.6Zm.9-2.6v.4h.2a1.8,1.8,0,0,0,.6-1.3v-.2h-.2A1.1,1.1,0,0,0,462.9,28Zm1.1-2.6v.2h.3c.2,0,.4-.4.6-1.3v-.2h-.1C464.6,23.9,464.3,24.4,464,25.4Zm.9.2v.2h.2v-.2Zm.3-1.9v.4h.1c.3-.1.5-.6.8-1.4a1.2,1.2,0,0,1,.9-.3h.1v-.4l-.2-.2v-.2h.3a1,1,0,0,0-.4-.9C466.2,20.5,465.7,21.5,465.2,23.7Zm3.3-5.2h0l.8.2c.7,0,1-.1,1-.2s-.3-.3-.9-.3h-.5C468.6,18.3,468.5,18.4,468.5,18.5Z" transform="translate(-0.2 0)" style="fill:#b75326"/><path d="M486.4,15.6c1.7,0,3.8.8,6.3,2.2s3.2,2.7,3.2,3.3c1.6,3.5,2.4,5.6,2.4,6.2v.5a10.8,10.8,0,0,0-1,2.9h-5.6l-1.7.2c-6-.5-10.1-.7-12.5-.7h-1.3a4.3,4.3,0,0,0-.8,1.5A4.8,4.8,0,0,1,476,34c0,1.6.2,2.5.7,2.8v.3h0l-.4-.2v.2l.6.6a3.1,3.1,0,0,0,1.1,2c1.3,2.4,2.8,3.9,4.4,4.5a15.8,15.8,0,0,0,4.7.6,5.1,5.1,0,0,0,1.7-.7c.8-.3,2.4-1.6,4.7-4.1h0c0-.1-.3-.2-.8-.3l-.2-.3a7,7,0,0,1,3.5-3.5l2.2,1.7c1,1.4,2.2,3.1,3.7,4.9v.3c-1.4,1.7-2.3,2.5-2.9,2.5h-.2c0-.9-.6-1.4-1.7-1.5a14.7,14.7,0,0,0-2.7,2,15.5,15.5,0,0,1-4.9,2.1,30.9,30.9,0,0,1-5.7.9l-3.5-1.3c-1.9,0-3.8-1.1-5.4-3.2a7.3,7.3,0,0,1-1.7-2.7c0-.3-.5-2-1.4-5.1a15.5,15.5,0,0,1-.4-3.4h0a21.9,21.9,0,0,1,4.9-14.4,4.4,4.4,0,0,1,2.9-2.3l3.5-.7ZM472.5,31.3h0v.2h0c0,.2-.1.5-.1.9v.3a4.1,4.1,0,0,0,.6,2h.2C473.2,32.7,473,31.6,472.5,31.3Zm0-2.3v.4c0,.2.1.4.2.4s.3-.2.3-.6l-.2-.2Zm.8-3.3a5.4,5.4,0,0,0-.8,2.5h.1c.3,0,.6-.7,1.1-2.2S473.5,25.7,473.3,25.7Zm.1,11h0l.2.2h.1v-.2h-.3Zm.7,1.1H474c.2.6.4,1,.7,1h0A1.4,1.4,0,0,0,474.1,37.8Zm1.7-8.2H477l-.2-.3h-.2A.9.9,0,0,0,475.8,29.6Zm.1-7.4h.2Zm0,3.9v.2l.2.2h0a2.7,2.7,0,0,0,.8-.7v-.2h-.3C476.3,25.6,476.1,25.8,475.9,26.1Zm.6-1.6v.2c0,.5,3.8,1,11.2,1.5l.7.2h.7a15.2,15.2,0,0,0,3.4.9c0,.1.1.2.4.3a2.5,2.5,0,0,0,.4-1.1V25.3c0-.6-1.1-1.8-3.2-3.6a5.3,5.3,0,0,0-3.2-1.7l-2-.3c-3.5.7-5.7,1.5-6.8,2.5A10.6,10.6,0,0,1,476.5,24.5Zm.1-1h0a.5.5,0,0,0,.3-.5h0A.5.5,0,0,0,476.6,23.5Zm.2,21.2v.2c0,.3.4.5,1,.7l.3.3h0a5.3,5.3,0,0,0-1.1-1.1Zm.4-23.9V21h.1c.6-.2.8-.3.8-.5h-.3C477.6,20.4,477.4,20.6,477.2,20.8Zm.3,8.4v.4h.3v-.3h-.3Zm.7-11.3h0l.2.2h.1c.8-.2,1.2-.4,1.2-.7v-.3l-.2-.3h-.2C478.6,17.2,478.2,17.5,478.2,17.9Zm.8,10.7v.2a48.2,48.2,0,0,0,6.6.5h-1.3c0,.2.6.3,1.6.3s2.6-.1,2.6-.3S485.3,28.8,479,28.6Zm.7-2.1v.2a8.3,8.3,0,0,0,4.2.8h1.4v-.3Zm.1-6.1a9.5,9.5,0,0,1,2.5-1h-.7Q479.8,19.5,479.8,20.4Zm.9-3.4h.1a14.1,14.1,0,0,0,3.7-.7q.6-.2.6-.3h-.2a11.7,11.7,0,0,0-4.1.9h-.1Zm.5,27.9h0c0,.2.4.4,1.3.6h.1a3.6,3.6,0,0,0-1.3-.5Zm2.2-26.6h0c0,.2.8.4,2.5.7h.1v-.2a1.8,1.8,0,0,0-1.6-.8h-.3C483.6,18,483.4,18.1,483.4,18.3Zm1.3,27.3v.2h.2v-.2Zm2.3,1.6h-1.5c-.4,0-.6,0-.6.2h0l.2.2h1.1a18.6,18.6,0,0,0,4.5-.6h0c-.1-.2-.3-.3-.7-.3h-.3A6,6,0,0,0,487,47.2Zm-1.1-29.9v.2a6.7,6.7,0,0,0,2.5.4h.1v-.2c0-.1-.2-.2-.8-.3Zm1.2,1.4h0a22.8,22.8,0,0,0,3.8,2h.1l.6-.2h.4l-1-.4-1.3-.5c-.2-.7-.9-1.1-2-1.1h-.1C487.3,18.5,487.1,18.5,487.1,18.7Zm3.7,9.4v.2h.2v-.2Zm.1,1.7c0,.1.3.2,1,.2h.7c0-.2-.5-.3-1.3-.3S490.9,29.7,490.9,29.8Zm0,14.1h.1a1.3,1.3,0,0,0,.5-.7h0C491.1,43.4,490.9,43.6,490.9,43.9Zm.4,2.7c.4,0,.8-.3,1-1h-.1C491.6,46,491.3,46.3,491.3,46.6Zm.6-24.9a.8.8,0,0,0,.7.5h0l.2-.2v-.4l-.3-.3C492.1,21.3,491.9,21.4,491.9,21.7Zm.9,20.2h.2c.4,0,.6-.3.8-.8h0A1,1,0,0,0,492.8,41.9Zm.5-19.4c.4,1.3.7,2.1,1,2.2h.3c-.3-1.3-.6-2-1-2h-.3Zm.9,15.9h.4c.3,0,.4-.1.4-.2l-.2-.3h-.1A.5.5,0,0,0,494.2,38.4Zm.3,5.8h.2c.4-.4.7-.7.7-.9h-.1C494.8,43.5,494.5,43.8,494.5,44.2Zm.9-18.8v.4l.2.2c.2,0,.3-.2.3-.4v-.2h-.5Zm.3,17v.2c.7-.2,1-.5,1-.8h-.1C496.1,41.7,495.8,41.9,495.7,42.4Zm1.4-.6h.2a.5.5,0,0,0,.4-.6h-.2A.7.7,0,0,0,497.1,41.8Zm2.2-.6h-.1c.1.5.3.8.5.8h.1v-.2h0Q499.8,41.2,499.3,41.2Z" transform="translate(-0.2 0)" style="fill:#b75326"/><path d="M526.5,17.8c1.6,0,3,1.2,4.1,3.4.2,0,.5.3.9.8l.8,4.6c-.4.5-1.4.7-3.3.7h-.6c-1.6-.2-2.3-.7-2.3-1.5a4.4,4.4,0,0,0-1.4-2.4c-.2-.2-1-.3-2.7-.3a17.1,17.1,0,0,0-5.7,1.2,25.8,25.8,0,0,0-3.1,3.9c.3,7.4.4,11.9.3,13.2s.3.6.8.6h1.5c.7,0,1,.1,1,.3h0l.2.8v3.4l-.4.5-2.9.3h-.2l-1.3.4c-4.7-.2-7.1-.3-7.1-.6s-1.2-.3-1.2-1.1a14.2,14.2,0,0,1-.1-2.3c0-.7.8-1.3,2.4-1.5,0-.4.5-.5,1.6-.5h.2l-.4-16.9c0-1-.2-1.5-.7-1.5h-.4a8.6,8.6,0,0,0-2.5.6h-.1c0-.1.2-.2.5-.3h0c-.4,0-.6-1.2-.6-3.5-.1,0-.2-.4-.2-1.1a8.3,8.3,0,0,1,5.1-1.9h1.6a15.4,15.4,0,0,1,3.1.6v.2a2.2,2.2,0,0,0-.6,1.2v.4C516.1,17.6,520.7,17.2,526.5,17.8ZM504.5,45l-.2.2v.3h.4v-.4Zm.6-25.9a1.4,1.4,0,0,0,1.1.4h0V19l-.3-.3C505.4,18.8,505.1,18.9,505.1,19.1Zm.7,26.8h0q0,.3,1.8.3h2.3c0-.2-1.1-.3-3.3-.4Zm.3-24.4h.2c.4,0,.6-.1.7-.3h-.2C506.4,21.2,506.1,21.3,506.1,21.5Zm0,23.5h3.5v-.2h-3.4Zm1.6-27.2v.3l.4.4h.5l-.7-.6Zm2.6,9.3v.4a2.5,2.5,0,0,1,.3,1.3c0,.2-.1,1-.2,2.5l.2,2.5h0c.2,0,.4-1.9.5-5.7.1,0,.2-.4.2-1.3s-.2-.6-.3-.6h-.2A1.1,1.1,0,0,0,510.3,27.1Zm.5-3.2-.3,1.2a.8.8,0,0,0,.4.7h.1q.2,0,.3-.9l-.3-1Zm.6,21.4v.2h.9l.3-.3c0-.1-.1-.2-.3-.2S511.4,45.1,511.4,45.3Zm.4-26.1h0v.2l.3-.3V19H512Zm.1-1.2v.3h.3l.2-.2h-.5Zm0,20.7v.5h.2l.3-.3v-.3l-.2-.2h-.1Zm.1,1.2v.2h.1v-.2Zm1.1-18v.2l.2.2h.2l.2-.2v-.2h-.6Zm4.3-1.4h0c.3,0,.8-.6,1.4-1.8v-.3h-.1A1.6,1.6,0,0,0,517.4,20.5Zm2.3-1.4.2,1.3h.6V18.9h-.2C519.8,18.9,519.7,19,519.7,19.1Zm1.4-.4h0l.2.2h.6a.6.6,0,0,0,.5-.2h-1.3Zm2-.2v.2h.4l.3-.3h-.2C523.3,18.3,523.1,18.4,523.1,18.5Zm1.6.4h.3v-.2h-.2Zm.6,3.6h.2c.3-.1.7-.6,1.3-1.5h-.3a1.3,1.3,0,0,0-1,1.3C525.4,22.1,525.3,22.2,525.3,22.5Zm1.7,1.6v.2h.1l.3-.3h-.1Zm.1-5.4h0v.2h.3v-.2h0v-.2h-.3Zm1.9,2v.2a1,1,0,0,0,.8.5h.1v-.2a1,1,0,0,0-.8-.5Z" transform="translate(-0.2 0)" style="fill:#b75326"/><path d="M567.7,0a3.6,3.6,0,0,1,2.2.7,22.6,22.6,0,0,0-1,6.3l-.5,5.6c0,.3.8.5,2.4.5,4.9,0,7.3.2,7.3.6l.8.4a2.6,2.6,0,0,0-.7,1.2v.2l.2,1.2-.8,2.8q0,.3.9,1.2h0a7.9,7.9,0,0,1-2.4.5c-.6-.1-1-.2-1-.3h1l.3-.2v-.2h-7.9a16.8,16.8,0,0,0-.6,3.5h-.1l-.8-.9-.2.6v.4c.1,1.2.2,1.8.4,1.9s.3-.4.5-1.2v-.4h.1v.2l-.5,5.9c.4,6.5.8,9.8,1.1,9.8s.7,1.9,1.6,1.9a3.3,3.3,0,0,0,1.7.4h4.7c.2,0,.4,1.1.5,3.3s-.5,1.9-2.1,1.9h-4.8a9.8,9.8,0,0,1-6.5-2.1c-1.2-.5-1.8-1.7-1.8-3.8s-.3-4.9-.4-9.8l1-5.4V22.3c-.2-1.7-.7-2.5-1.4-2.5h-4a4.5,4.5,0,0,0-1.9.5c-.5-.1-1-.6-1.6-1.7l1.3-5.5,7.5-.3a3.5,3.5,0,0,1,.9-2q.2-9.6.6-9.6V.9c0-.1-.1-.2-.3-.2h0C563.6.4,565,.2,567.7,0ZM555.3,13.7a.5.5,0,0,0,.5.5h.9l4.7-.3h0c0-.3-1-.4-3-.4h-2.6C555.5,13.5,555.3,13.6,555.3,13.7Zm.8,1.4v.3q0,.6,4.2.6c1.3,0,2-.1,2-.3s-1.8-.7-5.4-.7h-.8Zm.4,2.2c0,.2.1.2.3.2h3.3a8.5,8.5,0,0,0-2.8-.3h-.5Zm0,.8h0c0,.3,1.6.4,4.7.4h.5v-.2Zm5.7,13.5.3,1.7v2.8h.1c.3,0,.4-.9.4-2.9V31.8c.2.1.1.2-.1.2A.9.9,0,0,1,562.2,31.6Zm2,8v1.3h0l.2-.2v-1h-.3Zm.3,4.2v.3c.1,1,.6,1.5,1.3,1.5h.8c0-.2-.4-.3-1.2-.5l-.8-1.1Zm.5-22.5v.5h.2c.1,0,.2-.1.2-.4v-.6h0C565.1,20.9,565,21.1,565,21.3Zm.2,1.2v1h.2v-.8l-.2-.2Zm.1-20.8V2h.2V1.8Zm0,25.1v.7h.2v-.7Zm.3-22.9a5.1,5.1,0,0,0-.2,1.6v.3h.2V3.9Zm.2,2.8-.2,6.1h.3c.2,0,.4-.5.4-1.5V7l-.2-.3Zm.3,29.8v.9c0,.3.1.5.3.5h.1c.1,0,.2-.2.2-.4s-.2-1-.4-1Zm.1,7h-.1v.4a1.2,1.2,0,0,0,.5.5h.4C567,43.9,566.7,43.6,566.2,43.5Zm.6-4.4-.3.8c0,.9.2,1.5.6,1.7l.2-.3v-.5C567.2,39.8,567,39.2,566.8,39.1Zm.2-16.9h0l.2.3h.1v-.2l-.3-.2ZM567.7,2h0l.2,1.5h.2a2.8,2.8,0,0,0,.7-1.3V2l-.3-.2H568Zm1.5,13.7h0c0,.2.8.4,2.3.4h1l1.4.3h.2c.3,0,.5-.1.5-.4h-.1l-4.7-.4h-.4Zm.9,2.8h0c.1.2.8.4,2.2.6h.1a3.3,3.3,0,0,0-1.9-.6Zm3.6-4.6H572V14a7,7,0,0,0,2.3.4h1.4c.1,0,.1-.1.1-.2a.6.6,0,0,0-.7-.7h-.6ZM573,44.7h.2c1.6-.3,2.3-.6,2.3-.9h-.1Q573,44.4,573,44.7Zm.6-25.6a8.4,8.4,0,0,0,2.9.5l.3-.2V19l-.2-.2h-1.4C574.1,18.8,573.6,18.9,573.6,19.1Zm2.2-2h0l.3.3h.2a.9.9,0,0,0,.8-.4l-.2-.2h-.8Zm.3-2.8h0v.2c.4,0,.7-.1.7-.3h-.7Z" transform="translate(-0.2 0)" style="fill:#b75326"/><path d="M599.5,17.9h.5a30.3,30.3,0,0,1,6.6,4.2c2,1.8,3.1,3.1,3.1,4h-.1a1.4,1.4,0,0,0-1-.8h-.1a.2.2,0,0,0-.2.2,25.8,25.8,0,0,0,1.2,2.4h.1c.1,0,.2-.2.3-.7h.1a8,8,0,0,1,.4,1.8l.5,1.3v.8l.2,2.2a29.4,29.4,0,0,0-.8,4c-.2.8-2.1,3.8-5.7,8.8a6.8,6.8,0,0,1-4.9,2.3,26.3,26.3,0,0,1-4.9.4h-1.1c-.8,0-2.6-.6-5.5-1.8-3.8-3.4-5.6-6-5.6-7.7s-1-2.2-1.4-3.1a31.6,31.6,0,0,1,1.7-5.3,5.1,5.1,0,0,1,1.4-4c1.8-4.2,4.3-6.8,7.3-8.1a19.6,19.6,0,0,1,6.3-1.4ZM582,35.8c0,.4.1.6.2.6h.1v-.7h0Zm1.4,2.9v.5c.1,1.3.4,2.1,1.2,2.3h0c-.3-1.9-.6-2.9-1-2.9Zm.6-9.8c.3,0,.4-.1.6-.4h0C584.2,28.4,584,28.6,584,28.9Zm1.3-2.1h0c.2,0,.3-.2.3-.5h-.1C585.3,26.4,585.3,26.6,585.3,26.8Zm.1,7.7h.2v-.2h-.1Zm.3,8.3h0a.8.8,0,0,0,.5.5h.2a.8.8,0,0,0-.4-.7h-.1Zm.9-6v.4c.5,1,1.1,2.2,1.9,3.6s.8,1,2.4,1.7,2.1,1.5,4.1,2h1.2a20.1,20.1,0,0,0,4-1.1l2.2-1.9c2.3-2.5,3.4-4.5,3.4-6.2v-.6a8.2,8.2,0,0,1-.4-3.2,18.7,18.7,0,0,1,.2-2.7c0-.3-.8-1-2.3-2.2a7.7,7.7,0,0,0-3.7-3h-.7q-7.2.3-7.2,1.2a9.6,9.6,0,0,0-2.3,3.2c-1.3,1.3-1.9,2.2-1.9,2.7A35,35,0,0,0,586.6,36.8Zm.2,8V45a4,4,0,0,0,2.9.9h.7a10.3,10.3,0,0,0-3.2-1Zm1-18.4v.4h.1c.5-.4.8-.8.8-1.1h-.3A1.6,1.6,0,0,0,587.8,26.4Zm.6-4.2v.2a35,35,0,0,0,3.8-2.6l.4-.2h.4c2.7-.3,4.1-.6,4.1-.8h-.9a10.7,10.7,0,0,0-7.7,3.2ZM589,25v.2h0Zm0-1.8c.4,0,.7-.2,1.1-.7v-.2C589.4,22.5,589,22.8,589,23.2Zm1.2,23.2h.9v-.2h-.2C590.4,46.2,590.2,46.3,590.2,46.4Zm1.2-.8h0c0,.3.6.4,1.8.4h.1A4.1,4.1,0,0,0,591.4,45.6Zm1.9-24.5v.2a22.2,22.2,0,0,0,4.7-.7l-.5-.2h-.1A8.4,8.4,0,0,0,593.3,21.1Zm.1,2.1h0v.2h.8l4.4-1h0l-1.2-.2C594.7,22.4,593.4,22.8,593.4,23.2Zm4,23.9h0q0,.3.9.3c.7,0,1.1-.1,1.1-.3h0a1,1,0,0,0-.4-.5h-.6A1,1,0,0,0,597.4,47.1Zm1.1-28.4c.1.6.6.8,1.3.8h.8v-.2c0-.5-.5-.8-1.3-.9Zm.5,1.9h0l.2.2-.6.6h0c-.1-.2.2-.4,1-.8Zm.6.1h-.1a3.5,3.5,0,0,0,1.9.9h0A2.9,2.9,0,0,0,599.6,20.7Zm1.1,26.8h.1c.7-.3,1.1-.5,1.1-.7h-.1A1.9,1.9,0,0,0,600.7,47.5Zm1-23.9a.9.9,0,0,0,.8.6V24h0c0-.3-.1-.5-.5-.5S601.7,23.5,601.7,23.6Zm.9-3.4h0a1.9,1.9,0,0,0,1.4.8c0-.4-.4-.8-1.1-1h-.3Zm1.1,2.6h0a3.1,3.1,0,0,0,1.8,1.5h.3A8.7,8.7,0,0,0,603.7,22.8Zm1.1,1.9h0a3.3,3.3,0,0,0,1.9,1.4h.2v-.2h0a2.4,2.4,0,0,0-1.9-1.1Zm2.9,15.1h0c.3,0,.6-.3.8-1h-.2C608.1,38.8,607.9,39.1,607.7,39.8Zm1-1V38h.1c.3-.1.3.2.3.9h-.5Zm.4-3.5c.1,1.3.2,2,.4,2h.1a3,3,0,0,1,.5-1.5v-.2l-.6-.9h-.1C609.2,34.7,609.2,34.9,609.1,35.3Zm.9-4.2v.5l.3-.2v-.3H610Z" transform="translate(-0.2 0)" style="fill:#b75326"/><path d="M617.4,16l4.2,1.4a6.4,6.4,0,0,0,.8,2V20c-.4,2.6-.5,8-.3,16.5a2.2,2.2,0,0,0,1.4,2.3l.5,1.1c0,.2,1.4.5,4.1.6h.2c.9,0,1.9-.9,3.2-2.8a10.7,10.7,0,0,0,2-2.3h.3v-.7a6.8,6.8,0,0,0,.6-1.6h0v-.6l1.2-11.7V19.6l-.2-.6h0a1.6,1.6,0,0,0,.7-1.5c0-.4.1-.7.4-.7l1.5.7h1.3c1.7,0,2.8.3,3.5,1v.3c-.4,0-.7.1-.7.2l.7,1.5h.1q.1-.9.3-.9a4.1,4.1,0,0,1,.3,1l-.7,7.7h.1a61.4,61.4,0,0,0-.8,7.4v1.8c0,2.7.1,4,.3,4h.3a15,15,0,0,0,3.6-.5c.2,0,.6.3,1.1.8-.2,3.6-.4,5.5-.7,5.5l-.7-.6-1.9.2-6.9-.2c-.3,0-.7-.8-1-2.4a1,1,0,0,1-.4-.8V43h-.2a19,19,0,0,0-3.7,1.7c-.1.2-1.5.9-4.2,1.8a11.8,11.8,0,0,1-2.5,1,12,12,0,0,0-3-1.1c-2.6-2.5-4.2-4.8-4.8-6.8s-1.5-4.7-1.5-9.7l.7-7.2v-.2a22.6,22.6,0,0,0-4.3-.8,8.2,8.2,0,0,1-.4-3.1c0-1.1.2-1.7.7-1.7S614.2,16.1,617.4,16Zm-4.5,2.9v.2h.9v-.2Zm0,1.9.2.2h.4l.2-.2-.2-.2h-.4Zm.3-1.3v.2c.1.2.3.3.7.3h.1l-.3-.4Zm1,.8h.1l.5-.3v-.2h-.3Zm1.1,0c0,.3.7.7,2,1.1h.6c.2,0,.3-.2.3-.4a3.7,3.7,0,0,0-1.7-1H616C615.6,20,615.4,20.1,615.3,20.3Zm.9-3.5V17h.4v-.2h-.4Zm1.1,6.7v.6l.9-.3V22.4H618C617.9,22.3,617.6,22.7,617.3,23.5Zm0,10.8v.2c0,1.6.9,4.1,2.6,7.5.3.3.5.4.7.4V42l-1.8-4.9c-.6-1.9-1-2.9-1.3-3h0Zm.3-17h0c0,.1.3.3.9.5s.1.9.2.9h.4c1,0,1.6-.2,1.7-.5h0c0-.3-.6-.5-1.8-.7s-.3-.2-.7-.3h-.7Zm.5,13.1-.2.3h0l.2.2.2-.2v-.3Zm1.5,2.2V33a1.6,1.6,0,0,0,.8,1.3h.2c0-1.5-.1-2.3-.4-2.3H620A.5.5,0,0,0,619.6,32.6Zm.4-11.8V22h.1c.3-.1.4-.3.4-.7v-.7c0-.3-.1-.5-.2-.5h-.1C620.1,20.2,620,20.4,620,20.8Zm.7,15.9h0c.2.2.3.3.5.3h0C621.2,36.8,621.1,36.7,620.7,36.7Zm1.2,4.4v.2a.5.5,0,0,0,.5.3v-.3l-.2-.2Zm3.6,4.1H625l-2.5-.2h-.1l-.2.2h0c0,.3,1.1.8,3.4,1.2a12.8,12.8,0,0,0,4.1-1.5h.1v-.2h-.4A16,16,0,0,1,625.5,45.2Zm-3-5.3h0v.2h.1V40Zm1,1.7h0c0,.5.7,1.1,2.1,2a10.1,10.1,0,0,0,2.5-1.2h0a26.3,26.3,0,0,1-4.5-.7Zm3.2,2.2V44h.7a6.4,6.4,0,0,0,3.2-1.7v-.2h-.3A19.8,19.8,0,0,0,626.7,43.8Zm5.1-5h.2a8.8,8.8,0,0,0,1.4-2.2h-.1A8.3,8.3,0,0,0,631.8,38.8Zm3.1-1.7c-.2.3-.4.5-.4.7l.3.2h.1l.3-.2v-.4Zm.5,3.8h.2l.3-.4v-.2A.5.5,0,0,0,635.4,40.9Zm1.2-22.8c0,.4.3.6,1,.6h.5c0-.2-.5-.3-1.4-.4Zm.3,15.5v.6l.3.2.5-.5v-.3l-.2-.2h-.3Zm.1-13.3h0a.6.6,0,0,0,.5.2h.1c.2,0,.4-.1.4-.2h0c0-.1-.2-.2-.6-.2h-.2ZM637,41v.7c0,2.9.2,4.4.5,4.4h.2c.3-.1.4-.2.4-.4a20,20,0,0,1-.5-4.5l-.4-.4Zm.2-3v.4h.2v-.2Zm0-5.3.4.3c.1,0,.3-.5.4-1.2h-.2A1.1,1.1,0,0,0,637.2,32.7Zm.9-5.9v.3h.1c.4,0,.6-.5.6-1.4s-.1-.6-.2-.6S638.3,25.7,638.1,26.8Zm.3,10v.4a12.1,12.1,0,0,0,.3,2.5h.2a14.1,14.1,0,0,0,.2-1.8v-.4c0-.5-.2-.7-.6-.7Zm0-.8h0l.2.2.2-.2v-.2h-.3Zm1.2,8.8h0c.1.2.4.3.8.3h.8c0-.2-.3-.3-.8-.4h-.6Zm.8-16V29c.1.2.1.3.2.3h.1v-.5Zm.8,11.1-.7.9V41h.7l.2-.2v-.3A.8.8,0,0,0,641.2,39.9Zm1.7,2.9V43h.7c.9,0,1.3-.2,1.3-.4h0Zm1.7.8V44h.3v-.2h0c0-.1,0-.1-.2-.1Z" transform="translate(-0.2 0)" style="fill:#b75326"/><path d="M667.8,12.3a5.5,5.5,0,0,0,2.5.9c.8,0,2.5,1,5.1,2.9l.9.2h.3l1.1.6a6.5,6.5,0,0,1,1.9,1.8h0c0,.3-.3.6-.7,1a16.8,16.8,0,0,1-2.6,4v.9a5.8,5.8,0,0,0-1.8.4c-.3,0-.5-.3-.7-.8s-1.8-1.3-1.8-1.8l.8-2c0-.8-1.4-1.3-4.1-1.7l-4-.2a14.6,14.6,0,0,0-5.7,1.6c-1.4.7-2.4,2.2-3.1,4.4s-1.1,3.2-1.5,3.5l-.6-.5a2,2,0,0,0-.5,1.4h.1l.8-.4c.1,0,.2.2.2.4l-.4,2.8c.2.1.6,1.3,1.2,3.7l-.2.4v.2a6,6,0,0,1,.5,2.1c.3,1.2,1.5,2.3,3.5,3.3l3.3,2.4a19.6,19.6,0,0,0,9.7-2.4c2.7-2.4,4.1-4,4.1-4.8l-.2-.9h0a22.9,22.9,0,0,1,2.7-3,3.8,3.8,0,0,1,1.1.9v.2h-.9V34c1.5.2,2.3.6,2.3,1.3a17.1,17.1,0,0,1,2.1,3.9q.3,0,.6,1.5c.5.2.8.4.9.7s-.2.5-.8.6a6.1,6.1,0,0,0-2.6,2l-2.3-2.2L675.7,44a23.6,23.6,0,0,0-3.1,2l-6.4,2.1h-1a21.7,21.7,0,0,1-5.9-1.2c-2.7-1.2-4.3-2.1-4.5-2.8-3.5-4.1-5.2-7.3-5.2-9.6l-.2-2.1a26.8,26.8,0,0,0,.5-5.4l1.7-3.9c0-1.2.7-2.6,2.3-4.5s3.1-3.6,6.7-5.2a30.2,30.2,0,0,1,7.2-1.1ZM651.6,31.9v.2a.7.7,0,0,0,.5.7c.3,0,.3-.7.1-2v-.3H652C651.9,30.5,651.7,30.9,651.6,31.9Zm2.3-8.1-1.1,1.9V26l.2.3h.2c.2,0,.5-.7.9-2v-.5Zm-.5,9.2a1.3,1.3,0,0,0-.3,1,3.1,3.1,0,0,0,.6,1.2c.2.7.5,1,.9,1h0a6.7,6.7,0,0,0-1.1-3.1Zm-.2,4.9v.3a.9.9,0,0,0,.8.6,1.2,1.2,0,0,0-.6-.9Zm.3,2.9h0c0,.6.7,1.3,2,1.9h.5c0-.5-.7-1.2-2.2-2Zm.2-18.3h.3c.4-.4.7-.7.7-1v-.2h-.2A1.4,1.4,0,0,0,653.7,22.5Zm.9,16.7v.4c.2.3.4.5.7.5h.1v-.2C655.2,39.5,654.9,39.2,654.6,39.2Zm1.1-19.1h.1c.6-.4.9-.7.9-1S655.9,19.4,655.7,20.1Zm.1,23.7c.3.6,1.8,1.5,4.4,2.8l1.3.4h.1v-.3c-2.6-1.1-4.2-2-4.8-2.8a.9.9,0,0,0-.6-.3h-.3C655.8,43.6,655.8,43.6,655.8,43.8Zm.5-27.1v.2h.2l.3-.3h-.3Zm1.2-.6,3.1-1.3,2.1-.9c.7-.1,1.1-.3,1.1-.4h0q-2.5,0-6.3,2.4h0Zm.4,27.5h0c0,.3.7.7,2.2,1.2l3.1,1h.6l.2-.2v-.2h0a3.3,3.3,0,0,1-2.3-.9l-1-.3h-.1l-.4.3h-.1a6.6,6.6,0,0,1-2-.9Zm.9-25.2h.2l.3-.2-.2-.2ZM661,17v.2h.3c.9-.2,1.4-.4,1.4-.6l-.2-.2h-.1C661.5,16.7,661,16.8,661,17Zm2.4-1.3V16l.7.2c2.4,0,3.8-.2,4.1-.7l-1-.2A18.4,18.4,0,0,0,663.4,15.7Zm1.1,1.9h.7c1.3,0,2-.2,2.1-.4v-.2h-.8C665.2,17.1,664.5,17.3,664.5,17.6Zm.8,29.7h0c0,.3.4.4,1.2.4v-.2h0l.2-.2-.2-.3h-.4C665.5,47.1,665.3,47.2,665.3,47.3Zm3.2-30.1h0l1.6.3h0l-1.1-.3Zm.2,27.4h.1c.4,0,.6-.1.7-.3h0C668.9,44.4,668.7,44.5,668.7,44.6Zm0-28.9v.2c0,.2.4.3,1.3.4v-.2c0-.3-.2-.4-.7-.4Zm.5-1.9h-.1l.2.2h.3v-.3Zm1.2,31.8h.1a5.4,5.4,0,0,0,2.2-1.3h-.1C672.2,44.2,671.5,44.7,670.4,45.6Zm.3-29.3h0l.2.3h.2v-.2l-.2-.2Zm.6,26.9h.2c1-.4,1.5-.9,1.5-1.3h0c-1.2.5-1.7.9-1.7,1.2ZM674,17.9v.3h.1l.2-.2H674Zm1.1,22.3h.1c.3-.1.5-.4.8-.9h0C675.6,39.2,675.3,39.5,675.1,40.2Zm2.2-20.7h.5l.3-.3V19l-.2-.2C677.5,18.8,677.3,19,677.3,19.5ZM679,37.1h0c.3.8.6,1.3.8,1.3l.2-.2v-.2C679.8,37.4,679.5,37.1,679,37.1Zm1.3-1.3v.3c0,.5.8,2,2.3,4.7h.4l.2-.2a36.6,36.6,0,0,1-1.8-3.9l-.9-1Zm.3,6.3v.3l.2.2h.3c.2,0,.5-.3,1-.9h0c0-.1-.4-.3-1.1-.5S680.6,41.5,680.6,42.1Z" transform="translate(-0.2 0)" style="fill:#b75326"/><path d="M689,1.3c5.3.2,7.9.7,7.9,1.5l.5,9a39.8,39.8,0,0,1-1.4,6.3,15.8,15.8,0,0,0-.3,2.6v.4h.2a14.8,14.8,0,0,1,9.5-3.2,17.4,17.4,0,0,1,5.7,1.7,31.6,31.6,0,0,1,2,2.6,1,1,0,0,1,.5.7v.6c1.2,1,1.8,2.7,1.8,4.9a48.1,48.1,0,0,1,.3,6.1h0a68.1,68.1,0,0,1-1,6.9l-.2,1.1h1.2q2.1.1,2.1.6c0,.1-.7.3-2,.4h0c0,.2.5.3,1.4.6l.3.3h0l-1.2.3c.8.2,1.2.5,1.2.8,0,2-.6,3-1.7,3h-.5c-1.6,0-2.4-.3-2.4-.8a7.9,7.9,0,0,0-2.5-.3,7.5,7.5,0,0,0-1.8-.8v-.2a53.5,53.5,0,0,1,.9-7.9,38.4,38.4,0,0,1,1-6.4V30.2l.2-.3a2.2,2.2,0,0,1-.8-1.8,13.5,13.5,0,0,0-1.3-2.1,9.4,9.4,0,0,0-2.5-.9,8.3,8.3,0,0,0-6.2.3c-2.7,1.8-4,3.1-4,4l-.4,4,.2,4.2c-.3,3-.6,4.5-1,4.5v.3h.6l1-.4c1,.1,1.5.5,1.5.9l-.4.4v.3l.8.4v.3c-.3,2.1-.6,3.2-1,3.2h-.2c-.6-.4-2.8-.7-6.6-.8s-4.1-.7-4.1-1.3v-1c0-.2.1-.4.4-.9v-.4a7,7,0,0,1-.8-1.2,10,10,0,0,1,3-.3c.3,0,.5-.8.7-2.4s.5-.9.7-2a1.8,1.8,0,0,0,.4-1h0a4,4,0,0,0-.7-1.9l.7-1.5c.2,0,.3-4.5.4-13.5l.9-9.1V7.5c0-.9-.3-1.4-.9-1.4h-2l-1.3.4c-.2,0-.4-.5-.4-1.6V4.1c0-1.8.2-2.7.7-2.7Zm-2,42.1v.2h2.6c0-.3-.6-.5-1.9-.5S687.1,43.2,687,43.4Zm.7,2h.1a14.8,14.8,0,0,1,3,.8,41.3,41.3,0,0,1,5.4.5h.1l.3-.3h0c0-.4-2-.6-5.9-.6a4.4,4.4,0,0,0-2.5-.6C687.9,45.2,687.7,45.3,687.7,45.4Zm.5-42.3v.4h.2V3.2Zm.9-.9v.3a4.1,4.1,0,0,0,2.1.5l.2-.2a5.2,5.2,0,0,0-2.2-.6Zm.6,1.3h0v.2h.8V3.6h-.9Zm.2,38q0,.4,2.1.6h.2v-.5c0-.1-.2-.2-.4-.2h-1.3C690.1,41.3,689.9,41.4,689.9,41.5Zm.2-36.9h0c0,.2.1.3.4.3h.9V4.6h-1.3Zm3,7.6a5.3,5.3,0,0,0-.2,2.2c.5,0,.7.4.7,1.1h.1a3.5,3.5,0,0,0,.1-1.2v-.8h0l-.3.6h-.2v-.3c.1-.4.2-.5.3-.5h.3A2.6,2.6,0,0,0,693.1,12.2Zm.4-1.6h0l.2.3h.2v-.2l-.2-.3h-.1Zm0-1.9v.4l.2.2.2-.2V8.8l-.2-.3Zm.9,18.3v.4h.2c.4,0,.7-.4.8-1.1h.1v-.3h-.1A3.6,3.6,0,0,0,694.4,27Zm.4-24.1a1,1,0,0,0,.6.5h0a.6.6,0,0,0,.6-.3V2.9l-.3-.3h-.6Zm.3,25.2h.6c.2,0,.4-.1.4-.2v-.2h-.3Q695.1,27.8,695.1,28.1Zm.3,15.6V44l.3.3h.3l.3-.3h0l-.4-.4h-.5Zm.3-.9V43h.3v-.2Zm1.8-19.3h.2c.4-.2.7-.4.7-.6h-.2A1.4,1.4,0,0,0,697.5,23.5Zm2.4,1.5h.2l.2-.2v-.2h-.1Zm2.7-3.1h0v.2h.5l-.2-.2Zm.8,2h.2v-.2h-.1Zm.8-.8v.3a4.9,4.9,0,0,0,1.7.6l.3-.2c0-.3-.6-.5-1.6-.8Zm1.7-4.6h0l.8.4h0c0-.2-.2-.3-.7-.4Zm2.3,6.1h0c0,.4.2.6.5.6h0C708.7,24.8,708.5,24.6,708.2,24.6Zm.9,21.6v.2a.9.9,0,0,0,.8.4h.6v-.2c0-.2-.2-.3-.7-.4Zm.2-26.3h0c.1.4.4.5.8.5v-.2A1,1,0,0,0,709.3,19.9Zm.1,25.6h.3v-.2l-.2-.2Zm.2-.9h2.6a3.5,3.5,0,0,0-2-.4.7.7,0,0,0-.7.5Zm.7-20.9v.2a9.3,9.3,0,0,1,1.8,2.8c.2.3.4.4.5.4v-.4c0-.8-.6-1.8-1.8-2.9h-.5Zm.4,18.8v.3h.6l.2-.2v-.3l-.2-.2C711,42.1,710.9,42.3,710.7,42.5Zm1.1-16.8v.2l-.5,1.3h.2l-.4-.4Zm1.4,14.1h.2c.3,0,.7-1.5,1.2-4.6a.8.8,0,0,0-.4-.8h-.3C713.7,34.4,713.4,36.2,713.2,39.8Zm.6-14.3h0l.3.3h.2v-.2l-.4-.4h-.1Zm.4,7.9v.2h.2v-.2h-.3Z" transform="translate(-0.2 0)" style="fill:#b75326"/><path d="M734.3,15.6c1.7,0,3.8.8,6.3,2.2s3.2,2.7,3.2,3.3c1.6,3.5,2.4,5.6,2.4,6.2v.5a10.8,10.8,0,0,0-1,2.9h-5.6L738,31c-6-.5-10.1-.7-12.5-.7h-1.3a4.3,4.3,0,0,0-.8,1.5,4.8,4.8,0,0,1,.5,2.2c0,1.6.2,2.5.7,2.8v.3h0l-.4-.2v.2l.6.6a3.1,3.1,0,0,0,1.1,2c1.3,2.4,2.8,3.9,4.4,4.5a15.8,15.8,0,0,0,4.7.6,5.1,5.1,0,0,0,1.7-.7c.8-.3,2.4-1.6,4.7-4.1h0c0-.1-.3-.2-.8-.3l-.2-.3a7,7,0,0,1,3.5-3.5l2.2,1.7a52.5,52.5,0,0,0,3.7,4.9v.3c-1.4,1.7-2.3,2.5-2.9,2.5h-.2c0-.9-.6-1.4-1.7-1.5a14.7,14.7,0,0,0-2.7,2,15.5,15.5,0,0,1-4.9,2.1,30.9,30.9,0,0,1-5.7.9l-3.5-1.3c-1.9,0-3.8-1.1-5.4-3.2a7.3,7.3,0,0,1-1.7-2.7c0-.3-.5-2-1.4-5.1a15.5,15.5,0,0,1-.4-3.4h0a21.9,21.9,0,0,1,4.9-14.4,4.4,4.4,0,0,1,2.9-2.3l3.5-.7ZM720.4,31.3h0v.2h0c0,.2-.1.5-.1.9v.3a4.1,4.1,0,0,0,.6,2h.2C721.1,32.7,720.9,31.6,720.4,31.3Zm0-2.3v.4c0,.2.1.4.2.4s.3-.2.3-.6l-.2-.2Zm.8-3.3a5.4,5.4,0,0,0-.8,2.5h.1c.3,0,.6-.7,1.1-2.2S721.4,25.7,721.2,25.7Zm.1,11h0l.2.2h.1v-.2h-.3Zm.7,1.1h-.1c.2.6.4,1,.7,1h0A1.4,1.4,0,0,0,722,37.8Zm1.7-8.2h1.2l-.2-.3h-.2A.9.9,0,0,0,723.7,29.6Zm.1-7.4h.2Zm0,3.9v.2l.2.2h0a2.7,2.7,0,0,0,.8-.7v-.2h-.3C724.2,25.6,724,25.8,723.8,26.1Zm.6-1.6v.2c0,.5,3.8,1,11.2,1.5l.7.2h.7a15.2,15.2,0,0,0,3.4.9c0,.1.1.2.4.3a2.5,2.5,0,0,0,.4-1.1V25.3c0-.6-1.1-1.8-3.2-3.6a5.3,5.3,0,0,0-3.2-1.7l-2-.3c-3.5.7-5.7,1.5-6.8,2.5A10.6,10.6,0,0,1,724.4,24.5Zm.1-1h0a.5.5,0,0,0,.3-.5h0A.5.5,0,0,0,724.5,23.5Zm.2,21.2v.2c0,.3.3.5,1,.7l.3.3h0a5.3,5.3,0,0,0-1.1-1.1Zm.4-23.9V21h.1c.6-.2.8-.3.8-.5h-.3C725.5,20.4,725.3,20.6,725.1,20.8Zm.3,8.4v.4h.3v-.3h-.3Zm.7-11.3h0l.2.2h.1c.8-.2,1.2-.4,1.2-.7v-.3l-.2-.3h-.2C726.5,17.2,726.1,17.5,726.1,17.9Zm.8,10.7v.2a48.2,48.2,0,0,0,6.6.5h-1.3c0,.2.6.3,1.6.3s2.6-.1,2.6-.3S733.2,28.8,726.9,28.6Zm.7-2.1v.2a8.3,8.3,0,0,0,4.2.8h1.4v-.3Zm.1-6.1a9.5,9.5,0,0,1,2.5-1h-.7Q727.7,19.5,727.7,20.4Zm.9-3.4h.1a14.1,14.1,0,0,0,3.7-.7q.6-.2.6-.3h-.2a11.7,11.7,0,0,0-4.1.9h-.1Zm.5,27.9h0c0,.2.4.4,1.3.6h.1a3.6,3.6,0,0,0-1.3-.5Zm2.2-26.6h0c0,.2.8.4,2.5.7h.1v-.2a1.8,1.8,0,0,0-1.6-.8H732C731.5,18,731.3,18.1,731.3,18.3Zm1.3,27.3v.2h.2v-.2Zm2.3,1.6h-1.5c-.4,0-.6,0-.6.2h0l.2.2h1.1a18.6,18.6,0,0,0,4.5-.6h0c-.1-.2-.3-.3-.7-.3h-.3A6,6,0,0,0,734.9,47.2Zm-1.1-29.9v.2a6.7,6.7,0,0,0,2.5.4h.1v-.2c0-.1-.2-.2-.8-.3Zm1.2,1.4h0a22.8,22.8,0,0,0,3.8,2h.1l.6-.2h.4l-1-.4-1.3-.5c-.2-.7-.9-1.1-2-1.1h-.1C735.2,18.5,735,18.5,735,18.7Zm3.7,9.4v.2h.2v-.2Zm.1,1.7c0,.1.3.2,1,.2h.6q0-.3-1.2-.3C738.9,29.6,738.8,29.7,738.8,29.8Zm0,14.1h.1a1.3,1.3,0,0,0,.5-.7h0C739,43.4,738.8,43.6,738.8,43.9Zm.4,2.7c.4,0,.8-.3,1-1h-.1C739.5,46,739.2,46.3,739.2,46.6Zm.6-24.9a.7.7,0,0,0,.6.5h.1l.2-.2v-.4l-.3-.3C740,21.3,739.8,21.4,739.8,21.7Zm.9,20.2h.2c.4,0,.6-.3.8-.8h0A1,1,0,0,0,740.7,41.9Zm.5-19.4c.4,1.3.7,2.1,1,2.2h.3c-.3-1.3-.6-2-1-2h-.3Zm.9,15.9h.4c.3,0,.4-.1.4-.2l-.2-.3h-.1A.5.5,0,0,0,742.1,38.4Zm.3,5.8h.2c.4-.4.7-.7.7-.9h-.1C742.7,43.5,742.4,43.8,742.4,44.2Zm.9-18.8v.4l.2.2c.2,0,.3-.2.3-.4v-.2h-.5Zm.3,17v.2c.7-.2,1-.5,1-.8h-.1C744,41.7,743.7,41.9,743.6,42.4Zm1.4-.6h.2a.5.5,0,0,0,.4-.6h-.2A.7.7,0,0,0,745,41.8Zm2.2-.6h-.1c.1.5.3.8.5.8h.1v-.2h0Q747.7,41.2,747.2,41.2Z" transform="translate(-0.2 0)" style="fill:#b75326"/><path d="M777.8,0a6.7,6.7,0,0,1,2.6.7c.1,0,.2.6.2,1.9s.8.8.8,1c-.2,2-.4,6-.6,12.1-.1,0-.2.2-.2.6a.8.8,0,0,0-.4.7v.9a7.1,7.1,0,0,1-.7,2.9v.9c0,.2.2.3.6.4v.4a95.2,95.2,0,0,0-1,10.3c0,1.8-.1,2.8-.3,2.8h0c.2,0,.3.3.4.8v.7a45.5,45.5,0,0,1-.7,5.6v1.5c2,.4,3.1,1,3.1,1.7l-.3.4V47l.3.4h0c-.3.9-1.5,1.4-3.5,1.4h-.4l-.3-.6h-.7l-1.7.4h-2.3c-.2,0-.3-1-.5-3.1v-2a5.1,5.1,0,0,0-2.4,1.4,24.7,24.7,0,0,1-9.1,3,14.5,14.5,0,0,1-6.4-3.5,14.5,14.5,0,0,1-2-2.9,8.9,8.9,0,0,1-1.1-1.9v-.2h.2a9,9,0,0,1,1.6,2.1h.3v-.8a5.1,5.1,0,0,0-1.3-3h-.3c-.2,0-.4.4-.4,1.1h-.2v-.3a17.6,17.6,0,0,1,.2-3.1h.3v.6h.1a.8.8,0,0,0,.3-.7V33.8c-.1,0-.2.2-.2.6l-.3.4c-.1,0-.2-.2-.3-.5a19.6,19.6,0,0,1,3.1-9.9,24.7,24.7,0,0,1,2.8-4c1.3-1.2,3.4-1.7,6.3-1.7h.5c4.4,0,8,1.1,10.7,3.4l.4.2h.3c.3-1.8.7-6.4,1.1-13.8.1-.3.2-.4.4-.4h0a7.5,7.5,0,0,0-2.7-1.3c-.4,0-.6-1.4-.7-4.2l1-.3h0c0-.2-.2-.3-.5-.3s-.3-.3-.3-.5.5-.6,1.4-.6V.5l-.2-.3h3ZM753.9,32.8a.2.2,0,0,0,.2.2c.3,0,.5-.4.6-1.3v-.3h-.2C754.3,31.4,754.1,31.9,753.9,32.8Zm.6-5.5v.2h.2c.2-.1.5-.5.8-1.5s2.1-2.5,2.5-2.5l.2-.5h-.4a9.9,9.9,0,0,0-2,1.3A9,9,0,0,0,754.5,27.3Zm.3,15.8h0c0,.3.7.4,2,.6v-.2L755,43Zm.1-7.2v.9c0,.6.8,2.3,2.3,5a8.4,8.4,0,0,0,3.7.9,18.2,18.2,0,0,0,8.3-2c1.1-1.7,2.1-2.5,3-2.5s.9-2.1,1.4-4.7a5.2,5.2,0,0,0,.5-2.3v-.6c0-1.7-.2-2.6-.7-2.6a10.1,10.1,0,0,1-1.4-1.5l.2-.4c0-.2-.6-.4-1.7-.7l-.4-.3h1c0-.4-2.3-.7-6.7-.7l-1-.2c-3.2.3-4.9.7-4.9,1.3a13.3,13.3,0,0,0-2.9,6.6A12.9,12.9,0,0,0,754.9,35.9Zm1.4,8.3c0,.4,1.2.9,3.6,1.3h.4c0-.3-1.2-.8-3.5-1.3h-.3Zm.9-22v.2h.4c1.5-.4,2.2-.8,2.2-1.4s-.2-.2-.6-.2h-.3C758.3,20.9,757.7,21.3,757.2,22.2Zm2.9,24.4v.2h.9a13.7,13.7,0,0,0,2.9-.4h0l-1.8-.2C760.8,46.2,760.1,46.4,760.1,46.6Zm1.2-26.1V21h.3l.4-.3v-.2l-.3-.2h-.3Zm0,3h0Zm1.4,19.9v.2h.8q4.1-.3,4.5-1.2v-.2h-.2C764.7,42.8,763,43.1,762.7,43.4Zm.7-20.3h.1Zm.9,21.7h.6c1.2,0,1.9-.2,1.9-.4h-1.3Q764.3,44.5,764.3,44.8Zm.4-21.1h.2l1.3-.2h-.4C765.1,23.4,764.7,23.5,764.7,23.7Zm.4-2.7h2.8c-.1-.3-.8-.4-2-.5h-.6A.6.6,0,0,0,765.1,21Zm2.7,2.5.2.3h.3l.2-.2a.6.6,0,0,0-.5-.2h-.2Zm1.1,19.1v.2h.1a2.3,2.3,0,0,0,1-.7v-.2h-.2A2.2,2.2,0,0,0,768.9,42.6Zm.8-21h-.2v.2l1.9.6h.1c0-.4-.3-.7-1-.9Zm.8,1.9.3.2v-.2h-.4Zm.9.4a4.9,4.9,0,0,0,1.9.7h0v-.2a1.3,1.3,0,0,0-1.1-.5Zm1.3,2.4v.5l.3.3h.2c.1,0,.2-.2.2-.4a.6.6,0,0,0-.3-.6H773Zm.9,15.8v.3q.3,0,.3.6h.1l.3-.3v-.5a.8.8,0,0,1-.2-.6h-.2A.5.5,0,0,0,773.6,42.1Zm0,2.4h.2l.2-.2h-.1ZM775,4.4v.2h.4c.3,0,.5,0,.5-.2V4.2h-.6Zm.1-1.5h.8V2.7h-.5Zm1.2,19c0,.3.1.6.2.6h.1v-.5Zm.4-17.4h.2q1.5,0,1.5-.3l-.2-.2h-.8A.8.8,0,0,0,776.7,4.5Zm.1,38v1.3l.2.2h.1v-.8c0-.4,0-.6-.2-.7Zm.2,2.2v.2h.4v-.2Zm1.3,2c0,.1.2.2.6.2h1.7c0-.2-.3-.3-.8-.3S778.3,46.5,778.3,46.7Zm.3-43.2h.1Zm1.2,17h.3v.3h-.3Z" transform="translate(-0.2 0)" style="fill:#b75326"/><path d="M805.3,14.8a2,2,0,0,0,1.3.4l.7-.3c5.6,0,8.4.1,8.4.5v1.4a6.9,6.9,0,0,1,.5,2.4v1c-.4,5.7-.7,11.1-.9,16.3a2.3,2.3,0,0,0-.3,1.3.6.6,0,0,0,.6.3h.2c2.2,0,3.3.2,3.3.7h0v.4a13.3,13.3,0,0,1,.7,4.7l.2,2.5h-9c-4.7,0-7-.3-7-1.1a3.5,3.5,0,0,0-.3-1.3,1.3,1.3,0,0,1,.6-.7h.1a.7.7,0,0,0,.6.2h.1l4.3-.3h0c-3.5-.2-5.3-.5-5.3-.8V41.3l-.2-1.5c0-.5,1.5-.7,4.7-.7q.6,0,.6-2.7l.7-16.3h-.1c-1.5,0-2.1-.1-1.6-.4-2.5,0-3.7-.3-3.7-.9s-.2-.2-.2-.5l.3-.7a.7.7,0,0,0-.4-.6h0c.4-.3.6-.9.7-2h.3Zm.2,26.5h0c.3.4,1.5.6,3.8.6h.4q.6,0,.6-.3h0l-4.4-.3Zm.6-25.2v.2h.3c1.1,0,1.6-.1,1.6-.3h-.3C806.7,15.9,806.1,15.9,806.1,16.1Zm.2.9h0c0,.1.3.2.9.2h2.9c.6,0,1-.1,1-.2h0c0-.3-1.3-.3-3.7-.1Zm7.3-14.3a4.1,4.1,0,0,1,3.5,2.2l.4,2.1a8.2,8.2,0,0,1-1.4,3,3.6,3.6,0,0,1-2.5.8q-3.7,0-4.8-1.2a5.7,5.7,0,0,1-.9-3.4.2.2,0,0,1-.2-.2h0C808.9,4,810.2,3,811.6,3Zm-3.3,1.9h0a5.3,5.3,0,0,0,2.1-.5l-.3-.2C810.9,4.1,810.3,4.3,810.3,4.6Zm.3,29.7.2.5c.2,0,.2-.2.3-.6v-1a7.7,7.7,0,0,0,.7-2.4V29.5l.4-.4a3.9,3.9,0,0,1-.3-1.4h0q.3,0,.6-6.9l-.3-.5h-.1c-.6,0-.9,2-1.1,6.1Zm1.4,9.3h-.9v.2h2.6v-.2H812Zm-.5-37.3h.4c.5,0,.8-.1.9-.5H812c-.4,0-.6.1-.6.4Zm.1,35.7.3.2h.1c.3,0,.5-.2.5-.6h-.3A.5.5,0,0,0,811.6,42Zm.7-4.1v.3h.2l.2-.2h0v-.2h-.1Zm0-1.1v.4h.2c.2-.1.3-.3.3-.8V36h-.2C812.5,36,812.4,36.3,812.3,36.8Zm.1-19.9v.2a1.8,1.8,0,0,1,1,.6h.2c.1,0,.1-.1.1-.2h.1c.1,0,.3.2.4.6h.1l.8-.7v-.3h-2.7Zm.3,3.5.3,1-.4,1c.2.5.3.7.4.7h.1v-.8c0-1.5.2-2.3.7-2.3v-.5h-.5C813,19.4,812.7,19.8,812.7,20.4Zm.5,10.5a19.3,19.3,0,0,0-.5,3.5h.1c.2,0,.5-.9.8-2.6v-.9Zm-.4-21.8v.2h1.1V9.1h-1.2Zm.8,11.9v.3a.5.5,0,0,0,.3.5h.1l.3-.2v-.3a1,1,0,0,0-.5-.4Zm.8-13.2V8h.2a.8.8,0,0,0,.7-.4V7.4h-.2A.8.8,0,0,0,814.4,7.8Zm0,8,.2.2h.1v-.2l-.2-.2Zm1.2-9.7v.2h.1l.2-.2V5.9h-.1Zm1.3,35.8c.1.5.4.8,1.1.8h.2v-.4l.5-.3v-.4a.5.5,0,0,0-.3-.5h-.2c-.1,0-.3.2-.4.6Zm.3-2.7a3.3,3.3,0,0,0,1.3.4v-.2c0-.1-.2-.2-.7-.3h-.6Zm.1,4.2h.1l.2-.2h-.1Zm1.5,2.5h.4v-.2H819Z" transform="translate(-0.2 0)" style="fill:#b75326"/><path d="M835.7,0a4.2,4.2,0,0,1,2.3.7A21.7,21.7,0,0,0,836.9,7l-.5,5.6c0,.3.8.5,2.4.5,4.9,0,7.3.2,7.3.6l.8.4a3.1,3.1,0,0,0-.6,1.2v.2l.2,1.2-.8,2.8c0,.2.3.6.8,1.2h0a6.8,6.8,0,0,1-2.3.5c-.7-.1-1-.2-1-.3h1l.2-.2v-.2h-7.8c-.2,0-.4,1.2-.6,3.5h-.1l-.9-.9v1c0,1.2.1,1.8.4,1.9s.2-.4.4-1.2v-.4h.2v.2l-.5,5.9c.4,6.5.7,9.8,1.1,9.8s.7,1.9,1.5,1.9a3.3,3.3,0,0,0,1.7.4h4.8c.2,0,.3,1.1.5,3.3s-.6,1.9-2.2,1.9h-4.8a9.9,9.9,0,0,1-6.5-2.1c-1.2-.5-1.7-1.7-1.7-3.8s-.3-4.9-.5-9.8l1-5.4.2-3.7v-.5c-.3-1.7-.8-2.5-1.5-2.5h-4a4.9,4.9,0,0,0-1.9.5c-.4-.1-.9-.6-1.5-1.7l1.2-5.5,7.5-.3a3.5,3.5,0,0,1,.9-2q.2-9.6.6-9.6V.9c0-.1-.1-.2-.3-.2h0C831.6.4,833,.2,835.7,0ZM823.3,13.7a.5.5,0,0,0,.5.5h1l4.7-.3h0c0-.3-1-.4-3.1-.4h-2.6C823.5,13.5,823.3,13.6,823.3,13.7Zm.8,1.4v.3q0,.6,4.2.6,2.1,0,2.1-.3c0-.4-1.8-.7-5.4-.7h-.9Zm.5,2.2c0,.2.1.2.3.2h3.3a9.4,9.4,0,0,0-2.8-.3h-.6Zm0,.8h0c0,.3,1.5.4,4.6.4h.6l-.2-.2Zm5.7,13.5.2,1.7v2.8h.2c.2,0,.4-.9.4-2.9V31.8c.1.1.1.2-.1.2A.8.8,0,0,1,830.3,31.6Zm1.9,8v1.3h.1V39.7h-.3Zm.3,4.2v.3c.2,1,.6,1.5,1.4,1.5h.7c0-.2-.4-.3-1.1-.5l-.8-1.1Zm.6-22.5v.5h.1c.2,0,.3-.1.3-.4v-.6h-.1C833.1,20.9,833.1,21.1,833.1,21.3Zm.1,1.2v1h.3v-1Zm.1-20.8V2h.2V1.8h-.2Zm0,25.1v.5l.2.2h.1v-.7Zm.3-22.9a6.2,6.2,0,0,0-.1,1.6v.3h.1l.2-1.1V4.1Zm.2,2.8-.2,6.1h.3c.3,0,.4-.5.4-1.5V7c-.1-.2-.1-.3-.2-.3Zm.4,29.8v.9c0,.3.1.5.3.5h.1c.1,0,.2-.2.2-.4s-.2-1-.4-1Zm0,7h0v.4a1,1,0,0,0,.4.5h.4C835,43.9,834.8,43.6,834.2,43.5Zm.6-4.4-.3.8c0,.9.2,1.5.7,1.7v-.8C835.2,39.8,835,39.2,834.8,39.1Zm.2-16.9h0l.3.3h0v-.2l-.2-.2ZM835.8,2h0l.2,1.5h.1a2.1,2.1,0,0,0,.7-1.3V2l-.2-.2H836Zm1.5,13.7h0c0,.2.7.4,2.2.4h1l1.4.3h.3c.3,0,.4-.1.4-.4h-.1l-4.6-.4h-.5Zm.9,2.8h0c0,.2.8.4,2.1.6h.2a3.6,3.6,0,0,0-2-.6Zm3.6-4.6H840V14a7.4,7.4,0,0,0,2.3.4h1.4a.2.2,0,0,0,.2-.2c-.1-.5-.3-.7-.7-.7h-.7ZM841,44.7h.3c1.5-.3,2.3-.6,2.3-.9h-.2Q841,44.4,841,44.7Zm.6-25.6a9.3,9.3,0,0,0,3,.5l.2-.2v-.6h-1.4C842.2,18.8,841.6,18.9,841.6,19.1Zm2.3-2h0l.2.3h.3a.7.7,0,0,0,.7-.4l-.2-.2h-.8Zm.2-2.8h0l.2.2c.4,0,.6-.1.7-.3h-.7Z" transform="translate(-0.2 0)" style="fill:#b75326"/><path d="M855.4,39.4a5.7,5.7,0,0,1,2.7,1,3.6,3.6,0,0,1,.2,1.1v.8c0,1.7-1,2.9-2.9,3.7l-.8.4c-.8,0-1.7-.8-2.5-2.4v-.4c0-1.7.3-2.8.9-3.2A5.6,5.6,0,0,1,855.4,39.4Zm-2,2.7c.1,1.1.3,1.6.4,1.6s.3-.8.6-2.1l.2-.4v-.3h0Q853.4,41.4,853.4,42.1Zm.3,2.7c0,.3.1.4.4.5h.7a1.6,1.6,0,0,0,1.2-.6h0Zm1.3-2.3h0c0,.4.1.7.4.7h0c.2,0,.5-.4.7-1.3v-.3h-.3C855.3,41.6,855.1,41.9,855,42.5Zm1.9.8h.3v-.6h-.1C857.1,42.8,857,43,856.9,43.3Z" transform="translate(-0.2 0)" style="fill:#231f20"/></g></g></svg>