<svg xmlns="http://www.w3.org/2000/svg" viewBox="0 0 815.6 61.8"><title>icn_rotator_Asset 53_adj</title><g id="Layer_2" data-name="Layer 2"><g id="Layer_1-2" data-name="Layer 1"><path d="M10.7,15.1l.7.3-.3.4h3.3q5.4,0,7.2,2.7a10.6,10.6,0,0,1,1.5,2.2h.2c.4,0,2.7-1.1,7.1-3.3a2.7,2.7,0,0,1,1.3-.4A9.1,9.1,0,0,1,37,18.9c3.5,2.8,5.2,5.2,5.2,7s1,5,2,12.7v1.7q0,.6.3.6h.2a6,6,0,0,0,2-.5c.7,0,1,1.2,1,3.6s.1,2,.1,2.8H47a32.8,32.8,0,0,1-4.7.5l-1.9-.2H36.2c-.1,0-.1-.2-.1-.5l-.8-.8h0v-.6h0l-.3-1.7v-.8c0-.5.5-.8,1.3-.8s2.1-.4,1.8-1.7a43.5,43.5,0,0,1,.4-7.2h0V29.1c0-.7-.6-1.4-1.7-2.3h-.9l-.5.3c-.1,0-.1-.2-.1-.7a5.6,5.6,0,0,0-4.6-1.8c-2.7.3-4.2,1-4.8,2.4a23.1,23.1,0,0,0-.3,2.9v7.7c0,1.9.5,2.9,1.6,3.2s.6.2.6.4c-.4,2-.7,3.1-.8,3.4l-1.6.3-5.3-.4h-.6c-.7,0-1-1-1-3.2v-.2c0-.2.6-.5,1.9-.9s.4-.2.4-.5a16.9,16.9,0,0,1-.3-3.5V29.5a12.2,12.2,0,0,1-.3-2.2c0-1.1.2-1.6.4-1.6h.1l.4.3h.2c0-.9-1.4-2.2-4.3-3.9a6,6,0,0,0-2.2-.4,7.4,7.4,0,0,0-3.9,1.5V41.4l.3.2h.2c.2,0,.2-.1.3-.4h.1c1.1,0,1.8.3,2,.8v2c.1,1.7-.3,2.6-1.3,2.6a16.2,16.2,0,0,1-3.3.2l-8-.5c-.5,0-.8-1.3-1.2-3.7v-.2c0-.3.8-.7,2.5-1.2,0-.3.8-.6,2.5-.8a.5.5,0,0,0,.4-.6l.4-14.5V21.9c0-.4-.4-.5-1.1-.5l-2.9.3c-.7-.4-1.1-.8-1.1-1.2a1,1,0,0,0,.5-1V19c-.1-1.1-.4-1.6-.7-1.6H.9c.3-.1.6-.5.9-1.1C4.2,15.7,7.2,15.4,10.7,15.1ZM2,42.2a1.4,1.4,0,0,1-.6,1.1q.5,2.1.9,2.1h.2l-.3-3.1H2Zm.4-22.6c0,.4.3.7,1,.7a6,6,0,0,0,3-1H6.1C3.6,19.1,2.4,19.3,2.4,19.6Zm.2-1.7v.3h.1c1.7,0,2.5-.1,2.5-.3H2.6ZM3,42v.8h.1A2.8,2.8,0,0,1,4.4,42v-.3H3.3C3.1,41.6,3.1,41.7,3,42Zm.3,2v.4l.2.2h.1v-.4L3.4,44Zm.8-.3c0,.5.7.6,2.2.3a.8.8,0,0,0,.7.4l3.2-.3v-.2l-3-.2h0l.8-.2h2q-.7.6-5.1.3l-.3-.2H4.4ZM5,16.5l.2.2q1.2-.1,1.2-.3H6.1C5.4,16.3,5,16.4,5,16.5Zm.9,25.9v.3H7.2v-.3H5.9Zm.8-2.7c0,.7.1,1,.3,1h.2c.5,0,.7-.3.8-1Zm.9-20.9h.1l.2-.2H7.7Zm.4,2v3.1a5.7,5.7,0,0,1-.3,1.8l.4.7v1.7h.1c.2,0,.4-2.2.5-6.7h0a1.1,1.1,0,0,0-.4-1A.5.5,0,0,0,8,20.8Zm.1,7.6v.4h.2v-.5ZM8.9,40h0c0,.9.3,1.3.8,1.3H10c.1,0,.2-.1.2-.3Zm.7-22.8h0v.2h.1l.2-.2v-.2H9.6Zm.1,5.9a12.8,12.8,0,0,0-.1,2.1v1.2h.1c.3,0,.4-.6.4-1.7v-.5c0-.7-.1-1.1-.3-1.1Zm-.1-7h0l.3.2c.3,0,.5-.1.5-.4H9.8Zm0,12v.3l.4.4h0l.2-.2v-.3l-.3-.4H9.8Zm.5,15.1v.2h2.1v-.2H10.1Zm.5,2.2h.2a1.6,1.6,0,0,0,.8-.6h0A1.9,1.9,0,0,0,10.6,45.4Zm.2-26.6v.4h.1l.2-.2h-.3Zm0,1.9h.3c.5-.1.7-.2.7-.3v-.2h-.4C11,20.4,10.8,20.5,10.8,20.7Zm.1-3.5h.2l4-.7H13.3q-2.4,0-2.4.6Zm0,26.6q0,.5,1.2.6l.3-.3v-.2c0-.2-.5-.3-1.3-.3ZM12.4,42v.3h.4v-.3h-.5Zm.2-23.1h0l3.2-.3a4.1,4.1,0,0,1,2.8,1.2h.2v-.3c-.3-.8-.7-1.2-1.3-1.2h-.6C14.1,18.3,12.7,18.5,12.6,18.9Zm1.5,1,1.8.5a5.3,5.3,0,0,0,2,.7H18v-.2a4.4,4.4,0,0,0-3.2-1.3h-.4C14.2,19.7,14.1,19.7,14.1,19.9Zm3-2.8v.2a6.5,6.5,0,0,0,1.8.4H19v-.2c0-.2-.5-.3-1.6-.4Zm2.1,2.8c0,.3.1.5.5.5h0a.5.5,0,0,0-.4-.6Zm.8-.5v.2c.4.6.7,1,1,1.1h.2a2.7,2.7,0,0,0-1.1-1.3Zm.2,1.5h0c0,.4.4.8,1.1,1h.1v-.6c0-.1-.4-.3-1.1-.5Zm1.7,10.6v3.9h.2a6.1,6.1,0,0,0,.2-1.5h0c0-1.6-.1-2.3-.3-2.3ZM22,24a.5.5,0,0,0,.5.5h.1v-.2a.5.5,0,0,0-.5-.3Zm.2,19.4h.7l-.2-.2h-.4Zm1.2-2.6.3.2h.4l.3-.3h0l-.2-.2h-.5Zm.4-19.1v.6l.3.2A2.9,2.9,0,0,0,26,21.4H24.5A.9.9,0,0,0,23.8,21.7Zm.1,3.5v.3c.1.3.1.4.3.4h.1l.3-.3h0Q24.5,25.2,23.9,25.2Zm-.1,14.2v.2h.3v-.4H24Zm2.6-18.8h.4c.5-.1.8-.3.8-.6h-.2C26.8,20.2,26.5,20.4,26.4,20.6Zm1.7-.7h.1c.3,0,1-.4,2.1-1.4v-.2C28.8,18.7,28.1,19.2,28.1,19.9Zm3.6.8v.2c.1.2.2.3.4.3a6.1,6.1,0,0,0,2.7-.3c-.2-.4-.8-.6-2-.6h-.1C32.1,20.3,31.7,20.5,31.7,20.7Zm.8-1.9h0c.1.2.3.3.7.3h.2V19c0-.1-.2-.2-.6-.2Zm.3-.6,1,.4a1.9,1.9,0,0,0,1.4.8h1.2v-.2c0-.4-1-.8-3.2-1.3h0C32.9,17.9,32.8,18,32.8,18.2Zm1.4,4.9a3.8,3.8,0,0,0,2.5,1.5h.2v-.3A5.1,5.1,0,0,0,35.6,23H34.2Zm3.2-1.4v.4a4.3,4.3,0,0,0,1.3,1.4v.3h.4c0-.6-.5-1.2-1.4-2Zm.3,22.4v.2h1.6c.4,0,.6-.1.7-.3s-.2-.3-.5-.3h-.9Zm1.1-18.8v.2c.3,1.1.6,1.6.9,1.6h.1a2.6,2.6,0,0,0-.9-1.7Zm.8,6.9v.2l.2,2.4V35l.2.2H40l.3-.3V32.5l-.3-.3Zm.1,5.5v.4H40v-.6h-.1Zm.1-9.7.8,1.2h.2v-1a.5.5,0,0,0-.3-.5h-.5C39.9,27.7,39.9,27.8,39.8,28Zm.1,11.5h0l.3.3v-.3h0v-.2Zm.3,3.7v.2H41c1.1,0,1.7-.1,1.7-.4h-.4Q40.2,42.9,40.2,43.2Zm1.7-2.1h0l.2.2h.2l.3-.3v-.4l-.2-.2h-.2A.6.6,0,0,0,41.9,41.1Zm1.7,2.1h.3c.3,0,.4,0,.5-.2h0c0-.2-.1-.4-.2-.4S43.8,42.7,43.6,43.2Zm1.8-1.1v.7l.2.2c.1,0,.2-.3.2-.9v-.2h-.2Z" transform="translate(-0.4 0)" style="fill:#b75326"/><path d="M63.2,13a19.6,19.6,0,0,1,4.2.9c2.4,2.2,3.8,4,4.2,5.2s1.6,2.8,2.2,5.7c.6.6.9,2.1.9,4.4v1.5l-.2,6.1c0,1.2.8,2.7,2.3,4.6s2.2,2,2.7,2h0c0,.5-.7,1.3-2.2,2.4s-1.7,1.6-2,1.6h-.1c-.6-.1-2.3-1.3-5-3.7l-7.3,3a22.1,22.1,0,0,1-5.4.7h-.3a11.6,11.6,0,0,1-5.7-2.6,16.3,16.3,0,0,1-1.8-3.1,5.3,5.3,0,0,1-1.1-3.4V36.7a5.9,5.9,0,0,1,.9-3.2,14.7,14.7,0,0,1,2.8-4.8,5.6,5.6,0,0,1,2-1.6,13.7,13.7,0,0,1,6.3-1.6h3.2a5.4,5.4,0,0,1,3.3.7h.4a.3.3,0,0,0,.3-.3,26,26,0,0,0-2.2-5.6c-.9-1.5-2.6-2.3-5.1-2.3l-2.5-.3c-2.2.4-3.3.9-3.3,1.4a8,8,0,0,0-1.5,4.1c-.1.2-.9.3-2.3.3h-.4c-.1,0-.3.4-.6,1.1s-1.7-.4-1.7-.7a41.3,41.3,0,0,0,.5-4.5c.6-1.9,2.2-3.6,4.6-5.2a10.3,10.3,0,0,1,2.1-1.1ZM51,21.7v.9h.1c.2,0,.3-.2.3-.4v-.5l-.2-.2Zm.7-4.6h.1c.4,0,.9-.4,1.6-1.2v-.2h0c-.4,0-1,.5-1.7,1.3Zm.8,24.8H53l-.3-.3h-.1Zm.1,3.3h0c.3.4,1.3.9,3.2,1.4a5.7,5.7,0,0,0,2.4.5h0c0-.2-.8-.4-2.4-.7A14.3,14.3,0,0,1,53,45h-.2Zm.8-15.9v.3h.2a.5.5,0,0,0,.6-.4V29h0Zm0,5.6c.3,2.5.7,3.7,1.1,3.7l.6.8h-.6v.2a13.8,13.8,0,0,0,4.9,3l1.2.3c.8,0,3.7-1.2,8.5-3.6.4-.2.5-.4.5-.7v-.3c-.3-1.7-.6-3.7-.9-5.9h-.1c0-.4-.4-.8-1.4-1.1A25.8,25.8,0,0,0,61,29.9,13.1,13.1,0,0,0,54.5,33,3.5,3.5,0,0,0,53.4,34.9ZM57.3,15h0q0,.3.6.3a4.1,4.1,0,0,0,1.6-.4v-.2h-.3Zm2.1,29.3a.5.5,0,0,0,.5.3c.4,0,.6-.2.6-.3h0V44h-.8ZM60,16.8l.2.3h.9l-.3-.3h-.5Zm2.3-2.4.3.2H63l-.2-.3h-.3Zm2.2,29h.3a5.3,5.3,0,0,0,2.3-.7h-.3C65.4,42.9,64.6,43.2,64.5,43.4Zm2.6-28.7h0c.3.4.5.5.8.5H68v-.2a1.2,1.2,0,0,0-.9-.4ZM70,35.9v.3l.3.2h0l.3-.2v-.3l-.2-.2h-.2Zm.2-2.1V34h.3v-.2l-.2-.2h-.1Zm1.7-3V31h0Zm0,1.3v.2h.4v-.2Zm.1-3.3V29q.3.9.6.9h.1a2.1,2.1,0,0,0-.4-1.2H72Zm.3,5h0c.1,1.5.3,2.3.5,2.3L73,36h0a6.7,6.7,0,0,0-.4-2.2Zm1,8.9a1,1,0,0,0,.5.6h0l.3-.3h0l-.3-.3h-.5Zm.3-16.2h0c0,.3.1.5.2.5v-.3l-.2-.3Zm1.1,17.3V44l.2.2h.3l.2-.2h0l-.3-.4h-.3Zm.5-2.2V42c.2.5.4.7.6.7h.1c-.1-.7-.3-1-.5-1Z" transform="translate(-0.4 0)" style="fill:#b75326"/><path d="M77.9,0h.5c3.6.4,5.8.9,6.4,1.5s.6.8.8,2.4l-.2.6v.2c.4.6.7,3.1.9,7.7q0,12.6.6,15.9h.3c2.1-1.7,5.6-4.2,10.3-7.4.4,0,.7-1.9.9-5.5,0-.9.4-1.4,1.2-1.4h2.5c3.7,0,6,.4,6.7,1.2h0l-.2.3a5.4,5.4,0,0,0-1.7-.4h-.2c0,.3.6.5,1.8.7s.5.9.5,2.8-.3,1.2-.9,1.2-.6.3-.9.8h-1.7c0,.5-.5,1-1.4,1.4a.3.3,0,0,0-.3.3l.2.4-5.9,4.1v.2c0,.3,2,4.5,6,12.5a17.7,17.7,0,0,1,1.2,2.8h-.4l-.4-.4h-.1c0,.5.7.7,2.3.7s4.2.3,4.2.8l-.5.6a8.3,8.3,0,0,1,.8,4c0,.6-.3.9-1,.9h-.5a52.2,52.2,0,0,0-7.2-.3h-.4c-.5,0-.8-.6-1.1-1.9a27.8,27.8,0,0,0-1.2-5.9c-.7-1.5-2-4.4-4.2-8.5-.6-2.1-1.2-3.1-1.6-3.1a7.1,7.1,0,0,0-3.3,1.8,1.9,1.9,0,0,1-1.2.7c-.2,0-.3-.1-.3-.2h0l.2-.2v-.2H89c-.2,0-.5.6-.8,1.7v.4a1.1,1.1,0,0,0-.6,1l.2,6.7c0,.5.9.8,2.6,1a6.7,6.7,0,0,0,1.9.9l.3.6v1.6l.2.8v.2a2.4,2.4,0,0,1-.9.8h-.4v.2c0,.3.2.5.8.7h0c0,.2-.2.3-.7.4l-2.9-.8a61.8,61.8,0,0,1-7.8-.7l-.9.2c-.5-.3-.8-.9-.8-2v-.3h-.1a2.4,2.4,0,0,1,1-1.8h.3v1l.2.3h.7l-.2-.3v-.2h1.1l-.7-.8h.9v-.2a1,1,0,0,0-.7-.2H80.2c0-.3.9-.6,2.8-.9l2.1-.4v-.2h-.8c-.3,0-.5-1.8-.5-5.3a48.1,48.1,0,0,0-1.1-8.8c-.3-10.1-.7-16.3-1.1-18.4,0-.1-.7-.3-2.2-.4l-1.7.5a1.9,1.9,0,0,1-.7-1.2l-.2-3.8V3.1q.2-.9.3-.9h.7a2.3,2.3,0,0,0-.5-1V1c.3-.1.5-.1.5-.3L77.5.3V0Zm1.5,4.6h0c0,.2.3.4,1,.5v.2c-.9,0-1.3.1-1.3.3v.3H80a1.3,1.3,0,0,0,1.3-1l.3-.4q0-.3-1.5-.3h-.2C79.6,4.4,79.4,4.4,79.4,4.6ZM81,44.9h3.3c1.3,0,2-.1,2-.3h0l-1.4-.2Zm1.8,1.2,6.6.9v-.2c0-.6-1.2-.8-3.8-.8H82.8Zm.5-42.6v.2a1,1,0,0,0,.7.6,1.5,1.5,0,0,0,.4-1.1h-.2A1.3,1.3,0,0,0,83.3,3.5Zm1,6.5-.2.3v1.2q0,1.5.3,1.5h.1l.2-.2v-.9C84.6,10.6,84.5,10,84.3,10Zm-.2,9v.3h.2l.2-.2-.2-.2Zm1.4,25.2v.2h.2v-.2Zm.1-14.7H86v-.2h-.1Zm0,5.3v.9h.2c.3,0,.5-.2.5-.6V34H86A1,1,0,0,0,85.6,34.8Zm.1-2.4V33H86c.2-.1.3-.3.3-.7h0a7.8,7.8,0,0,0-.2-1.4H86Q85.7,30.9,85.7,32.4Zm0,8.5.3.3h.1a.5.5,0,0,0,.3-.5c0-.3-.1-.4-.2-.4S85.7,40.6,85.7,40.9Zm.4-3.7v1h.1a.8.8,0,0,0,.2-.6v-.4Zm1.4-8v.2h.2a1.9,1.9,0,0,0,1.4-.7v-.3A2.3,2.3,0,0,0,87.5,29.2Zm0,15.2h.3l-.2-.2Zm.5,1.2h0l.9.2h.4c0-.1-.4-.2-1.1-.2Zm1.6-1.4a1.4,1.4,0,0,0,1.3.8H91l.2-.2a2.5,2.5,0,0,0-.7-.9h-.3A.6.6,0,0,0,89.6,44.2ZM90,30.6h.1a5.6,5.6,0,0,0,2.2-1.3h0C90.8,30,90,30.4,90,30.6Zm0,16.2V47h.8a.5.5,0,0,0-.5-.3Zm1.7-3.3h0l.2.2H92v-.2h-.3ZM95,29.1q.4,1.2.9,1.2H96c-.2-.9-.4-1.4-.9-1.4S95,28.9,95,29.1Zm2.2,3.3h0a20.1,20.1,0,0,0,2.2,5.2h.2v-.2c0-.9-.7-2.6-2.3-5Zm.9-7.7v.2h.1c1.5-.4,3.4-1.6,5.9-3.6v-.2h0A17.2,17.2,0,0,0,98.1,24.7Zm.1-2.6h.1a8.9,8.9,0,0,0,1.9-1.1l.6-.4v-.3h-.3c-.5,0-1.3.6-2.3,1.7Zm.6-2.9.3.2h.1a.5.5,0,0,0,.5-.3h-.2C99.1,19,98.9,19,98.8,19.2Zm.3-1.4c0,.5.1.8.3.8h.4c.1,0,.2-.1.2-.3l-.4-.7.4-1.1v-.2h-.1C99.3,16.5,99.1,17,99.1,17.8Zm.8,20.5h0a5.3,5.3,0,0,0,1,2h.2a5.2,5.2,0,0,0-1.1-2.1h-.1Zm.3-24h0v.2h.3v-.2h-.5Zm.2,20.3v.2l.2.2h.1v-.4Zm2,7.8h0l.2.3h.5l.2-.3h0a.5.5,0,0,0-.5-.3C102.5,42.2,102.4,42.3,102.4,42.4Zm2.3-24.1,2,.3.6-.3v-.2h-1.6C105,18,104.7,18.1,104.7,18.3Zm.9,29.7h.6C105.8,47.8,105.6,47.9,105.6,48Zm.3-3,.3.2h.3l.2-.2-.2-.2h-.4Zm1.3.1h0l.2.2h.3v-.3Zm2.6-1v.3h.3v-.3h-.3ZM110,46v1.1h.1c.1,0,.2-.4.2-1.2v-.5h-.1A.8.8,0,0,0,110,46Z" transform="translate(-0.4 0)" style="fill:#b75326"/><path d="M115.1,14.8a1.6,1.6,0,0,0,1.2.4l.8-.3c5.6,0,8.4.1,8.4.5v1.4a6.9,6.9,0,0,1,.5,2.4v1c-.5,5.7-.8,11.1-1,16.3a3.9,3.9,0,0,0-.2,1.3c0,.2.2.3.5.3h.3c2.2,0,3.3.2,3.3.7h-.1v.4a11.3,11.3,0,0,1,.7,4.7l.2,2.5h-9c-4.6,0-7-.3-7-1.1a3.5,3.5,0,0,0-.3-1.3,1.3,1.3,0,0,1,.6-.7h.2a.7.7,0,0,0,.6.2h.1l4.3-.3h0c-3.6-.2-5.3-.5-5.3-.8V41.3l-.2-1.5c0-.5,1.6-.7,4.7-.7q.6,0,.6-2.7l.7-16.3h0c-1.6,0-2.1-.1-1.6-.4-2.5,0-3.7-.3-3.7-.9s-.3-.2-.3-.5l.4-.7c0-.2-.2-.4-.4-.6h0a4,4,0,0,0,.7-2h.3Zm.1,26.5h0c.3.4,1.6.6,3.8.6h.4c.4,0,.6-.1.7-.3h0l-4.5-.3Zm.7-25.2v.2h.3c1.1,0,1.6-.1,1.6-.3h-.3C116.4,15.9,115.9,15.9,115.9,16.1Zm.2.9h0c0,.1.3.2.8.2h2.9c.7,0,1-.1,1-.2h0c0-.3-1.2-.3-3.6-.1Zm7.3-14.3a3.9,3.9,0,0,1,3.4,2.2l.4,2.1a7.5,7.5,0,0,1-1.3,3,3.7,3.7,0,0,1-2.5.8q-3.9,0-4.8-1.2a4.6,4.6,0,0,1-.9-3.4.2.2,0,0,1-.2-.2h0C118.7,4,120,3,121.3,3Zm-3.3,1.9h0c1.4-.2,2-.4,2-.5l-.3-.2C120.7,4.1,120.1,4.3,120.1,4.6Zm.3,29.7c0,.3.1.5.2.5s.2-.2.2-.6v-1a9.2,9.2,0,0,0,.6-2.4V29.5c.3-.1.4-.3.4-.4a3.9,3.9,0,0,1-.3-1.4h0q.3,0,.6-6.9c-.1-.4-.2-.5-.3-.5h-.1c-.5,0-.9,2-1,6.1Zm1.3,9.3h-.9v.2h2.7v-.2h-1.8Zm-.5-37.3h.4c.5,0,.8-.1.9-.5h-.8a.6.6,0,0,0-.6.5Zm.2,35.7.2.2h.1c.4,0,.5-.2.5-.6h-.3C121.6,41.6,121.5,41.7,121.4,42Zm.6-4.1v.3h.2l.3-.2h0l-.2-.2h-.1Zm.1-1.1v.4h.1c.2-.1.3-.3.3-.8V36h-.1C122.2,36,122.1,36.2,122.1,36.8Zm0-19.9v.2c.3,0,.6.2,1.1.6h.1a.2.2,0,0,0,.2-.2h.1q.2,0,.3.6h.1l.9-.7v-.3h-2.8Zm.4,3.5.3,1-.4,1c.1.5.3.7.4.7h.1v-.8c0-1.5.3-2.3.7-2.3l.2-.2v-.3h-.5C122.7,19.4,122.5,19.8,122.5,20.4Zm.5,10.5a13.2,13.2,0,0,0-.5,3.5h0c.3,0,.5-.9.8-2.6v-.9Zm-.5-21.8v.2h1.1l.2-.2h-1.3Zm.8,11.9v.3a.5.5,0,0,0,.3.5h.2l.2-.2v-.3a.8.8,0,0,0-.4-.4Zm.8-13.2V8h.2a.7.7,0,0,0,.7-.4V7.4h-.1A.9.9,0,0,0,124.1,7.8Zm0,8,.2.2h.1v-.2l-.2-.2Zm1.3-9.7v.2h0l.3-.2V5.8h-.1Zm1.3,35.8c0,.5.4.8,1.1.8h.2v-.2l-.2-.2.6-.3v-.4a.5.5,0,0,0-.3-.5h-.3c-.1,0-.2.2-.4.6Zm.3-2.7a2.8,2.8,0,0,0,1.3.4v-.2c0-.1-.3-.2-.8-.3H127Zm0,4.2h.1l.3-.2h-.2Zm1.6,2.5h.4v-.2h-.1Z" transform="translate(-0.4 0)" style="fill:#b75326"/><path d="M131.8,15.4l2.9.2h5.1v.2a6.7,6.7,0,0,0-.3,1.7v1.1c.1,1.2.4,1.7.9,1.7A5.9,5.9,0,0,1,143,19c3.3-1.4,6-2.2,8.2-2.2a7.9,7.9,0,0,1,4.5,1.9,8.1,8.1,0,0,1,3.4,2.9,17,17,0,0,1,2.5,9.5v.5l-.4,4.4.4,3.2-.6,2.9h0v.6h3.3a1.9,1.9,0,0,1,1.3.3c-.2,3-.5,4.5-1,4.5a5.3,5.3,0,0,1-2.6.7h-1.3a24,24,0,0,0-6.2.8c-1.4-.2-2.2-.9-2.2-2.2V44.8a4.2,4.2,0,0,1,1.1-3.1,44.3,44.3,0,0,1,1.3-5.5l.4-5.4c.1,0,.1-.5.1-1.4s-.8-2.7-2.6-4.8l-2.3-.8a9,9,0,0,0-6.5,3,32.9,32.9,0,0,0-3,3q-.9.8-.9,4.2c.1,4.1.2,6.2.5,6.2s2.4.6,2.4.9v.3h-2.3v.2q0,.3,2.4.6a2.7,2.7,0,0,1,.4,1.5h0a7.6,7.6,0,0,1-.7,3.1h-7.1a1.5,1.5,0,0,1-1.6-1,28.5,28.5,0,0,1-.5-4.6c0-.2.6-.5,1.8-.7l.3-.4h0a1.5,1.5,0,0,0-.5-1V33.7l.2-5.7c0-3.8-.2-5.8-.5-5.8h-.3l-2.9.4c-.3,0-.7-.3-1.2-.8v-.2a1.7,1.7,0,0,0,.3-1V18.3l1-2.8Zm-.4,4.1h0c0,.2.2.3.4.3a1.7,1.7,0,0,0,1.1-.5h-1C131.6,19.4,131.4,19.4,131.4,19.5Zm.5-2.1h0c0,.2.3.2.9.3,2.7,0,4.1-.2,4.1-.6l.2-.4H137Zm.1,4.1h.6l.2-.2h-.3C132.2,21.3,132,21.4,132,21.5Zm1.1-2.6.2.2h.1c.6-.1.8-.2.8-.3H134C133.4,18.7,133.1,18.8,133.1,18.9Zm.6,1.4h1.4c.4,0,.6.1.7.3h0a1.3,1.3,0,0,0-.3.7l.7.2c.2,0,.2-.1.2-.2V19.1h-.2l-2.4,1h-.1Zm.5,21.5h0q.2,1.2.9,1.2h.3l.2-.3h0a1.9,1.9,0,0,1-.6-1.2h-.6Zm1.7-19v.3h.2v-.9h-.1C136,22.2,136,22.4,135.9,22.8ZM137,44.5c0,.2.5.3,1.6.3s3-.1,3-.3-.7-.4-2-.4S137.1,44.3,137,44.5Zm.8-24V22a2,2,0,0,1-.2.9v.4l.2.9v.4a.8.8,0,0,0,.3.7c.1,0,.2-.4.4-1.4s.9-.8.9-1.1a5.7,5.7,0,0,0-.7-1.3c-.1-.7-.3-1-.5-1Zm.8,3.9v.4a1.1,1.1,0,0,1-.5.9.9.9,0,0,1,.3.6c0,2.1.1,3.2.4,3.2h.1a7.8,7.8,0,0,0,.4-2.9c0-1.6-.2-2.4-.5-2.4h-.1C138.7,24.2,138.6,24.2,138.6,24.4Zm1.7-3.3v.2a2.9,2.9,0,0,0,1.9-1.1H142A3.1,3.1,0,0,0,140.3,21.1Zm.1,3.4v.2c1-.1,2.5-1,4.4-2.7h-.4a4.2,4.2,0,0,0-1.4.8C141.2,23.4,140.4,24,140.4,24.5Zm.4,1.7v.2h.2V26h-.1Zm1.4-.3h0l.2.2h.2l.2-.7h-.2Zm1.2-.9h.2c.6-.6,1-1,1-1.3h-.2C144.1,23.7,143.7,24.1,143.4,25Zm.5-5.5h.1q.6-.2.6-.3h-.2C144.1,19.3,143.9,19.4,143.9,19.5Zm1.1-.6.2.2c1.9-.5,2.9-.8,2.9-1H148a5.8,5.8,0,0,0-3,.9Zm.4,5.4c.8-.2,1.3-.4,1.3-.7h-.3C145.8,23.5,145.4,23.7,145.4,24.3Zm2.8-3.5V21h.4c.6-.1.9-.3.9-.4v-.2h-.4C148.5,20.5,148.2,20.6,148.2,20.8Zm1-3h0a3.1,3.1,0,0,1,1.5.7l.7.2h2.1c-.1-.2-.4-.3-.8-.3h-.8a4,4,0,0,0-2-.8A.8.8,0,0,0,149.2,17.8Zm.1,4.3h.2c.9,0,1.4-.1,1.4-.2l-.6-.2C149.7,21.9,149.3,22,149.3,22.1Zm2.2,1.2v.2h1.6v-.4l-.2-.3h-.3C151.9,23,151.5,23.1,151.5,23.3Zm1.2-2.7c0,.2.4.3,1.2.4a.9.9,0,0,0,.3-.6c0-.2-.4-.3-1.1-.5A1,1,0,0,0,152.7,20.6Zm.6,27.1v.2c0,.2.5.4,1.6.4h.9a3,3,0,0,0-2-.6h-.3Zm.2-3v.4h.5l-.3-.3Zm.2-23.2h.4Zm1.2-1.1a.5.5,0,0,0,.5.3h.4l.2-.2h0c0-.1-.2-.2-.6-.2h-.3Zm.1,1.7v.2a6.8,6.8,0,0,0,.9,1.7c0,.3,0,.5.2.5l.2-.2V24a2.6,2.6,0,0,0-1.2-1.9Zm0,24.2c.2.3.4.5.7.5,2.2-.1,3.4-.2,3.4-.4a1.9,1.9,0,0,0-1.6-.5C155.8,45.9,155,46.1,155,46.3Zm.7-7.5A2.1,2.1,0,0,1,156,40h.2V38.2A.5.5,0,0,0,155.7,38.8Zm.3-13.7v.3a21.8,21.8,0,0,0,1,2.9v-1C156.8,25.9,156.4,25.1,156,25.1Zm0,12.7h.2a1,1,0,0,0,.2-.7v-.7h-.1C156.2,36.5,156.1,36.9,156,37.8Zm2.1,4.7v.3l.2.2h.1l.2-.2h0l-.3-.3Zm.1-1.1h.1l.2-.7h-.1C158.3,40.7,158.2,40.9,158.2,41.4Zm.1-3.2v.3h.1v-.3Zm0-4.9h0l.3.8h.3C158.8,33.6,158.7,33.3,158.3,33.3Zm.4-8c.1,2.2.3,3.3.7,3.3h.1c-.1-2.2-.4-3.3-.7-3.3Zm1.1,13.2v2.8h.1a3.2,3.2,0,0,0,.7-1.8h0C160.5,38.8,160.3,38.5,159.8,38.5Zm1.9,5.4v.2c1.8,0,2.8-.2,2.8-.4v-.2h-.9C162.3,43.6,161.7,43.7,161.7,43.9Zm.6,1.3v.2c0,.2.2.3.5.3s1.1-.2,1.2-.5h0c-.1-.2-.3-.3-.7-.3H163C162.6,44.8,162.3,44.9,162.3,45.2Z" transform="translate(-0.4 0)" style="fill:#b75326"/><path d="M171.6,6.8a5.4,5.4,0,0,1,3.9,1.9,7.2,7.2,0,0,1,1.1,4.2q.3,0,.3.6h0a7.4,7.4,0,0,1-.5,2.2l-.9,2.8-2.1,2.6q-1.2-.7-1.2-1.5a19.1,19.1,0,0,1,.8-3.9v-.2c0-.6-.3-.9-1-1.2s-3.3-2.3-3.3-3.5v-.4Q169.1,6.8,171.6,6.8Zm-1.2,3v.5c0,.4.1.6.3.7a4.6,4.6,0,0,1,1.7-1.7h-1.1V8.8l.5-.5h-.2C171,8.2,170.5,8.7,170.4,9.8Zm1.4,4h0l.2.2h.8l.2-.2h-1.2Zm.6-2.5h.1c.4,0,.6-.2.6-.7h-.4C172.5,10.7,172.4,10.9,172.4,11.3ZM174,16v.3h.1l.3-.2V16l-.3-.2Zm.4-4.2V12h.2c.1,0,.2-.1.3-.4h-.2Zm.7,5.1-.3.7h.1l.4-.5v-.2Zm-.3-2.8v.2h.2l.2-.2v-.2H175Z" transform="translate(-0.4 0)" style="fill:#b75326"/><path d="M212.1,0a3.9,3.9,0,0,1,2.3.7A25.9,25.9,0,0,0,213.3,7l-.5,5.6c0,.3.8.5,2.4.5,4.9,0,7.4.2,7.4.6l.7.4a3.1,3.1,0,0,0-.6,1.2v.2l.2,1.2-.8,2.8q0,.3.9,1.2h0a7.9,7.9,0,0,1-2.4.5c-.7-.1-1-.2-1-.3h1l.2-.2v-.2H213c-.2,0-.4,1.2-.6,3.5h-.1l-.9-.9v1c0,1.2.2,1.8.4,1.9s.3-.4.4-1.2v-.4h.2v.2l-.5,5.9c.4,6.5.7,9.8,1.1,9.8s.7,1.9,1.5,1.9a3.5,3.5,0,0,0,1.7.4H221c.2,0,.3,1.1.5,3.3s-.6,1.9-2.2,1.9h-4.8a9.9,9.9,0,0,1-6.5-2.1c-1.1-.5-1.7-1.7-1.7-3.8s-.3-4.9-.5-9.8l1-5.4.2-3.7v-.5c-.3-1.7-.8-2.5-1.5-2.5h-4a4.9,4.9,0,0,0-1.9.5c-.4-.1-.9-.6-1.5-1.7l1.2-5.5,7.5-.3a3.5,3.5,0,0,1,.9-2c.1-6.4.4-9.6.6-9.6V.9l-.2-.2h0C208.1.4,209.4.2,212.1,0ZM199.7,13.7a.5.5,0,0,0,.5.5h1l4.7-.3h0c0-.3-1-.4-3-.4h-2.7C199.9,13.5,199.7,13.6,199.7,13.7Zm.8,1.4v.3q0,.6,4.2.6,2.1,0,2.1-.3c0-.4-1.8-.7-5.4-.7h-.9Zm.5,2.2c0,.2.1.2.3.2h3.3a9,9,0,0,0-2.8-.3h-.6Zm0,.8h0c0,.3,1.5.4,4.7.4h.5v-.2Zm5.7,13.5.2,1.7v2.8h.2c.2,0,.4-.9.4-2.9V31.8c.1.1.1.2-.1.2A.8.8,0,0,1,206.7,31.6Zm1.9,8v1.3h.1V39.7h-.3Zm.3,4.2v.3c.2,1,.6,1.5,1.4,1.5h.7c0-.2-.3-.3-1.1-.5l-.8-1.1Zm.6-22.5v.5h.1c.2,0,.3-.1.3-.4v-.6h-.1C209.6,20.9,209.5,21.1,209.5,21.3Zm.1,1.2v1h.3v-1Zm.1-20.8V2h.2V1.8h-.2Zm0,25.1v.5l.2.2h.1v-.7ZM210,3.9a6.2,6.2,0,0,0-.1,1.6v.3h.1l.2-1.1V4.1Zm.2,2.8-.2,6.1h.3c.3,0,.4-.5.4-1.5V7c-.1-.2-.1-.3-.2-.3Zm.4,29.8v.9c0,.3.1.5.3.5h.1c.2,0,.2-.2.2-.4s-.2-1-.4-1Zm0,7h0v.4a1,1,0,0,0,.4.5h.4C211.4,43.9,211.2,43.6,210.6,43.5Zm.6-4.4-.3.8a1.8,1.8,0,0,0,.7,1.7v-.8C211.6,39.8,211.5,39.2,211.2,39.1Zm.2-16.9h0l.3.3h0v-.2l-.2-.2ZM212.2,2h0l.2,1.5h.1a2.1,2.1,0,0,0,.7-1.3V2l-.2-.2h-.6Zm1.5,13.7h0c0,.2.7.4,2.2.4H217l1.3.3h.3c.3,0,.4-.1.4-.4h0l-4.7-.4h-.5Zm.9,2.8h0q.2.3,2.1.6h.2a3.6,3.6,0,0,0-2-.6Zm3.6-4.6h-1.8V14a7.4,7.4,0,0,0,2.3.4h1.5a.3.3,0,0,0,.1-.2c-.1-.5-.3-.7-.7-.7H219Zm-.8,30.8h.3c1.5-.3,2.3-.6,2.3-.9h-.2Q217.4,44.4,217.4,44.7Zm.6-25.6a9.3,9.3,0,0,0,3,.5l.2-.2v-.6h-1.4C218.6,18.8,218,18.9,218,19.1Zm2.3-2h0l.2.3h.3a.7.7,0,0,0,.7-.4l-.2-.2h-.8Zm.2-2.8h0l.2.2c.4,0,.6-.1.7-.3h-.7Z" transform="translate(-0.4 0)" style="fill:#b75326"/><path d="M226.7,1.3c5.2.2,7.9.7,7.9,1.5l.4,9a34.9,34.9,0,0,1-1.3,6.3,15.8,15.8,0,0,0-.3,2.6v.4h.1a14.9,14.9,0,0,1,9.5-3.2,17.4,17.4,0,0,1,5.7,1.7,18.5,18.5,0,0,1,2,2.6,1.9,1.9,0,0,1,.6.7v.6a6.5,6.5,0,0,1,1.7,4.9c.2,0,.3,2.1.3,6.1h0a68.1,68.1,0,0,1-1,6.9l-.2,1.1h1.3c1.3.1,2,.3,2,.6s-.6.3-1.9.4h0c0,.2.4.3,1.4.6l.2.3h0l-1.1.3c.7.2,1.1.5,1.1.8,0,2-.5,3-1.6,3h-.6c-1.6,0-2.4-.3-2.4-.8a7.9,7.9,0,0,0-2.5-.3,7.5,7.5,0,0,0-1.8-.8v-.2a66.4,66.4,0,0,1,.8-7.9,39,39,0,0,1,1.1-6.4V30.2l.2-.3a2,2,0,0,1-.9-1.8A12,12,0,0,0,246,26a10.8,10.8,0,0,0-2.6-.9,8.4,8.4,0,0,0-6.2.3c-2.6,1.8-4,3.1-4,4l-.4,4,.2,4.2q-.5,4.5-.9,4.5v.3h.5l1-.4q1.5.1,1.5.9l-.4.4v.3l.8.4v.3c-.2,2.1-.5,3.2-.9,3.2h-.2c-.6-.4-2.9-.7-6.6-.8s-4.1-.7-4.1-1.3v-1c-.1-.2,0-.4.3-.9v-.4a4.1,4.1,0,0,1-.7-1.2,10,10,0,0,1,3-.3q.4,0,.6-2.4a2.9,2.9,0,0,0,.7-2,1.3,1.3,0,0,0,.4-1h0a3.2,3.2,0,0,0-.7-1.9l.7-1.5c.2,0,.4-4.5.5-13.5l.8-9.1V7.5c0-.9-.3-1.4-.8-1.4h-2l-1.4.4c-.2,0-.3-.5-.4-1.6V4.1c0-1.8.3-2.7.7-2.7Zm-2.1,42.1v.2h2.6c0-.3-.6-.5-1.8-.5S224.7,43.2,224.6,43.4Zm.8,2h0a15.1,15.1,0,0,1,3.1.8,37.6,37.6,0,0,1,5.3.5h.2l.2-.3h0c0-.4-1.9-.6-5.9-.6a4.3,4.3,0,0,0-2.4-.6C225.5,45.2,225.4,45.3,225.4,45.4Zm.4-42.3v.4h.3V3.2h-.3Zm1-.9v.3a4.1,4.1,0,0,0,2.1.5V2.8a4.9,4.9,0,0,0-2.2-.6Zm.5,1.3h0v.2h.8V3.6h-.9Zm.2,38q0,.4,2.1.6h.3v-.5a.6.6,0,0,0-.5-.2h-1.2A1,1,0,0,0,227.5,41.5Zm.2-36.9h0c0,.2.2.3.5.3h.8V4.6h-1.3Zm3,7.6a8.2,8.2,0,0,0-.2,2.2c.5,0,.8.4.8,1.1h.1c0-.2.1-.6.1-1.2v-.8h-.1l-.2.6H231v-.3c0-.4.1-.5.2-.5h.4C231.5,13.2,231.2,12.8,230.7,12.2Zm.4-1.6h0l.3.3h.2v-.2l-.2-.3h-.1Zm.1-1.9v.4l.2.2.2-.2V8.8l-.2-.3Zm.9,18.3v.4h.1c.4,0,.7-.4.8-1.1h.1v-.3H233A3.5,3.5,0,0,0,232.1,27Zm.3-24.1a1,1,0,0,0,.6.5h0a.6.6,0,0,0,.6-.3V2.9l-.3-.3h-.6Zm.3,25.2h.6a.6.6,0,0,0,.5-.2l-.2-.2h-.2C233,27.8,232.8,27.9,232.7,28.1Zm.3,15.6V44l.3.3h.4l.2-.3h0l-.4-.4H233Zm.4-.9V43h.2v-.2Zm1.7-19.3h.2c.5-.2.7-.4.7-.6h-.2A2.2,2.2,0,0,0,235.1,23.5Zm2.5,1.5h.1l.3-.2v-.2h-.2Zm2.6-3.1h0l.2.2h.4l-.2-.2Zm.8,2h.2v-.2h-.1Zm.9-.8v.3a4.9,4.9,0,0,0,1.7.6l.2-.2c0-.3-.5-.5-1.5-.8Zm1.7-4.6h0l.7.4h0c0-.2-.2-.3-.7-.4Zm2.2,6.1h0a.5.5,0,0,0,.6.6h0Q246.3,24.6,245.8,24.6Zm.9,21.6v.2a1,1,0,0,0,.8.4h.7v-.2c0-.2-.3-.3-.7-.4Zm.2-26.3h0c.2.4.4.5.9.5v-.2A1,1,0,0,0,246.9,19.9Zm.2,25.6h.3v-.2l-.3-.2Zm.1-.9h2.7a3.7,3.7,0,0,0-2-.4.8.8,0,0,0-.8.5Zm.7-20.9v.2a6.5,6.5,0,0,1,1.8,2.8.7.7,0,0,0,.6.4v-.4c0-.8-.6-1.8-1.8-2.9h-.6Zm.5,18.8v.3h.5l.2-.2v-.3l-.2-.2A.7.7,0,0,0,248.4,42.5Zm1.1-16.8v.2l-.6,1.3h.2l-.3-.4Zm1.4,14.1h.2c.3,0,.6-1.5,1.1-4.6,0-.5-.1-.7-.4-.8h-.2C251.3,34.4,251.1,36.2,250.9,39.8Zm.5-14.3h0l.3.3h.2v-.2l-.3-.4h-.1Zm.4,7.9.2.2h.1v-.2h-.3Z" transform="translate(-0.4 0)" style="fill:#b75326"/><path d="M272,15.6c1.7,0,3.8.8,6.3,2.2s3.1,2.7,3.1,3.3c1.7,3.5,2.5,5.6,2.5,6.2v.5a9.4,9.4,0,0,0-.9,2.9h-5.7l-1.7.2c-6-.5-10.1-.7-12.4-.7h-1.4a3.5,3.5,0,0,0-.7,1.5,4.8,4.8,0,0,1,.4,2.2c0,1.6.2,2.5.7,2.8v.3h0l-.4-.2v.2l.6.6a3.1,3.1,0,0,0,1.1,2c1.4,2.4,2.8,3.9,4.4,4.5a16.3,16.3,0,0,0,4.7.6,3.9,3.9,0,0,0,1.7-.7c.8-.3,2.4-1.6,4.7-4.1h0c0-.1-.3-.2-.8-.3v-.3a6.8,6.8,0,0,1,3.4-3.5l2.3,1.7a49.7,49.7,0,0,0,3.6,4.9v.3c-1.3,1.7-2.3,2.5-2.9,2.5h-.2c0-.9-.5-1.4-1.6-1.5s-1.2.7-2.8,2a13.8,13.8,0,0,1-4.8,2.1,33.5,33.5,0,0,1-5.7.9L266,47.5c-2,0-3.8-1.1-5.5-3.2a7.3,7.3,0,0,1-1.7-2.7c0-.3-.5-2-1.4-5.1a15.5,15.5,0,0,1-.4-3.4h0a21.9,21.9,0,0,1,4.9-14.4,4.7,4.7,0,0,1,2.9-2.3,32.9,32.9,0,0,1,3.6-.7ZM258.1,31.3H258v.2h.1a2,2,0,0,0-.2.9v.3a4.4,4.4,0,0,0,.7,2h.1C258.7,32.7,258.5,31.6,258.1,31.3Zm0-2.3v.4c.1.2.1.4.3.4s.2-.2.3-.6l-.3-.2Zm.8-3.3a5.4,5.4,0,0,0-.8,2.5h.1c.2,0,.6-.7,1.1-2.2S259.1,25.7,258.9,25.7Zm.1,11h0V37h.2v-.2H259Zm.6,1.1h-.1c.2.6.5,1,.7,1h.1A1.5,1.5,0,0,0,259.6,37.8Zm1.8-8.2h.1l1-.2h0l-.2-.3h-.2A.7.7,0,0,0,261.4,29.6Zm.1-7.4h.1Zm0,3.9v.4h.1a2.3,2.3,0,0,0,.7-.7v-.2h-.3A.6.6,0,0,0,261.5,26.1Zm.6-1.6v.2c0,.5,3.7,1,11.2,1.5l.6.2h.8a13.6,13.6,0,0,0,3.3.9c0,.1.1.2.4.3a1.7,1.7,0,0,0,.4-1.1V25.3c0-.6-1-1.8-3.1-3.6a5.9,5.9,0,0,0-3.2-1.7l-2.1-.3c-3.4.7-5.6,1.5-6.7,2.5A16,16,0,0,1,262.1,24.5Zm0-1h0a.5.5,0,0,0,.3-.5h0A.5.5,0,0,0,262.1,23.5Zm.2,21.2v.2c0,.3.4.5,1.1.7l.2.3h0c-.5-.6-.8-1-1.1-1.1Zm.5-23.9V21h0c.6-.2.9-.3.9-.5h-.3A.7.7,0,0,0,262.8,20.8Zm.3,8.4v.3h.3v-.2h-.3Zm.7-11.3h0l.2.2h0c.8-.2,1.2-.4,1.2-.7v-.3l-.2-.3h-.1C264.1,17.2,263.8,17.5,263.8,17.9Zm.8,10.7v.2a46.2,46.2,0,0,0,6.5.5h-1.2c0,.2.5.3,1.6.3s2.5-.1,2.5-.4S270.9,28.8,264.6,28.6Zm.6-2.1v.2a8.5,8.5,0,0,0,4.3.8h1.3v-.3Zm.1-6.1a9.5,9.5,0,0,1,2.5-1h-.7Q265.3,19.5,265.3,20.4Zm1-3.4h.1a14.8,14.8,0,0,0,3.7-.7c.3-.1.5-.2.5-.3h-.2a10.8,10.8,0,0,0-4,.9h-.1Zm.5,27.9h0q0,.3,1.2.6h.1a3.6,3.6,0,0,0-1.3-.5Zm2.1-26.6h0c0,.2.9.4,2.6.7h.1v-.2a2,2,0,0,0-1.7-.8h-.2C269.2,18,268.9,18.1,268.9,18.3Zm1.3,27.3v.2h.3v-.2Zm2.4,1.6H271c-.4,0-.6,0-.6.2h0l.2.2h1.1a18.6,18.6,0,0,0,4.5-.6h0c0-.2-.3-.3-.7-.3h-.3A5.8,5.8,0,0,0,272.6,47.2Zm-1.1-29.9v.2a6.1,6.1,0,0,0,2.5.4h0v-.2c0-.1-.2-.2-.7-.3Zm1.2,1.4h0a25,25,0,0,0,3.7,2h.1l.7-.2h.4l-1.1-.4-1.2-.5a2,2,0,0,0-2-1.1h-.2C272.8,18.5,272.7,18.5,272.7,18.7Zm3.6,9.4v.2h.2v-.2Zm.1,1.7c0,.1.4.2,1.1.2h.6c0-.2-.4-.4-1.3-.4S276.4,29.7,276.4,29.8Zm0,14.1h.1c.3-.1.4-.4.6-.7H277C276.6,43.4,276.4,43.6,276.4,43.9Zm.4,2.7c.5,0,.8-.3,1.1-1h-.2C277.1,46,276.8,46.3,276.8,46.6Zm.7-24.9a.6.6,0,0,0,.6.5h.1v-.6l-.3-.3C277.6,21.3,277.5,21.4,277.5,21.7Zm.8,20.2h.2c.4,0,.7-.3.8-.8h0A1,1,0,0,0,278.3,41.9Zm.5-19.4a5.4,5.4,0,0,0,1,2.2h.4c-.3-1.3-.7-2-1.1-2h-.3Zm.9,15.9h.4c.3,0,.5-.1.5-.2l-.2-.3h-.1A.5.5,0,0,0,279.7,38.4Zm.3,5.8h.3q.6-.6.6-.9h-.1C280.3,43.5,280,43.8,280,44.2Zm1-18.8V26c.2,0,.3-.2.3-.4v-.2H281Zm.2,17,.2.2c.6-.2.9-.5.9-.8h-.1C281.6,41.7,281.3,41.9,281.2,42.4Zm1.4-.6h.2a.5.5,0,0,0,.4-.6h-.1C282.8,41.4,282.6,41.6,282.6,41.8Zm2.2-.6h-.1c.2.5.3.8.5.8h.1l.2-.2h0A.7.7,0,0,0,284.8,41.2Z" transform="translate(-0.4 0)" style="fill:#b75326"/><path d="M308.6,15.4l3,.2h5l.2.2a6.7,6.7,0,0,0-.3,1.7v1.1c.1,1.2.4,1.7.9,1.7a5.9,5.9,0,0,1,2.5-1.3c3.3-1.4,6-2.2,8.2-2.2a7.9,7.9,0,0,1,4.5,1.9,8.1,8.1,0,0,1,3.4,2.9,17,17,0,0,1,2.5,9.5v.5l-.4,4.4.4,3.2-.6,2.9h0v.6h3.4a1.9,1.9,0,0,1,1.3.3c-.2,3-.6,4.5-1,4.5a5.3,5.3,0,0,1-2.6.7h-1.3a23.5,23.5,0,0,0-6.2.8c-1.5-.2-2.2-.9-2.2-2.2V44.8a4.6,4.6,0,0,1,1-3.1c.4-1.9.9-3.8,1.4-5.5l.4-5.4c.1,0,.1-.5.1-1.4s-.9-2.7-2.6-4.8l-2.4-.8a8.8,8.8,0,0,0-6.4,3q-.3,0-3,3-.9.8-.9,4.2c.1,4.1.2,6.2.5,6.2s2.4.6,2.4.9v.3h-2.3v.2q0,.3,2.4.6a2.7,2.7,0,0,1,.4,1.5h0a9.7,9.7,0,0,1-.7,3.1h-7.1a1.5,1.5,0,0,1-1.6-1,40.8,40.8,0,0,1-.6-4.6c0-.2.7-.5,1.9-.7l.3-.4h0a2.3,2.3,0,0,0-.5-1V33.7l.2-5.7c0-3.8-.2-5.8-.5-5.8h-.3l-2.9.4c-.3,0-.7-.3-1.2-.8v-.2a1.7,1.7,0,0,0,.3-1V18.3l1-2.8Zm-.3,4.1h0c0,.2.1.3.4.3a1.7,1.7,0,0,0,1.1-.5h-1C308.5,19.4,308.3,19.4,308.3,19.5Zm.5-2.1h0c0,.2.3.2.9.3,2.7,0,4.1-.2,4.1-.6l.2-.4h-.2Zm.1,4.1h.6l.2-.2h-.3C309,21.3,308.9,21.4,308.9,21.5Zm1.1-2.6.2.2h.1c.6-.1.8-.2.8-.3h-.2C310.3,18.7,310,18.8,310,18.9Zm.6,1.4H312c.4,0,.6.1.7.3h0a1.3,1.3,0,0,0-.3.7l.7.2a.2.2,0,0,0,.2-.2V19.1h-.2l-2.5,1h0Zm.5,21.5h0q.1,1.2.9,1.2h.3l.2-.3h0a1.9,1.9,0,0,1-.6-1.2h-.6Zm1.7-19v.3h.1l.2-.9H313C312.9,22.2,312.8,22.4,312.8,22.8Zm1,21.7c0,.2.6.3,1.7.3s3-.1,3-.3-.7-.4-2-.4A5.4,5.4,0,0,0,313.8,44.5Zm.9-24V22a2,2,0,0,1-.2.9v.4l.2.9v.4a.8.8,0,0,0,.3.7c.1,0,.2-.4.4-1.4s.9-.8.9-1.1a5.7,5.7,0,0,0-.7-1.3c-.1-.7-.3-1-.5-1Zm.8,3.9v.4a1.4,1.4,0,0,1-.5.9.9.9,0,0,1,.3.6c0,2.1.1,3.2.4,3.2h.1a7.8,7.8,0,0,0,.4-2.9c0-1.6-.2-2.4-.5-2.4h-.1C315.6,24.2,315.5,24.2,315.5,24.4Zm1.7-3.3v.2a2.6,2.6,0,0,0,1.8-1.1h-.1A3.1,3.1,0,0,0,317.2,21.1Zm.1,3.4v.2c1-.1,2.5-1,4.4-2.7h-.4a5.4,5.4,0,0,0-1.5.8C318.1,23.4,317.3,24,317.3,24.5Zm.4,1.7v.2h.2V26h-.1Zm1.4-.3h0l.2.2h.2l.2-.7h-.2Zm1.2-.9h.2c.6-.6.9-1,.9-1.3h-.1C321,23.7,320.6,24.1,320.3,25Zm.5-5.5h.1c.4-.1.5-.2.5-.3h-.1C321,19.3,320.8,19.4,320.8,19.5Zm1.1-.6.2.2c1.9-.5,2.9-.8,2.9-1h-.1a5.8,5.8,0,0,0-3,.9Zm.3,5.4c.9-.2,1.4-.4,1.4-.7h-.3C322.7,23.5,322.3,23.7,322.2,24.3Zm2.9-3.5V21h.3c.7-.1,1-.3,1-.4v-.2H326C325.4,20.5,325.1,20.6,325.1,20.8Zm1-3h0a3.1,3.1,0,0,1,1.5.7l.7.2h2c-.1-.2-.3-.3-.7-.3h-.8a4,4,0,0,0-2-.8C326.4,17.5,326.2,17.6,326.1,17.8Zm.1,4.3h.2c.9,0,1.4-.1,1.4-.2l-.6-.2C326.5,21.9,326.2,22,326.2,22.1Zm2.2,1.2v.2h1.5l.2-.2v-.2l-.3-.3h-.3C328.8,23,328.4,23.1,328.4,23.3Zm1.2-2.7c0,.2.4.3,1.1.4s.4-.4.4-.6-.4-.3-1.1-.5A1,1,0,0,0,329.6,20.6Zm.6,27.1v.2c0,.2.5.4,1.6.4h.9a3.3,3.3,0,0,0-2.1-.6h-.2Zm.2-3v.4h.5l-.3-.3Zm.2-23.2h.4Zm1.2-1.1a.5.5,0,0,0,.5.3h.4l.2-.2h0c0-.1-.2-.2-.6-.2H332Zm.1,1.7v.2a9.1,9.1,0,0,0,.8,1.7c0,.3.1.5.3.5l.2-.2V24a2.6,2.6,0,0,0-1.2-1.9Zm0,24.2a.8.8,0,0,0,.7.5c2.2-.1,3.3-.2,3.3-.4a1.7,1.7,0,0,0-1.5-.5C332.7,45.9,331.9,46.1,331.9,46.3Zm.7-7.5a2.1,2.1,0,0,1,.3,1.2h.2V38.2A.5.5,0,0,0,332.6,38.8Zm.3-13.7v.3a21.8,21.8,0,0,0,1,2.9v-1C333.7,25.9,333.3,25.1,332.9,25.1Zm0,12.7h.2a1,1,0,0,0,.2-.7v-.7h-.1C333.1,36.5,333,36.9,332.9,37.8Zm2.1,4.7v.3l.2.2h.1l.2-.2h0l-.3-.3Zm.1-1.1h0l.3-.7h-.1C335.2,40.7,335.1,40.9,335.1,41.4Zm0-3.2v.3h.2v-.3Zm.1-4.9h0l.3.8h.3C335.7,33.6,335.6,33.3,335.2,33.3Zm.4-8c.1,2.2.3,3.3.7,3.3h.1c-.2-2.2-.4-3.3-.7-3.3Zm1.1,13.2v2.8h.1a3.2,3.2,0,0,0,.7-1.8h0C337.4,38.8,337.2,38.5,336.7,38.5Zm1.9,5.4v.2c1.8,0,2.8-.2,2.8-.4v-.2h-.9C339.2,43.6,338.6,43.7,338.6,43.9Zm.5,1.3v.2a.6.6,0,0,0,.6.3c.7,0,1.1-.2,1.2-.5h0c-.1-.2-.3-.3-.7-.3h-.3C339.5,44.8,339.2,44.9,339.1,45.2Z" transform="translate(-0.4 0)" style="fill:#b75326"/><path d="M359.3,15.6c1.7,0,3.8.8,6.3,2.2s3.2,2.7,3.2,3.3c1.6,3.5,2.4,5.6,2.4,6.2v.5a9.4,9.4,0,0,0-.9,2.9h-5.6l-1.8.2c-5.9-.5-10.1-.7-12.4-.7h-1.4a3.5,3.5,0,0,0-.7,1.5,4.8,4.8,0,0,1,.4,2.2c0,1.6.3,2.5.7,2.8v.3h0l-.4-.2v.2l.7.6a2.7,2.7,0,0,0,1.1,2c1.3,2.4,2.8,3.9,4.4,4.5a15.1,15.1,0,0,0,4.6.6,4.6,4.6,0,0,0,1.8-.7c.8-.3,2.3-1.6,4.6-4.1h0c0-.1-.2-.2-.8-.3v-.3a7.2,7.2,0,0,1,3.4-3.5l2.3,1.7a49.7,49.7,0,0,0,3.6,4.9v.3c-1.3,1.7-2.2,2.5-2.8,2.5h-.3c0-.9-.5-1.4-1.6-1.5a11.7,11.7,0,0,0-2.7,2,15.5,15.5,0,0,1-4.9,2.1,33.5,33.5,0,0,1-5.7.9l-3.5-1.3c-2,0-3.8-1.1-5.4-3.2a7.5,7.5,0,0,1-1.8-2.7,34.5,34.5,0,0,0-1.4-5.1,25.5,25.5,0,0,1-.4-3.4h0a22.4,22.4,0,0,1,4.9-14.4,5,5,0,0,1,2.9-2.3l3.6-.7ZM345.4,31.3h0v.2h0a2.2,2.2,0,0,0-.1.9v.3a4.1,4.1,0,0,0,.6,2h.1C346,32.7,345.8,31.6,345.4,31.3Zm0-2.3v.4c0,.2.1.4.2.4s.2-.2.3-.6l-.2-.2Zm.8-3.3a5.4,5.4,0,0,0-.8,2.5h.1c.2,0,.6-.7,1.1-2.2S346.4,25.7,346.2,25.7Zm.1,11h0V37h.2v-.2h-.3Zm.6,1.1h-.1c.3.6.5,1,.7,1h.1A1.3,1.3,0,0,0,346.9,37.8Zm1.8-8.2h.1l1.1-.2h0l-.3-.3h-.1A.9.9,0,0,0,348.7,29.6Zm.1-7.4h.1Zm0,3.9v.4h.1a2.3,2.3,0,0,0,.7-.7v-.2h-.2A.8.8,0,0,0,348.8,26.1Zm.6-1.6v.2c0,.5,3.7,1,11.2,1.5l.6.2h.8a14.9,14.9,0,0,0,3.3.9c0,.1.2.2.4.3a1.7,1.7,0,0,0,.4-1.1V25.3c0-.6-1-1.8-3.1-3.6a5.6,5.6,0,0,0-3.2-1.7l-2.1-.3c-3.4.7-5.6,1.5-6.7,2.5A10.6,10.6,0,0,1,349.4,24.5Zm.1-1h0a.5.5,0,0,0,.3-.5h0A.5.5,0,0,0,349.5,23.5Zm.1,21.2v.2c.1.3.4.5,1.1.7l.3.3h0a5.3,5.3,0,0,0-1.1-1.1Zm.5-23.9V21h.1c.5-.2.8-.3.8-.5h-.3A.7.7,0,0,0,350.1,20.8Zm.3,8.4v.3h.3v-.2h-.3Zm.7-11.3h0l.2.2h0c.9-.2,1.3-.4,1.3-.7v-.3l-.3-.3h-.1C351.5,17.2,351.1,17.5,351.1,17.9Zm.8,10.7v.2a47.8,47.8,0,0,0,6.5.5h-1.2c0,.2.5.3,1.6.3s2.6-.1,2.6-.4S358.2,28.8,351.9,28.6Zm.6-2.1v.2a8.8,8.8,0,0,0,4.3.8h1.3v-.3A53.2,53.2,0,0,0,352.5,26.5Zm.2-6.1a8.1,8.1,0,0,1,2.5-1h-.8C353.3,19.4,352.7,19.8,352.7,20.4Zm.9-3.4h.1a14.1,14.1,0,0,0,3.7-.7q.6-.2.6-.3h-.3a11.3,11.3,0,0,0-4,.9h-.1Zm.5,27.9h0c0,.2.4.4,1.3.6h.1a3.9,3.9,0,0,0-1.4-.5Zm2.2-26.6h0c0,.2.8.4,2.5.7h.1v-.2a1.9,1.9,0,0,0-1.7-.8H357C356.5,18,356.3,18.1,356.3,18.3Zm1.3,27.3v.2h.2v-.2Zm2.3,1.6h-1.5c-.4,0-.6,0-.7.2h0l.3.2h1.1a19.9,19.9,0,0,0,4.5-.6h0c-.1-.2-.3-.3-.8-.3h-.3A5.8,5.8,0,0,0,359.9,47.2Zm-1.1-29.9v.2a6.1,6.1,0,0,0,2.5.4h.1v-.2c0-.1-.3-.2-.8-.3Zm1.2,1.4h0a19.1,19.1,0,0,0,3.8,2h.1l.6-.2h.4l-1-.4-1.3-.5a1.9,1.9,0,0,0-2-1.1h-.2C360.1,18.5,360,18.5,360,18.7Zm3.6,9.4v.2h.3v-.2Zm.1,1.7c0,.1.4.2,1.1.2h.6c0-.2-.4-.4-1.2-.4S363.7,29.7,363.7,29.8Zm0,14.1h.2a1.3,1.3,0,0,0,.5-.7h0C363.9,43.4,363.7,43.6,363.7,43.9Zm.5,2.7c.4,0,.7-.3,1-1H365C364.5,46,364.2,46.3,364.2,46.6Zm.6-24.9a.6.6,0,0,0,.6.5h.1v-.6l-.3-.3C365,21.3,364.8,21.4,364.8,21.7Zm.8,20.2h.2c.4,0,.7-.3.9-.8h0C366.2,41.1,365.9,41.3,365.6,41.9Zm.5-19.4c.4,1.3.8,2.1,1.1,2.2h.3c-.3-1.3-.7-2-1.1-2h-.3Zm1,15.9h.4c.2,0,.4-.1.4-.2l-.2-.3h-.1C367.3,38,367.2,38.1,367.1,38.4Zm.3,5.8h.2q.6-.6.6-.9h-.1A.9.9,0,0,0,367.4,44.2Zm.9-18.8V26a.4.4,0,0,0,.4-.4v-.2h-.5Zm.2,17,.2.2c.6-.2.9-.5.9-.8h0C369,41.7,368.6,41.9,368.5,42.4Zm1.5-.6h.2a.7.7,0,0,0,.4-.6h-.2A.7.7,0,0,0,370,41.8Zm2.1-.6H372c.2.5.4.8.6.8h.1v-.2h0A.7.7,0,0,0,372.1,41.2Z" transform="translate(-0.4 0)" style="fill:#b75326"/><path d="M378.5,14.8a2,2,0,0,0,1.3.4l.7-.3c5.6,0,8.4.1,8.4.5v1.4a5.2,5.2,0,0,1,.5,2.4v1c-.4,5.7-.7,11.1-.9,16.3a3.5,3.5,0,0,0-.3,1.3.6.6,0,0,0,.6.3h.2c2.2,0,3.4.2,3.4.7h-.1v.4a13.3,13.3,0,0,1,.7,4.7l.2,2.5h-9c-4.7,0-7-.3-7-1.1a3.5,3.5,0,0,0-.3-1.3,1.3,1.3,0,0,1,.6-.7h.1a.7.7,0,0,0,.6.2h.2l4.2-.3h0c-3.5-.2-5.3-.5-5.3-.8V41.3l-.2-1.5c0-.5,1.6-.7,4.7-.7q.6,0,.6-2.7l.7-16.3h-.1c-1.5,0-2.1-.1-1.6-.4-2.4,0-3.7-.3-3.7-.9s-.2-.2-.2-.5l.3-.7a.7.7,0,0,0-.4-.6h0c.4-.3.6-.9.7-2h.3Zm.2,26.5h0c.3.4,1.5.6,3.8.6h.4q.6,0,.6-.3h0l-4.4-.3Zm.6-25.2v.2h.4c1,0,1.6-.1,1.6-.3h-.4C379.9,15.9,379.3,15.9,379.3,16.1Zm.3.9h0c0,.1.2.2.8.2h2.9c.6,0,1-.1,1-.2h0c0-.3-1.2-.3-3.7-.1Zm7.3-14.3a4,4,0,0,1,3.4,2.2l.4,2.1a8.2,8.2,0,0,1-1.4,3,3.3,3.3,0,0,1-2.4.8c-2.6,0-4.2-.4-4.9-1.2a5.1,5.1,0,0,1-.8-3.4c-.2,0-.3-.1-.3-.2h0C382.2,4,383.4,3,384.8,3Zm-3.4,1.9h0a5.3,5.3,0,0,0,2.1-.5l-.3-.2C384.1,4.1,383.5,4.3,383.5,4.6Zm.3,29.7c.1.3.2.5.3.5s.1-.2.2-.6v-1a7.7,7.7,0,0,0,.7-2.4V29.5l.4-.4a3.9,3.9,0,0,1-.3-1.4h0q.3,0,.6-6.9c-.1-.4-.2-.5-.3-.5h-.1c-.6,0-.9,2-1,6.1Zm1.4,9.3h-.9v.2h2.6v-.2h-1.7Zm-.5-37.3h.4c.5,0,.8-.1.9-.5h-.8a.6.6,0,0,0-.6.5Zm.2,35.7.2.2h.1c.3,0,.5-.2.5-.6h-.3C385.1,41.6,384.9,41.7,384.9,42Zm.6-4.1v.3h.2l.2-.2h0v-.2h-.1Zm0-1.1v.4h.2c.2-.1.3-.3.3-.8V36h-.2C385.7,36,385.6,36.2,385.5,36.8Zm.1-19.9v.2a1.8,1.8,0,0,1,1,.6h.2c.1,0,.1-.1.1-.2h.1c.2,0,.3.2.4.6h.1l.8-.7v-.3h-2.7Zm.3,3.5.3,1-.4,1c.2.5.3.7.4.7h.1v-.8c0-1.5.2-2.3.7-2.3l.2-.2v-.3h-.6C386.2,19.4,385.9,19.8,385.9,20.4Zm.6,10.5a14.1,14.1,0,0,0-.6,3.5h.1c.2,0,.5-.9.8-2.6v-.9ZM386,9.1v.2h1.1l.2-.2H386Zm.8,11.9v.3a.5.5,0,0,0,.3.5h.2l.2-.2v-.3a1,1,0,0,0-.5-.4Zm.8-13.2V8h.2a.8.8,0,0,0,.7-.4V7.4h-.2A.9.9,0,0,0,387.6,7.8Zm0,8,.2.2h.1v-.2l-.2-.2Zm1.2-9.7v.2h.1l.2-.2V5.8H389Zm1.3,35.8a1,1,0,0,0,1.1.8h.2v-.4l.5-.3v-.4a.5.5,0,0,0-.3-.5h-.2c-.1,0-.3.2-.4.6Zm.4-2.7a2.4,2.4,0,0,0,1.2.4v-.2c0-.1-.2-.2-.7-.3h-.5Zm0,4.2h.1l.2-.2h-.1Zm1.5,2.5h.5l-.2-.2h-.1Z" transform="translate(-0.4 0)" style="fill:#b75326"/><path d="M408,14.3h2.1a19.3,19.3,0,0,1,4.8,1.3,8.9,8.9,0,0,1,3.9,1.6h.3c.4,0,1.4-.8,2.9-2.5.4,0,1,.6,1.9,1.7a4.7,4.7,0,0,1,1.4,1.2v.2c-2.3,2.5-3.5,3.9-3.5,4.2-1.1,3.7-1.8,5.8-2.2,6.3a8.5,8.5,0,0,1-3.3,2.1c-1.8,1.8-3.4,2.8-4.9,2.8h-1.9l-4-.4h-.7c-.3,0-.8,1.4-1.4,4.1l.5.2h.3a4.3,4.3,0,0,0,2-.8h4a33.2,33.2,0,0,1,9.7,1.1l2.7,1.4,2.2,1.5a8.9,8.9,0,0,1,3,3.8c1.5,2.9,2.3,5.3,2.3,7.3s-1.2,3.4-3.6,5.7l-3.8,2.7a13.1,13.1,0,0,1-7,1.9l-1.8.2c-7.3,0-12.2-1.5-14.8-4.5a5,5,0,0,1-2.9-4.4,10.9,10.9,0,0,1-1.1-5.2l-.2-1.4.2-.8h.2c.2,1,.4,1.4.6,1.4h.2a42.5,42.5,0,0,1,1.3-5.2h-.1a13.5,13.5,0,0,0-1.8,3.4h-.1c-.1,0-.2-.3-.3-.7a12.9,12.9,0,0,1,2.3-4.3,11.6,11.6,0,0,0,2.4-2.6c.4-3.4.7-5.6.9-6.3a12.3,12.3,0,0,1-1.5-5.1V25a14.4,14.4,0,0,1,.8-3.9c.4-.4,1.2-1.5,2.6-3.3S406.5,14.3,408,14.3ZM395.7,49.2v.4l.3.3h.1v-.7h-.4Zm.4,1.1h0c0,.3.1.5.2.5h.2v-.2l-.4-.3Zm1.8-5.4v.3h.1c.2,0,.5-.6.8-1.9h-.1A2.1,2.1,0,0,0,397.9,44.9Zm.6-3.6v.2h.2c1-.2,1.5-.6,1.5-1v-.4L400,40A5.2,5.2,0,0,0,398.5,41.3Zm0,13.2c.1.3.2.4.4.4l.3-.3c-.1-.1-.2-.3-.4-.4Zm.8-5v1.3q0,1.2.3,1.2h.1c.1,0,.2-.1.2-.4v-.8q0-1.5-.3-1.5h-.1Zm.3-6.2v.3h.2l.4-.4V43A.6.6,0,0,0,399.6,43.3Zm.1-19a3.3,3.3,0,0,0,.6,2.1h.3c.1,0,.1-.1.1-.2-.1-1.7-.3-2.6-.6-2.6S399.8,23.8,399.7,24.3Zm10.5,17h0v.2h-6.9c-1.9,1.8-2.8,3-2.8,3.7l-.4.4h0c.3,4.2.7,6.8,1.3,7.7s.8.8,2.2,1.8,1.2.9,3.7,1.5a58.8,58.8,0,0,0,9,.9q4.6-.9,6.3-2.7c2-2.1,3-3.8,3-5v-.4c0-.7-.8-2.1-2.4-4.1a4.2,4.2,0,0,0-1.8-1.7,13.6,13.6,0,0,0-5.5-2.2H412v-.4h-.8Zm-10,14.8h.6v-.3h-.4Zm.3-33.7h.1a5.6,5.6,0,0,0,1.1-1.3h-.2C401.2,21.1,400.9,21.5,400.5,22.4Zm0,20.3v.2h.1l.8-.2v-.3h-.1C400.8,42.5,400.5,42.6,400.5,42.7Zm.1-13.1v.2a2.8,2.8,0,0,0,1.8,1.4h0c-.4-1-.9-1.5-1.6-1.5Zm.4,10.6.4.2h.4l.3-.3v-.4l-.3-.2C401.4,39.5,401.2,39.7,401,40.2Zm.2,15.2v.2l.2.2h.4a.5.5,0,0,0-.5-.3Zm.8-22.9v.4c0,.4.2.7.5.7l.2-.2v-1l-.2-.2h-.2Zm.7-7.3h0a2.4,2.4,0,0,0,.7,1.8h0v-.2c0-1-.2-1.7-.6-1.8Zm.4,5h0a.9.9,0,0,0,.8.6c.1,0,.3-.2.4-.4s-.3-.3-1-.5Zm.5-6.7v.3c.6,3.1,1.1,4.7,1.4,4.7a4.3,4.3,0,0,0,2.5,1.4c3.1,0,5.3-.7,6.7-2.1a7.8,7.8,0,0,0,2.2-3,2.1,2.1,0,0,0,.5-1.3v-.9a6,6,0,0,0-1.5-3.1,15.2,15.2,0,0,0-4.6-1.4,8.2,8.2,0,0,0-5.6,2.5A6.5,6.5,0,0,0,403.6,23.5Zm.2,15.7,1.9.2.9-.2a2,2,0,0,0-.8-.8h-.7C404.2,38.6,403.8,38.8,403.8,39.2Zm.4-19.5h.3c.2,0,.6-.3,1-.9v-.2h-.4C404.5,19.1,404.2,19.4,404.2,19.7Zm.5,11.1h-.1v.5l.3.2h1v-.2Zm.5,9.8.2.2h.4v-.3h-.3Zm.5-24.7h0c1.5-.3,2.2-.7,2.2-.9h-.2A3.2,3.2,0,0,0,405.7,15.9Zm10.4,42.9c-5-.4-7.8-.7-8.6-1h-1.7a5.1,5.1,0,0,0,2.1.9h1.9l.4.3h.2a17.5,17.5,0,0,0,3.5.3h1.4a6.9,6.9,0,0,0,3.7-.7,10.3,10.3,0,0,0,2.6-1.1h0A55,55,0,0,0,416.1,58.8Zm-9.5-27.1c0,.3.6.5,2,.5h1.8c.2,0,.4-.1.4-.2a9.4,9.4,0,0,0-3.4-.5h-.6Zm.4,5.7Zm.3-20.3v.3h.1l1.9-.7v-.3h-.6C407.8,16.6,407.3,16.9,407.3,17.1Zm.4,42.9h0l.2.2h.1Zm1,.5h0c.1.2.3.3.7.3h.7q0-.3-1.2-.3Zm1.8-29.9c0,.1.3.2,1,.2h.6c0-.2-.3-.4-.9-.4h-.5Zm0,6.8h0c0,.3,2.1.6,6.3.7l1.4.5h0a.9.9,0,0,0,.6-.3h1.8c-.2-.4-.7-.6-1.4-.6h-.6l-.6.2h-.1l-1.4-.6-4-.2h-.7Zm1.6-7.5h0l.3.4h.2c.3,0,.7-.4,1.3-1h-.6A1.4,1.4,0,0,0,412.1,29.9Zm1.7,30.7v.2a.5.5,0,0,0,.4.2h1.2v-.3h-1.6Zm.1-19.8c0,.2,1,.3,3.1.4a14.9,14.9,0,0,1,4.4,2.1h.8l.3-.2h0c-.3-.6-1.7-1.2-3.9-1.9l-4.4-.6Zm.3-10.9v.2h.1l.5-.4h-.4Zm0,9.5h0c0,.1.5.2,1.6.3h0l-1.5-.2Zm.4-10.3h.2a3.6,3.6,0,0,0,1.2-.8l-.2-.2A4.8,4.8,0,0,0,414.6,29.1Zm1.3-1.4h.3c.8,0,1.3-.9,1.5-2.6v-.3h-.3A12.3,12.3,0,0,0,415.9,27.7Zm1.2,32.8h.3c.8-.1,1.2-.3,1.2-.7h-.3A3.3,3.3,0,0,0,417.1,60.5Zm.4-41.4h0c.3.8.7,1.2,1.1,1.2a.2.2,0,0,0,.2-.2c0-.3-.3-.6-1-1.1Zm1.4,8.4-.2.3h.2c.1,0,.1-.2.2-.4Zm0,33.3h.2a12,12,0,0,0,3-1.5h-.2C419.9,59.7,418.9,60.2,418.9,60.8ZM420,39.6l.2.2h.3v-.3h-.3Zm1,.7c0,.2.5.5,1.5.7h.2a1.6,1.6,0,0,0-1.3-.6H421Zm.7-20.4v.3h.2a10.2,10.2,0,0,0,1.8-1.9v-.2h-.1C423.2,18.1,422.5,18.7,421.7,19.9Zm.3-3.6h0a.5.5,0,0,0,.5.3h.3v-.2l-.4-.3h-.2Zm.7,27.3a12.1,12.1,0,0,0,1.8,2.5h.1v-.2c-.5-1.5-1.1-2.3-1.7-2.3Zm.4-2.1h0l2.4,2.1h0a3.8,3.8,0,0,0-2-2.1Zm1.1,13h0l.2.2c1-.3,1.5-.9,1.5-1.6v-.4h-.1C424.7,53.6,424.2,54.2,424.2,54.5Zm2.6-5.9h0l.2.2h.1l.2-.2h-.5Zm1.3,1.8h0a1,1,0,0,0,.2.7h.1a3.3,3.3,0,0,0,.6-1.9h-.3A1.4,1.4,0,0,0,428.1,50.4Zm.2-2.2h0v.2h.2v-.2Z" transform="translate(-0.4 0)" style="fill:#b75326"/><path d="M433.8,1.3c5.3.2,7.9.7,7.9,1.5l.4,9a34.9,34.9,0,0,1-1.3,6.3,15.8,15.8,0,0,0-.3,2.6v.4h.2a14.5,14.5,0,0,1,9.4-3.2,16.2,16.2,0,0,1,5.7,1.7,28,28,0,0,1,2.1,2.6,1.5,1.5,0,0,1,.5.7v.6c1.2,1,1.7,2.7,1.7,4.9.2,0,.3,2.1.4,6.1h0c0,.6-.4,2.9-1.1,6.9v1.1h1.2c1.4.1,2,.3,2,.6s-.6.3-1.9.4h0c0,.2.5.3,1.4.6l.2.3h0l-1.1.3c.8.2,1.1.5,1.1.8,0,2-.5,3-1.6,3H460c-1.6,0-2.4-.3-2.4-.8a8.7,8.7,0,0,0-2.5-.3l-1.9-.8v-.2a66.4,66.4,0,0,1,.8-7.9,39,39,0,0,1,1.1-6.4V30.2l.2-.3a1.9,1.9,0,0,1-.8-1.8,13.5,13.5,0,0,0-1.3-2.1,9.6,9.6,0,0,0-2.6-.9,8.4,8.4,0,0,0-6.2.3c-2.6,1.8-4,3.1-4,4l-.4,4,.2,4.2c-.2,3-.6,4.5-.9,4.5v.3h.5l1.1-.4c.9.1,1.4.4,1.4.9l-.4.4v.3l.8.4v.3c-.2,2.1-.5,3.2-.9,3.2h-.2c-.6-.4-2.8-.7-6.6-.8s-4.1-.7-4.1-1.3v-1c-.1-.2,0-.4.3-.9v-.4a4.1,4.1,0,0,1-.7-1.2,10,10,0,0,1,3-.3q.5,0,.6-2.4c.4-.2.6-.9.7-2a1.3,1.3,0,0,0,.4-1h0a3.2,3.2,0,0,0-.7-1.9l.7-1.5c.3,0,.4-4.5.5-13.5l.8-9.1V7.5c0-.9-.2-1.4-.8-1.4h-2l-1.3.4c-.3,0-.4-.5-.4-1.6V4.1c0-1.8.2-2.7.7-2.7Zm-2,42.1v.2h2.5c0-.3-.6-.5-1.8-.5S431.9,43.2,431.8,43.4Zm.7,2h.1a16.7,16.7,0,0,1,3,.8,41.3,41.3,0,0,1,5.4.5h.1l.3-.3h0c0-.4-2-.6-5.9-.6a4.9,4.9,0,0,0-2.5-.6C432.7,45.2,432.5,45.3,432.5,45.4ZM433,3.1v.4h.2V3.2Zm.9-.9v.3A4.1,4.1,0,0,0,436,3V2.8a4.9,4.9,0,0,0-2.2-.6Zm.5,1.3h0l.2.2h.8V3.6h-1Zm.3,38c0,.3.7.5,2,.6h.3v-.5c0-.1-.2-.2-.5-.2h-1.2C434.9,41.3,434.7,41.4,434.7,41.5Zm.1-36.9h0a.5.5,0,0,0,.5.3h.8V4.6h-1.3Zm3.1,7.6a4.8,4.8,0,0,0-.3,2.2c.5,0,.8.4.8,1.1h.1a3.5,3.5,0,0,0,.1-1.2v-.8h0l-.3.6h-.2v-.3c0-.4.1-.5.3-.5h.3A4.1,4.1,0,0,0,437.9,12.2Zm.4-1.6h0l.2.3h.2v-.2l-.2-.3h-.1Zm0-1.9v.4l.2.2.2-.2V8.8l-.2-.3Zm.9,18.3v.4h.1c.4,0,.7-.4.9-1.1h.1v-.3h-.1A2.7,2.7,0,0,0,439.2,27Zm.3-24.1.6.5h.1c.3,0,.5-.1.5-.3V2.9l-.3-.3h-.6Zm.4,25.2h.5c.3,0,.5-.1.5-.2l-.2-.2h-.2Q439.9,27.8,439.9,28.1Zm.2,15.6V44l.3.3h.4l.3-.3h0l-.4-.4h-.6Zm.4-.9V43h.2v-.2Zm1.7-19.3h.2c.5-.2.7-.4.7-.6H443A1.8,1.8,0,0,0,442.2,23.5Zm2.5,1.5h.1l.3-.2v-.2h-.2Zm2.6-3.1h0l.2.2h.5l-.3-.2Zm.8,2h.3v-.2h-.1Zm.9-.8v.3a4.9,4.9,0,0,0,1.7.6l.2-.2c0-.3-.5-.5-1.5-.8Zm1.7-4.6h0l.8.4h0c0-.2-.3-.3-.7-.4Zm2.2,6.1h0a.5.5,0,0,0,.6.6h0C453.4,24.8,453.3,24.6,452.9,24.6Zm1,21.6v.2a.8.8,0,0,0,.8.4h.6v-.2c0-.2-.2-.3-.7-.4Zm.1-26.3h0a.9.9,0,0,0,.9.5v-.2A1,1,0,0,0,454,19.9Zm.2,25.6h.3v-.2l-.2-.2Zm.2-.9H457a3.5,3.5,0,0,0-2-.4.7.7,0,0,0-.7.5Zm.7-20.9v.2a7.2,7.2,0,0,1,1.7,2.8c.3.3.4.4.6.4v-.4c0-.8-.6-1.8-1.8-2.9h-.5Zm.4,18.8v.3h.5l.2-.2v-.3l-.2-.2A.7.7,0,0,0,455.5,42.5Zm1.1-16.8v.2l-.6,1.3h.2l-.3-.4ZM458,39.8h.2c.3,0,.7-1.5,1.1-4.6,0-.5-.1-.7-.4-.8h-.2C458.4,34.4,458.2,36.2,458,39.8Zm.5-14.3h0l.3.3h.2l.2-.2-.4-.4h-.1Zm.4,7.9.2.2h.1v-.2h-.3Z" transform="translate(-0.4 0)" style="fill:#b75326"/><path d="M465.1,1.9H465c0,.2.2.3.5.3h.1V2.3l-.2-.3H468c1.4,0,2.1.4,2.1,1.3l.3.2h.3l-.2-.5h.2q1.5,0,1.5,3.3c0,5.1.3,8.8,1,11.1h.1l3.9-.2c4.7.3,7,.7,7,1.2a13.3,13.3,0,0,1,2.4,1.9,14.3,14.3,0,0,1,4.5,5.8c.8.8,1.1,3.1,1.1,6.8v1.9a18.5,18.5,0,0,0-1.8,4.5c0,1.5-1.7,3.5-5,5.9-.4,1-2.9,1.5-7.4,1.6a24,24,0,0,0-4.3-.5h-1.4c-.7,0-1,.2-1,.8l-1.3,1.7-1.7.3a8.7,8.7,0,0,1-3-1.2v-.2a2.6,2.6,0,0,0,.4-1V46l-.2-1.1v-2l-.2-1.2a49.2,49.2,0,0,0,.7-5.4l.2-.6v-.8l.5-4.4v-.3c0-.8-.3-4.2-.8-10h-.1v-.6c.2-2.9.3-5.2.3-7V7.5h-.1a9.1,9.1,0,0,1-3.4,1.2c-.5,0-.8-1.1-1-3.3a5.4,5.4,0,0,1,.4-.8h-.4c0-1.6.2-2.3.6-2.3A8.5,8.5,0,0,1,465.1,1.9Zm-2.8,1.2h0c0,.2.4.3,1.3.5s1.2-.1,1.2-.3h0L463,3.1Zm.9,1.5v.9q0,.1.6.3c.7,0,1-.2,1.1-.5a2.5,2.5,0,0,0-1.5-.7Zm1.9.2h0l.2.2h.5l-.2-.2Zm.9,38h0l.2.2h.1v-.2H466Zm.5-37.7.2.2h.6l.3-.3V4.7l-.2-.2h-.1C466.8,4.5,466.5,4.7,466.5,5.1Zm.1-2.2h0Zm.9,42.2v.2l.2.3h.3v-.3l-.3-.3Zm.3-42h.5V2.9H468Zm.7,1.1V5.3h.2a1.2,1.2,0,0,0,.5-1,.6.6,0,0,0-.2-.5h-.2Zm.1,5.6c.1.9.3,1.3.4,1.3h.1c0-1-.2-1.5-.4-1.5S468.6,9.6,468.6,9.8Zm.4,35.3h.2c.4-.2.5-.3.5-.6h-.3C469.1,44.6,469,44.8,469,45.1Zm.6-3.8v.4h.4a.5.5,0,0,0-.3-.5ZM470.5,2v.2h0Zm1,30.6a21.8,21.8,0,0,0,.1,2.8v4.3c0,.6,1,1.1,2.9,1.7l2.4.2a20.4,20.4,0,0,0,7.7-2,14.4,14.4,0,0,0,3.3-4.9l.4-1.5a13.5,13.5,0,0,0-2-6.6,6.4,6.4,0,0,0-1.9-3.5l-2.8-2a23.3,23.3,0,0,0-9,2c-.3,0-.6,1.4-.7,4.3A37.4,37.4,0,0,0,471.5,32.6Zm.4,11.4v.2l1,.3h.2v-.2l-.8-.3Zm.1-2.9h0a.5.5,0,0,0,.5.3h0C472.4,41.1,472.3,41.1,472,41.1Zm1.3-20.6v.2h0c1.1-.2,1.6-.3,1.6-.5V20h-.1A3.7,3.7,0,0,0,473.3,20.5Zm2.8-1.8v.2h.4l.5-.2v-.3h-.3A.7.7,0,0,0,476.1,18.7Zm1.3,25.5h.7a2.5,2.5,0,0,0,1.7-.4v-.2h-.2A4,4,0,0,0,477.4,44.2ZM480.5,18v.2c.1.2.4.3.8.3h0v-.2L481,18Zm1.3,25.3v.2h.6l.2-.3h-.8Zm.6,2.3v.2h.2v-.2Zm.3-25.3c0,.4.6.7,1.8,1.1s1.4,1.6,1.7,1.6h0a3.2,3.2,0,0,0-1-1.8,8.5,8.5,0,0,0-2.2-.8Zm.3,20.8v.2h.3c.6,0,.8-.2.8-.3l-.2-.3h-.3A.6.6,0,0,0,483,41.1Zm1.9,1.7v.3c1.3-.4,2.1-.7,2.2-1h0A7.4,7.4,0,0,0,484.9,42.8Zm2.5-3.2h0l.2.2c.4-.2.7-.5.7-.8l-.2-.2h-.2A1,1,0,0,0,487.4,39.6Zm.9-11.9v.2h.3v-.2Zm.6,13h0c.6,0,1-1,1.2-2.8h-.4a8.1,8.1,0,0,0-.7,2.3C488.9,40.3,488.9,40.4,488.9,40.7Zm1.6-14.6v.2c0,.3.1.5.4.5h.1a.6.6,0,0,0-.4-.6Z" transform="translate(-0.4 0)" style="fill:#b75326"/><path d="M512.5,17.9h.5a30.3,30.3,0,0,1,6.6,4.2c2.1,1.8,3.1,3.1,3.1,4h-.1a1.4,1.4,0,0,0-1-.8h-.1c-.1,0-.1.1-.1.2a10.9,10.9,0,0,0,1.1,2.4h.1c.1,0,.2-.2.3-.7h.1a13,13,0,0,1,.5,1.8l.4,1.3v3c-.2.6-.4,2-.8,4s-2.1,3.8-5.7,8.8a6.8,6.8,0,0,1-4.9,2.3,25.9,25.9,0,0,1-4.8.4h-1.2a22.1,22.1,0,0,1-5.5-1.8c-3.7-3.4-5.6-6-5.6-7.7s-1-2.2-1.3-3.1a26.8,26.8,0,0,1,1.6-5.3,5.1,5.1,0,0,1,1.4-4c1.9-4.2,4.3-6.9,7.3-8.1a20.7,20.7,0,0,1,6.3-1.4ZM495,35.8c.1.4.1.6.2.6h.1v-.7h0Zm1.4,2.9v.5c.1,1.3.5,2.1,1.2,2.3h.1c-.4-1.9-.7-2.9-1.1-2.9Zm.6-9.8a.5.5,0,0,0,.6-.4h0C497.2,28.4,497,28.6,497,28.9Zm1.3-2.1h0c.2,0,.3-.2.3-.5h-.1A.8.8,0,0,0,498.3,26.8Zm.1,7.7h.2v-.2h-.1Zm.3,8.3h0a.8.8,0,0,0,.5.5h.2a.8.8,0,0,0-.4-.7h-.1Zm1-6v.4c.4,1,1.1,2.2,1.8,3.6s.8,1,2.4,1.7,2.1,1.5,4.2,2h1.1a20.1,20.1,0,0,0,4-1.1l2.3-1.9c2.2-2.5,3.3-4.5,3.3-6.2v-.6a8.2,8.2,0,0,1-.4-3.2,10.1,10.1,0,0,1,.3-2.7c0-.3-.8-1-2.4-2.2a7.7,7.7,0,0,0-3.7-3h-.7q-7.2.3-7.2,1.2a9.2,9.2,0,0,0-2.2,3.2c-1.3,1.3-2,2.2-2,2.7A52.1,52.1,0,0,0,499.7,36.8Zm.1,8V45a4,4,0,0,0,2.9.9h.7a10.3,10.3,0,0,0-3.2-1Zm1-18.4v.4h.1c.6-.4.9-.8.9-1.1h-.4A1.6,1.6,0,0,0,500.8,26.4Zm.6-4.2v.2a26.3,26.3,0,0,0,3.8-2.6l.5-.2h.3c2.8-.3,4.2-.6,4.2-.8h-1a10.7,10.7,0,0,0-7.7,3.2ZM502,25v.2h0Zm.1-1.8a1.3,1.3,0,0,0,1-.7v-.2C502.4,22.5,502.1,22.8,502.1,23.2Zm1.1,23.2h.9v-.2h-.2C503.4,46.2,503.2,46.3,503.2,46.4Zm1.2-.8h0c0,.3.6.4,1.8.4h.1A4.1,4.1,0,0,0,504.4,45.6Zm1.9-24.5v.2c3.2-.3,4.7-.6,4.7-.7l-.4-.2h-.1A8.8,8.8,0,0,0,506.3,21.1Zm.1,2.1h0v.2h.9l4.3-1h0l-1.1-.2C507.8,22.4,506.4,22.8,506.4,23.2Zm4,23.9h0c0,.2.3.3,1,.3s1-.1,1-.3h0a1,1,0,0,0-.4-.5h-.6A1.1,1.1,0,0,0,510.4,47.1Zm1.1-28.4c.1.6.6.8,1.3.8h.8v-.2c0-.5-.4-.8-1.3-.9Zm.5,1.9h0l.2.2-.6.6h0c-.1-.2.3-.4,1-.8Zm.6.1h0a3,3,0,0,0,1.8.9h0A2.9,2.9,0,0,0,512.6,20.7Zm1.2,26.8h.1c.7-.3,1-.5,1-.7h-.1C514.2,47,513.9,47.2,513.8,47.5Zm.9-23.9c.3.4.5.6.8.6l.2-.2h0c0-.3-.2-.5-.6-.5S514.7,23.5,514.7,23.6Zm1-3.4h0a1.7,1.7,0,0,0,1.3.8c0-.4-.3-.8-1.1-1h-.2Zm1,2.6h0a3.5,3.5,0,0,0,1.8,1.5h.3A8.7,8.7,0,0,0,516.7,22.8Zm1.2,1.9h0c.2.6.8,1,1.8,1.4h.2v-.2h0a2.4,2.4,0,0,0-1.9-1.1Zm2.8,15.1h0c.3,0,.6-.3.8-1h-.1C521.1,38.8,520.9,39.1,520.7,39.8Zm1-1V38h0q.5-.2.3.9h-.5Zm.5-3.5c0,1.3.1,2,.3,2h.1a3,3,0,0,1,.5-1.5v-.2l-.6-.9h-.1C522.3,34.7,522.2,34.9,522.2,35.3Zm.8-4.2v.5l.3-.2v-.3H523Z" transform="translate(-0.4 0)" style="fill:#b75326"/><path d="M548.8,17.8c1.6,0,2.9,1.2,4,3.4.3,0,.6.3.9.8l.9,4.6c-.4.5-1.5.7-3.3.7h-.6c-1.6-.2-2.3-.7-2.3-1.5a4.1,4.1,0,0,0-1.5-2.4c-.1-.2-1-.3-2.6-.3a17.1,17.1,0,0,0-5.7,1.2,20.7,20.7,0,0,0-3.1,3.9c.3,7.4.4,11.9.3,13.2s.3.6.8.6h1.5c.6,0,1,.1,1,.3h0l.2.8v3.4l-.4.5-2.9.3h-.3l-1.2.4c-4.7-.2-7.1-.3-7.1-.6s-1.2-.3-1.2-1.1a12.1,12.1,0,0,1-.2-2.3c0-.7.8-1.3,2.4-1.5,0-.4.6-.5,1.7-.5h.2l-.4-16.9c0-1-.2-1.5-.7-1.5h-.4a8.6,8.6,0,0,0-2.5.6h-.1c0-.1.1-.2.5-.3h0c-.4,0-.7-1.2-.7-3.5a5,5,0,0,1-.1-1.1,8.3,8.3,0,0,1,5.1-1.9h1.6a15.4,15.4,0,0,1,3.1.6v.2a2.2,2.2,0,0,0-.6,1.2v.4C538.4,17.6,543,17.2,548.8,17.8ZM526.8,45l-.2.2v.3h.4v-.4Zm.6-25.9a1.2,1.2,0,0,0,1,.4h.1V19l-.3-.3C527.7,18.8,527.4,18.9,527.4,19.1Zm.7,26.8h0q0,.3,1.8.3h2.3c0-.2-1.1-.3-3.3-.4Zm.2-24.4h.3c.4,0,.6-.1.7-.3h-.2C528.6,21.2,528.4,21.3,528.3,21.5Zm0,23.5h3.6v-.2h-3.4ZM530,17.8v.3l.4.4h.5l-.7-.6Zm2.6,9.3v.4a2.5,2.5,0,0,1,.3,1.3,17.2,17.2,0,0,0-.2,2.5l.2,2.5h0c.2,0,.4-1.9.5-5.7.1,0,.1-.4.1-1.3s-.1-.6-.3-.6h-.1A1.1,1.1,0,0,0,532.6,27.1Zm.5-3.2-.3,1.2a.8.8,0,0,0,.4.7h0q.3,0,.3-.9l-.2-1Zm.5,21.4.2.2h.9l.3-.3c0-.1-.1-.2-.3-.2S533.6,45.1,533.6,45.3Zm.4-26.1h0l.2.2.2-.3V19h-.1Zm.2-1.2v.3h.2l.3-.2h-.5Zm0,20.7v.5h.2l.3-.3v-.3l-.2-.2h-.1Zm.1,1.2v.2h.1v-.2Zm1.1-18v.2l.2.2h.2l.2-.2v-.2h-.6Zm4.2-1.4h0q.6,0,1.5-1.8v-.3H541A1.7,1.7,0,0,0,539.6,20.5Zm2.4-1.4.2,1.3h.6V18.9h-.2C542.1,18.9,542,19,542,19.1Zm1.4-.4h0l.2.2h.6l.5-.2h-1.3Zm2-.2v.2h.4l.2-.3h-.1C545.6,18.3,545.4,18.4,545.4,18.5Zm1.6.4h.2l.2-.2h-.2Zm.6,3.6h.2c.3-.1.7-.6,1.3-1.5h-.3c-.7.3-1.1.7-1.1,1.3S547.6,22.2,547.6,22.5Zm1.7,1.6v.2h.1l.3-.3h-.1Zm0-5.4h0l.2.2h.2l.2-.2h0l-.2-.2h-.2Zm1.9,2v.2a1.4,1.4,0,0,0,.9.5h.1v-.2a1,1,0,0,0-.8-.5Z" transform="translate(-0.4 0)" style="fill:#b75326"/><path d="M564.6,9.4c1.1,0,4.1.6,9.2,1.8a21.9,21.9,0,0,0,4.2,1.7,3,3,0,0,0,.5-1.8h0v-.5c0-.5.4-.8,1.1-.8a4.1,4.1,0,0,1,2.1-.5c1.3,0,1.9.1,1.9.4l.6,5.8v1.8c0,1.5-.2,2.3-.7,2.6a1.2,1.2,0,0,1-.9.6c-2.2-.2-3.4-.5-3.4-1a3.3,3.3,0,0,0-2.2-2.1c-3.9-2-6.8-3-8.5-3h-1.7c-2.1,0-3.3.4-3.7,1.2a4.5,4.5,0,0,0-.7,2.7h0c0,2.3,1.2,4.1,3.5,5.6a15.2,15.2,0,0,0,6.1,1.4c0,.4,1,.9,2.8,1.4a2.7,2.7,0,0,0,2.4.9,19.3,19.3,0,0,1,5.5,4.7l.3.3v.2h-.4a7.8,7.8,0,0,1,.9,2.2c0,3.7-.6,6.1-1.8,7a8.3,8.3,0,0,1-3.4,3.3,8.9,8.9,0,0,1-6,2.6h-2.1c-3.3-.5-4.9-.9-4.9-1.2a13.2,13.2,0,0,0-3.2-2,11,11,0,0,1-4.3-2.9h-.2q-.7,2.1-1.2,2.1c-2.6-.4-3.9-.8-3.9-1.3s-.4-2.4-.5-5.4l.6-3.8q0-2.1.6-2.1l3.9-.5c.3,0,.6,1.2.8,3.5l1.8,3.1a46.7,46.7,0,0,0,5.5,3.7,5,5,0,0,0,3.8,1.6h2.2a4.9,4.9,0,0,0,4.5-2.2,8.6,8.6,0,0,0,2.1-4.5h0c0-1.3-1.1-2.8-3.2-4.5a4.3,4.3,0,0,0-3.5-1.6c-.6-.4-2.5-.7-5.5-1.1l-5-2.6-2.4-2.1a10.2,10.2,0,0,1-1.6-3.3v-1l-.2-2.4a2.9,2.9,0,0,1,1-2c0-.5,1-1.7,3-3.4a10.5,10.5,0,0,0,3.3-2.4ZM552.8,38.3v1.6h.1a7.1,7.1,0,0,0,.4-3v-.5h-.2C553,36.3,552.9,36.9,552.8,38.3Zm1.7,3.2v.2l.3.3h0l.2-.2h0l-.2-.2Zm.4-8.2v.3h.4v-.3ZM557.4,17l.3,1.6h.3l-.2-1.7h-.2Zm.1,22.4v.2a2.4,2.4,0,0,0,1.8,1.2h.1v-.2q-1.4-1.2-1.8-1.2Zm.5-24-.2.4V16h.2l.2-.6H558Zm.9,7.4h0l.2.2h.1v-.3h-.3Zm.2-5.2v.2h.1l.3-.3h-.2Zm.7-2.8h.3v-.2h-.3Zm.3,8.3h0c.3.9.6,1.3.8,1.3h.3l.3-.3h0c-.5-.7-1-1-1.4-1Zm.1-7.4h.3q1.5-.9,1.5-1.5h-.2c-.5,0-1,.5-1.6,1.5Zm1.5,6.9h.8q0-.3-.6-.3Zm1.5.5h-.1v.4l.4.4h.3v-.3A.5.5,0,0,0,563.2,23.1Zm.1,3.2h-.1c0,.2.3.5.9.7h0C564.1,26.7,563.8,26.5,563.3,26.3Zm.4,18.5h0c0,.2.5.4,1.6.7l.2.2h.3c-.1-.6-.2-.8-.4-.8Zm.6-34.5v.2c0,.2.2.3.8.4s1.7-.2,1.7-.4v-.2c0-.3-.6-.5-1.8-.5S564.5,10,564.3,10.3Zm.9,14.2h-.1a6.6,6.6,0,0,0,2.4,1.3v-.2C567.6,25.6,566.8,25.1,565.2,24.5Zm.8-11.6a.9.9,0,0,0,.6.3,1.8,1.8,0,0,0,1.3-.6l-.3-.3h-.7Q566,12.3,566,12.9Zm.9,33.6h0l.2.3h.5a1,1,0,0,0-.7-.2Zm.4-.9v.3h.2l-.2-.2Zm.9,1.2a3.7,3.7,0,0,0,2.3.5h2.8c-.1-.3-1.5-.5-4.3-.5C568.5,46.6,568.2,46.7,568.2,46.8Zm.4-32.9c0,.3.8.5,2.2.6v-.2c0-.2-.6-.4-1.9-.6h0Zm0,12.2c0,.2,1.5.6,4.4,1.2h1a9.7,9.7,0,0,0-4.6-1.6C568.9,25.9,568.6,26,568.6,26.1Zm.7,1.8v.2l1.1.3h.6A4.9,4.9,0,0,0,569.3,27.9Zm4.6,18.7v.2h.4q1.2,0,1.2-.3h-1.6Zm.5-33.7h0c0,.2.3.3.8.3h.1Q575.3,12.9,574.4,12.9Zm.8,2.3h-.1a9.4,9.4,0,0,0,2.4,1.1h0C577.5,16.1,576.7,15.7,575.2,15.2Zm.2,13.6h0l3.3,1.9c.8.7,1.4,1.1,1.8,1.1h.1l.2-.2a9.4,9.4,0,0,0-4.8-2.9Zm1.4,12.8v.3h.1a3.6,3.6,0,0,0,1-1.1l-.2-.2A3,3,0,0,0,576.8,41.6Zm.6-9.1v.3c0,.4.4.9,1.1,1.5h.3v-.5c0-.5-.4-1-1.3-1.3Zm.7,11.4h0c0,.1,0,.1.2.1s1.2-.6,2-1.9h-.2Zm0-29.2a6.1,6.1,0,0,0,2,.9h.1c0-.3-.6-.5-1.8-.8h-.3Zm.2,22.6v.3h.2l.2-.2v-.2Zm1.4-18.2a2.6,2.6,0,0,0,1.8.4h1.2v-.3h-3Zm.7-9v.2c.4.7.8,1.1,1.2,1.1a1.2,1.2,0,0,0,.7-.7v-.2C582.3,10.3,581.7,10.1,580.4,10.1Zm1.2,27.7v.3l.2.2h.1c.3-.1.4-.4.4-1h-.2Zm.8-25.5h.4v-.3h-.3Z" transform="translate(-0.4 0)" style="fill:#b75326"/><path d="M609.3,20.8h.2l1.1.3h1.9a3.2,3.2,0,0,1,2,.7c.4,0,.6.1.6.2a1.4,1.4,0,0,0-.2.6h0l.2.3.6-.2h.1c.8.4,1.3,2.3,1.5,5.8.3,1.1.6,4.5.9,10.4.2,7.4.4,11.1.5,11.1a3.3,3.3,0,0,1-.5,1.4,6.9,6.9,0,0,0-.3,2h0a14.6,14.6,0,0,1-3.6,5.3l-2.9,1.7-1.7.4a16.2,16.2,0,0,1-10.5-3.8l-.7-2.4c-.4,0-.7-.8-.9-2.3l.2-1.2V49.8c0-.9.9-1.6,2.7-1.9a9.6,9.6,0,0,1,2.3-.5c.5,0,.8.7.9,2.2.4,3,.9,4.5,1.6,4.5a7.9,7.9,0,0,0,3.2.6c.7,0,1.8-1.1,3.4-3.3a4.7,4.7,0,0,0,.4-1.6v-.3l-.3-3.6V43.7c-.7-10-1.2-15.1-1.6-15.1h-.1l.2-.3v-.2h-.3l-.8.7-3.2-1.3a3.2,3.2,0,0,1-.5-1.5c.1-3.1.3-4.7.6-4.7l.9-.2.9.3A2.4,2.4,0,0,1,609.3,20.8Zm-9.8,29.1v.3h.2l.2-.2h0v-.2h-.1Zm2.1,7.5c0,.4.6.7,1.9,1.1s.2-.1.2-.3a2.1,2.1,0,0,0-1.8-1Zm.3-8.2h0c0,.6.2,1,.7,1.1a1.9,1.9,0,0,0,.2-.7v-.5l-.2-.3h-.2A.7.7,0,0,0,601.9,49.2Zm0,2.5h0c.1.5.2.8.3.8h0c.2,0,.2-.1.2-.2a1,1,0,0,0-.5-.7Zm.7,3.3h0v.3h.3C603,55.1,602.9,55,602.6,55Zm3.1.2h0c0,.3.4.8,1.2,1.3h.4c0-.5-.4-1-1.3-1.3Zm1.6-32.1h0Zm.9,1.5h0l.2.2h.2a14.7,14.7,0,0,1,3.3-1l.4-.2v-.2h-.6C609.3,23.6,608.2,24,608.2,24.6Zm.2,32.6h1.3l-.2-.2h-.9Zm4.2-50.5a5.2,5.2,0,0,1,3.6,1.2,5.9,5.9,0,0,1,1,2.8c-.4,3.1-1.1,4.6-2.2,4.6s-.3.2-.7.2c-2.5-.1-3.8-.4-3.8-.7h0l-.8-2.3v-.6c0-2.3.3-3.5.8-3.9A2.9,2.9,0,0,1,612.6,6.7Zm-3,53v.2h.1a3.2,3.2,0,0,0,2.3-1.3h0v-.2h-.1A3.1,3.1,0,0,0,609.6,59.7Zm.6-3.1v.3h.3c.5,0,1.1-.4,1.9-1.3l-.2-.2C610.9,55.9,610.2,56.4,610.2,56.6Zm.5-1.7v.2h.1c1.1-.3,1.7-.7,1.7-1.3h-.3A7.9,7.9,0,0,0,610.7,54.9Zm.1-43.2.3.3a8.1,8.1,0,0,0,1.3-2.8V8.9h-.2c-.5,0-.9.9-1.4,2.7Zm1.4.3h0l.2.2.2-.2v-.3h-.2Zm.3,41.3.2.2.3-.3V53h-.2Zm.6-10.2v3.4l.2,5h.1c.2,0,.3-.3.3-.8l-.2-7.6Zm.2-28.7h.3a1.4,1.4,0,0,0,1.2-.6v-.2A2.3,2.3,0,0,0,613.3,14.4Zm.6-2.6V12h.8a.5.5,0,0,0,.3-.5h0l-.2-.3A1.2,1.2,0,0,0,613.9,11.8Zm.2,17.1v.2h.2a.6.6,0,0,0,.2-.5v-.2h-.2C614.2,28.3,614.1,28.5,614.1,28.9Zm.1,28.2h.2a3.1,3.1,0,0,0,1.1-1.7h-.1A3.2,3.2,0,0,0,614.2,57.1Zm.1-4.9v.2h.1l.3-.3h-.3Zm0-37.4h.2c.5-.1.8-.3.8-.4h-.1C614.6,14.4,614.3,14.6,614.3,14.8Zm.3-4.6v.2l.2.3a.5.5,0,0,0,.3-.5l-.2-.2h-.2Zm.2,42.3V53h.2c.2-.1.3-.4.3-.8h0A.7.7,0,0,0,614.8,52.5Zm1.7-22.9a23.2,23.2,0,0,0,.6,4.6h.1c.1,0,.2-.1.2-.3-.2-2.9-.4-4.4-.7-4.4Zm.8,6.9v1.1l.2.2a.5.5,0,0,0,.3-.5V37l-.2-.6h-.3Zm.4,3.7v.5h.2v-.6Z" transform="translate(-0.4 0)" style="fill:#b75326"/><path d="M636.2,15.6c1.7,0,3.8.8,6.3,2.2s3.1,2.7,3.1,3.3c1.7,3.5,2.5,5.6,2.5,6.2v.5a9.4,9.4,0,0,0-.9,2.9h-5.6l-1.8.2c-5.9-.5-10.1-.7-12.4-.7H626a3.5,3.5,0,0,0-.7,1.5,4.8,4.8,0,0,1,.4,2.2c0,1.6.3,2.5.7,2.8v.3h0l-.4-.2v.2l.6.6a2.9,2.9,0,0,0,1.2,2c1.3,2.4,2.8,3.9,4.4,4.5a15.1,15.1,0,0,0,4.6.6,4.6,4.6,0,0,0,1.8-.7c.8-.3,2.3-1.6,4.6-4.1h0c0-.1-.2-.2-.8-.3v-.3a7.2,7.2,0,0,1,3.4-3.5l2.3,1.7a49.7,49.7,0,0,0,3.6,4.9v.3c-1.3,1.7-2.3,2.5-2.9,2.5h-.2c0-.9-.5-1.4-1.6-1.5s-1.2.7-2.7,2a15.5,15.5,0,0,1-4.9,2.1,33.5,33.5,0,0,1-5.7.9l-3.5-1.3c-2,0-3.8-1.1-5.5-3.2a8.9,8.9,0,0,1-1.7-2.7,34.5,34.5,0,0,0-1.4-5.1,25.5,25.5,0,0,1-.4-3.4h0a22.4,22.4,0,0,1,4.9-14.4,5,5,0,0,1,2.9-2.3l3.6-.7ZM622.3,31.3h0v.2h0a2.2,2.2,0,0,0-.1.9v.3a4.1,4.1,0,0,0,.6,2h.1C622.9,32.7,622.7,31.6,622.3,31.3Zm0-2.3v.4c0,.2.1.4.2.4s.2-.2.3-.6l-.2-.2Zm.8-3.3a5.4,5.4,0,0,0-.8,2.5h.1c.2,0,.6-.7,1.1-2.2S623.3,25.7,623.1,25.7Zm.1,11h0V37h.2v-.2h-.3Zm.6,1.1h-.1c.3.6.5,1,.7,1h.1A1.3,1.3,0,0,0,623.8,37.8Zm1.8-8.2h.1l1-.2h0l-.2-.3h-.2A.8.8,0,0,0,625.6,29.6Zm.1-7.4h.1Zm0,3.9v.4h.1a2.3,2.3,0,0,0,.7-.7v-.2h-.3A.7.7,0,0,0,625.7,26.1Zm.6-1.6v.2c0,.5,3.7,1,11.2,1.5l.6.2h.8a13.6,13.6,0,0,0,3.3.9c0,.1.2.2.4.3a1.7,1.7,0,0,0,.4-1.1V25.3c0-.6-1-1.8-3.1-3.6a5.6,5.6,0,0,0-3.2-1.7l-2.1-.3c-3.4.7-5.6,1.5-6.7,2.5A10.6,10.6,0,0,1,626.3,24.5Zm0-1h0c.3-.1.4-.2.4-.5h0A.7.7,0,0,0,626.3,23.5Zm.2,21.2v.2c.1.3.4.5,1.1.7l.3.3h0a3.6,3.6,0,0,0-1.2-1.1Zm.5-23.9V21h.1c.5-.2.8-.3.8-.5h-.3A.7.7,0,0,0,627,20.8Zm.3,8.4v.3h.3v-.2h-.3Zm.7-11.3h0l.2.2h0c.8-.2,1.3-.4,1.3-.7v-.3l-.3-.3h-.1C628.4,17.2,628,17.5,628,17.9Zm.8,10.7v.2a47.8,47.8,0,0,0,6.5.5h-1.2c0,.2.5.3,1.6.3s2.6-.1,2.6-.4S635.1,28.8,628.8,28.6Zm.6-2.1v.2a8.5,8.5,0,0,0,4.3.8H635v-.3A53.2,53.2,0,0,0,629.4,26.5Zm.2-6.1a8.4,8.4,0,0,1,2.4-1h-.7C630.1,19.4,629.6,19.8,629.6,20.4Zm.9-3.4h.1a14.8,14.8,0,0,0,3.7-.7c.4-.1.5-.2.5-.3h-.2a11.3,11.3,0,0,0-4,.9h-.1Zm.5,27.9h0c0,.2.4.4,1.3.6h.1a3.9,3.9,0,0,0-1.4-.5Zm2.2-26.6h0c0,.2.8.4,2.5.7h.1v-.2a2,2,0,0,0-1.7-.8h-.2C633.4,18,633.2,18.1,633.2,18.3Zm1.2,27.3v.2h.3v-.2Zm2.4,1.6h-1.6c-.3,0-.6,0-.6.2h0l.2.2H636a18.5,18.5,0,0,0,4.4-.6h0c0-.2-.3-.3-.7-.3h-.3A5.8,5.8,0,0,0,636.8,47.2Zm-1.1-29.9v.2a6.1,6.1,0,0,0,2.5.4h.1v-.2c0-.1-.3-.2-.8-.3Zm1.2,1.4h0a19.1,19.1,0,0,0,3.8,2h.1l.6-.2h.4l-1-.4-1.3-.5a2,2,0,0,0-2-1.1h-.2C637,18.5,636.9,18.5,636.9,18.7Zm3.6,9.4v.2h.3v-.2Zm.1,1.7c0,.1.4.2,1.1.2h.6c0-.2-.4-.4-1.2-.4S640.6,29.7,640.6,29.8Zm0,14.1h.2a1.3,1.3,0,0,0,.5-.7h-.1C640.8,43.4,640.6,43.6,640.6,43.9Zm.5,2.7c.4,0,.7-.3,1-1h-.2C641.3,46,641.1,46.3,641.1,46.6Zm.6-24.9a.6.6,0,0,0,.6.5h.1v-.6l-.3-.3C641.9,21.3,641.7,21.4,641.7,21.7Zm.8,20.2h.2c.4,0,.7-.3.9-.8h0C643.1,41.1,642.8,41.3,642.5,41.9Zm.5-19.4a5.4,5.4,0,0,0,1,2.2h.4c-.3-1.3-.7-2-1.1-2H643Zm1,15.9h.4c.2,0,.4-.1.4-.2l-.2-.3h-.1C644.2,38,644,38.1,644,38.4Zm.3,5.8h.2q.6-.6.6-.9H645A.9.9,0,0,0,644.3,44.2Zm.9-18.8V26c.2,0,.3-.2.3-.4v-.2h-.4Zm.2,17,.2.2c.6-.2.9-.5.9-.8h-.1A.9.9,0,0,0,645.4,42.4Zm1.4-.6h.3a.7.7,0,0,0,.4-.6h-.2C647,41.4,646.8,41.6,646.8,41.8Zm2.2-.6h-.1c.2.5.4.8.6.8h.1v-.2h0A.7.7,0,0,0,649,41.2Z" transform="translate(-0.4 0)" style="fill:#b75326"/><path d="M668.5,13a19.1,19.1,0,0,1,4.1.9c2.4,2.2,3.8,4,4.2,5.2s1.6,2.8,2.2,5.7c.6.6,1,2.1,1,4.4v1.5l-.3,6.1c0,1.2.8,2.7,2.3,4.6s2.3,2,2.7,2h0c0,.5-.7,1.3-2.2,2.4s-1.7,1.6-2,1.6h0c-.7-.1-2.3-1.3-5-3.7l-7.4,3a22.1,22.1,0,0,1-5.4.7h-.3a11.6,11.6,0,0,1-5.7-2.6,16.3,16.3,0,0,1-1.8-3.1,5.3,5.3,0,0,1-1.1-3.4V36.7a5.3,5.3,0,0,1,1-3.2,11.9,11.9,0,0,1,2.8-4.8,5.4,5.4,0,0,1,1.9-1.6,14.1,14.1,0,0,1,6.4-1.6h3.1a5.9,5.9,0,0,1,3.4.7h.3a.3.3,0,0,0,.3-.3,21.7,21.7,0,0,0-2.2-5.6c-.9-1.5-2.6-2.3-5.1-2.3l-2.5-.3c-2.2.4-3.2.9-3.2,1.4a7.3,7.3,0,0,0-1.6,4.1c-.1.2-.8.3-2.2.3h-.4c-.2,0-.4.4-.6,1.1s-1.8-.4-1.8-.7a24.5,24.5,0,0,0,.5-4.5,10.8,10.8,0,0,1,4.7-5.2,10.3,10.3,0,0,1,2.1-1.1Zm-12.2,8.7v.9h0c.2,0,.3-.2.3-.4v-.5l-.2-.2Zm.6-4.6h.1c.4,0,.9-.4,1.7-1.2v-.2h-.1c-.4,0-.9.5-1.7,1.3Zm.8,24.8h.5l-.2-.3h-.1Zm.2,3.3h0c.2.4,1.2.9,3.1,1.4a6,6,0,0,0,2.4.5h0c0-.2-.8-.4-2.3-.7a12,12,0,0,1-2.8-1.3h-.2Zm.8-15.9v.3h.1a.5.5,0,0,0,.6-.4V29h0Zm0,5.6c.2,2.5.6,3.7,1,3.7l.6.8h-.6v.2a13.8,13.8,0,0,0,4.9,3l1.2.3c.9,0,3.7-1.2,8.6-3.6.3-.2.5-.4.5-.7v-.3c-.4-1.7-.7-3.7-1-5.9h-.1c0-.4-.4-.8-1.3-1.1a26.3,26.3,0,0,0-6.3-1.3,13.6,13.6,0,0,0-6.5,3.1A3.2,3.2,0,0,0,658.7,34.9ZM662.5,15h0q0,.3.6.3a4.1,4.1,0,0,0,1.6-.4v-.2h-.3Zm2.1,29.3a.5.5,0,0,0,.5.3c.4,0,.6-.2.6-.3h0V44h-.8Zm.6-27.5.2.3h1l-.3-.3h-.6Zm2.3-2.4.3.2h.4l-.2-.3h-.3Zm2.2,29h.3a4.9,4.9,0,0,0,2.3-.7h-.2A5,5,0,0,0,669.7,43.4Zm2.6-28.7h0a1,1,0,0,0,.8.5h.1v-.2a1.2,1.2,0,0,0-.8-.4Zm3,21.2v.3l.2.2h.1l.2-.2v-.3l-.2-.2h-.2Zm.1-2.1.2.2h.2v-.2l-.2-.2h0Zm1.7-3V31h0Zm.1,1.3v.2h.3v-.2Zm.1-3.3V29c.1.6.3.9.5.9h.1a1.6,1.6,0,0,0-.4-1.2h-.2Zm.3,5h0c0,1.5.2,2.3.5,2.3V36h0a4.8,4.8,0,0,0-.4-2.2Zm.9,8.9a1,1,0,0,0,.5.6h0l.3-.3h0l-.3-.3h-.5Zm.3-16.2h0c0,.3.1.5.2.5v-.3c-.1-.2-.1-.3-.2-.3Zm1.1,17.3V44l.3.2h.3V44h0l-.3-.4h-.2Zm.6-2.2V42c.1.5.3.7.5.7h.2c-.2-.7-.4-1-.6-1Z" transform="translate(-0.4 0)" style="fill:#b75326"/><path d="M689.5.3l2.6.6,4-.2c1.1,0,1.6.3,1.6,1a34.2,34.2,0,0,0-.4,6.2V29.4L697,41.1a37.9,37.9,0,0,0,6.4.8h.1v.8c0,.3.2.6.6,1.1a37.3,37.3,0,0,0-1.6,4.3l-.5.5h-.2a1.8,1.8,0,0,0-1.5-.6l-10.1-1.4c-3.1,0-4.7-.2-4.7-.5a14.1,14.1,0,0,0,1.1-4.8H688a4.4,4.4,0,0,1,1.8-.5l.9.3h.7q.6,0,.6-1.2c.2-1.5.4-6,.6-13.6-.2-2.4-.5-9.2-.7-20.4-.2-.2-.4-.4-.6-.4l-2.8.2c-.5-.1-.7-.2-.7-.5.2-3.2.5-4.8.8-4.8Zm-2.9,45.4v.2h.3l.2-.2-.2-.2h-.2Zm.8-3h.3v-.3h-.2Zm1.2-39.3v.4l.2.3h1.7V3.8l-1.1-.5-.4-.2h-.1Zm.2-1.6h0a.5.5,0,0,0,.6.6h.3a2.1,2.1,0,0,0,1.3-.7h-2.2Zm.3,40.6h0a.5.5,0,0,0,.5.5h.1v-.5l-.3-.2h-.3Zm.7,2.1h0l.2.2h.9c.7,0,1-.1,1-.2h0l-1.7-.2h-.1Zm.7-1.3h.9V43h-.5C690.6,43,690.5,43,690.5,43.2Zm1.7-41.4.5.2h.6l.3-.2h-1.4Zm.8,36.5v.2c0,.3.1.4.2.4l.3-.3v-.4c-.1-.6-.2-.8-.3-.8S693,37.7,693,38.3Zm.2-20v.3h.3v-.3h-.1c0-.2.2-.3.5-.4v-.2h-.3A.8.8,0,0,0,693.2,18.3Zm.2-6.6h.3v-.3h-.1Zm.2-3.4v.4h.1V8.1h-.1Zm.5,17.9h.1c.2,0,.4-.8.4-2.4C694.4,23.9,694.2,24.6,694.1,26.2Zm.2-22.1h.4l1.4-.8a1.3,1.3,0,0,0,.3-.7h-.3c-.4,0-.7.2-1.1.7S694.3,3.7,694.3,4.1Zm1.2,25h-.1V40.7h.5c.1,0,.2-.2.2-.6Q696,29.1,695.5,29.1Zm.7-12.4v2h.1c.2,0,.2-.3.2-.8v-1Zm-.1,2.5v.4h.3v-.3Zm0-3.3h0l.3.3h0V16h-.3ZM698.2,44h0c0,.2.7.4,2.1.4h2v-.2h-.6Zm1.5,1.7.2.2h1.3q.6,0,.6-.3h-1.3C700,45.5,699.7,45.6,699.7,45.7Zm1.4-3.3h0c.1.3.4.4,1,.4l.3-.2v-.2h-1.3Zm0,4.6v.2h.9V47h-.9Z" transform="translate(-0.4 0)" style="fill:#b75326"/><path d="M723.6,17.9h.6a29.8,29.8,0,0,1,6.5,4.2c2.1,1.8,3.1,3.1,3.1,4h-.1c-.3-.5-.6-.8-1-.8h0c-.2,0-.2.1-.2.2a10.9,10.9,0,0,0,1.1,2.4h.1c.1,0,.2-.2.3-.7h.1a5.8,5.8,0,0,1,.5,1.8l.5,1.3v.8l.2,2.2a19,19,0,0,0-.8,4c-.2.8-2.1,3.8-5.8,8.8a6.8,6.8,0,0,1-4.8,2.3,27,27,0,0,1-4.9.4h-1.2a22.1,22.1,0,0,1-5.5-1.8c-3.7-3.4-5.6-6-5.6-7.7s-1-2.2-1.3-3.1a23.6,23.6,0,0,1,1.7-5.3c0-1.9.4-3.2,1.3-4,1.9-4.2,4.3-6.9,7.3-8.1a20.7,20.7,0,0,1,6.3-1.4ZM706.1,35.8l.2.6h.1v-.7h0Zm1.4,2.9v.5c.1,1.3.5,2.1,1.2,2.3h.1c-.3-1.9-.7-2.9-1-2.9Zm.7-9.8a.5.5,0,0,0,.5-.4h0C708.3,28.4,708.2,28.6,708.2,28.9Zm1.2-2.1h.1c.1,0,.2-.2.2-.5h-.1A.8.8,0,0,0,709.4,26.8Zm.1,7.7h.2l.2-.2h-.1Zm.4,8.3h0a.7.7,0,0,0,.4.5h.3c0-.3-.2-.5-.5-.7H710Zm.9-6v.4c.5,1,1.1,2.2,1.9,3.6s.7,1,2.3,1.7,2.1,1.5,4.2,2h1.1a21.4,21.4,0,0,0,4.1-1.1l2.2-1.9c2.3-2.5,3.4-4.5,3.3-6.2v-.6a11.7,11.7,0,0,1-.3-3.2,10.6,10.6,0,0,1,.2-2.7c0-.3-.8-1-2.4-2.2a8,8,0,0,0-3.6-3h-.7q-7.2.3-7.2,1.2a8.3,8.3,0,0,0-2.3,3.2c-1.3,1.3-2,2.2-2,2.7A52.1,52.1,0,0,0,710.8,36.8Zm.2,8V45a3.9,3.9,0,0,0,2.9.9h.6a9.2,9.2,0,0,0-3.1-1Zm.9-18.4v.4h.1c.6-.4.9-.8.9-1.1h-.3A1.8,1.8,0,0,0,711.9,26.4Zm.6-4.2v.2a26.3,26.3,0,0,0,3.8-2.6l.5-.2h.3c2.8-.3,4.2-.6,4.2-.8h-1a10.4,10.4,0,0,0-7.6,3.2Zm.6,2.8v.2h0Zm.1-1.8a1.3,1.3,0,0,0,1-.7v-.2C713.5,22.5,713.2,22.8,713.2,23.2Zm1.1,23.2h.9v-.2h-.2C714.5,46.2,714.3,46.3,714.3,46.4Zm1.2-.8h0c0,.3.6.4,1.8.4h.1A3.8,3.8,0,0,0,715.5,45.6Zm1.9-24.5v.2a22.5,22.5,0,0,0,4.8-.7l-.5-.2h-.1A9.1,9.1,0,0,0,717.4,21.1Zm.1,2.1h0v.2h.9l4.3-1h0l-1.1-.2C718.9,22.4,717.5,22.8,717.5,23.2Zm4.1,23.9h0q0,.3.9.3c.7,0,1.1-.1,1.1-.3h0l-.5-.5h-.5C722.1,46.6,721.8,46.7,721.6,47.1Zm1-28.4c.2.6.6.8,1.4.8h.7v-.2q0-.7-1.2-.9T722.6,18.7Zm.6,1.9h0v.2l-.6.6h0c-.1-.2.3-.4,1-.8Zm.6.1h-.1a3.6,3.6,0,0,0,1.8.9h.1A3.4,3.4,0,0,0,723.8,20.7Zm1.1,26.8h.1c.7-.3,1-.5,1-.7h0C725.4,47,725,47.2,724.9,47.5Zm.9-23.9a1.2,1.2,0,0,0,.9.6V24h0a.5.5,0,0,0-.5-.5C726,23.5,725.8,23.5,725.8,23.6Zm1-3.4h0a1.7,1.7,0,0,0,1.3.8c0-.4-.3-.8-1-1h-.3Zm1,2.6h0a3.5,3.5,0,0,0,1.8,1.5h.3A8.7,8.7,0,0,0,727.8,22.8Zm1.2,1.9h0c.2.6.8,1,1.8,1.4h.2l.2-.2h0a2.6,2.6,0,0,0-2-1.1Zm2.8,15.1h.1c.2,0,.5-.3.8-1h-.2C732.3,38.8,732,39.1,731.8,39.8Zm1-1V38h.1c.2-.1.3.2.2.9h-.5Zm.5-3.5c0,1.3.2,2,.3,2h.1a2.4,2.4,0,0,1,.6-1.5v-.2l-.7-.9h-.1C733.4,34.7,733.3,34.9,733.3,35.3Zm.8-4.2v.3l.2.2.2-.2v-.3h-.4Z" transform="translate(-0.4 0)" style="fill:#b75326"/><path d="M741.6,16l4.2,1.4a6,6,0,0,0,.7,2V20a147.6,147.6,0,0,0-.2,16.5c0,1.2.4,2,1.4,2.3l.4,1.1c0,.2,1.4.5,4.2.6h.2c.8,0,1.9-.9,3.2-2.8a9.5,9.5,0,0,0,1.9-2.3h.4v-.7a4.3,4.3,0,0,0,.5-1.6h.1v-.6l1.1-11.7V19.6l-.2-.6h0a1.6,1.6,0,0,0,.7-1.5c0-.4.2-.7.5-.7l1.4.7h1.4a4.9,4.9,0,0,1,3.5,1v.3c-.5,0-.7.1-.7.2l.6,1.5h.2c0-.6.1-.9.2-.9a1.3,1.3,0,0,1,.3,1l-.6,7.7h.1a43.3,43.3,0,0,0-.9,7.5v1.8c0,2.7.2,4,.4,4h.3a13.7,13.7,0,0,0,3.5-.5c.3,0,.6.3,1.1.8-.1,3.6-.4,5.5-.7,5.5l-.7-.6-1.9.2-6.8-.2c-.4,0-.7-.8-1.1-2.4s-.4-.5-.4-.8V43h-.2a19.8,19.8,0,0,0-3.6,1.7c-.1.2-1.6.9-4.3,1.8a11.8,11.8,0,0,1-2.5,1,12.6,12.6,0,0,0-2.9-1.1c-2.6-2.5-4.2-4.8-4.8-6.8s-1.6-4.7-1.6-9.7l.7-7.2v-.2a20.2,20.2,0,0,0-4.2-.8c-.3-.4-.4-1.4-.4-3.1s.2-1.7.6-1.7S738.4,16.1,741.6,16Zm-4.5,2.9v.2h.8v-.2Zm0,1.9V21h.5v-.2l-.2-.2h-.3Zm.3-1.3v.2c0,.2.3.3.6.3h.1l-.3-.4Zm1,.8h0c.4-.1.5-.2.5-.3v-.2h-.2Zm1.1,0c0,.3.6.7,2,1.1h.6c.1,0,.2-.2.3-.4a4,4,0,0,0-1.8-1h-.4C739.8,20,739.5,20.1,739.5,20.3Zm.8-3.5V17h.4v-.2h-.4Zm1.1,6.7v.6l1-.3V22.4h-.2C742,22.3,741.8,22.7,741.4,23.5Zm.1,10.8v.2c0,1.6.8,4.1,2.6,7.5a.9.9,0,0,0,.7.4V42l-1.9-4.9a9.7,9.7,0,0,0-1.2-3h-.1Zm.2-17h0c0,.1.3.3,1,.5s0,.9.1.9h.4c1,0,1.6-.2,1.8-.5h0c0-.3-.6-.5-1.9-.7s-.2-.2-.7-.3h-.7Zm.6,13.1-.2.3h0l.2.2.2-.2v-.3Zm1.4,2.2V33a1.5,1.5,0,0,0,.9,1.3h.2c0-1.5-.2-2.3-.4-2.3h-.3A.7.7,0,0,0,743.7,32.6Zm.4-11.8V22h.2a.7.7,0,0,0,.4-.7v-.7c0-.3-.1-.5-.2-.5h-.1Q744.1,20.2,744.1,20.8Zm.8,15.9h0a.5.5,0,0,0,.5.3h0C745.4,36.8,745.2,36.7,744.9,36.7Zm1.2,4.4v.2c.1.2.2.3.4.3v-.3l-.2-.2Zm3.6,4.1h-.6l-2.5-.2h-.1l-.2.2h0c0,.3,1.2.8,3.4,1.2a12.1,12.1,0,0,0,4.1-1.5h.1v-.2h-.4A14.6,14.6,0,0,1,749.7,45.2Zm-3.1-5.3h0l.2.2h.1V40h-.3Zm1,1.7h0c0,.5.7,1.1,2.2,2a10.4,10.4,0,0,0,2.4-1.2h0a25.5,25.5,0,0,1-4.4-.7Zm3.2,2.2V44h.7a5.6,5.6,0,0,0,3.2-1.7v-.2h-.3A19.8,19.8,0,0,0,750.8,43.8Zm5.2-5h.1a7.7,7.7,0,0,0,1.5-2.2h-.2A12.1,12.1,0,0,0,756,38.8Zm3.1-1.7c-.3.3-.4.5-.4.7l.3.2h.1l.2-.2v-.4Zm.4,3.8h.2l.4-.4v-.2C759.7,40.4,759.5,40.6,759.5,40.9Zm1.3-22.8q0,.6.9.6h.5c0-.2-.4-.3-1.3-.4Zm.3,15.5v.6l.2.2.6-.5v-.3l-.3-.2h-.3Zm.1-13.3h0c0,.1.2.2.4.2h.1a.6.6,0,0,0,.5-.2h0l-.6-.2h-.2Zm0,20.7v.7c0,2.9.1,4.4.4,4.4h.3c.2-.1.3-.2.3-.4a20,20,0,0,1-.5-4.5l-.3-.4Zm.1-3v.4h.3v-.2h-.3Zm.1-5.3.3.3c.2,0,.3-.5.4-1.2h-.2A1.2,1.2,0,0,0,761.4,32.7Zm.8-5.9v.3h.1c.4,0,.6-.5.6-1.4s-.1-.6-.2-.6S762.4,25.7,762.2,26.8Zm.3,10v.4a12.1,12.1,0,0,0,.3,2.5h.2a6.7,6.7,0,0,0,.3-1.8v-.4c0-.5-.2-.7-.7-.7Zm0-.8h0l.2.2.2-.2v-.2h-.4Zm1.3,8.8h0c.1.2.3.3.7.3h.8c0-.2-.2-.3-.8-.4H764Zm.7-16V29q.1.3.3.3h0v-.5Zm.8,11.1-.6.9V41h.6l.2-.2v-.3C765.5,40.2,765.5,40,765.3,39.9Zm1.8,2.9V43h.6c.9,0,1.4-.2,1.4-.4H769Zm1.6.8V44h.3l.2-.2h0c0-.1-.1-.1-.2-.1Z" transform="translate(-0.4 0)" style="fill:#b75326"/><path d="M786,9.4a61.2,61.2,0,0,1,9.2,1.8,29.5,29.5,0,0,0,4.2,1.7,3,3,0,0,0,.5-1.8h0v-.5c0-.5.4-.8,1.2-.8a4.1,4.1,0,0,1,2.1-.5c1.2,0,1.8.1,1.8.4l.6,5.8v1.8c0,1.5-.2,2.3-.6,2.6s-.7.6-.9.6c-2.3-.2-3.4-.5-3.4-1a3.5,3.5,0,0,0-2.2-2.1c-4-2-6.8-3-8.5-3h-1.8q-3,0-3.6,1.2a4.6,4.6,0,0,0-.8,2.7h0c0,2.3,1.2,4.1,3.6,5.6a15.2,15.2,0,0,0,6.1,1.4c0,.4.9.9,2.8,1.4.3.6,1.2.9,2.4.9s3.1,2.1,5.5,4.7l.2.3v.2h-.4a7.8,7.8,0,0,1,.9,2.2c0,3.7-.6,6.1-1.8,7a8.3,8.3,0,0,1-3.4,3.3,8.7,8.7,0,0,1-5.9,2.6h-2.2c-3.2-.5-4.9-.9-4.9-1.2a13.2,13.2,0,0,0-3.2-2,11.3,11.3,0,0,1-4.2-2.9H779c-.6,1.4-1,2.1-1.3,2.1-2.6-.4-3.9-.8-3.9-1.3a23.2,23.2,0,0,1-.4-5.4l.6-3.8c0-1.4.2-2.1.5-2.1l3.9-.5c.3,0,.6,1.2.9,3.5l1.7,3.1a61.5,61.5,0,0,0,5.5,3.7,5.3,5.3,0,0,0,3.9,1.6h2.2a4.7,4.7,0,0,0,4.4-2.2,8.6,8.6,0,0,0,2.1-4.5h0c0-1.3-1-2.8-3.1-4.5a4.4,4.4,0,0,0-3.5-1.6c-.7-.4-2.5-.7-5.5-1.1l-5-2.6-2.4-2.1a11.2,11.2,0,0,1-1.7-3.3v-1l-.2-2.4a3.1,3.1,0,0,1,1.1-2c0-.5,1-1.7,2.9-3.4s3-1.8,3.3-2.4ZM774.3,38.3v1.6h0c.3-.3.4-1.3.4-3v-.5h-.2C774.4,36.3,774.3,36.9,774.3,38.3Zm1.7,3.2v.2l.2.3h.1l.2-.2h0l-.3-.2Zm.4-8.2v.3h.4v-.3ZM778.9,17a4.1,4.1,0,0,0,.3,1.6h.2V16.8H779Zm.1,22.4v.2c.6.8,1.2,1.2,1.7,1.2h.1v-.2c-.8-.8-1.4-1.2-1.7-1.2Zm.4-24V16h.1l.3-.6h-.3Zm.9,7.4h0l.2.2h.1v-.3h-.3Zm.2-5.2v.2h.1l.3-.3h-.2Zm.7-2.8h.3v-.2h-.3Zm.3,8.3h0c.3.9.6,1.3.9,1.3h.2l.3-.3h0c-.5-.7-.9-1-1.3-1Zm.2-7.4h.3c.9-.6,1.4-1.1,1.4-1.5h-.2c-.4,0-1,.5-1.5,1.5Zm1.4,6.9h.8q0-.3-.6-.3Zm1.5.5h0v.4l.4.4h.3v-.3A.8.8,0,0,0,784.6,23.1Zm.1,3.2h-.1c0,.2.3.5.9.7h.1Q785.6,26.6,784.7,26.3Zm.4,18.5h0c0,.2.5.4,1.6.7l.3.2h.3c-.1-.6-.3-.8-.4-.8Zm.6-34.5v.2c0,.2.3.3.8.4s1.7-.2,1.7-.4v-.2c0-.3-.6-.5-1.8-.5A1,1,0,0,0,785.7,10.3Zm.9,14.2h0a7,7,0,0,0,2.3,1.3l.2-.2C789.1,25.6,788.2,25.1,786.6,24.5Zm.8-11.6.7.3a2.2,2.2,0,0,0,1.3-.6l-.3-.3h-.7C787.8,12.3,787.4,12.5,787.4,12.9Zm.9,33.6h0l.2.3h.5a.8.8,0,0,0-.6-.2Zm.4-.9v.3h.2l-.2-.2Zm.9,1.2a4.1,4.1,0,0,0,2.3.5h2.8c-.1-.3-1.5-.5-4.2-.5C789.9,46.6,789.6,46.7,789.6,46.8Zm.5-32.9c0,.3.7.5,2.2.6v-.2c0-.2-.7-.4-1.9-.6h-.1Zm0,12.2c0,.2,1.4.6,4.3,1.2h1.1a9.7,9.7,0,0,0-4.6-1.6C790.3,25.9,790.1,26,790.1,26.1Zm.7,1.8v.2l1,.3h.7A5.4,5.4,0,0,0,790.8,27.9Zm4.6,18.7v.2h.4c.7,0,1.1-.1,1.1-.3h-1.5Zm.5-33.7h0c0,.2.2.3.7.3h.2Q796.8,12.9,795.9,12.9Zm.7,2.3h-.1a8.2,8.2,0,0,0,2.5,1.1h0Q799,16,796.6,15.2Zm.2,13.6h0l3.3,1.9a3.5,3.5,0,0,0,1.9,1.1h.1v-.2c-.9-1.3-2.5-2.2-4.8-2.9Zm1.5,12.8v.3h.1a3.3,3.3,0,0,0,.9-1.1v-.2A3,3,0,0,0,798.3,41.6Zm.6-9.1v.3c0,.4.3.9,1,1.5h.4v-.5c0-.5-.5-1-1.3-1.3Zm.6,11.4h0c0,.1.1.1.2.1s1.2-.6,2.1-1.9h-.2Zm.1-29.2a5.3,5.3,0,0,0,2,.9h.1c0-.3-.6-.5-1.9-.8h-.2Zm.1,22.6v.3h.2l.2-.2v-.2Zm1.5-18.2c.3.3.8.4,1.7.4h1.3v-.3h-3Zm.6-9v.2c.5.7.9,1.1,1.2,1.1a1.3,1.3,0,0,0,.8-.7v-.2C803.8,10.3,803.1,10.1,801.8,10.1Zm1.3,27.7v.5h.2c.2-.1.4-.4.4-1h-.3Zm.8-25.5h.4v-.3H804Z" transform="translate(-0.4 0)" style="fill:#b75326"/><path d="M813.2,39.4a4.9,4.9,0,0,1,2.6,1,2,2,0,0,1,.2,1.1v.8c0,1.7-.9,2.9-2.8,3.7l-.8.4c-.9,0-1.7-.8-2.5-2.4v-.4c0-1.7.3-2.8.8-3.2A5.9,5.9,0,0,1,813.2,39.4Zm-2.1,2.7c.2,1.1.3,1.6.5,1.6a7.8,7.8,0,0,0,.6-2.1l.2-.4v-.3h-.1Q811.1,41.4,811.1,42.1Zm.4,2.7c0,.3.1.4.4.5h.6a1.8,1.8,0,0,0,1.3-.6h0Zm1.3-2.3h0c0,.4.1.7.3.7h.1c.2,0,.4-.4.7-1.3v-.3h-.3C813.1,41.6,812.8,41.9,812.8,42.5Zm1.9.8h.3v-.6h0C814.9,42.8,814.8,43,814.7,43.3Z" transform="translate(-0.4 0)" style="fill:#231f20"/></g></g></svg>