<svg xmlns="http://www.w3.org/2000/svg" viewBox="0 0 143.4 45.9"><title>icn_rotator_Asset 45_adj</title><g id="Layer_2" data-name="Layer 2"><g id="Layer_1-2" data-name="Layer 1"><path d="M15.1,2.5l4.2.8c.6,0,1.8.6,3.5,1.8H23c.1-1.6.3-2.4.5-2.4l2.2.7h2.4v8.3a2.1,2.1,0,0,1-.4,1.2,1.4,1.4,0,0,1,.5.9,3,3,0,0,1-.4,1.1v1c0,.5-.1.7-.4.7l-1.5-.2h-.1l-.9.2h0q-.3,0-.9-2.7a2.1,2.1,0,0,0-.7-1.5,3.2,3.2,0,0,1-.8-1.6h.4A3,3,0,0,1,21.7,9c-1.6-1.7-3.1-2.5-4.3-2.5H17a58,58,0,0,0-6.2,1.2,10.9,10.9,0,0,0-1.6,2.4A4.8,4.8,0,0,0,8,13c.3,2.7.6,4,1,4a4,4,0,0,0,1.9,2.5c.2.3.6.5,1.5.6a12.8,12.8,0,0,0,3.7,2q0,.3.6.3l.7-.2.5.2h0l-.2.2v.2A2.5,2.5,0,0,0,19.8,24h0l-1.3-1h0c.5,0,1.9.8,4.1,2.2,3.4,3.2,5.1,5.2,5.1,6.1a33.3,33.3,0,0,1,.8,4.6c-.4,3.2-.7,4.8-1,4.8L26,43.1c-2.8,1.7-4.5,2.5-5,2.5a51.8,51.8,0,0,1-9.4-2.4c-3.3-3-4.9-4.8-4.9-5.3l-.2-.2H6.4v3.7c0,.3-.8.5-2.2.5H3.1l-1,.4A2,2,0,0,1,1,41.6H1l.3-.5c.3-6.9.6-10.4,1.1-10.4h0l1.2.2h0a.7.7,0,0,0,.6-.2l.8.2h.6q.3,0,1.2,1.8A63.6,63.6,0,0,1,11,38.2c.2,0,.7.6,1.6,1.7l3.8,1.6h1.1v.2H18a1.8,1.8,0,0,0,.9.4h.4c1.2-.1,1.7-.3,1.7-.5H19l4.4-.9c.7,0,1.3-1.1,1.9-3.4a1.8,1.8,0,0,1,.6-1.6v-.3c-.7-2.2-1.5-3.6-2.4-4.3s-2.3-1.9-5.6-3a18.5,18.5,0,0,1-5.2-2.9c-1.9-.5-3-1.2-3.3-1.9a11.9,11.9,0,0,0-2.8-2.7,21,21,0,0,0-2.5-5.2,24.9,24.9,0,0,1-.6-5.7C3.8,8,5.3,6.2,7.9,3.8,9.4,2.9,11.8,2.5,15.1,2.5ZM2.8,34.6a5.3,5.3,0,0,0-.4,2.3l.2.9h.1c.4,0,.5-.2.5-.6A21.1,21.1,0,0,1,3,34.6Zm-.1,4.7h.1c.2,0,.3-.4.4-1.2H3Q2.8,38.1,2.7,39.3Zm1.6-2.9a4.8,4.8,0,0,1-.6,1.4l.2.6v2c0,.3.1.5.2.5h.4l.2-.2v-.3C4.7,37.7,4.6,36.4,4.3,36.4ZM4.9,8.5h.3V8.3H5.1Zm1.7,9.7v.4l.2.3h.5v-.3C7,18.3,6.8,18.2,6.6,18.2Zm.2-7h.1A2.4,2.4,0,0,0,8,9.4H7.8C7.4,9.3,7,9.9,6.8,11.2Zm.8,8.7v.2a4,4,0,0,0,1.8,1h.2v-.3a6.6,6.6,0,0,0-1.9-.9Zm0,18v.2q.3.9.9.9h0c-.2-.7-.5-1-.8-1ZM7.8,8.8l.4.4h.2c.4,0,.8-.3,1.3-.8H8.8A1.2,1.2,0,0,0,7.8,8.8Zm.1-4.2h.8a29.6,29.6,0,0,0,4.5-1c1-.2,1.5-.3,1.5-.5h-.2C10.1,3.4,7.9,3.9,7.9,4.6Zm.3,1.5h.2c.3,0,.4-.2.5-.4h0C8.5,5.8,8.3,5.9,8.2,6.1ZM9.8,7h.1a10.4,10.4,0,0,0,2.9-1.2l1.7-.6h0l-.2.4h.8V4.7h-.1L10.8,6.2C10.1,6.4,9.8,6.6,9.8,7Zm0,31.5h0c.2.7.6,1,.9,1v-.2a2,2,0,0,0-.8-.8Zm.3,2.5h0a5,5,0,0,0,3.1,2.1,53.6,53.6,0,0,0,5.7,1.6,2.7,2.7,0,0,0,1.4.4h.5c1-.2,1.6-.5,1.6-1h0l-5.6-.3a29.7,29.7,0,0,1-6.3-2.7Zm3.4,0h0c0,.2.2.3.5.3h0A.5.5,0,0,0,13.5,41Zm1.4-19a.6.6,0,0,0,.5.2h-.5Zm1.2.8-.2.2a7.1,7.1,0,0,0,2,1.2v-.3A5.4,5.4,0,0,0,16.1,22.8Zm1.1,3.8v.3a6.9,6.9,0,0,0,1.9.4c0,.2.2.3.5.3h.5c0-.4-.9-.7-2.6-.9ZM19.1,5.2c0,.1.6.4,1.9.6h.4c-.1-.3-.5-.4-1.2-.4Zm.5,38.9h.1c.3.1.4.2.4.3h-.5Zm1.8-15.8h0l.2.2h.1v-.2h-.3Zm0,14.6h0l.2.2h.3c1.5,0,2.3-.3,2.5-.7h-.6A7.2,7.2,0,0,0,21.4,42.9Zm.8-36.4.3.2H23V6.3L22.5,6A.5.5,0,0,0,22.2,6.5Zm2-2.7v.5a.5.5,0,0,0,.5.3h1.1A2.1,2.1,0,0,0,24.2,3.8Zm.1,1.7h0V6h.1l.3-.2V5.5l-.3-.2h0Zm.8,4.9h0l.2.2h.3l.2-.2h0l-.2-.2h-.3Zm.2,3.1v1.2h.1a.5.5,0,0,0,.5-.4,3.9,3.9,0,0,1-.3-1.3h-.1A.5.5,0,0,0,25.3,13.5Zm.1-6.2h.2l-.3.3V8l.5.3c.1.3.2.5.4.5h.2V8.2h.2l.3.2h.1V8h0c-.3-1.2-.5-1.7-.7-1.7H26A1.1,1.1,0,0,0,25.4,7.3Zm-.1,4.5V12l.2.2h.2V12l-.2-.2Zm.1,3.9.3.2h.2v-.2l-.3-.2h-.1Zm.2,24.2.2.2h.3l.2-.2v-.2h-.4Zm.5-29.8h.2V9.9Zm.4.9v.8h.1l.2-1h-.2Zm.1-1.6v.2c.2.2.3.4.4.4V9.4Z" transform="translate(-1 -0.5)" style="fill:#b75326"/><path d="M45.6,2.2c9.4.2,14.1.4,14.1.7s-.1.2-.4.2h.1a6.7,6.7,0,0,1,3.1-.9h.3a1.6,1.6,0,0,1,.3.9,55.3,55.3,0,0,0,.3,6.1l-1.2,2.4a2.5,2.5,0,0,1-1.4.4c-1.3,0-2-.4-2-1.1v-.2a3.6,3.6,0,0,1,.7-.9,1.1,1.1,0,0,1-.7-1.1c0-.7-.3-1.1-.9-1.1s0-.6-.1-.6H56.1c0,.1.3.3.7.4v.3h-12c-2.7,0-4,.1-4,.5s.4,3.9.7,11.6a.9.9,0,0,0,.7.4h.4l3.1-.2,5,.6c.4,0,.7-.6.7-1.7s.5-.9,1.5-1.1l.4-.3c.5,0,.8,2.1.8,6.4v2.4c0,.5-.1.7-.3.8a16.7,16.7,0,0,0-2.4-.8q-.1,0-.6-1.8T46,23.9c-2.9,0-4.3.1-4.3.4v.9l.4,6.3c-.1,2.3-.3,4.8-.6,7.4h.3l6.8-.6h.1a84.1,84.1,0,0,1,8.9.6h.1c.3,0,.4-.2.6-.6h.3l.6.6h0v-.3c0-.8-.1-1.1-.4-1.1h-.5a2.1,2.1,0,0,1-.9-1.3c0-.4.7-.8,2.2-.9a5,5,0,0,1,1.6.7c.5,0,.7.4.7,1.3a63.7,63.7,0,0,0,.3,7.1l-.2.6h-.3a11.4,11.4,0,0,0-3.2-.6q0-.1-21.9-.6c-1,0-1.4-.4-1.4-1.2S35,42,35,40.7l.3-1.4v-.6l.2-.3h.2q.6.6.9.6h.2c.8-.2,1.3-.5,1.3-1l-.4-13.9a4.6,4.6,0,0,0-.6-1.6c.1,0,.3-3.9.4-11.8a2.1,2.1,0,0,0,.3-1.3V9.2c0-1.1-.7-1.6-2-1.6l-1.6-.5h-.8c-.6,0-1-.9-1-2.7h-.1c.1-1.3.6-1.9,1.4-1.9h0Zm-11.9,1h0l.6,1c.3-.5.6-.7.7-.7h.7a4.8,4.8,0,0,0-1.8-.3Zm2.1,3.3h0Zm.6,35.9v.7h.1v-.6Zm.3-38.6c0,.1.1.1.3.1h.5V3.5h-.3Zm1.1.3h0c.1.3.3.4.8.4h.7V4.3l-1.1-.5h-.1Zm0,37.3h0a.6.6,0,0,0,.6.3H39l.2-.2h0c0-.1-.2-.2-.4-.2h-1ZM38.9,26v1h.1l.2-.2V26Zm.6-15.7v.6a.7.7,0,0,0,.5.4l.2-.3h0c0-.5-.2-.8-.5-.9Zm.2,3.2v.4l.2.2h.3l-.2-.8ZM40,40v.2h.2V40Zm.2-4.8v1.1h0c.3,0,.4-.3.4-.7s0-.6-.2-.6Zm.1-4.4V31h.2v-.2Zm0,10h0c.1.2.3.3.7.3h.7v-.2l-.5-.2h-.7Zm.3-34.4a.8.8,0,0,0,.7.4h.1c1.6,0,2.4-.2,2.4-.4h0c0-.2-.6-.3-1.6-.3H42c-.9,0-1.4.1-1.4.3Zm.2-2h0a.6.6,0,0,0,.6.3h.3a.6.6,0,0,0-.6-.3Zm1,17h.5v-.2l-.2-.2H42Zm.8-17.8h0Zm1,1.1c0,.2.3.3,1.1.3S44.3,4.7,43.6,4.7Zm.9,36.1V41l.2.2h.6l-.2-.2Zm.5,2.6v.2h.3v-.2h-.2Zm.6-37c.1.2.2.2.5.2h.1c.2,0,.4,0,.4-.2h-1Zm.6,15.4h0v.2h.2v-.2h-.3Zm0,19.3h0l1.5.2h3.6q0-.3-3.6-.3ZM47,21.9v.2h.2v-.2Zm.7,0h0l.2.2h.3l-.2-.2ZM49.8,43v.2h1l-.7-.2Zm3.9-1.6h0a7.8,7.8,0,0,0,3,.3h0a8.8,8.8,0,0,0-2.4-.3Zm1.8,1.9H56c.3,0,.5-.1.5-.2h-.8c-.5.1-.8.1-.8.3ZM55,4.6v.2l3.5.4q.3-.2.3-.3V4.6H55Zm3.2,36.6h0c0,.2.1.3.4.3l.6-.3h0v-.2h-.7ZM59.7,8.9l.2.2c.1,0,.2-.2.3-.7V8h-.2c-.1,0-.2.3-.2.8Zm.2,33.6v.3h1v-.2h-1Zm.7-5.3c.2,0,.3-.1.3-.2v-.2h-.2c-.2.1-.3.2-.3.4Zm.5-26.8.2.2h0c.2,0,.3-.2.3-.7h-.2l-.4.5Z" transform="translate(-1 -0.5)" style="fill:#b75326"/><path d="M76.6,4.5c.7.2,1.1.5,1.1.9l-.4,1.3v.2l.6.7c0,.8-.6,1.2-1.6,1.4s-.7,0-.7.2l1.6,2.1a6.2,6.2,0,0,0,1,2.2,76.4,76.4,0,0,0,4.3,6.4.9.9,0,0,0,.7.9h0a10.1,10.1,0,0,0,1.9-2.7l3.5-6.3a1,1,0,0,0,.4-.7h0c-.6-.8-1.1-1.3-1.4-1.3S86,9.4,86,9.2a3.6,3.6,0,0,0,.5-1.3V7.6l-.3-.4h0l.6-1.4.6-.2h.2l1.1.2h6a9.1,9.1,0,0,1,4.3.9V7c0,1.8-.3,2.9-.8,3.1s-1.5.9-3.3.9-.9.1-.9.3.2.2.6.2v.2c0,.1-.3.2-1.1.5a51.7,51.7,0,0,1-3,5.2c-1.6,2.8-3.2,5.2-4.6,7.2v.2a25.8,25.8,0,0,0,2.4,4.5c3,7.4,5.1,11.1,6.4,11.1a8.8,8.8,0,0,1,4.9,1.7v1l-.3.7c0,.9,0,1.4-.2,1.4H97.5l-1.5.6-2.4.2a15.8,15.8,0,0,1-6.1-1.1l-.6-1.2-.5-.5h.5L86,41.9c0-.4.7-.9,2.3-1.5h.1v-.2a60.7,60.7,0,0,0-4.3-8.3c-.9-1.7-1.5-2.5-1.8-2.5a10.1,10.1,0,0,0-1.9,2.7,36.4,36.4,0,0,1-5,6.8l-1,1.4c-.5.4-.8.7-.8.9s1.7,1,1.7,1.8-.7,2.5-1.2,2.5a1.4,1.4,0,0,1-1.5.9l-4-.6H66c-.8,0-1.4-.7-1.6-2.2a2.3,2.3,0,0,1,.7-1.7,7.9,7.9,0,0,1,1.2-1.4h.1c.5.6.9.9,1.1.9s1.9-1,1.9-1.8a98.7,98.7,0,0,0,6.3-8.7,11.3,11.3,0,0,0,1.5-2.2,3.5,3.5,0,0,0,1.2-1.9l1.4-2.1v-.3a46,46,0,0,0-4.2-6.6,28,28,0,0,1-2.8-4.6c-1.3-2-2.4-3.1-3.3-3.1s-2.4-.3-2.4-1-.1-1.3-.2-1.3A4.3,4.3,0,0,1,71,5.4,40.2,40.2,0,0,1,76.6,4.5ZM65.5,45.3h1.6l.2-.2h0a.6.6,0,0,0-.6-.3h-.4A.8.8,0,0,0,65.5,45.3ZM69.6,7.7h0ZM70.1,43v.2h0ZM71.9,9.8V10h.4L72,9.8Zm.4,35V45a.5.5,0,0,0,.5.4c.2,0,.3-.1.4-.3l-.2-.3Zm.5-35.3v.4l.2.2h.1a.6.6,0,0,0-.2-.5Zm.7,26.8v.2h0c.2,0,.6-.4,1.2-1.1v-.2h-.3A3.5,3.5,0,0,0,73.5,36.3Zm.1,2.6v.2h.1l.2-.3h-.3Zm1-.9h.1l.4-.2h-.4Zm.3-3.7h.2l.3-.3v-.2C75,33.8,74.9,33.9,74.9,34.3Zm.8-1.2h.1l1-1.4v-.3h-.3C76.2,31.5,76,32,75.7,33.1Zm.6-19.2c0,.4.4,1.1,1.3,2a4.5,4.5,0,0,0,1.5,2.2h.2A10.2,10.2,0,0,0,77,14.2a.9.9,0,0,0-.7-.3Zm3.6,8.4a.7.7,0,0,0,.7.7v-.2a1,1,0,0,0-.6-.5Zm.1,6.3h.1l.9-1.2v-.4c-.4,0-.6.4-.6,1Zm3.2-.5a7.4,7.4,0,0,0,1.7,3.1h.2a24.7,24.7,0,0,0-1.6-3Zm2.3,3.6h-.1l.2.3h.2Zm.4-3.7h-.1a8.3,8.3,0,0,0,1.8,2.5h.1C87.7,30.2,87.1,29.3,85.9,28Zm.8-11.3h.1c.6-.6.8-1,.8-1.3h-.2A1.4,1.4,0,0,0,86.7,16.7Zm.4,17.5.4.4h.1l.3-.3q-.2-.6-.3-.6C87.3,33.7,87.1,33.8,87.1,34.2Zm.4,9.4v.2l.2.2h.1a.5.5,0,0,0,.5-.5h-.7ZM87.7,8v.3a3.2,3.2,0,0,0,1.7.7H90V8.8A7.4,7.4,0,0,0,87.7,8Zm.6,33.5h0Zm.1,1.3h1c.2,0,.4-.1.4-.2H89C88.6,42.6,88.4,42.7,88.4,42.8ZM90,44.4h.3c.3,0,.5,0,.6-.2h-.4C90.2,44.2,90,44.3,90,44.4Zm1.2-31.9h.4l.3-.3v-.2h-.1A.5.5,0,0,0,91.2,12.5Zm.2,31.9h0a.5.5,0,0,0,.5.3h.4v-.2h-.9ZM92.5,6.9h0Zm1.1,34.9V42h.5l-.2-.3ZM94,9h0Zm3.5,34.6h.1c.9-.1,1.4-.2,1.4-.4h-.5C97.8,43.2,97.5,43.3,97.5,43.6Z" transform="translate(-1 -0.5)" style="fill:#b75326"/><path d="M113.4,3.3c.2.1.3.1.3.2a37.7,37.7,0,0,0-.3,3.9c-.1.3-.5.4-1.4.4a41.1,41.1,0,0,0,4.4,6.5l1.3,2.8a10.5,10.5,0,0,0,2.3,2.5,16,16,0,0,0,2.8-3.5c1-1.6,2.4-3.3,3.9-5.3a4.8,4.8,0,0,0,1.1-2.2h-1.6c-.9,0-1.4-1.1-1.6-3.4,0-.5.6-.7,1.6-.7s1.1-.7,3.3-.7h3.6c2.3,0,3.4.1,3.4.5a4.1,4.1,0,0,1,.2,1.4v.8c0,1.1-.2,1.6-.7,1.6s-.5.3-.6,1h-.2l-.8-.8h-.5c-.5,0-1,.4-1.7,1.2H132l-.2-.8h-.2c-.4,0,.2-.3,1.7-1.1-2.9,2.2-4.4,3.5-4.4,4a.8.8,0,0,0-.2.5h0a1.4,1.4,0,0,0,.7-.9c2.6-1.8,4-2.9,4.3-3.5h.2c.6.1.8.3.8.4v.3l-7.3,9.1c-3.1,3.6-4.7,5.8-4.9,6.5v.3c.3.5.4,2.9.4,7.3,0,5.9.3,8.8.8,8.8h.1l1.8.3h1.1l.2.4v2.4l.6.6v.2q-1.1,1.5-5.7,1.5c-4.5-.1-6.7-.3-6.7-.7V41.6c0-.6.6-.9,1.9-.9s1.6-.2,1.6-.3h0c-.4-1.7-.7-6.3-.7-13.8a6.4,6.4,0,0,0-.5-1.7,1.7,1.7,0,0,0-.8-1.2c-1-2.1-3-5.5-5.9-10.5L108,9.2a1,1,0,0,0-.7-.2h-2.8c-.7-.1-1-.3-1-.5l.4-.7-.5-.2h-.2v.4a.6.6,0,0,1-.5.6c-.3,0-.5-.4-.7-1.2s-.8-.9-1-.9V6.3q.6-.3.6-.6l-.4-.4c0-.6.5-.9,1.6-1H104a67.4,67.4,0,0,0,8.8-.9ZM109,8.2v.4h.1V8.2Zm.4.8h-.1c.2.7.4,1.1.5,1.1h.2A1.4,1.4,0,0,0,109.4,9Zm.1-2.8h.6l1.4.3.2-.3c0-.2-.3-.3-.8-.3h-.1C109.9,5.9,109.5,6,109.5,6.2Zm4.2,9h0v.5l.3.3h.4a.3.3,0,0,0,.3-.3C114.7,15.6,114.4,15.4,113.7,15.2Zm1.3,1h0l.2.2h.1v-.2H115Zm1.9,27.3h0l.2.2h.5c.5,0,.8-.1.8-.3h-1.1C117,43.3,116.9,43.4,116.9,43.5Zm2.2-9H119v2.6h.2V35.9C119.3,34.9,119.3,34.5,119.1,34.5Zm1-11.1a.5.5,0,0,0,.4.6h.4c0-.2-.2-.4-.5-.6h-.3Zm.6-2.8h0c.2,0,.6-.5,1.4-1.6v-.3h-.2C121.1,19.6,120.7,20.2,120.7,20.6Zm.7,5.7v.4h.2l.2-.2v-.5h-.1Zm1.1-8.5v.3h0c1.5-1.9,2.3-3,2.3-3.4h-.1A14.8,14.8,0,0,0,122.5,17.8Zm.9,26h1.1c.6,0,.9,0,.9-.2l-.4-.2h-1.4Zm3.1-36.5.2.2h.2a.6.6,0,0,0,.6-.3V7H127A.5.5,0,0,0,126.5,7.3Zm8-.4v.2h.3V6.8h-.3Z" transform="translate(-1 -0.5)" style="fill:#b75326"/><path d="M140.6,37.7c.9.3,2,1.4,3.4,3.3h0c0,.6-1.1,1.8-3.4,3.7h0l1,.2h0l-1,.2a7.7,7.7,0,0,1-4-1.7,3.4,3.4,0,0,1-.8-1.9c0-1.7,1.2-3,3.6-3.8ZM140.7.5h.4A3.8,3.8,0,0,1,144,1.9V7l.4,8.3a20.9,20.9,0,0,1-.8,6.6v1l.2.8-.3,1.2v.8a3.6,3.6,0,0,0,.4,1.9c-.2,1-.3,1.5-.5,1.5h-.1c-.2-.2-.3-.3-.5-.3a11.9,11.9,0,0,0-2.4,1.7h.1q2.7-.3,2.7-.6h.3l.4.3c0,.6-1.7,1.1-5.2,1.4-.2,0-.3-.1-.5-.3s.3-.4.9-.5h.2v-.2c0-.1-.3-.2-.8-.4v-.5q0-.3.9-.6a1.3,1.3,0,0,0,.3-.7h0c0-.1-.5-.2-1.4-.3s-.4-5-.7-15.1c-.1-1.6-.2-3.7-.2-6.3V4.8a1.9,1.9,0,0,1,.9-1.7l-.7-1c0-.3.2-.4.7-.5h.1V1.3h-.1C138.1.7,139,.5,140.7.5Zm-2.9,40.6.2.3h.2v-.5H138C137.9,40.7,137.8,40.9,137.8,41.1ZM138.2,7h-.1V8.3h.1V7.6C138.4,7.2,138.3,7,138.2,7Zm0,2v3.7h.3a9.1,9.1,0,0,0,.2-2.1L138.4,9h-.2Zm0,4.5v.3h.2l.2-.2v-.2h-.4Zm.7-11.6v.2h.5V1.9h-.5Zm.2,19.4v3.3c0,.6.1.9.2.9a1.7,1.7,0,0,0,1-1.4v-.2c0-.1-.1-.2-.4-.4s-.2-.6-.3-1.7v-.2h-.1A.2.2,0,0,0,139.1,21.3Zm.2,5.1h.1a.6.6,0,0,0,.3-.6h-.1Q139.3,25.8,139.3,26.4Zm.4,14.4V41h.3c.6-.1.8-.2.8-.3l-.2-.2h-.4C139.9,40.5,139.7,40.6,139.7,40.8Zm.2-26.5h0v.2h.3V14h-.1Zm.1,2.9v.3h.1c.1,0,.2-.4.2-1V15.1C140.2,15.1,140.1,15.8,140,17.2Zm.1,22.1c0,.3.5.4,1.3.4h.1c0-.2-.3-.3-.9-.4h-.5Zm.4-15.6v.2h.3v-.3h-.2Zm0,18.2h0v.2h.2l.2-.2v-.2h-.3Zm.6-36.6H141V9.2c0,1.3.1,2,.4,2h0V8.4a1.2,1.2,0,0,1,.4-1.1V7.1c-.4,0-.5-.5-.5-1.7h-.2Zm0-.7H141l.3.3h.1V4.6Zm.7,22.7v.2h.1c.7,0,1.1-.3,1.2-.8v-.3h-.3C142.6,26.3,142.3,26.6,141.8,27.3Zm.2-14.9v.5l.2.2h.1V11.9h-.1A.8.8,0,0,0,142,12.4Zm.2-9.4h0c0,.4.1.7.3.7h.1c.2,0,.3-.3.4-1a.3.3,0,0,0-.3-.3C142.4,2.5,142.2,2.6,142.2,3Zm.3,12.5v.4h.1l.3-.2v-.2Z" transform="translate(-1 -0.5)" style="fill:#231f20"/></g></g></svg>