<svg xmlns="http://www.w3.org/2000/svg" viewBox="0 0 251.4 49.1"><title>icn_rotator_Asset 63_adj</title><g id="Layer_2" data-name="Layer 2"><g id="Layer_1-2" data-name="Layer 1"><path d="M27.4,0A7.6,7.6,0,0,1,30,.7c.1,0,.1.6.2,1.9a1.6,1.6,0,0,1,.7,1c-.2,2-.4,6-.6,12.1-.1,0-.1.2-.1.6s-.5.4-.5.7v.9a8.8,8.8,0,0,1-.6,2.9v.9c0,.2.2.3.7.4v.4c-.6,5.2-.9,8.7-.9,10.3s-.1,2.8-.4,2.8h0c.2,0,.4.3.5.8v.7c0,.7-.3,2.6-.8,5.6v1.5c2.1.4,3.1,1,3.1,1.7l-.3.4V47l.3.4h0c-.3.9-1.5,1.4-3.5,1.4h-.4l-.3-.6h-.7l-1.6.4H22.2a10.5,10.5,0,0,1-.5-3.1v-2a5.8,5.8,0,0,0-2.5,1.4,24.9,24.9,0,0,1-9,3,14.8,14.8,0,0,1-6.5-3.5,14.6,14.6,0,0,1-1.9-2.9A5.6,5.6,0,0,1,.8,39.5v-.2H1a9,9,0,0,1,1.6,2.1h.3v-.8a5.5,5.5,0,0,0-1.2-3H1.3c-.2,0-.3.4-.4,1.1H.7v-.3c.1-1.6.2-2.6.2-3.1h.4v.6h.2a.8.8,0,0,0,.3-.7V33.8c-.2,0-.2.2-.3.6l-.3.4c-.1,0-.2-.2-.2-.5a20.4,20.4,0,0,1,3-9.9,24.5,24.5,0,0,1,2.9-4c1.3-1.2,3.3-1.7,6.2-1.7h.6a16.3,16.3,0,0,1,10.7,3.4l.4.2h.2c.4-1.8.7-6.4,1.1-13.8a.5.5,0,0,1,.5-.4h0a7.5,7.5,0,0,0-2.7-1.3c-.4,0-.7-1.4-.8-4.2L24,2.2h0c-.1-.2-.2-.3-.6-.3s-.2-.3-.2-.5.4-.6,1.4-.6V.5L24.4.2h3ZM3.4,32.8a.2.2,0,0,0,.2.2c.3,0,.5-.4.7-1.3v-.3H4C3.8,31.4,3.6,31.9,3.4,32.8ZM4,27.3v.2h.3A5.1,5.1,0,0,0,5.1,26c1.2-1.7,2-2.5,2.5-2.5l.2-.5H7.4a6.1,6.1,0,0,0-2,1.3A9.6,9.6,0,0,0,4,27.3Zm.4,15.8h0c0,.3.6.4,1.9.6v-.2L4.6,43Zm0-7.2v.9c0,.6.8,2.3,2.4,5a8.1,8.1,0,0,0,3.7.9,18.5,18.5,0,0,0,8.3-2c1.1-1.7,2.1-2.5,2.9-2.5s.9-2.1,1.5-4.7a5.2,5.2,0,0,0,.5-2.3v-.6c0-1.7-.3-2.6-.8-2.6a6.7,6.7,0,0,1-1.3-1.5l.2-.4c0-.2-.6-.4-1.8-.7l-.4-.3h1c0-.4-2.2-.7-6.7-.7l-.9-.2c-3.3.3-4.9.7-4.9,1.3a14.3,14.3,0,0,0-3,6.6A17,17,0,0,0,4.4,35.9Zm1.4,8.3c0,.4,1.2.9,3.7,1.3h.4c0-.3-1.2-.8-3.6-1.3H6Zm1-22v.2h.4c1.4-.4,2.1-.8,2.1-1.4s-.2-.2-.6-.2H8.4C7.8,20.9,7.3,21.3,6.8,22.2ZM9.6,46.6v.2h1a14.6,14.6,0,0,0,2.9-.4h0l-1.9-.2C10.3,46.2,9.6,46.4,9.6,46.6Zm1.2-26.1v.3l.2.2h.3l.3-.3v-.2l-.3-.2H11Zm.1,3h0Zm1.4,19.9v.2h.8q4.1-.3,4.5-1.2v-.2h-.3C14.2,42.8,12.5,43.1,12.3,43.4Zm.6-20.3h.2Zm.9,21.7h.6c1.3,0,1.9-.2,1.9-.4H15Q13.8,44.5,13.8,44.8Zm.4-21.1h.3l1.3-.2h-.4Q14.2,23.4,14.2,23.7Zm.4-2.7h2.8c-.1-.3-.7-.4-1.9-.5h-.6A.5.5,0,0,0,14.6,21Zm2.7,2.5.3.3h.3l.2-.2-.5-.2h-.3Zm1.2,19.1v.2h0a1.8,1.8,0,0,0,1-.7v-.2h-.2A1.5,1.5,0,0,0,18.5,42.6Zm.7-21h-.1v.2l1.9.6h.1c0-.4-.4-.7-1-.9Zm.9,1.9.2.2.2-.2h-.4Zm.9.4c0,.1.6.4,1.8.7h.1v-.2a1.3,1.3,0,0,0-1.2-.5Zm1.2,2.4v.5l.3.3h.2c.2,0,.2-.2.2-.4a.6.6,0,0,0-.3-.6h-.1Zm.9,15.8v.3c.3,0,.4.2.4.6h.1l.3-.3v-.5c-.2-.1-.2-.3-.2-.6h-.3A.5.5,0,0,0,23.1,42.1Zm.1,2.4h.1l.3-.2h-.2ZM24.6,4.4v.2H25c.3,0,.4,0,.4-.2V4.2h-.6Zm.1-1.5h.7V2.7h-.5Zm1.1,19c0,.3.1.6.3.6h0v-.5Zm.5-17.4h.2c.9,0,1.4-.1,1.4-.3l-.2-.2h-.8A.5.5,0,0,0,26.3,4.5Zm.1,38v1.3l.2.2h0l.2-.2v-.6a1,1,0,0,0-.2-.7Zm.1,2.2v.2H27v-.2Zm1.3,2a1,1,0,0,0,.7.2h1.6c0-.2-.2-.3-.7-.3S27.8,46.5,27.8,46.7Zm.3-43.2h.1Zm1.3,17h.3v.3h-.3Z" transform="translate(-0.6 0)" style="fill:#b75326"/><path d="M35.2,14.8a1.6,1.6,0,0,0,1.2.4l.8-.3c5.6,0,8.4.1,8.4.5v1.4a6.9,6.9,0,0,1,.5,2.4v1c-.5,5.7-.8,11.1-1,16.3a3.9,3.9,0,0,0-.2,1.3c0,.2.2.3.5.3h.3c2.2,0,3.3.2,3.3.7H49v.4a11.3,11.3,0,0,1,.7,4.7l.2,2.5h-9c-4.6,0-7-.3-7-1.1a3.5,3.5,0,0,0-.3-1.3,1.3,1.3,0,0,1,.6-.7h.2a.7.7,0,0,0,.6.2h.1l4.3-.3h0c-3.6-.2-5.3-.5-5.3-.8V41.3l-.2-1.5c0-.5,1.6-.7,4.7-.7q.6,0,.6-2.7l.7-16.3h0c-1.6,0-2.1-.1-1.6-.4-2.5,0-3.7-.3-3.7-.9s-.3-.2-.3-.5l.4-.7c0-.2-.2-.4-.5-.6h0c.4-.3.6-.9.8-2h.3Zm.1,26.5h0c.3.4,1.6.6,3.8.6h.4c.4,0,.6-.1.7-.3h0l-4.5-.3ZM36,16.1v.2h.3c1.1,0,1.6-.1,1.6-.3h-.3C36.5,15.9,36,15.9,36,16.1Zm.2.9h0c0,.1.3.2.8.2h2.9c.7,0,1-.1,1-.2h0c0-.3-1.2-.3-3.6-.1ZM43.5,2.7a3.9,3.9,0,0,1,3.4,2.2L47.3,7A7.5,7.5,0,0,1,46,10a3.7,3.7,0,0,1-2.5.8q-3.9,0-4.8-1.2a4.6,4.6,0,0,1-.9-3.4c-.2,0-.2-.1-.2-.2h0C38.8,4,40.1,3,41.4,3ZM40.2,4.6h0a5.1,5.1,0,0,0,2-.5l-.3-.2C40.7,4.1,40.2,4.3,40.2,4.6Zm.3,29.7c0,.3.1.5.2.5s.2-.2.2-.6v-1a9.2,9.2,0,0,0,.6-2.4V29.5c.3-.1.4-.3.4-.4a3.9,3.9,0,0,1-.3-1.4h0q.3,0,.6-6.9c-.1-.4-.2-.5-.3-.5h-.1c-.6,0-.9,2-1,6.1Zm1.3,9.3h-.9v.2h2.7v-.2H41.8ZM41.3,6.3h.4c.5,0,.8-.1.9-.5h-.8a.5.5,0,0,0-.6.4ZM41.5,42l.2.2h.1c.4,0,.5-.2.5-.6H42C41.7,41.6,41.5,41.7,41.5,42Zm.6-4.1v.3h.2l.3-.2h0l-.2-.2h-.1Zm.1-1.1v.4h.1c.2-.1.3-.3.3-.8V36h-.1C42.3,36,42.2,36.3,42.2,36.8Zm0-19.9v.2c.3,0,.6.2,1.1.6h.1a.2.2,0,0,0,.2-.2h.1q.1,0,.3.6h.1l.9-.7v-.3H42.2Zm.4,3.5.3,1-.4,1c.1.5.3.7.4.7H43v-.8c0-1.5.3-2.3.7-2.3l.2-.2v-.3h-.5C42.8,19.4,42.6,19.8,42.6,20.4Zm.5,10.5a13.2,13.2,0,0,0-.5,3.5h0c.3,0,.5-.9.8-2.6v-.9ZM42.6,9.1v.2h1.1l.2-.2H42.6ZM43.4,21v.3a.5.5,0,0,0,.3.5h.2l.2-.2v-.3l-.4-.4Zm.8-13.2V8h.2a.7.7,0,0,0,.7-.4V7.4H45A.9.9,0,0,0,44.2,7.8Zm0,8,.2.2h.1v-.2l-.2-.2Zm1.2-9.7v.2h.1l.3-.2V5.9h-.1Zm1.4,35.8c0,.5.4.8,1,.8h.3v-.2l-.2-.2.6-.3v-.4a.5.5,0,0,0-.3-.5h-.3c-.1,0-.2.2-.4.6Zm.3-2.7a2.8,2.8,0,0,0,1.3.4v-.2c0-.1-.3-.2-.8-.3h-.5Zm0,4.2h.1l.2-.2h-.1Zm1.5,2.5h.5v-.2h-.1Z" transform="translate(-0.6 0)" style="fill:#b75326"/><path d="M67.1,13a18.5,18.5,0,0,1,4.2.9c2.4,2.2,3.8,4,4.2,5.2s1.6,2.8,2.2,5.7c.6.6,1,2.1,1,4.4v1.5l-.2,6.1c0,1.2.8,2.7,2.3,4.6s2.3,2,2.7,2h0c0,.5-.7,1.3-2.2,2.4s-1.7,1.6-2,1.6h-.1c-.6-.1-2.2-1.3-4.9-3.7l-7.4,3a22.1,22.1,0,0,1-5.4.7h-.3a11.6,11.6,0,0,1-5.7-2.6,16.3,16.3,0,0,1-1.8-3.1,5.3,5.3,0,0,1-1.1-3.4V36.7a5.9,5.9,0,0,1,.9-3.2,14.7,14.7,0,0,1,2.8-4.8,5.6,5.6,0,0,1,2-1.6,14.1,14.1,0,0,1,6.4-1.6h3.1a5.4,5.4,0,0,1,3.3.7h.4a.3.3,0,0,0,.3-.3,21.7,21.7,0,0,0-2.2-5.6c-.9-1.5-2.6-2.3-5.1-2.3L62,17.6c-2.2.4-3.3.9-3.3,1.4a8,8,0,0,0-1.5,4.1c-.1.2-.8.3-2.2.3h-.4c-.2,0-.4.4-.7,1.1s-1.7-.4-1.7-.7a24.5,24.5,0,0,0,.5-4.5c.6-1.9,2.2-3.6,4.7-5.2a6.8,6.8,0,0,1,2.1-1.1ZM55,21.7v.9h0c.2,0,.3-.2.3-.4v-.5l-.2-.2Zm.6-4.6h.1c.4,0,.9-.4,1.7-1.2v-.2h-.1c-.4,0-1,.5-1.7,1.3Zm.8,24.8h.5l-.3-.3h0Zm.2,3.3h0c.2.4,1.2.9,3.1,1.4a6,6,0,0,0,2.4.5h0c0-.2-.8-.4-2.3-.7A12,12,0,0,1,57,45h-.3Zm.8-15.9v.3h.1a.5.5,0,0,0,.6-.4V29h0Zm0,5.6c.2,2.5.6,3.7,1,3.7l.6.8h-.6v.2a13.8,13.8,0,0,0,4.9,3l1.2.3c.8,0,3.7-1.2,8.6-3.6a.8.8,0,0,0,.4-.7v-.3c-.3-1.7-.6-3.7-.9-5.9h-.1c0-.4-.4-.8-1.4-1.1a25.8,25.8,0,0,0-6.2-1.3A13.1,13.1,0,0,0,58.4,33,3.2,3.2,0,0,0,57.4,34.9ZM61.2,15h0q0,.3.6.3a4.1,4.1,0,0,0,1.6-.4v-.2h-.3Zm2.1,29.3a.5.5,0,0,0,.5.3c.4,0,.6-.2.6-.3h0V44h-.8Zm.6-27.5.2.3h1l-.4-.3h-.5Zm2.3-2.4.3.2h.4l-.2-.3h-.3Zm2.2,29h.3a5.3,5.3,0,0,0,2.3-.7h-.3C69.3,42.9,68.5,43.2,68.4,43.4ZM71,14.7h0c.3.4.5.5.8.5h.1v-.2a1.2,1.2,0,0,0-.8-.4Zm2.9,21.2v.3l.3.2h.1l.2-.2v-.3l-.2-.2h-.2Zm.2-2.1.2.2h.2v-.2l-.2-.2h0Zm1.7-3V31h0Zm.1,1.3v.2h.3v-.2Zm0-3.3V29q.3.9.6.9h.1a2.1,2.1,0,0,0-.4-1.2h-.3Zm.4,5h0c0,1.5.2,2.3.4,2.3l.2-.2h0a6.7,6.7,0,0,0-.4-2.2Zm.9,8.9a1,1,0,0,0,.5.6h0L78,43h0l-.3-.3h-.5Zm.3-16.2h0c0,.3.1.5.2.5v-.3c-.1-.2-.1-.3-.2-.3Zm1.1,17.3V44l.2.2h.3l.2-.2h0l-.3-.4h-.3Zm.5-2.2V42c.2.5.4.7.6.7h.2c-.2-.7-.4-1-.6-1Z" transform="translate(-0.6 0)" style="fill:#b75326"/><path d="M88.2.3l2.6.6,4-.2c1,0,1.6.3,1.6,1A34.2,34.2,0,0,0,96,7.9V29.4l-.3,11.7a36.3,36.3,0,0,0,6.3.8h.1v.8c0,.3.2.6.7,1.1a37.3,37.3,0,0,0-1.6,4.3l-.5.5h-.2a1.8,1.8,0,0,0-1.6-.6L88.8,46.7c-3,0-4.6-.2-4.6-.5a14.1,14.1,0,0,0,1.1-4.8h1.4a4.3,4.3,0,0,1,1.7-.5l1,.3h.7q.6,0,.6-1.2c.2-1.5.4-6,.6-13.6-.2-2.4-.5-9.2-.7-20.4-.2-.2-.4-.4-.6-.4l-2.8.2c-.5-.1-.7-.2-.7-.5.2-3.2.5-4.8.8-4.8Zm-3,45.4.2.2h.3l.2-.2-.3-.2h-.1Zm.8-3h.4v-.3h-.2ZM87.3,3.4v.4l.2.3h1.7V3.8L88,3.3l-.3-.2h-.1Zm.2-1.6h0a.5.5,0,0,0,.6.6h.3a2.1,2.1,0,0,0,1.3-.7H87.5Zm.3,40.6h0a.5.5,0,0,0,.5.5h.1v-.5l-.3-.2h-.3Zm.7,2.1h0l.2.2h.9c.7,0,1-.1,1-.2h0l-1.7-.2h-.1Zm.7-1.3h.9V43h-.5C89.3,43,89.2,43,89.2,43.2ZM90.9,1.8l.5.2H92l.3-.2H90.9Zm.7,36.5v.2c.1.3.1.4.3.4l.3-.3v-.4c-.1-.6-.2-.8-.3-.8S91.6,37.7,91.6,38.3Zm.3-20v.3h.3v-.3h-.1c0-.2.2-.3.5-.4v-.2h-.3A.8.8,0,0,0,91.9,18.3Zm.2-6.6h.3v-.3h-.1Zm.2-3.4v.4h.1V8.1h-.1Zm.5,17.9h.1q.3,0,.3-2.4C93.1,23.9,92.9,24.6,92.8,26.2ZM93,4.1h.4l1.4-.8a1.3,1.3,0,0,0,.3-.7h-.3c-.4,0-.7.2-1.1.7S93,3.7,93,4.1Zm1.2,25H94V40.7h.6c.1,0,.2-.2.2-.6Q94.7,29.1,94.2,29.1Zm.7-12.4v2h.1c.1,0,.2-.3.2-.8v-1Zm-.1,2.5v.4h.3v-.3Zm0-3.3h0l.3.3h0V16h-.3Zm2,28.1h0c0,.2.7.4,2.1.4H101v-.2h-.6Zm1.6,1.7.2.2h1.3q.6,0,.6-.3H99.2C98.7,45.5,98.4,45.6,98.4,45.7Zm1.3-3.3h0c.2.3.5.4,1.1.4l.3-.2v-.2H99.7Zm.1,4.6v.2h.9V47h-.9Z" transform="translate(-0.6 0)" style="fill:#b75326"/><path d="M117.4,15.6a13.2,13.2,0,0,1,6.3,2.2c2.2,1.6,3.2,2.7,3.2,3.3,1.6,3.5,2.5,5.6,2.5,6.2v.5a9.4,9.4,0,0,0-.9,2.9h-5.7l-1.7.2c-6-.5-10.1-.7-12.5-.7h-1.3a4.3,4.3,0,0,0-.8,1.5A4.8,4.8,0,0,1,107,34c0,1.6.2,2.5.7,2.8v.3h0l-.4-.2v.2l.6.6a3.1,3.1,0,0,0,1.1,2c1.4,2.4,2.8,3.9,4.4,4.5a16.3,16.3,0,0,0,4.7.6,4.4,4.4,0,0,0,1.7-.7c.8-.3,2.4-1.6,4.7-4.1h0c0-.1-.3-.2-.8-.3v-.3a6.8,6.8,0,0,1,3.4-3.5l2.3,1.7a49.7,49.7,0,0,0,3.6,4.9v.3c-1.3,1.7-2.3,2.5-2.9,2.5h-.2c0-.9-.6-1.4-1.7-1.5a14.7,14.7,0,0,0-2.7,2,14.5,14.5,0,0,1-4.9,2.1,30.9,30.9,0,0,1-5.7.9l-3.5-1.3c-1.9,0-3.7-1.1-5.4-3.2a7.3,7.3,0,0,1-1.7-2.7c0-.3-.5-2-1.4-5.1a15.5,15.5,0,0,1-.4-3.4h0a21.9,21.9,0,0,1,4.9-14.4,4.7,4.7,0,0,1,2.9-2.3l3.5-.7ZM103.6,31.3h-.1v.2h.1a2,2,0,0,0-.2.9v.3a3.5,3.5,0,0,0,.7,2h.1C104.2,32.7,104,31.6,103.6,31.3Zm0-2.3v.4c0,.2.1.4.2.4s.3-.2.4-.6l-.3-.2Zm.8-3.3c-.4.3-.6,1.2-.8,2.5h.1c.2,0,.6-.7,1.1-2.2S104.6,25.7,104.4,25.7Zm.1,11h0V37h.2v-.2h-.3Zm.6,1.1H105c.2.6.5,1,.7,1h0A1.4,1.4,0,0,0,105.1,37.8Zm1.8-8.2H108l-.2-.3h-.2A.7.7,0,0,0,106.9,29.6Zm0-7.4h.2Zm0,3.9v.2l.2.2h.1l.7-.7v-.2h-.3C107.3,25.6,107.1,25.8,106.9,26.1Zm.7-1.6v.2c0,.5,3.7,1,11.2,1.5l.6.2h.7a15.2,15.2,0,0,0,3.4.9c0,.1.1.2.4.3a2.5,2.5,0,0,0,.4-1.1V25.3c0-.6-1.1-1.8-3.1-3.6A5.9,5.9,0,0,0,118,20l-2.1-.3c-3.4.7-5.7,1.5-6.7,2.5Zm0-1h0a.5.5,0,0,0,.3-.5h0A.5.5,0,0,0,107.6,23.5Zm.2,21.2v.2c0,.3.4.5,1.1.7l.2.3h0a5.3,5.3,0,0,0-1.1-1.1Zm.4-23.9V21h.1c.6-.2.9-.3.9-.5h-.3A1,1,0,0,0,108.2,20.8Zm.3,8.4v.4h.4v-.3h-.4Zm.8-11.3h0v.2h.1c.8-.2,1.2-.4,1.2-.7v-.3l-.2-.3h-.1C109.6,17.2,109.3,17.5,109.3,17.9Zm.8,10.7v.2a44.7,44.7,0,0,0,6.5.5h-1.3c0,.2.6.3,1.6.3s2.6-.1,2.6-.3S116.4,28.8,110.1,28.6Zm.6-2.1v.2a8.3,8.3,0,0,0,4.2.8h1.4v-.3Zm.1-6.1a9.5,9.5,0,0,1,2.5-1h-.7Q110.8,19.5,110.8,20.4Zm.9-3.4h.1a15.4,15.4,0,0,0,3.8-.7c.3-.1.5-.2.5-.3h-.2a11.7,11.7,0,0,0-4.1.9h-.1Zm.5,27.9h0c0,.2.5.4,1.3.6h.1a3.6,3.6,0,0,0-1.3-.5Zm2.2-26.6h0c0,.2.9.4,2.5.7h.1v-.2a1.7,1.7,0,0,0-1.6-.8h-.2C114.7,18,114.4,18.1,114.4,18.3Zm1.3,27.3v.2h.3v-.2Zm2.4,1.6h-1.6c-.4,0-.6,0-.6.2h0l.2.2h1.1a18.6,18.6,0,0,0,4.5-.6h0c-.1-.2-.3-.3-.7-.3h-.3A5.5,5.5,0,0,0,118.1,47.2Zm-1.2-29.9v.2a6.7,6.7,0,0,0,2.5.4h.1v-.2c0-.1-.2-.2-.7-.3Zm1.2,1.4h0a22.8,22.8,0,0,0,3.8,2h.1l.6-.2h.4l-1-.4-1.2-.5a2,2,0,0,0-2-1.1h-.2C118.3,18.5,118.1,18.5,118.1,18.7Zm3.7,9.4v.2h.2v-.2Zm.1,1.7c0,.1.3.2,1,.2h.7c0-.2-.4-.3-1.3-.3S121.9,29.7,121.9,29.8Zm0,14.1h.1c.3-.1.4-.4.5-.7h0C122.1,43.4,121.9,43.6,121.9,43.9Zm.4,2.7c.4,0,.8-.3,1-1h-.1C122.6,46,122.3,46.3,122.3,46.6Zm.6-24.9c.2.3.4.5.7.5h.1v-.6l-.3-.3C123.1,21.3,122.9,21.4,122.9,21.7Zm.9,20.2h.2c.4,0,.7-.3.8-.8h0A1,1,0,0,0,123.8,41.9Zm.5-19.4c.4,1.3.7,2.1,1,2.2h.4c-.4-1.3-.7-2-1.1-2h-.3Zm.9,15.9h.4a.6.6,0,0,0,.5-.2l-.3-.3h0A.5.5,0,0,0,125.2,38.4Zm.3,5.8h.3q.6-.6.6-.9h-.1C125.8,43.5,125.5,43.8,125.5,44.2Zm1-18.8V26c.2,0,.3-.2.3-.4v-.2h-.4Zm.2,17,.2.2c.6-.2.9-.5.9-.8h-.1C127.1,41.7,126.8,41.9,126.7,42.4Zm1.4-.6h.2a.5.5,0,0,0,.4-.6h-.1C128.3,41.4,128.1,41.6,128.1,41.8Zm2.2-.6h-.1c.1.5.3.8.5.8h.1l.2-.2h0A.7.7,0,0,0,130.3,41.2Z" transform="translate(-0.6 0)" style="fill:#b75326"/><path d="M161,0a6.5,6.5,0,0,1,2.5.7c.1,0,.2.6.3,1.9a2.2,2.2,0,0,1,.7,1c-.2,2-.4,6-.6,12.1-.1,0-.1.2-.1.6s-.5.4-.5.7v.9a8.8,8.8,0,0,1-.6,2.9v.9c0,.2.2.3.6.4v.4c-.6,5.2-1,8.7-1,10.3s-.1,2.8-.3,2.8h0c.2,0,.3.3.4.8v.7a45.5,45.5,0,0,1-.7,5.6v1.5c2.1.4,3.1,1,3.1,1.7l-.3.4V47l.3.4h0c-.3.9-1.5,1.4-3.5,1.4h-.4l-.3-.6h-.7l-1.6.4h-2.4a10.5,10.5,0,0,1-.5-3.1v-2a5.3,5.3,0,0,0-2.5,1.4,24.7,24.7,0,0,1-9.1,3,14.5,14.5,0,0,1-6.4-3.5,14.5,14.5,0,0,1-2-2.9,8.9,8.9,0,0,1-1.1-1.9v-.2h.2a9,9,0,0,1,1.6,2.1h.3v-.8a5.5,5.5,0,0,0-1.2-3h-.4c-.2,0-.3.4-.4,1.1h-.2v-.3c.1-1.6.1-2.6.2-3.1h.3v.6h.2a.8.8,0,0,0,.3-.7V34l-.2-.2c-.1,0-.2.2-.2.6l-.3.4c-.1,0-.2-.2-.3-.5a20.6,20.6,0,0,1,3.1-9.9,24.7,24.7,0,0,1,2.8-4c1.4-1.2,3.4-1.7,6.3-1.7h.5c4.4,0,8,1.1,10.8,3.4l.4.2h.2c.3-1.8.7-6.4,1.1-13.8.1-.3.3-.4.4-.4h0a6.3,6.3,0,0,0-2.7-1.3c-.4,0-.6-1.4-.7-4.2l1-.3h0c0-.2-.2-.3-.5-.3s-.3-.3-.3-.5.5-.6,1.5-.6V.5l-.3-.3H161ZM137,32.8a.2.2,0,0,0,.2.2c.3,0,.5-.4.6-1.3v-.3h-.2C137.4,31.4,137.2,31.9,137,32.8Zm.6-5.5v.2h.2c.2-.1.5-.5.8-1.5s2.1-2.5,2.5-2.5l.3-.5H141a6.1,6.1,0,0,0-2,1.3A7.8,7.8,0,0,0,137.6,27.3Zm.3,15.8h0c0,.3.7.4,2,.6v-.2l-1.7-.6Zm.1-7.2v.9c0,.6.8,2.3,2.3,5a8.8,8.8,0,0,0,3.8.9,18.1,18.1,0,0,0,8.2-2c1.2-1.7,2.1-2.5,3-2.5s.9-2.1,1.4-4.7a4.1,4.1,0,0,0,.5-2.3v-.6c0-1.7-.2-2.6-.7-2.6a10.1,10.1,0,0,1-1.4-1.5l.3-.4c0-.2-.6-.4-1.8-.7l-.4-.3h1c0-.4-2.2-.7-6.7-.7l-.9-.2c-3.3.3-4.9.7-4.9,1.3a12.6,12.6,0,0,0-3,6.6A12.9,12.9,0,0,0,138,35.9Zm1.4,8.3c0,.4,1.2.9,3.6,1.3h.4c0-.3-1.1-.8-3.5-1.3h-.3Zm.9-22v.2h.4c1.5-.4,2.2-.8,2.2-1.4s-.2-.2-.6-.2H142C141.4,20.9,140.8,21.3,140.3,22.2Zm2.9,24.4v.2h1a13,13,0,0,0,2.8-.4h0l-1.8-.2C143.9,46.2,143.2,46.4,143.2,46.6Zm1.2-26.1v.3l.2.2h.3l.3-.3v-.2l-.3-.2h-.3Zm.1,3h0Zm1.3,19.9v.2h.8q4.1-.3,4.5-1.2v-.2h-.2C147.8,42.8,146.1,43.1,145.8,43.4Zm.7-20.3h.1Zm.9,21.7h.6c1.3,0,1.9-.2,1.9-.4h-1.3Q147.4,44.5,147.4,44.8Zm.4-21.1h.2l1.4-.2H149Q147.8,23.4,147.8,23.7Zm.4-2.7H151c-.1-.3-.8-.4-1.9-.5h-.7A.6.6,0,0,0,148.2,21Zm2.7,2.5.2.3h.4v-.2c0-.1-.2-.2-.5-.2h-.2ZM152,42.6v.2h.1a2.3,2.3,0,0,0,1-.7v-.2h-.2A2.2,2.2,0,0,0,152,42.6Zm.8-21h-.1v.2l1.9.6h.1c0-.4-.4-.7-1.1-.9Zm.8,1.9.3.2v-.2h-.4Zm1,.4c0,.1.6.4,1.8.7h0v-.2a1.3,1.3,0,0,0-1.1-.5Zm1.2,2.4v.5l.3.3h.2c.1,0,.2-.2.2-.4a.6.6,0,0,0-.3-.6h-.1Zm.9,15.8v.3c.2,0,.4.2.4.6h0l.4-.3v-.5a.6.6,0,0,1-.3-.6H157A.5.5,0,0,0,156.7,42.1Zm0,2.4h.2l.2-.2H157Zm1.5-40.1v.2h.4c.2,0,.4,0,.4-.2V4.2h-.6Zm.1-1.5h.7V2.7h-.5Zm1.1,19c0,.3.1.6.2.6h.1v-.5Zm.5-17.4h.1q1.5,0,1.5-.3l-.2-.2h-.8A.5.5,0,0,0,159.9,4.5Zm0,38V44h.1l.2-.2v-.6c0-.4-.1-.6-.3-.7Zm.2,2.2v.2h.5l-.2-.2Zm1.3,2c0,.1.2.2.6.2h1.7c0-.2-.3-.3-.7-.3S161.4,46.5,161.4,46.7Zm.3-43.2h.1Zm1.3,17h.2v.3H163Z" transform="translate(-0.6 0)" style="fill:#b75326"/><path d="M185.5,24.8c.2,0,.4,1.6.7,4.8h.1c0,.5-2.1.8-6.3,1.1a60.7,60.7,0,0,1-9.2,1.5V32c0-.3,1.8-.7,5.2-1.1,1.6-.4,2.3-.6,2.3-.8h-.6c-4.9.3-7.3,1-7.3,2l-.5.3c-1.4,0-2.1-1.5-2.1-4.4,0-.8,1.6-1.3,4.8-1.7l.6-.2,1.3.3h.6l10.1-1.5Zm-16.7,3.1v.8h.3c.1,0,.2-.2.3-.7v-.3h-.3Zm0,1.7h.3v-.2H169Zm1.9-1.7h.3v-.2h-.2Zm3.9-.2v.2h.1a3.9,3.9,0,0,0,2-.5h-.2A5.8,5.8,0,0,0,174.6,27.7Zm3-.6v.2h0c.4,0,.6-.1.7-.3H178C177.7,26.9,177.6,27,177.6,27.1Zm2,2.8h0c3.7-.2,5.6-.4,5.6-.6h0l-.4-.4h-.1a18.9,18.9,0,0,0-5.1,1Zm.6-2v.2h.3v-.2Zm.6-1.3h.8c.4,0,.6-.1.7-.3h-.2C181.2,26.3,180.8,26.4,180.8,26.6Zm.7,1.2h1.3c1.4,0,2.1-.2,2.2-.5v-.2h-.3C182.6,27.4,181.5,27.6,181.5,27.8Zm2-1.9h0Z" transform="translate(-0.6 0)" style="fill:#b75326"/><path d="M190.9,14.8a2,2,0,0,0,1.3.4l.7-.3c5.6,0,8.4.1,8.4.5v1.4a5.2,5.2,0,0,1,.5,2.4v1c-.4,5.7-.7,11.1-.9,16.3a2.3,2.3,0,0,0-.3,1.3.6.6,0,0,0,.6.3h.2c2.2,0,3.4.2,3.4.7h-.1v.4a13.3,13.3,0,0,1,.7,4.7l.2,2.5h-9c-4.7,0-7-.3-7-1.1a3.5,3.5,0,0,0-.3-1.3,1.3,1.3,0,0,1,.6-.7h.1a.7.7,0,0,0,.6.2h.1l4.3-.3h0c-3.5-.2-5.3-.5-5.3-.8V41.3l-.2-1.5c0-.5,1.6-.7,4.7-.7q.6,0,.6-2.7l.7-16.3h-.1c-1.5,0-2.1-.1-1.6-.4-2.4,0-3.7-.3-3.7-.9s-.2-.2-.2-.5l.3-.7a.7.7,0,0,0-.4-.6h0c.4-.3.6-.9.7-2h.3Zm.2,26.5h0c.3.4,1.5.6,3.8.6h.4q.6,0,.6-.3h0l-4.4-.3Zm.6-25.2v.2h.3c1.1,0,1.6-.1,1.6-.3h-.3C192.3,15.9,191.7,15.9,191.7,16.1Zm.3.9h0c0,.1.2.2.8.2h2.9c.6,0,1-.1,1-.2h0c0-.3-1.2-.3-3.7-.1Zm7.3-14.3a4,4,0,0,1,3.4,2.2l.4,2.1a8.2,8.2,0,0,1-1.4,3,3.5,3.5,0,0,1-2.4.8c-2.6,0-4.2-.4-4.9-1.2a5.1,5.1,0,0,1-.8-3.4c-.2,0-.3-.1-.3-.2h0C194.6,4,195.8,3,197.2,3Zm-3.4,1.9h0a5.3,5.3,0,0,0,2.1-.5l-.3-.2C196.5,4.1,195.9,4.3,195.9,4.6Zm.3,29.7c.1.3.2.5.3.5s.1-.2.2-.6v-1a7.7,7.7,0,0,0,.7-2.4V29.5c.2-.1.4-.3.4-.4a3.9,3.9,0,0,1-.3-1.4h0q.3,0,.6-6.9c-.1-.4-.2-.5-.3-.5h-.1c-.6,0-.9,2-1,6.1Zm1.4,9.3h-.9v.2h2.6v-.2h-1.7Zm-.5-37.3h.4c.5,0,.8-.1.9-.5h-.8c-.3,0-.6.1-.6.4Zm.2,35.7.2.2h.1c.3,0,.5-.2.5-.6h-.3C197.5,41.6,197.3,41.7,197.3,42Zm.6-4.1v.3h.2l.2-.2h0v-.2h-.1Zm0-1.1v.4h.2c.2-.1.3-.3.3-.8V36h-.2C198.1,36,198,36.3,197.9,36.8Zm.1-19.9v.2a1.8,1.8,0,0,1,1,.6h.2c.1,0,.1-.1.1-.2h.1c.1,0,.3.2.4.6h.1l.8-.7v-.3H198Zm.3,3.5.3,1-.4,1c.2.5.3.7.4.7h.1v-.8c0-1.5.2-2.3.7-2.3l.2-.2v-.3h-.6C198.6,19.4,198.3,19.8,198.3,20.4Zm.6,10.5a14.1,14.1,0,0,0-.6,3.5h.1c.2,0,.5-.9.8-2.6v-.9Zm-.5-21.8v.2h1.1l.2-.2h-1.3Zm.8,11.9v.3a.5.5,0,0,0,.3.5h.2l.2-.2v-.3a1,1,0,0,0-.5-.4ZM200,7.8V8h.2a.8.8,0,0,0,.7-.4V7.4h-.2A.9.9,0,0,0,200,7.8Zm0,8,.2.2h.1v-.2l-.2-.2Zm1.2-9.7v.2h.1l.2-.2V5.9h-.1Zm1.3,35.8a1,1,0,0,0,1.1.8h.2v-.4l.5-.3v-.4a.5.5,0,0,0-.3-.5h-.2c-.1,0-.3.2-.4.6Zm.4-2.7a2.4,2.4,0,0,0,1.2.4v-.2c0-.1-.2-.2-.7-.3h-.5Zm0,4.2h.1l.2-.2h-.1Zm1.5,2.5h.5l-.2-.2h-.1Z" transform="translate(-0.6 0)" style="fill:#b75326"/><path d="M207.6,15.4l2.9.2h5.1v.2a6.7,6.7,0,0,0-.3,1.7v1.1c.2,1.2.5,1.7,1,1.7s1.1-.8,2.5-1.3c3.3-1.4,6-2.2,8.1-2.2a8.4,8.4,0,0,1,4.6,1.9,8.1,8.1,0,0,1,3.4,2.9,17,17,0,0,1,2.5,9.5v.5l-.4,4.4.4,3.2-.6,2.9h0v.6h3.4a1.9,1.9,0,0,1,1.3.3c-.3,3-.6,4.5-1,4.5a6,6,0,0,1-2.7.7h-1.2a23.5,23.5,0,0,0-6.2.8c-1.5-.2-2.2-.9-2.2-2.2V44.8a4.1,4.1,0,0,1,1-3.1,44.2,44.2,0,0,1,1.4-5.5l.4-5.4a7.9,7.9,0,0,0,.1-1.4c0-1.1-.9-2.7-2.6-4.8a12.1,12.1,0,0,0-2.4-.8,8.8,8.8,0,0,0-6.4,3q-.3,0-3,3c-.6.5-1,1.9-1,4.2.1,4.1.3,6.2.5,6.2s2.4.6,2.4.9v.3h-2.3v.2q0,.3,2.4.6a2.1,2.1,0,0,1,.4,1.5h0a9.4,9.4,0,0,1-.6,3.1h-7.2a1.5,1.5,0,0,1-1.5-1,40.8,40.8,0,0,1-.6-4.6c0-.2.6-.5,1.9-.7l.3-.4h0a2.3,2.3,0,0,0-.5-1V33.7l.3-5.7c0-3.8-.2-5.8-.6-5.8h-.3l-2.9.4c-.3,0-.6-.3-1.1-.8v-.2a1.7,1.7,0,0,0,.3-1V18.3l.9-2.8Zm-.3,4.1h0c0,.2.1.3.4.3a1.9,1.9,0,0,0,1.1-.5h-1.1C207.4,19.4,207.3,19.4,207.3,19.5Zm.4-2.1h0c0,.2.4.2,1,.3,2.7,0,4-.2,4-.6l.2-.4h-.1Zm.1,4.1h.7l.2-.2h-.3Q207.8,21.4,207.8,21.5Zm1.2-2.6.2.2h.1l.8-.3h-.3C209.3,18.7,209,18.8,209,18.9Zm.5,1.4h1.4c.4,0,.7.1.8.3h0c-.2.3-.4.5-.4.7l.8.2a.2.2,0,0,0,.2-.2V19.1h-.2l-2.5,1h-.1Zm.6,21.5h0c.1.8.3,1.2.8,1.2h.4l.2-.3h0a1.9,1.9,0,0,1-.6-1.2h-.7Zm1.7-19v.3h.1l.2-.9H212C211.9,22.2,211.8,22.4,211.8,22.8Zm1,21.7c0,.2.6.3,1.7.3s3-.1,3-.3-.7-.4-2.1-.4A4.9,4.9,0,0,0,212.8,44.5Zm.9-24V22a1.2,1.2,0,0,1-.3.9v.4l.3.9v.4a.7.7,0,0,0,.4.7c.1,0,.2-.4.4-1.4s.8-.8.8-1.1a4,4,0,0,0-.6-1.3c-.2-.7-.3-1-.5-1Zm.8,3.9v.4a1.4,1.4,0,0,1-.5.9.9.9,0,0,1,.3.6c0,2.1.1,3.2.4,3.2h.1a7.8,7.8,0,0,0,.4-2.9c0-1.6-.2-2.4-.5-2.4h-.1C214.6,24.2,214.5,24.2,214.5,24.4Zm1.6-3.3v.2a2.7,2.7,0,0,0,1.9-1.1h-.1C217.4,20,216.9,20.4,216.1,21.1Zm.1,3.4v.2q1.7-.1,4.5-2.7h-.4a5.4,5.4,0,0,0-1.5.8C217.1,23.4,216.2,24,216.2,24.5Zm.4,1.7.2.2h.2V26h-.1Zm1.5-.3h0v.2h.3v-.7h-.1Zm1.2-.9h.1c.7-.6,1-1,1-1.3h-.1C219.9,23.7,219.6,24.1,219.3,25Zm.5-5.5h.1l.5-.3h-.1C220,19.3,219.8,19.4,219.8,19.5Zm1.1-.6v.2c2-.5,2.9-.8,2.9-1h-.1a5.7,5.7,0,0,0-2.9.9Zm.3,5.4c.9-.2,1.4-.4,1.4-.7h-.4C221.6,23.5,221.3,23.7,221.2,24.3Zm2.9-3.5V21h.3c.6-.1,1-.3,1-.4v-.2H225C224.4,20.5,224.1,20.6,224.1,20.8Zm1-3h0a3.1,3.1,0,0,1,1.5.7l.7.2h2c-.1-.2-.3-.3-.7-.3h-.8a4.4,4.4,0,0,0-2-.8C225.4,17.5,225.2,17.6,225.1,17.8Zm.1,4.3h.2c.9,0,1.3-.1,1.3-.2l-.5-.2C225.5,21.9,225.2,22,225.2,22.1Zm2.2,1.2v.2h1.5l.2-.2v-.2l-.3-.3h-.3C227.7,23,227.4,23.1,227.4,23.3Zm1.2-2.7c0,.2.4.3,1.1.4a.9.9,0,0,0,.3-.6c0-.2-.3-.3-1-.5A.8.8,0,0,0,228.6,20.6Zm.5,27.1v.2c0,.2.6.4,1.7.4h.8a2.8,2.8,0,0,0-2-.6h-.2Zm.3-3v.4h.4l-.3-.3Zm.1-23.2h.4Zm1.3-1.1c0,.2.2.3.5.3h.3l.3-.2h0l-.6-.2H231Zm.1,1.7v.2a5,5,0,0,0,.8,1.7c0,.3.1.5.2.5l.3-.2V24a2.6,2.6,0,0,0-1.2-1.9Zm0,24.2a.8.8,0,0,0,.7.5c2.2-.1,3.3-.2,3.3-.4a1.7,1.7,0,0,0-1.5-.5C231.7,45.9,230.9,46.1,230.9,46.3Zm.7-7.5a2.1,2.1,0,0,1,.3,1.2h.1l.2-.8v-1A.5.5,0,0,0,231.6,38.8Zm.3-13.7v.3a16.2,16.2,0,0,0,.9,2.9l.2-.5v-.5C232.6,25.9,232.3,25.1,231.9,25.1Zm0,12.7h.1c.2-.1.2-.3.2-.7v-.7h0C232.1,36.5,232,36.9,231.9,37.8Zm2.1,4.7v.3l.2.2h.1v-.2h0l-.2-.3Zm.1-1.1h0l.3-.7h-.1C234.1,40.7,234.1,40.9,234.1,41.4Zm0-3.2v.3h.2v-.3Zm.1-4.9h0l.2.8h.3C234.7,33.6,234.5,33.3,234.2,33.3Zm.4-8q.2,3.3.6,3.3h.2c-.2-2.2-.4-3.3-.7-3.3Zm1.1,13.2-.2,1.3v1.5h.1a3.4,3.4,0,0,0,.8-1.8h0C236.4,38.8,236.1,38.5,235.7,38.5Zm1.8,5.4v.2c1.9,0,2.8-.2,2.8-.4v-.2h-.8C238.2,43.6,237.5,43.7,237.5,43.9Zm.6,1.3v.2a.5.5,0,0,0,.5.3,1.4,1.4,0,0,0,1.3-.5h0c-.1-.2-.3-.3-.7-.3h-.3C238.5,44.8,238.2,44.9,238.1,45.2Z" transform="translate(-0.6 0)" style="fill:#b75326"/><path d="M249.1,39.4a5.7,5.7,0,0,1,2.7,1,3.6,3.6,0,0,1,.2,1.1v.8c0,1.7-1,2.9-2.9,3.7l-.8.4q-1.2,0-2.4-2.4v-.4c0-1.7.2-2.8.8-3.2A6.2,6.2,0,0,1,249.1,39.4Zm-2,2.7c.1,1.1.3,1.6.4,1.6s.4-.8.6-2.1l.2-.4v-.3h0Q247.1,41.4,247.1,42.1Zm.3,2.7c0,.3.1.4.4.5h.7a1.4,1.4,0,0,0,1.2-.6h0Zm1.3-2.3h0c0,.4.1.7.4.7h0c.2,0,.5-.4.7-1.3v-.3h-.3C249,41.6,248.8,41.9,248.7,42.5Zm1.9.8h.3v-.6h-.1C250.8,42.8,250.7,43,250.6,43.3Z" transform="translate(-0.6 0)" style="fill:#231f20"/></g></g></svg>