<svg xmlns="http://www.w3.org/2000/svg" width="849.5" height="221.2" viewBox="0 0 849.5 221.2"><defs><style>.a,.g,.j,.k,.l,.m,.o,.r,.s,.x{fill:#836741;}.a,.j,.k,.l,.m,.s{stroke:#ad8a56;}.a,.b,.c,.d,.e,.f,.g,.h,.i,.j,.k,.l,.m,.n,.o,.s,.v,.x,.y,.z{stroke-miterlimit:10;}.a,.d{stroke-width:3.35px;}.b,.z{fill:none;stroke:#5c4313;}.b{stroke-width:0.84px;}.c,.n,.t,.y{fill:#ad8a56;}.c,.n,.y{stroke:#624917;}.c,.g,.o{stroke-width:2.51px;}.d,.e,.f,.h,.i,.q,.v{fill:#604714;}.d,.e,.f,.h,.i,.v{stroke:#836741;}.e{stroke-width:3.42px;}.f,.n{stroke-width:3.42px;}.g,.x{stroke:#605030;}.h,.l{stroke-width:3.39px;}.i,.m{stroke-width:3.41px;}.j{stroke-width:3.42px;}.k{stroke-width:3.39px;}.o{stroke:#604714;}.p{opacity:0.29;}.s,.v,.x,.y,.z{stroke-width:1.06px;}.u{fill:#624917;}.w{fill:#5c4313;}</style></defs><title>woodArtboard 2</title><path class="a" d="M630.9,107c22.9,10.7,186-21.2,234.4-20.3C846.7,103.6,660.4,120.9,630.9,107Z"/><path class="b" d="M865,102.2c-92.6-2.3-899.7-5.7-899.9,19.5,154.5,13.4,314.4,2.4,469.2-.3C547.7,119.4,759.8,153.8,865,102.2Z"/><path class="c" d="M-34.7,108.3c-.8,37.8,407.7,11.7,457.4,10.3,96.3-2.7,192.5-5.7,288.7-9.8,32.6-1.5,125.4,10.8,153.7-10.4C565.1,89.6,265.3,113.5-34.7,108.3Z"/><path class="d" d="M-34.7,106.1l33.6.3Q-35.6,86.4-34.7,106.1Z"/><path class="d" d="M-1.1,106.4c144,13,850.6,30.3,866.4-19.2C575.9,82.6,309.1,106.8-1.1,106.4Z"/><path class="a" d="M523.8,72.8c-187,26.3-368.7,65.9-558.7,47.4C-35.4,159.6,480.3,79,523.8,72.8Z"/><path class="a" d="M523.8,72.8c22.4-2.5,60.1-8.2,76.8,10C583.9,64.5,546.2,70.3,523.8,72.8Z"/><path class="c" d="M-14.3,126.9C190.1,159.2,336,83.6,529.9,73.6,336.2,82.7,190.2,158.6-14.3,126.9Z"/><path class="b" d="M-34.1,87.8c-.2,5.8,832.2,93.4,899.6-14.4C565.5,70.4,265.9,92.5-34.1,87.8Z"/><path class="b" d="M865.3,87.1c-93.9-1.3-899.5-2.6-900,20.8,155,14,316.1,1.8,471.4-1.2,92-1.8,184.1-3.8,276.1-7.6C749.8,97.5,831.5,108.2,865.3,87.1Z"/><path class="a" d="M700.1,96c56.2-16.8,107-20.7,165.3-19.3C824.6,91.1,752.7,80.4,700.1,96Z"/><path class="d" d="M-34.8,111c-.5,24.9,302.3-7.6,331-11,118.5-14.2,236-25.1,350.9,16.1C426.1,35.3,191.9,142.6-34.8,111Z"/><path class="d" d="M-34.8,114.9c-.7,39.3,823.2-16.8,899.9-17.2-108.3-69-306.2-28-423.3-17.1C286.1,95.1,122,128.3-34.8,114.9Z"/><path class="c" d="M229.7,98.5C152.9,109,75.2,64.2-.4,71.8s-13.9,26.3,18.6,36.9c45.2,14.6,116.1,4.8,163.7,3.6C289.4,109.6,397.7,78,504.5,91.4c82.6,10.4,168.9,62,247,7C579.1,123.8,403.9,74.8,229.7,98.5Z"/><path class="e" d="M133,92.5c105.4,16,722.9,2.4,732.5-18.1C629,75.2,381.7,104.6,133,92.5Z"/><path class="e" d="M-34.1,88.5C21.3,89.6,78,82.7,133,92.5,111.1,87.1-33.3,66.3-34.1,88.5Z"/><path class="e" d="M-34.7,107.1c-.3,14,106.8,11.2,120.1,9.7C45.1,119.7,4.9,114.2-34.7,107.1Z"/><path class="e" d="M85.4,116.8c266-37,523.4-39,780-39.1C819.4,111.2,207,97.6,85.4,116.8Z"/><path class="f" d="M-33.1,64.3c-2.1,48.2,414.3,24.3,468.4,22.8,61.6-1.7,394,22.9,430.3-43.7C565.9,44,266.6,65.2-33.1,64.3Z"/><path class="g" d="M-33.7,76.9c-1.9,44.9,803.4-5.5,899.2-4.7C760,13.3,551.7,53.6,437.2,57.7,280.6,63.3,123.1,78.2-33.7,76.9Z"/><path class="b" d="M621.9,71.9c28.6,34.6,202.3-26.5,243.7-28.6-25.9,128.1-552.2,47-656.3,73.2C300,86.6,534.5,10.4,621.9,71.9Z"/><path class="h" d="M718.3,68.5c50.4-14.1,95.3-17.2,147.2-18.1C846.9,61.3,752.5,58.6,718.3,68.5Z"/><path class="i" d="M750.8,54.1c37.7-7.8,76.3-9.5,114.8-10.6C844.5,54,779.9,48.3,750.8,54.1Z"/><path class="j" d="M730.6,42.2l-31.4,6.1c54.2-13.9,109.5-19.6,165.4-20.1C819.9,28.9,774.2,32,730.6,42.2Z"/><path class="j" d="M699.2,48.3h0C593.1,70.8,591.6,68.8,699.2,48.3Z"/><path class="k" d="M728,43.8c44.8-11.9,91.5-14.6,137.7-15.6C845.7,40.5,760.8,34.7,728,43.8Z"/><path class="c" d="M-29.2,62C54.3,67,682.2,83,691,73.5,615.3,100.6,86.1,65.3-29.2,62Z"/><path class="g" d="M-32.8,58.1c.2-3.7,816.9,49.7,898.4-23.3C566.3,44.5,266.9,67.8-32.8,58.1Z"/><path class="a" d="M865.5,46.9c-91.4.1-897.6-2-898.8,22.4,155.4,12.2,312.4,14,468.2,14.1C546.3,83.5,767.8,115.8,865.5,46.9Z"/><path class="b" d="M-32.9,60.4c-.9,19.6,673,30.7,751.3,5.8C490.6,137.9,201.9,62-32.9,60.4Z"/><path class="a" d="M666.8,66.5c72.7-15.1,122.5-30.1,198.8-31.9C853.5,49,713.5,57.7,666.8,66.5Z"/><path class="a" d="M433.8,41.9C580.6,61.6,719.7,37,866.1,31.2c-16,45-273.8,49.4-310.2,52.8C436.5,95.3,299.5,118.8,180.2,99.4,267.9,110.3,343.4,29.8,433.8,41.9Z"/><path class="a" d="M572.7,53c113.9,7.5,178.1-21.5,293-24.8C809.1,63.4,638.7,57.4,572.7,53Z"/><path class="a" d="M748.7,50.4C666.8,68.5-32.7,57.5-32.9,60.1,220.9,66.5,499.2,112.8,748.7,50.4Z"/><path class="a" d="M-32.5,51c-.1,5.3,148.6,1.1,161.6,7.8C91,37.8,9.7,53.8-32.5,51Z"/><path class="a" d="M865.7,28.7c-206.3,7.9-538.7,76-736.6,30.1C239.6,86,770.7,88.8,865.7,28.7Z"/><path class="a" d="M413.4,34.5c78.6-24,157.9,15.3,237,14.9,72.5-.3,142.3-25.9,215-26.1C832.3,175.2,504.7,47.3,413.4,34.5Z"/><path class="a" d="M-33.4,72.1C-34,83.8,119,95.4,138.2,99.6,81.6,87.1,23.5,83.2-33.4,72.1Z"/><path class="a" d="M376.4,46.2c-135.9,21.4-272.2,10.2-409,7C-34.6,98.1,335.2,53.4,376.4,46.2Z"/><path class="b" d="M289.6,56.7c103.4-3.5,517.9,48.8,576-21.6C683.6,38.6,472.8,40.4,289.6,56.7Z"/><path class="b" d="M-32.2,43.8C-33,70.2,257.5,59.5,289.6,56.7,182,60.5,75.3,44.7-32.2,43.8Z"/><path class="b" d="M-20.4,48.6c105.4,5.1,844,56,886.1-19.7C569.7,38.1,262.5,52.1-20.4,48.6Z"/><path class="c" d="M865.6,34.2C781.1-9.9-31.6,26.4-32.4,47.9,267,54.7,566.5,44,865.6,34.2Z"/><path class="a" d="M482.2,51.1c-47.5-2-513.8-18.3-514.8,3C139,53.9,310.6,44.6,482.2,51.1Z"/><path class="a" d="M482.2,51.1c15.3,1.3,30.5,1.1,45.9,1.4C512.7,52.2,497.5,52.4,482.2,51.1Z"/><path class="d" d="M433.1,43.2C367.5,35.7,309.7,48.5,246,62.1,309.5,48.8,367.8,35.9,433.1,43.2Z"/><path class="d" d="M1.7,69.6C61,83.9,185.1,77.5,246,62.1,185.7,77,60.2,83.5,1.7,69.6Z"/><path class="d" d="M-33,62.1q-2.1,19.8,34.7,7.5Z"/><path class="a" d="M-31.8,29.6c-.4,14.2,836.7,97.5,897.9-26.5C566.8,11.6,267.6,26.7-31.8,29.6Z"/><path class="c" d="M-31.9,33.5c60.3.2,121.3-5,181.5.6C127.9,30.5-31.5,14.6-31.9,33.5Z"/><path class="c" d="M149.6,34.1c87.9,9.2,675.1,68.3,716.2-17.2C622.6,24.4,399,45,149.6,34.1Z"/><path class="a" d="M578.9,48c100.7-2.4,185.7-28,287-33.7C837.5,36.4,628.5,40.8,578.9,48Z"/><path class="a" d="M532.7,51.1c-188.4,3.7-376.5-9.5-564.8-13C-32.7,58.8,483.6,52.3,532.7,51.1Z"/><path class="a" d="M532.7,51.1c30.9-.7,61.6,6.2,92.5,4.4C594.3,56,563.6,50.2,532.7,51.1Z"/><path class="d" d="M212.8,44.4c90.6,5,598.8,46.6,653-24.6C645.1,28.2,438.8,47.8,212.8,44.4Z"/><path class="d" d="M-32.2,43.2c81.7.7,163.4-.7,245,1.2C183.3,42.4-31.8,25.9-32.2,43.2Z"/><path class="b" d="M652.5,49.7c-227.9-14-456.4-8.2-684.6-11.9C-31.9,31.2,606.3,114,652.5,49.7Z"/><path class="b" d="M-31.9,24.6c.3,19.2,839,96.5,898-24.7C567.1,15.8,267.6,21.6-31.9,24.6Z"/><path class="e" d="M17.7,31.3C97,34.7,823.2,81.2,866,6.7,580.3,17.5,305.6,33.2,17.7,31.3Z"/><path class="e" d="M-31.9,31.1l49.6.2Q-32.1,4.7-31.9,31.1Z"/><path class="h" d="M-32,16.3c58.5.1,116.9-5.4,175.4-2C122.5,11.7-32.1-1.4-32,16.3Z"/><path class="h" d="M143.4,14.3c76.5,8.5,679,69.8,722.9-21.5C610.5,3.4,409.1,27.4,143.4,14.3Z"/><path class="h" d="M547,35.6C653.2,49.2,760.4,11.5,866,6.9c-68,200-609.9,3.3-757.2,41.1C255.3,62.9,400.5,16.7,547,35.6Z"/><path class="l" d="M577.2,26.1C597.6-.1,815.5-6.4,866.3-9.6,814,29.2,610.4-11.3,577.2,26.1Z"/><path class="m" d="M189.1,40.9c227.6-30.1,455-66,678.5-74.1C836.5,33.2,270.5,37.4,189.1,40.9Z"/><path class="m" d="M159.2,52.1c-48.6-.8-62.7,5.3-105.4-7.6C68.4,49.7,143.6,60.1,159.2,52.1Z"/><path class="m" d="M-31.9,24.9c.2,10.8,79.7,18.1,85.7,19.6C25.5,36.7-3,30.2-31.9,24.9Z"/><path class="c" d="M-32,2.2c-.1,21.4,814.9,55.6,898.8-22.8C567.4-5.2,267.8,4-32,2.2Z"/><path class="j" d="M98-13.9C191.3-6.6,814,73,867.4-31.1,592-20.1,383.7-11.8,98-13.9Z"/><path class="j" d="M568.9,8.2C520.5,68.6-31.8-67.8-32,4.2c108.7,2.1,217.4,6.2,326.2,8.3C332.9,13.2,542.5,43,568.9,8.2Z"/><path class="k" d="M562.6,17.8c30-35.9,246-39.8,304.5-42.9C807.8,18.8,612.9-41.9,562.6,17.8Z"/><path class="k" d="M249.8-8.8C364,.6,779,57.5,867.4-31,630.4-17.9,491.5,2,249.8-8.8Z"/><path class="c" d="M-31.9-7c-.2,16.8,818.7,70.6,899.2-22.9C567.8-15.3,267.9-12-31.9-7Z"/><path class="a" d="M630.3,109.7c28.8,15.2,183.4-14.4,234.8-13.1C859,100.6,637.1,113.3,630.3,109.7Z"/><path class="b" d="M-34.8,115.1c-.9,59.6,354.8,25.3,419,21.4,159.9-9.5,320-23.1,480.4-19.3C591.6-2.1,250.1,112.5-34.8,115.1Z"/><path class="c" d="M848.5,111.1c-163.2-5.6-322.5-39.6-486-19.7-83.8,10.1-149.1,25.5-232.9,17.1-33.9-3.3-81.5-21-114.7-14.2-57,11.6-25-8.7-52.4,35.7,181.6,23.1,388.3-83.8,564.1-30.9,63.4,19,116,66.8,182.6,82.4,36.1,8.4,84.9,19,117.8-5.8C838,167.4,882.9,100.7,848.5,111.1Z"/><path class="d" d="M-30.5,117c188.3,16.8,884.8,14,895.6-18.8C561.5,91.1,286.5,120.4-30.5,117Z"/><path class="a" d="M555.2,74.7h0Z"/><path class="a" d="M556.7,74.6h0Z"/><path class="a" d="M555.2,74.7C358.1,88.5,163.5,125.9-34.9,119-35.4,162.6,496.9,79,555.2,74.7Z"/><path class="a" d="M556.9,74.6c15,1.4,27.1,6.3,39.4,15C584,80.8,572,76,556.9,74.6Z"/><path class="c" d="M520,78.2c-187.4,6.8-365.6,80-555,54.7C-35.1,168,473.8,80.1,520,78.2Z"/><path class="b" d="M483.3,71c-97.4,10.5-199.9-1.4-297.4-5.6-48-2.1-99.3-10.6-147-6.5C26.1,60-6.9,49.5-17.6,57c-25.7,18-4.3,39.7-20.1,58.7C147,140.2,351,45.5,531,93.6c96.5,25.8,308,173.9,338.6-14.2C740,83,613.1,57,483.3,71Z"/><path class="b" d="M865.1,98.3c-93.2-2.1-899.7-3.9-900,19.7,154.7,13.7,316.6-1.7,471.5-5.2,93.9-2.2,187.7-4.5,281.5-7.5C752.1,104.2,834.3,117,865.1,98.3Z"/><path class="a" d="M700.1,103.5c57.2-14.2,106.5-18.6,165.2-16.9C856,93.1,728.7,96.6,700.1,103.5Z"/><path class="d" d="M-34.9,119.7c-.2,20.8,304.2-18.4,332.5-22.1,118.1-15.8,239.9-27.3,351.6,24C434.9,20.7,189,140.7-34.9,119.7Z"/><path class="d" d="M-34.9,121.7c-.3,29.9,822.8-14,899.8-12.6C752.1,39.3,559.7,73.7,437.3,83.8,281.3,96.7,122,126.6-34.9,121.7Z"/><path class="c" d="M235.3,105.9c-46.2,8.8-100.7-6.7-145.7-13.4-56.4-8.4-117.3-40-124.9,23.2C120.8,122.5,267,98.5,421.1,94.2,526,91.2,654.6,168,751.8,108,578.3,128.4,410.7,72.2,235.3,105.9Z"/><path class="e" d="M118.7,97.7C299.4,140,853.1,108.6,865.3,85.6,679.7,86,288.1,131.1,118.7,97.7Z"/><path class="e" d="M-34.5,98.8c51,1.2,102.3-6.1,153.2-1.1C98.3,94.9-34.1,82.5-34.5,98.8Z"/><path class="e" d="M38.6,126.3c156.5-4.9,728-98.6,826.5-29.1C584.2,99.5,327.8,120.9,38.6,126.3Z"/><path class="e" d="M-34.9,117.9c-.1,6.1,74.8,8.5,73.5,8.4A478.2,478.2,0,0,1-34.9,117.9Z"/><path class="g" d="M230.5,97.6c108.8-10.5,601.4,12,635-23.3C638.6,71.9,471.8,62.7,230.5,97.6Z"/><path class="g" d="M-33.5,74.1c-1.3,27,225.5,28.8,264,23.5C142.3,103.4,54.4,76.4-33.5,74.1Z"/><path class="b" d="M206,122.4C431.6,47,641.1,61.4,865.5,55.1"/><path class="h" d="M717.3,77.9C768.5,64,812.8,60.3,865.5,60.5,847,71,751.2,68.9,717.3,77.9Z"/><path class="i" d="M750.5,63.5c37.7-8.1,76.5-9.4,115-9.8C843.9,64.1,780.1,57.7,750.5,63.5Z"/><path class="j" d="M697.4,60.1h0C614.4,82.7,592.8,85.1,697.4,60.1Z"/><path class="j" d="M729.6,52.6l-32.2,7.5c54.9-15.8,111-21.3,167.9-21.8C820.1,39,773.7,41.7,729.6,52.6Z"/><path class="k" d="M726.9,54.1c45.6-11.8,91.7-14.8,138.7-15.7C846.6,49.7,759,46.1,726.9,54.1Z"/><path class="c" d="M-33.4,71.9c.2-4.6,657.4,80.7,722.3,12.5-94.4,34.1-243.1,5-340,2.1C221.4,82.6,94,76.5-33.4,71.9Z"/><path class="g" d="M-33.2,67.6c26.5,1.3,53.1,2.5,79.6,3.6C51.5,71.6-33.1,66.3-33.2,67.6Z"/><path class="g" d="M46.4,71.2c101.9,3.2,763.3,24.3,819.2-26.6C598.3,47.9,314.4,77.1,46.4,71.2Z"/><path class="a" d="M865.5,58.5C772.7,58.6-32.8,57.3-33.8,80,122.9,92.8,281.7,92,438.8,91.4,549.4,91,767.2,123.4,865.5,58.5Z"/><path class="b" d="M-33.3,69.6c-.9,18.7,672.7,30.3,750.6,7.2C490.8,144.9,200.1,73.5-33.3,69.6Z"/><path class="a" d="M663.6,78.3c73.6-12.4,122.9-33.2,202-35.1C859.1,52.6,709.5,71.6,663.6,78.3Z"/><path class="a" d="M429.6,49c-70.8-7-145.5,25.3-208.9,53.3C330.2,60.7,447.7,56,563.4,57.5Q496.4,55.4,429.6,49Z"/><path class="a" d="M562.8,57.4c116.4,4.7,175.8-11.6,302.8-15C795.5,95.4,628.4,62.1,562.8,57.4Z"/><path class="a" d="M573.1,55.9c117.4,9.4,169.3-14.7,292.5-17.5C789,82.4,645.6,61,573.1,55.9Z"/><path class="a" d="M748.3,61.3C663.8,80.5-33,62.8-33.3,70.2,217.6,79.3,501.9,124.1,748.3,61.3Z"/><path class="a" d="M374.1,54C330.6,61.6-33.2,68.1-33.4,72.3,103.7,81.4,238.7,80.2,374.1,54Z"/><path class="b" d="M-32.7,57.3c43.7.3,88,8.1,131.7,4.1C82.4,62.6-32.4,49-32.7,57.3Z"/><path class="b" d="M99,61.4C132.3,21,816.4,134.8,865.6,39.5,674.9,41.1,146.2,11.1,99,61.4Z"/><path class="c" d="M324.8,68.1c100.6-8.8,479.1,26.2,540.8-31.4C701.5,39.1,490.5,48,324.8,68.1Z"/><path class="c" d="M-33,61.9c118.8,9.9,238.9,22.2,357.8,6.2C293.3,71.6-33.4,70.9-33,61.9Z"/><path class="a" d="M464.5,58c20.3.2,40.6-.7,60.9-.8C505.1,57.2,484.8,58.1,464.5,58Z"/><path class="a" d="M464.5,58c-45.8-.2-496.9-9.7-497.6,6.6C132.8,66.7,298.6,57.7,464.5,58Z"/><path class="d" d="M-33.5,73.4c-.4,7.8,57.1,11.2,61.3,11.9Z"/><path class="a" d="M-32.1,40.8c-.2,6.1,836.8,93.3,897.9-24C566.7,28.9,267.4,41.6-32.1,40.8Z"/><path class="c" d="M-32.2,41.8c-.9,35.7,804.6,57.8,897.9-11.2C566.4,36.5,267.1,41.4-32.2,41.8Z"/><path class="a" d="M581.3,52.5C684.2,71.4,758.2,28.4,865.7,24.3,830.3,46.3,630.8,61.4,581.3,52.5Z"/><path class="a" d="M557.8,56.3c28.1.6,44,4.1,70.3,11.4C601.9,59.8,585.8,56.8,557.8,56.3Z"/><path class="a" d="M557.8,56.3C361.5,39.9,164.3,50.5-32.3,46.4-32.8,60,502.8,52,557.8,56.3Z"/><path class="e" d="M27.3,41c80.4,4.5,797.9,46.5,838.5-23.1C585.6,27.6,301.8,46.2,27.3,41Z"/><path class="e" d="M-32.1,40.7l59.4.3Q-32.2,9-32.1,40.7Z"/><path class="f" d="M-32,5.1c0,59,391.3,42,450.2,41.8,82.6-.2,402.5,28.7,448.8-70.3C567.2-17.1,267.8.4-32,5.1Z"/><path class="l" d="M582.6,35.7C628.9,8.2,800.1,4.4,866.1.5,817.4,36.9,635.5,6,582.6,35.7Z"/><path class="m" d="M796.8-18.1q35.1-4.2,70.3-7.5C821.2,133,314.8,49.4,193.2,49.8,394.6,29.2,595.1-.3,796.8-18.1Z"/><path class="c" d="M-32,12.4c.1,13.8,818.5,57,898.3-22.3C567.1,5.6,267.7,14.4-32,12.4Z"/><path class="j" d="M-32,1.9C12.5,1.6,56.9-1,101.3-2.6,83.1-3.3-31.9-12.1-32,1.9Z"/><path class="j" d="M101.3-2.6c88.1,5.3,714.3,86.8,765.5-18.5C599.6-10.9,375.4-7,101.3-2.6Z"/><path class="j" d="M573.3,20c-43,34.7-225.4-4.4-277.2-7C187.1,7.7,77.2-2.7-32-1.8-32,7,518.1,67.8,573.3,20Z"/><path class="k" d="M565.7,26.7C613.8-7.8,794.4-10.6,866.5-15.4,812.4,25,636.6-21.1,565.7,26.7Z"/><path class="k" d="M-32,3.2c0,15.7,817,56.3,898.9-25C567.5-6.3,267.9,3.4-32,3.2Z"/><path class="b" d="M82.5,234.7c282.5,0,410.8-63.2,777.8-31.1C829.9,226,163.1,236.7,82.5,234.7Z"/><path class="c" d="M512,156.6c125.3,82.3,212.5,43.4,347.9,54.2C782.6,261.6,578.4,201.6,512,156.6Z"/><path class="d" d="M388.9,125.2c45.6-10.5,362.7,64.2,471.8,72.9C703.7,297.3,511,93.9,388.9,125.2Z"/><path class="h" d="M191.5,169.9c47.6-9.3,94.9-19.8,142.2-30.8C286.4,149.9,238.9,159.8,191.5,169.9Z"/><path class="h" d="M191.5,169.9C167.4,174.7-34,213.8-34,214.1,45.9,212.6,114.5,186.5,191.5,169.9Z"/><path class="h" d="M333.7,139.1l3.1-.7Z"/><path class="i" d="M316.8,140.1c-66.3,13.4-131.3,32.8-197.8,45.4-47.2,9-154.2-4.2-152.4,46.8C92.3,231.7,196.7,165,316.8,140.1Z"/><path class="j" d="M365.5,115C265,133.3,143,173.4,44.9,180,112.1,177.5,670.6,50.4,365.5,115Z"/><path class="k" d="M347.6,128.2c-52.8,10.6-382.5,57.7-381.8,79.6C97.7,210,220.5,154.5,347.6,128.2Z"/><path class="k" d="M-34.8,178.8c0,2.6,66.6,5.7,62.5,5.6C6.8,183.4-14.1,181.6-34.8,178.8Z"/><path class="c" d="M391.7,111.9C492.4,94.2,730.4,148.6,863,158.7,805.1,216.5,402,125.4,391.7,111.9Z"/><path class="g" d="M861.3,189.5C774.2,180.7-35.5,167.9-34,212.9c157,12.5,315.6,13.9,473,12.7C567.2,224.6,740.5,242.5,861.3,189.5Z"/><path class="a" d="M-34.3,205.7c.2,4.5,824.6-17.3,895.3-11.7C579.8,25.5,262,209.9-34.3,205.7Z"/><path class="b" d="M368.1,117.2C502.2,88.6,704.5,148.1,863,158.9,740.7,237.5,535.5,80.7,368.1,117.2Z"/><path class="a" d="M-34.4,200.8c.2,8.9,127.5,4.4,144.6,5.9C62.4,200.3,13.7,202.3-34.4,200.8Z"/><path class="a" d="M110.2,206.7c4.2.6,236.4-76.7,280.3-86C352.3,128.9,112.2,206.9,110.2,206.7Z"/><path class="a" d="M390.5,120.7l4.2-.9Z"/><path class="a" d="M761.7,183.6q49.8,3.8,99.4,8.9C828.4,185.8,795,184.3,761.7,183.6Z"/><path class="a" d="M-34.7,185c1.5,78.9,287.4,30.4,354.6,25.2,146.8-11.5,294.4-28.2,441.8-26.6C496.1,164.8,231.1,189-34.7,185Z"/><path class="a" d="M496,119c10.3,3.7,20,9.3,29.8,14.4C516,128.3,506.3,122.7,496,119Z"/><path class="a" d="M-34.6,191.4c1.1,53.3,262.5-27.4,297.5-35C160.3,177.3,71.4,200.5-34.6,191.4Z"/><path class="a" d="M485.5,116.3c-81.3-9.8-142.8,18.8-222.6,40.1C342.4,136.1,404,108,485.5,116.3Z"/><path class="a" d="M485.5,116.3c3.6.4,7,1.8,10.5,2.7C492.5,118,489.1,116.6,485.5,116.3Z"/><path class="a" d="M348,118.5C516.9,85.9,679.9,141.9,863.3,153,752.9,220.8,525,83.1,348,118.5Z"/><path class="a" d="M.1,179.2c252.2,25.7,564.2-43.6,863-22.6C859.8,157.9,56,186.1.1,179.2Z"/><path class="a" d="M588,153.6c54.3,39.8,117.1,28.2,180.6,28.4C708.1,144.7,655.7,182.5,588,153.6Z"/><path class="a" d="M-34.8,181.9c0,28.3,281.5-32.5,317.5-40.8,118.5-27.2,189.8-37.7,305.2,12.5C414.5,29,153.4,174-34.8,181.9Z"/><path class="a" d="M806,155.1c19,.5,38.1,1,57.1,2.5C843.9,159,825.1,156.2,806,155.1Z"/><path class="b" d="M-34.7,189c-.3-20.5,810.8,87.5,896.8-11.7C561.9,151.2,265.4,188.1-34.7,189Z"/><path class="b" d="M-34.7,184.3c-.3-16,835.6,66.8,896.7-5.6C562.1,150.8,265.2,186.7-34.7,184.3Z"/><path class="c" d="M-34.8,181.6c.3,16.8,812,50,897.4-14C562.5,144,265.2,181.4-34.8,181.6Z"/><path class="a" d="M613.9,142.6c51.4,26,181.6,5.9,249.3,11.3C830.8,171.6,645.1,159.1,613.9,142.6Z"/><path class="d" d="M746,152.8c39.1-1.1,78.2-1.8,117.2,1.1C840,163.2,774.4,152.7,746,152.8Z"/><path class="a" d="M-35,161.6c.4,62.6,548.1,64.1,639.7,59.7,70.4-3.4,215.9-.9,258.9-74.2C563.3,123.3,265.2,160.5-35,161.6Z"/><path class="c" d="M862.9,161.8c-300.1-23-597.8,15.6-897.8,14.9C-34.6,194.1,775.9,222.8,862.9,161.8Z"/><path class="a" d="M519.4,112.9C456,83.6,356.6,127.2,294,144.6,356.9,128.1,456.5,85.4,519.4,112.9Z"/><path class="a" d="M-34.5,195.7C82.6,205.8,182.2,172.4,294,144.6,252.5,154.3-34.5,198.4-34.5,195.7Z"/><path class="a" d="M519.4,112.9l6.1,2.7Z"/><path class="a" d="M486.5,91c65.8-4.3,267.5,44.8,377.3,49.9C763,242.9,555.7,84.5,486.5,91Z"/><path class="d" d="M-34.8,179.1C-35,165,799,243.6,862.4,171.3,562.7,145.7,264.9,186.2-34.8,179.1Z"/><path class="b" d="M454.3,92.6c79-10.6,290.8,38.8,409.7,43.6C817.5,233.4,517.9,118.9,454.3,92.6Z"/><path class="b" d="M316.8,130.4C276,141.2,234.5,150.2,193,157.9,296.5,144.3,395.4,88.1,501.2,91,438.2,86.8,376.3,114.5,316.8,130.4Z"/><path class="b" d="M-34.2,123.6C-47.3,244.9,129.4,171.2,193,158,112.8,167.1,41.3,149.4-34.2,123.6Z"/><path class="b" d="M666.5,172.9c-42.3-1-83.8-41.4-115-64.7,53,53.7,260,166.4,309.6,58.6C822.9,232.5,720.5,174.2,666.5,172.9Z"/><path class="b" d="M526.1,92.3,500.9,91a78.7,78.7,0,0,1,50.2,17.1Z"/><path class="e" d="M103.9,173.4c197.3-38.1,715.6,28.2,759.1-13.7C520.2,133.1,466.6,87.8,103.9,173.4Z"/><path class="e" d="M-34.9,174.8c46.1,4.2,92.8,3.1,138.8-1.4C94.4,173.9-34.8,180-34.9,174.8Z"/><path class="n" d="M-35,129.9c0,9.4,858.3,85.2,899.8-17.4C564.6,100.9,265.1,130.6-35,129.9Z"/><path class="h" d="M617.7,123c-102.4-57-242.7-19.9-350-.4C209.2,133.2,11.8,197-37.8,157.5c179.5,36.4,373.2-94.6,549.2-38.9,72.9,23.1,333.6,191.5,348.7,18.7C787.4,138.5,684.9,160.4,617.7,123Z"/><path class="l" d="M-35,148.3c.1,57.7,415.2-40.5,465.8-50.7C277.3,127.6,121.9,152.5-35,148.3Z"/><path class="l" d="M519.3,89.7a119.7,119.7,0,0,0,12,1.8A119.7,119.7,0,0,1,519.3,89.7Z"/><path class="l" d="M429.5,98.5c29.2-6.1,59.9-10.6,89.8-8.8C489.4,87.9,458.7,92.5,429.5,98.5Z"/><path class="o" d="M-35,144.9c0,23.5,822.2-18.7,899.2-15.5C605.3-21.9,242.8,158.2-35,144.9Z"/><path class="j" d="M573,68.6c57.7.4,191.7,27.1,292.1,28.5C818.4,167.3,587.5,68.8,573,68.6Z"/><path class="k" d="M546.3,80.2c6.3.7,12.5,1.4,18.7,2.3C558.8,81.6,552.6,80.9,546.3,80.2Z"/><path class="k" d="M502.4,81.6c14.2-1.4,29.8-2.9,43.9-1.4C532.2,78.7,516.6,80.2,502.4,81.6Z"/><path class="k" d="M-34.9,121.3c-22.5,84.5,470.6-34.1,532-39.2C319.6,96.2,143.6,123-34.9,121.3Z"/><path class="k" d="M497.1,82.1l5.3-.5Z"/><path class="d" d="M381.8,130c45.4-10.8,365.4,68.7,478.3,77.5C702.4,309.9,507.5,100.2,381.8,130Z"/><path class="h" d="M204.6,173.2c39.5-11,80-18.5,119.9-28C284.6,154.6,244,161.7,204.6,173.2Z"/><path class="h" d="M324.5,145.2l5.2-1.2Z"/><path class="h" d="M204.6,173.2C175.3,179.8-33.5,227.1-33.6,225,53.5,223.3,121.8,193.1,204.6,173.2Z"/><path class="j" d="M358.2,119.8c-94.7,17.5-226.3,67.2-313.8,70C106,189.4,662.1,52.1,358.2,119.8Z"/><path class="k" d="M340.2,133.2C288.3,144.4-34.5,200-33.8,219,97.4,220.7,214.5,160.8,340.2,133.2Z"/><path class="k" d="M-34.7,187.6c.1,2.1,65.9,6.1,61.9,6Q-3.8,191.4-34.7,187.6Z"/><path class="c" d="M384.2,116.5c101.5-16.4,341.8,41.3,478.3,51.8C801.7,228.9,412.3,140.9,384.2,116.5Z"/><path class="g" d="M860.6,199.9c-84.2-8.4-895.8-21.2-894.3,23.6,157.2,12.3,316.1,12.8,473.6,11.3C567.3,233.6,740.4,252,860.6,199.9Z"/><path class="b" d="M361.1,121.7C489.7,93,706.8,156.5,862.5,168.4,741,252,527.8,83.6,361.1,121.7Z"/><path class="a" d="M-34.1,211.2c.3,9.9,119.1,5.6,135.6,6.5C56.5,213.2,11.1,212.5-34.1,211.2Z"/><path class="a" d="M101.5,217.7c19.9,1.4,228.9-79.9,285.1-92.7C333.9,136.8,119.7,218.3,101.5,217.7Z"/><path class="a" d="M516.6,140.2c-160.5-83.5-379.9,89-550.7,69.2C-34,213.4,457,109.5,516.6,140.2Z"/><path class="a" d="M341.7,123C507,92.5,681.9,149.1,862.8,162.5,747.4,233.3,521.9,88.2,341.7,123Z"/><path class="a" d="M-.3,188.3c253.4,24.5,553.8-46,862.9-22.1C856,168.4,55.6,194.5-.3,188.3Z"/><path class="a" d="M-34.3,202.3c.3,37.8,361.6-66.6,390.8-75.2C228.2,159.5,99,200-34.3,202.3Z"/><path class="a" d="M570.1,158.4c67.1,46.6,122.5,33.8,198,33.9C708.1,155.5,642.9,189.4,570.1,158.4Z"/><path class="a" d="M356.4,127.1c87.5-21.5,132.9-2.3,213.6,31.3C490.4,103.1,448.5,100.1,356.4,127.1Z"/><path class="a" d="M805.8,164.3c19,.6,37.9,1.4,56.8,2.9C843.6,168.2,824.8,165.4,805.8,164.3Z"/><path class="c" d="M862,178.3c-84.5-7.2-897.4-12.1-896.3,26,164.3,11.9,331,6.8,495.5,3.3C556.5,205.6,779.7,237.7,862,178.3Z"/><path class="a" d="M607.9,151.8c52.1,25.6,186.5,5.7,254.9,11.7C828.8,181.2,639.7,168.2,607.9,151.8Z"/><path class="d" d="M746,161.7c38.9-.6,77.9-1.1,116.8,1.8C839.5,172.6,774.2,162,746,161.7Z"/><path class="c" d="M-34.9,172.5c.3,31,152.6-9.2,182.8-11.2C86.7,159.8,26.3,173.4-34.9,172.5Z"/><path class="c" d="M147.9,161.3c217.5-19.7,677.2,63,714.6,7.5C530,143.9,502,94,147.9,161.3Z"/><path class="a" d="M-34.6,192.5c1.2,56.2,254.9-27,291.5-35.2C156.7,178.1,68.8,199.9-34.6,192.5Z"/><path class="a" d="M512.7,122.4l4.8,2.5Z"/><path class="a" d="M512.7,122.4c-72-38.5-182.1,17.6-255.8,34.9C331.1,142.3,440.9,85.6,512.7,122.4Z"/><path class="a" d="M477.9,95.7c58-4.4,280.9,48.8,385.5,54.9C693.6,189.8,574.5,84.4,477.9,95.7Z"/><g class="p"><path class="q" d="M-34.6,191.5C-35,174.6,799,251,861.8,182.3,562.1,154.8,265,202.8-34.6,191.5Z"/><path class="r" d="M-35.8,192.7c-.5-.4-.6-1.8-.3-2l.4-.7.4-.3.3-.3,1.2-.5,1.9-.5,3.6-.5,7.2-.4c4.7-.2,9.4-.2,14.1-.2l28.3.5c18.8.6,37.5,1.4,56.3,2.2,37.6,1.6,75.1,3.5,112.6,5.3,75.1,3.7,150.2,7.4,225.2,10.1s150.3,4.7,225.4,4.2c37.5-.4,75.1-1.3,112.5-4,18.7-1.4,37.4-3.2,55.9-6.3a227.3,227.3,0,0,0,27.2-6,80.6,80.6,0,0,0,13-4.8c4.2-1.9,8.2-4.2,11.1-7.3l1.1,2.7-55.8-4.4-56-2.8-56-1.5-56-.4c-74.8.2-149.5,3-224.1,6.4l-112.1,5.2-56,2.5-56,2.1a204.6,204.6,0,0,0-27.9,3.5c-4.7.9-9.3,2-14,3.1l-7,1.9-6.9,2c-9.4,2.5-18.7,5.2-28.1,7.2a193.3,193.3,0,0,1-28.1,4.5,241.2,241.2,0,0,1-28.2.2c-9.4-.4-18.8-1.3-28.2-2.6a184.2,184.2,0,0,1-32.5-7.5c-5-1.6-9.5-3.4-13.7-5.1A83.1,83.1,0,0,1-35.8,192.7Zm2.4-2.3c6.3-1.7,11.9-3.2,17.2-4.8l14.4-4.4c8.8-2.8,16.2-4.9,23.5-6a262.5,262.5,0,0,1,27.9-2.4,234.5,234.5,0,0,1,27.8.5,205.1,205.1,0,0,1,27.9,3.7c9.4,1.9,18.7,4.3,28.1,6.6l7,1.5,7,1.5q7,1.5,14.1,2.4a190.5,190.5,0,0,0,28.1,1.9c18.7-.6,37.4-1.4,56-2.1l56-2.6,112-5.7c74.7-3.9,149.4-7.2,224.2-7.9h56.1l56,1.2,56.1,2.6,55.9,4.2,3.4.3-2.3,2.5a27.9,27.9,0,0,1-5.7,4.7,50.6,50.6,0,0,1-6.4,3.5,94.8,94.8,0,0,1-13.5,4.9,240.6,240.6,0,0,1-27.7,6.2c-18.6,3.1-37.4,5-56.1,6.4-37.6,2.8-75.2,3.8-112.8,4.1s-75.2,0-112.8-.7-75.1-1.9-112.7-3.3c-75.1-2.7-150.2-6.3-225.3-10.1L77.4,193.5c-18.7-.8-37.5-1.6-56.2-2.2L-7,190.7c-4.7,0-9.3,0-14,.2l-6.9.4-3.4.4-1.5.4c-.2.1-.4.1-.4.2h0l.2-.2C-32.8,191.9-32.9,190.6-33.4,190.4Z"/></g><path class="b" d="M514.4,98.1c-39.4-6.9-87.2,2.5-124,17.2,99.5-26.1,143.1,44.9,230.2,61.6,65.9,12.7,195.5-76.9,241.8-7.3C823.4,114,578.8,109.3,514.4,98.1Z"/><path class="b" d="M-34.3,134.1C-49,260.3,145.4,175,206.9,160.7,115.8,174.5,53.4,160.2-34.3,134.1Z"/><path class="b" d="M206.6,160.6c62.1-11.1,122.8-28.1,183.3-45.6C328.9,130.6,267.9,146.1,206.6,160.6Z"/><path class="l" d="M480.5,95.1c14.3-.4,27.2,1.8,41.2,3.8C507.7,96.9,494.8,94.7,480.5,95.1Z"/><path class="l" d="M470.3,96.4l10.2-1.3Z"/><path class="j" d="M565,71.3c48.5-.7,208.1,32.8,299.9,35.7C815.7,178.5,583.5,71.2,565,71.3Z"/><path class="s" d="M630.9,107c22.9,10.7,186-21.2,234.4-20.3C846.7,103.6,660.4,120.9,630.9,107Z"/><path class="s" d="M523.8,72.8c22.4-2.5,60.1-8.2,76.8,10C583.9,64.5,546.2,70.3,523.8,72.8Z"/><path class="s" d="M523.8,72.8c-187,26.3-368.7,65.9-558.7,47.4C-35.4,159.6,480.3,79,523.8,72.8Z"/><path class="t" d="M-14.3,126.9c141.8,21.8,639.2,21,769.3,8.3C613.3,147,136.5,149.7-14.3,126.9Z"/><path class="u" d="M-12.7,127.1A53.2,53.2,0,0,0-7,127a28.6,28.6,0,0,1,5.1.2l2.7.4,3,.4,5.9.7,6,.8,6,.7,11.9,1.3,24,2.2,12,.9,12,.9c32,2.1,64,3.2,96.1,3.9l24.1.6,24,.3c16.1.2,32.1.4,48.1.4s32.1.1,48.2,0l24-.2,24.1-.2c32.1-.5,64.1-1,96.2-1.9s64.1-1.8,96.1-3l24.1-.9,24-1,24-1.1,23.9-1.2c16-.8,32-1.8,47.9-2.8s31.9-2.2,47.5-3.9l2,21.4c-16.2,1.5-32.3,2.6-48.4,3.5s-32.2,1.7-48.2,2.3q-48.3,2-96.4,2.7c-64.3,1.1-128.6.7-192.8-.8s-128.5-4.1-192.6-7.8c-32.1-1.9-64.2-3.9-96.2-6.6l-24-2.1-24-2.4c-8-1-16-1.8-23.9-2.9l-6-.7-3-.4-2.5-.5a34.3,34.3,0,0,1-5-1.4C-8.8,128.2-10.7,127.6-12.7,127.1Zm-3.1-.5c2,.1,4,0,6.3,0a53.5,53.5,0,0,1,6.9.2L9.8,128l23.9,2.1,24,1.5,24,1.2c32.1,1.3,64.1,2.1,96.2,2.4s64.1.3,96.1.1l48.1-.4,48.1-.6q96.2-1.4,192.2-3.2c32.1-.6,64.1-1.3,96.1-2.3l47.9-1.8c15.9-.6,31.9-1.4,47.7-2.5l1.9,21.4c-16.3,1.4-32.4,2.1-48.5,2.9l-24.1.7c-8.1.3-16.1.5-24.2.6l-24.1.4-24.1.2H562.8c-64.3-.2-128.5-1.4-192.7-3s-128.3-3.7-192.4-6.5c-32.1-1.5-64.1-3.2-96.2-5-8-.3-16-1-24-1.4s-16-1-24-1.6-16-1.2-24-2.1l-6-.6-3-.3-3.3-.4a54.7,54.7,0,0,1-6.8-1.4Z"/><path class="s" d="M700.1,96c56.2-16.8,107-20.7,165.3-19.3C824.6,91.1,752.7,80.4,700.1,96Z"/><path class="v" d="M-34.8,111c-.5,24.9,302.3-7.6,331-11,118.5-14.2,236-25.1,350.9,16.1C426.1,35.3,191.9,142.6-34.8,111Z"/><path class="v" d="M-34.8,114.9c-.7,39.3,823.2-16.8,899.9-17.2-108.3-69-306.2-28-423.3-17.1C286.1,95.1,122,128.3-34.8,114.9Z"/><path class="w" d="M629.7,65.4c-1.1-.2-1.4.5-1.2,1.2a4.9,4.9,0,0,0,.7,1.1l1.1,1a20.4,20.4,0,0,0,6.4,3.3,57.8,57.8,0,0,0,15,2.9,89.2,89.2,0,0,0,15.5-.3,79.5,79.5,0,0,0,15.2-2.7c10-2.5,19.7-7.2,29.3-11.5a140.1,140.1,0,0,1,14.7-5.8,111.8,111.8,0,0,1,14.9-3.7,54.2,54.2,0,0,1,15.6-.5c5.3.6,10.8,1.8,16.2,2.7a66.4,66.4,0,0,0,15.9,1,49.4,49.4,0,0,0,7.7-1.2,18.8,18.8,0,0,0,7.2-3.6c4.6-3.5,8.8-9.4,13.4-13.1a25.1,25.1,0,0,1,7.3-4,66.6,66.6,0,0,1,7.7-1.9,59.7,59.7,0,0,1,15.9-1.2,48.5,48.5,0,0,1,8.3,1.1,32.1,32.1,0,0,1,8.5,3l1.1,20.2a41.7,41.7,0,0,1-6.9,4.1,51.8,51.8,0,0,1-7,2.9,74.2,74.2,0,0,1-14.7,3.2c-2.5.3-5.1.4-7.6.5a21.1,21.1,0,0,1-8-1.4c-5.5-1.9-11.5-6-17-7.7a18.7,18.7,0,0,0-8-.9,48.9,48.9,0,0,0-7.6,1.6,66.8,66.8,0,0,0-14.4,6.7c-4.8,2.8-9.4,5.9-14.2,8.3a51.6,51.6,0,0,1-14.9,5.1,98.1,98.1,0,0,1-15.4,1.7,140.8,140.8,0,0,1-15.9-.5c-10.7-.9-21.4-2.5-31.8-2.3a131.3,131.3,0,0,0-15.4,1c-5.2.5-10.3,1.3-15.4,2.2s-10.3,1.9-15.9,2.9l-4.2.6-4.7.5h-4l-1.5-.2a18.9,18.9,0,0,1-3.5-1l-.9-.4-.5-.2-.5-.3-2.1-1.4Z"/><path class="v" d="M718.3,68.5c50.4-14.1,95.3-17.2,147.2-18.1C846.9,61.3,752.5,58.6,718.3,68.5Z"/><path class="v" d="M750.8,54.1c37.7-7.8,76.3-9.5,114.8-10.6C844.5,54,779.9,48.3,750.8,54.1Z"/><path class="s" d="M730.6,42.2l-31.4,6.1c54.2-13.9,109.5-19.6,165.4-20.1C819.9,28.9,774.2,32,730.6,42.2Z"/><path class="s" d="M699.2,48.3h0C593.1,70.8,591.6,68.8,699.2,48.3Z"/><path class="s" d="M728,43.8c44.8-11.9,91.5-14.6,137.7-15.6C845.7,40.5,760.8,34.7,728,43.8Z"/><path class="x" d="M-32.8,58.1c.2-3.7,816.9,49.7,898.4-23.3C566.3,44.5,266.9,67.8-32.8,58.1Z"/><path class="s" d="M666.8,66.5c72.7-15.1,122.5-30.1,198.8-31.9C853.5,49,713.5,57.7,666.8,66.5Z"/><path class="s" d="M572.7,53c113.9,7.5,178.1-21.5,293-24.8C809.1,63.4,638.7,57.4,572.7,53Z"/><path class="s" d="M865.7,28.7c-206.3,7.9-538.7,76-736.6,30.1C239.6,86,770.7,88.8,865.7,28.7Z"/><path class="s" d="M-32.5,51c-.1,5.3,148.6,1.1,161.6,7.8C91,37.8,9.7,53.8-32.5,51Z"/><path class="y" d="M-32.4,47.9C267,54.7,566.5,44,865.6,34.2"/><path class="v" d="M1.7,69.6C61,83.9,185.1,77.5,246,62.1,185.7,77,60.2,83.5,1.7,69.6Z"/><path class="v" d="M433.1,43.2C367.5,35.7,309.7,48.5,246,62.1,309.5,48.8,367.8,35.9,433.1,43.2Z"/><path class="s" d="M578.9,48c100.7-2.4,185.7-28,287-33.7C837.5,36.4,628.5,40.8,578.9,48Z"/><path class="s" d="M577.2,26.1C597.6-.1,815.5-6.4,866.3-9.6,814,29.2,610.4-11.3,577.2,26.1Z"/><path class="s" d="M562.6,17.8c30-35.9,246-39.8,304.5-42.9C807.8,18.8,612.9-41.9,562.6,17.8Z"/><path class="s" d="M630.3,109.7c28.8,15.2,183.4-14.4,234.8-13.1C859,100.6,637.1,113.3,630.3,109.7Z"/><path class="z" d="M516.9,67.6c114.8-12.3,234,9.9,349,13.4C835,238.1,618.6,161.6,537.7,96.1"/><path class="s" d="M700.1,103.5c57.2-14.2,106.5-18.6,165.2-16.9C856,93.1,728.7,96.6,700.1,103.5Z"/><path class="z" d="M206,122.4C431.6,47,641.1,61.4,865.5,55.1"/><path class="v" d="M717.3,77.9C768.5,64,812.8,60.3,865.5,60.5,847,71,751.2,68.9,717.3,77.9Z"/><path class="v" d="M750.5,63.5c37.7-8.1,76.5-9.4,115-9.8C843.9,64.1,780.1,57.7,750.5,63.5Z"/><path class="s" d="M697.4,60.1h0C614.4,82.7,592.8,85.1,697.4,60.1Z"/><path class="s" d="M729.6,52.6l-32.2,7.5c54.9-15.8,111-21.3,167.9-21.8C820.1,39,773.7,41.7,729.6,52.6Z"/><path class="s" d="M726.9,54.1c45.6-11.8,91.7-14.8,138.7-15.7C846.6,49.7,759,46.1,726.9,54.1Z"/><path class="s" d="M663.6,78.3c73.6-12.4,122.9-33.2,202-35.1C859.1,52.6,709.5,71.6,663.6,78.3Z"/><path class="s" d="M429.8,49c-71.2-7.1-145.4,25.3-209.1,53.3C330.1,60.7,447.7,56,563.3,57.5,518.7,56.1,474.2,53.4,429.8,49Z"/><path class="s" d="M573.1,55.9c117.4,9.4,169.3-14.7,292.5-17.5C789,82.4,645.6,61,573.1,55.9Z"/><path class="t" d="M-33,61.9c118.8,9.9,238.9,22.2,357.8,6.2C293.3,71.6-33.4,70.9-33,61.9Z"/><path class="u" d="M-33.3,61.5l10.7-1,6-.5,6.3-.3c7.5-.3,15.1-.4,22.6-.5H23.5l11.2.2,11.2.3,11.2.5c7.4.4,14.9.7,22.3,1.3l22.3,1.5,22.2,1.8,22.3,1.7,22.2,1.7L190.7,70,213,71.3l22.4.8a579.7,579.7,0,0,0,89.3-4.5v1c-3.7.4-7.4.6-11.2.7l-11.2.4-22.4.4c-14.9.2-29.9.3-44.8.3-29.9.1-59.7-.1-89.6-.3S85.8,69.5,56,68.7c-15-.3-29.9-.7-44.8-1.4-7.5-.3-14.9-.7-22.4-1.2l-11.2-1-5.6-.8a13.1,13.1,0,0,1-2.7-.6l-1.4-.4-.8-.4-.3-.3c-.1-.1-.2-.2-.2-.3v-.2A1.1,1.1,0,0,1-33.3,61.5Zm.7.8c.1,0,.2-.2.2-.3h.1l.6.3,1.2.4,2.7.6,5.5.8,11.2,1c7.4.6,14.9,1,22.3,1.3,14.9.7,29.9,1.2,44.8,1.7,29.9.7,59.7,1.1,89.6,1.4s59.7.3,89.6.1c14.9-.1,29.9-.2,44.8-.5l22.4-.4,11.2-.4c3.7-.2,7.4-.3,11.1-.7l.2,1c-29.7,4.1-59.4,7.3-89.3,9.9l-22.5,1.8-22.5,1.3-22.5.9-22.6.4L123,82.6l-22.5-.8L78.1,80.4l-22.4-2L44.5,77.1,33.4,75.6,22.3,74,11.2,72.2C3.8,70.9-3.6,69.5-11,67.9l-4.8-1.2L-21,65.3Z"/><path class="t" d="M324.8,68.1c100.6-8.8,479.1,26.2,540.8-31.4C701.5,39.1,490.5,48,324.8,68.1Z"/><path class="u" d="M325.3,68.1a11.4,11.4,0,0,0,2.2-.7l1.6-.7,2-.4,2.1-.4,8.5-1.3c5.7-.8,11.4-1.5,17.1-2,11.5-1.1,22.9-1.9,34.3-2.4,22.9-1.1,45.7-1.4,68.4-1.3,45.6.4,91,2.1,136.5,3.6s90.8,3.3,136.2,2c22.7-.7,45.4-2.2,67.9-5.6a252.5,252.5,0,0,0,33.2-7.4,111.6,111.6,0,0,0,15.8-6,60.7,60.7,0,0,0,14.2-9.2l.3.9q-135.5,2.1-270.8,9-67.6,3.6-135.2,8.9L425.9,58l-33.7,3.2-33.7,3.5L342,66.5Zm-1,.1,16.9-2.4,17.2-2,33.7-3.4,33.7-3.1,33.8-2.8c45-3.7,90.1-6.6,135.2-9.1q135.3-7.2,270.8-9.2H867l-1,.9a59.9,59.9,0,0,1-14.4,9.5,128.2,128.2,0,0,1-15.9,6.3c-5.4,1.8-10.9,3.4-16.5,4.7s-11.1,2.6-16.7,3.7c-11.2,2.2-22.5,4-33.8,5.5s-22.7,2.8-34.1,4c-22.7,2.3-45.5,4-68.3,5.3s-45.6,2.2-68.5,2.6c-45.6.9-91.2.2-136.7-1.6q-34.1-1.5-68.1-3.9l-34.1-2.4-8.5-.6-8.5-.6-8.5-.5h-4.5l-2.6-.4Z"/><path class="s" d="M581.3,52.5C684.2,71.4,758.2,28.4,865.7,24.3,830.3,46.3,630.8,61.4,581.3,52.5Z"/><path class="s" d="M582.6,35.7C628.9,8.2,800.1,4.4,866.1.5,817.4,36.9,635.5,6,582.6,35.7Z"/><path class="s" d="M565.7,26.7C613.8-7.8,794.4-10.6,866.5-15.4,812.4,25,636.6-21.1,565.7,26.7Z"/><path class="z" d="M82.5,234.7c282.5,0,410.8-63.2,777.8-31.1C829.9,226,163.1,236.7,82.5,234.7Z"/><path class="y" d="M512,156.6c125.3,82.3,212.5,43.4,347.9,54.2C782.6,261.6,578.4,201.6,512,156.6Z"/><path class="v" d="M388.9,125.2c45.6-10.5,362.7,64.2,471.8,72.9C703.7,297.3,511,93.9,388.9,125.2Z"/><path class="s" d="M365.5,115C265,133.3,143,173.4,44.9,180,112.1,177.5,670.6,50.4,365.5,115Z"/><path class="s" d="M-34.8,178.8c0,2.6,66.6,5.7,62.5,5.6C6.8,183.4-14.1,181.6-34.8,178.8Z"/><path class="y" d="M391.7,111.9C492.4,94.2,730.4,148.6,863,158.7,805.1,216.5,402,125.4,391.7,111.9Z"/><path class="s" d="M-34.3,205.7c.2,4.5,824.6-17.3,895.3-11.7C579.8,25.5,262,209.9-34.3,205.7Z"/><path class="z" d="M368.1,117.2C502.2,88.6,704.5,148.1,863,158.9,740.7,237.5,535.5,80.7,368.1,117.2Z"/><path class="s" d="M496,119c10.3,3.7,20,9.3,29.8,14.4C516,128.3,506.3,122.7,496,119Z"/><path class="s" d="M348,118.5C516.9,85.9,679.9,141.9,863.3,153,752.9,220.8,525,83.1,348,118.5Z"/><path class="r" d="M.1,179.2c252.2,25.7,564.2-43.6,863-22.6C859.8,157.9,56,186.1.1,179.2Z"/><path class="t" d="M-.4,179.1a59.6,59.6,0,0,0,6,.1l6.8-.6c2.5-.3,5-.4,7.6-.5h7.3l13.5-.5,6.8-.2,6.7-.4c9-.5,18-.7,26.9-1.4l26.9-1.6c35.8-2.5,71.4-5.7,107.1-9.1,71.3-7.1,142.6-15.3,214.3-22.2q53.8-5.2,108-9.2c36.1-2.6,72.3-4.3,108.7-4.2A997,997,0,0,1,755.3,135c9.1,1.2,18.1,2.2,27.2,3.6s18.1,2.9,27.1,4.5,17.9,3.7,26.9,5.8l13.3,3.4c4.5,1.2,8.9,2.4,13.3,3.8h.1v1l-3.5.3-3.4.2-6.7.3-13.5.5-27,1.1-53.9,1.9-107.9,3.8q-107.9,3.6-215.7,6.9c-71.9,2.1-143.8,4.2-215.8,5.9-35.9.8-71.9,1.6-107.9,2.2-18,.3-35.9.5-53.9.6h-27l-13.5-.3-6.8-.2a23.5,23.5,0,0,1-3.7-.5Zm1.1.1a16.9,16.9,0,0,0,3.2-.1h3l6.7.2c4.5.2,9,.2,13.5.2h27l53.9-.6c36-.6,71.9-1.3,107.9-2.2q107.9-2.6,215.8-5.9t215.7-6.9l107.9-3.7,53.9-2,26.9-1.1,13.5-.5,6.8-.3,3.3-.2,3.2-.2.2,1.1h0c-4.6.8-9.1,1.5-13.7,2.1s-9,1.2-13.6,1.8q-13.5,2-27,3.3L795.3,166l-13.4,1.5-3.4.3-3.3.4-6.8.7L755,170.3c-35.7,3.6-71.2,6.9-106.9,9.7s-71.2,5.2-107,7.4-71.6,4.6-107.5,6.7c-71.9,4.3-144.2,7.7-216.8,6.9-36.3-.3-72.7-1.8-108.9-5.1-4.6-.4-9.1-.7-13.6-1.3l-13.6-1.5c-9-1-18-2.3-27-3.5l-6.8-1-6.7-1.1-13.4-2.3-3.3-.6-2.9-.7-5.9-1.7c-2-.6-4.2-1.3-6.6-1.8S3.2,179.5.7,179.2Z"/><path class="s" d="M806,155.1c19,.5,38.1,1,57.1,2.5C843.9,159,825.1,156.2,806,155.1Z"/><path class="s" d="M613.9,142.6c51.4,26,181.6,5.9,249.3,11.3C830.8,171.6,645.1,159.1,613.9,142.6Z"/><path class="v" d="M746,152.8c39.1-1.1,78.2-1.8,117.2,1.1C840,163.2,774.4,152.7,746,152.8Z"/><path class="s" d="M486.5,91c65.8-4.3,267.5,44.8,377.3,49.9C763,242.9,555.7,84.5,486.5,91Z"/><path class="v" d="M-34.8,179.1C-35,165,799,243.6,862.4,171.3,562.7,145.7,264.9,186.2-34.8,179.1Z"/><path class="z" d="M454.3,92.6c79-10.6,290.8,38.8,409.7,43.6C817.5,233.4,517.9,118.9,454.3,92.6Z"/><path class="v" d="M863,159.7c-342.8-26.6-396.4-71.9-759.1,13.7"/><path class="v" d="M-34.9,174.8c46.1,4.2,92.8,3.1,138.8-1.4C94.4,173.9-34.8,180-34.9,174.8Z"/><path class="s" d="M519.3,89.7a119.7,119.7,0,0,0,12,1.8A119.7,119.7,0,0,1,519.3,89.7Z"/><path class="s" d="M429.5,98.5c29.2-6.1,59.9-10.6,89.8-8.8C489.4,87.9,458.7,92.5,429.5,98.5Z"/><path class="s" d="M546.3,80.2c6.3.7,12.5,1.4,18.7,2.3C558.8,81.6,552.6,80.9,546.3,80.2Z"/><path class="s" d="M502.4,81.6c14.2-1.4,29.8-2.9,43.9-1.4C532.2,78.7,516.6,80.2,502.4,81.6Z"/><path class="s" d="M358.2,119.8c-94.7,17.5-226.3,67.2-313.8,70C106,189.4,662.1,52.1,358.2,119.8Z"/><path class="s" d="M-34.7,187.6c.1,2.1,65.9,6.1,61.9,6Q-3.8,191.4-34.7,187.6Z"/><path class="z" d="M361.1,121.7C489.7,93,706.8,156.5,862.5,168.4,741,252,527.8,83.6,361.1,121.7Z"/><path class="s" d="M341.7,123C507,92.5,681.9,149.1,862.8,162.5,747.4,233.3,521.9,88.2,341.7,123Z"/><path class="s" d="M-.3,188.3c253.4,24.5,553.8-46,862.9-22.1C856,168.4,55.6,194.5-.3,188.3Z"/><path class="s" d="M805.8,164.3c19,.6,37.9,1.4,56.8,2.9C843.6,168.2,824.8,165.4,805.8,164.3Z"/><path class="s" d="M607.9,151.8c52.1,25.6,186.5,5.7,254.9,11.7C828.8,181.2,639.7,168.2,607.9,151.8Z"/><path class="v" d="M746,161.7c38.9-.6,77.9-1.1,116.8,1.8C839.5,172.6,774.2,162,746,161.7Z"/><path class="s" d="M477.9,95.7c58-4.4,280.9,48.8,385.5,54.9C693.6,189.8,574.5,84.4,477.9,95.7Z"/><g class="p"><path class="q" d="M-34.6,191.5C-35,174.6,799,251,861.8,182.3,562.1,154.8,265,202.8-34.6,191.5Z"/><path class="r" d="M-34.6,191.6c-.3-.4,0-.9.2-1.3a6.1,6.1,0,0,1,.7-1l1.7-1.5a28,28,0,0,1,3.5-2.5l3.6-2.2,3.5-1.9,3.7-1.7,3.6-1.6c2.4-1,4.8-2,7.2-2.8a169.4,169.4,0,0,1,28.8-7.4,212,212,0,0,1,28.5-3c4.7-.2,9.5-.2,14.2-.1h3.5c1.2.1,2.4.1,3.5.3a23.3,23.3,0,0,1,7,2.4c9.2,4.8,18,18.5,27.2,23.4a24,24,0,0,0,6.9,2.5l3.5.3h3.6l7,.3h7c18.8.4,37.7,0,56.6-1.2s37.7-3.1,56.6-4.7,37.7-2.9,56.5-3.3c9.5-.2,18.8-.2,28.2-.1l14.1.3,14.1.4c18.7.5,37.5,1.3,56.2,2.2s37.4,2.2,56.1,3.6l56.2,4.1,28.1,1.8c9.3.6,18.7,1.2,28,1.6,18.8,1,37.5,1.6,56.2,2.4,37.5,1.4,75,3.3,112.5,2.8a479.1,479.1,0,0,0,56.1-3.8,217.3,217.3,0,0,0,27.6-5.5,103.6,103.6,0,0,0,13.2-4.7c2.1-1,4.2-2.1,6.2-3.3a26.4,26.4,0,0,0,5.5-4.5h0c-74.5-6.8-149.3-9-224-8.6s-149.5,3.5-224.2,7.1-149.3,7.7-224,10.2l-56,1.5-14.1.2H109c-1.1.1-2.3,0-3.5.2a14.3,14.3,0,0,0-6.9,3.9l-1.8,1.7-1.7,1.9-3.5,3.8a19.4,19.4,0,0,1-7,5.3c-2.3.9-4.7,1.4-7-.8a21.2,21.2,0,0,1-3.6-4.4l-3.5-5.5a15.9,15.9,0,0,0-3.5-4,5.4,5.4,0,0,0-1.8-1,4.7,4.7,0,0,0-1.7-.2l-14-.2-28.1-.3Zm0-.1,56,1.3H63.5l1.7-.2a5.4,5.4,0,0,0,1.8-1,17.1,17.1,0,0,0,3.5-3.9l3.5-5.5a21,21,0,0,1,3.4-4.4c2.3-2.2,4.7-1.8,7-1a19.5,19.5,0,0,1,7,5.1l3.5,3.7,1.8,1.9,1.8,1.6a14.4,14.4,0,0,0,7,3.8h14l14.1-.2,56-1.5c74.7-2.5,149.4-6.6,224-10.2s149.4-6.7,224.2-7.1,149.5,1.7,224,8.5h0c-3.2,3.5-7.4,5.8-11.6,7.9s-8.7,3.5-13.2,5c-9,2.7-18.2,4.9-27.4,6.7-18.5,3.6-37.2,6.4-55.9,8.9s-37.5,4.7-56.3,6.5-37.7,3.3-56.5,4.3-37.7,1.7-56.6,2.3l-28.3,1-28.2.8c-18.9.6-37.8,1-56.6,1.3s-37.7.3-56.5-.1-37.7-1.1-56.5-2.1l-14.1-.9-14-.9c-9.4-.7-18.8-1.5-28.2-2.6-18.7-2.2-37.4-5.2-56-8.6s-37.3-7.1-56-10.2-37.3-5.4-56.1-6.9l-7-.5-7-.4-3.6-.2a20.2,20.2,0,0,0-3.5-.1,21.5,21.5,0,0,0-7.1,1.9c-9.6,4-19.6,16.7-29.2,20.7a23.2,23.2,0,0,1-7.1,1.8H65.8l-3.5-.2c-4.6-.3-9.3-.7-14-1.3a239.9,239.9,0,0,1-27.7-4.9A213.9,213.9,0,0,1-7,203l-6.9-2.8-3.4-1.5-3.5-1.5-3.4-1.6-3.5-1.6-3.5-1.6-1.7-.7-.9-.3A.8.8,0,0,0-34.6,191.5Z"/></g><path class="s" d="M480.5,95.1c14.3-.4,27.2,1.8,41.2,3.8C507.7,96.9,494.8,94.7,480.5,95.1Z"/><path class="s" d="M470.3,96.4l10.2-1.3Z"/></svg>