<svg xmlns="http://www.w3.org/2000/svg" width="849.5" height="221.2" viewBox="0 0 849.5 221.2"><defs><style>.a{fill:#aa8854;}.b{fill:#836741;}.c{fill:#614815;}</style></defs><title>bg_woodArtboard 2</title><path class="a" d="M860.6-34.2h10v4C828.5-28.4,786.2-26.1,744-25Q450.9-17.5,157.8-10.5c-1.5-.6-3-1.5-4.5-1.6-30.4-1.1-60.8-3.2-91.1-2.7C34.4-14.4,6.6-11.3-21.1-9c-2.4.2-4.6,3.3-6.9,5.1a4.1,4.1,0,0,0,1.8.5l50-3.9c8.6.4,17.2,1.2,25.8,1.1l507.8-8.9-88.1,3.9a22.1,22.1,0,0,0-4.2,1.2,30.7,30.7,0,0,0,4.2.7L773-20.2c8.2-.3,16.4-1,24.7-1.5-8.1.1-16.2.4-24.3.4a36.9,36.9,0,0,1-5.8-.9l100.8-4-3.6,18a17.5,17.5,0,0,1-4.4.7c-1.2,0-2.3-.9-3.4-1.4l5.1-3.9c-2.7-.1-5.3-.4-7.9-.3-5.4.2-10.7.5-16,.9L649.9,3.4a15,15,0,0,0-3.4,1.1l3.4.3,148.9-2c3.2,0,6.5.8,9.7,1.2a81.3,81.3,0,0,1-8.4,1.3L624.6,22.8l68.8-11,3.3-.6a18.6,18.6,0,0,0-3.3-.4c-19.3.2-38.6.7-57.9.7-1.9.1-3.8-1.9-5.8-2.9,1.7-1.3,3.1-3.6,4.9-3.9C662.9.9,691.3-2.6,719.7-6.2l2.8-.4a9.4,9.4,0,0,0-2.9-.6c-35.7,2-71.5,3.8-107.2,6.2-8.8.6-17.5,3.3-26.2,5l25.3-9.6c1.4-.5,2.8-.8,4.2-1.2-1.6-.1-3.2-.4-4.8-.4C508.3-3.9,405.7.3,303.1,2.5S95.3,4.8-8.6,5.8l-6.9.3c2.3.6,4.7,1.5,7.1,1.6C121.7,14.1,251.9,22.3,382.1,26c80.8,2.4,161.7-1.9,242.5-3.2.8.6,1.6,1.9,2.4,1.9,43.9-1.3,87.8-1.7,131.7-4.2,29.1-1.7,58-6.1,87-9.9,5.6-.8,10.9-4.6,16.4-7H845.6l-14.9.5a15.5,15.5,0,0,1-3.7-.4c1.2-.3,2.3-.8,3.4-1l33.4-6.1-3,17.9c-6.1,1.1-12.2,2.7-18.4,3.1L584.2,35.8,514,38l-27.8,1.9a8.6,8.6,0,0,0-2.1.7c.5.4,1,1,1.5,1l49-2.1h8.8L684.1,38l7.7.3L689.6,40c-3.7.7-7.5,1.9-11.2,2L495.9,46l-15.5.3L330.5,48.8a6,6,0,0,1-2-.7,13.8,13.8,0,0,1,2-.3l83.4-4.3c1.9-.1,3.7-1,5.6-1.6-.9-.3-1.7-1-2.5-1L284.2,42.8a5.8,5.8,0,0,0-1.7.6,7.2,7.2,0,0,0,1.9.4h46.5a11,11,0,0,1,3.4,1c-.8.5-1.6,1.3-2.5,1.3-19,1.3-37.9,3-56.9,3.6-21.1.8-42.2.7-63.3,1L49.8,49.9,5.9,52l-21.3,1.2L5.1,54c.8.1,1.6,1.1,2.3,1.6H.5L-33,56.9V44.8l152.8,1.6,177.2-8.5a23.2,23.2,0,0,0,3.8-.7,19.3,19.3,0,0,0-4.1-1.2c-40.2-2.1-80.4-3.7-120.6-6.3C113.1,25.7,50.1,21.1-13,16.6a23.3,23.3,0,0,1-5.6-1.5l1.9-.3,30.6-.5-30.5-4.1c-5-.7-9.9-1.6-14.8-2.4-4.4-14-.6-23,15.4-22.9,66.9.1,133.8,1.9,200.7.7q276.5-4.9,553-12.2C778.7-27.7,819.6-31.6,860.6-34.2Z"/><path class="a" d="M435.4,39.5c0-.9.1-1.8.1-2.7h37.9a8.3,8.3,0,0,0,2.1-.6,5.8,5.8,0,0,0-1.4-.3L225.3,26.8a16.2,16.2,0,0,0-1.9.4,19.5,19.5,0,0,0,2.3.6Z"/><path class="a" d="M626.9,31.5l.2,2.5L765.7,22.8a12.9,12.9,0,0,0,1.9-.4,7.6,7.6,0,0,0-2-.6c-46,1.4-92.1,2.5-138.2,4.3-9,.4-18,3.6-26.9,5.4Z"/><path class="a" d="M310.9.8V-6.3H500.6c1.3,0,2.6-.3,3.9-.4-1.4-.1-2.8-.4-4.3-.4l-274.6,5L147.7-.4a6.8,6.8,0,0,0-2.3.7,10.6,10.6,0,0,0,2.3.5Z"/><path class="a" d="M723.4,4.8a7.6,7.6,0,0,1-.1-1.5l-76.6,5a28.6,28.6,0,0,0-4.2,1,30.1,30.1,0,0,0,4.2.5l126.7-4,2.3-.5a10.3,10.3,0,0,0-2.4-.5Z"/><path class="a" d="M581.3,32.9l22.4-5.6-21.5.5c-1,0-2-.1-3,0l-17,2.2Z"/><path class="a" d="M17.5,3.5V2.4H46.5C36.6,1.9,26.8,1.1,16.9.9s-21.6.1-32.4.2Z"/><path class="a" d="M619.4,25.1H619v.6h.4Z"/><path class="b" d="M554.6,239.8c-42.5-.8-85-2-127.5-2.2-113.6-.6-227.2-.7-340.8-1a9.2,9.2,0,0,1-2.7-.8,44.5,44.5,0,0,1,7.2-1c36.9-.8,73.9,0,110.6-2.5,51.6-3.6,103-9.5,154.5-14.7,13.6-1.3,27.1-3.9,40.7-5.9,2.8.6,5.5,1.9,8.2,1.8,9.4-.7,18.7-1.7,28-2.9,3.4-.4,6.7-1.5,10-2.2l-9.1-.5-78-4.1c-3.9-.2-7.9-.8-11.8-1.2l11.7-.8,67.7-2.7c75.2,1.2,150.4,2.2,225.6,4.1,8.7.2,17.3,5.4,25.9,8.3a53.1,53.1,0,0,1-6.9.3l-26.5-2.6,23.8,7.5,3.9,1.1h.1l4.4,1.1h-.1l3,.2,2,.6c-.9.8-1.7,2.2-2.7,2.2L534.3,227a11.8,11.8,0,0,0-3.4,1c1.1.1,2.2.4,3.3.4l163.4-4.6,45.1,6,5,1.6-6.4,1.2-2.8.5c.3.2.6.7.9.6l70.1-4.8c9.6-2.4,19.3-4.4,28.7-7.4,6-1.9,11.7-5.2,17.5-8l-14.2-2.9,12.5-7.9,3.2-2.2a6,6,0,0,0-1.5-.9c-8.1-1.5-16.1-3.7-24.3-4.4s-19.2-.3-28.8-.4a7.9,7.9,0,0,1-2.2-.6c.6-.3,1.1-.9,1.6-.9l51.3-5.7,2.4,2.3c.3.7,1,1.5.9,2.3-.7,8.4,0,23.4-2.6,24.1-35,8.5-70.2,17.1-105.8,21.3-31.2,3.6-63.1,1.7-94.6,2.2h-99Z"/><path class="b" d="M482,204.8l11.6-1.5a24.5,24.5,0,0,0-3.8-.4l-10.3,1.3Z"/><path class="b" d="M450.5,207.4l-.2-.3h-.4l.2.5Z"/><path class="b" d="M624.6,22.8c-80.8,1.3-161.7,5.6-242.5,3.2C251.9,22.3,121.7,14.1-8.4,7.7c-2.4-.1-4.8-1-7.1-1.6l6.9-.3c103.9-1,207.8-1.2,311.7-3.3S508.3-3.9,610.9-7.2c1.6,0,3.2.3,4.8.4-1.4.4-2.8.7-4.2,1.2L586.2,4c8.7-1.7,17.4-4.4,26.2-5,35.7-2.4,71.5-4.2,107.2-6.2a9.4,9.4,0,0,1,2.9.6l-2.8.4C691.3-2.6,662.9.9,634.6,4.7c-1.8.3-3.2,2.6-4.9,3.9,2,1,3.9,3,5.8,2.9,19.3,0,38.6-.5,57.9-.7a18.6,18.6,0,0,1,3.3.4l-3.3.6-68.8,11Z"/><path class="b" d="M211.6,50.7c21.1-.3,42.2-.2,63.3-1,19-.6,37.9-2.3,56.9-3.6.9,0,1.7-.8,2.5-1.3a11,11,0,0,0-3.4-1H284.4a7.2,7.2,0,0,1-1.9-.4,5.8,5.8,0,0,1,1.7-.6L417,40.9c.8,0,1.6.7,2.5,1-1.9.6-3.7,1.5-5.6,1.6l-83.4,4.3a13.8,13.8,0,0,0-2,.3,6,6,0,0,0,2,.7l149.9-2.5,15.5-.3c25.5-.3,51.1-.7,76.7-.7,16.3-.1,32.7.3,49,.4l-51.2,3-74.8,3.1c-5.5,1-10.9,2.4-16.4,2.9-17.5,1.9-35.1,3.4-52.6,5.1-2.9-.3-5.9-1.1-8.8-.8-28,2.5-56.1,5.2-84.1,8-1.9.1-3.7,1.2-5.5,1.9l4.4,2.1-9.1,3.1c-1.4.4-3,.4-4.4.9a19.2,19.2,0,0,0-3.1,1.8l56.4-3.7,91.4,4.8c.8.1,1.5.9,2.3,1.4a13.4,13.4,0,0,1-3.6,1.4L302,98.6a8.1,8.1,0,0,1-2.5-.8l1.6-1.1H301l3.6-1.5,2.1-.4,1.9-.2a83.6,83.6,0,0,0,8.5-1.4c.7-.2,1-1.8,1.5-2.7-22.5-1.3-45-2.4-67.5-3.9-16.5-1-33-2.5-49.5-3.8L310,71.7c4.7-.5,9.3-1.6,13.9-2.5l-13.4.5-17.4.2c-5.2,0-10.3.2-15.4.3l15.1.5,3.9.5c-.2.2-.5.5-.7.5l-60.5-1H207.4c-2.4-.6-4.7-1.7-7.1-1.7-14.1-.2-28.3-.2-42.5-.3L88.4,62.1c34.4-.7,68.8-1.7,103.2-2.2,41-.6,81.9-.8,122.9-1.2a17.6,17.6,0,0,0,3.7-.8c-1.2-.3-2.3-1-3.4-1L211.5,51.7C211.5,51.3,211.6,51,211.6,50.7Z"/><path class="b" d="M415.7,48.4l-22.4,1.1a4.5,4.5,0,0,0-1.8.7c.3.1.7.5,1,.5l78.6,3a7,7,0,0,0,1.4-.3,4.9,4.9,0,0,0-1.6-.5Z"/><path class="b" d="M343.7,76.6l-14.2.7,21.2.5,7.8-.3C353.6,77.2,348.7,76.8,343.7,76.6Z"/><path class="c" d="M207.4,70.6h28.1l60.5,1c.2,0,.5-.3.7-.5l-3.9-.5-15.1-.5c5.1-.1,10.2-.3,15.4-.3l17.4-.2,13.4-.5c-4.6.9-9.2,2-13.9,2.5L201.6,82.9c-3.2,0-6.3-.2-9.4,0-8.4.4-16.7,1-25.1,1.5l14.4,2.4L170.4,88l-10.6.5c-1-.6-1.9-1.5-2.9-1.6-30.3-2.1-60.6-4.1-90.8-6.3-7-.5-13.9-1.7-20.8-2.6L-31.8,67.8c-.2-2.7-.3-5.3-.4-8,7.8.3,15.6,1.1,23.4.7,3.2-.2,6.2-3.2,9.3-4.9H7.4l5.2.2,75.8,6.3,69.4,6.5Z"/><path class="c" d="M80.2,81.6l-4.8.6a22.5,22.5,0,0,0,3.6.6,50.5,50.5,0,0,0,5.6-.6Z"/><path class="c" d="M-32.1,15.7c.2-2.6.5-5.2.7-7.9,4.9.8,9.8,1.7,14.8,2.4l30.5,4.1-30.6.5-1.9.3A23.3,23.3,0,0,0-13,16.6c63.1,4.5,126.1,9.1,189.2,13.1,40.2,2.6,80.4,4.2,120.6,6.3a19.3,19.3,0,0,1,4.1,1.2,23.2,23.2,0,0,1-3.8.7L119.9,46.4c-5.1-.7-10.1-1.1-15.1-2.1Z"/><path class="b" d="M864.8-8.2c-.4,1.6-.7,3.3-1,4.9L830.4,2.8c-1.1.2-2.2.7-3.4,1a15.5,15.5,0,0,0,3.7.4l14.9-.5h16.5c-5.5,2.4-10.8,6.2-16.4,7-29,3.8-57.9,8.2-87,9.9C714.8,23,670.9,23.4,627,24.7c-.8,0-1.6-1.3-2.4-1.9h0L800.1,5.3A81.3,81.3,0,0,0,808.5,4c-3.2-.4-6.5-1.2-9.7-1.2l-148.9,2-3.4-.3a15,15,0,0,1,3.4-1.1L838.2-12.2c5.3-.4,10.6-.7,16-.9,2.6-.1,5.2.2,7.9.3L857-8.9c1.1.5,2.2,1.4,3.4,1.4A17.5,17.5,0,0,0,864.8-8.2Z"/><path class="b" d="M869.5,34.8c-1.2,7.5-2.2,15-3.9,22.4-.7,2.8-3,5.3-4.6,7.9l-1.6-.5L829,62.7a17.3,17.3,0,0,1-4.4-1.4,29.6,29.6,0,0,1,4.2-1.4c8.2-.7,16.5-1.3,24.7-2.1,1.5-.1,2.9-1.1,4.4-1.6l-17.3-.4-6.1-.6,5.9-.4,17.2-1.4c-4.4-.4-8.8-.7-13.2-1.3-.7,0-1.2-1-1.9-1.6,6-3,11.9-5.9,17.8-9a7.3,7.3,0,0,0,1.9-2,7,7,0,0,0-1.7-.6c-14.1,0-28.2-1.1-42,.4-33.6,3.5-67,8.2-100.5,12.4-1.8.2-3.7-.3-5.6-.4a44.8,44.8,0,0,1,5.2-1.6l46-9.9h0l67.2-11.1a3.8,3.8,0,0,0,1.5-.9c-.8-.3-1.6-1-2.4-.9L720.7,38.7,689.6,40l2.2-1.7-7.7-.3L543.4,39.5l40.8-3.7L842.4,17.7c6.2-.4,12.3-2,18.4-3.1l7,8.1-9.6,11.9,10.2-.7h.1Z"/><path class="b" d="M844.8,32.8l-2.6,1.5a5.7,5.7,0,0,0,1.8.3,20,20,0,0,0,2.1-1Z"/><path class="b" d="M829.2,37.5l.3-.2-.3-.3-.4.4Z"/><path class="b" d="M833.8,36.1c0,.1-.1.2-.1.3l.4.2.2-.5Z"/><path class="b" d="M435.4,39.5,225.7,27.8a19.5,19.5,0,0,1-2.3-.6,16.2,16.2,0,0,1,1.9-.4l248.8,9.1a5.8,5.8,0,0,1,1.4.3,8.3,8.3,0,0,1-2.1.6H435.5C435.5,37.7,435.4,38.6,435.4,39.5Z"/><path class="b" d="M-32.1,15.7,104.8,44.3c5,1,10,1.4,15.1,2.1L-32.9,44.8C-32.7,35.1-32.4,25.4-32.1,15.7Z"/><path class="b" d="M-18.4,25.9-28.9,37c3.6,1,7.2,2.6,10.9,2.8,10.7.6,21.5.6,32.3.8a12.8,12.8,0,0,0,3.2-.6c-.5-.7-.9-1.8-1.6-2Z"/><path class="b" d="M626.9,31.5H600.5c8.9-1.8,17.9-5,26.9-5.4,46.1-1.8,92.2-2.9,138.2-4.3a7.6,7.6,0,0,1,2,.6,12.9,12.9,0,0,1-1.9.4L627.1,34Z"/><path class="b" d="M310.9.8H147.7a10.6,10.6,0,0,1-2.3-.5,6.8,6.8,0,0,1,2.3-.7l77.9-1.7,274.6-5c1.5,0,2.9.3,4.3.4-1.3.1-2.6.4-3.9.4H310.9Z"/><path class="b" d="M12.6,55.8l-5.2-.2c-.7-.5-1.5-1.5-2.3-1.6l-20.5-.8L5.9,52l43.9-2.1a58.1,58.1,0,0,0,5.8.9l138.2,1.1,19.3.9,4.4.4a34.7,34.7,0,0,1-4.5.6c-30.6,0-61.3-.1-91.9.1-1.2,0-2.3,3.1-3.4,3.1Z"/><path class="c" d="M689.6,40l31.1-1.3,2.1,2c-1.3.3-2.6,1-3.9,1l-97.3,4c-16.3-.1-32.7-.5-49-.4-25.6,0-51.2.4-76.7.7l182.5-4C682.1,41.9,685.9,40.7,689.6,40Z"/><path class="b" d="M723.4,4.8h49.9a10.3,10.3,0,0,1,2.4.5l-2.3.5-126.7,4a30.1,30.1,0,0,1-4.2-.5,28.6,28.6,0,0,1,4.2-1l76.6-5A7.6,7.6,0,0,0,723.4,4.8Z"/><path class="c" d="M584.2,35.8l-40.8,3.7h-8.8L514,38Z"/><path class="b" d="M.5,55.6c-3.1,1.7-6.1,4.7-9.3,4.9-7.8.4-15.6-.4-23.4-.7-.3-.9-.5-1.9-.8-2.9Z"/><path class="c" d="M193.8,51.9,55.6,50.8a58.1,58.1,0,0,1-5.8-.9l161.8.8c0,.3-.1.6-.1,1Z"/><path class="b" d="M581.3,32.9,562.2,30l17-2.2c1-.1,2,0,3,0l21.5-.5Z"/><path class="b" d="M17.5,3.5l-33-2.4C-4.7,1,6.1.7,16.9.9s19.7,1,29.6,1.5H17.6Z"/><path class="b" d="M514,38l20.6,1.5-49,2.1c-.5,0-1-.6-1.5-1a8.6,8.6,0,0,1,2.1-.7Z"/><path class="b" d="M619.4,25.1v.4H619V25Z"/><path class="c" d="M865.4,167.8l-3.9,14-8.2,5.8L802,193.3c-.5,0-1,.6-1.6.9a7.9,7.9,0,0,0,2.2.6c9.6.1,19.2-.4,28.8.4s16.2,2.9,24.3,4.4a6,6,0,0,1,1.5.9l-3.2,2.2-12.5,7.9-15.7,5.6-2.5,1.3-3.5.8-5.5,2.1-6.7,1.4-2,.4-1.8.2-2.5,1-2.7.3-3.3.7-2.7.4-3.3.6-4.7.4-4,.3h-33l-4-.3-5.8-.4-3.4-1-3.9-.2-2.9-.5-2.8-.3-3.2-.7-2.8-.3-2.5-1-41.5-9.9c-8.6-2.9-17.2-8.1-25.9-8.3-75.2-1.9-150.4-2.9-225.6-4.1l-13.7-.3-35.4-1.6-115.6-5.4c6.1-.7,12.2-1.2,18.2-2.1,2.9-.5,5.6-1.9,8.4-2.9a14.5,14.5,0,0,0-4.6-.9l-83.1,2-71.4-3.2c-4.3-.2-8.5-1-12.7-1.6,4.3-.8,8.7-2.3,13.1-2.5l220.6-8.5a30.6,30.6,0,0,0,4.1-1,22.2,22.2,0,0,0-4.3-.6l-174,2.5-9.9-.3,5.8-2.8c.2-.1.2-.5.3-.8s-2.3-.2-3.4-.1l-54.9,5.6c-1.2-1-2.4-2.8-3.6-2.8l-31.5,2.1,28.9-5.3a38.1,38.1,0,0,0,4.4-1.5c-1.7-.4-3.5-1.2-5.1-1.1L-5.3,174.1l-30,1.7,2.6-3.2,35.6-1.5,11.8-.8-11-1.4,77-5.1,1.9-1,89.1-6.1c1.4-.1,2.7-.9,4.1-1.4a23.5,23.5,0,0,0-3.7-.5l-41.3-.5-69.9.5c-4.8,0-9.6.4-14.4.6L61,158.8a37.5,37.5,0,0,1,4.7,1.7l-1.9.2L-24.7,151l-9.9-2c-.2-7.4-.5-14.8-.7-22.2,9.4,4.7,18.6,12.3,28.4,13.4,20.7,2.3,41.7,1.4,62.6,1.5,7.7,0,15.4-.7,23.1-1.1L57,138.7l-7.4-.9L-7,130a18.6,18.6,0,0,1-4.5-1.6,23.2,23.2,0,0,1,4.6-.6l119.7,6.9h35.9l92.9,2.2,22.2.4c-7.1,2-14.3,3.8-21.4,5.9-1.5.4-2.7,1.6-4.1,2.4l4.3-.4,18.2-1.9L246,148.4c-.2,0-.3.2-.4.3l-31.4,8.1c-.8.2-1.4,1.1-2.1,1.7,1,.4,2.1,1.3,3,1.1l44.5-10.8h-.1l2.1-1,81-17,8.8-.5,3.2-.6,6.8-.4,3.2-.6,5.8-.3,56.2-3.4H479c46.6,10.4,93.1,20.7,139.6,31.2,5.6,1.3,11.1,3,16.7,4.5-2.4,1.4-4.7,3.8-7.2,4-14.3,1.1-28.6,1.7-42.9,2.4-2.6-.2-5.3-.9-7.9-.7L360.7,181.9c-1.3.1-2.5.6-3.7.8,1.1.6,2.2,1.8,3.3,1.7,10.7-.4,21.5-1,32.2-1.6l294.3-8.2,22.8,1.2,135.2-2.2.8-.8h-.1l2.1-1.1h8.5l-2.3-3,.7-1.5h-5.7l-2.2.7h-3.9l-69.1-4.2a16.7,16.7,0,0,1-3-.8l3.4-.3,65.8.6h1.5l8.4.3h2.8Z"/><path class="c" d="M74.8,152.7v-2.9H206.6a15.9,15.9,0,0,0,3-.6,10.6,10.6,0,0,0-1.9-.4l-188.8-1a11.1,11.1,0,0,0-3.1.9,11.5,11.5,0,0,0,2.9,1.1Z"/><path class="c" d="M13.8,144.8c-4.6-1.5-1.8-.6,1,.3-.9.7-1.9,1.9-2.6,1.8l-41.7-6.8c-1.2-.2-2.4-.7-3.7-1,0,1.3-.6,2.8-.1,3.8a4.3,4.3,0,0,0,3.3,1.8C-17.9,144.9-5.9,144.8,13.8,144.8Z"/><path class="c" d="M375.9,169.7c-6.6,0-8.5-.4-10.2.1s-5.2,1.9-7.9,2.9l29-2.4Z"/><path class="a" d="M110.8,174.6l54.9-5.6c1.1-.1,2.3.1,3.4.1s-.1.7-.3.8l-5.8,2.8,9.9.3,174-2.5a22.2,22.2,0,0,1,4.3.6,30.6,30.6,0,0,1-4.1,1l-220.6,8.5c-4.4.2-8.8,1.7-13.1,2.5,4.2.6,8.4,1.4,12.7,1.6l71.4,3.2a48.9,48.9,0,0,1-5.3.9l-149.9,2a24.7,24.7,0,0,0-3.8.5,23.5,23.5,0,0,0,3.7.5c18.3.7,36.6,2.2,54.9,1.9,51.2-.9,102.4-2.5,153.5-3.8a26.9,26.9,0,0,1,4,.3c-.2.1-.5.4-.7.4l-7.2.9,11.9.3,115.6,5.4-32.7,2.6-1.9.3c.3.3.7.7,1,.7l69-2,13.7.3-67.7,2.7-11.7.8c3.9.4,7.9,1,11.8,1.2l78,4.1L90.7,210l-105.8,3.8a7,7,0,0,0-1.7.6c1,.7,2,1.9,3.1,2.1,28.1,5.2,56.3,14.4,84.5,14.4,62.8.1,125.6-3.8,188.3-7.5,31.3-1.8,62.3-6.5,93.5-9.9l9.7-.2,2.3-.6,32-1c-13.6,2-27.1,4.6-40.7,5.9-51.5,5.2-102.9,11.1-154.5,14.7-36.7,2.5-73.7,1.7-110.6,2.5a44.5,44.5,0,0,0-7.2,1l-63-5L9.4,227.9l-15.8-3.7-18.2-6.3-9,3.9c-.6-12.7-1.1-25.4-1.7-38.1,3.2-.9,6.4-2.8,9.6-2.8,38.9.8,77.8,1.9,116.7,2.6,4.2.1,8.4-1.7,12.6-2.6a114,114,0,0,0-11.5-1c-17.1-.2-34.2-.2-51.3-.2a8,8,0,0,1-2.1-.5,13.8,13.8,0,0,1,2-.3Z"/><path class="a" d="M14.7,183.7l-3.3-.7c0,.2,0,.7.1.7l3,.2c-10.1.1-20.1.1-30.1.4-1.3,0-2.5,1.8-3.7,2.7,1.1.7,2.2,2,3.3,2,9.9-.2,19.7-.7,29.6-1,4.8-.2,9.6,0,14.4,0Z"/><path class="a" d="M-17.4,208c37-3.2,69.6-6,102.3-9,3.9-.3,7.7-1.6,11.5-2.5-4.2-.6-8.4-1.7-12.6-1.7-30.6,0-61.3,0-91.9.4-7.6.1-15.1,1.6-22.7,2.5Z"/><path class="a" d="M186,206.3v-2.5h21.5c.9,0,1.8-.7,2.8-1.1a9.2,9.2,0,0,0-2.7-.8L39,204.8a5.8,5.8,0,0,0-2.2.8,6.2,6.2,0,0,0,1.9.7Z"/><path class="a" d="M14.2,207.8v.5H-15.5l30.4,2.5a25.3,25.3,0,0,0,5.5,0l23.2-2.4-21.9-.6C19.2,207.7,16.7,207.8,14.2,207.8Z"/><path class="a" d="M27.7,205.6l-3.2.8a27,27,0,0,0,2.8.4l3.4-.6Z"/><path class="b" d="M-35.3,120.8c3.5-10.7,7.1-21.4,10.6-32.1,1.8-.2,3.7-.9,5.4-.6,8,1.5,15.9,3.3,23.9,5l-17.8,1.5c-3.4.3-6.9.7-10.3,1.2a14.4,14.4,0,0,0-3.2,1.3,23.7,23.7,0,0,0,3.4.8l75.9.8c-25.6,1-51.3,1.9-77,3.3-2.9.2-5.5,3.9-8.3,6,2.6,1.6,5.1,4.4,7.9,4.6,19.8,1.7,39.7,2.9,59.6,4.3,14.9.3,29.8,1.3,44.6.6,23.3-1.1,46.6-3.5,69.9-5.4a27.2,27.2,0,0,0,4.9.5c4.2-.2,8.4-.7,12.5-1-1.5-1.2-2.8-2.9-4.5-3.3-9.9-2.1-19.8-3.9-29.7-5.8l66.1,2.3h0l23.2-3.8c1.5.8,3.1,2.4,4.6,2.3,19.3-1.1,38.7-2.5,58.1-3.8-18.7,2.5-37.3,6.5-56.1,7.3-85.8,3.9-171.6,6.8-257.5,10.1-1,.1-2.1.5-3.1.7l2.1,2.7Z"/><path class="b" d="M45.3,78c6.9.9,13.8,2.1,20.8,2.6,30.2,2.2,60.5,4.2,90.8,6.3,1,.1,1.9,1,2.9,1.6L33.2,83.9c-1.7-.1-3.3.8-5,1.2,1.7.9,3.5,2.5,5.3,2.6C55.2,88.9,77,89.9,98.7,91L161,98.7l2.8.7a10,10,0,0,1-2.4.4C111.8,97,62.2,94.3,12.6,91c-15.1-1-30.1-4-45.1-6-.6-4.1-1.1-8.1-1.7-12.2Z"/><path class="c" d="M-32.5,85c15,2,30,5,45.1,6,49.6,3.3,99.2,6,148.8,8.8a10,10,0,0,0,2.4-.4l-2.8-.7L98.7,91q60.7,1.9,121.5,4.1c3.7.1,7.3,1.1,11,1.7l-9.4,4.2-23.2,3.8h0l-66.1-2.3L52.6,98.7l-75.9-.8a23.7,23.7,0,0,1-3.4-.8,14.4,14.4,0,0,1,3.2-1.3c3.4-.5,6.9-.9,10.3-1.2L4.6,93.1c-8-1.7-15.9-3.5-23.9-5-1.7-.3-3.6.4-5.4.6Z"/><path class="b" d="M110.8,174.6l-70.1,4.3a13.8,13.8,0,0,0-2,.3,8,8,0,0,0,2.1.5c17.1,0,34.2,0,51.3.2a114,114,0,0,1,11.5,1c-4.2.9-8.4,2.7-12.6,2.6-38.9-.7-77.8-1.8-116.7-2.6-3.2,0-6.4,1.9-9.6,2.8v-7.9l30-1.7c1,1.2,2.1,3.5,3.1,3.5,26-1.1,51.9-2.4,77.9-3.7l31.5-2.1C108.4,171.8,109.6,173.6,110.8,174.6Z"/><path class="a" d="M-35.3,120.8l5.2-.5,1,.3-1.7,4.7,80.4,12.5,7.4.9,21.8,1.9c-7.7.4-15.4,1.1-23.1,1.1-20.9-.1-41.9.8-62.6-1.5-9.8-1.1-19-8.7-28.4-13.4Z"/><path class="a" d="M45.3,78l-79.5-5.2,2.4-5Z"/><path class="a" d="M80.7,163.8l-77,5.1-39-10.1c.2-3.3.5-6.6.7-9.8l9.9,2-6.3,2.6c2,1.9,3.9,5.1,6.1,5.3,20.8,2.4,41.6,5,62.5,6.2C51.9,165.8,66.3,164.3,80.7,163.8Z"/><path class="b" d="M-35.3,158.8l39,10.1,11,1.4-11.8.8-35.6,1.5C-33.6,168-34.4,163.4-35.3,158.8Z"/><path class="c" d="M-6.4,224.2l15.8,3.7-37.7,3.6c-.4,0-1-1.8-1.5-2.8l4.4-1.8-8.8-1.2.6-3.9,9-3.9c-1.2.9-2.6,1.6-3.4,2.7s-.1,3,0,3C-20.8,223.9-13.6,224-6.4,224.2Z"/><path class="a" d="M819.8,218.3l3.5-.8,2.5-1.3,15.7-5.6,14.2,2.9c-5.8,2.8-11.5,6.1-17.5,8-9.4,3-19.1,5-28.7,7.4l-66.8.9-45.1-6-19.1-4.3-2-.6-3-.2h.1l-4.4-1.1h-.1l-3.9-1.1-23.8-7.5,26.5,2.6a53.1,53.1,0,0,0,6.9-.3l41.5,9.9,2.5,1,2.8.3,3.2.7,2.8.3,2.9.5,3.9.2,3.4,1,5.8.4,4,.3h33l4-.3,4.7-.4,3.3-.6,2.7-.4,3.3-.7,2.7-.3,2.5-1,1.8-.2,2-.4,6.7-1.4Z"/><path class="c" d="M396.6,211.7l-32,1-2.3.6-9.7.2c-2.4-.2-4.9-.8-7.3-.8-76.1.3-152.3.8-228.4.8-8.7,0-17.4-2.3-26.2-3.5l343-2.1,9.1.5c-3.3.7-6.6,1.8-10,2.2-9.3,1.2-18.6,2.2-28,2.9C402.1,213.6,399.4,212.3,396.6,211.7Z"/><path class="c" d="M678.5,219.5l19.1,4.3-163.4,4.6c-1.1,0-2.2-.3-3.3-.4a11.8,11.8,0,0,1,3.4-1l141.5-5.3C676.8,221.7,677.6,220.3,678.5,219.5Z"/><path class="c" d="M482,204.8l-2.5-.6,10.3-1.3a24.5,24.5,0,0,1,3.8.4Z"/><path class="c" d="M669.2,217.7l4.4,1.1Z"/><path class="c" d="M665.2,216.7l3.9,1.1Z"/><path class="c" d="M673.5,218.7l3,.2Z"/><path class="c" d="M450.5,207.4l-.4.2-.2-.5h.4Z"/><path class="c" d="M-29.1,120.6l-1-.3-2.1-2.7c1-.2,2.1-.6,3.1-.7,85.9-3.3,171.7-6.2,257.5-10.1,18.8-.8,37.4-4.8,56.1-7.3h1.9l2.2-.8h1.9l1-.8,9.6-1-1.6,1.1a8.1,8.1,0,0,0,2.5.8L462.5,80.7a13.4,13.4,0,0,0,3.6-1.4c-.8-.5-1.5-1.3-2.3-1.4l-91.4-4.8-7.7.5-21.2-2.7H332.6l-4.4-2.1c1.8-.7,3.6-1.8,5.5-1.9,28-2.8,56.1-5.5,84.1-8,2.9-.3,5.9.5,8.8.8,78.2,1.9,156.4,6.3,234.6,5,60.5-1,120.9-9.2,181.3-14.3.7.6,1.2,1.6,1.9,1.6,4.4.6,8.8.9,13.2,1.3l-17.2,1.4-5.9.4,6.1.6,17.3.4c-1.5.5-2.9,1.5-4.4,1.6-8.2.8-16.5,1.4-24.7,2.1a29.6,29.6,0,0,0-4.2,1.4,17.3,17.3,0,0,0,4.4,1.4l30.4,1.9-9.6,1.5c-24.1,1.7-48.1,3.7-72.1,5.2-11.1.6-22.3-.3-33.4.8-8,.7-15.9,3.5-23.8,5.4-.7.2-1.2.9-1.8,1.3h1.9l102.3-.5,43.8,1.2v5c-.4.7-.7,1.4-1.1,2.2h0a14.8,14.8,0,0,0-.1-2.1l-6.9-.9-13.3,2.6-16.7,1.4L738.2,97l-34.7,6.2c-.5.1-1,.8-1.4,1.2a19.3,19.3,0,0,0,2.4.1l99.8-8.9,52.1-2.7.9.3,4.9,2.8.3,1.7-37.9,3.1-19,.9-115.2,5.6-36.6,1.9c-4.5.3-9.1,1.5-13.5.9-40.9-5.6-81.8-11.5-122.7-17.3l-11-.5,1.3.4,4.2.6c-1.7.8-3.3,2.4-5,2.4-10.6.4-21.2.4-31.8.6-.7,0-1.4.6-2.2.9l1.7.5,86.8,14.1,1.4,2a18.7,18.7,0,0,1-2.5.4l-26.8-1.3c-14-1.1-28-2.6-42.1-3.2-20-.9-40-1.3-60-1.8,5-1.3,10-2.4,14.9-4.1,2.9-1,5.5-3,8.3-4.6,0,0-.7-1.5-.9-1.5l-64.2,13.2h-1.2l-9,3.8c-20.2,3.6-40.4,9.2-60.8,10.3-44.4,2.5-88.9,2.8-133.3,3.9l-31.6.4-10.5-.5Z"/><path class="c" d="M842.2,81.4l-7.9,1.1c1.8.7,3.7,2.1,5.4,2,3.4-.3,6.7-1.4,10.1-2.1Z"/><path class="c" d="M758,70.6c-.3-.3-.4-.7-.6-.7h-1.9c.2.2.3.7.5.7A7,7,0,0,0,758,70.6Z"/><path class="b" d="M690.4,107.3l115.2-5.6-3,2.2a16.1,16.1,0,0,0,3.5,1.2c13.6,1.3,27.2,1.9,40.6,4.2,2.9.5,4.9,7,7.3,10.8a1.6,1.6,0,0,1-.9-.3c-28.5,2.9-57.1,5.8-85.6,8.5-4.9.5-9.9.2-14.8.3,5.2,1.1,10.4,2.6,15.7,3.2,21.7,2.3,43.5,4.4,65.2,6.6l31,.3a13.6,13.6,0,0,0,.2,2c-3,3.1-5.6,8.5-9,9-7.1.9-14.6-.2-21.8-1.3Q683.6,124.3,533.1,99.6c-5.4-.9-10.4-4.5-15.5-6.8,40.9,5.8,81.8,11.7,122.7,17.3,4.4.6,9-.6,13.5-.9.7,1.5,1.3,4.2,2.3,4.4,20.7,3.8,41.5,7.3,62.4,10.7,1.1.2,2.4-1.1,3.7-1.7l-2.6-1.8h0c-4.8-.3-9.7-.4-14.4-1.1-8.3-1.2-16.6-2.7-24.8-4.1l-16.7-2.7c1-.4,1.9-1.1,2.9-1.1,16.8-.8,33.5-1.4,50.3-2a17.2,17.2,0,0,1,3.9.4l-3.7.8c-2.8.4-5.7.6-8.5.9a7.8,7.8,0,0,0-.3,1.4l72.9-6.3c1.1-.1,2.1-1.1,3.2-1.7-1-.4-2.1-1.3-3-1.2-10.1.7-20.2,2-30.3,2.3C730.9,106.9,710.6,107,690.4,107.3Z"/><path class="b" d="M750.7,127.5c-.9-.7-1.6-1.4-1.8-1.3a16.6,16.6,0,0,0-2.1,1.6c.4.3,1,.9,1.4.8A6.3,6.3,0,0,0,750.7,127.5Z"/><path class="a" d="M517.6,92.8c5.1,2.3,10.1,5.9,15.5,6.8Q683.6,124.4,834,148.4c7.2,1.1,14.7,2.2,21.8,1.3,3.4-.5,6-5.9,9-9,.5,7.3,1.1,14.7,1.7,22.1l-14,.8h-2.8c-1.8-1.3-3.4-2.8-5.4-3.6-.5-.2-1.9,2.1-3,3.3h-1.5c-8.7-1-17.4-2.3-26.2-3.1l-119-11.5a88.5,88.5,0,0,0,8.8,1.2l149,3.6c1.4,0,2.8-.8,4.2-1.2l-3.9-.7c-23.1-2.8-46.3-4.9-69.2-8.7-74.7-12.1-149.2-24.8-223.8-37.3l-2.2-.7-.3.5,2.2.5,19.2,6.8h0c-2.8-.6-5.5-1-8.2-1.7-5.1-1.2-10.2-2.6-15.3-3.9l6.5,4.6h0L474.8,97.7l-1.7-.5c.8-.3,1.5-.9,2.2-.9,10.6-.2,21.2-.2,31.8-.6,1.7,0,3.3-1.6,5-2.4l-4.2-.6-1.3-.4Z"/><path class="a" d="M854,120.1c-2.4-3.8-4.4-10.3-7.3-10.8-13.4-2.3-27-2.9-40.6-4.2a16.1,16.1,0,0,1-3.5-1.2l3-2.2,19-.9c-.1.9-.3,1.9-.5,2.9h35.5l.6,1.1.5-.5-1.1-.6c1-2,1.9-4.1,2.9-6.1l-.3-1.7.9-4-5.8,1.2-.9-.3c-3.1-1.7-6.1-4.4-9.3-4.9-6.1-.8-12.3-.2-18.5-.2l16.7-1.4,20.3.4h0v5c.7,6,1.4,12,2,17.9a45.4,45.4,0,0,0-3.8,3.8c-1.4,1.7-2,4.2-3.6,5.2S856.1,119.7,854,120.1Z"/><path class="c" d="M854,120.1c2.1-.4,4.6-.2,6.2-1.4s2.2-3.5,3.6-5.2a45.4,45.4,0,0,1,3.8-3.8c-.8,3.1-1.5,6.1-2.5,9.1s-1.8,3.4-2.5,5.2-3.2,6.4-3.2,9.7c-.1,1.6,3.3,3.4,5.2,5l-31-.3h-2.8V137l8.7-5.2-6.9-.7c3-.9,6.4-1.2,9-2.8,4.1-2.4,7.7-5.6,11.5-8.5A1.6,1.6,0,0,0,854,120.1Z"/><path class="a" d="M849.8,66.1l9.6-1.5,1.6.5-3.3,2.3-5.4,2.5c-3.1,1.5-6.3,2.9-9.4,4.5-.8.4-1.2,1.5-1.7,2.3l27.3-1.8-1.8,4.7-43.8-1.2Z"/><path class="c" d="M868.5,74.9l-27.3,1.8c.5-.8.9-1.9,1.7-2.3,3.1-1.6,6.3-3,9.4-4.5l5.4-2.5Z"/><path class="a" d="M842.5,50.5c-60.4,5.1-120.8,13.3-181.3,14.3-78.2,1.3-156.4-3.1-234.6-5,17.5-1.7,35.1-3.2,52.6-5.1,5.5-.5,10.9-1.9,16.4-2.9l74.8-3.1,51.2-3,97.3-4c1.3,0,2.6-.7,3.9-1l-2.1-2L829.9,26.9c.8-.1,1.6.6,2.4.9a3.8,3.8,0,0,1-1.5.9L763.6,39.8l-1.5-.7-.2.4,1.7.3-46,9.9a44.8,44.8,0,0,0-5.2,1.6c1.9.1,3.8.6,5.6.4,33.5-4.2,66.9-8.9,100.5-12.4,13.8-1.5,27.9-.4,42-.4a7,7,0,0,1,1.7.6,7.3,7.3,0,0,1-1.9,2C854.4,44.6,848.5,47.5,842.5,50.5Z"/><path class="a" d="M290.5,98.5h-1.9l-2.2.8h-1.9c-19.4,1.3-38.8,2.7-58.1,3.8-1.5.1-3.1-1.5-4.6-2.3l9.4-4.2c-3.7-.6-7.3-1.6-11-1.7Q159.5,92.9,98.7,91C77,89.9,55.2,88.9,33.5,87.7c-1.8-.1-3.6-1.7-5.3-2.6,1.7-.4,3.3-1.3,5-1.2l126.6,4.6,10.6-.5c7.7.6,15.3,1.5,22.9,1.7,5.3.2,10.6-.5,15.9-.8-4.6-.6-9.3-1.4-13.9-1.7s-9.2-.3-13.8-.4l-14.4-2.4c8.4-.5,16.7-1.1,25.1-1.5,3.1-.2,6.2,0,9.4,0,16.5,1.3,33,2.8,49.5,3.8,22.5,1.5,45,2.6,67.5,3.9-.5.9-.8,2.5-1.5,2.7a83.6,83.6,0,0,1-8.5,1.4l-1.9.2-2.1.4L301,96.8h.1l-9.6,1Z"/><path class="a" d="M193.8,51.9l17.7-.2,103.3,5.2c1.1,0,2.2.7,3.4,1a17.6,17.6,0,0,1-3.7.8c-41,.4-81.9.6-122.9,1.2-34.4.5-68.8,1.5-103.2,2.2L12.6,55.8,117.7,57c1.1,0,2.2-3.1,3.4-3.1,30.6-.2,61.3-.1,91.9-.1a34.7,34.7,0,0,0,4.5-.6l-4.4-.4Z"/><path class="a" d="M279.3,55.9l-.2.7h.5l.7-.5Z"/><path class="c" d="M570.4,48.7l-74.8,3.1Z"/><path class="a" d="M207.4,70.6l-49.6-2c14.2.1,28.4.1,42.5.3C202.7,68.9,205,70,207.4,70.6Z"/><path class="a" d="M332.6,71h10.9l-2.8,1.7a8.2,8.2,0,0,0,2.8,1.1h21.2l7.7-.5L316,76.8a19.2,19.2,0,0,1,3.1-1.8c1.4-.5,3-.5,4.4-.9Z"/><path class="a" d="M415.7,48.4l55.2,4.5a4.9,4.9,0,0,1,1.6.5,7,7,0,0,1-1.4.3l-78.6-3c-.3,0-.7-.4-1-.5a4.5,4.5,0,0,1,1.8-.7Z"/><path class="a" d="M343.7,76.6c5,.2,9.9.6,14.8.9l-7.8.3-21.2-.5Z"/><path class="a" d="M235.5,70.7h0Z"/><path class="c" d="M301,96.8l3.6-1.5Z"/><path class="c" d="M306.7,94.9l1.9-.2Z"/><path class="b" d="M181.5,86.8c4.6.1,9.2,0,13.8.4s9.3,1.1,13.9,1.7c-5.3.3-10.6,1-15.9.8-7.6-.2-15.2-1.1-22.9-1.7Z"/><path class="b" d="M80.3,81.6l4.3.6a50.5,50.5,0,0,1-5.6.6,22.5,22.5,0,0,1-3.6-.6Z"/><path class="a" d="M844.8,32.8l1.3.8a20,20,0,0,1-2.1,1,5.7,5.7,0,0,1-1.8-.3Z"/><path class="a" d="M829.2,37.5h-.4l.4-.4.3.3Z"/><path class="a" d="M833.8,36.1h.5a.8.8,0,0,0-.2.5l-.4-.2C833.7,36.3,833.8,36.2,833.8,36.1Z"/><path class="c" d="M-18.4,25.9,15.9,38c.7.2,1.1,1.3,1.6,2a12.8,12.8,0,0,1-3.2.6c-10.8-.2-21.6-.2-32.3-.8-3.7-.2-7.3-1.8-10.9-2.8Z"/><path class="b" d="M694.6,148.8l119,11.5c8.8.8,17.5,2.1,26.2,3.1l-65.8-.6-3.4.3a16.7,16.7,0,0,0,3,.8l69.1,4.2c-1.4.6-2.9,1.7-4.3,1.7-34.5.4-69,.9-103.6.9-10,0-20.1-1.5-30.2-2.2l29.3-1.7h.5l2.3-.5a10.3,10.3,0,0,0-2.4-.5l-64.8-1a26,26,0,0,1-3.9-.5l3.6-.5,25.4-1.7-26.9.4a17.1,17.1,0,0,0-3.9.3,18,18,0,0,0-3.8,1.6,14.8,14.8,0,0,0,3.5,1.3l51.5,5.1a18.5,18.5,0,0,1,3.3,1.2,18.7,18.7,0,0,1-3.2.8l-28.3,1.8-294.3,8.2H378c-.4,0-.9-.4-1.4-.6l1.4-.4,27.3-2L585.2,167c14.3-.7,28.6-1.3,42.9-2.4,2.5-.2,4.8-2.6,7.2-4-5.6-1.5-11.1-3.2-16.7-4.5-46.5-10.5-93-20.8-139.6-31.2l-70.8-7.1-2.7-.5a7.7,7.7,0,0,1,1.9-.5c38.2.9,76.7-.8,114.6,3.2,50.1,5.3,99.8,15,149.6,22.8h-.1l23.1,6Z"/><path class="b" d="M388.5,111h1.2c6.1,0,12.1.2,18.2,0s13.1-.7,19.7-1.1l2-1,2-.9c20,.5,40,.9,60,1.8,14.1.6,28.1,2.1,42.1,3.2l45.9,5.9h-.1l4.1,2h-.1l8.1,3h0c-.5.6-1.1,1.8-1.5,1.8-47.8-3.7-95.6-8.4-143.5-10.9-19.5-1-39.3,2.5-58.9,3.9l-8.1,4-37,8.2-81,17-2.1,1h.1l-22.9,4.1-.3-.3,9.2-3.9c.1-.1.2-.3.4-.3l14.8-5.2-18.2,1.9-4.3.4c1.4-.8,2.6-2,4.1-2.4,7.1-2.1,14.3-3.9,21.4-5.9l-22.2-.4-92.9-2.2,36.7-5.6c44.4-1.1,88.9-1.4,133.3-3.9,20.4-1.1,40.6-6.7,60.8-10.3Z"/><path class="b" d="M278.6,139.8l7-2c11.5-2.6,23-5,34.4-7.7,5.9-1.5,11.8-3.4,17.6-5-6,1.1-12,2.2-17.9,3.5-9.3,1.9-18.6,3.8-27.8,6-2.2.5-4.2,2.1-6.3,3.2l-7,2-1.4.2.2.5Z"/><path class="b" d="M80.7,163.8c-14.4.5-28.8,2-43.1,1.3-20.9-1.2-41.7-3.8-62.5-6.2-2.2-.2-4.1-3.4-6.1-5.3l6.3-2.6,88.5,9.7,1.9-.2a37.5,37.5,0,0,0-4.7-1.7l-14.5-3.4c4.8-.2,9.6-.6,14.4-.6l69.9-.5a26.4,26.4,0,0,1-4.5,1.5l-43.7,7Z"/><path class="b" d="M74.8,152.7l-56.1-2.9a11.5,11.5,0,0,1-2.9-1.1,11.1,11.1,0,0,1,3.1-.9l188.8,1a10.6,10.6,0,0,1,1.9.4,15.9,15.9,0,0,1-3,.6H74.9Z"/><path class="b" d="M844.8,173.6l-135.2,2.2c1-.7,2-1.9,3-1.9q67-2.1,134-3.8c.3,0,.7,1.1,1,1.7h0l-2.1,1.1h.1Z"/><path class="b" d="M-29.1,120.6l172.4,8.3,10.5.5-41,5.3L-6.9,127.8a23.2,23.2,0,0,0-4.6.6A18.6,18.6,0,0,0-7,130l56.6,7.8-80.4-12.5Z"/><path class="b" d="M258.6,191.8l-11.9-.3,7.2-.9c.2,0,.5-.3.7-.4a26.9,26.9,0,0,0-4-.3c-51.1,1.3-102.3,2.9-153.5,3.8-18.3.3-36.6-1.2-54.9-1.9a23.5,23.5,0,0,1-3.7-.5,24.7,24.7,0,0,1,3.8-.5l149.9-2a48.9,48.9,0,0,0,5.3-.9l83.1-2a14.5,14.5,0,0,1,4.6.9c-2.8,1-5.5,2.4-8.4,2.9C270.8,190.6,264.7,191.1,258.6,191.8Z"/><path class="a" d="M387.7,118.6c19.6-1.4,39.4-4.9,58.9-3.9,47.9,2.5,95.7,7.2,143.5,10.9.4,0,1-1.2,1.5-1.8l26.3,5.9a53.7,53.7,0,0,0,8,.5l-6.3-3.4h0l52,16C621.8,135,572.1,125.3,522,120c-37.9-4-76.4-2.3-114.6-3.2a7.7,7.7,0,0,0-1.9.5l2.7.5,70.8,7.1H426.6l-2.2-1.1-6.8-1.1h0l-2.1-1.4-1-.5-2.4-.2h0Z"/><path class="a" d="M75.7,173.9c-26,1.3-51.9,2.6-77.9,3.7-1,0-2.1-2.3-3.1-3.5L103.9,166c1.6-.1,3.4.7,5.1,1.1a38.1,38.1,0,0,1-4.4,1.5Z"/><path class="a" d="M847.6,171.8c-.3-.6-.7-1.7-1-1.7q-67.1,1.8-134,3.8c-1,0-2,1.2-3,1.9l-22.8-1.2,28.3-1.8a18.7,18.7,0,0,0,3.2-.8,18.5,18.5,0,0,0-3.3-1.2l-51.5-5.1a14.8,14.8,0,0,1-3.5-1.3,18,18,0,0,1,3.8-1.6,17.1,17.1,0,0,1,3.9-.3l26.9-.4-25.4,1.7-3.6.5a26,26,0,0,0,3.9.5l64.8,1a10.3,10.3,0,0,1,2.4.5l-2.3.5h-.5l-29.3,1.7c10.1.7,20.2,2.2,30.2,2.2,34.6,0,69.1-.5,103.6-.9,1.4,0,2.9-1.1,4.3-1.7h3.9l2.2-.7h2.5l2.5,1.5,2.3,3Z"/><path class="a" d="M82.6,162.8l43.7-7a26.4,26.4,0,0,0,4.5-1.5l41.3.5a23.5,23.5,0,0,1,3.7.5c-1.4.5-2.7,1.3-4.1,1.4Z"/><path class="a" d="M585.2,167,405.3,179.8l-27.3,2-1.4.4c.5.2,1,.6,1.4.6h14.5c-10.7.6-21.5,1.2-32.2,1.6-1.1.1-2.2-1.1-3.3-1.7,1.2-.2,2.4-.7,3.7-.8l216.6-15.6C579.9,166.1,582.6,166.8,585.2,167Z"/><path class="a" d="M112.8,134.7l41-5.3,31.6-.4-36.7,5.6Z"/><path class="b" d="M414.5,120.9l1,.5,2.1,1.4h0l-10.2,1.1c.1.3.2.8.3.8l16.7-.8,2.2,1.1-56.2,3.4,14-6.2,27.7-1.4h0Z"/><path class="a" d="M384.4,122.2l-14,6.2-5.8.3-3.2.6-6.8.4-3.2.6-8.8.5,37-8.2Z"/><path class="a" d="M245.6,148.7l-9.2,3.9-2.2.5.3.5,2.2-.7,22.9-4.1-44.5,10.8c-.9.2-2-.7-3-1.1.7-.6,1.3-1.5,2.1-1.7Z"/><path class="b" d="M409.6,198.8l-69,2c-.3,0-.7-.4-1-.7l1.9-.3,32.7-2.6Z"/><path class="b" d="M375.9,169.7l10.9.6-29,2.4c2.7-1,5.2-2.3,7.9-2.9S369.3,169.7,375.9,169.7Z"/><path class="b" d="M841.3,163.4c1.1-1.2,2.5-3.5,3-3.3,2,.8,3.6,2.3,5.4,3.6Z"/><path class="b" d="M819.8,218.3l-5.5,2.1Z"/><path class="b" d="M351.4,130.3l3.2-.6Z"/><path class="b" d="M361.4,129.3l3.2-.6Z"/><path class="b" d="M825.8,216.2l-2.5,1.3Z"/><path class="b" d="M848.8,167.3l-2.2.7Z"/><path class="a" d="M845.5,172.9l2.1-1.1Z"/><path class="a" d="M259.5,148.8l2.1-1Z"/><path class="a" d="M844.8,173.6l.8-.8Z"/><path class="b" d="M90.7,210c8.8,1.2,17.5,3.5,26.2,3.5,76.1,0,152.3-.5,228.4-.8,2.4,0,4.9.6,7.3.8-31.2,3.4-62.2,8.1-93.5,9.9-62.7,3.7-125.5,7.6-188.3,7.5-28.2,0-56.4-9.2-84.5-14.4-1.1-.2-2.1-1.4-3.1-2.1a7,7,0,0,1,1.7-.6Z"/><path class="b" d="M-17.4,208l-13.4-10.3c7.6-.9,15.1-2.4,22.7-2.5,30.6-.4,61.3-.4,91.9-.4,4.2,0,8.4,1.1,12.6,1.7-3.8.9-7.6,2.2-11.5,2.5C52.2,202,19.6,204.8-17.4,208Z"/><path class="b" d="M186,206.3H38.7a6.2,6.2,0,0,1-1.9-.7,5.8,5.8,0,0,1,2.2-.8l168.6-3a9.2,9.2,0,0,1,2.7.8c-1,.4-1.9,1.1-2.8,1.1H186Z"/><path class="b" d="M14.7,183.7,28,188c-4.8,0-9.6-.2-14.4,0-9.9.3-19.7.8-29.6,1-1.1,0-2.2-1.3-3.3-2,1.2-.9,2.4-2.7,3.7-2.7,10-.3,20-.3,30.1-.4Z"/><path class="b" d="M14.2,207.8c2.5,0,5-.1,7.5,0l21.9.6-23.2,2.4a25.3,25.3,0,0,1-5.5,0l-30.4-2.5H14.2Z"/><path class="b" d="M27.7,205.6l3,.6-3.4.6a27,27,0,0,1-2.8-.4Z"/><path class="b" d="M14.5,183.9l-3-.2c-.1,0-.1-.5-.1-.7l3.3.7Z"/><path class="b" d="M362.3,213.3l2.3-.6Z"/><path class="a" d="M52.6,98.7l79.9,3.8c9.9,1.9,19.8,3.7,29.7,5.8,1.7.4,3,2.1,4.5,3.3-4.1.3-8.3.8-12.5,1a27.2,27.2,0,0,1-4.9-.5L34.8,116.9c-19.9-1.4-39.8-2.6-59.6-4.3-2.8-.2-5.3-3-7.9-4.6,2.8-2.1,5.4-5.8,8.3-6C1.3,100.6,27,99.7,52.6,98.7Z"/><path class="c" d="M34.8,116.9l114.5-4.8c-23.3,1.9-46.6,4.3-69.9,5.4C64.6,118.2,49.7,117.2,34.8,116.9Z"/><path class="c" d="M198.6,104.8Z"/><path class="a" d="M719.6,120.8l2.6,1.8c-1.3.6-2.6,1.9-3.7,1.7-20.9-3.4-41.7-6.9-62.4-10.7-1-.2-1.6-2.9-2.3-4.4l36.6-1.9c20.2-.3,40.5-.4,60.7-.9,10.1-.3,20.2-1.6,30.3-2.3.9-.1,2,.8,3,1.2-1.1.6-2.1,1.6-3.2,1.7l-72.9,6.3a7.8,7.8,0,0,1,.3-1.4c2.8-.3,5.7-.5,8.5-.9l3.7-.8a17.2,17.2,0,0,0-3.9-.4c-16.8.6-33.5,1.2-50.3,2-1,0-1.9.7-2.9,1.1l16.7,2.7c8.2,1.4,16.5,2.9,24.8,4.1,4.7.7,9.6.8,14.4,1.1l.2.2Z"/><path class="a" d="M685.9,109.1l-2.5-.3a2.9,2.9,0,0,0-1.3.5,13.6,13.6,0,0,0,1.7.4C684.2,109.8,684.7,109.5,685.9,109.1Z"/><path class="b" d="M828.6,87.8c6.2,0,12.4-.6,18.5.2,3.2.5,6.2,3.2,9.3,4.9l-52.1,2.7L739.1,99l-8.7.4,7.8-2.4Z"/><path class="b" d="M849.8,66.1,822.9,78.4l-102.3.5h-1.9c.6-.4,1.1-1.1,1.8-1.3,7.9-1.9,15.8-4.7,23.8-5.4,11.1-1.1,22.3-.2,33.4-.8C801.7,69.8,825.7,67.8,849.8,66.1Z"/><path class="a" d="M427.6,109.8c-6.6.4-13.1.9-19.7,1.1s-12.1,0-18.2,0l64.2-13.2c.2,0,.9,1.5.9,1.5-2.8,1.6-5.4,3.6-8.3,4.6-4.9,1.7-9.9,2.8-14.9,4.1l-2,.9Z"/><path class="a" d="M399.9,110.5h.4l-.3-.5-.3.2Z"/><path class="a" d="M404.1,109.6l.4-.3-.3-.2a.8.8,0,0,0-.4.4Z"/><path class="b" d="M862.5,97.7c-1,2-1.9,4.1-2.9,6.1H824.1c.2-1,.4-2,.5-2.9Z"/><path class="a" d="M738.2,97l-7.8,2.4,8.7-.4,65.2-3.4-99.8,8.9a19.3,19.3,0,0,1-2.4-.1c.4-.4.9-1.1,1.4-1.2Z"/><path class="a" d="M579.6,118.8l-45.9-5.9,26.8,1.3a18.7,18.7,0,0,0,2.5-.4l-1.4-2h0Z"/><path class="b" d="M364.7,73.6H343.5a8.2,8.2,0,0,1-2.8-1.1l2.8-1.7Z"/><path class="b" d="M865.6,86.8l-20.3-.4,13.3-2.6,6.9.9A14.8,14.8,0,0,1,865.6,86.8Z"/><path class="a" d="M388.5,111l-9,3.8Z"/><path class="b" d="M842.2,81.5l7.6.9c-3.4.7-6.7,1.8-10.1,2.1-1.7.1-3.6-1.3-5.4-2Z"/><path class="b" d="M758,70.6a7,7,0,0,1-2,.1c-.2,0-.3-.5-.5-.7h1.9C757.6,69.9,757.7,70.3,758,70.6Z"/><path class="b" d="M286.4,99.4l2.2-.8Z"/><path class="b" d="M290.5,98.5l1-.8Z"/><path class="a" d="M830.8,138.5h2.8c-21.7-2.2-43.5-4.3-65.2-6.6-5.3-.6-10.5-2.1-15.7-3.2,4.9-.1,9.9.2,14.8-.3,28.5-2.7,57.1-5.6,85.6-8.5-3.8,2.9-7.4,6.1-11.5,8.5-2.6,1.6-6,1.9-9,2.8l6.9.7-8.7,5.2-1.3,1.2Z"/><path class="a" d="M750.7,127.5a6.3,6.3,0,0,1-2.5,1.1c-.4.1-1-.5-1.4-.8a16.6,16.6,0,0,1,2.1-1.6C749.1,126.1,749.8,126.8,750.7,127.5Z"/><path class="b" d="M579.6,118.8l-18-7-6.5-4.6c5.1,1.3,10.2,2.7,15.3,3.9,2.7.7,5.4,1.1,8.2,1.7l11,4,3,1,1.2.7.2-.6h-1.4l-3-1-11-4L559.4,106l.3-.3c74.6,12.5,149.1,25.2,223.8,37.3,22.9,3.8,46.1,5.9,69.2,8.7l3.9.7c-1.4.4-2.8,1.2-4.2,1.2l-149-3.6a88.5,88.5,0,0,1-8.8-1.2h0l-23.1-6h.1l-52-16-5-2-6-2L598.5,119l-.3.8,10.4,3,6,2,5,2,6.3,3.4a53.7,53.7,0,0,1-8-.5l-26.3-5.9h0l-8.1-3h.1l-4.1-2Z"/><path class="b" d="M559.4,106l-2.2-.5.3-.5,2.2.7Z"/><path class="b" d="M830.8,138.5l-1.3-.3,1.3-1.2Z"/><path class="b" d="M763.6,39.8l-1.7-.3.2-.4,1.5.7Z"/><path class="b" d="M279.4,55.9l.9.3-.7.5h-.5Z"/><path class="a" d="M671.5,142.8l23.1,6Z"/><path class="a" d="M285.6,137.8c2.1-1.1,4.1-2.7,6.3-3.2,9.2-2.2,18.5-4.1,27.8-6,5.9-1.3,11.9-2.4,17.9-3.5-5.8,1.6-11.7,3.5-17.6,5-11.4,2.7-22.9,5.1-34.4,7.7Z"/><path class="c" d="M384.4,122.2l-4.8.4,8.1-4,24.4,2.2Z"/><path class="a" d="M583.5,120.8l8.1,3Z"/><path class="a" d="M278.6,139.8l7-2h0l-7,2Z"/><path class="a" d="M579.5,118.8l4.1,2Z"/><path class="a" d="M278.6,139.8l-1.2.7-.2-.5,1.4-.2Z"/><path class="c" d="M427.6,109.8l2-1Z"/><path class="c" d="M424.4,123.9l-16.7.8c-.1,0-.2-.5-.3-.8l10.2-1.1Z"/><path class="c" d="M414.5,120.9l-2.4-.2Z"/><path class="c" d="M417.6,122.8l-2.1-1.4Z"/><path class="b" d="M236.7,152.9l-2.2.7-.3-.5,2.2-.5Z"/><path class="b" d="M685.9,109.1c-1.2.4-1.7.7-2.1.6a13.6,13.6,0,0,1-1.7-.4,2.9,2.9,0,0,1,1.3-.5Z"/><polygon class="b" points="719.6 120.8 719.8 121 719.6 120.8 719.6 120.8"/><path class="b" d="M399.9,110.5l-.2-.3.3-.2.3.5Z"/><path class="b" d="M404.1,109.6h-.3a.8.8,0,0,1,.4-.4l.3.2Z"/><path class="a" d="M608.6,122.8l-10.4-3,.3-.8,10.1,3.8Z"/><path class="a" d="M589.6,116.8l-11-4h0l11,4Z"/><path class="a" d="M614.6,124.8l-6-2h0l6,2Z"/><path class="a" d="M619.6,126.8l-5-2h0l5,2Z"/><path class="a" d="M592.6,117.8H594l-.2.6-1.2-.7Z"/><path class="a" d="M589.6,116.8l3,1h0l-3-1Z"/></svg>