<svg xmlns="http://www.w3.org/2000/svg" xmlns:xlink="http://www.w3.org/1999/xlink" viewBox="0 0 392.8 416.2"><defs><style>.a{mask:url(#a);filter:url(#k);}.b,.d{mix-blend-mode:multiply;}.b{fill:url(#c);}.c{mask:url(#d);filter:url(#n);}.d{fill:url(#f);}.e{fill:#c6c6c5;}.f{fill:#575756;}.g{fill:url(#g);}.h{fill:url(#h);}.i{fill:url(#i);}.j{mask:url(#j);}.k{fill:url(#l);}.l{mask:url(#m);}.m{fill:url(#o);}.n{filter:url(#e);}.o{filter:url(#b);}</style><filter id="b" x="0" y="-8400.6" width="392.79" height="32766" filterUnits="userSpaceOnUse" color-interpolation-filters="sRGB"><feFlood flood-color="#fff" result="bg"/><feBlend in="SourceGraphic" in2="bg"/></filter><mask id="a" x="0" y="-8400.6" width="392.79" height="32766" maskUnits="userSpaceOnUse"><g class="o"/></mask><radialGradient id="c" cx="205.4" cy="-3.25" r="207.55" gradientUnits="userSpaceOnUse"><stop offset="0" stop-color="#fff"/><stop offset="0.52" stop-color="#7c7c7c"/><stop offset="1"/></radialGradient><filter id="e" x="0" y="-8400.6" width="392.79" height="32766" filterUnits="userSpaceOnUse" color-interpolation-filters="sRGB"><feFlood flood-color="#fff" result="bg"/><feBlend in="SourceGraphic" in2="bg"/></filter><mask id="d" x="0" y="-8400.6" width="392.79" height="32766" maskUnits="userSpaceOnUse"><g class="n"/></mask><radialGradient id="f" cx="205.4" cy="-3.25" r="207.55" xlink:href="#c"/><linearGradient id="g" x1="196.4" y1="416.23" x2="196.4" gradientUnits="userSpaceOnUse"><stop offset="0" stop-color="#333"/><stop offset="0.05" stop-color="#c2c2c2"/><stop offset="0.09" stop-color="#8a8a8a"/><stop offset="0.2" stop-color="#8c8c8c"/><stop offset="0.6" stop-color="#c2c2c2"/><stop offset="0.7" stop-color="#bebebe"/><stop offset="0.8" stop-color="#b2b2b2"/><stop offset="0.89" stop-color="#9e9e9e"/><stop offset="0.94" stop-color="#919191"/><stop offset="0.97" stop-color="#f5f5f5"/><stop offset="1" stop-color="#212121"/></linearGradient><linearGradient id="h" x1="197.07" y1="255.47" x2="197.07" y2="184.21" gradientUnits="userSpaceOnUse"><stop offset="0" stop-color="gray"/><stop offset="1" stop-color="#919191"/></linearGradient><linearGradient id="i" x1="206.34" y1="183.26" x2="206.34" y2="161.59" xlink:href="#h"/><filter id="k" x="0" y="0" width="392.79" height="416.23" filterUnits="userSpaceOnUse" color-interpolation-filters="sRGB"><feFlood flood-color="#fff" result="bg"/><feBlend in="SourceGraphic" in2="bg"/></filter><mask id="j" x="0" y="0" width="392.79" height="416.23" maskUnits="userSpaceOnUse"><g class="a"><path class="b" d="M390.2.5c-.4-.5-.5-.5-.5-.5H347.3a22.6,22.6,0,0,1-22.7,22.5H68.1A22.6,22.6,0,0,1,45.5,0H3.1S3,0,2.6.5C0,4.6,0,19.4,0,19.4V396.8s0,14.8,2.6,18.9c.4.5.5.5.5.5H45.5a22.7,22.7,0,0,1,22.6-22.5H324.6a22.7,22.7,0,0,1,22.7,22.5h42.4s.1,0,.5-.5c2.6-4.1,2.6-18.9,2.6-18.9V19.4S392.8,4.6,390.2.5Z"/></g></mask><radialGradient id="l" cx="205.4" cy="-3.25" r="207.55" gradientUnits="userSpaceOnUse"><stop offset="0" stop-color="#fff"/><stop offset="1" stop-color="#fff"/></radialGradient><filter id="n" x="0" y="0" width="392.79" height="416.23" filterUnits="userSpaceOnUse" color-interpolation-filters="sRGB"><feFlood flood-color="#fff" result="bg"/><feBlend in="SourceGraphic" in2="bg"/></filter><mask id="m" x="0" y="0" width="392.79" height="416.23" maskUnits="userSpaceOnUse"><g class="c"><path class="d" d="M390.2.5c-.4-.5-.5-.5-.5-.5H347.3a22.6,22.6,0,0,1-22.7,22.5H68.1A22.6,22.6,0,0,1,45.5,0H3.1S3,0,2.6.5C0,4.6,0,19.4,0,19.4V396.8s0,14.8,2.6,18.9c.4.5.5.5.5.5H45.5a22.7,22.7,0,0,1,22.6-22.5H324.6a22.7,22.7,0,0,1,22.7,22.5h42.4s.1,0,.5-.5c2.6-4.1,2.6-18.9,2.6-18.9V19.4S392.8,4.6,390.2.5Z"/></g></mask><radialGradient id="o" cx="205.4" cy="-3.25" r="207.55" xlink:href="#l"/></defs><title>gsa_mac-pro-tower</title><path class="e" d="M351.5,411.8a4.5,4.5,0,0,1-4.5,4.4l-15.2-17.5c-2.3-2.1-1.4-5.4-1.4-7.9v-4.6c0-2.5-10.9-5.1-8.5-5.1H347a4.5,4.5,0,0,1,4.5,4.4Z"/><path class="f" d="M333.6,396.9h-.1c-.8-.7-.8-2.1-.6-4.1v-6.5a3.7,3.7,0,0,0-1-2.6H347a2,2,0,0,1,2,1.9v26.3a2.1,2.1,0,0,1-1,1.7Z"/><path class="e" d="M41.2,411.8a4.5,4.5,0,0,0,4.5,4.4l15.2-17.5c2.3-2.1,1.4-5.4,1.4-7.9v-4.6c0-2.5,10.9-5.1,8.5-5.1H45.7a4.5,4.5,0,0,0-4.5,4.4Z"/><path class="f" d="M59.1,396.9h.1c.8-.7.8-2.1.6-4.1v-6.5a3.7,3.7,0,0,1,1-2.6H45.7a2,2,0,0,0-2,1.9v26.3a2.1,2.1,0,0,0,1,1.7Z"/><path class="e" d="M41.2,4.5A4.5,4.5,0,0,1,45.7,0L60.9,17.6c2.3,2,1.4,5.4,1.4,7.8V30c0,2.5,10.9,5.1,8.5,5.1H45.7a4.4,4.4,0,0,1-4.5-4.4Z"/><path class="f" d="M59.1,19.3h.1c.8.8.8,2.2.6,4.2V30a3.5,3.5,0,0,0,1,2.6H45.7a1.9,1.9,0,0,1-2-1.9V4.5a1.8,1.8,0,0,1,1-1.7Z"/><path class="e" d="M351.7,4.5A4.5,4.5,0,0,0,347.3,0L332,17.6c-2.3,2-1.4,5.4-1.4,7.8V30c0,2.5-10.9,5.1-8.4,5.1h25.1a4.4,4.4,0,0,0,4.4-4.4Z"/><path class="f" d="M333.8,19.3h-.1c-.8.8-.8,2.2-.6,4.2s.1,1.2.1,1.8V30a3.6,3.6,0,0,1-1.1,2.6h15.2a1.9,1.9,0,0,0,1.9-1.9V4.5a1.8,1.8,0,0,0-1-1.7Z"/><path class="g" d="M390.2.5c-.4-.5-.5-.5-.5-.5H347.3a22.6,22.6,0,0,1-22.7,22.5H68.1A22.6,22.6,0,0,1,45.5,0H3.1S3,0,2.6.5C0,4.6,0,19.4,0,19.4V396.8s0,14.8,2.6,18.9c.4.5.5.5.5.5H45.5a22.7,22.7,0,0,1,22.6-22.5H324.6a22.7,22.7,0,0,1,22.7,22.5h42.4s.1,0,.5-.5c2.6-4.1,2.6-18.9,2.6-18.9V19.4S392.8,4.6,390.2.5Z"/><path class="h" d="M222.7,211.5c-.1-11.9,9.7-17.6,10.1-17.9a21.7,21.7,0,0,0-17.1-9.3c-7.3-.8-14.3,4.3-18,4.3s-9.4-4.2-15.5-4.1a22.8,22.8,0,0,0-19.4,11.8c-8.3,14.4-2.1,35.6,5.9,47.3,4,5.7,8.7,12.1,14.8,11.9s8.2-3.9,15.4-3.9,9.2,3.9,15.5,3.7,10.5-5.8,14.4-11.5a52.7,52.7,0,0,0,6.5-13.3c-.1-.1-12.5-4.8-12.6-19"/><path class="i" d="M210.9,176.6a20.7,20.7,0,0,0,4.9-15c-4.8.2-10.5,3.1-13.9,7.1s-5.7,9.1-5,14.5c5.3.4,10.7-2.7,14-6.6"/><g class="j"><path class="k" d="M390.2.5c-.4-.5-.5-.5-.5-.5H347.3a22.6,22.6,0,0,1-22.7,22.5H68.1A22.6,22.6,0,0,1,45.5,0H3.1S3,0,2.6.5C0,4.6,0,19.4,0,19.4V396.8s0,14.8,2.6,18.9c.4.5.5.5.5.5H45.5a22.7,22.7,0,0,1,22.6-22.5H324.6a22.7,22.7,0,0,1,22.7,22.5h42.4s.1,0,.5-.5c2.6-4.1,2.6-18.9,2.6-18.9V19.4S392.8,4.6,390.2.5Z"/></g><g class="l"><path class="m" d="M390.2.5c-.4-.5-.5-.5-.5-.5H347.3a22.6,22.6,0,0,1-22.7,22.5H68.1A22.6,22.6,0,0,1,45.5,0H3.1S3,0,2.6.5C0,4.6,0,19.4,0,19.4V396.8s0,14.8,2.6,18.9c.4.5.5.5.5.5H45.5a22.7,22.7,0,0,1,22.6-22.5H324.6a22.7,22.7,0,0,1,22.7,22.5h42.4s.1,0,.5-.5c2.6-4.1,2.6-18.9,2.6-18.9V19.4S392.8,4.6,390.2.5Z"/></g></svg>