<svg xmlns="http://www.w3.org/2000/svg" xmlns:xlink="http://www.w3.org/1999/xlink" viewBox="0 0 1309.2 1629.7"><defs><style>.a{fill:url(#a);}.b{fill:url(#b);}.c{fill:url(#c);}.d{fill:url(#d);}.e{fill:#272931;}.f{fill:url(#e);}.g{fill:url(#f);}.h{fill:url(#g);}.i{fill:url(#h);}.j{fill:url(#i);}.k{fill:url(#j);}.l{fill:url(#k);}.m{fill:#fff;}.n{fill:#cbcbcb;}.o{fill:#444b55;fill-rule:evenodd;}.p{fill:#dddee1;}.q{fill:#0d0f12;}.r{fill:#a7afbb;}.s{fill:url(#l);}</style><linearGradient id="a" x1="373.69" y1="1533.39" x2="373.69" y2="2.72" gradientUnits="userSpaceOnUse"><stop offset="0"/><stop offset="0.76"/><stop offset="0.89"/><stop offset="0.9" stop-color="#070709"/><stop offset="0.96" stop-color="#202129"/><stop offset="1" stop-color="#2a2b35"/></linearGradient><linearGradient id="b" x1="438.96" y1="647.41" x2="1212.57" y2="647.41" gradientUnits="userSpaceOnUse"><stop offset="0" stop-color="#002cce"/><stop offset="0.12" stop-color="#012bc9"/><stop offset="0.28" stop-color="#032aba"/><stop offset="0.44" stop-color="#0627a1"/><stop offset="0.62" stop-color="#0a247e"/><stop offset="0.8" stop-color="#102052"/><stop offset="0.99" stop-color="#171a1c"/><stop offset="1" stop-color="#171a1a"/></linearGradient><linearGradient id="c" x1="1177.42" y1="97.44" x2="421.51" y2="636.23" gradientUnits="userSpaceOnUse"><stop offset="0" stop-color="#171a1a"/><stop offset="0.42" stop-color="#171a1a"/><stop offset="0.44" stop-color="#1f2229"/><stop offset="1" stop-color="#39444d"/></linearGradient><linearGradient id="d" x1="462.16" y1="638.41" x2="1002.96" y2="1340.05" gradientUnits="userSpaceOnUse"><stop offset="0" stop-color="#686c77"/><stop offset="0.25" stop-color="#4d5159"/><stop offset="0.55" stop-color="#33383d"/><stop offset="0.81" stop-color="#24282c"/><stop offset="1" stop-color="#1e2326"/></linearGradient><linearGradient id="e" x1="99.84" y1="294.92" x2="237.45" y2="294.92" gradientUnits="userSpaceOnUse"><stop offset="0" stop-color="#1f2229"/><stop offset="1" stop-color="#2a2b35"/></linearGradient><linearGradient id="f" x1="98.06" y1="1069.61" x2="237.45" y2="1069.61" xlink:href="#e"/><linearGradient id="g" x1="413.24" y1="131.33" x2="286.59" y2="597.75" gradientUnits="userSpaceOnUse"><stop offset="0" stop-color="#171a1a"/><stop offset="0.08" stop-color="#191c1d"/><stop offset="0.58" stop-color="#23262c"/><stop offset="1" stop-color="#272931"/></linearGradient><linearGradient id="h" x1="438.55" y1="585.28" x2="438.55" gradientUnits="userSpaceOnUse"><stop offset="0" stop-color="gray"/><stop offset="0.21" stop-color="#b7b7b7"/><stop offset="0.4" stop-color="#e1e1e1"/><stop offset="0.5" stop-color="#f1f1f1"/><stop offset="0.54" stop-color="#e6e6e6"/><stop offset="0.85" stop-color="#9d9d9d"/><stop offset="1" stop-color="gray"/></linearGradient><linearGradient id="i" x1="301.16" y1="585.28" x2="301.16" gradientUnits="userSpaceOnUse"><stop offset="0" stop-opacity="0"/><stop offset="0.17" stop-color="#101010" stop-opacity="0.13"/><stop offset="0.51" stop-color="#3a3a3a" stop-opacity="0.45"/><stop offset="0.98" stop-color="#7d7d7d" stop-opacity="0.98"/><stop offset="1" stop-color="gray"/></linearGradient><linearGradient id="j" x1="237.45" y1="587.11" x2="237.45" y2="2.72" xlink:href="#h"/><linearGradient id="k" x1="237.45" y1="1533.39" x2="237.45" y2="605.83" xlink:href="#h"/><linearGradient id="l" x1="439.66" y1="1577.2" x2="1309.18" y2="1577.2" gradientUnits="userSpaceOnUse"><stop offset="0" stop-color="#303135"/><stop offset="0.32" stop-color="#2b2e31"/><stop offset="1" stop-color="#252b2c"/></linearGradient></defs><title>gsa_ps4</title><polygon points="99 587.1 134 590.9 134 608.6 243.7 609.9 243.7 575 106.1 579.1 99 587.1"/><polygon class="a" points="237.5 2.7 509.9 50.4 447.6 1533.4 237.5 1533.4 237.5 2.7"/><path class="b" d="M1212.6,675.6v33.9S438.1,608.5,439,605.8s0-20.5,0-20.5Z"/><rect x="307.4" y="588.5" width="126" height="15.19"/><polygon class="c" points="438.6 0 1229.4 173.4 1229.4 684.5 438.6 585.3 438.6 0"/><polygon class="d" points="438.6 606.5 1229.4 707.1 1229.4 1524.7 438.6 1534.5 438.6 606.5"/><polygon class="e" points="452.9 591.8 431.6 589 431.4 585.7 438.9 586 1223 684.3 1212.6 685.2 452.9 591.8"/><path d="M432.1,586.4l6.8.2,777.7,97.6-4,.3L453,591.2l-20.8-2.8v-2m-1.5-1.3.4,4.5,21.8,2.9,759.8,93.4,16.8-1.4L439,585.3l-8.4-.2Z"/><rect class="f" x="99.8" y="2.7" width="137.6" height="584.39"/><rect class="g" x="98.1" y="605.8" width="139.4" height="927.56"/><polygon class="h" points="438.1 585.3 300.7 585.1 300.7 0 438.1 0 438.1 585.3"/><rect class="e" x="300.7" y="605.8" width="137.4" height="926.22"/><rect class="i" x="438.1" width="0.8" height="585.28"/><rect class="j" x="300.7" width="0.8" height="585.28"/><rect class="k" x="237" y="2.7" width="0.8" height="584.39"/><rect class="l" x="237" y="605.8" width="0.8" height="927.56"/><rect x="438.1" y="605.8" width="0.8" height="926.89"/><rect x="128" y="590.1" width="102.5" height="12.24" rx="2.7" ry="2.7"/><polygon points="438.1 605.8 1229.4 706.4 1212.6 701.8 452.8 601.7 437.6 600.4 438.1 605.8"/><rect class="m" x="225.8" y="590.1" width="4.8" height="12.24"/><polygon class="n" points="431 589.6 452.8 592.5 452.8 601.7 431 599.9 431 589.6"/><path class="o" d="M375.9,183.8l4.1,3.9h0l.7.3c.3,0,.4-.2.4-1.1h0V186h2.7v10.6h-2.7v-1.4h0c0-1.6-.2-1.9-3-4.2h0l-6.7-6.1h-4c-1,0-1.4.5-1.4,2h0v2.3h-2.5V174.4H366v2.3h0c0,1.5.4,2,1.4,2h4l8-7.2h0c1.4-1.2,1.7-1,1.7-4.4h2.7v13.4h-2.7v-.9h0c0-1-.1-1.4-.5-1.4s-.6.3-.8.5h0l-4,3.7h0a.8.8,0,0,0,.1,1.4Z"/><path class="o" d="M383.8,93.8V97h-7.3V94h0a4.7,4.7,0,0,0,2.7-2,12.5,12.5,0,0,0,2.6-7.5c0-3.5-1.1-6.5-2.7-6.5-4.5,0-.9,20.2-9.4,20.2-4.4,0-6.9-4.3-6.9-12.1a24.2,24.2,0,0,1,2.1-9.2c.5-.7-.4-1-1.4-1.2h0V72.4H371v3h0a6.8,6.8,0,0,0-3.1,2.4c-1.3,1.5-2.3,4.9-2.2,8.1,0,4.8,1.1,6.5,2.6,6.5s1.9-1.7,2.7-6.9h0l.7-4.5h0c.8-5,1.9-8.7,5.9-8.7s6.8,4.7,6.8,12a15.4,15.4,0,0,1-1.8,8.1c-.5.7-.5,1.4,1.2,1.4Z"/><path class="o" d="M371.5,156.9h8.1c1.1,0,1.5-.5,1.5-2.1h0V153h2.5v11.8h-2.5v-1.5h0c0-1.6-.4-2.1-1.5-2.1H363.3v-4.7l14.1-15H367.2c-1,0-1.4.6-1.4,2.2h0v2h-2.5V133.5h2.5v2h0c0,1.6.4,2.1,1.4,2.1h12.4c1.1,0,1.5-.5,1.5-2.1h0v-2h2.5v10.6l-12.1,12.8Z"/><path class="o" d="M384.5,117.3c0-9.4-4.1-15.3-10.8-15.3S363,107.8,363,117s4.1,15.5,11,15.5,10.5-6.1,10.5-15.2Zm-18.9-.2c0-5.2,3-8.2,8.2-8.2s8.1,3.1,8.1,8.5-3,8.1-8.3,8.1-8-3-8-8.4Z"/><path class="p" d="M1166.1,550.7a1,1,0,0,1,.7.2h.5l1.2.6h.5l.5.4a2.9,2.9,0,0,0,1,.3h0l1.4.7,1.3.7h.5v.2h.3l.5.3.9.5,1.1.6.7.4.5.4.4.2.6.4c.1.1.3.2.4.4l.5.2.6.6.6.6h.2l.9,1,.4.6a11,11,0,0,1,1.7,2.5v.2h.1l1,2.4c.1.3.1.6.2.9h.1c0,.2.1.5.1.8l.3.9c.1,1,.3,1.9.4,3h.1v1.6h.1a64.3,64.3,0,0,1,.1,7.6,7.6,7.6,0,0,1-.1,1.5h0a5.7,5.7,0,0,0-.1,1.3l-.3,1.4c0,.3-.1.6-.1.9l-.3,1v.2a1.1,1.1,0,0,0-.2.5h-.1l-.3.8a1,1,0,0,1-.1.3h-.1c0,.1-.1.3-.1.4l-.5.8-.5.6-.3.3a.1.1,0,0,1-.1.1c-1.1,1.1-2.4.7-3.6.6a6.7,6.7,0,0,1-1.4-.9l-.5-.3v-.2h-.2v-.3h-.2c.1-5.8,0-11.6.1-17.4-.1-2.3,0-4.6-.1-6.9h-.1c-.1-1.9-1.1-3.4-2.1-3s-.2.2-.3.3a5.9,5.9,0,0,0-.6,3.1v55h-.3c.1-.1.2-.2.2-.3s-.7-.2-1.1-.4l-1-.6-.5-.3h-.4l-.9-.5-.8-.4h-.3l-.5-.3-.4-.2-.5-.3-1.1-.7-.6-.3Z"/><path class="p" d="M1164.1,590.2h.4c0,2.8.1,5.7,0,8.5l-.8.6h-.3l-.4.3h-.2l-1.7,1.1h-.3l-.6.4-.5.2h.1l-.5.3-.6.3v.2h-.3l-.7.5h0a8.7,8.7,0,0,0-1.8,1.1l-.5.4-.4.6c-.1.3-.1.7-.2,1h.1l.2.3v.2l.5.3.5.2v.2a28.1,28.1,0,0,0,2.9,0v-.2a2.8,2.8,0,0,0,1.6-.7h.3c.1-.1.3-.2.4-.4l.6-.3.5-.4.5-.3.9-.6h.2v-.2h.5v7.5l-1,.3h-1.3v.2a3.9,3.9,0,0,0-1.5.2,11.5,11.5,0,0,1-2.6-.1h-1.5v-.2h-1.2c0-.3-.1-.6-.2-.2h-.5l-.7-.2-.6-.3-.5-.2-.5-.3h-.5l-1.2-.7-.7-.4-.3-.3h-.2c-.1-.1-.2-.3-.3-.3l-.6-.7-.6-1c-.2-.3-.3-.7-.5-1a9.1,9.1,0,0,1,0-3.3,14.5,14.5,0,0,1,1-1.8,4.6,4.6,0,0,0,.7-.7v-.2h.3v-.2l.8-.7.6-.5.4-.3,1.1-.7v-.2h.4c.1-.2.3-.3.4-.4h.2l.4-.3,1.3-.8.4-.2.6-.5h.3l1.2-.8,1.1-.7h.2l.7-.5.5-.2h-.1l1-.6.6-.4,1-.6.5-.3.5-.4.5-.2Z"/><path class="p" d="M1183.9,593.9v-.2h2a11,11,0,0,0,1.8.2l.7.2h1.1c.4.3.9.3,1.4.6l.6.2h0l1.3.6h0l1.6.9c.1.1.3.2.4.4l.5.4h.2v.4h.2a7.6,7.6,0,0,0,.8,1.1.1.1,0,0,1,.1.1v.2h.1l.3.6a.8.8,0,0,0,.2.4v.3a1.4,1.4,0,0,0,.2.6,9.3,9.3,0,0,1-.2,2.4c-.1.2-.1.4-.2.6a1,1,0,0,0-.1.3h-.1c0,.1-.1.2-.1.3a12.1,12.1,0,0,1-2,2.4l-1.1.8-.4.3-2.7,1.7-.6.4-.4.3-.3.2-.6.4-.4.2-1.3.9-.5.3-.5.3-.4.3-.7.5h-.2l-.7.5-.4.3h0a15.9,15.9,0,0,0-2.2,1.3l-.5.3-.9.6-1,.7-.4.2-.9.6a8.7,8.7,0,0,1-1.8,1.1v-8.3c.1-.4.4-.4.6-.6l1-.6.8-.5.7-.4v-.2h.6v-.2l.9-.6.7-.4.4-.3.4-.2.6-.4,1.6-1.1.5-.3h.1l.5-.4h.3a18.8,18.8,0,0,1,1.8-1.2l.4-.2v-.2l.5-.2.9-.6h0a1,1,0,0,0,.6-.5h.1c.1-.1.2-.2.2-.3a.2.2,0,0,1,.2-.2,1.6,1.6,0,0,0-.3-1.6l-.4-.3a1.5,1.5,0,0,0-.9-.2v-.2a4.7,4.7,0,0,0-2,.2h-.7l-1.1.5-1,.6-.5.4h-.3l-.7.5-1,.5v.2l-.6.3-.4.3-.7.4-.5.3-1,.7h-.2l-.7.5-.4.2-.9.5v-7.9a3.1,3.1,0,0,1,.1-1l.8-.5h.4l1.4-.7c.2-.2.4-.2.7-.3l.6-.3h.7v-.2h1.1A9.1,9.1,0,0,1,1183.9,593.9Z"/><path class="q" d="M388.5,1319c.1,2.4.1,5-1.2,7.1v.3h-.1a10.9,10.9,0,0,1-1.3,1.7c-.1.1-.2.2-.2.3a3.9,3.9,0,0,0-1,.8l-.5.2-.5.4h-.2l-1.2.5h-1.6a15.3,15.3,0,0,1-3.7.2v-.2h-1l-1.4-.6h-.3l-1.3-.7a10.5,10.5,0,0,1-1.9-1.7l-.6-.9h0a10.8,10.8,0,0,1-.8-1.9h-.1a5.7,5.7,0,0,0-.4-1.4,11,11,0,0,0-.2-1.8c-.1-11,0-21.9-.1-32.9h-.1a2.2,2.2,0,0,0-.5-1.1c0-.1.1-.2.1-.3h-.2a6.5,6.5,0,0,0-2.1-1.6l-1-.4a19.7,19.7,0,0,0-4.2-.2h-8.8v-7.8h10.4a11.3,11.3,0,0,1,2.6.1l.8.2.8.2,1.5.6,1.7,1.1v.2h.2c0,.1.2.3.3.4h.1l.3.2.9,1.2v.2h.1l.3.7a2.5,2.5,0,0,0,.4.7,11.7,11.7,0,0,1,.4,2.6V1317a6.6,6.6,0,0,0,.1,2c.1.4.1.7.2,1a5.1,5.1,0,0,0,2.4,2.4l1.1.4h4l.8-.2.6-.3h.3l.5-.4h.1l.4-.3c.1-.1.2-.2.2-.3a1.7,1.7,0,0,0,.6-1.2h.3a2.8,2.8,0,0,1,.1-.9c0-.3.1-.5.1-.8v-41h3.8Z"/><path class="q" d="M388.5,1367h.2c-.1,7.9,0,15.8-.1,23.7,0,.1-.1.5-.1.6h-3.8v-19.4a17.1,17.1,0,0,0-.1-3.2,6.7,6.7,0,0,0-.7-1.8,5.3,5.3,0,0,0-2-1.6l-1-.4h-.8a6.7,6.7,0,0,0-2-.1h-16a12.3,12.3,0,0,1-2.7-.2h-.8a8.8,8.8,0,0,1-4.6-3.2h-.1v-.3h-.2a3.1,3.1,0,0,0-.5-1l-.2-.5-.3-1h-.1c-.7-2.8-.4-5.6-.5-8.5V1329h3.8v.2h.3V1352a3.4,3.4,0,0,0,.4,2,8.3,8.3,0,0,0,.8,1.2,4.9,4.9,0,0,0,1.8,1.1,8.9,8.9,0,0,0,3.6.4h1.4a22.9,22.9,0,0,1,3.7,0h5.4c1.6-.2,3.1.1,4.7,0h1.4a4.4,4.4,0,0,1,1.6.2h.9l.9.2,1.6.8,1.1.8a.2.2,0,0,0,.2.2h.1l.5.6a8.1,8.1,0,0,1,1.2,1.8h.1a7.8,7.8,0,0,0,.5,1.4h.1v.8h.2a2.8,2.8,0,0,0,.1.9A16.9,16.9,0,0,1,388.5,1367Z"/><path class="q" d="M388.4,1435.7c.1.4.1.9.2,1.3s-.1.6-.1.9l-.5.9a.2.2,0,0,0-.2.2,1.8,1.8,0,0,0-.7.5l-1,.2v.2H360v7.7h-.3v.2h-3.6c-.1-2.7,0-5.3-.1-7.9h-3.9v-7.7l.3-.2H356c.1-13.7,0-27.5.1-41.2a4.4,4.4,0,0,1,.3-2v-.2a3.1,3.1,0,0,1,1.1-.9h1.1l.8.6.9,1,1.2,2,.5.8v.2h.2l.9,1.6h.1v.2h.2v.2l.3.4.3.7h.2v.4h.1l.7,1.1a2.5,2.5,0,0,1,.4.7h.1l.6,1.1c.1.1.2.2.2.3l.5.8.9,1.5.6.9v.2a4.1,4.1,0,0,1,.7,1.1h.1l1,1.7.8,1.2v.2l.3.4.5.7a10.9,10.9,0,0,1,.8,1.5l.5.6h.1v.3h.1a4.7,4.7,0,0,1,.5,1h.1a6,6,0,0,0,.9,1.3v.3h.1l.5.7v.2l.2.3h.1v.3l.5.6.7,1.2v.2h.2a20.7,20.7,0,0,0,1.5,2.5,10,10,0,0,1,.8,1.4,13.7,13.7,0,0,0,1.3,2v.2a8.6,8.6,0,0,1,.7,1c.3.4.5.9.9,1.4v.2h.1l.3.4h0l.6,1.1.4.6.3.5.8,1.2v.2a4.1,4.1,0,0,1,.7,1.1h.1l.3.5c.2.4.5.8.7,1.3a1,1,0,0,1,.4.5v.2h.2v.2h.2v.3h.2c.2.5.5.9.7,1.5S388.3,1435.5,388.4,1435.7Zm-8-6.1c-.6-.8-1.1-1.8-1.7-2.6l-.3-.6a3.5,3.5,0,0,1-.5-.8l-.6-.9h-.1v-.2c0-.1-.2-.3-.2-.4l-.6-.7c0-.1.1-.2.1-.3h-.2l-.4-.7a4.1,4.1,0,0,1-.5-.9h-.1l-.6-1-.4-.7v-.2H374v-.2h-.2v-.3h-.3v-.2l-1.2-2h0l-.6-1-2.4-3.8-.4-.6h0l-.9-1.5-.5-.7a.3.3,0,0,1-.1-.2.9.9,0,0,0-.3-.5h0l-.4-.7c-.4-.5-.7-1.1-1.1-1.7l-1-1.7h-.1l-.3-.7h-.1a7.5,7.5,0,0,0-.7-1.2h-.1v-.3a9.9,9.9,0,0,1-1.1-1.7l-.3-.4v-.2h-.2v-.3h-.1l-.3-.6h-.2v-.3h-.1l-.3-.6h-.1l-.3-.6H360V1432h21.6A10.8,10.8,0,0,0,380.4,1429.6Z"/><polygon points="437.4 1532.3 98.7 1532.3 0 1629.7 463.8 1629.7 437.4 1532.3"/><polygon class="r" points="439.7 1533.3 466.9 1629.7 463.1 1629.7 436.1 1533.3 439.7 1533.3"/><polygon class="s" points="439.7 1533.3 466.9 1629.7 1309.2 1612.5 1229.4 1524.7 439.7 1533.3"/><polygon points="1229.4 1524.7 438.6 1533.3 438.1 1532.1 1229.4 1524.3 1229.4 1524.7"/><path d="M487,1604.9l777.4-14.7s8.4,6.5-3,7.1-650.8,14.1-745.8,16.1c-7.7.1-16.3,0-19.2-.7C491.8,1611.6,487,1604.9,487,1604.9Z"/></svg>