<svg xmlns="http://www.w3.org/2000/svg" viewBox="0 0 95.8 105.4"><title>icn_rotator_Asset 9</title><g id="Layer_2" data-name="Layer 2"><g id="Laptop"><path d="M84.9,62s5-58.4,2.5-61S1.6,5.7.1,8.6s13,59.8,13,59.8L4.9,98.3s3.4,7.1,6.3,7.1,80.4-4.4,82.6-6.1,1.4-6.2,2-8.4S84.9,62,84.9,62ZM8.4,14.3C10.2,12.1,79.7,6,81.1,7.9s-1.7,43.9-2.5,46-58.5,6.9-60.9,5.4S6.5,16.4,8.4,14.3ZM80.4,61s-29.3,8-61.1,4.2Zm-17,30.1c-1,.8-24.2,1.8-24.7,1.1s.1-2.1.7-3.9l.3-.8h0a1.4,1.4,0,0,0,.2-.7.1.1,0,0,0,.1-.1,1.4,1.4,0,0,0,.2-.6c.1-.1.1-.1.1-.2s.2-.3.2-.5.1-.1.1-.2l.3-.4c0-.1,0-.1.1-.2l.2-.3c0-.1,0-.1.1-.2l.2-.2h.1l.2-.2c1.4-.4,17-2.1,18.1-1.4l.2.2.2.2v.2h.1a22.3,22.3,0,0,1,1.9,3.8C63.3,88.6,63.9,90.7,63.4,91.1Zm22.9-4.5c-.8.5-9.3,1.5-20.2,2.7l-.9-3c8.6-.7,15.2-1.5,15.8-1.8s-4.3-11.9-6-12.6-50.5,1.8-51.2,3.6S17.5,87.1,19,88.7s7.8.4,17.1-.2c-.3,1.2-.6,2.4-.8,3.4-11.9.8-21.4,1.2-22,.4s5-15.8,5.8-18.3,58.7-5.6,60.3-4.8S88.4,85.2,86.3,86.6Z" style="fill:#b75326"/></g></g></svg>