<svg xmlns="http://www.w3.org/2000/svg" viewBox="0 0 116.8 108.8"><title>Asset 8</title><g id="Layer_2" data-name="Layer 2"><g id="Convertable"><path d="M25.1,83.1c.5.3,1.9-.9,3.2-2.2a33.2,33.2,0,0,0,2.2-2.7.1.1,0,0,1,.1-.1v-.2l.2-.2v-.2c.3-1-6.2-12.4-6.9-13.3l-.2-.2H19.5c-1.6.1-3.1.4-3.3.7" style="fill:none"/><path d="M85.6,7.9c-2.4-.1-48.7,12.4-50.2,14.5S66,95.5,69,96.7s44.1-23.4,44.8-26.6S88.1,7.9,85.6,7.9Z" style="fill:none"/><path d="M28.9,77H29c0-.1,0-.1.1-.2a.3.3,0,0,1,.1-.2c.2-1.1-6.3-12.5-7-13.3A.2.2,0,0,0,22,63H17.8c-1.6.1-3.1.4-3.3.7s8,18,8.9,18.5,1.9-.9,3.2-2.2a33.2,33.2,0,0,0,2.2-2.7C28.8,77.1,28.9,77.1,28.9,77Z" style="fill:none"/><polygon points="54.5 83.5 35 40.4 33.8 41 53.3 84.2 54.5 83.5" style="fill:none"/><path d="M82.9,35.1a2.7,2.7,0,0,1,2.3,1.3C84.7,33.1,82.9,35.1,82.9,35.1Z" style="fill:none"/><path d="M22.7,29.8h0c-2.1.3-13.8,12.5-15,14.6s2.9,7.8,7.4,16.6l2.9-.5c-3.5-6.9-7.8-15.6-7.5-16.1s7-9.2,10.6-11.5S42.6,73.2,52.7,97c1.2,2.6-4.7,4.3-15.5,3-.4-.3-4.7-11.7-8.1-18.1l-1.9,1.7a142.9,142.9,0,0,1,8,18.4c1.5,2.9,17.6.9,20.3-2.7a2.4,2.4,0,0,0,.5-1.6C55.6,96.6,25.2,30.4,22.7,29.8Z" style="fill:none"/><polygon points="54.5 83.5 35 40.4 33.8 41 53.3 84.2 54.5 83.5" style="fill:none"/><path d="M82.9,35.1a2.7,2.7,0,0,1,2.3,1.3C84.7,33.1,82.9,35.1,82.9,35.1Z" style="fill:none"/><path d="M22.7,29.8h0c-2.1.3-13.8,12.5-15,14.6s2.9,7.8,7.4,16.6l2.9-.5c-3.5-6.9-7.8-15.6-7.5-16.1s7-9.2,10.6-11.5S42.6,73.2,52.7,97c1.2,2.6-4.7,4.3-15.5,3-.4-.3-4.7-11.7-8.1-18.1l-1.9,1.7a142.9,142.9,0,0,1,8,18.4c1.5,2.9,17.6.9,20.3-2.7a2.4,2.4,0,0,0,.5-1.6C55.6,96.6,25.2,30.4,22.7,29.8Z" style="fill:none"/><path d="M28.9,77H29c0-.1,0-.1.1-.2a.3.3,0,0,1,.1-.2c.2-1.1-6.3-12.5-7-13.3A.2.2,0,0,0,22,63H17.8c-1.6.1-3.1.4-3.3.7s8,18,8.9,18.5,1.9-.9,3.2-2.2a33.2,33.2,0,0,0,2.2-2.7C28.8,77.1,28.9,77.1,28.9,77Z" style="fill:none"/><path d="M83.3,27c5.5,1,6.1,3.5,6.1,3.5a10.6,10.6,0,0,0-6.1-2.6,76.9,76.9,0,0,1-.7,9.2,1.4,1.4,0,0,0,.5.6h-.2a18.7,18.7,0,0,0-5.8,3c-1.7,1.2-2.5,2.2-2.5,2.7.3,2.8,7.9,2.7,7.9,3.8s-1.1,1.5-2.6,2.4-6.1,3-6,4.3c.4,3,6.2,2.5,6.9,3.6S73.6,60.8,74,65a9.9,9.9,0,0,0,2.5,4.3c1.8,1.8,3.2,3.7,8.3,4.5s4.1-5.1,4.1-5.1c.1-3.5-9-3.5-9.2-5.1s5.8-5.4,5.4-7.7-7.1-1-7.4-2.8,2.2-1.7,3.8-2.8,2.6-3,2.5-3.9-7.9-1.3-8.1-3,1.3-3,8-5.4h.2s4.5-7.3,6.2-8.5c0,0,10.1-24.5,11.3-26.6a4.4,4.4,0,0,0-.6-1c.4-1-2.3-2.6-3-1.6H96.6S85.9,21.7,83.3,26Zm-.4,8.1s1.8-2,2.3,1.3A2.7,2.7,0,0,0,82.9,35.1Z" style="fill:#b75326"/><path d="M116.7,70.5,95,21.7l-1.3,3.4c8.6,17.7,18.9,42.2,18.4,44.4S70.3,97.2,67.3,96s-35-72-33.5-74.2S81.5,7.2,84,7.3c.5,0,1.8,2,4.4,7.1l1.8-3.6-3-6.7a2.3,2.3,0,0,0-2.7-1.3c-21.6,6.1-48.8,14-55,16.2-.4.2-2.3,4.1-2.3,4.1l2.1,4.7-1.2.6-2.6-5.8h0l-1.1.3a6.8,6.8,0,0,0-1.9.8C20.9,24.9,5.7,38.2.9,42.8a2.7,2.7,0,0,0-.6,3.3l29.9,61.1a2.8,2.8,0,0,0,2.8,1.6l27.8-2.7c.4-.9.8-1.9,1.1-2.8l-2.7-6.1,1.2-.6,3.1,6.8,1.7,1c2.9-.9,42.2-25.9,50.5-31.6A2.3,2.3,0,0,0,116.7,70.5ZM35,40.4,54.5,83.5l-1.2.7L33.8,41ZM23.4,82.1c-.9-.5-9.3-17.9-8.9-18.5s1.7-.6,3.3-.7H22a.2.2,0,0,1,.2.2c.7.8,7.2,12.2,7,13.3a.3.3,0,0,0-.1.2c-.1.1-.1.1-.1.2h-.1c0,.1-.1.1-.1.2a33.2,33.2,0,0,1-2.2,2.7C25.3,81.2,23.9,82.3,23.4,82.1ZM55.5,99.3c-2.7,3.6-18.8,5.6-20.3,2.7a142.9,142.9,0,0,0-8-18.4l1.9-1.7c3.4,6.4,7.7,17.8,8.1,18.1,10.8,1.3,16.7-.4,15.5-3C42.6,73.2,24.8,30.4,21.1,32.8s-9.8,9.8-10.6,11.5,4,9.2,7.5,16.1l-2.9.5C10.6,52.1,7.3,45,7.7,44.3S20.6,30,22.7,29.7h0c2.5.6,32.9,66.8,33.3,67.9A2.4,2.4,0,0,1,55.5,99.3Z" style="fill:#b75326"/></g></g></svg>