<svg xmlns="http://www.w3.org/2000/svg" viewBox="0 0 109.4 109.4"><title>Asset 3</title><g id="Layer_2" data-name="Layer 2"><g id="Printer"><path d="M.3,58.2c3,1.7,6.3,3.4,9.8,5,0,0,3.5-27.1,8.7-41.1C-3.8,30.6.3,58.2.3,58.2ZM104.5,48.1C99.3,64.1,88.7,83,88.7,83c5.4.8,8.6,1.1,8.6,1.1S118.7,66.8,104.5,48.1ZM18.2,92.9C20,95.8,66,110.8,69.1,109.3s5.1-14,6.8-22.3L23.6,71.7C21.1,78.5,16.9,90.9,18.2,92.9Zm84.9-59.5c-.1-1.7-1.2-3.3-3.1-4.8-3.7,11.1-7.7,21.7-7.7,21.7L31.1,33.9s1.8-8.8,3.9-17.8c-3.7.1-6.5.5-7.6,1-7.1,3.6-13,45.9-13.1,47.1v.7a76.2,76.2,0,0,0,10.5,3.9S67.5,79.9,77,81.3l8,1.2.4-.3S104.1,47.6,103.1,33.4ZM99.3,6.7C97.6,2.6,47.8-1.5,44.9.5s-8.7,31.3-8.7,31.3L87.7,45.6S100.9,10.7,99.3,6.7ZM46.5,5.1l47,7.4-1,3.8L45.7,7.9Zm-1.9,6.7,47,7.5-1,3.8L43.8,14.7Zm-1.9,6.8,47,7.5-1,3.8L41.9,21.5ZM40,28.2l.8-2.8,47.1,7.4-1.1,3.9Z" style="fill:#b75326"/></g></g></svg>