<svg xmlns="http://www.w3.org/2000/svg" viewBox="0 0 33.6 28.4"><title>icn_rotator_asset_11</title><g id="Layer_2" data-name="Layer 2"><g id="Row_4" data-name="Row 4"><path d="M33.6,12.6a5.3,5.3,0,0,0-1.4-3.1c-.3-.2-8.8.2-16.6.7,0-.5-.3-4.4,2.2-5.4S22.2,6,22.2,6s4,2.8,4.7.9S24.7,0,24.7,0h-.2s2.6,4.8,1.7,6.2-2.3,0-4.7-1.8a4.3,4.3,0,0,0-4.2-.8c-.5.2-3.7,2-2.5,6.7-6,.4-11.4,1-12.1,1.5S-.1,26.8,0,27.4s.3.4.5.7,27.6.4,28.4,0S33.7,13.5,33.6,12.6Zm-4.5-.1c.4.3,0,2.6-.3,3.4H25.1l.5-3.3A10.6,10.6,0,0,1,29.1,12.5ZM2.2,23.6,6,23.4l-.3,2.5H2A6.9,6.9,0,0,1,2.2,23.6Zm.4-2.3a5,5,0,0,1,.1-2.4l3.8-.2-.3,2.6H2.6Zm16.5-.4H15.7l.5-2.8,3.2-.2Zm-7.2-2.5H15L14.7,21H11.4Zm-1.5,2.8H7.2l.4-2.7h3.1Zm9.7-.3.4-2.9,3.2-.2-.3,3ZM6.9,23.4h3.3l-.3,2.6H6.5Zm4.2-.2h3.4l-.3,2.7H10.7Zm4.3-.1h3.4l-.3,2.8H15Zm7.7-.3-.3,2.9H19.3l.5-2.9Zm4.8-2.2H24.4l.4-2.9,3.5-.2A9.9,9.9,0,0,1,27.9,20.6Zm-4-4.6H20.8l.5-3.1a13.7,13.7,0,0,1,2.9-.2Zm-4.3.2H16.5l.4-3.1a9.9,9.9,0,0,1,3-.2Zm-8.7.2h-3l.6-3.2a8.4,8.4,0,0,1,2.8-.2Zm12.7,9.3.4-2.9,3.9-.2a9.3,9.3,0,0,1-.6,3.1H23.6ZM15.6,13l-.4,3.3h-3l.5-3.2A12.8,12.8,0,0,1,15.6,13Zm-11.8.6c.2-.3,2.2-.5,3.3-.4l-.4,3.4H3.6c-.1-.1-.1-.1-.1-.2A4.9,4.9,0,0,1,3.8,13.6Z" style="fill:#b75326"/></g></g></svg>