<svg xmlns="http://www.w3.org/2000/svg" viewBox="0 0 29.8 32"><title>icn_rotator_asset_25</title><g id="Layer_2" data-name="Layer 2"><g id="Row_23" data-name="Row 23"><path d="M21.8,8.6c-.7-1-4.5-.5-6.2-.2-2.2-4-4.3-7.3-4.8-7.4S2.6,8.4,6.3,15.9H5.6a3.1,3.1,0,0,0-3.5,2.7,3.2,3.2,0,0,0,1.8,3.6C.5,23.4,0,32,0,32H9.6s-.4-8.3-3.7-9.8a3.4,3.4,0,0,0,2.2-2.7,1.7,1.7,0,0,0,.1-.7c5.1,5.9,12.6,4.7,13.6,3.7s-1-3.9-3-7.9C19.9,13.2,22.5,9.6,21.8,8.6Z" style="fill:#b75326"/><path d="M21.5,3.7h-.1l-.5,1.4H21a5.2,5.2,0,0,1,3.3,6.5h0l1.4.5h0A6.7,6.7,0,0,0,21.5,3.7Z" style="fill:#b75326"/><path d="M23.2,0H23l-.6,1.8h.2a8.5,8.5,0,0,1,4.9,10.3h0l1.7.5h.1A10.3,10.3,0,0,0,23.2,0Z" style="fill:#b75326"/></g></g></svg>