<svg xmlns="http://www.w3.org/2000/svg" viewBox="0 0 30.4 32"><title>icn_rotator_asset_26</title><g id="Layer_2" data-name="Layer 2"><g id="Row_24" data-name="Row 24"><path d="M25.5,5.1A12.5,12.5,0,0,0,20.3,1c-7-3-15.5.9-18.9,8.8S.3,24.2,5.4,28h0s12.7,9.9,21.9-1.5C33.8,18.5,28.5,8.7,25.5,5.1Zm.1,14.8c-3,6.9-10.4,10.3-16.5,7.7S.3,17.2,3.2,10.3,13.6,0,19.7,2.7,28.5,13,25.6,19.9Z" style="fill:#b75326"/><path d="M15.9,10.2c-2.1-.9-4.7.4-5.8,2.9s-.4,5.4,1.6,6.3,4.6-.4,5.8-2.9S17.9,11.2,15.9,10.2Z" style="fill:#b75326"/><path d="M13.2,8c.3-.1.9-2.9-.3-2.8S12.9,8.1,13.2,8Z" style="fill:#b75326"/><path d="M16.3,8.3c.3.1,2-2.3.7-2.6S16,8.3,16.3,8.3Z" style="fill:#b75326"/><path d="M20.5,7.9c-1-.8-2.2,1.8-2,2S21.4,8.8,20.5,7.9Z" style="fill:#b75326"/><path d="M19.6,12.9c.1.3,3.1,0,2.5-1.1S19.4,12.7,19.6,12.9Z" style="fill:#b75326"/><path d="M19.4,15.5c0,.3,2.6,1.8,2.8.5S19.4,15.2,19.4,15.5Z" style="fill:#b75326"/><path d="M18.2,18.6c-.1.3,2,2.3,2.5,1.2S18.2,18.3,18.2,18.6Z" style="fill:#b75326"/><path d="M15.8,20.8c-.2.2.8,3,1.7,2.2S16,20.6,15.8,20.8Z" style="fill:#b75326"/><path d="M13.1,21.8c-.2.1-1.1,2.9.2,2.8S13.4,21.7,13.1,21.8Z" style="fill:#b75326"/><path d="M9.1,23.7c1.2.6,1.7-2.3,1.4-2.4S8,23.1,9.1,23.7Z" style="fill:#b75326"/><path d="M6.3,20.9c.8,1,2.4-1.5,2.2-1.7S5.5,19.9,6.3,20.9Z" style="fill:#b75326"/><path d="M7.8,16.2c-.1-.3-3-.4-2.6.8S8,16.4,7.8,16.2Z" style="fill:#b75326"/><path d="M7.9,13.4c0-.3-2.5-1.7-2.7-.5S7.9,13.7,7.9,13.4Z" style="fill:#b75326"/><path d="M9.1,11.3c.1-.3-1.6-2.7-2.3-1.7S8.9,11.6,9.1,11.3Z" style="fill:#b75326"/><path d="M10.9,9.5c.2-.3-.9-3-1.8-2.1S10.7,9.7,10.9,9.5Z" style="fill:#b75326"/></g></g></svg>