<svg xmlns="http://www.w3.org/2000/svg" viewBox="0 0 27.4 32"><title>icn_rotator_asset_19</title><g id="Layer_2" data-name="Layer 2"><g id="Row_16" data-name="Row 16"><path d="M5.4,15.1A9.3,9.3,0,0,0,4,16.5c-.2-.1-.7-.4-1.1-.2s-3,5.6-2.9,6.4.5.6,1,.8a9,9,0,0,0-.1,2.2c.2,1.3,1.7,4.8,6.5,3.8,2.4-.4,3.5-13.5,2.8-14.4S6.3,14.3,5.4,15.1Z" style="fill:#b75326"/><path d="M24.6,18.3a.4.4,0,0,0-.5,0,9.5,9.5,0,0,0-1.8-2.9c-.8-.9-3.8.6-4.6,1.4s-1.4,13,.8,14.3c4.7,2.6,7-1.2,7.3-2.5a5,5,0,0,0,.1-1.9c.7-.2,1.3-.4,1.4-.9S25.3,18.7,24.6,18.3Z" style="fill:#b75326"/><path d="M25.3,17.4a1.9,1.9,0,0,0,1.6.3C27.2,17.5,30.8,0,14,0-1.3,0,.5,14.9.9,15.1a1.3,1.3,0,0,0,1.2,0C2.4,14.9.7,1.7,13.6,1.8,29.2,1.8,25.1,17.1,25.3,17.4Z" style="fill:#b75326"/></g></g></svg>