<svg xmlns="http://www.w3.org/2000/svg" viewBox="0 0 32 30.7"><title>icn_rotator_asset_22</title><g id="Layer_2" data-name="Layer 2"><g id="Row_19" data-name="Row 19"><path d="M.3,11.1c-.4.6-.4,3.9,0,4.2s9.4.6,9.7,0,.4-3.8,0-4.2S.8,10.5.3,11.1Z" style="fill:#b75326"/><path d="M7.5,10.1C7.4,5,7.3.9,7.2.6S4.1-.2,3.3.6,2.8,5,2.7,10Z" style="fill:#b75326"/><path d="M2.7,16.3c0,6.7.2,13.3.6,13.7s3,.7,3.9,0,.4-6.8.4-13.7Z" style="fill:#b75326"/><path d="M18.5,19.4c0-8.2-.3-18.3-.5-18.8s-3-.8-3.9,0-.6,10.6-.5,18.8Z" style="fill:#b75326"/><path d="M13.7,25.6a26.6,26.6,0,0,0,.4,4.4c.7,1,3.1.7,3.9,0s.4-1.8.4-4.3Z" style="fill:#b75326"/><path d="M29.1,3.7A29,29,0,0,0,28.9.6c-.3-.8-3.1-.8-3.9,0a9.3,9.3,0,0,0-.4,3.1Z" style="fill:#b75326"/><path d="M24.5,9.9c-.1,8.4.1,19.5.5,20.1s3.1.7,3.9,0,.5-11.6.3-20Z" style="fill:#b75326"/><path d="M11.3,20.4c-.5.6-.5,3.9,0,4.3s9.3.5,9.6,0,.4-3.9,0-4.3S11.7,19.8,11.3,20.4Z" style="fill:#b75326"/><path d="M31.7,4.7c-.4-.4-9.2-.6-9.6,0s-.5,3.9,0,4.3,9.4.5,9.6,0S32.2,5.2,31.7,4.7Z" style="fill:#b75326"/></g></g></svg>