<svg xmlns="http://www.w3.org/2000/svg" viewBox="0 0 32 30.1"><title>icn_rotator_asset_13</title><g id="Layer_2" data-name="Layer 2"><g id="Row_5" data-name="Row 5"><path d="M31.5,10.8C29.3,2.8,20.6-1.7,12,.6S-1.7,11.4.5,19.3,11.4,31.9,20,29.5,33.7,18.8,31.5,10.8ZM20.1,12.7a4.6,4.6,0,0,1-2,6.2,4.5,4.5,0,0,1-6.2-1.4,4.5,4.5,0,0,1,1.9-6.1A4.7,4.7,0,0,1,20.1,12.7ZM10,5.8a4.4,4.4,0,0,1,1.6-.6l1.3,4.3a.9.9,0,0,0-.6.3,1,1,0,0,0-.5.5L9,7.1A2.4,2.4,0,0,1,10,5.8ZM2.4,12.1A7.1,7.1,0,0,1,5.3,6.5l6,4.6A4.8,4.8,0,0,0,9.7,14ZM21,24.7,9.7,25.9V25L21,23.5Zm3.5-2.4L7.3,23.9V22.8l17.2-2Z" style="fill:#b75326"/></g></g></svg>