<svg xmlns="http://www.w3.org/2000/svg" viewBox="0 0 32 24.2"><title>icn_rotator_asset_16</title><g id="Layer_2" data-name="Layer 2"><g id="Row_6" data-name="Row 6"><path d="M11,8.1h-.6A2.3,2.3,0,0,0,9.2,6.8H9.1a3,3,0,0,0-.3-.9c-.3-.3-1.6,0-1.9.2s-.2.5-.1,1A3.2,3.2,0,0,0,5.7,8.2h0c-.4.1-.9.1-1,.3a4.4,4.4,0,0,0,.3,2h.8a2.3,2.3,0,0,0,1.1,1.1h.3a2.4,2.4,0,0,0,.3.7,2.5,2.5,0,0,0,1.7-.1,2.2,2.2,0,0,0,.1-1,1.8,1.8,0,0,0,1-1.1l.9-.3C11.4,9.8,11.3,8.2,11,8.1Z" style="fill:#b75326"/><path d="M18.1,6.5a2.1,2.1,0,0,0-3,.8,2.1,2.1,0,0,0,.4,3.1,2.2,2.2,0,0,0,3.1-.8A2.2,2.2,0,0,0,18.1,6.5Z" style="fill:#b75326"/><path d="M21.7,12.4a1.7,1.7,0,0,0-1.8,1.8,1.9,1.9,0,0,0,1.6,2.1,1.9,1.9,0,0,0,1.9-1.9A1.8,1.8,0,0,0,21.7,12.4Z" style="fill:#b75326"/><path d="M11.4,14a1.9,1.9,0,0,0-.1,2.6,1.8,1.8,0,0,0,2.6-.1,1.8,1.8,0,0,0,.2-2.6A1.9,1.9,0,0,0,11.4,14Z" style="fill:#b75326"/><path d="M27.5.5c-1.2-.9-4.6-.4-5.4,0S21.4,1.9,21,2.6s-7.3,1.7-8.1,1.5-1.4-1.5-1.8-2-5-.3-6,.5C-1.2,7.9-.1,22.1.4,23.1s4,1.8,6.2.4,2.8-3.7,3.9-6a2.9,2.9,0,0,0,4.1-.2,2.9,2.9,0,0,0,.6-3.5l3.8-.5h0a2.9,2.9,0,0,0,1.3,3.9,3,3,0,0,0,3-.6c.7,1.8,1.5,3.8,2.3,4a4.3,4.3,0,0,0,4.7-.9C33.5,16.8,31.9,3.8,27.5.5Zm-3.2,4a1.4,1.4,0,0,1,1.5-1.3,1.4,1.4,0,0,1,1,1.7c-.2.8-.9,1.4-1.5,1.3A1.4,1.4,0,0,1,24.3,4.5ZM6.3,13A4.1,4.1,0,0,1,4.6,7.7a3.8,3.8,0,0,1,5-2.1,3.9,3.9,0,0,1,1.8,5.2A4,4,0,0,1,6.3,13Zm7.9,3.9a2.4,2.4,0,0,1-3.3.1,2.3,2.3,0,0,1,.2-3.3,2.4,2.4,0,0,1,3.3-.2A2.4,2.4,0,0,1,14.2,16.9Zm.8-5.7A3.1,3.1,0,0,1,14.4,7a3.1,3.1,0,0,1,4.1-1.1,3,3,0,0,1,.6,4.2A3,3,0,0,1,15,11.2Zm6.4,5.7a2.4,2.4,0,0,1-2.1-2.6,2.3,2.3,0,0,1,2.3-2.4,2.5,2.5,0,0,1,2.2,2.6A2.5,2.5,0,0,1,21.4,16.9Zm3-8.8c-.2.9-.8,1.5-1.5,1.3a1.4,1.4,0,0,1-1-1.7c.2-.8.8-1.4,1.5-1.3A1.4,1.4,0,0,1,24.4,8.1Zm2.7,2.7c-.2.8-.9,1.4-1.5,1.3a1.4,1.4,0,0,1-1-1.7,1.4,1.4,0,0,1,1.5-1.3A1.4,1.4,0,0,1,27.1,10.8Zm2-3.2a1.3,1.3,0,0,1-1.5,1.2c-.7-.1-1.1-.8-1-1.7s.9-1.4,1.5-1.3A1.5,1.5,0,0,1,29.1,7.6Z" style="fill:#b75326"/></g></g></svg>