<svg xmlns="http://www.w3.org/2000/svg" viewBox="0 0 29.8 33.5"><title>icn_rotator_asset_12</title><g id="Layer_2" data-name="Layer 2"><g id="Row_4" data-name="Row 4"><path d="M28.1,0h-.2S30,5.1,29,6.4,26.7,6.1,24.5,4s-3.6-1.4-4.1-1.2-3.9,1.6-3.3,6.4H16l-1.7,5.4h-.1c6.6.1,7.3,1.8,7.3,1.8h0a20.5,20.5,0,0,0,1.1-3c0-.4-.3-3.4-4.1-4H18S17.9,4.8,20.7,4,25,5.7,25,5.7s3.7,3.2,4.6,1.4S28.1,0,28.1,0Z" style="fill:#b75326"/><path d="M5.1,15.1a54.6,54.6,0,0,1,7.2-.6h.2L16,9.1c-2.1,0-4.3.2-5.4.9S1.1,17.7.1,23.8A8.2,8.2,0,0,0,5.7,33c1.7.5,8.9,2.3,12.1-6.2,1.4-3.6,2.5-7.1,3.3-9.3h0C17.7,14.6,5.1,15.1,5.1,15.1Z" style="fill:#b75326"/></g></g></svg>