<svg xmlns="http://www.w3.org/2000/svg" viewBox="0 0 30.8 32"><title>icn_rotator_asset_20</title><g id="Layer_2" data-name="Layer 2"><g id="Row_16" data-name="Row 16"><path d="M5.8,20.9c-.3.5.4,8.2.7,11.1a79.1,79.1,0,0,0,15.7-1.3c.3-3.5,1.2-12.8.8-13.3S6.2,20.2,5.8,20.9Z" style="fill:#b75326"/><path d="M30.6,1.8C29.2.5,26.5,0,23.2,0c-.2,3.3-1.1,12.9-1.9,13.6S6.9,16.8,6.3,16,6.2,5.7,6.3,3C3.4,4.1,1.1,5.2.4,6.2s2,24.9,2.9,25.4l2.1.3C5.1,29.4,4.1,20.6,4.5,20S24,15.7,24.7,16.3s-.6,10.5-.9,14a9,9,0,0,0,3.1-1.4C28.1,27.7,31.9,3,30.6,1.8Z" style="fill:#b75326"/><path d="M12.8,11.2c.3-.4.8-7.1,1-10.1a29.9,29.9,0,0,0-4.3,1c-.2,2.8-.6,9.6-.3,9.9S12.5,11.7,12.8,11.2Z" style="fill:#b75326"/></g></g></svg>