<svg xmlns="http://www.w3.org/2000/svg" viewBox="0 0 109.2 90.2"><title>Asset 2</title><g id="Layer_2" data-name="Layer 2"><g id="Music"><path d="M39.4,17.3a48.3,48.3,0,0,1-12.7-5.5C8.9,2.2,3.4,17.4,3.4,17.4L17,64.6c-1,0-9.9-8.3-10.8-7.9-5.3,1.9-7.9,10.1-5,19.7S12.6,92,20.1,89.8s11.4-12,8.5-21.6c-.3-1-.7-2-1.1-3h0L11.4,20.4h0C36.2,46.2,52.7,21.8,51.9,19,51.5,17.8,44.8,18.6,39.4,17.3Z" style="fill:#b75326"/><path d="M109.2,0,61,1.6,56.3,56.1c-.9-.4-4.2-5.3-5.2-5.4-5.8-.5-11.2,4.2-12.4,13s3.8,16.8,11,17.7,14-5.4,15.2-14.2V66.1H65l4.7-42.6L95.8,23,91.9,61.1c-1.1-.5-5.2-5.6-6.4-5.7-4.3-.4-10.4,4.1-11.6,12.9s3.7,16.8,11,17.7S98.8,80.6,100,71.8C100.2,70.7,109.2,0,109.2,0Z" style="fill:#b75326"/></g></g></svg>