<svg xmlns="http://www.w3.org/2000/svg" viewBox="0 0 16 32"><title>icn_rotator_asset_24</title><g id="Layer_2" data-name="Layer 2"><g id="Row_22" data-name="Row 22"><path d="M15.5,24.5c-2.1-2-9.6,1.3-10.6-.1s3.5-2.5,4.4-5-.3-2.6-.6-3.8a11.4,11.4,0,0,0,3.7-.8c.8-.5,1.2-4.5,1.3-6.4l1-.2s.7-2.9,0-3.1A7.5,7.5,0,0,0,12.1,5c0-1.4,0-3.6-.4-4.1S10.4-.3,9.7.3s-.3,4.8-.3,5.1A19.1,19.1,0,0,0,5.3,6.5c.1-1.1.2-4.3-.3-4.8s-1.5-.1-2,.6-.4,4.4-.3,5.1A7,7,0,0,0,.1,8.8a4.8,4.8,0,0,0,0,1.8l1.4-.2c0,1.4.1,4.9.7,5.4s2.2.3,4.2.1c0,1,.4,2.4-.2,3.3S0,21.3,1.5,25.6s9.4.1,10.6,1.2S10.3,32,10.3,32h2.2S17.6,26.4,15.5,24.5Z" style="fill:#b75326"/></g></g></svg>