<svg xmlns="http://www.w3.org/2000/svg" viewBox="0 0 29.6 32"><title>icn_rotator_asset_21</title><g id="Layer_2" data-name="Layer 2"><g id="Row_19" data-name="Row 19"><path d="M17.9,8c.2-.1,5.2-4.6,5.2-4.8A21.4,21.4,0,0,0,20.3,0c-.7-.1-5.8,4.4-5.8,5S17.6,8.1,17.9,8Z" style="fill:#b75326"/><path d="M28.3,11.6c-.7-1.9-3.2-6.1-3.5-6.1a60.8,60.8,0,0,0-5.6,3.8l3.2,3.3-5.7,4.2-3.9-3.2s1-5.5.5-6.8S5.6.9,5.2.9s-1.1,1-1.1,1.4S8.4,6.8,8.7,7s.6,2.9.6,3.3-1.7,1.6-2.1,1.8a8.7,8.7,0,0,1-3.6.1C3.2,12,1.7,8.4,1.5,8S.2,7.7,0,8s1.7,6.8,2.1,7.2,7.3,1.3,7.3,1.3l2.8,3.6c-4,3-7.6,5.8-7.6,6.3s2.9,4.5,3.8,4.5,3.5-3.2,6.9-6.9c3,3.9,6.2,7.9,6.4,8a13.8,13.8,0,0,0,4.4-.9c.3-.3.6-4.8.5-5.4s-3.5-3.3-7-6.3L24,14.6c1.3,2.3,2.8,6.4,2.9,6.5a2.8,2.8,0,0,0,2-.3C29.3,20.5,30.5,17.2,28.3,11.6ZM21.9,25.7c.7-.5,1.8,0,2.5,1s.7,2.2,0,2.7-1.8.1-2.5-1S21.2,26.2,21.9,25.7Z" style="fill:#b75326"/></g></g></svg>