<svg xmlns="http://www.w3.org/2000/svg" viewBox="0 0 32 25"><title>icn_rotator_asset_18</title><g id="Layer_2" data-name="Layer 2"><g id="Row_11" data-name="Row 11"><path d="M25.9,7.1H22.1c-2.8.2-6.5.5-9.7.9h-.1L11,8.2H9.8l-1.1.2H5.5c-.5.6.2,6.6.7,7h7c2.2,0,4.7-.1,6.8-.3h6c.5-.6.4-7.4,0-8.1Zm-3.6,2a2.2,2.2,0,0,1,2.4,2.2,2.3,2.3,0,0,1-2.5,2c-1.4-.1-2.5-1.1-2.4-2.2A2.2,2.2,0,0,1,22.3,9.1ZM9.7,14.6a2.3,2.3,0,0,1-2.8-1.7A2.2,2.2,0,0,1,9,10.5a2.3,2.3,0,0,1,2.8,1.6A2.3,2.3,0,0,1,9.7,14.6Zm4,.9a4.9,4.9,0,0,0,1.2-4,4.6,4.6,0,0,0-2-3.1l5.3-.5a5.2,5.2,0,0,0-1.3,3,5.4,5.4,0,0,0,2.3,4.3Z" style="fill:#b75326"/><path d="M31.2.4C30.1-1,.9,1.8.2,3.1S.6,23.5,1.3,24.3s28.6,1.1,29.9,0S32.2,1.7,31.2.4ZM11.4,23.3a.9.9,0,0,1-1.2-.5.8.8,0,0,1,.6-1,.9.9,0,0,1,1.2.4A1,1,0,0,1,11.4,23.3Zm3.5-2.4a1,1,0,0,1,.7-1.3,1.2,1.2,0,0,1,1,0l-1.5,1.7A.5.5,0,0,1,14.9,20.9Zm1.5.6a1.4,1.4,0,0,1-.9,0l1.6-1.6v.2A1.1,1.1,0,0,1,16.4,21.5Zm4.1,1.4a.9.9,0,0,1-1.2-.4,1,1,0,0,1,.6-1.1,1.1,1.1,0,0,1,1.2.5A.8.8,0,0,1,20.5,22.9ZM28,20.5a24,24,0,0,1-4.8.6A5.7,5.7,0,0,0,22,18.4c-1-.9-13.2.4-14,1.1s-.4,1.2-.5,1.8a26.9,26.9,0,0,1-4.4-.2c-.6-.6-.9-15-.3-15.9S27.6,1.3,28.5,2.3,29,19.7,28,20.5Z" style="fill:#b75326"/></g></g></svg>