<svg xmlns="http://www.w3.org/2000/svg" viewBox="0 0 24.7 32"><title>icn_rotator_asset_15</title><g id="Layer_2" data-name="Layer 2"><g id="Row_5" data-name="Row 5"><polygon points="15.1 20.7 19.2 26.3 24.6 26.8 24.7 24.6 20.3 24.6 15.1 20.7" style="fill:#b75326"/><path d="M20.8,11.2C18.5,6.9,12.8,5.5,8.2,8S1.6,16,3.9,20.2s7.9,5.8,12.6,3.3h.1L14.3,20l3.8,2.4A9,9,0,0,0,20.8,11.2ZM13,18.5a3.3,3.3,0,0,1-3.9-2.4,3.1,3.1,0,0,1,2.6-3.6,3,3,0,0,1,3.8,2.3A3.2,3.2,0,0,1,13,18.5Z" style="fill:#b75326"/><path d="M17.1,24.3h0c-5.3,2.8-11.8,1.2-14.4-3.8S2.2,9.4,7.6,6.6,19.4,5.4,22,10.3s.9,9.5-2.9,12.7l1.5,1,4-.2C24.7,15,24.3,1.5,23.5.5S1.7,1,.7,2.2-.2,31.3.7,31.8s22.5.2,23.4-.6a8.6,8.6,0,0,0,.4-3.4l-5.7-.9Z" style="fill:#b75326"/></g></g></svg>