<svg xmlns="http://www.w3.org/2000/svg" viewBox="0 0 32 31.3"><title>icn_rotator_asset_23</title><g id="Layer_2" data-name="Layer 2"><g id="Row_21" data-name="Row 21"><path d="M4.3,23.2A22.9,22.9,0,0,0,6.7,25s1.1-9.2,7.7-10.4c0,0,5.2-1.4,10.7,7.4,1.6-1.8,2.7-3.3,2.6-3.5C16-3,2.4,16.9,4.3,23.2Z" style="fill:#b75326"/><path d="M.5,19.6a16,16,0,0,0,2.4,2.1s.2-13.3,11.7-15c0,0,8.4-1.3,14.1,10.4,2-2.5,3.5-4.4,3.3-4.8C14.5-15.6-3.3,11.4.5,19.6Z" style="fill:#b75326"/><path d="M14,17.5c-2.6.7-4.8,3.4-5.9,8.6l2.1,1.5c1.3-5.1,4.6-5.4,4.6-5.4,3.4-.7,5.9,4.8,5.9,4.8l3.2-3.6S19.6,16,14,17.5Z" style="fill:#b75326"/><path d="M15.1,25.3c-2.5.3-3.2,3.5-3.2,3.5,2.1,1.4,4,2.6,4.3,2.5a20.9,20.9,0,0,0,3.2-2.9C17.7,25,15.1,25.3,15.1,25.3Z" style="fill:#b75326"/></g></g></svg>