<svg xmlns="http://www.w3.org/2000/svg" viewBox="0 0 116.8 115.3"><title>Asset 7</title><g id="Layer_2" data-name="Layer 2"><g id="iMac"><path d="M87.9,78.5c-2-1.4-9.9-2.4-12.5-10.2,16.9.9,31.9,1,34.2-.7,5.4-4.1,7.7-56.4,2.8-63.3S28.2.2,23.1,3.8s-5.6,55.6-1.2,58.6c1.5,1.1,12.2,2.5,25.7,3.8a14,14,0,0,1-2.4,4.7c-2.4,2.8-7,3.9-7.2,4.5s.3,5.4,1.4,6.1,46.3,3.9,47.4,2.8S89.1,79.4,87.9,78.5ZM27.5,44.8c-2.2-2.1-.8-30.8,1.1-33.4s74.6-3.9,76.8-.3,2.4,32.7-1.7,35.9S29.6,46.8,27.5,44.8ZM70.3,60.7A5.8,5.8,0,0,1,62.6,64a6.4,6.4,0,0,1-3.4-8.1,5.6,5.6,0,0,1,7.6-3.3A6.5,6.5,0,0,1,70.3,60.7ZM81.7,90.8c-.8-.3-21.8-1.1-41.1-1.5H38.5c-14.8-.3-28.1-.4-29.8.3C4.6,91-.3,109.3,0,110s.6.6,1,1.1,68.1,4.6,70.1,4.1S84.7,96.3,84.7,95.1A6.8,6.8,0,0,0,81.7,90.8ZM54.3,93.9a56.7,56.7,0,0,1,7.1.2l-1.2,4.2L52.7,98Zm5.2,6.8-1.2,3.9-8-.4,1.4-3.8Zm-16-7.2a46.3,46.3,0,0,1,7.4.1l-1.3,4.3-7.7-.4Zm-2.6,6.6,8,.2-1.2,3.8-8.2-.3ZM33,92.9a58.9,58.9,0,0,1,7.2.1l-1.3,4.4-7.5-.3Zm-10.4-.6a55.6,55.6,0,0,1,7,.2L28.3,97l-7.4-.4Zm-11.5-.2c.6-.4,5.6-.3,8.1,0l-1.3,4.4-7.6-.3L9.9,96C9.3,95.3,10.2,92.5,11.1,92.1Zm3.1,16.8-9-.4a4.7,4.7,0,0,1,.7-3.3l9.3.4Zm-6.7-6.5-.4-.2c-.4-.5,0-2.2.6-3.2l9.4.3L16,102.8Zm17.1,7.1-8.5-.5,1.3-3.3,8.2.3Zm-6.1-6.6,1.4-3.5,7.6.3-1.1,3.5ZM35.1,110l-8.6-.4,1.3-3.5,8.4.3Zm-6.2-6.7,1.4-3.6,7.8.3L37,103.7Zm16.9,7.3-8.8-.5,1.4-3.6,8.5.4Zm10.6.5-8.7-.4,1.5-3.7,8.3.3Zm10.9.6h-.1l-9-.5,1.5-3.8,9.4.3C69.1,109,67.9,111.5,67.3,111.7Zm2.2-6.6-8.3-.4h-.4l1.5-3.8,8.7.2C71.2,102,70.2,104.2,69.5,105.1Zm2.8-6.3-8.4-.3-.6-.2L65,94c2.2-.2,7.7,0,8.5.4S73.1,97.8,72.3,98.8Zm29-8.9h0Zm2.5,5.5h0V89.9h-2.9c-4.6.4-6,3.4-6.1,3.9a17.2,17.2,0,0,0,.1,3S96.2,95.2,103.8,95.4Zm5.8-4.4c-.9-.8-3.4-1.1-5.9-1.1l2.1,5.6h.2a76.5,76.5,0,0,1,8.1.9s-14.4-1-19.2,1.8h-.1c.1,2.3.2,5.9.4,9.6.6,8.7,9.6,7.2,11.7,6.8,4.5-1,9-4.7,9.7-9.1C117.7,99.2,111.2,92.3,109.6,91Z" style="fill:#b75326"/></g></g></svg>