<svg xmlns="http://www.w3.org/2000/svg" viewBox="0 0 117 114.5"><title>Asset 1</title><g id="Layer_2" data-name="Layer 2"><g id="Wacom"><path d="M93,41.3a.4.4,0,0,0-.7-.2C87.7,47.5,83.8,53,82,55.8a1,1,0,0,1-.5.4l-.6.3a1.1,1.1,0,0,1-1.5-.3C77.2,52.9,72.6,50,69.1,49a1.3,1.3,0,0,1-.6-2.1c.8-.9,1.6-2,2-2.3s2.1-1.9,2.4-1.9-.6.9-.3,2.8h0c-.1,1.6,3.9,3.3,5.3,3.1S90.8,33.2,90.5,31s-2.3-3.5-3.6-3.2a7,7,0,0,0-2.3,1.1h-.9C69.2,31,36.9,39.8,35,42.8S37,87.3,40,89s50.6-7,53.8-9.6S94.8,55.7,93,41.3ZM84.7,29.9c1-.3,2.8,1,2.8,2s-5.4,8.8-6.3,8.8-4.6-2.7-4.8-3.5S83.7,30.1,84.7,29.9ZM74,41.5c.6-1.5,1.4-3.1,1.8-3.2s4.9,2.4,4.6,3.5A10,10,0,0,1,77,45.7c-.7.3-3.3-1.1-3.7-1.7A10.9,10.9,0,0,1,74,41.5Zm3.4,16.4c-4.3,3.1-4.5,4.1-7.9,6.6s-6,2.4-7.1.7,3.3-11.7,4.5-14.8a.8.8,0,0,1,1.1-.5,21.5,21.5,0,0,1,9.6,6.3A1.1,1.1,0,0,1,77.4,57.9ZM104.1,25c-2.2,3.1-4.6,6.3-6.9,9.4,2.4,16,4.2,45.9,1.5,48.2s-58.6,13.1-62,11.1-8.4-49-5.6-53.3,41.2-14,57.2-15.9l8.6-10C77.6,14.9,4.7,33.1,1.1,37.3S4.5,110.9,9.3,114s93.9-10.7,98.2-15.1S107.9,46.5,104.1,25ZM8.2,44.4c.4-1.4,12.3-4.9,13-4s1.8,4.5.6,5.7S9.9,49.7,8.7,48.8,7.9,45.9,8.2,44.4ZM22.8,55.5c-1.1,1.3-11.9,3.6-13.1,2.7s-.8-2.9-.5-4.4,12.3-4.9,13-4S24,54.3,22.8,55.5ZM7,71.8c1.2-7,6.7-11.9,12.3-10.9s9.3,7.3,8.2,14.2S20.8,86.9,15.2,86,5.9,78.7,7,71.8Zm6.3,20.7c.4-1.5,12.3-4.9,13-4s1.8,4.4.7,5.7-12,3.6-13.2,2.6S13,93.9,13.3,92.5Zm14.6,11.1c-1.1,1.3-11.9,3.6-13.1,2.6s-.8-2.9-.5-4.3,12.3-4.9,13-4S29.1,102.4,27.9,103.6ZM22.4,74.3c-.5,3.5-3.3,6-6.2,5.5s-4.7-3.7-4.2-7.2,3.4-6,6.3-5.5S23,70.8,22.4,74.3ZM107.1,2.2l2.4-.7h.1a9.4,9.4,0,0,1,3.3,1.4,10.3,10.3,0,0,1,2.8,2.6h0V8.6a13.8,13.8,0,0,0-3.6-4.5A15.2,15.2,0,0,0,107.1,2.2Z" style="fill:#b75326"/><path d="M116.7,7.4a3.3,3.3,0,0,1,.1-1.7,7.8,7.8,0,0,0,.2-1.6,3.9,3.9,0,0,0-1.3-2.8A4.4,4.4,0,0,0,112.4,0c-1.3.1-2.1,1.1-3.3,1.3a4,4,0,0,0-2.4.7,3.1,3.1,0,0,0-.7.9l-1.9,2.3c-3.9,4.9-8,9.6-12,14.3L86.6,26l-1.9,2.1c-.1.2-.9.8-.9,1.1s.4.2.6.2a1.5,1.5,0,0,0,.9-.4c.1-.2.1-.4.3-.5s1.2.3,1.6.4a5.1,5.1,0,0,1,2.1,1c1.6,1.4-1.2,5-1.9,6.2s-3.7,5.2-5.7,7.7a33.3,33.3,0,0,1-2.5,2.8,2.6,2.6,0,0,1-1.4,1.1,4.8,4.8,0,0,1-2-.4,4.9,4.9,0,0,1-2.5-2,2.5,2.5,0,0,1-.3-1.9c.1-.4.6-1.3,0-1.5s-1.6.9-2,1.2a13.2,13.2,0,0,0-2.5,2.8,2.6,2.6,0,0,0-.2,2.8c.4.5,1.5.7,2.1,1.1,3.1,1.6,6.7,3.7,8.9,6.5.5.7.5,1.3,1.5,1.1a3.5,3.5,0,0,0,2.3-1.6L85,53.1c3.6-5.2,7.4-10.4,11.2-15.5,6.7-9.1,13.5-18.1,20.3-27.1C117.2,9.5,116.9,8.6,116.7,7.4Zm-1.1,2.1L98.4,32.8c-3.7,5-7.3,9.9-10.9,15l-4,5.6-1.4,2.1c-.3.3-.9.9-1.4.9s-.5-.4-.7-.8a15.7,15.7,0,0,0-3.5-3.3A27.7,27.7,0,0,0,72,49.2a13.1,13.1,0,0,0-2.1-.8l-.8-.2c-.3-.3-.2-.5-.2-.9a2.9,2.9,0,0,1,.9-1.5l2-2.1a4,4,0,0,0,2,3.6c1.1.7,2.9,1.9,4.2,1.4a5.3,5.3,0,0,0,1.4-1.2,22,22,0,0,0,2-2.3c3.1-3.6,6.3-7.5,8.4-11.8.8-1.5,1.4-3,0-4.5s-3.7-1.3-2.4-2.9,2.9-3.3,4.4-5c4.7-5.4,9.5-10.8,13.9-16.5l1.1-1.3c.4-.7.8-.7,1.6-.8a5.3,5.3,0,0,0,1.8-.4,3.7,3.7,0,0,1,2.5-1,3.4,3.4,0,0,1,3,3.9,4.2,4.2,0,0,0-.3,1.9C115.4,7.4,116,9,115.6,9.5Z" style="fill:#b75326"/></g></g></svg>