<svg xmlns="http://www.w3.org/2000/svg" viewBox="0 0 97.3 116.9"><title>Asset 4</title><g id="Layer_2" data-name="Layer 2"><g id="Tablet"><path d="M82.3.5C78.1-3.5,1.4,19.6.1,22.6s16.1,90.6,21.1,93.8,75.1-8.5,76.1-10.8S86.6,4.4,82.3.5ZM41,12.8c.9-1,2.2-1.3,3-.6a2.2,2.2,0,0,1-.3,3c-.9,1-2.2,1.3-3,.6A2.2,2.2,0,0,1,41,12.8Zm17.5,97.4c-2.4,1.9-5.6,1.9-7.3-.1s-1.1-5.3,1.3-7.2,5.6-2,7.3,0S60.9,108.2,58.5,110.2Zm31-17c-.9,1.9-60.3,11.8-64.8,9.2S6.2,33.5,7.4,31,74.2,9,78,12.2,90.4,91.3,89.5,93.2Z" style="fill:#b75326"/></g></g></svg>