<svg xmlns="http://www.w3.org/2000/svg" viewBox="0 0 21 32"><title>icn_rotator_asset_14</title><g id="Layer_2" data-name="Layer 2"><g id="Row_5" data-name="Row 5"><path d="M20.7,8.2,7.5,9.7s-.6,9.3.9,10.2a25.9,25.9,0,0,0,5.1.3c.1,1.5,0,4.7-2.4,5.8s-5.3-1.3-5.3-1.3S.9,21.6.1,23.9s3,8.1,3,8.1h.2S0,26.4,1,24.7s2.7-.1,5.7,1.9,4.4,1.1,5,.8,4-2.3,2.9-7.3c2.5-.2,4.9-.5,5.4-1.1S20.7,8.2,20.7,8.2Z" style="fill:#b75326"/><path d="M19.2,0,8.6,1.2V8.7L19.7,7.5ZM13.5,4.8l-3.6.3V2.3l3.6-.5Zm4.7-.5-3.7.3V1.7l3.7-.5Z" style="fill:#b75326"/></g></g></svg>