<svg xmlns="http://www.w3.org/2000/svg" viewBox="0 0 75.2 105.6"><title>Asset 6</title><g id="Layer_2" data-name="Layer 2"><g id="iPhone_X" data-name="iPhone X"><path d="M18,104.1c5.6,4.5,52.6-2.1,56.7-7.4S59.8,6.5,56.1,2.6,3.4-1.3.4,5.5,12.5,99.6,18,104.1ZM6.2,7.2a57.3,57.3,0,0,1,8.5-1.8c1.1-.1,1.5,4.3,2.7,4.2,6.7-.6,21.1-.6,28-.7,1.3,0-.8-4.7.3-4.7,3.1,0,5.3,0,5.5.3,4.6,9.7,20.3,78,19.5,87.3-.6,6.4-44.2,10-48.2,6.8S2.3,8.9,6.2,7.2Z" style="fill:#b75326"/><path d="M14.5,37.6a16.7,16.7,0,0,1,2.4-6.2,10.5,10.5,0,0,1,11.2-4.1l4.7,1.4a3.5,3.5,0,0,0,2.8-.2l2.5-1c5.6-2.4,10.2-1.2,14.2,2l.5.4c1.1,1.1,1.1,1.1-.2,2.2a9.9,9.9,0,0,0-2.9,9.1,12.9,12.9,0,0,0,7.7,10.1c.5.2.8.4.7,1.1a31.5,31.5,0,0,1-4,9.5c-2.4,3.9-4.7,4.7-9,3.3L43,64.5a10.4,10.4,0,0,0-7.5.8c-3.8,1.8-5.7,1.7-8.6-.7-7.2-6.5-11.6-14.4-12.4-24.1A28,28,0,0,1,14.5,37.6Z" style="fill:#b75326"/><path d="M38.2,16.4a11.2,11.2,0,0,1-2.8,7.4c-.1.1-.2.3-.4.4s-2.5,1.8-3.8,1.4-.8-2-.9-3.1c-.5-4.4,2.2-8.8,6-10,.9-.2,1.3-.1,1.5.9A15.4,15.4,0,0,1,38.2,16.4Z" style="fill:#b75326"/><path d="M49.9,96l-.3-1.2c2.1-.2,3-.6,2.9-1.2a3.1,3.1,0,0,0-1.1-1.5L44.9,85l-3.7,8.2v1.3c.2.9,1.4,1.2,3.7.9l.2,1.2-9.9,1.3-.3-1.2c1.5-.2,2.8-1.3,4.1-3.5l4.6-9.6-9.4-9.8a5.2,5.2,0,0,0-1.9-1.1,4.3,4.3,0,0,0-2.3-.2l-.3-1.2,11.1-1.4.2,1.2c-1.8.2-2.7.7-2.5,1.4s.2.6.6,1l6.2,6.7L48.5,73a2.8,2.8,0,0,0,0-1.3c-.2-1.1-1.2-1.4-3.1-1.2l-.2-1.2L54.9,68l.3,1.2a4.7,4.7,0,0,0-3.6,2.1l-5.1,10,11,11.2c.7.8,1.9,1.1,3.6.8l.2,1.2Z" style="fill:#b75326"/></g></g></svg>