<svg xmlns="http://www.w3.org/2000/svg" viewBox="0 0 32 26.9"><title>icn_rotator_asset_10</title><g id="Layer_2" data-name="Layer 2"><g id="Row_2" data-name="Row 2"><path d="M30.2,6.7c-.9-.9-4.7-1.5-9.2-1.8C20.5,3.1,19.8.7,19.3.3S9.4.5,8.7,1.2A21.1,21.1,0,0,0,6.9,5.4c-2.9.4-5,1-5.5,1.8-2.1,2.9-1.7,18,.3,19s26.8,1.1,28.8-.9S32.7,9.3,30.2,6.7ZM20.1,22.2c-3.8,1.8-8.1.4-9.7-3s.1-7.7,3.8-9.4a7.3,7.3,0,0,1,9.8,3A7.2,7.2,0,0,1,20.1,22.2Z" style="fill:#b75326"/><path d="M14.9,12.6a4.3,4.3,0,0,0-1.5,5.8,4.4,4.4,0,0,0,6,1,4.3,4.3,0,0,0,1.5-5.8A4.4,4.4,0,0,0,14.9,12.6Z" style="fill:#b75326"/></g></g></svg>