<svg xmlns="http://www.w3.org/2000/svg" viewBox="0 0 75.2 105.6"><title>Asset 5</title><g id="Layer_2" data-name="Layer 2"><g id="iPhone"><path d="M74.8,5.5c-3-6.8-52-6.7-55.7-2.9S-3.5,91.5.6,96.7s51.1,11.9,56.6,7.4S77.8,12.4,74.8,5.5ZM35.1,7c1.2-1,19.8-.9,20.5.1s.2,4-.9,5.2-19.3.2-20.4-.9S33.8,8,35.1,7ZM31,97.6c-4.4.7-8.5-1.9-9.1-5.8s2.6-7.7,7-8.4,8.5,1.9,9.1,5.9S35.5,96.9,31,97.6ZM53.5,79c-1.5,1.1-41.4-3-41.8-4.2s10-57.4,11.7-58.3,39.4,2.3,40.5,4S54.9,77.9,53.5,79Z" style="fill:#b75326"/></g></g></svg>