<svg xmlns="http://www.w3.org/2000/svg" viewBox="0 0 707.4 154.5"><title>logo-foot</title><path d="M245.1,24.4l3.8,6.6c-2.5,1.2-1.5,4-1.5,6.4-0.1,5,.1,10,0,15.1-0.2,9.9-.4,19.8-0.7,29.7a21.9,21.9,0,0,1-1.1,6c-0.3.8-1.5,1.3-2.6,2.2,3.5,1.3,2.6,4.1,2.8,6.6s0.6,2.1.6,3.1-0.3,3.3-.4,4.9-0.2,2.3-.3,3.9a16.1,16.1,0,0,1-3.2,1.1,54.5,54.5,0,0,1-7.5.7,26,26,0,0,1-5.3-.7,1.6,1.6,0,0,1-.8-1.2,10.5,10.5,0,0,0-3.7-6.4,5.2,5.2,0,0,1-1.1-2.3c-0.5-1.6-.2-2.9,1.8-3.4a1.9,1.9,0,0,0,1.2-1.4,2.6,2.6,0,0,0-1.3-1.4,6.2,6.2,0,0,0-2.3-.8c-3.6-.3-3.8-3.4-4.9-5.8s-2.3-4.9-3.3-7.4-2.8-5.7-7-5a3.9,3.9,0,0,1,.5-1.6c2.2-1.4,1.3-2.8.3-4.3s-1.2-2.6-1.9-3.8c-1.9-2.8-3.8-5.6-5.8-8.3s-2.2-2.4-3.8-4.2c0,1.3-.1,1.9,0,2.5,0.3,2.7,1.9,5.4-.5,7.9-0.3.3-.1,1.2-0.1,1.8,0,4.1,0,8.2,0,12.3a16.2,16.2,0,0,0,.6,2.8,2.9,2.9,0,0,1,.2,1.3c-1.4,4.2-.6,8.3-0.2,12.5s0.2,7.4.3,11.2a3.3,3.3,0,0,1-.5,1.2l-1.7,3.7,0.4,0.7-8,.3a28.2,28.2,0,0,1-3.6-.4c-1.9-.2-3.4-0.9-3.1-3.2s-0.8-2.7-2-3.7-1.7-4.6.9-5.3,1.8-1.5,1.8-2.9c-0.1-22.8-.1-45.5-0.1-68.3a41.1,41.1,0,0,1,1.1-7.6,2.2,2.2,0,0,1,1.4-1.3,28,28,0,0,1,12.6.4,3.2,3.2,0,0,1,2.6,3.2c0.2,2.4,1.2,3,3.6,2.7h3.3a7.4,7.4,0,0,0-1.5,1.7c-0.4,1.1-1.2,2.6-.8,3.4,2.6,5.5,5.5,11,8.4,16.4,1.1,2.1,3,3.8,3.9,6s3.1,6.9,5.7,9.7a4,4,0,0,0,.9,1c4.3,1.9,6,5.6,7.4,9.7a1.6,1.6,0,0,0,1.2.9,17,17,0,0,0-.7-2.1,7,7,0,0,1,.5-7.2,7.5,7.5,0,0,0,1.1-6.5,34,34,0,0,1-1.2-11.6c0.6-8.2.4-16.4,0.4-24.6,0-2,.5-2.7,2.6-2.6s6.7,0,10,.1c0.8,0,2.1.2,2.2,0.5a8.6,8.6,0,0,1-.2,3.3A4.5,4.5,0,0,1,245.1,24.4Z"/><path d="M57.6,110.3c-1.7.2-2.9,0.4-4,.4H33.8c-2.7,0-3.3-.6-3.9-3.3a4.2,4.2,0,0,0-1.5-1.6l-1.6-1.3a4.4,4.4,0,0,1,1.3-1.4c4.5-1.4,5.4-5.1,5.5-9,0.2-8,.1-16,0-24,0-.9-0.4-1.7-0.5-2.6a2.5,2.5,0,0,1,.2-1.8c1.8-1.7,1.3-2.8-.8-3.7a6.1,6.1,0,0,1-1.2-1.3c4-.2,3.2-2.9,3.2-5.2,0-6.9,0-13.9,0-20.8,0-1.5-.1-2.7-1.9-3.3s-2.3-1.7-1.3-4a17.9,17.9,0,0,0,1.3-4.3c0.5-3.2,1.6-4.1,4.8-4.2,1.1,0,2.2-.7,3.3-0.9a19.2,19.2,0,0,1,3.8-.3l5.4,0.4,5.3,0.9h1.8c6.1,0.1,12.3,0,18.4.4,2.3,0.2,4.5,1.6,6.8,2.4l5.8,1.7a2.9,2.9,0,0,1,1.3,1.3c0.6,1,.8,2.3,1.5,3.1a23.6,23.6,0,0,1,5.3,13.2c1.2,11.5-.9,23-0.3,34.6,0.1,2.7.4,5.5,0.3,8.3-0.1,4.4-1.6,8.2-3,12.1a102,102,0,0,1-4.5,10.1,4.9,4.9,0,0,1-4.4,3.1l-19.5,1.1-5.2.4A5.3,5.3,0,0,1,57.6,110.3ZM76.8,38.1c3-3.3,2.7-4.3-1.2-5.5a16,16,0,0,0-3.7-.9C66.7,31.3,61.5,31,56.2,31s-6.9,2.2-6.9,7,0,11.7,0,17.6a2.5,2.5,0,0,0,.4,1.7c2.1,1.1,1,2.2.2,3.5a6.3,6.3,0,0,0-1.1,2.7c-0.3,4.2-.6,8.5-0.7,12.7s0,7.7,0,11.6c0,1.7.3,3.6-.2,5.1-1.6,4.7.6,8.2,5.5,8.2s11.4-.3,17.1-0.4h0.7a14,14,0,0,0,9.7-10.2A46.7,46.7,0,0,0,82,79.4c0.2-7.8.1-15.7,0-23.5a52.4,52.4,0,0,0-.7-5.8,6.3,6.3,0,0,1,.1-1.1,74.1,74.1,0,0,0,.3-7.5,2.5,2.5,0,0,0-2.8-2.6A5.5,5.5,0,0,1,76.8,38.1Z"/><path d="M165.5,62.9a5.9,5.9,0,0,1,.9,1.9c0.1,4.6.1,9.1,0.1,13.7,0,6.7-.1,13.4.1,20.1,0.1,2.7-1.4,4.4-3.1,6s-2.4,1.8-3.6,2.7a14.4,14.4,0,0,1-9.6,3.4c-7.3-.1-14.6.3-21.9,0.4-3.2,0-6.4-.3-9.5-0.5a2.5,2.5,0,0,1-1.2-.5c-3.6-2.6-7.2-5.1-10.6-7.9a4.8,4.8,0,0,1-1.1-3.2c-0.2-6-.2-12-0.4-18s-0.6-9.2-.7-13.8c-0.1-7.9,0-15.9-.1-23.9a73.2,73.2,0,0,1-.1-8.2c0.9-9.9,3.1-11.8,12.2-15.3a26.2,26.2,0,0,1,10-1.4c4,0,8-.9,12-1.1s8.7-.3,13-0.2a3.9,3.9,0,0,1,2.4,1.8,19,19,0,0,0,10.1,7.7,2.2,2.2,0,0,1,1.3,1.5q0.5,16.6.7,33.2A3.3,3.3,0,0,1,165.5,62.9ZM151.1,40.3c-0.1-2-.1-4-0.3-6s-2.1-4.3-3.9-4.3l-20-.4c-2.6-.1-5.3.5-6.2,2.9s-4.5,4.3-1.2,7.3a2.3,2.3,0,0,1,.1,1.3c0,7.1,0,14.2,0,21.2a5.4,5.4,0,0,1-.9,1.9,8.4,8.4,0,0,1,.9,2.6c0.1,9.9.1,19.8,0.2,29.7a3.3,3.3,0,0,0,1.6,2.5A21.6,21.6,0,0,0,127,100c7.4,0.6,14.9,1.3,21.9-2.3a3.3,3.3,0,0,0,2.1-3.3c-0.1-6.9-.1-13.8,0-20.8,0-1.2.3-2.4,0.3-3.6q0.1-11.1.2-22.2a2.4,2.4,0,0,0-.3-1c-1.4-2.8-.3-4.7,2.7-4.8a8.1,8.1,0,0,0,2-.1,1.5,1.5,0,0,0,.7-1.1,1.3,1.3,0,0,0-.7-1Z"/><path d="M481.2,88c0,4.3.1,8.7,0,13s-1.4,7-4.7,9.3-6.6,1.5-8.2-1.9a17.8,17.8,0,0,1-1.7-6.5c-0.7-11.6-1.3-23.2-1.7-34.8-0.2-5.5.1-10.9,0.2-16.4,0.1-3.6.3-7.3,0.5-10.9,0.2-5.5.4-11.1,0.8-16.6a5.7,5.7,0,0,1,1.8-3.4c2.1-1.9,8.1-2.2,10.4-.7a3.8,3.8,0,0,1,1.6,2.1,37.7,37.7,0,0,1,.9,6.7c0.2,7.5.2,15.1,0.4,22.6a26.3,26.3,0,0,0,.8,6.3,3.3,3.3,0,0,0,2.4,1.8,50.6,50.6,0,0,0,8.2,0,4.8,4.8,0,0,0,2.8-1.6c3.2-3.5,4.4-7.9,4.9-12.5,0.9-7.3,1.7-14.6,2.8-21.8a3.2,3.2,0,0,1,2.3-2,50.7,50.7,0,0,1,7.5-.1c2.3,0.1,4.2,3.6,2.6,5.1-3.3,3-1.7,6.1-.8,9.3a4.2,4.2,0,0,1,.2.9c0.4,6,.9,12.1,1,18.1s-0.8,9.8-.7,14.7,1,8.7,1.5,13,1.2,10.4,1.7,15.5a63.1,63.1,0,0,1,0,8.1,5,5,0,0,1-4.9,4.8,59.9,59.9,0,0,1-6.8,0,4.9,4.9,0,0,1-4.6-4.5c-0.3-6.8-.4-13.7-0.6-20.5a25.4,25.4,0,0,1,0-5.2c0.9-5-2.2-7.7-5.5-10.3a2.5,2.5,0,0,0-1.2-.6c-4.6-.2-9.1.2-13,3.1a3.8,3.8,0,0,0-.9,2.7c-0.1,4.4,0,8.8,0,13.2h0Z"/><path d="M636.6,66.1c0-12.2.1-24.5,0-36.7,0-7.1,3.5-9.4,9.6-9.8a193.2,193.2,0,0,1,24.4,0c5.8,0.4,11.7,2,14.4,8a28.8,28.8,0,0,1,2.3,10.3c0.4,7.3.4,14.6,0.1,21.9s-2.7,10-8.9,11.5a54.6,54.6,0,0,1-21,.9,3.9,3.9,0,0,0-4.8,4.2c0,10.3.1,20.5,0,30.8a13.4,13.4,0,0,1-1.2,5.4c-0.4.8-1.9,1.4-3,1.6s-4.4,0-6.6.1a3.2,3.2,0,0,1-3.8-3,63.3,63.3,0,0,1-1.1-9.2c-0.1-11.9-.1-23.9-0.1-35.8h-0.1Zm35.1-20.8h0c0-2.2-.2-4.4,0-6.6,0.5-5-1.8-6.2-5.7-7.4s-5.7-.3-8.5-0.1a2.5,2.5,0,0,0-2.3,2.9,11.7,11.7,0,0,1-.1,1.6c-0.5,6.3-1.2,12.6-1.5,19a4.3,4.3,0,0,0,2.9,4.5,15.1,15.1,0,0,0,9.8.3c4-1.4,5.5-3.6,5.5-7.7Q671.6,48.5,671.6,45.3Z"/><path d="M605.4,18.2c1.9,0.7,3.6,1.9,5.1,1.8,3.4-.3,4.6,1.6,5.2,4.3s1.3,8,2,12,1.1,5.9,1.6,8.9,0.7,3.9,1.1,5.8c1.5,6,3.1,12,4.5,18a63.1,63.1,0,0,1,1,7.2c0.4,3.5.6,7.1,1.2,10.6s1.4,5.6,2.2,8.5,1.4,3.3,1.1,4.8-1.6,3.1-2.6,4.8a14.5,14.5,0,0,1,2.7,2.1,3.6,3.6,0,0,1,.9,2.7,3.2,3.2,0,0,1-2.2,1.9,39.6,39.6,0,0,1-7.1,0,3.2,3.2,0,0,1-1.9-1.4,31.3,31.3,0,0,1-3-4.8c-1.1-2.4-3-2.9-5.4-3s-6.1-.3-9.1-0.6c-0.6-.1-1.1-0.8-1.7-1.3s-1.2-1.1-1.8-1.1a2.5,2.5,0,0,0-1.7,1.3c-1.8,3.5-3.4,7.2-5.2,10.7a2.4,2.4,0,0,1-1.8.9h-7.3c-2.2-.1-3.1-1.3-2.6-3.5a8.4,8.4,0,0,1,1.1-2.7c1.2-1.8,1-3.4.3-5.3a9.4,9.4,0,0,1-.1-4.2c0.4-3.4,1.1-6.8,1.5-10.2s0.6-7.6,1.1-11.4c0.2-1.4,1.3-2.7,1.7-4.1,1-3.5,1.9-7.1,2.6-10.7s1.7-9.2,2.4-13.8c0.5-2.8.8-5.7,1.3-8.4,1.1-5.2.7-10.9,4.2-15.4,1.5-2,3-4.2,6.2-3.4C603.9,19.4,604.8,18.5,605.4,18.2Zm-0.2,38.9-3.2,4c-2.6,3.4-1.7,7.6-2.4,11.3-1.1,5.6-.9,11.4-1.3,17.2-0.1,1.8.5,2.7,2.4,2.6,3.9-.3,7.8-0.5,11.7-1a2.9,2.9,0,0,0,1.6-2.2,65.5,65.5,0,0,0,.1-7.3,26.5,26.5,0,0,0-.4-5.6c-1-4.1-2.4-8-3.5-12.1S608.8,58.7,605.2,57.1Zm9.6,39.5-2.5,2a27,27,0,0,0,3.7,2.4c0.3,0.1,1.1-1.1,1.7-1.7Zm-15.2.8v0.8l3.6,0.3a2.4,2.4,0,0,0,.5-0.9l-3.1-.7A2,2,0,0,0,599.7,97.4Z"/><path d="M303.9,23.1c-1.6.8-3,2-4.7,2.4-4.7,1-9.5,1.6-14.3,2.3-2.9.4-5.9,0.5-8.8,1a2.8,2.8,0,0,0-1.7,2c-0.5,5.7-.6,11.3-1.1,17s3.3,8.1,7.3,8.9a105.7,105.7,0,0,0,10.8,1.2c1.9,0.2,3.8.2,5.7,0.6s3.8,1.3,4.1,3.7-0.6,5.5-3.3,6.5a23.4,23.4,0,0,1-5.9,1.3c-4.4.4-8.8,0.5-13.1,0.9s-4.5,1.8-4.3,4.7,1.1,5.2,1.2,7.8,0.3,5.5-.5,8-0.1,4.8.6,7c0.2,0.6,1.9.9,3,.9h21.2a28.2,28.2,0,0,1,4.5.4c2.8,0.5,5.3,3.1,5.2,5.3s-2.8,4.7-5.6,4.9c-7.9.5-15.7,1.2-23.6,1.3a145.6,145.6,0,0,1-16.3-1.3,3.9,3.9,0,0,1-3.8-3.8c-0.6-6.5-1.3-13.1-1.7-19.6s-0.4-12.9-.4-19.4q0-12.1.3-24.2c0.2-6.1.5-12.1,0.9-18.2,0.2-3.6,3.9-6.7,8.3-7.1,9.3-1,18.5.2,27.7,0.8a1.5,1.5,0,0,1,1,.4,7.6,7.6,0,0,0,7.1,3.4Z"/><path d="M570.2,23.6c-2.3,2.7-5.4,3.4-8.3,3.9-6.3,1-12.7,1.5-19.1,2.4a3.1,3.1,0,0,0-2.1,2c-0.5,5.6-.6,11.2-1.1,16.8s3.4,8.4,7.5,9.2,7.1,0.7,10.6,1.1a50.1,50.1,0,0,1,5.9.6c2,0.4,3.7,1.4,3.9,3.8s-0.8,5.4-3.4,6.5a16.5,16.5,0,0,1-4.6,1.1l-12.9.9c-6.6.6-6.7,2.8-5.4,8.4a27.2,27.2,0,0,1,.1,13.1c-0.5,1.9.3,4.1,0.9,6.1s1.8,0.9,2.8.9h20.8c1.7,0,3.5.3,5.2,0.4a5.6,5.6,0,0,1,4.9,5.4c-0.1,2.4-2.5,4.7-5.5,4.8l-16.8.9a81.1,81.1,0,0,1-8.4.5,131.1,131.1,0,0,1-14.9-1.5c-1.3-.2-3-2.1-3.3-3.4a53.7,53.7,0,0,1-1.2-9.9c-0.3-5.7-.4-11.5-0.6-17.3s-0.5-8.9-.4-13.4c0.3-13.6.8-27.2,1.2-40.7,0.1-3.8,3.6-6.8,8.2-7.4,9.3-1.2,18.4.3,27.7,0.7a1.9,1.9,0,0,1,1.4.6,7,7,0,0,0,6,3.1A3.8,3.8,0,0,1,570.2,23.6Z"/><path d="M419.5,52.7q0,20,0,39.9c0,6.2,3,9.7,9.2,10.2a25.8,25.8,0,0,0,8.5-.7,5.5,5.5,0,0,0,4.4-5.4,15.3,15.3,0,0,1,.9-4.7,3.1,3.1,0,0,1,2-1.9,61.4,61.4,0,0,1,7.2.8c0.7,0.1,1.5.4,2.2,0.4,3.5,0.2,4,.7,3.5,4.2-1.3,8.2-5.5,13-13.4,15.5s-16.9,1.6-25.2-.1c-4.6-1-8.8-3.4-10.8-8.2a17.4,17.4,0,0,1-1.5-5.6c-0.4-8-.7-16.1-0.7-24.1,0-13.6.3-27.2,0.6-40.8a4.7,4.7,0,0,1,1.1-3c3.5-3.5,7.1-6.8,10.7-10.1a4.5,4.5,0,0,1,2.7-.9c2.7-.1,5.3.1,8-0.1s3.4-.9,5-0.7a59.2,59.2,0,0,1,7.8,1.7,47,47,0,0,1,7.4,2.1c4.8,2.1,7.3,6.4,9,11.1a16.5,16.5,0,0,1,1.1,3.9c0.3,2.9-1.5,5.2-4.4,5.2a76,76,0,0,1-10.6-.8c-0.7-.1-1.4-1.3-1.8-2.1-1.2-2.5,0-5.9-2.6-7.9A8.1,8.1,0,0,0,436,29a61.4,61.4,0,0,0-6.8-.1,8.9,8.9,0,0,0-9,9.2c0,2.4.1,4.9,0.1,7.3s0,4.9,0,7.3h-0.6Z"/><path d="M474,128.3H441.6c-0.4-1.5-.8-3.3-2.9-2.6-0.5.1-.5,1.5-0.9,2.7H420.5a3.4,3.4,0,0,1-1.9-1,1.5,1.5,0,0,1,.1-1.3,3.9,3.9,0,0,1,1.2-.8l0.6,1.5c1.1-3.4,4.4-.7,6.6-2.8l-5.6-1-4-1.2a20.8,20.8,0,0,0-3.5-.7c-1.9-.2-2.1,1.1-2.2,2.7s1.1,1.8,2.2,2a16.7,16.7,0,0,0,2.5,0l-0.2,3.1-5.5-1.3c-1.1-.3-2.2-1-3.4-1.2a2.4,2.4,0,0,0-2.1.6c-1.4,2.2-3.3,1.5-5.2,1.6l-0.5-.6c1.5-1.1,3-2.2,4.4-3.5a11.5,11.5,0,0,0,1.5-1.9c-0.6-.4-1.1-1.2-1.7-1.2a4.5,4.5,0,0,0-2.8.8c-1.7,1.5-3.4,1.3-5.2.3a2.4,2.4,0,0,0-1.8-.3c-0.4.3-.5,1.2-0.7,2.1l-3.6,1.5c-2.9,1.3-3.8.7-3.9-2.4a16.5,16.5,0,0,0-.4-2.1,69.3,69.3,0,0,1,7.9-1c11-.1,22.1-0.1,33.1,0,0.9,0,1.8.7,2.8,1a4.8,4.8,0,0,0,2.1.1c1.2-.3,2.4-1,3.6-1h47.3l11.1,0.3a2.2,2.2,0,0,1,2.3,2c0.2,1,.4,2.6,2.1,2a1.9,1.9,0,0,0,1-3.1,7.3,7.3,0,0,1-.4-1.3,24.4,24.4,0,0,0,3.7.7c1,0,2.1-.4,3.1-0.4,5.7,0.1,11.4.3,17.1,0.3s9.7-.3,14.6-0.4a3.2,3.2,0,0,1,2.1.4c1.6,1.8,3,1.1,4.5,0s5.3-.5,6,0.4c3.2-.3,6-0.8,8.8-0.8h40.2l-2.3,1.8,0.4,0.7,3.2-.8c-0.6,1.5-1,2.4-2.7,1.7a3.7,3.7,0,0,0-3,.1c-2.6,1.7-5.1,2.4-8,.7-0.6-.3-1.8.3-2.7,0.5l0.7,3.1h-14l-1.7-1.6-2.3-2.2-1.4-1.1c-0.3.7-.9,1.9-0.7,2.1s1,2.5,0,2.8-3,.1-4.5-0.1-1.9-.7-2.8-0.6-4.6,1-6.8,1.6l-0.4-.7,1.5-3.4-1.8-1.1a7.1,7.1,0,0,0-.6,2.3c0.3,2-.7,2.4-2.5,2.4H530.4l-2.5-.2,0.8-2.6-0.4-.5c-0.7.4-1.8,0.6-2.1,1.2s-2.3,2.3-4.1,2.2h-5.4L518,125a12.8,12.8,0,0,1-2.2-.6c-0.8-.4-1.5-1-2.4-1.4a15.8,15.8,0,0,0-3.1-1,1.3,1.3,0,0,0-1,.6,2,2,0,0,0,.6,1.2,7.4,7.4,0,0,0,1.4.9c-2.4,2.4-4.9,4.3-8.6,3.5h-1.4c-3.2.6-5.7-1-8.4-2.2s-3.9-.6-5.9-0.6c-0.3,0-.6,1.6-1,2.7h-8.2a17.7,17.7,0,0,0-.7-4.1c-0.4-.9-1.5-2.1-2.3-2s-3.3.6-3.9,1.5,0.2,2.9,1.7,3.7ZM581.7,123c-1.2-.7-1.9-1.5-2.3-1.4a7.8,7.8,0,0,0-1.9,1.8c0.4,0.4,1,1.1,1.3,1A14.1,14.1,0,0,0,581.7,123Zm-40,2.4v0.4l4,0.4-0.4-2.4ZM501,128.2l1.7-1.5c-0.4-.3-1-1-1.2-0.9a7.9,7.9,0,0,0-1.8,1.3Z"/><path d="M618.2,2.2l-2.6-1.5V0.2h38.5c4.2,0,5.7,1.4,6.2,5.6a1.9,1.9,0,0,0,1.2,1.3c1.2,0.1,3.3.1,3.5-.4,0.9-2.2,2.5-1.5,3.9-1.2s2.9-.1,2.3-2.3c1.6,0.2,3.2.1,3.7,2.3a2.8,2.8,0,0,0,1.5,1.1,1.6,1.6,0,0,0,.8-0.6c-0.3-.5-0.7-0.9-1-1.4l-1.2-2a11.8,11.8,0,0,1,2.2,0c1.9,0.4,3.8.9,5.8,1.2s2.5-.9,2.4-3.5h17.5c2.9,0,4.3,1.3,4.5,4.2,0.1,1.3,0,2.5,0,4-3.9.1-7.5,0.6-10.9-1.4-0.5-.3-1.6.1-2.4,0.4s-1.6,1.1-2.5,1.1q-9,.1-18,0a5.6,5.6,0,0,1-2.6-1.2c-1-.6-1.8-1.8-2.5.2a1.9,1.9,0,0,1-1.4,1H639.6l-0.9-.3,0.8-1.7c-0.5-1.1-1-2-1.5-2.9a9,9,0,0,0-1.2-1.3,6.7,6.7,0,0,0-1.4,1.6c-0.2.5,0.1,1.2,0.1,1.8-0.4,2.2-1.4,3.4-3.9,3a35.9,35.9,0,0,0-4.7,0c0.1-2.8-1.2-3-3.2-1.9a1.5,1.5,0,0,1-1.1.2c-2-1.9-4.7-.5-6.8-1.4s-2.2-.2-2.7,1.1a2.9,2.9,0,0,1-3.2,2h-8.7l1.3-1.9c1-1.3,2.1-2.6,2.3-4.4s1.4-2.3,2.9-1.6a50.2,50.2,0,0,1,6.1,3.1C616.1,5,616.9,4.9,618.2,2.2Z"/><path d="M338.9,107l3.1-4.5c-2.2-1.9-3.2,1.7-5.1.9s0.7-6.5,1.6-7.2a2.7,2.7,0,0,1,1.3-.2c2-.1,2.9-1.6,2-3.4s1.2-4.1,2.8-4.1c4.2,0,8.4.3,12.3-1.6a1.2,1.2,0,0,1,1.2.4,2.2,2.2,0,0,1-.2,1.2L357.6,90a6.6,6.6,0,0,0,1.9.2,5.2,5.2,0,0,1,6.2,3.9c1.3,5.4,1,10.5-2.8,15-0.9,1.1-1.1,2.6-1.8,3.9s-1.2,2-1.8,2a45.1,45.1,0,0,1-9-.2c-1.9-.3-3.6-1.6-5.4-2.3S339.5,110,338.9,107Zm16,1c3.1,1.3,4.2.8,4.3-1.6Z"/><path d="M366.1,33.4l1.4-.6,0.4,0.4c-2.5,5.1-1.7,10.5-1.9,15.9s-0.1,9,0,13.5c0,1.5.7,3.1,0.8,4.6s0.1,3.9.4,5.9a19.8,19.8,0,0,0,1.3,3.3,2.8,2.8,0,0,1,.3,1.8,2,2,0,0,1-1.6.8l-8.4-1.1a2.2,2.2,0,0,0-1.5.2c-3.7,2.8-7.8,2.4-12,2.1-1.9-.1-3.7.1-5.6,0.1s-2.4-1.2-2.8-2.5l2-1.4c-1.1-1.2.4-3.4-1.6-4.4s-3.2-3.2-2.5-5.9a9.6,9.6,0,0,1,5.2-6.3c5.6-3.1,11.3-4.2,17.4-1.5l1.5,0.4c2.2,0.6,2.5.1,2.4-2.2a107.2,107.2,0,0,1,.2-11.3c0.2-2.4.7-4.6-.9-6.8s-2.2-2.4-4.1-2.4-2.6-.2-2.6-1.9,1.2-2.4,2.8-2.4,4.6-.1,6.8.1S365,32.9,366.1,33.4Zm-7.4,32.1a30.4,30.4,0,0,1-3.1-1.5c-2.3-1.5-4.5-3-7.4-1.9a76.8,76.8,0,0,0-7.6,3.2c-0.8.4-1.7,2.1-1.4,2.7a15.5,15.5,0,0,0,3.2,3.9c1.1,1.1,2.3,2,3.5,2.9s7.9,1.2,9.7-1.6a7.2,7.2,0,0,1,2.7-2.4c1.6-.8,1.4-2.1,1.2-3.3A8.3,8.3,0,0,0,358.7,65.5Zm3.4,9.4c-1.4-.6-0.9-3.3-3.1-2.3a2.7,2.7,0,0,0-.8,2.4C359.1,76.2,360.4,76.3,362,74.9Z"/><path d="M266.5,124.1a5.5,5.5,0,0,1-5.8.6,4.3,4.3,0,0,0-.9-0.6,12.2,12.2,0,0,0-2.7-.4,1.7,1.7,0,0,0-.4,1.3,10.5,10.5,0,0,0,2.3,2.6c0.4,0.3,1.3.1,2,.1v0.6h-1.9c-11.1,0-22.2.1-33.3-.1-1.6,0-3.2-1-4.8-1.5l-1.9-.3v1.9l-2.1-1.2c-2.3-1.4-3.7-1.2-5.7.8a1.1,1.1,0,0,1-.8.4c-5-1.1-10,1-15.2-.2l0.6-2.1-1.1-.8c-0.5-.4-1.2-0.8-1.2-1.3-0.1-3-2.6-1.8-3.9-2.1s-2,1.3-2.8,2.2a1.8,1.8,0,0,0,.1,1.6c1.1,2.1.8,2.7-1.6,2.8h-7.7c-0.5-3.3-1.8-4.1-8.5-2.5l-5.6-5.5,1.7-.3h15.3c2.7,0,2.8.3,1.9,2.8a4.5,4.5,0,0,0,0,1.3c0,0.4-.1.9-0.2,1.7,2.2-.7,3.1-2.5,3.7-3.9a2.6,2.6,0,0,1,2.9-1.8c1.7,0.1,3.5-.1,5.2,0a33.2,33.2,0,0,1,4.4,1c0.6-2,2.6-.9,4.3-1l0.3,0.7-6.2,2.7c1.1,6.1,4.8,3.9,7.9,2.8,0.1-.7-0.1-1.6.4-2.1s1.3-2.8-.9-3.8h19.2l-1.5,2.7c1.2,0.2,2.4.7,3.2,0.4s3.7-.6,3.2-3.3h14v0.3a6.1,6.1,0,0,1-2.2.4,1.6,1.6,0,0,0-2.2,1.6,3.6,3.6,0,0,0,1,2.7c2.1,1.5,5.5,1.1,7.4-.6a2.2,2.2,0,0,0,.7-1,3.9,3.9,0,0,1,4-3.5h11.9c-0.2,2.6,1,4,3.5,4.1h0Z"/><path d="M151.7,1.6l-4.5.2V2.7h2.2a6.4,6.4,0,0,1,2.3.3c1.6,0.8,3.3,1.7,1.6,4l1.9,1V8.4a44.9,44.9,0,0,1-4.8-.1,2.1,2.1,0,0,1-1.2-1.4c-0.6-2.1-1.6-1.5-2.9-.7a22.2,22.2,0,0,1-3.4,1.4,2.6,2.6,0,0,1-1.2.9H115.1c-7,0-14,.2-21,0.1-4.4-.1-8.7-0.7-13.1-0.8-1.6-.1-3.3.5-5,0.7s-1.1-.4-2.2-0.9l2.3-.8,1.5-1.1a10,10,0,0,0-1.4-1.6l-4-2.6,0.3-.7H90.2a12.6,12.6,0,0,0-.8,1.8,2.4,2.4,0,0,0,0,1.4,1,1,0,0,0,1,.2,1.8,1.8,0,0,0,.8-1.2c-0.7-3,1.3-2.4,2.9-2.4a1.2,1.2,0,0,1,.3.4c0.1,3.5.1,3.5,3.4,2.3a2.8,2.8,0,0,1,1.6-.2,9.5,9.5,0,0,0,6.9-.7c0.8-.4,1.5-1,2.3-1.3a2.9,2.9,0,0,1,1.9-.2c1.9,0.9,4.1,1.6,3.5,4.2,3.1-.3,6-0.5,8.9-0.9a4.2,4.2,0,0,0,2.8-1.5c1-1.9,2.7-2.1,4.4-2.2h19.4a10.7,10.7,0,0,1,2.3.5V1.6Z"/><path d="M344.7,122.2l-1.7-1.9c4.8,1.4,7.7,2.6,7.1,7.5-0.1.5,0.1,1.1,0,1.6s0.7,2.5,2.5,2.2,2.6-.2,3.8-0.5c2.8-.8,4.6,1,6.4,2.6a2.3,2.3,0,0,1,.3,1.5c-1,.3-2.2,1-2.9.7-2.4-1.3-4.8-.8-7.1-0.3s-3.3.8-3.1,3.2-0.6,1.8-1,2.8c-1.3,3.5.6,8.8,5.6,8.3l6.8-.6a3.7,3.7,0,0,0,1.4-1l3.7-3,1,0.5a74.2,74.2,0,0,1-1.1,7.4c-0.1.6-1.6,1.3-2.4,1.3-4.9-.2-9.8-0.7-14.7-0.9a5.8,5.8,0,0,1-5.7-6.2c0.1-2.4.5-4.8,0.8-7.2s-0.6-2.8-2.6-3.1a25.6,25.6,0,0,1-6.6-1.7c-0.7-.3-1.3-2-1.2-2.9s1.2-1.2,2.5-1a27,27,0,0,0,6.7,0c1.7-.2,1.5-1.8,1.5-3.1S344.7,124.4,344.7,122.2Z"/><path d="M158.2,8.1l-0.8-7.7H165c0.3,0.7.6,1.4,0.9,2.2,0.7,2.6.9,2.6,3.3,1.3a2.4,2.4,0,0,1,1.4-.5c2.3,1.7,4.7-.2,7,0.4s2.8,0.1,3.2-2A2.5,2.5,0,0,1,182.6.3c4-.1,8-0.1,12-0.1V0.9a26.6,26.6,0,0,1-3.1.5c-0.8,0-1.7-.3-2.5-0.2a6.3,6.3,0,0,0-1.8.8,5.1,5.1,0,0,0,1,1.9c1.5,1.1,3,2.2,5.2.8s2.3,0,3.1.6c2.9,2.1,3.3,2.1,4.6-1.1,0.4-1,.8-1.6,2-0.9s2.3,0,2.3-1.5S205.9,0,207.4.5l-0.5,2a11.2,11.2,0,0,1,2.9.4,8.3,8.3,0,0,1,1.9,1.7l-1,3.9-3.6.2,0.2-.6a8.8,8.8,0,0,0-2.5-1.6c-1.2-.3-2.7-0.6-3,1.4a1.4,1.4,0,0,1-1.1.6c-3.4.3-6.8,0.1-9.8-1.9s-2.7-1.2-3.5.9a2.1,2.1,0,0,1-1.6,1H173.4a6.4,6.4,0,0,1-1.7-.5c-0.9-.3-1.9-0.9-2.8-0.8a6.6,6.6,0,0,1-6.2-2.4c-1.3-1.6-2.7-1.1-3.4.9A21.8,21.8,0,0,1,158.2,8.1Z"/><path d="M40,2.7L38.6,5.2,29.7,8.3l-0.9.2H10.3C9.6,7.1,9.1,5.1,8.7,5.1a33.2,33.2,0,0,0-6,1.1C0.8,5.2-.9,3.5.5,0c4,0.2,8.1.6,12.2,0.5,2.3-.1,3.7,1.3,5.6,2s3.2,1.1,4.9-.1,2.4-.9,3-0.4,2.2,0.8,3.1-.5a0.9,0.9,0,0,1,.5-0.4c2.9-.3,5.8-0.6,8.7-0.6C39.1,0.5,39.6,2.1,40,2.7Z"/><path d="M333.7,3.3l-1.2-2.9h12.2l4.6-.2h16.4A1.9,1.9,0,0,1,367,1.4c-0.5,2.3,1.1,2,2.4,2.3a3.2,3.2,0,0,1,2.1,1c0.2,0.5-.3,1.4-0.7,2.1s-1.1,1.7-1.4,1.6a28.8,28.8,0,0,1-4.1-2.1,6.9,6.9,0,0,0-1.5-1.1A2.1,2.1,0,0,1,361.8,3c-0.1-1.6-1.1-2-2.4-1.2a26.1,26.1,0,0,0-4.1,3c-2.2,2-7.9,2.7-10.5.5a6.8,6.8,0,0,0-1.6-1.2c-1.8-.7-2.6-0.1-2.7,1.9a1.5,1.5,0,0,1-.2.7L336,5.2l-0.2,3.3-5.4-.6C329.4,4.7,331.8,4.2,333.7,3.3Z"/><path d="M245.7,6.1V8.3L240,7.9a2.5,2.5,0,0,0-.4-1.3,32.8,32.8,0,0,0-6.4-1.2,3.8,3.8,0,0,0-2.9,1.6c-1.1,1.9-2.6,1.3-4.2,1.4,0.5-3.3-.2-3.9-3.5-3.5a13.7,13.7,0,0,1-3.3-.5l2.4-2.6c-2.2.4-4.2,1.3-5-1.4h38.7c-0.7,2.7-1.3,2.8-3.8,1.8S248.3,2,246,1.9l1.7,4.8Z"/><path d="M291.3,3.9c-0.4,2.6-2.2,2.4-4.4,2.1l1.5-3.1c-1.7-2-5.1,1.4-6.2-2.9a6.7,6.7,0,0,0-.5,1.7c0.3,1.7-.6,1.7-1.7,1.2s-1.1-.8-1.7-1.1a8.1,8.1,0,0,0-2-.6,2.1,2.1,0,0,0-.5.8l1.8,1.2a5.9,5.9,0,0,1,2,1.4c0.5,0.8.5,2,.9,3.6a15.4,15.4,0,0,1-3.7.2c-1.6-.3-0.9-1.7-1.1-2.8s-1.2-1.5-1.9-2.2-1.4,1.3-1.4,1.8c0.2,2.7-1.8,3.1-3.5,3.2-3.6.2-7.3,0.1-11,0a6.2,6.2,0,0,1-2.2-.9L264.2,5,259,1a8.4,8.4,0,0,1,2.4-.8c8.4,0,16.9-.1,25.3.2,2.5,0.1,4.9,1.2,7.3,2a2.2,2.2,0,0,1,1.1,1.8c-0.1.6-1.1,1.1-1.7,1.6l-1.4-1.6Z"/><path d="M591,3.5c2.2,0.9,4.4,1.8,3.6,4.8H567.1c1.6-2.6,3.7-3.3,6.4-2.2a3.2,3.2,0,0,0,1.5.4c1.5-2.3,4.2-1.1,6.3-2.2-0.4-2-1.7-2-3.4-2.1s-4.2-.4-6.3-0.7V0.6a10.5,10.5,0,0,1,2-.4h25.1a4.2,4.2,0,0,1,1.6.8c-0.5.5-.9,1.5-1.4,1.5s-3.7.1-5.6,0.1l-2,.2Z"/><path d="M399,5.8a32.5,32.5,0,0,1-4-.5c-1-.2-2.4-3.6-2-4.4a1.7,1.7,0,0,1,1.3-.6h20.5a3.8,3.8,0,0,1,1.4.8c-0.5.3-1,1-1.4,1-2-.3-2.1,1.2-2.6,2.3,2.1,2.5,4.8,2.5,7.6,2.6a7.1,7.1,0,0,1,2.1.8l-0.2.8h-23a11.9,11.9,0,0,1-3.1-.9l0.2-.9,3.3-.4V5.8Z"/><path d="M463.7,4.6l-3.3.5V6h5.8l0.3,1.1c-1.1.4-2.2,1.2-3.4,1.3-3.6.2-7.3,0.1-10.9,0.1s-3.3-.6-1.5-3.7a13.6,13.6,0,0,0-3.3-.2c-2.3.5-4.5,1.1-6.7,1.8-0.6.2-1.2,0.7-1.8,0.9l-5.2,1.3-0.2-.9,3.2-.4-2.9-5.9a6.9,6.9,0,0,1,2.1-1c0.7-.1,2,0.2,2.1.5,0.8,3,4.1,1.4,5.6,3.1a4.3,4.3,0,0,0,1.2-1.6A2.4,2.4,0,0,1,447.4.2H454a1.2,1.2,0,0,1,.7,0C456.8,3.3,460.9,2.3,463.7,4.6Z"/><path d="M609,120.2c1.8,0,3.7-.3,5.3.1s2.1,1.7,3.1,2.7,2.2,1.5,3.3.1l0.4,0.4c1.1,2.8,2.7,3.7,5.5,1.8,0.8-.5,2.3,0,3.5,0s3.5-.3,4.6-2.5l-3.8-2,0.3-.7,5.7,1.6a6.9,6.9,0,0,1-6.9,6.7h-9.2l-0.9-.2-5.2-3-6.3-4Z"/><path d="M563.9,5.1l-1.7,1.5,0.2,0.5a5.4,5.4,0,0,1,1.6-.4,5.6,5.6,0,0,1,1.6.6c-0.4.4-.8,1.1-1.3,1.1h-8c-2.9,0-5.8-.1-8.7,0s-3-.4-3.4-2.4c2.1-2.3,4.2,2,6.7-.3-2.4-1.7-6.7-.3-7.1-4.6,0.9-.9,4.7-1.7,5.4-0.8s0.5,2,.8,3.3l3.6-.6c0.7,0.4,1.6,1.3,1.9,1.2C558.5,2.8,560.9,4.3,563.9,5.1Z"/><path d="M26,123.5l1.9,0.3c1.3,0.3,2.7.4,2.7,2.3a5.6,5.6,0,0,0,1,1.9,7,7,0,0,1-1.6.4c-3.3,0-6.5.1-9.8-.1a4.6,4.6,0,0,1-3-1.4c-1.4-1.7-3.1-1.6-4.9-1.7h0.1c1.4-2.8,3.6-3.8,6.7-3.3,0.6,0.1,1.4-.7,2.1-1.1l-0.2-.7h4.9l0.3,0.4a19.7,19.7,0,0,0-1.9,1.5,11.4,11.4,0,0,0-1.1,1.6h2a3.6,3.6,0,0,0,1-.4H26Z"/><path d="M266.6,124.2c2.9-4.4,7.2-4.4,11.9-3.8l-0.6,1.5,2.9,4.7,0.7-.2c-0.1,1.5-.8,2.1-2.4,2H268.1c1.3-2.3,1.3-4-1.6-4.3h0Z"/><path d="M472.4,8.7l1.5-6.7A55.4,55.4,0,0,1,480.8.3a61.4,61.4,0,0,1,7.5-.1,4.5,4.5,0,0,1,1.8.2,1.7,1.7,0,0,1,.8,1.2,1.2,1.2,0,0,1-.9.8,9.7,9.7,0,0,1-3.2-.6c-2.3-1-3.1-.7-3.4,1.8L483,7.9Z"/><path d="M53.4,3.3L52.1,6.7l2.3,1.1c-3.6,1.7-7.2.7-9.7-2.4-0.7-.9-2.1-1.2-3.5-2A12,12,0,0,1,47.4.2C50.4-.5,51.9,1.4,53.4,3.3Z"/><path d="M494,0.4h16.7c0.3,3,.3,3-2.4,2.9s-2.1.2-1.5,2.1c-1.7.1-3.5-1-4.9,1s-4.6-1.2-4.5-2.5,0-2.5-1.9-2.4C495.2,1.5,494.9,1.1,494,.4Z"/><path d="M68.1,1c-0.2,1.1-.7,2-0.4,2.4A2.6,2.6,0,0,1,67.1,7a4.5,4.5,0,0,1-3.6.4c-1.9-.6-3.8-1.3-3.7-4.1,0-.9-1.6-1.8-2.4-2.7C59.3-.3,67,0,68.1,1Z"/><path d="M121.2,128.4l1.7-1.8h-2l-1.4.4v-1.7a31.7,31.7,0,0,0,4.6.6c0.6,0,1.3-.8,1.9-1.2a20.3,20.3,0,0,0-2.4-2.3c-0.4-.2-1.1,0-1.8.1,1.3-1.8,5.2-3.1,6.7-2.3a1.7,1.7,0,0,1,.6,1.5c-0.6,1.3-.2,2,1,2.5a3.1,3.1,0,0,1,.8.8l-1,.6-1.7,1.1,0.4,0.8c1.6-.3,3.3-0.8,4.9-1a5,5,0,0,1,1.8.5c-0.5.4-.9,1.2-1.4,1.2H121.2Z"/><path d="M296,0.4c1.3,0,2.8-1,3.3,1.2a2.1,2.1,0,0,0,1.3,0c0.9-2,2.7-1.5,4.1-1.3s4.4,0.9,7,1.5l-1.2,1.9h-7.9l0.8,2.3-1.9,1.7a18.5,18.5,0,0,0-1.2-2.8,3,3,0,0,0-1.6-1.4C297.2,3.1,295.9,2.6,296,.4Z"/><path d="M391.2,8.7l-5-1.3,1.4-1.8H385l-2.2-2c1.7-1.6-.2-2.1-1.6-2.8l0.3-.5a31.7,31.7,0,0,1,6,.1,4.2,4.2,0,0,1,2.4,2.4A38.3,38.3,0,0,1,391.2,8.7Z"/><path d="M12.2,125.2A8.3,8.3,0,0,1,3,128.3a2,2,0,0,1-.8-1.6c0.5-.7,1.4-1.6,2-1.5,3.3,0.5,3.4.5,2.6-2.8-0.4-1.6.7-2.2,3-1.8-0.3,2.2-.3,4.2,2.5,4.8H12.2Z"/><path d="M161.3,126.6a8.5,8.5,0,0,1-1.8-2c-1.8-3.9-3.1-4.3-6.8-1.8-0.9.6-1.8,1-2.7,1.5-1.8-2.6-1.2-4,1.6-4.2a45.8,45.8,0,0,1,7.9,0c0.8,0.1,1.8,1.4,2.2,2.3s0.1,2.4.1,3.6Z"/><path d="M111.6,120.7l-2.5,1.6,1.2,2c-0.6,1.3-4.8,1.2-1.3,3.9h-4.9a10.2,10.2,0,0,0,.4-3c-0.2-.8-0.9-1.5-1.7-2.8l3.7,0.7,0.8-.9-2.9-1,0.5-.6h6.6Z"/><path d="M139.1,125.5l1.4,2.7h-1.5l-1.8-3.8a2.8,2.8,0,0,1-.5-1.3c0.3-2.3-.8-1.7-2.1-0.8-0.6-1.1-.8-2.1.7-2.1h7.8C142.2,122.4,142.7,125.3,139.1,125.5Z"/><path d="M601.7,128.4h-0.5c-1.1-.4-3,1-3.4-1.2s2.1-3.4,3.8-3.5h1.6c1.5-.2,3-0.2,3.2,1.6s-1,3.1-3.1,3.1h-1.6Z"/><path d="M87.9,122.5l5.2-.4c-1.3,1-3.4,1.2-2.7,3.6a1.2,1.2,0,0,1-.3.8c-0.6.8-.7,2.1-2.3,2.1s-3.5-.2-4.9-2.4l2.5-3,1.6,1.3,1.7,0.9-0.4-1.7Z"/><path d="M320.7,7.2c-3.9-4.4-4.2-5.9-1.1-6.7V2.4l1-.5A9.8,9.8,0,0,1,322.1.6,15.4,15.4,0,0,1,324.7,3a1.2,1.2,0,0,1-.3,1.1c-0.7.5-1.5,0.7-2.1,1.2A12.4,12.4,0,0,0,320.7,7.2Z"/><path d="M662.5,121.6l-1.7,2.2,5.2,3.5c-3.8,1.8-4.3-2.6-6.6-2.4l-2.2,3.6c-1.2-4.1,3.1-5.3,2.9-8.8Z"/><path d="M647,123.2c-1.6.6-3.1,1-1.6,3.1-2.4,3.5-4.9,2-7.6-.3l2.9-1.2a21.3,21.3,0,0,1,3.1-1.4A16,16,0,0,1,647,123.2Z"/><path d="M432,4.9c-2.5-.9-4.4-1.8-6.3-2.3a4.5,4.5,0,0,0-2.5.3c-1.7.6-1.7,0.7-3.3-1,1.5-.5,3.3-1.8,4.3-1.3s3.9,0.9,5.8,1.5S431,3.5,432,4.9Z"/><path d="M49.1,120.3c2.4-.2,3.1.4,3.1,2.5s0.9,2.8,3,1.9a11.6,11.6,0,0,1,3.1-.8C53.8,127.6,50.3,126.2,49.1,120.3Z"/><path d="M66.3,128.4H61a3.5,3.5,0,0,1-1.3-.8,9.9,9.9,0,0,1,1.3-1.1l2-.9a6.3,6.3,0,0,1,1.8-.7,4.1,4.1,0,0,1,.7,1.4Z"/><path d="M529.3,8.2h-4.1c0.9-1.9,1.6-3.5,2.4-5a2.1,2.1,0,0,1,1.1-.8,1.1,1.1,0,0,1,.6.7C529.4,4.8,529.3,6.5,529.3,8.2Z"/><path d="M543.8,8.4H533.7c0-2.7,2.3-2.5,3.6-3.5l0.4,0.4c-0.2,2.9.2,3.2,2.9,2.2C541.7,7.1,542.9,6.3,543.8,8.4Z"/><path d="M119.8,122.8c-2.6-.2-4.2.7-3.9,3.9H115c-0.3-.8-1.1-1.8-0.9-2.5s1.1-2.5,2.1-2.8,2.4,0.3,3.7.6v0.9Z"/><path d="M77.5,126.6l-3.9,2c-0.3-1.2-1.1-2.7-.8-3S76.2,124.5,77.5,126.6Z"/><path d="M32.7,122.6l3.9,0.7L34,127.6Z"/><path d="M378.7,0.5c-2.8,1.8-5,1.8-7.1-.3Z"/><path d="M362.2,8l-6.2.3a1.1,1.1,0,0,1-.7-0.7,0.9,0.9,0,0,1,.4-0.7C357.3,5.9,360.8,6.5,362.2,8Z"/><path d="M216.7,7.8l2.8-1.4c2.1-1,2.5-.7,2.4,1.9h-5.2V7.8Z"/><path d="M47.3,125.5a10.4,10.4,0,0,1-1.2,2.1,2.4,2.4,0,0,1-1.6.7,12.2,12.2,0,0,1-2.5-.6l0.9-1.6c1.5,1.4,2.5-.1,3.6-0.6h0.7Z"/><path d="M690.2,124.2l-2.1.2c-0.6,0-1.7-.1-1.8-0.4a6,6,0,0,1,.1-2.2,6.7,6.7,0,0,1,1.8.5,15.5,15.5,0,0,1,2.1,1.8h-0.1Z"/><path d="M553.6,0.4h5.5C557.6,2.3,554.5,2.3,553.6.4Z"/><path d="M562.3,0.4h7V1h-7.1V0.4Z"/><path d="M288.7,120.6c-2.1-.2-3.4,2.7-5.9,1.7C284.2,119.2,286.6,120.5,288.7,120.6Z"/><path d="M314.5,8.3H310l0.6-2.9h0.7l0.4,2.4,2.4-1.7Z"/><path d="M26,123.5c-0.4-1.4.4-2,1.6-2.2l3.8-.4c-1.9,1.6-3.4,2.6-5.5,2.5H26Z"/><path d="M78.1,122.5l-2.9,1.8-0.6-.4c0.1-.7,0-2,0.3-2.1a10.4,10.4,0,0,1,2.9-.1Z"/><path d="M288.1,126.9l-2.2-1.7,3.6-2.1Z"/><path d="M609.8,125.8l4.2,1.9C611.4,129.1,609.8,128.5,609.8,125.8Z"/><path d="M295,6.1a21.8,21.8,0,0,1,2.8-1.3,1.4,1.4,0,0,1,1,.9,1.4,1.4,0,0,1-.8,1.1,16.2,16.2,0,0,1-2.8.1Z"/><path d="M384.7,128h-4.2v-0.8h4.3V128Z"/><path d="M700.5,122c-2,2.6-2.1,2.6-4,.4Z"/><path d="M678.9,123.9a2.9,2.9,0,0,1-2.2,4.1,11,11,0,0,0,1.2-1.6A19.2,19.2,0,0,0,678.9,123.9Z"/></svg>