<?xml version="1.0" encoding="utf-8"?>
<!-- Generator: Adobe Illustrator 22.1.0, SVG Export Plug-In . SVG Version: 6.00 Build 0)  -->
<svg version="1.1" xmlns="http://www.w3.org/2000/svg" xmlns:xlink="http://www.w3.org/1999/xlink" x="0px" y="0px"
	 viewBox="0 0 819 651.8" style="enable-background:new 0 0 819 651.8;" xml:space="preserve">
<style type="text/css">
	.st0{clip-path:url(#SVGID_2_);}
	.st1{opacity:0.22;fill:none;stroke:#FFFFFF;stroke-miterlimit:10;enable-background:new    ;}
	.st2{opacity:0.22;fill:#FFFFFF;stroke:#000000;stroke-miterlimit:10;enable-background:new    ;}
	.st3{opacity:0.22;fill:none;stroke:#000000;stroke-width:3;stroke-miterlimit:10;enable-background:new    ;}
	.st4{stroke:#231F20;stroke-miterlimit:10;}
	.st5{fill:#FFFFFF;stroke:#000000;stroke-width:0.5;stroke-miterlimit:10;}
	.st6{fill:#FFFFFF;stroke:#000000;stroke-width:0.75;stroke-miterlimit:10;}
	.st7{fill:#231F20;}
	.st8{fill:none;stroke:#000000;stroke-width:0.75;stroke-miterlimit:10;}
	.st9{opacity:0.33;fill:none;stroke:#231F20;stroke-width:0.9811;stroke-miterlimit:10;}
	.st10{fill:none;stroke:#231F20;stroke-width:3;stroke-miterlimit:10;}
	.st11{fill:none;stroke:#FFFFFF;stroke-width:0.9811;stroke-miterlimit:10;}
</style>
<g id="Layer_1">
	<g>
		<defs>
			<rect id="SVGID_1_" x="-189" y="-154" width="1444" height="640.2"/>
		</defs>
		<clipPath id="SVGID_2_">
			<use xlink:href="#SVGID_1_"  style="overflow:visible;"/>
		</clipPath>
		<g class="st0">
			<g>
				<path class="st1" d="M135,250.4l2.1,6.7 M148.8,245.9l2,6.6 M150.1,237.9l2.2,7 M144.3,231.7l2.3,7.1 M141.9,247.9l2.2,6.9
					 M142.9,240.2l2.2,7 M137.5,233.7l2.3,7.2 M163.8,233.8l2.2,7 M158,227.6l2.2,7.2 M157,235.9l2.3,7.3 M151.2,229.6l2.2,7.2
					 M177.7,229.7l2.2,7 M171.9,223.6l2.2,7.1 M170.9,231.7l2.1,7 M165.1,225.5l2.2,7.2 M191,225.7l2.2,7 M185.2,219.5l2.3,7.2
					 M184.3,228l2.1,7 M178.4,221.5l2.3,7.5 M203.5,229.5l2.4,7.6 M204.9,221.6l2.2,7 M199.2,215.8l2.1,6.7 M198.8,238.2l0.3,1
					 M196.7,231.6l2.1,6.6 M198.1,223.6l2.2,7 M192.4,217.6l2.1,6.9 M210.4,227.5l1.9,6.1 M206,213.3l2.2,7.2 M131.7,227.8l2.3,7.3
					 M145.7,223.6l2.2,7.2 M138.8,225.4l2.3,7.4 M159.4,219.9l2.1,6.9 M152.5,221.9l2.2,6.9 M152.2,220.9l0.3,1 M173.1,215.4
					l2.4,7.4 M166.4,217.5l2.2,7.2 M186.4,211.2l2.4,7.5 M179.6,213.3l2.3,7.4 M200.5,207.8l2.1,6.5 M193.7,209.9l2.2,6.9
					 M125.9,221.6l2.3,7.3 M140,218.2l2,6.5 M133.2,220.3l2,6.4 M153.2,212.6l2.5,8 M146.4,214.7l2.4,7.9 M167.3,209.2l2.3,7.4
					 M160.5,211.3l2.2,7.2 M180.5,205l2.4,7.5 M173.7,207.1l2.4,7.4 M194.7,201.6l2.2,7.2 M187.9,203.7l2.1,6.9 M201,198.1l2.6,8.2"
					/>
				<path class="st1" d="M119.1,223.7l89.1-26.5"/>
			</g>
			<g>
				<path class="st2" d="M205.2,212.5l7.2,5.7l-86.1,25.7l87.7-18.5l-85.6,25.5l87.8-18.4l-85.9,25.7 M121.4,229.7l86.8-33.5
					l-89.1,26.5l21.9,25.7l2.1,6.7 M154.8,243.9l2,6.6 M156.1,235.9l2.2,7 M150.3,229.7l2.3,7.1 M147.9,245.9l2.2,6.9 M149.3,238
					l2.2,7 M143.5,231.7l2.3,7.2 M169.8,231.8l2.2,7 M164,225.6l2.2,7.2 M163,233.9l2.3,7.3 M157.2,227.6l2.2,7.2 M183.7,227.7
					l2.2,7 M177.9,221.6l2.2,7.1 M176.9,229.7l2.1,7 M171.1,223.5l2.2,7.2 M197,223.7l2.2,7 M191.2,217.5l2.3,7.2 M190.3,226l2.1,7
					 M184.4,219.5l2.3,7.5 M209.5,227.5l2.4,7.6 M210.9,219.6l2.2,7 M205.2,213.8l2.1,6.7 M204.8,236.2l0.3,1 M202.7,229.6l2.1,6.6
					 M204.1,221.6l2.2,7 M198.4,215.6l2.1,6.9 M216.4,225.5l1.9,6.1 M212,211.3l2.2,7.2 M137.7,225.8l2.3,7.3 M151.7,221.6l2.2,7.2
					 M144.8,223.4l2.3,7.4 M165.4,217.9l2.1,6.9 M158.5,219.9l2.2,6.9 M158.2,218.9l0.3,1 M179.1,215.4l2.4,7.4 M172.4,215.5
					l2.2,7.2 M192.4,209.2l2.4,7.5 M185.6,211.3l2.3,7.4 M206.5,205.8l2.1,6.5 M199.7,207.9l2.2,6.9 M131.9,219.6l2.3,7.3
					 M146,216.2l2,6.5 M139.2,218.3l2,6.4 M159.2,210.6l2.5,8 M152.4,212.7l2.4,7.9 M173.3,207.2l2.3,7.4 M166.5,209.3l2.2,7.2
					 M186.5,203l2.4,7.5 M179.7,205.1l2.4,7.4 M200.7,199.6l2.2,7.2 M193.9,201.7l2.1,6.9 M207,196.1l2.6,8.2"/>
				<path class="st2" d="M125.1,221.7l89.1-26.5 M129.4,234.9l81.8-24.4l7.2,5.7l-86.1,25.7l87.7-18.5l-85.6,25.5l87.8-18.4
					l-85.9,25.7 M127.4,227.7l-2.3-7l16.9,28.7l2.1,6.7 M155.8,244.9l2,6.6 M157.1,236.9l2.2,7 M151.3,230.7l2.3,7.1 M148.9,246.9
					l2.2,6.9 M150.3,239l2.2,7 M144.5,232.7l2.3,7.2 M170.8,232.8l2.2,7 M165,226.6l2.2,7.2 M164,234.9l2.3,7.3 M158.2,228.6
					l2.2,7.2 M184.7,228.7l2.2,7 M178.9,223.6l2.2,7.1 M177.9,230.7l2.1,7 M172.1,224.5l2.2,7.2 M198,224.7l2.2,7 M192.2,218.5
					l2.3,7.2 M191.3,227l2.1,7 M185.4,220.5l2.3,7.5 M210.5,228.5l2.4,7.6 M211.9,220.6l2.2,7 M206.2,214.8l2.1,6.7 M205.8,237.2
					l0.3,1 M203.7,230.6l2.1,6.6 M205.1,222.6l2.2,7 M199.4,216.6l2.1,6.9 M217.4,226.5l1.9,6.1 M213,212.3l2.2,7.2 M138.7,226.8
					l2.3,7.3 M152.7,222.6l2.2,7.2 M145.8,224.4l2.3,7.4 M166.4,218.9l2.1,6.9 M159.5,220.9l2.2,6.9 M159.2,219.9l0.3,1
					 M180.1,214.4l2.4,7.4 M173.4,216.5l2.2,7.2 M193.4,210.2l2.4,7.5 M186.6,212.3l2.3,7.4 M207.5,206.8l2.1,6.5 M200.7,208.9
					l2.2,6.9 M132.9,220.6l2.3,7.3 M147,217.2l2,6.5 M140.2,219.3l2,6.4 M160.2,211.6l2.5,8 M153.4,213.7l2.4,7.9 M174.3,208.2
					l2.3,7.4 M167.5,210.3l2.2,7.2 M187.5,204l2.4,7.5 M180.7,206.1l2.4,7.4 M201.7,200.6l2.2,7.2 M194.9,202.7l2.1,6.9 M208,197.1
					l2.6,8.2"/>
				<path class="st2" d="M126.1,222.7l89.1-26.5 M130.4,235.9l81.8-24.4l7.2,5.7l-86.1,25.7l87.7-18.5l-85.6,25.5l87.8-18.4
					l-85.9,25.7 M128.4,228.7l-2.3-7"/>
			</g>
			<path class="st3" d="M134,251.4l2.1,6.7 M141.9,241.2l2.2,7 M136.5,234.7l2.3,7.2 M195.7,232.6l2.1,6.6 M130.7,228.8l2.3,7.3
				 M124.9,222.6l2.3,7.3"/>
			<path d="M584.9,45.6c-0.7,3.4-1.1,7.4-2.5,11.1l-16.2,42.4c-2,5-5.4,9.5-10.4,11.7c-3.1,1.4-6.8,1.5-10.2,1.8
				c-6.5,0.5-12.1-3.1-18-5l-39-13.6c-2.8-1-2.8-1-1.8-3.9c9.3-26.7,18.6-53.3,27.9-79.9c0.7-2.1,1.6-2.5,3.7-1.7l54.2,19.9
				c1.8,0.8,3.5,2,5,3.3c2.4,1.9,4.4,4.4,5.6,7.3C584,40.7,584.3,42.9,584.9,45.6z M565,41.1c-0.2-1.9-0.2-3.6-2.2-4.3L535,26.6
				c-1.2-0.4-2-0.2-2.5,1.1l-8.6,23.9c-0.5,1-0.2,2.3,0.9,2.8c0,0,0.1,0,0.1,0.1c1.5,0.9,3,1.9,4.3,3.1c2.1,1.8,2.8,3.9,1.7,6.7
				c-1.9,4.6-3.4,9.3-5.1,13.9c-0.7,1.8-0.2,2.6,1.5,3.2l14.8,5.3c4.8,2,6.2-0.2,7.5-3.6l14.7-39.3C564.6,42.9,564.8,42,565,41.1
				L565,41.1z M149.6,95c4-1.2,7.6,0,10.9,2.1c5,3,9.1,7,11.1,12.7c0.5,1.6,1.3,3,1.7,4.6s1.1,5.8-0.4,8.7c-0.3,0.8-0.5,1.6-0.6,2.4
				c-0.2,1.7,0.6,2.2,2.1,1.5c4.3-2,11.3-0.2,14.2,3.5l10.6,13.8c0.5,0.6,0.9,1.3,1.2,2.1c0.7,3.1,1.2,6.2,1.7,9.3
				c0.4,1.7-0.3,3.4-1.7,4.4c-2.8,2.1-5.4,4.5-8,6.8s-2.4,1.3-3.7-0.3L170,142.7c-2.2-2.8-4-2.9-6.7-0.6l-12.1,10.4
				c-1.7,1.4-1.6,2.5-0.3,4.1l20,25c1.3,1.6,1.2,2.7-0.4,4l-20.2,17.2c-1.5,1.3-2.4,1.2-3.7-0.3l-50.4-62c-1.2-1.5-1.2-2.5,0.3-3.8
				l43.2-38c2.5-2.2,6.3-2.9,9.6-4.2L149.6,95z M159.3,129.9c-0.4-1-0.8-2-1.4-2.9c-3.7-4.7-7.4-9.5-11.1-14.2
				c-1.9-2.4-3.9-2.6-6.2-0.5l-20.9,18.4c-1.7,1.4-1.6,2.6-0.3,4.2l12.7,15.8c1.7,2.2,2.7,2.2,4.9,0.3l19.9-17.4
				C158,132.6,158.6,131.1,159.3,129.9L159.3,129.9z M280.5,98.1c-0.1,5.4-0.5,9.1-2.9,12.6s-6.4,8.6-11.6,10.7
				c-1.2,0.6-2.6,0.8-4,0.5c-5.6-1.7-11.1-0.6-16.6,0.5s-12.6,2.5-18.7,4.4c-6.1,1.9-9,3.8-13.4,6c-1.5,0.7-2.2,0.6-3-0.9
				c-10.5-19.6-21-39.2-31.5-58.7c-0.9-1.7-0.5-2.5,1-3.4l51.2-30c3.6-2,8.1-2.4,12.5-1.7s7.8,3.2,10.8,6.5
				c5.4,6,7.6,13.6,11.3,20.4s8.2,16,12,24.1C279.3,92.4,279.9,96,280.5,98.1z M256.5,97.5c-0.2-0.8-0.5-1.6-0.8-2.3L235.2,55
				c-1.3-2.4-3.2-2.9-5.5-1.5l-24.6,14.4c-2.5,1.5-2.7,1.9-1.3,4.5l7.9,14.9c0.9,1.9,2,3.7,3.2,5.5c0.7,0.7,1.6,1.1,2.6,1
				c2.2-0.2,4.3-0.6,6.4-1.1c2.4-0.5,3.7,0.7,4.7,2.6l6.8,13.2c0.7,1.4,1.5,2,3,1.1l16.1-9.5c0.9-0.5,1.4-1.7,2-2.5V97.5z
				 M719.9,286.7c-1.3-1.7-2.6-3.5-3.7-5.4L694,239.6c-1-1.8-0.7-2.7,1-3.9l64.2-42.3c2.4-1.6,2.7-1.5,3.9,1
				c7.4,15.1,14.8,30.2,22.2,45.3c3.3,6.8,0.8,17.1-4.8,22.1c-8,7.1-17.5,11.7-26.2,17.6l-11.3,7.3c-1.2,0.8-2,0.9-3.1-0.2
				c-1.2-1.2-2.4-2.3-3.8-3.3c-3.1-2.3-6.3-1.1-9.4-0.1S722.7,285.3,719.9,286.7L719.9,286.7z M736.1,268.5c1-0.4,2-0.8,3-1.3
				l8.5-5.4L772,246c2.8-1.8,3.5-3.9,2.3-6.3l-10.9-22.1c-0.9-2-2-2.1-3.7-1L742.2,228c-1.6,1-2.2,2.1-1.5,4
				c0.4,1.4,0.6,2.8,0.7,4.2c0.5,2.3-0.6,4.7-2.7,5.7c-3.8,2.2-7.4,4.8-11.1,7.1c-1.5,0.9-2,2-1.1,3.6l7.2,13.7
				C734.2,267.3,735.3,267.8,736.1,268.5L736.1,268.5z M646.4,171.3c0.1-3.6,1.2-7,3.2-10c5.3-8.5,13.6-14.1,20.4-21
				c4.8-4.9,9.9-9.5,14.9-14.1s8.8-6.2,14-6.3c3.2-0.1,6.7,1.6,9.8,3.2c5.6,2.9,8.2,8.7,12,13.4l24.1,31c1.4,1.8,1.5,2.9-0.3,4.3
				c-1.4,1.1-2.7,2.2-3.9,3.5c-1.3,1.4-2.3,1.2-3.4-0.3l-18.1-23.2l-10.3-13.1c-1.8-2.2-4-2.4-6.1-0.5l-14,13.1
				c-1.8,1.6-1.7,2.9-0.3,4.7l16.1,20.2c1.3,1.6,1.3,2.7-0.3,4s-2.7,2.4-4.1,3.7s-2.2,1-3.2-0.3l-10.1-12.7
				c-1.3-1.7-2.3-1.8-3.8-0.3s-4,3.9-6.2,5.7s-1.7,2.5-0.3,4.2l23,28.4c1.5,1.8,1.4,2.8-0.3,4.3l-13.4,12.1c-1.2,1.1-2,1.3-3.2-0.1
				l-33.2-40.7C646.8,180.6,646.5,175.8,646.4,171.3L646.4,171.3z M37.4,249.9c4.1,0.6,8.1,1.8,11.7,3.8L96.4,280
				c2.6,1.4,2.7,1.8,1.5,4.5l-6.1,12.8c-0.9,2-1.9,2.2-3.7,1.2l-49-26.9l-6-3.3c-2.5-1.3-4.5-0.7-5.6,1.8l-10.5,23
				c-0.8,1.7-0.5,2.8,1.2,3.7l17.8,9.5c1.5,0.8,2.7,0.8,3.7-0.7c0.8-1.1,1.7-2.1,2.7-3c2-2,3.1-2.2,5.6-0.8l20.5,11.1l10.5,5.6
				c1.6,0.8,1.8,1.7,1,3.3c-3.5,7.2-6.9,14.4-10.4,21.6c-0.8,1.6-1.6,1.9-3.2,1.1l-52.6-28l-12-6.5c-1.8-0.9-2.2-2-1.3-3.8
				l20.9-46.9C23.5,254.5,31.5,249.5,37.4,249.9L37.4,249.9z M325.8,42l-1.6-6.2L317,9.6c-0.6-2.1-0.2-3,1.9-3.7l16.9-5.6
				c1.8-0.6,2.6-0.3,3.1,1.6l8.6,33.6c1.6,7.7,0,15-6.1,21c-2.5,2.4-5.1,4.4-8.6,5.1s-2.6,1.6-2,3.7l7.2,26c0.6,2,0.1,2.9-1.9,3.5
				c-5.3,1.6-10.5,3.3-15.6,5.1c-2,0.7-2.8,0.2-3.4-1.8L310,72.6c-0.8-2.9-1.2-3-4-2.2c-7.1,2-13.5,0.9-19.1-4.3
				c-3.1-3-5.4-6.7-6.5-10.9l-8.9-30.5c-0.8-2.9-0.7-3,2-3.9l16-5.3c2-0.7,2.8-0.3,3.4,1.8l7.5,26.8c0.4,1.5,0.9,2.9,1.5,4.3
				c1,2.4,2.9,3.5,5.5,2.7l15-4.8C324.6,45.6,325.5,44,325.8,42z M632.9,166.2l-0.9-4.1c-0.6-5.8-2.5-11.5-5.6-16.5
				c-3.2-5-5.6-10.7-10.6-14.2s-7.8-5-11.8-7.4c-6-3.7-12.4-2.8-18.9-1.8c-1.9,0.4-3.7,0.9-5.5,1.5c-2,0.6-3.2,0-3.3-2
				c-0.1-1.4,0-2.9,0.4-4.3c0.8-3.1,2-6.2,3.5-9.1c7.3-12.6,14.7-25.1,22.3-37.5c2.9-4.7,7-8.6,12.1-10.3c3.3-1.1,7.4-0.7,11-0.1
				c7.9,1.5,13.6,7.4,20.2,11.4l30.8,19.7c1.9,1.2,2.2,2.2,0.8,4c-1.2,1.6-2.3,3.3-3.2,5c-0.9,1.6-1.8,1.7-3.3,0.7L645.6,85
				l-15.2-9.7c-2.4-1.5-4.8-1-6.2,1.4l-10.7,17.5c-1.3,2.2-0.1,3.2,1.5,4.2l22.4,14.1c1.9,1.2,2.2,2.1,0.9,3.9c-1,1.4-2,2.9-2.8,4.5
				c-1,1.8-2,2.1-3.8,0.9l-14.1-8.9c-1.8-1.2-2.8-0.9-3.8,0.9s-3,5.1-4.6,7.6s-0.8,2.9,1,4l30.8,19.2c4.7,3,4,2,1.5,6.1L632.9,166.2
				z M736.5,314.4c4.4-0.6,6.8-3.3,7.6-7.5s1.3-5.9,1.6-8.9s1-2.3,2.2-2.3s1.5,1.1,1.8,1.8l11.7,36.5c1.1,3.4,1.1,3.4,4.4,1.9
				l5.6-2.5c1.9-0.7,2.5-1.9,1.8-4l-7-22.7c-1.9-7.7-1.1-14.8,4.7-20.3c4.5-4.4,10.3-7.4,16.5-8.5c2.8-0.5,6-0.8,8.7,0
				c4.8,1.4,7.9,5.4,9.3,10.1l13.3,45.1c0.6,2.1,0.4,3.3-1.8,4c-1.1,0.4-2.1,0.9-3.1,1.4c-2.8,1.3-2.9,1.2-3.8-1.6l-8-26.9
				l-3.7-12.5c-0.8-2.7-2.5-3.6-5-2.5l-14.3,6.6c-2.4,1.2-3.3,3.9-2.4,6.9l7.6,24.9c2.4,8.3,0.1,15.7-6.2,20.3s-11.6,7-18.4,7.9
				c-5.3,0.7-9.5-1.9-12.5-6c-1.5-2.3-2.7-4.9-3.6-7.5c-1.7-4.6-3-9.3-4.6-13.9c-1.8-5-2.6-10.2-2.4-15.5L736.5,314.4L736.5,314.4z
				 M112.1,219.5l-2.3,12.9c-0.9,4-2,6.2-2.8,9.3s-1.3,7.9,0.3,11.8l3.2,6.7c-5.4,4-11,6.9-17.9,4.8c-2.5-0.7-4.8-1.9-6.9-3.4
				l-33.2-25.8c-4-3.2-7.3-7.5-8.1-12.7c-0.5-3.3,0.1-6.8,0.8-10.1c1.4-6.5,6.2-11,9.8-16.3l22.7-33.1c2-2.8,2.2-2.9,4.9-0.6
				l0.9,0.7c5.1,4.1,4.7,3.1,1.2,8.3l-25.6,37c-1.7,2.5-1.6,4.8,0.7,6.7l14.9,11.8c1.6,1.3,2.6,0.4,3.6-1l13.5-19.2
				c3.4-4.9,3.4-4.9,8.2-1.2l1.1,0.8c1.9,1.3,1.8,2.6,0.5,4.3L92.5,224c-1.6,2.3-1.5,2.7,0.7,4.5l5.9,4.7c1.6,1.3,2.7,1.2,3.9-0.6
				C105.7,228.3,108.8,224.2,112.1,219.5L112.1,219.5z"/>
			<g>
				<path class="st4" d="M75.2,516.8C73.1,500,72,483.1,72,466.2C72,262.7,222.2,97.8,407.5,97.8s335.6,164.9,335.6,368.4
					c0,17-1,33.9-3.2,50.7H75.2V516.8z"/>
				<g>
					<path class="st5" d="M202.1,285.3l-4.9,14.8l-9.5,29.8c-2.3,6.5-5.1,12.8-8.2,18.9c-0.9,1.8-3.6,2.6-5.8,4.2
						c-0.2-0.8-0.3-1.6-0.3-2.4c0.5-6.6-1.5-12.7-4.3-18.5c-1.6-3.5-3.7-6.8-5.2-10.3c-0.7-1.6-0.5-3.6-0.9-5.4
						c-0.4-1.5-0.9-3-1.6-4.4c-0.9-1.7-1.9-3.3-3-4.9l-2.2-3.1c-1.4-2.2-1.2-5,0.5-7c4-5.3,8.3-10.5,15.3-13l5.2,10.2
						c0.7-2.3-0.4-4.6-1.4-6.9s-0.7-2.2,0.3-3.9s5-5.1,5.9-8.9c0.4-2,2.7-3.6,4.3-5.4c4-4.5,7.8-9.3,12.3-13.2s7.3-3.8,11.1-5.6
						c0.8-0.5,1.6-0.8,2.5-1.1c4.5-0.8,7.5-3.5,9.3-8l7.3,7.6c0.5,0.8,0.7,1.9,0.4,2.8l-3.6,12.5l-2.1-5.5c-0.1,0.3-0.2,0.5-0.2,0.8
						c2.7,4.8,0.1,8.9-1.7,13.2s-2.9,9.5-4.6,14.2l-7.3,19.1l-10.8,36.8c-0.5,1.6-1.7,3-2.3,4.6s-0.7,3.8-1.2,5.6l-6.8,23.8
						c-1.3,5-1.8,10.3-2.6,15.4c-0.2,1.8-0.5,3.7-0.9,5.5c-2.6,9.2-3.3,18.6-4.6,28c-0.7,5.1-2.3,10.1-3.4,15.2
						c-0.4,1.7-0.5,3.5-0.3,5.2l2.7,14.6c0.2,1.5-0.1,3-0.3,5c2.1,0.7,4.7,1.3,7,2.3c2.3,0.8,4.8,1.2,7.3,1.1
						c8.3,0.2,16.7,1.5,25,1.7s17.2-0.1,25.7-0.7c5.5-0.4,10.9-1.8,16-2.7c-3-2.5-6.4-4.9-9.3-7.8c-2.4-2.3-4.5-4.9-6.3-7.7
						l-13.9-24.4c-3.3-6.7-6.3-13.6-7.2-21.2c-0.8-6.6-1-13.2-0.4-19.8l3.5-40.6c0.6-8.5,2.7-16.7,4.5-24.9
						c2.8-12.4,6.2-24.5,12.1-35.9c2.1-4.1,3.3-8.8,5.2-13.1c1-2.2,2.2-4.2,3.5-6.2c2.9-4.5,6.6-8.6,8.7-13.4
						c3.7-8.2,11.8-11.6,17.4-17.6c2.1-2.3,4.6-4.2,6.9-6.3l1.9-1.5l3.2,5l0.5-0.3l-1.3-2.6l23.8,14l-9.9,11.1
						c-5.3,5.7-10.8,11.4-12.2,19.4c-0.9,4.9-1.4,9.9-2.1,14.8l-0.5,3.7c-0.4,5.1,0.7,9.9,1.9,14.9c1.7,6.9,2.9,13.9,3.6,21
						c1.1,8.8,1.4,17.6,5.5,25.8c0.7,1.4,0.4,3.4,0.6,5.2c0,0.1,0,0.1,0,0.2l-0.9,13l-12.6,2c-0.4-1.7-1.4-3.9-1.4-6.1
						s1.3-3.1,2.6-4l8.1-5.4c-3.4-0.4-5.8,2-8.6,3.3c-0.1-0.2-0.2-0.4-0.3-0.6l-1-28.4c-0.6-7.6-2-15.2-3-22.8
						c-0.1-0.7-0.3-1.4-0.4-2.1c-0.6-4.3-1.4-8.3-4.3-12s-4.6-11.5-3.6-18c0.3-1.8,0.2-3.6-0.1-5.3c-1.7,3.9-2.3,8.2-1.8,12.4
						c0.6,4.2,2.3,8.2,3.7,12.6l-9.3-7.8l-0.4,0.3c1,1.4,1.8,3.1,3.1,4.2c2.3,1.9,4.8,3.7,7.3,5.3c1.8,1,3,2.6,3.4,4.6
						c1.8,7.7,2.8,15.6,3.1,23.5l0.9,20.2l0.8,9.7c0.2,1.8-0.1,3.7-0.9,5.4c-2,3.4-1.3,6.7,0,10c0.6,1.5,0.9,2.8-0.9,3.9
						c-1,0.8-1.5,2-1.6,3.2c-0.5,6.6,0.5,13.3,3,19.5c0.3-0.5,0.5-1.1,0.6-1.7l-1.9-12.3c-0.2-2-0.4-4.4,0.4-6.2s2.6-2.8,4.2-3.7
						c3.2-1.8,6.8-2.4,10.4-1.8c-2.9,4.7-0.3,8.4,1.6,12.5c1.4,3.5,2.6,7.1,3.6,10.7l-18.9,3.1l1.3,11c1,5.9,0.9,11.9-0.4,17.8
						c-0.6,2.7-0.2,5.7,0.3,8.5l5.1,26c1.4,5.3,3.3,10.4,5.6,15.3l-7.7-26.3h0.5l7,5.5l0.3-0.4c-1.4-1.6-3-3.2-4.6-4.6
						c-2.7-2.1-3.3-5.2-4.1-8.1c-1.6-6.2-1.1-12.5-0.4-18.7s-0.1-14.3-0.9-21.5l-0.6-4c1.3,0.1,2.7,0.2,4,0.1c3.2-0.4,6.4-1,9.6-1.6
						s4.7,0.1,6.4,3.1c2.8,5.1,7.2,8.6,12.1,11.4c1,0.4,1.6,1.4,1.4,2.5l-1.5,19.9c-0.3,3-1.5,6-2.3,9l-5,19.5
						c-0.5,1.9-1.5,1.4-2.5,0.7c-1.4-1-2.9-1.9-4.4-2.7c1.6,1.8,3.4,3.5,4.8,5.5c1.9,2.4,2.9,5.4,2.7,8.4c-0.2,2.3,0.8,4.8,0.7,7.1
						c-0.5,8.7-1.6,17.4-5.7,25.3c-0.9,1.8-1.3,4-2.3,5.8c-0.9,1.5-1.9,2.9-3,4.2c-0.2,0.1-0.4,0.3-0.5,0.5
						c-2.1,5.3-7.2,4.7-11.2,4.7l-67.6,0.2c-12.7,0-25.5,0.1-38.2-0.1c-4.2-0.2-8.3-0.8-12.4-1.7c-2.9-0.5-3.6-2-3.7-4.9
						c-0.4-10.6,1.3-21,3-31.4c0.5-3,0.6-6.1,0.4-9.1c-3.2,4.6-3.8,9.9-4.7,15.7l-1.9-6.2l-1.5-5.3c-1.4-4.4-2.1-9.1-1.9-13.7
						c0.2-6.6-0.7-13.3,0.3-19.8c1.6-10.6,1.2-21.1,1.1-31.6c-0.2-7.9,1-15.7,3.3-23.2c1.6-4.8,3.8-9.4,5.5-14.2l9.1-25.7
						c3.3-8.5,7.2-16.7,9.7-25.5l11.8-40.6C201.9,286.5,202,285.9,202.1,285.3l-0.2,0L202.1,285.3z M200.6,484.5
						c11.3,1.8,22.4,2.3,33.7,0.5l-0.5-7.4h-32.6L200.6,484.5z M264.8,473.4l-27.8,4.2l0.5,7.2l28-2.8L264.8,473.4z M298.1,489.2
						c-4.9-6.5-11.8-11.1-19.6-13.2c-1.8-0.6-3.6-1.4-5.3-2.3l-5.6-3l1.6,10.2l4.9-1.5l4.6-1.4l1.2,9.3c0.6,3,1.8,5.9,2.7,8.8
						c-0.4-3.1-1.6-5.9-2-8.9s-0.1-6.3-0.1-9.6c7.4,2.3,12.6,6.8,17.7,11.7L298.1,489.2z M181.6,482.5V474l-6.7-2
						c-0.3,2.4-0.6,4.2-0.6,6c0,0.8,0.4,1.5,1,2c1.9,1,4,1.7,6.3,2.6V482.5z M296.5,499.4l-0.4,0.4l-8.6-6.6l-0.4,0.5
						c3.9,2.6,6.7,6.7,11.8,8.1c-2.9-5.7-9.5-14-12.1-15L296.5,499.4z M164.4,473.4h0.6l-1.4-26.1h-1L164.4,473.4z M267.4,419.8
						c-7.1,5.1-14.1,10.3-22.3,13.4c8.7-2.2,15.8-7.3,22.3-13.3V419.8z M182.8,472l-0.2,1.1l17.7,1.8V474L182.8,472z M262,433
						c5.1-2.7,7-8.1,10.9-11.9l-0.6-0.5L262,433z M211,179.6l3.2,10.4c0.3,0.8,0.9,1.4,1.6,1.8c4.3,1.5,8.7,3.4,13.1,3.9
						s9.4-5.3,8-10.6c-0.2-1-0.3-2.1-0.4-3.1l18.9-8l-0.4-1l-18.5,7.5c-2.5-3.2-6-4.6-10.5-4.4s-7.4-0.4-11.2-0.3c-1,0-2,1-3,1.5
						c-0.3,0.3-0.6,0.5-1,0.7c-1.8-0.2-3.5-0.5-5.2-1c-1.9-0.6-3.7-1.4-5.6-2.1v-7.8c0-0.4-0.2-0.9-0.5-1.2c-3.7-3.3-3.3-7.7-3.7-12
						c-0.1-1.1-0.3-2.2-0.7-3.3c-1.1-2.2-0.7-4.9,0.9-6.7c3.2-3.7,7.1-6.9,11.4-9.3c9.1-5.2,19.3-6.7,29.2-9.1l9.1-1.8
						c4.4-0.7,8.9,0.4,12.6,2.9c5.1,3.3,10,6.9,14.6,10.9c4.5,3.9,7.7,9.2,9.1,15c1.2,4.9,0.2,9.6-0.7,14.4l-4.7,24.5l-2.4,11.5
						c-0.8,3.7-2,7.4-3.5,10.9c-1.2,2.5-3.4,4.6-5.4,6.7s-4.1,3.8-6,5.8s-6.7,4.4-10.5,6s-7.8,3.9-11.8,5.3
						c-2.8,0.9-5.7,1.2-8.6,0.9c-1.8-0.2-3.5-1.9-5.7-3.2l-12.2,4.2l-14.2,4.3l-13.8,4.3l-13.8,4.8c-4.5,1.9-9.3,3.1-14,4.5
						l-14.3,4.8l-13.5,5l2.1,0.5c-1.9,1.5-0.4,2.8,0.2,4.1c3.6,7.9,8.5,15,14.6,21.2c1.9,2.1,3.6,4.2,5.3,6.5l8.5,10.4
						c2.9,3.4,2.4,5.7,2.8,8.8c0.7,5.8,3.4,10.9,6.1,16c1.8,3.5,2.6,7.4,4.1,11c0.7,1.9-0.4,2.7-1.6,3.2c-4.1,1.8-8.3,3.5-12.6,4.9
						c-2.2,0.5-4.5,0.6-6.7,0.2c-2.1-0.3-4.1-1.2-6.2-1.8c-3-0.8-5.4-3-6.5-5.8l-11.7-29.1c-2.2-5.9-3.6-12.1-5.9-17.9l-8.7-20.8
						c-0.4-0.7-0.6-1.6-0.7-2.4c0-3.2-2.1-5.3-3.6-7.8c-2.9-4.6-5.7-9.4-8.1-14.3c-1.4-3.1-1.3-6.7,0.3-9.7c2.6-5.1,3-10.7,3.8-16.2
						c0.4-1.9,0.9-3.8,1.6-5.6c0.4-0.5,0.9-0.8,1.5-0.9l65.1-18.3l33.3-9.7c0.8-0.3,1.4-0.9,1.7-1.7c0.8-3.2,1.3-6.4,1.7-9.7
						C208.1,179.3,207.9,179.3,211,179.6L211,179.6z M168.5,250.8c0.6,0.1,1.1,0.1,1.7,0l6.8-2.6l17.3-5.7l15.6-4.8
						c0.3-0.1,0.4-0.9,0.5-1.4s-1.7-0.6-2.4-0.4l-33,10.4C172.4,247.1,169.8,247.7,168.5,250.8L168.5,250.8z M158.1,253
						c4.6,0.3,7.2-0.9,9.1-3.9C163.5,249.4,158.8,251.4,158.1,253z M156.2,253.4l-0.4-0.6c-3.8,0.5-4.2,0.7-3.8,2.4L156.2,253.4z
						 M124.5,261.3c-0.5-0.8,2.7-4.3-1-4.5L124.5,261.3z M189.4,462.5l-8-13.7c-1.5-3-0.9-6.3-0.2-9.5l6.2-31l7-26.3l8.7-36.4
						l5.4-18.4c1.8-7.9,5.2-15.2,7.7-22.9c1.5-4.7,2.4-9.6,3.8-14.4c0.8-2.9,2.4-5.6,1.8-8.7c-1.1-5.3,0.8-9.4,4.7-12.8
						c0.6-0.5,0.9-1.2,0.9-2c-0.8-3.6,1.1-6.7,1.7-10c0.2-0.8,0.4-1.5,0.7-2.3h1v8.9c0.2,0.8,0.5,1.6,0.9,2.4c0.7-0.5,1.3-1,1.8-1.7
						c1.1-2.2,2.3-4.3,3.6-6.3c0.5,3.2,2.5,6.4,0,9.4s-1.7,3.5,0,5.5c1.2,1.2,1.2,3.2-0.1,4.4c-0.1,0.1-0.2,0.1-0.2,0.2
						c-5.6,5.2-8.4,11.9-10.3,19.1c-0.8,3.2-2.4,6.1-3.4,9.3c-1,3.2-1.7,6.4-2.1,9.7l-2.3,21.4c-0.5,7.2-0.8,16.9-0.8,25.3
						c0,5.6,1,11.1,1.4,16.7c0.3,4,0.2,8,0.3,12c-0.1,0.6-0.3,1.2-0.6,1.7l-7.2-4.8l-1,13.5l-0.9,22.7c-0.1,3.6,0,7.1,0.4,10.7
						c0.5,3.8-1.4,6.4-3.6,9l-14.1,16.7C191.7,460.9,190.6,461.8,189.4,462.5L189.4,462.5z M239.5,265.4c-0.6-3.6-1.6-6.7-1.7-9.9
						c-0.1-2.1,0.6-4.1,1.9-5.7c5.6-5.6,11.4-10.9,17.4-16.1c6-5.2,12.4-11,17.6-17.6l1.2-1.4l8.4,11.8l-3.5,3.1
						c-6,5.3-11.4,11.4-18,15.8s-10.5,10.1-16.2,14.6c-1.6,1.2-3,2.6-4.6,3.9C241.2,264.5,240.4,265,239.5,265.4L239.5,265.4z
						 M222.7,177.6h5.6c1.9,0.1,5.4,1.4,6.7,4.5s1.2,8.4-2,11.2c-0.7,0.6-1.6,1-2.6,1.1c-4.3,0.4-8.3-1.2-12.2-2.7s-3.4-4.6-4.1-7.4
						c-0.2-0.7-0.2-1.5-0.4-2.3c-0.5-2.6,0.8-4.3,3.5-4.4h5.6L222.7,177.6z M205.5,190.7c-1.9-0.1-3.9,0.3-5.1-0.5
						c-1.6-1.2-2.7-2.8-3.2-4.7c-0.5-2.3-0.1-4.8,0-7.2s0.4-2.1,1.9-1.3h0.5c7.5,1,6.5,1.5,6.6,9
						C206.1,187.6,205.9,189.2,205.5,190.7z"/>
					<path class="st6" d="M569.9,355.8c-1.2,0.6-2.4,1.6-3.6,1.7s-2.8-2.3-2.8-4c0.1-4.1,0.4-8.2,1-12.2c0.4-1.2,1.3-2.2,2.5-2.6
						c7.1-1.9,12.9-6,18.3-10.7c2.9-2.5,6-4.6,9-6.9l0.8-0.5c3.4-1.5,11.4,0,13.9,2.8s2.8,3.5,4.5,5l-3.5-5.2l12.6-4.1l18.5-5.8
						l0.4-0.2c4.2-1.3,4.2-1.3,6,2.6l-0.8-4.2l11.6-3.8c0.8-0.2,1.9,0.9,2.9,1.5c-0.3,0.7-0.8,1.4-1.3,2c-3.2,3-5.3,6.9-6.1,11.2
						c0,0.3,0.2,0.7,0.4,0.9c1.5-5.7,3.4-11,10.5-12.8l-3.5,6.4l0.4,0.3c0.2-0.2,0.4-0.4,0.6-0.6c1.9-4.8,5.9-6.7,10.5-8l18.4-5.4
						l18-5.9c2.9-1,3.5-2.2,2.9-5.7l-51.3,15.8l-2.4-2.8l2.5-1l51.2-15.5l8.1-2.7c0.7-0.3,1.4-0.8,1.9-1.3c0.8-0.8,1.6-1.6,2.5-2.4
						c6.4-4.5,13.2-3.1,17.1,3.7c0.4,1,0.7,2,0.7,3.1c0.6,4.9-0.6,9.6-2.2,14.1c-0.7,2.3-2.7,4-5.1,4.2c-0.7,0.1-1.4,0.3-2.1,0.5
						v9.6c0.3,8.5,0.8,17.1,1.3,25.6c0.1,0.9,0.5,1.7,1.2,2.2c4.7,2.1,5.8,6.1,5.3,10.6l-4,28.4c-0.6,2.9-1.5,5.7-2.9,8.3
						c-2,4.3-5.7,6.1-10.4,7.2s-11.8-2-14.6-6.8c-3.8-6.4-3.8-13.2-3.2-20.1c0.8-9.2,5.4-16.8,11.3-23.6c3.2-3.7,7.2-7.3,13.2-5.8
						v-35.2l-8.5,2.5c-0.4,0.4-0.6,1-0.6,1.6c-0.2,1.8,0,3.7-0.6,5.3c-0.6,1.8-1.8,3.3-3.3,4.4c-2.9,1.6-5.9,3-9,4.2l-22.6,10
						l-16.4,7.7c-3.4,1.3-6.9,2.1-10.5,2.4l1.4-0.5l-0.4-0.4c-0.3,0-0.6,0-0.9,0.1c-3.2,1.8-6.6,1.3-10,1.2s-5.2-2.9-4.4-6.1
						c0.1-0.5,0-1-0.3-1.4l-1,2.3c-0.4-3.7,1.6-6.5,2.8-9.6s2-8.6,1.7-13l-1.8,12.8v0.2c-1.2,2.2-2.8,4.2-3.5,6.5
						c-1.4,4.9-2.4,9.8-3.2,14.8c-2.6,17.2-1.1,33.8,6.6,49.6c1.7,3.5,3.1,7.1,4.3,10.8c0.5,1.7,0.6,3.5,0.4,5.2
						c-5-5.4-9.6-11-11.8-18.1c-1.3,1.6-1.6,2.2-0.4,4.1c2.4,3.9,4.7,7.9,7.7,11.3c3.7,4.1,6.3,9.1,7.5,14.5l9.4,36.2
						c1.8,7.3,0,15-4.9,20.7l-4.9-14.7l-6.4-18.5l-9.2-25.2c-2.3-6.2-4.5-12.5-5.1-19.2l-2.6-24.2c-0.4-6.2-2.4-11.8-4.2-17.6
						s-2.5-13.4,0-20.1c1.1-3.3,1.7-6.7,1.9-10.1l-5,15.1c-0.4,2.1-0.3,4.3,0.3,6.4l3.9,17.3c0.7,3.5,1,7.2,1.4,10.8l3.5,31.6
						c0.3,3.5,0,7.1-1.1,10.5l-13.1,36.4c-0.7,2.4-1.7,4.6-2.9,6.8c-0.8,1.3-2.1,2.1-3.5,2.5c-10.5,1.9-21.1,3-31.2,6.7
						c-4.1,1.5-8.1,3.5-12.3,5.1l-22.8,8.9c-4.5,1.9-8.5,1.1-12.7-0.7c-2.3-1-4.9-1-7.4-1.5s-4.7-1.7-4.7-5.7c0-8-0.4-16.1,0.6-24
						s1.2-16.4,1.5-24.6s1.7-16.4,2.9-24.5s1.9-13.4,3.8-19.9s1.4-10.3,1.4-15.5l-0.7-0.3c-5.5-0.2-6.4-1-6.3-6.6
						c0.1-8.4-3.5-15.2-8.8-21.3c-1.2-1.4-2-3.1-2.1-4.9l0.7-20.9c0.5-6.9,0.4-13.8-0.3-20.6c-1.2-10.5-4.8-20-9.9-29
						c-1-1.5-1.9-3-2.7-4.6c-1.5-3.8-0.3-7.5,1.5-10.9c4.5-8.5,11.8-14.3,19.9-18.7c5.4-3.1,10.3-7,14.6-11.6l1.8-1.8l1.3-0.2
						l-4.3,9.1l7.9,7.2c2.4,2.3,4.7,4.7,6.9,7.3c2.5,3,2.2,7.8-0.3,10.1c3.2,4.7,7.2,5.1,13,2.4c5.5-2.6,10.5-6.4,14.4-11.1
						l11.6,10.9l11.1,9.9c3.5,2.7,6.4,6,8.6,9.8c3.7,6.6,8.2,12.8,12.1,19.3c1.7,3.2,3,6.5,3.9,10c0.2,0.7-0.9,2.4-1.7,2.7
						l-15.4,5.2c-0.3,0.1-0.6,0-0.8-0.1c-7-3.2-12.8-0.6-18,4s-8.9,8.2-14.5,10.7c-2.1,1-4.4,1.7-6.8,2.6c-0.3-3-2.2-3.9-4.5-4
						c-8.1-0.3-16.2,0.4-24.1,2.2c-0.6,0.1-1.1,0.4-1.6,0.7c9.4-0.9,18.8-4,28.6-1c-2.5,5.4-3.8,11.3-4,17.2
						c-0.1,5.9,0.8,11.5,4.4,16.8l-24.5,7.4l0.2,0.5l16.4-4.6l7.1-2.1c1.5-0.3,2.6-1.5,2.7-3c0.4-3.2,1-6.4,1.7-9.6
						C569.2,357.4,569.5,356.6,569.9,355.8c0.6-0.5,1.2-0.9,1.9-1.3c2.2-1.2,4.4-2.7,6.7-3.3s4.4-0.1,6.7-0.1l-0.5,1.3
						c-1.9,4.3-3.7,8.6-3.2,13.4c0.4,3.5,1.1,7,2,10.4c2.4,8.8,3,17.9,1.8,26.9l-2,17c0,0.9-0.4,1.8-0.9,2.5L565,439.8
						c-1.9,1.7-4,3.3-6.1,4.8c9.3-4.9,16.6-12.3,24.1-19.6c-0.3,1.3-0.7,2.6-1.3,3.8c-0.5,0.7-0.8,1.5-1,2.3v8.6
						c0.2,2.8,1.7,2.9,4.3,2.8s3.5-0.9,3.6-3.2s0.3-3.1,0.2-4.6c-0.1-2-0.4-3.9-0.7-5.9c-0.3-0.9-0.6-1.9-0.8-2.8
						c-0.1-1.4,0.1-2.8,0.4-4.1c0.2-1.2,0.7-2.4,1.5-3.4l14.7-15.3c1.7-2,3.3-4.1,4.7-6.3c0.3-0.7,0.4-1.5,0.4-2.3l-16.2,8.6v0.2
						l11.9-4l0.3,0.3l-16.5,17.1c-0.3-0.8-0.4-1.6-0.2-2.4c0.7-5.1,1.7-10.2,2-15.4c0.6-8.3-0.3-16.6-2.6-24.6
						c-1.9-6.6-2.6-13.2,0.9-19.6c0.6-0.9,1.4-1.7,2.3-2.3c-0.1-0.6-0.2-1.3-0.1-1.9c0.2-0.7,0.9-1.3,1-2s0.2-2.3-0.4-2.8
						s-2.5-0.7-3.4,0.6l-0.8,1.2c-1.7,2.8-5.1,4-8.2,2.8c-0.4-0.2-0.8-0.4-1.2-0.4C575,351.5,571.8,352.8,569.9,355.8L569.9,355.8z
						 M583.1,404.2l-21.6,19.9c-0.5,0.6-0.9,1.2-1.2,1.9C569.4,419.8,577.4,412.9,583.1,404.2z M731.2,365.9c-2,2.4-1.7,4.7-0.8,7.3
						C733.4,371.6,733.7,368.3,731.2,365.9z M557.8,295.1l-0.2-0.3l-2.1,1.3l-0.7-7.7v10.1L557.8,295.1z M552.1,304.9h-0.5l-1.9,12
						h0.4L552.1,304.9z M548.6,211.5c-4.1,1.3-7,4.6-11,5.1l-0.4-0.8l2.4-1.7h-1.8l2.7-8.2c-3.8,2-6.7,4.6-10.9,5.5
						c3.1-4.3,3.2-8.7,3.6-13.1c0.2-2.8,0.7-5.5,1.5-8.2c2.4-6.8,2.5-13.7,1.6-20.7c-0.9-8.3-0.1-16.8,2.4-24.8
						c3.9-13.7,13.6-22.4,25.8-28.4c4.4-2.1,9.5-1.3,14.1,0.4c1.5,0.7,3.2,0.7,4.7,0.1c4.9-1.9,10.1-2.7,15.3-2.2
						c2.5,0.3,5,1.1,7.2,2.3c3.9,2.1,7.6,4.4,11.2,7c2.1,1.7,3.9,3.7,5.4,6c3.3,4.6,6.9,9,8.5,14.6c1.4,4.5,2.5,9.1,3.2,13.8
						c0.3,2.7-0.7,5.6-1.5,8.4l-0.6-4.7l-2.6,8.1c-0.7,2.6-1.2,5.4-2.1,8c-0.5,0.9-1.3,1.4-2.3,1.5c-3.5-0.9-6.5,0.3-9.7,1.3
						c-1.5,0.6-3.1,0.7-4.6,0.3c-9.8-4-19.9-3.1-30.1-1.8l-1,0.5h5.4l-1.2,4.8l-1.4,4.7c-0.9,4.1,2,8.3,6.2,8.3c6,0,11.9-0.7,17-4.4
						c1.4-1,2.2-2.7,3.2-4.2l3.4-5.1l0.7,0.2c0.2,1.8,0.4,3.6,0.4,5.4c-0.1,3.8,1.4,6.2,5.2,7.1l1,0.5c-1.3,2-2.5,4-3.5,6.2
						c-2,5-3.6,10.2-5.5,15.3s-3,8.3-6.6,11c-1.6,1-3.4,1.7-5.2,2.1c-1.6,0.4-3.3,0.6-5,0.6c-3.1,0-4.2,2-5,4.4s-1.3,5,0.8,7.6
						c2.7,3.5,5.1,7.2,7.2,11.1c2.8,4.9,5.3,10,7.8,15c0.1,0.6,0.1,1.3-0.1,1.9c-0.7-0.1-1.3-0.3-1.9-0.7
						c-3.9-4.1-7.7-8.3-11.5-12.6c-4.3-4.9-8.3-10-13.5-14s-9-8.3-13.8-12.1s-8.6-6.1-13-9c-1.1-0.6-2.3-1.1-3.6-1.3
						c-1.8-0.4-2-1.5-1.4-3S547.5,214.5,548.6,211.5L548.6,211.5z M531.3,495.3c0.4,0,0.9,0.1,1.3,0.3c5.4,3.8,10.9,2,16.2-0.1
						l23.5-10.1c12.9-5.5,26.7-8.4,40.7-8.8c0.8-0.1,1.5-0.5,1.9-1.1l5-11.2l6-14.8l6.3-20.1c0.4-1.5,0.6-3,0.8-4.5l0.8-0.2l9.2,24
						c2.1,6,3.4,12.2,5.2,18.2l4,11.8l5.3,17.2c0.7,3.2,1.2,6.4,1.3,9.6l1.4,21.8c0,2.5-0.2,4.9-0.5,7.4c-0.1,1.5-0.7,2.1-2.2,1.9
						l-11.4-2l-20-2.6l-30.9-1.5l-34.2-0.8c-8.9,0.2-17.7,1.3-26.6,2.1l-5.3,0.6c-1.4,0.2-1.7-0.7-1.8-1.8c-1-8.2-0.7-16.5,1.1-24.5
						L531.3,495.3z M641.7,302.7l2.1,5.5l-18.4,5.8c-0.7-2.8-1-5.5-2-7.8c-1.6-3.8-3.5-7.4-5.7-10.9c-3.9-6-6.3-12.5-9.1-19
						c-1.2-2.2-0.9-4.9,0.8-6.8c1.8-2.6,3.4-5.4,4.9-8.2c2.3-4,4.6-5,9-3.7l2,0.4c0.7-3.6-2.7-4.8-3.6-7.7c4.8,2.8,10,5.2,14.3,8.7
						s7.8,7,10,11.4c4,7.8,6.9,16.3,10.1,24.5c0.9,2.1,1.3,4.4,2.2,6.6s0.3,2-1.1,2.4l-11.1,3.5c-0.8,0.1-1.5-0.2-2-0.8
						c-0.8-1.3-1.5-2.7-2.1-4.1L641.7,302.7z M591.1,195.7c-5.3,0-8.3-3.7-7-7.9c0.5-2,1.3-4,2.5-5.7c1.2-1.3,2.8-2.1,4.5-2.2
						c5.2-0.1,10.4-0.4,15.4,1.4c2.7,1,3,1.5,2,4.2c-1.8,4.9-5,8.3-10.5,8.9L591.1,195.7z M622.3,181.3c3.2,0,3.7,0.4,2.9,3.4
						s-1.8,5.7-2.7,8.6s-1.4,1.9-3.1,1.5c-4-1-4.7-1.7-4.7-5.8C614.7,182.4,614.6,182.3,622.3,181.3z M613.2,245.9l-10.5-5.8
						l0.3-0.5l10.7,5.5L613.2,245.9z"/>
					<g id="XMLID_1_">
						<g>
							<path class="st7" d="M714,311.8c0,0,5.4-2,5.3-1.3l-0.2,5.6c0,0.4-0.3,1-0.7,1.5c-0.4,0.6-0.8,1.1-1.1,1.3
								C715.4,316.7,714.4,314.8,714,311.8z"/>
						</g>
						<g>
							<path class="st8" d="M714,311.8c0.4,3,1.4,4.9,3.4,7.1c0.3-0.3,0.7-0.8,1.1-1.3c0.4-0.5,0.7-1.1,0.7-1.5l0.2-5.6
								C719.4,309.8,714,311.8,714,311.8z"/>
						</g>
					</g>
					<g>
						<path class="st5" d="M508.8,352.5c0.4,0.5,0.9,0.9,1.5,1.3c4.8,2.2,8.3,6.3,9.8,11.3c1.7,6.2,1.6,12.8-0.4,19
							c-0.4,1.3-1.8,2.2-2.7,3.3c-0.3,0.3-0.5,0.6-0.7,0.9c-2,5.2-6.1,8.3-10.3,11.6s-10.5,5.1-16.1,6.1
							c-4.5,10.1-5.6,20.8-5.4,31.8l0.3,26.6l-0.3,35l0.1,20c0.1,6.7-1.1,7.6-5.2,9c-1.7,0.5-3.4,0.9-5.1,1.1l-12.4,2.3
							c-4.1,0.5-7.7,0.4-11.6,0.5c-2.1-0.1-4.2-0.1-6.3,0c-4.1,0.6-6.4-1.9-8.7-4.6c-4.3-4.9-5.2-10.9-5.8-17.2l-3.9-30
							c-1.2-7.2-2.9-14.4-4.4-21.6c-0.1-0.4-0.5-0.8-0.9-0.9l2.5,16.4l4,25.6c0.8,5.4,1.2,10.8,1.6,16.1c0,0.9-0.2,1.7-0.7,2.4
							c-2.9,5.2-7.6,8.9-11.6,13.2c-2.2,2.4-4.4,2.5-7.3,2.4c-4.6-0.2-9.2,0.2-13.8,0.4c-7,0.3-14,1.5-20.9,0.8
							c-11.2-1.2-22.3-3-33.3-5.4c-7.5-1.6-13.7-6.3-19.6-11.1c-0.4-0.5-0.7-1.1-0.6-1.8c0.6-5.9,0.8-12,2.1-17.7
							c1.6-7.5,2.1-15.2,1.5-22.9c-0.4-6.3-0.1-12.7-0.5-19.1l-2.1-27.6c-0.3-3.9-0.1-7.9-0.2-11.8c0-1.5,0.7-2.1,2.1-2.1h4
							c2.2-0.2,4.1-1.4,5.1-3.3c-0.6,0-1.1,0-1.7,0.2c-3.7,2.5-7.2,1.9-11.2,0.2c-5.6-2.4-10.2-6.7-12.8-12.3
							c-1.4-2.9-2.2-6.1-3.3-9.2l-2.8-7.7c-1.9-4.9,0.1-9.6,0.6-14.4l1.2-9c0.1-1.6-0.1-3.2-0.5-4.8l-5.1-18.6
							c-0.6-3.4-0.7-6.9-0.3-10.4c0.4-5.5-0.7-10.6-1.9-15.9s-3.1-12.6-3.5-18.9c-1-10.9,2.4-21.8,9.4-30.2l9.8-11.9
							c3.4-3.8,5.1-5.3,9.2-5.2c1,0,2-1.1,3-1.6c11-6,22.3-11.4,34.5-14.6l7.1-1.8c0.4-0.1,0.8,0,1.1,0.2c1.5,1.2,2.3,0.4,3.2-1.8
							l9.3,11.7l5.6,7.3c0.5,0.3,1,0.5,1.5,0.5c0.1-0.5,0.1-1.1-0.1-1.6l-14.3-19.5l4.3-7.3l7.9,5.5l20.9,15.6
							c0.7,0.5,1.2,1.2,1.5,2l3.9,11c0.1,0.7-0.1,1.5-0.5,2.1c-0.8,1.2-1.9,2.2-2.7,3.4c-1.9,2.8-1.9,4.4,0.6,6.5
							c4.4,3.8,5.4,8.9,5.7,14.2l0.4,18.4l-0.4,22.8c-0.3,5.2-1.2,10.5-1.8,15.7c-0.1,0.7,0.1,2,0.4,2c0.9,0.3,1.9,0.2,2.8-0.2
							c4.7-3.3,9.9-5.7,15.5-6.1s9.8-2.4,14.7-3.5c2.5-0.7,5-1.6,7.4-2.7c10.7-4.3,20.4-1.4,29.8,4.1c1.2,0.7,2.6,1.3,3.9,1.9
							l0.5-0.9c-1.7-1.2-3.4-2.4-5.2-3.4c-6.2-3.2-12.5-5.6-19.7-5.4c-4.8,0.1-9.1,2.1-13.5,3.7l-14.4,4.7l-2.8-13
							c-3-13.4-6.4-26.7-12.5-39.2c-0.7-1.3-0.3-2.2,0.4-3.6c2.3-4.3,4.4-8.7,6.3-13.2c0.8-1.9-1.5-5-4.6-7
							c4-9.5,9.7-18.3,16.6-25.9l3.1,9.4c0.1,0.7,0,1.5-0.3,2.2l-3.8,11c-0.3,1.2-0.4,2.3-0.5,3.5l0.8,0.2l7.2-17
							c6.3,2.9,12.7,5.3,18.5,8.8s11.8,8.8,17.7,13.2c3.3,2.5,6.7,4.8,10.2,6.9c6.7,3.8,11.1,9.6,14.7,16.2
							c7.2,13.1,8.6,27.3,8,41.8l-0.2,12.1v13.9l-2.1-1.3l-7-5c-2-1.5-3.9-3.3-5.6-5.2c-2.6-3-6-4.4-9.6-5.3s-7.6-1.6-11.4-2.4
							l-0.2,0.7l3.5,1c4.4,1.3,8.8,2.3,13,4c2.6,1,5.1,2.7,6.2,5.7c0.2,0.5,1.1,0.9,1.6,1.3l14,10.7c2.4,2.1,4,5,5.7,7.8
							C515.7,357.5,513.4,353.3,508.8,352.5c-2.4-2.2-5-3.7-8.4-3.4L508.8,352.5z M434.5,341.8l-0.6-0.4l-30.5-7.1
							c-1.2-0.2-2.4-0.4-3.6-0.5l-14.5-1.7c-4.9-0.3-11.9-1.2-17.5,1.8c-2.6,1.5-5.5,2.5-8.4,3.7l0.5-7.5c0.1-2.5,0-5.1,0-7.7v-7.7
							c-0.1-2.6-0.5-4.7-0.8-7.1h-0.7v3.9l-0.3,21.9c-0.1,4.2-1.2,8.3-3,12.1c-0.6,1.2-1.3,2.4-2.1,3.6l0.4,0.6l-8.7,1.8l-7.5,1
							c-2.5,0.5-3.5,0.6-4,1.6c-2.2,4.4-3.9,9-5.8,13.5l0.6,0.2l5.1-10.9c0.9-1.9,2.2-2.7,4.5-2.3c-0.2,1.1-0.4,2.3-0.7,3.4
							c-2.8,7.9-3.4,16.1-3.4,24.3c0,4.1,1.1,8.1,3.1,11.7l6.8,11.9c-2,1.1-4.1,2.2-6.3,3c-1.4,0.4-2.8,0.2-4.1-0.4
							c-8.6-4.7-14.9-11.3-17.5-21c-1.6-6-2.4-12.2-2.2-18.4c-0.5,0.7-0.8,1.5-0.8,2.3l1.7,15.2c0.7,5,4.3,11.6,8.6,16.3
							c1.9,2,3.8,3.9,5.9,5.6c2.7,2.3,5.7,3.8,9.5,2.2c3.8-1.7,7.3-3.8,10.5-6.4c7.3-5.8,15-11.3,23.7-14.8
							c8.4-3.4,16.4-7.8,23.8-13c4-2.8,8.6-4.8,12.9-7.2c1.6,26,5.8,51.8,12.6,76.9l4.2-20.4c2.4-9.9,3.3-19.9,3.7-30l0.4-11.6
							c0.1-3.8,1.8-10.2,0-15.4l0.4-0.5c0.9,0.3,1.8,0.7,2.6,1.2l25.8,19.1c2,1.4,4.4,2.3,6.6,3.4l5.3,3.7c7.3,4.8,15.5,5.4,24,4.6
							c0.6-0.1,1.2-0.3,1.8-0.6c13.5-7.6,16.2-19.4,8.6-32.4c-2.8-4.8-7.4-7.8-11.9-10.9c-7.6-5.3-16.7-8.2-26-8.3
							c-3.9-0.1-7.8-0.5-11.6-1.4c-3.7-1-7.4-2.2-11-3.6c0.3-0.2,0.6-0.3,1-0.4c4.9,0,9.9-0.3,14.8,0.2c3.1,0.5,6.2-0.5,8.4-2.7
							c1.1-1.2,2.6-2.1,4.2-2.6c6-0.9,12-1.4,17.7,1.6l2.2,1.2l-10.2,1.3v0.5l14-1.2c-0.2-0.4-0.5-0.7-0.8-1
							c-5.7-3.1-11.6-5.6-18.3-4.8c-3,0.4-6.4,0-8.6,2.6s-6.8,3.7-11,3.2s-7-1.2-10.1-0.5s-8.8,3-13.3,1.3L434.5,341.8z
							 M466.7,414.4l0.7,0.4l6.1-11.9l-0.6-0.3L466.7,414.4z M320.7,365.3v4.2h0.2l1-6.2L317,367l0.2,0.4L320.7,365.3z M450.7,190.6
							c-1.8,9.6-6.4,18-11.5,26.3c-3.5,5.6-8,10.3-12.1,15.3c-2.7,3.2-5.9,4.9-10.5,3.5c-5.9-1.7-11.3-4.8-15.8-9.1l-2.6-2.4
							c-4.8-4-10-7.7-14.4-12.1s-6.3-9.9-6.5-16c-0.1-3.6,0.2-7.1-1.3-10.5c-0.2-0.8-0.3-1.5-0.3-2.3c-0.4-2.8-1.1-5.6-1.2-8.4
							c-0.2-3.9-0.1-7.7,0.1-11.6l1.2-16.4c0.1-5.4,0.7-11.9,3.5-17.3c0.9-1.5,1.6-3.1,2.2-4.8c1.1-3.7,3.6-6.8,7-8.6
							c5.6-3.3,11.6-5.6,18.2-6s12-1,17.9-0.4c8.4,0.7,16.3,4.3,22.4,10.1c6.6,6.2,10.2,14.3,12.6,22.7c1.3,4.7,0.3,10.1,0,15.2
							c-0.1,1.5-1.3,2.8-1.7,4.3c-0.8,3.3-1.5,6.6-1.9,10c-0.2,2.3-1.3,2.3-3,2c-6.5-1.5-13.2-2-19.9-1.4c-1,0.1-1.9,0.4-2.8,0.9
							c-2.8,1.6-5.9,0.7-8.4-1.1c-2.2-1.5-4.8-2.4-7.5-2.6c-5.6-0.5-11.3-0.4-17-0.4c-2.4,0-3.4,2-3.5,3.9c-0.1,2.9,0.1,5.9,0.5,8.8
							c0.3,2.6,2.5,4.6,5.1,4.6c5.6,0.4,11.1,0.3,16.7,0.2c1.1-0.1,2.1-0.6,2.8-1.4c1.9-1.8,3.6-3.8,5.3-5.9s2.8-1.7,3.8,0.7
							s2.2,4.2,3.2,6.4c0.6,1.3,1.9,2.1,3.3,2.1L450.7,190.6z M408,185.1l-8.3-0.4c-1.9,0-3.4-1.5-3.5-3.4c0-2.7,0.2-5.4,0.6-8.1
							c0.3-0.6,0.8-1,1.5-1.1h10.8c3.2,0.2,6.3,0.7,9.4,1.3c2,0.3,3.3,2.1,3,4.1c-0.1,0.4-0.2,0.8-0.4,1.2c-2.7,6.1-4.2,6.7-9.4,6.3
							L408,185.1v0.1V185.1z M438.8,174.9l13.8,1.6c2.6,0.2,3.1,2.3,3,3.9c-0.3,2.4-1,4.7-2.1,6.8c-0.6,0.7-1.4,1.1-2.3,1.1
							c-3.8-0.1-7.6-0.5-11.3-0.8l-3.9-0.6c-3.1-0.7-6.2-5.8-5.5-8.9s2-2.5,3.6-2.6s3.1,0,4.7,0v-0.3L438.8,174.9z"/>
						<path class="st5" d="M375.6,197c0,1.1,0.1,2.1,0.3,3.2c0.4,2.4,1,4.8,1.8,7.1c1.1,3,0.8,4.7-1.9,6.4s-3.8,4.4-5,7.1
							c-0.6,1.1-1.3,2-2.3,2.7c-0.9-3.8,0.1-7.1,1.7-10.2c1-1.7,1.2-3.6,0.8-5.5C369.7,203.2,372.8,200.1,375.6,197z M434.6,341.8
							l24.4,7.8c4.9,1.3,10.3,1.1,15.4,1.6c12.7,1.4,22.2,8.3,29.6,18.2c2.8,3.6,4,8.2,3.6,12.7c-0.8,6.7-3.2,12.5-10.2,16.1
							s-15.4,1.2-22.9-1.3c-3.1-1-6-2.8-9.1-4.2l-10.7-8.9l-16-11.9c-11.5-8.9-23.9-15.9-38.2-19.4c-7.5-1.8-14.9-4.2-22.4-6.3
							c-2-0.5-4.1-1.3-6-1c-2,0.4-3.8,1.4-5.3,2.8c-2.2,1.9-4.6,1.9-7.1,1.6h-0.2c-1.1-0.3-3.2-0.6-3.2-0.9
							c-0.1-1.7,0.2-3.4,0.9-4.9c2-3.7,5.5-5.6,9.2-7.4c5.4-2.6,11.5-3.6,17.5-2.8l21.9,3.3l14.9,2.3c2.7,0.4,5.3,1.1,7.9,1.6
							L434.6,341.8z M419.5,361.8l-16.6,9.9L383,383.4c-1.3,0.7-2.7,1.4-4.1,1.9c-9.9,3.7-19.3,8.9-27.7,15.4
							c-1.5,1.1-3,2.2-4.6,3.1c-0.7,0.3-1.4,0.2-2-0.2c-1.1-1.1-2.1-2.2-3.1-3.4c-5.6-6.3-7-13.8-6.9-21.9c0.1-6.5,1.2-13,3.3-19.2
							c1.1-3.2,2.8-5.3,6.3-5.6l5.7-0.7c1.2-0.1,2.4-0.5,3.5-1.1c1.8-1.3,4.1-1.6,6.2-0.9c3.1,0.8,6,0.5,8.4-1.9s5.4-2.1,8.2-1.4
							l25,7c4.9,1.5,9.7,3.5,14.6,5.4C417.1,360.5,418.3,361.1,419.5,361.8L419.5,361.8z"/>
					</g>
				</g>
			</g>
		</g>
	</g>
	<path d="M294.2,518.9l3.9,6.7c-2.6,1.2-1.5,4.1-1.6,6.6v15.4l-0.7,30.3c-0.1,2.1-0.5,4.1-1.1,6.1c-0.3,0.8-1.5,1.3-2.6,2.3
		c3.5,1.4,2.7,4.2,2.8,6.8s0.6,2.1,0.6,3.2s-0.3,3.4-0.4,5.1l-0.3,4c-1.1,0.5-2.2,0.9-3.3,1.1c-2.5,0.4-5.1,0.6-7.6,0.7
		c-1.8-0.1-3.6-0.3-5.4-0.8c-0.5-0.2-0.8-0.7-0.9-1.2c-0.4-2.6-1.8-4.9-3.8-6.6c-0.6-0.7-0.9-1.5-1.1-2.4c-0.5-1.7-0.2-3,1.8-3.5
		c0.6-0.2,1.1-0.8,1.2-1.4c-0.3-0.6-0.8-1.1-1.4-1.4c-0.7-0.4-1.6-0.7-2.4-0.8c-3.7-0.3-3.9-3.4-5-5.9l-3.3-7.5
		c-0.9-2.5-2.9-5.8-7.2-5.1c0.1-0.6,0.2-1.1,0.5-1.6c2.2-1.4,1.3-2.8,0.3-4.4s-1.2-2.7-2-3.9l-5.9-8.5c-2-2.8-2.3-2.5-3.9-4.3
		c0,1.3-0.1,2,0,2.6c0.3,2.7,1.9,5.5-0.5,8.1c-0.3,0.3-0.1,1.2-0.1,1.8V573c0.1,1,0.3,2,0.6,2.9c0.2,0.4,0.2,0.9,0.2,1.3
		c-1.4,4.3-0.6,8.5-0.2,12.8s0.2,7.6,0.3,11.4c-0.1,0.5-0.2,0.9-0.5,1.3l-1.8,3.8l0.4,0.7l-8.2,0.3c-1.2-0.1-2.5-0.2-3.7-0.4
		c-2-0.2-3.5-0.9-3.2-3.3s-0.8-2.8-2.1-3.8s-1.7-4.7,0.9-5.4s1.9-1.6,1.9-3l-0.1-69.8c0.1-2.6,0.5-5.2,1.1-7.7
		c0.2-0.6,0.8-1.1,1.4-1.3c4.3-0.9,8.7-0.7,12.9,0.4c1.6,0.3,2.7,1.7,2.7,3.3c0.2,2.4,1.2,3,3.7,2.8h3.3c-0.5,0.5-1,1.1-1.4,1.7
		c-0.4,1.1-1.2,2.7-0.8,3.5l8.6,16.7c1.2,2.1,3.1,3.9,4,6.1s3.1,7.1,5.8,9.9c0.2,0.4,0.5,0.7,0.9,1c4.4,1.9,6.2,5.8,7.6,9.9
		c0.2,0.5,0.7,0.9,1.2,1c-0.2-0.7-0.4-1.4-0.7-2.1c-1.2-2.3-1-5.1,0.5-7.3c1.4-1.9,1.8-4.3,1.1-6.6c-1.1-3.8-1.5-7.8-1.3-11.8
		c0.6-8.4,0.4-16.8,0.4-25.2c0-2,0.5-2.8,2.6-2.7s6.8,0,10.3,0.1c0.8,0,2.2,0.2,2.2,0.6c0.2,1.1,0.1,2.3-0.2,3.4
		C295,518,294.6,518.5,294.2,518.9L294.2,518.9z M102.8,606.7c-1.7,0.2-2.9,0.4-4.1,0.4H78.4c-2.8,0-3.4-0.6-4-3.4
		c-0.4-0.7-0.9-1.2-1.5-1.6l-1.7-1.3c0.4-0.6,0.8-1,1.4-1.4c4.6-1.5,5.5-5.3,5.6-9.2v-24.5c0-0.9-0.4-1.8-0.5-2.7
		c-0.2-0.6-0.1-1.2,0.2-1.8c1.9-1.8,1.4-2.9-0.8-3.8c-0.5-0.4-0.9-0.9-1.3-1.4c4.1-0.2,3.3-3,3.3-5.3v-21.2c0-1.5-0.1-2.7-2-3.4
		s-2.4-1.7-1.3-4.1c0.6-1.4,1.1-2.9,1.3-4.4c0.5-3.3,1.6-4.2,4.9-4.3c1.1,0,2.2-0.7,3.4-0.9c1.3-0.2,2.6-0.3,3.9-0.3l5.5,0.4
		l5.4,0.9h1.8l18.8,0.4c2.3,0.2,4.6,1.7,6.9,2.4l5.9,1.7c0.6,0.3,1.1,0.7,1.4,1.3c0.6,1,0.8,2.3,1.6,3.2c3.1,3.8,5,8.6,5.4,13.5
		c1.2,11.8-1,23.5-0.3,35.3c0.2,2.8,0.4,5.6,0.3,8.5c-0.1,4.5-1.7,8.4-3.1,12.4c-1.3,3.5-2.9,7-4.6,10.3c-0.7,1.9-2.5,3.1-4.5,3.2
		l-19.9,1.1l-5.3,0.4C104,607.1,103.4,606.9,102.8,606.7L102.8,606.7z M122.3,532.9c3-3.4,2.7-4.4-1.2-5.7c-1.2-0.5-2.5-0.8-3.8-0.9
		l-16-0.6c-5.3,0-7,2.2-7.1,7.2v18c0,0.6,0,1.5,0.4,1.7c2.1,1.2,1,2.3,0.2,3.6c-0.6,0.8-0.9,1.7-1.1,2.7l-0.7,13v11.8
		c0,1.8,0.3,3.6-0.2,5.2c-1.6,4.8,0.6,8.4,5.6,8.4l17.5-0.4h0.7c5-1.5,8.7-5.5,9.9-10.5c0.8-3.6,1.2-7.3,1.2-11v-24
		c-0.2-2-0.4-3.9-0.8-5.9c0-0.4,0-0.7,0.1-1.1c0.2-2.6,0.3-5.1,0.3-7.7c0.1-1.4-1-2.6-2.4-2.6c-0.2,0-0.4,0-0.5,0
		C123.6,533.9,122.9,533.4,122.3,532.9z M213,558.2c0.4,0.6,0.8,1.2,1,1.9l0.1,14l0.1,20.5c0.1,2.8-1.4,4.5-3.1,6.2
		s-2.5,1.8-3.7,2.8c-2.7,2.3-6.2,3.6-9.8,3.5c-7.5-0.1-14.9,0.3-22.4,0.4c-3.2,0-6.5-0.3-9.7-0.5c-0.5,0-0.9-0.2-1.3-0.5l-10.8-8.1
		c-0.8-0.9-1.2-2.1-1.2-3.3l-0.4-18.4l-0.7-14.1l-0.1-24.4c-0.2-2.8-0.2-5.6-0.1-8.4c0.9-10.1,3.2-12,12.5-15.7
		c3.3-1.1,6.7-1.6,10.2-1.4c4.1,0,8.2-0.9,12.3-1.2s8.8-0.3,13.2-0.2c1,0.3,1.9,0.9,2.4,1.8c2.5,3.7,6.1,6.5,10.4,7.8
		c0.6,0.3,1.1,0.8,1.3,1.5c0.3,11.3,0.6,22.6,0.7,33.9C213.8,557,213.5,557.7,213,558.2z M198.2,535.1l-0.3-6.2
		c-0.2-2.1-2.2-4.4-4-4.4l-20.4-0.5c-2.7-0.1-5.4,0.5-6.4,2.9s-4.6,4.4-1.3,7.4c0.2,0.4,0.2,0.9,0.1,1.4v21.7
		c-0.2,0.7-0.5,1.4-0.9,2c0.4,0.8,0.8,1.8,0.9,2.7l0.2,30.3c0.1,1.1,0.7,2.1,1.7,2.6c1.9,0.6,3.8,1,5.8,1.1
		c7.6,0.6,15.2,1.4,22.4-2.3c1.4-0.5,2.2-1.9,2.1-3.4v-21.2c0-1.2,0.3-2.4,0.3-3.6c0.1-7.5,0.1-15.1,0.2-22.7c0-0.4-0.1-0.7-0.3-1
		c-1.4-2.8-0.3-4.8,2.8-4.9c0.7,0.1,1.4,0,2.1-0.1c0.4-0.2,0.6-0.6,0.7-1.1c-0.1-0.4-0.3-0.8-0.7-1L198.2,535.1z M535.5,583.8v13.3
		c-0.1,4.4-1.5,7.2-4.8,9.5s-6.7,1.5-8.4-1.9c-1-2.1-1.6-4.3-1.8-6.6l-1.7-35.6c-0.2-5.6,0.1-11.2,0.3-16.8l0.5-11.2l0.8-16.9
		c0.2-1.3,0.8-2.6,1.8-3.5c2.1-1.9,8.2-2.3,10.6-0.8c0.8,0.5,1.3,1.3,1.6,2.2c0.5,2.3,0.8,4.6,0.9,6.9l0.4,23.1
		c0,2.2,0.3,4.3,0.8,6.4c0.5,1,1.4,1.6,2.5,1.8c2.8,0.2,5.6,0.2,8.4,0c1.1-0.2,2.1-0.7,2.9-1.6c3.3-3.6,4.5-8.1,5-12.8l2.9-22.3
		c0.4-1,1.3-1.7,2.3-2c2.6-0.2,5.1-0.3,7.7-0.1c2.3,0.1,4.3,3.7,2.7,5.2c-3.4,3.1-1.7,6.2-0.8,9.5c0.1,0.3,0.2,0.6,0.2,0.9l1,18.5
		c0.1,6.2-0.9,10-0.7,15s1.1,8.9,1.6,13.3l1.7,15.9c0.2,2.8,0.2,5.5,0,8.3c-0.1,2.7-2.3,4.8-5,4.9c-2.3,0.1-4.7,0.1-7,0
		c-2.5-0.1-4.5-2.1-4.7-4.6l-0.6-20.9c-0.2-1.8-0.2-3.6,0-5.4c0.9-5.1-2.2-7.8-5.7-10.5c-0.3-0.3-0.8-0.5-1.2-0.6
		c-4.7-0.3-9.3,0.3-13.3,3.1c-0.6,0.5-0.9,1.8-0.9,2.7V583.8L535.5,583.8L535.5,583.8z M694.1,561.5V524c0-7.2,3.6-9.6,9.8-10
		c8.3-0.5,16.6-0.5,24.9,0c5.9,0.4,11.9,2,14.7,8.1c1.4,3.3,2.3,6.9,2.4,10.5c0.4,7.4,0.4,14.9,0.1,22.4c-0.3,5.9-2.7,10.2-9.1,11.7
		c-7,1.7-14.3,2-21.4,0.9c-2.1-0.5-4.3,0.8-4.8,3c-0.1,0.4-0.1,0.9-0.1,1.3v31.5c0,1.9-0.5,3.8-1.3,5.5c-0.4,0.8-1.9,1.5-3,1.6
		s-4.5,0-6.8,0.1c-1.8,0.3-3.5-0.8-3.8-2.6c0-0.2,0-0.3-0.1-0.5c-0.6-3.1-1-6.2-1.2-9.4l-0.1-36.6h-0.1L694.1,561.5z M730,540.3
		c0-2.3-0.2-4.5,0-6.8c0.5-5.1-1.9-6.3-5.8-7.6s-5.8-0.3-8.7-0.1c-1.4,0-2.5,1.2-2.4,2.6c0,0.1,0,0.2,0,0.3c0,0.5,0,1.1-0.1,1.6
		l-1.6,19.4c-0.2,2,1,3.9,2.9,4.6c3.2,1.2,6.7,1.3,10,0.3c4.1-1.4,5.6-3.6,5.6-7.9C730,544.6,730,542.4,730,540.3z M662.3,512.6
		c2,0.7,3.6,2,5.2,1.9c3.5-0.3,4.7,1.7,5.3,4.4s1.3,8.2,2,12.2l1.7,9.1l1.2,5.9l4.6,18.4c0.5,2.4,0.8,4.8,1,7.3l1.2,10.8
		c0.6,3.6,1.5,5.8,2.2,8.6s1.4,3.4,1.1,4.9s-1.7,3.2-2.7,4.9c1,0.6,1.9,1.4,2.7,2.2c0.7,0.8,1.1,1.8,1,2.8c-0.4,1-1.3,1.7-2.3,1.9
		c-2.4,0.2-4.8,0.2-7.2,0c-0.8-0.2-1.5-0.7-1.9-1.4c-1.2-1.5-2.2-3.2-3.1-4.9c-1.2-2.4-3.1-3-5.5-3.1l-9.3-0.6
		c-0.6-0.1-1.1-0.9-1.7-1.3s-1.2-1.1-1.8-1.1c-0.7,0.2-1.4,0.6-1.7,1.3l-5.3,10.9c-0.4,0.6-1.1,0.9-1.8,1h-7.5
		c-2.2-0.1-3.2-1.4-2.6-3.6c0.2-1,0.6-1.9,1.1-2.8c1.3-1.8,1-3.4,0.3-5.4c-0.4-1.4-0.4-2.9-0.1-4.3c0.4-3.5,1.1-7,1.6-10.5
		s0.6-7.8,1.1-11.7c0.2-1.5,1.3-2.8,1.7-4.2l2.7-10.9l2.5-14.1l1.4-8.6c1.1-5.3,0.7-11.1,4.3-15.8c1.6-2.1,3-4.3,6.3-3.4
		C660.7,513.8,661.7,512.9,662.3,512.6L662.3,512.6z M662.1,552.3l-3.3,4.1c-2.7,3.4-1.7,7.7-2.5,11.6c-1.2,5.7-0.9,11.7-1.3,17.5
		c-0.1,1.9,0.5,2.8,2.5,2.6l12-1c0.9-0.4,1.5-1.2,1.7-2.2c0.2-2.5,0.2-4.9,0.1-7.4c0.1-1.9-0.1-3.9-0.4-5.8c-1-4.1-2.4-8.2-3.5-12.3
		S665.7,553.9,662.1,552.3L662.1,552.3z M671.9,592.6l-2.5,2c1.2,0.9,2.5,1.8,3.8,2.5c0.3,0.1,1.1-1.1,1.7-1.7L671.9,592.6z
		 M656.4,593.4v0.8l3.6,0.3c0.2-0.3,0.4-0.6,0.5-0.9l-3.2-0.7C657,593,656.7,593.2,656.4,593.4L656.4,593.4z M354.3,517.6
		c-1.6,0.8-3.1,2.1-4.8,2.4c-4.8,1-9.7,1.7-14.6,2.4c-3,0.4-6,0.5-9,1.1c-0.9,0.3-1.6,1.1-1.8,2l-1.2,17.4c-0.5,5.8,3.4,8.3,7.5,9.1
		c3.6,0.6,7.3,1,11,1.2c1.9,0.2,3.9,0.2,5.8,0.6s3.9,1.3,4.2,3.7s-0.6,5.6-3.3,6.7c-2,0.7-4,1.1-6.1,1.3l-13.4,0.9
		c-4.4,0.3-4.6,1.8-4.4,4.8s1.1,5.3,1.2,7.9s0.3,5.7-0.5,8.2s-0.1,4.9,0.7,7.1c0.2,0.6,2,1,3,1h21.7c1.5,0,3.1,0.1,4.6,0.4
		c2.9,0.5,5.4,3.2,5.3,5.4s-2.8,4.8-5.7,5l-24.1,1.3c-5.6,0.1-11.1-0.7-16.7-1.3c-2.1-0.1-3.8-1.8-3.9-3.9l-1.7-20l-0.4-19.8
		c0-8.2,0.1-16.4,0.3-24.7l0.9-18.6c0.2-3.7,3.9-6.8,8.5-7.3c9.5-1,18.9,0.2,28.3,0.8c0.4,0,0.7,0.1,1,0.4c1.7,2.5,4.2,3.5,7.2,3.4
		L354.3,517.6z M626.3,518.1c-2.4,2.8-5.5,3.5-8.4,3.9l-19.5,2.4c-1,0.3-1.9,1.1-2.2,2.1l-1.2,17.1c-0.5,5.7,3.4,8.5,7.7,9.4
		s7.2,0.8,10.8,1.1c2,0.1,4,0.3,6,0.7c2,0.4,3.8,1.4,4,3.9s-0.8,5.5-3.5,6.6c-1.5,0.6-3.1,1-4.7,1.2l-13.2,1
		c-6.8,0.6-6.9,2.9-5.5,8.6c1.1,4.4,1.2,9,0.1,13.4c-0.5,1.9,0.3,4.2,0.9,6.2s1.9,0.9,2.9,0.9h21.2c1.8,0,3.5,0.3,5.3,0.4
		c2.8,0.4,4.9,2.7,5,5.5c-0.1,2.5-2.6,4.8-5.6,4.9l-17.2,0.9c-2.9,0.3-5.7,0.5-8.6,0.5c-5.1-0.2-10.2-0.7-15.2-1.5
		c-1.3-0.2-3-2.1-3.4-3.5c-0.7-3.3-1.1-6.7-1.2-10.1l-0.7-17.6l-0.4-13.7l1.2-41.6c0.1-3.9,3.7-7,8.4-7.6c9.5-1.3,18.8,0.3,28.2,0.7
		c0.5,0,1,0.2,1.4,0.6c1.4,2,3.7,3.2,6.2,3.1C625.5,517.7,625.9,517.9,626.3,518.1L626.3,518.1z M472.4,547.8c0,13.6,0,27.2,0,40.8
		c0,6.3,3.1,9.9,9.4,10.4c2.9,0.2,5.9-0.1,8.7-0.8c2.6-0.6,4.5-2.8,4.5-5.5c0-1.6,0.3-3.3,0.9-4.8c0.4-0.9,1.1-1.6,2.1-1.9
		c2.4,0.1,4.9,0.4,7.3,0.8c0.8,0.1,1.5,0.4,2.3,0.4c3.5,0.2,4.1,0.7,3.5,4.3c-1.3,8.4-5.6,13.3-13.7,15.8s-17.2,1.7-25.7-0.1
		c-4.7-1-9-3.5-11.1-8.4c-0.8-1.8-1.4-3.7-1.6-5.7l-0.7-24.7l0.6-41.7c0-1.1,0.4-2.2,1.1-3.1l11-10.3c0.8-0.6,1.7-0.9,2.7-0.9
		l8.2-0.1c2.8-0.2,3.5-0.9,5.1-0.7c2.7,0.4,5.4,1,8,1.8c2.6,0.5,5.1,1.2,7.5,2.1c4.9,2.1,7.4,6.5,9.2,11.3c0.5,1.3,0.9,2.6,1.1,4
		c0.3,2.9-1.6,5.3-4.5,5.4c-3.6,0-7.2-0.3-10.8-0.8c-0.7-0.1-1.4-1.3-1.8-2.1c-1.3-2.6,0-6-2.7-8.1c-1.1-0.9-2.5-1.4-3.9-1.6
		c-2.3-0.2-4.7-0.2-7-0.1c-5-0.1-9.1,4-9.2,9c0,0.1,0,0.3,0,0.4l0.1,7.5v7.5h-0.7L472.4,547.8z M528.1,625.1H495
		c-0.4-1.6-0.8-3.3-3-2.6c-0.5,0.2-0.5,1.5-0.9,2.7h-17.7c-0.8-0.1-1.5-0.5-2-1c-0.2-0.5-0.1-1,0.1-1.4c0.3-0.4,0.7-0.7,1.2-0.9
		l0.7,1.6c1.1-3.4,4.5-0.7,6.7-2.8l-5.7-1.1l-4.1-1.2c-1.1-0.3-2.3-0.6-3.5-0.7c-2-0.2-2.1,1.1-2.2,2.7s1.1,1.8,2.3,2
		c0.9,0.1,1.7,0.1,2.6,0l-0.2,3.2l-5.6-1.4c-1.2-0.3-2.3-1-3.4-1.2c-0.8-0.1-1.5,0.1-2.1,0.6c-1.4,2.3-3.4,1.6-5.3,1.6l-0.5-0.6
		l4.5-3.5c0.6-0.6,1.1-1.2,1.5-1.9c-0.6-0.4-1.1-1.2-1.7-1.2c-1,0-2,0.2-2.8,0.8c-1.8,1.5-3.5,1.3-5.3,0.3c-0.6-0.4-1.3-0.5-1.9-0.3
		c-0.4,0.3-0.5,1.2-0.7,2.1l-3.7,1.6c-2.9,1.3-3.9,0.7-4-2.4c-0.1-0.7-0.2-1.5-0.4-2.2c2.7-0.5,5.4-0.8,8.1-1h33.8
		c0.9,0,1.9,0.7,2.8,1c0.7,0.2,1.5,0.2,2.2,0.1c1.3-0.3,2.5-1.1,3.7-1.1h48.3L548,617c1.2-0.1,2.3,0.8,2.4,2c0,0,0,0,0,0
		c0.2,1,0.4,2.7,2.2,2c1.1-0.3,1.7-1.4,1.4-2.5c-0.1-0.3-0.2-0.5-0.4-0.7c-0.2-0.4-0.3-0.9-0.4-1.3c1.2,0.3,2.5,0.6,3.8,0.7
		c1.1,0,2.1-0.4,3.2-0.4l17.5,0.3l14.9-0.4c0.7,0,1.8,0,2.2,0.4s3,1.1,4.6,0s5.4-0.5,6.1,0.5l8.9-0.9h41l-2.3,1.8l0.4,0.7l3.3-0.8
		c-0.7,1.6-1.1,2.5-2.8,1.7c-1-0.4-2.1-0.4-3.1,0.1c-2.7,1.7-5.2,2.4-8.2,0.7c-0.6-0.3-1.8,0.3-2.7,0.5l0.7,3.2h-14.3l-1.7-1.7
		l-2.4-2.3l-1.5-1.1c-0.3,0.7-1,1.9-0.7,2.1s1,2.5,0,2.9s-3.1,0.1-4.6-0.1s-1.9-0.8-2.8-0.6l-7,1.6l-0.4-0.7l1.6-3.4l-1.9-1.1
		c-0.3,0.8-0.5,1.6-0.6,2.4c0.3,2.1-0.7,2.5-2.5,2.5h-16.2l-2.6-0.3l0.8-2.7l-0.4-0.6c-0.7,0.4-1.8,0.6-2.2,1.2s-2.3,2.3-4.2,2.2
		h-5.5l1.3-3.4c-0.7-0.1-1.5-0.3-2.2-0.6c-0.9-0.4-1.6-1-2.4-1.4c-1-0.4-2.1-0.8-3.2-1c-0.4,0.1-0.8,0.3-1,0.7c0,0.5,0.2,1,0.6,1.3
		c0.4,0.4,0.9,0.7,1.4,0.9c-2.5,2.4-5,4.4-8.8,3.6H556c-3.3,0.7-5.8-1-8.6-2.2s-4-0.6-6-0.6c-0.3,0-0.6,1.7-1,2.8H532
		c-0.1-1.4-0.4-2.8-0.8-4.2c-0.4-0.9-1.5-2.1-2.3-2.1s-3.4,0.6-4,1.6s0.2,2.9,1.8,3.8L528.1,625.1z M638,619.6
		c-1.2-0.7-2-1.5-2.3-1.4c-0.8,0.5-1.4,1.1-2,1.8c0.5,0.4,1,1.1,1.3,1C636.1,620.7,637.1,620.2,638,619.6L638,619.6z M597.2,622.1
		v0.4l4.1,0.4l-0.4-2.5L597.2,622.1z M555.6,625l1.8-1.6c-0.4-0.3-1-1-1.2-0.9c-0.7,0.3-1.3,0.8-1.8,1.3L555.6,625z M675.4,496.2
		l-2.7-1.5v-0.5h39.4c4.3,0,5.8,1.4,6.3,5.7c0.2,0.6,0.7,1.1,1.3,1.3c1.2,0.1,3.3,0.1,3.6-0.5c1-2.3,2.5-1.5,4-1.3s2.9-0.1,2.4-2.4
		c1.7,0.2,3.3,0.1,3.8,2.3c0.1,0.5,1,0.8,1.5,1.1c0.3-0.1,0.6-0.3,0.8-0.6c-0.3-0.5-0.7-0.9-1-1.4l-1.3-2c0.7-0.1,1.5-0.1,2.2,0
		l5.9,1.2c2,0.3,2.6-1,2.4-3.6h17.9c3,0,4.4,1.3,4.5,4.3c0.1,1.3,0,2.6,0,4c-4,0.1-7.7,0.6-11.2-1.4c-0.5-0.3-1.6,0.1-2.4,0.4
		s-1.7,1.1-2.5,1.1c-6.1,0.1-12.3,0.1-18.4,0c-1-0.2-1.9-0.6-2.7-1.3c-1-0.7-1.8-1.8-2.5,0.3c-0.3,0.6-0.9,0.9-1.5,1h-28l-0.9-0.3
		l0.8-1.8c-0.6-1.1-1-2.1-1.5-3c-0.4-0.5-0.8-0.9-1.2-1.3c-0.5,0.5-1,1-1.4,1.6c-0.2,0.5,0.2,1.2,0.1,1.8c-0.4,2.2-1.5,3.4-3.9,3.1
		c-1.6-0.1-3.2-0.1-4.8,0c0.1-2.8-1.3-3.1-3.3-2c-0.3,0.2-0.7,0.3-1.1,0.2c-2-1.9-4.8-0.5-6.9-1.5s-2.3-0.2-2.8,1.1
		c-0.4,1.4-1.8,2.3-3.3,2.1h-8.9l1.3-2c1.1-1.4,2.2-2.6,2.3-4.5s1.4-2.3,3-1.6c2.2,0.9,4.3,2,6.3,3.2
		C673.2,499.1,674,499,675.4,496.2L675.4,496.2z M390.1,603.3l3.2-4.6c-2.2-1.9-3.3,1.7-5.2,0.9s0.7-6.7,1.6-7.3
		c0.4-0.2,0.9-0.2,1.3-0.2c2.1-0.1,3-1.7,2-3.5s1.2-4.2,2.8-4.2c4.3,0,8.6,0.3,12.6-1.7c0.4-0.1,0.9,0.1,1.2,0.4
		c0,0.4,0,0.8-0.2,1.2l-0.3,1.6c0.6,0.2,1.3,0.2,1.9,0.2c2.8-0.6,5.7,1.2,6.3,4c1.3,5.5,1,10.7-2.9,15.3c-0.9,1.1-1.2,2.7-1.9,4
		s-1.2,2-1.9,2.1c-3,0.2-6.1,0.2-9.1-0.2c-1.9-0.3-3.7-1.7-5.6-2.3S390.7,606.3,390.1,603.3z M406.4,604.3c3.1,1.3,4.3,0.8,4.4-1.6
		L406.4,604.3z M417.9,528.1l1.4-0.6l0.4,0.4c-2.5,5.2-1.7,10.8-1.9,16.2s-0.1,9.2,0,13.7c0,1.6,0.7,3.1,0.9,4.7s0.1,4,0.4,6
		c0.3,1.2,0.8,2.3,1.3,3.4c0.3,0.5,0.4,1.2,0.3,1.8c-0.4,0.5-1,0.8-1.6,0.8l-8.6-1.2c-0.5-0.1-1,0-1.5,0.2c-3.7,2.9-8,2.5-12.3,2.2
		c-1.9-0.1-3.8,0.1-5.7,0.1s-2.4-1.2-2.8-2.5l2.1-1.4c-1.1-1.3,0.5-3.4-1.7-4.5s-3.3-3.2-2.6-6c0.7-2.8,2.7-5.2,5.3-6.4
		c5.8-3.2,11.5-4.3,17.8-1.6l1.6,0.4c2.3,0.6,2.6,0.1,2.5-2.3c-0.1-3.8-0.1-7.7,0.2-11.5c0.2-2.4,0.8-4.7-0.9-6.9S410,531,408,531
		s-2.7-0.2-2.6-1.9s1.2-2.5,2.8-2.5s4.7-0.1,7,0.1S416.8,527.5,417.9,528.1z M410.3,560.9c-1.1-0.5-2.2-1-3.2-1.6
		c-2.3-1.5-4.6-3.1-7.5-1.9c-2.7,1-5.3,2.1-7.8,3.3c-0.8,0.4-1.8,2.2-1.5,2.8c0.8,1.5,1.9,2.8,3.2,4c1.1,1.1,2.4,2,3.5,3
		s8.1,1.2,9.9-1.6c0.7-1.1,1.7-1.9,2.8-2.5c1.6-0.8,1.4-2.1,1.3-3.4C410.9,562.3,410.6,561.6,410.3,560.9L410.3,560.9z M413.7,570.5
		c-1.4-0.6-0.9-3.4-3.2-2.3c-0.7,0.6-1,1.6-0.8,2.5C410.7,571.8,412.1,571.9,413.7,570.5z M316.1,620.8c-1.7,1.4-4.1,1.6-6,0.6
		c-0.3-0.2-0.6-0.4-1-0.6c-0.9-0.2-1.8-0.4-2.7-0.4c-0.3,0.4-0.5,0.8-0.4,1.3c0.6,1,1.4,1.9,2.3,2.6c0.5,0.3,1.4,0.1,2.1,0.1v0.6
		h-1.9c-11.4,0-22.7,0.1-34.1-0.1c-1.6,0-3.3-1.1-4.9-1.6l-2-0.3v1.9l-2.2-1.2c-2.3-1.4-3.8-1.2-5.8,0.8c-0.2,0.2-0.5,0.4-0.8,0.4
		c-5.1-1.1-10.2,1-15.5-0.2l0.6-2.2l-1.1-0.8c-0.5-0.4-1.3-0.8-1.3-1.3c-0.1-3-2.7-1.9-4-2.1s-2,1.4-2.9,2.3
		c-0.2,0.5-0.2,1.1,0.1,1.6c1.1,2.1,0.8,2.8-1.6,2.8h-7.9c-0.5-3.4-1.8-4.2-8.7-2.6l-5.7-5.6l1.7-0.3H228c2.7,0,2.9,0.4,1.9,2.8
		c-0.1,0.4-0.1,0.9,0,1.3c0,0.4-0.1,0.9-0.2,1.7c2.3-0.7,3.1-2.6,3.8-4c0.4-1.3,1.6-2.1,2.9-1.9c1.8,0.1,3.6-0.1,5.4,0
		c1.5,0.3,3,0.6,4.5,1.1c0.6-2.1,2.7-0.9,4.4-1l0.3,0.7l-6.3,2.8c1.1,6.2,4.9,4,8.1,2.9c0.1-0.7-0.1-1.7,0.4-2.2s1.4-2.9-0.9-3.9
		h19.6l-1.6,2.8c1.3,0.2,2.4,0.8,3.2,0.4s3.8-0.7,3.3-3.4h14.3v0.3c-0.7,0.3-1.4,0.4-2.2,0.4c-0.9-0.3-1.9,0.1-2.2,1
		c-0.1,0.2-0.1,0.5-0.1,0.7c-0.1,1,0.3,2.1,1,2.8c2.1,1.5,5.6,1.1,7.6-0.7c0.3-0.3,0.6-0.7,0.7-1.1c0.3-2,2-3.5,4-3.5h12.2
		c-0.2,2.6,1,4.1,3.6,4.1L316.1,620.8z M198.9,495.6l-4.6,0.2v0.9h2.2c0.8-0.1,1.6,0.1,2.4,0.3c1.6,0.8,3.4,1.7,1.6,4.1l2,1v0.5
		c-1.6,0.1-3.3,0-4.9-0.1c-0.6-0.2-1.1-0.8-1.3-1.4c-0.6-2.1-1.6-1.5-2.9-0.7c-1.1,0.6-2.3,1-3.5,1.4c-0.3,0.4-0.7,0.7-1.2,0.9h-27
		l-21.4,0.1c-4.4-0.1-8.9-0.7-13.3-0.9c-1.7-0.1-3.4,0.5-5.1,0.7s-1.1-0.4-2.2-1l2.3-0.9l1.6-1.1c-0.4-0.6-0.9-1.1-1.5-1.6l-4.1-2.6
		l0.3-0.8H136c-0.3,0.6-0.6,1.2-0.8,1.8c-0.1,0.5-0.1,0.9,0,1.4c0.3,0.2,0.7,0.3,1,0.2c0.4-0.3,0.7-0.7,0.8-1.2
		c-0.8-3.1,1.3-2.4,2.9-2.4c0.1,0.1,0.2,0.2,0.3,0.4c0.1,3.5,0.1,3.5,3.4,2.4c0.5-0.2,1.1-0.3,1.6-0.2c2.3,0.7,4.8,0.4,7-0.7
		c0.8-0.4,1.5-1,2.4-1.3c0.6-0.3,1.3-0.4,2-0.2c2,0.9,4.2,1.6,3.6,4.3l9.1-0.9c1.1-0.1,2.2-0.7,2.9-1.6c1.1-1.9,2.7-2.2,4.5-2.2
		h19.8c0.8,0.1,1.6,0.3,2.3,0.5v0.9L198.9,495.6z M396,618.8l-1.7-1.9c4.9,1.4,7.8,2.6,7.3,7.7c-0.1,0.5,0.1,1.1,0,1.6
		s0.7,2.6,2.5,2.2s2.7-0.2,3.9-0.5c2.9-0.8,4.7,1,6.5,2.7c0.3,0.5,0.4,1,0.3,1.5c-1,0.3-2.3,1.1-3,0.7c-2.5-1.3-4.9-0.8-7.3-0.3
		s-3.3,0.9-3.1,3.3c0.1,0.9-0.6,1.9-1,2.8c-1.3,3.6,0.6,8.9,5.7,8.5l6.9-0.6c0.5-0.2,1-0.6,1.4-1l3.8-3l1,0.5
		c-0.2,2.5-0.6,5-1.1,7.5c-0.2,0.6-1.6,1.4-2.4,1.3l-15.1-0.9c-3.3,0-5.9-2.7-5.8-6c0-0.1,0-0.2,0-0.3c0.1-2.5,0.5-4.9,0.8-7.4
		s-0.6-2.9-2.7-3.2c-2.3-0.3-4.6-0.8-6.7-1.7c-0.7-0.3-1.3-2-1.2-3s1.3-1.2,2.5-1c2.3,0.3,4.6,0.3,6.9,0c1.7-0.2,1.6-1.8,1.5-3.2
		S396,621.1,396,618.8L396,618.8z M205.5,502.2l-0.8-7.8h7.8l0.9,2.3c0.8,2.6,0.9,2.7,3.4,1.3c0.4-0.3,1-0.5,1.5-0.5
		c2.3,1.7,4.8-0.2,7.1,0.4s2.9,0.1,3.2-2c0.3-0.8,1-1.4,1.9-1.6l12.3-0.1v0.7c-1.1,0.2-2.1,0.4-3.2,0.5c-0.8,0-1.7-0.3-2.5-0.2
		c-0.7,0.2-1.3,0.5-1.9,0.9c0.2,0.7,0.5,1.4,1,2c1.6,1.1,3.1,2.3,5.3,0.8c0.6-0.4,2.3,0,3.1,0.6c2.9,2.1,3.4,2.1,4.7-1.2
		c0.4-1,0.9-1.6,2.1-1s2.4,0.1,2.3-1.5s0.5-1.8,1.9-1.4l-0.5,2c1,0,2,0.1,3,0.4c0.8,0.5,1.4,1,2,1.7l-1,3.9l-3.6,0.2l0.2-0.6
		c-0.7-0.7-1.6-1.2-2.5-1.6c-1.2-0.3-2.7-0.6-3.1,1.4c-0.3,0.4-0.7,0.6-1.1,0.6c-3.5,0.3-7,0.1-10-2s-2.8-1.2-3.6,0.9
		c-0.4,0.6-1,1-1.7,1H221c-0.6-0.1-1.2-0.3-1.7-0.5c-1-0.3-1.9-0.9-2.9-0.8c-2.4,0.4-4.9-0.5-6.4-2.4c-1.3-1.6-2.8-1.1-3.4,0.9
		C206.3,500.4,205.9,501.3,205.5,502.2L205.5,502.2z M84.8,496.8l-1.5,2.5l-9.1,3.2l-0.9,0.2H54.4c-0.7-1.5-1.2-3.4-1.6-3.4
		c-2.1,0.2-4.2,0.5-6.2,1.1c-1.9-1.1-3.6-2.8-2.1-6.3l12.5,0.5c2.3-0.1,3.8,1.3,5.7,2s3.3,1.1,5.1-0.1s2.5-0.9,3-0.4
		s2.3,0.8,3.2-0.5c0.1-0.2,0.3-0.3,0.5-0.4c2.9-0.3,5.9-0.6,8.9-0.6C83.8,494.5,84.4,496.1,84.8,496.8L84.8,496.8z M384.8,497.3
		l-1.2-2.9H396l4.7-0.2h16.7c0.6,0.1,1.1,0.5,1.3,1.1c-0.5,2.3,1.1,2,2.5,2.3c0.8,0.1,1.6,0.5,2.1,1.1c0.2,0.5-0.3,1.5-0.7,2.1
		s-1.2,1.7-1.4,1.6c-1.4-0.6-2.8-1.3-4.1-2.1c-0.5-0.4-1-0.8-1.6-1.1c-1.2-0.1-2.2-1.1-2.1-2.3c0,0,0,0,0,0c-0.1-1.6-1.1-2-2.4-1.2
		c-1.5,0.9-2.8,1.9-4.1,3c-2.3,2.1-8,2.8-10.8,0.5c-0.5-0.5-1.1-0.9-1.7-1.2c-1.8-0.7-2.6-0.1-2.8,1.9c0,0.2-0.1,0.5-0.2,0.7
		l-4.4-1.5l-0.3,3.4l-5.5-0.6C380.4,498.8,382.8,498.3,384.8,497.3L384.8,497.3z M294.8,500.2v2.3l-5.8-0.4c0-0.5-0.1-0.9-0.4-1.3
		c-2.2-0.7-4.4-1.1-6.6-1.3c-1.2,0.1-2.3,0.7-3,1.7c-1.1,2-2.7,1.3-4.3,1.4c0.5-3.3-0.2-4-3.5-3.6c-1.1,0-2.3-0.2-3.4-0.5l2.5-2.7
		c-2.3,0.4-4.3,1.3-5.1-1.4h39.5c-0.7,2.7-1.3,2.8-3.9,1.9s-3.4-0.3-5.7-0.4l1.7,4.9L294.8,500.2z M341.5,498
		c-0.4,2.6-2.2,2.4-4.4,2.1l1.5-3.2c-1.7-2.1-5.3,1.4-6.4-3c-0.2,0.5-0.4,1.1-0.5,1.7c0.3,1.7-0.6,1.7-1.8,1.2s-1.1-0.8-1.7-1.1
		c-0.6-0.3-1.3-0.6-2-0.7c-0.2,0.3-0.4,0.6-0.5,0.9l1.9,1.2c0.7,0.4,1.7,0.7,2.1,1.4s0.5,2,0.9,3.7c-1.3,0.2-2.5,0.3-3.8,0.2
		c-1.6-0.3-1-1.7-1.1-2.8s-1.2-1.5-1.9-2.2s-1.4,1.3-1.4,1.9c0.2,2.7-1.8,3.2-3.5,3.3c-3.7,0.2-7.5,0.1-11.2,0
		c-0.8-0.2-1.5-0.5-2.2-0.9l8.4-2.6l-5.3-4.1c0.8-0.4,1.6-0.7,2.4-0.8l25.9,0.3c2.5,0.1,5,1.2,7.5,2c0.7,0.4,1.2,1.1,1.2,1.9
		c-0.1,0.6-1.1,1.1-1.7,1.7l-1.5-1.6L341.5,498z M647.6,497.5c2.2,0.9,4.5,1.9,3.7,5h-28.1c1.7-2.7,3.8-3.4,6.6-2.3
		c0.5,0.3,1,0.4,1.5,0.4c1.5-2.4,4.3-1.1,6.4-2.3c-0.4-2-1.8-2.1-3.4-2.1s-4.3-0.4-6.4-0.7v-0.9c0.7-0.2,1.3-0.3,2-0.4h25.6
		c0.6,0.2,1.1,0.5,1.6,0.9c-0.5,0.5-0.9,1.5-1.4,1.5l-5.7,0.1l-2.1,0.2L647.6,497.5z M451.4,499.9c-1.4-0.1-2.7-0.2-4.1-0.5
		c-1-0.2-2.5-3.7-2-4.5c0.3-0.4,0.8-0.7,1.3-0.7h21c0.6,0.2,1.1,0.4,1.5,0.8c-0.5,0.3-1,1-1.5,1c-2.1-0.3-2.2,1.2-2.7,2.4
		c2.1,2.5,4.9,2.6,7.7,2.7c0.7,0.2,1.4,0.4,2.1,0.8l-0.2,0.8h-23.4c-1.1-0.2-2.1-0.5-3.1-0.9l0.2-0.9l3.3-0.4L451.4,499.9
		L451.4,499.9z M517.6,498.6l-3.3,0.5v1h5.9l0.3,1.2c-1.2,0.4-2.3,1.2-3.5,1.3c-3.7,0.2-7.5,0.1-11.2,0.1s-3.3-0.6-1.5-3.7
		c-1.1-0.2-2.3-0.3-3.4-0.2c-2.3,0.5-4.6,1.2-6.8,1.8c-0.6,0.2-1.2,0.7-1.8,0.9l-5.3,1.4l-0.2-0.9l3.2-0.4l-2.9-6
		c0.6-0.4,1.3-0.8,2.1-1c0.7-0.1,2.1,0.2,2.2,0.5c0.9,3.1,4.2,1.5,5.7,3.2c0.5-0.4,0.9-1,1.2-1.6c0-1.3,1-2.4,2.4-2.4
		c0.1,0,0.3,0,0.4,0h6.8c0.2-0.1,0.5-0.1,0.7,0C510.6,497.4,514.7,496.4,517.6,498.6L517.6,498.6z M665.9,616.7
		c1.8,0,3.7-0.3,5.4,0.1s2.2,1.7,3.2,2.7s2.3,1.6,3.4,0.1l0.4,0.4c1.2,2.8,2.8,3.8,5.6,1.8c0.8-0.6,2.4,0,3.6,0s3.5-0.3,4.7-2.6
		l-3.8-2l0.3-0.7l5.9,1.7c-0.1,3.8-3.3,6.9-7.1,6.8h-9.4l-0.9-0.2l-5.3-3l-6.5-4.1L665.9,616.7z M619.9,499.2l-1.7,1.6l0.2,0.5
		c0.5-0.3,1.1-0.4,1.7-0.5c0.6,0.1,1.1,0.3,1.6,0.6c-0.4,0.4-0.8,1.1-1.3,1.1h-8.1c-2.9,0-5.9-0.1-8.8,0s-3.1-0.4-3.4-2.5
		c2.1-2.4,4.3,2.1,6.8-0.3c-2.5-1.7-6.9-0.3-7.3-4.7c1-0.9,4.8-1.8,5.5-0.8s0.6,2.1,0.8,3.4l3.6-0.6c0.7,0.5,1.6,1.4,2,1.2
		C614.4,496.9,616.9,498.4,619.9,499.2L619.9,499.2z M70.4,620.1l1.9,0.4c1.3,0.3,2.8,0.4,2.8,2.4c0.2,0.7,0.5,1.3,1,1.9
		c-0.5,0.2-1.1,0.3-1.6,0.4c-3.3,0-6.6,0.1-10-0.1c-1.2-0.1-2.3-0.6-3.1-1.5c-1.4-1.7-3.2-1.6-5-1.7h0.1c1.4-2.9,3.7-3.8,6.8-3.3
		c0.6,0.1,1.4-0.7,2.1-1.1l-0.2-0.7h5l0.3,0.4c-0.7,0.5-1.3,1-1.9,1.6c-0.4,0.5-0.9,1.1-1.2,1.7h2C69.8,620.4,70.1,620.3,70.4,620.1
		L70.4,620.1z M316.2,620.8c3-4.5,7.4-4.5,12.1-3.9l-0.6,1.6l3,4.8l0.7-0.2c-0.1,1.5-0.8,2.1-2.4,2.1c-3.6-0.1-7.1,0-11.1,0
		c1.4-2.4,1.4-4.1-1.6-4.4L316.2,620.8z M526.5,502.8l1.5-6.9c2.3-0.7,4.6-1.3,7-1.7c2.6-0.2,5.1-0.2,7.7-0.1c0.6-0.1,1.2,0,1.8,0.2
		c0.4,0.3,0.7,0.7,0.8,1.2c-0.1,0.4-0.5,0.7-0.9,0.8c-1.1,0-2.2-0.2-3.3-0.6c-2.4-1.1-3.2-0.7-3.4,1.8l-0.4,4.4L526.5,502.8z
		 M98.4,497.4l-1.3,3.5l2.3,1.1c-3.7,1.8-7.4,0.8-10-2.4c-0.7-0.9-2.2-1.3-3.6-2c1.8-1.8,4-3,6.5-3.4
		C95.4,493.5,96.9,495.4,98.4,497.4L98.4,497.4z M548.5,494.4h17.1c0.3,3,0.3,3.1-2.5,2.9s-2.1,0.3-1.5,2.1c-1.7,0.1-3.6-1-5.1,1.1
		s-4.7-1.3-4.5-2.6s0-2.6-1.9-2.4C549.8,495.6,549.4,495.1,548.5,494.4z M113.4,495c-0.2,1.1-0.7,2-0.4,2.5c0.8,1.2,0.6,2.8-0.6,3.7
		c-1.1,0.6-2.4,0.8-3.6,0.4c-1.9-0.6-3.8-1.3-3.8-4.2c0-0.9-1.6-1.9-2.4-2.8C104.4,493.7,112.3,494,113.4,495z"/>
	<path d="M167.7,625.1l1.7-1.8h-2.1l-1.4,0.4V622c1.5,0.3,3.1,0.5,4.7,0.6c0.7,0,1.3-0.8,2-1.2c-0.7-0.8-1.5-1.6-2.4-2.3
		c-0.4-0.3-1.1,0-1.8,0.1c1.3-1.8,5.3-3.2,6.9-2.3c0.5,0.4,0.7,1,0.6,1.6c-0.6,1.3-0.2,2,1,2.5c0.3,0.2,0.6,0.5,0.8,0.8l-1,0.6
		l-1.7,1.1l0.4,0.9c1.7-0.4,3.3-0.8,5-1c0.7,0,1.3,0.2,1.9,0.5c-0.5,0.4-1,1.2-1.5,1.2L167.7,625.1L167.7,625.1z M346.3,494.3
		c1.3,0,2.9-1,3.3,1.2c0.4,0.1,0.9,0.1,1.3,0c0.9-2,2.8-1.5,4.2-1.4s4.5,0.9,7.2,1.5l-1.2,1.9H353l0.8,2.3l-1.9,1.7
		c-0.3-1-0.7-1.9-1.2-2.8c-0.4-0.6-0.9-1.1-1.6-1.4C347.5,497.1,346.2,496.6,346.3,494.3L346.3,494.3z M443.5,502.9l-5.1-1.4
		l1.4-1.9h-2.6l-2.3-2.1c1.8-1.7-0.2-2.1-1.6-2.8l0.3-0.5c2-0.2,4.1-0.1,6.1,0.1c1.2,0.4,2.1,1.3,2.5,2.5
		C442.8,498.8,443.2,500.8,443.5,502.9L443.5,502.9z M56.4,621.9c-2.1,3-5.9,4.2-9.4,3.1c-0.5-0.4-0.8-1-0.8-1.6
		c0.5-0.7,1.4-1.6,2.1-1.5c3.4,0.5,3.5,0.5,2.7-2.9c-0.4-1.6,0.7-2.3,3.1-1.9c-0.3,2.2-0.3,4.3,2.5,4.9L56.4,621.9L56.4,621.9z
		 M208.7,623.3c-0.7-0.6-1.3-1.2-1.8-2c-1.8-4-3.2-4.4-6.9-1.8c-0.9,0.6-1.8,1.1-2.8,1.6c-1.8-2.6-1.3-4,1.6-4.2
		c2.7-0.2,5.4-0.2,8.1,0c0.8,0.1,1.9,1.4,2.2,2.4s0.1,2.4,0.1,3.6L208.7,623.3z M157.9,617.3l-2.5,1.7l1.2,2.1
		c-0.6,1.4-4.9,1.2-1.3,4h-5c0.3-1,0.4-2.1,0.4-3.1c-0.2-0.8-0.9-1.6-1.7-2.9l3.8,0.7l0.8-0.9l-2.9-1.1l0.5-0.6h6.8L157.9,617.3z
		 M186,622.1l1.4,2.8h-1.5l-1.8-3.9c-0.3-0.4-0.4-0.8-0.5-1.3c0.3-2.4-0.8-1.8-2.1-0.9c-0.6-1.2-0.8-2.1,0.8-2.2s5.2,0,8,0
		C189.1,619,189.6,622,186,622.1L186,622.1z M658.5,625.1H658c-1.2-0.4-3,1-3.4-1.2s2.2-3.5,3.9-3.6h1.6c1.5-0.2,3-0.2,3.2,1.6
		s-1,3.2-3.2,3.2H658.5z M133.7,619.1l5.3-0.5c-1.3,1-3.5,1.2-2.8,3.7c0,0.3-0.1,0.7-0.3,0.9c-0.6,0.8-0.7,2.1-2.3,2.1
		s-3.6-0.2-5-2.4l2.5-3.1l1.6,1.3l1.7,0.9l-0.4-1.8L133.7,619.1z M371.5,501.3c-4-4.5-4.3-6-1.1-6.9v1.9l1-0.5c0.5-0.5,1-1,1.6-1.4
		c1,0.7,1.9,1.6,2.7,2.5c0.1,0.4,0,0.8-0.3,1.1c-0.7,0.5-1.5,0.8-2.2,1.3C372.6,499.9,372,500.6,371.5,501.3z M720.6,618.2l-1.7,2.3
		l5.3,3.6c-3.9,1.8-4.4-2.7-6.8-2.4l-2.3,3.7c-1.2-4.2,3.2-5.4,3-9L720.6,618.2z M704.7,619.9c-1.7,0.6-3.2,1-1.7,3.2
		c-2.5,3.6-5,2-7.8-0.3l3-1.3c1-0.6,2.1-1,3.2-1.4C702.5,619.9,703.6,619.9,704.7,619.9z M485.2,499l-6.4-2.4
		c-0.9-0.2-1.8,0-2.6,0.3c-1.8,0.6-1.8,0.7-3.4-1c1.6-0.5,3.4-1.8,4.3-1.3s4,0.9,5.9,1.5S484.2,497.6,485.2,499z M94.1,616.9
		c2.5-0.2,3.2,0.4,3.1,2.5s0.9,2.9,3.1,1.9c1-0.4,2-0.7,3.1-0.9C98.9,624.4,95.3,622.9,94.1,616.9z M111.6,625.1h-5.4
		c-0.5-0.2-0.9-0.4-1.3-0.8c0.4-0.4,0.9-0.8,1.4-1.1l2-0.9c0.6-0.3,1.2-0.6,1.8-0.7c0.3,0.4,0.6,0.9,0.7,1.4L111.6,625.1z
		 M584.6,502.4h-4.2l2.4-5.1c0.3-0.4,0.7-0.7,1.1-0.8c0.3,0.1,0.5,0.4,0.6,0.7C584.6,498.9,584.6,500.6,584.6,502.4L584.6,502.4z
		 M599.4,502.5h-10.3c0-2.7,2.4-2.5,3.7-3.5l0.4,0.4c-0.2,2.9,0.2,3.2,3,2.2C597.3,501.2,598.4,500.4,599.4,502.5L599.4,502.5z
		 M166.2,619.5c-2.7-0.2-4.3,0.8-4,4h-0.9c-0.3-0.9-1.1-1.8-0.9-2.5s1.2-2.5,2.1-2.9s2.5,0.4,3.7,0.6L166.2,619.5L166.2,619.5z
		 M123.1,623.3l-4,2.1c-0.4-1.2-1.2-2.8-0.9-3S121.7,621.1,123.1,623.3z M77.4,619.2l4,0.7l-2.7,4.4L77.4,619.2z M430.8,494.5
		c-2.9,1.9-5.1,1.8-7.2-0.3L430.8,494.5z M413.9,502.2l-6.3,0.3c-0.3-0.1-0.6-0.4-0.7-0.7c0-0.3,0.2-0.5,0.4-0.7
		C408.9,500.1,412.4,500.7,413.9,502.2L413.9,502.2z M265.2,501.9l2.9-1.5c2.1-1,2.5-0.7,2.5,2h-5.3v-0.5H265.2z M92.3,622.2
		c-0.3,0.7-0.7,1.4-1.2,2.1c-0.4,0.4-1,0.7-1.6,0.7c-0.9-0.1-1.8-0.3-2.6-0.6l0.9-1.6c1.5,1.5,2.5-0.1,3.7-0.6L92.3,622.2
		L92.3,622.2z M748.9,620.8l-2.2,0.2c-0.6,0-1.7-0.1-1.8-0.4c-0.1-0.8-0.1-1.5,0.1-2.3c0.7,0.1,1.3,0.2,1.9,0.5
		c0.8,0.5,1.5,1.1,2.1,1.8L748.9,620.8L748.9,620.8z M609.4,494.4h5.6C613.4,496.3,610.3,496.3,609.4,494.4z M618.2,494.4h7.2v0.6
		h-7.2V494.4z M338.8,617.2c-2.1-0.2-3.5,2.7-6.1,1.7C334.2,615.7,336.7,617,338.8,617.2z M365.2,502.5h-4.6l0.6-2.9h0.7l0.4,2.5
		l2.4-1.7L365.2,502.5z M70.5,620.1c-0.4-1.4,0.4-2,1.6-2.2l3.9-0.5c-1.9,1.6-3.5,2.6-5.6,2.6h0.1V620.1z M123.7,619.1l-2.9,1.8
		l-0.6-0.4c0.1-0.7,0-2,0.3-2.1c1-0.2,2-0.2,3-0.1L123.7,619.1z M338.2,623.6l-2.3-1.8l3.7-2.2L338.2,623.6z M666.8,622.5l4.3,2
		C668.4,625.9,666.7,625.2,666.8,622.5z M345.3,500.3c0.9-0.5,1.9-1,2.9-1.4c0.5,0.1,0.8,0.5,1,0.9c-0.1,0.5-0.4,0.9-0.8,1.1
		c-1,0.1-1.9,0.2-2.9,0.1L345.3,500.3z M436.9,624.7h-4.3V624h4.4v0.8L436.9,624.7z M759.4,618.6c-2,2.6-2.2,2.7-4.1,0.4
		L759.4,618.6z M737.3,620.6c0.7,1.4,0.2,3.2-1.3,3.9c-0.3,0.2-0.6,0.3-0.9,0.3c0.5-0.5,0.9-1.1,1.3-1.7
		C736.8,622.3,737.1,621.5,737.3,620.6z"/>
	<path class="st6" d="M627.3,178l-2.1,6.7L627.3,178z"/>
</g>
<g id="Layer_2">
	<path d="M626.5,179.3c-0.1-0.2-0.4-0.3-0.7-0.2c-0.5,0.3-1.2,0.3-1.7,0.5c-0.1-0.1-0.1-0.1-0.2-0.1c-1.4-0.2-2.7-0.3-4.1-0.1
		c-0.2,0-0.3,0.1-0.4,0.2c-0.5,0.1-0.7,0.9-0.1,1c0,0,0.1,0,0.1,0c0,0,0,0,0,0c0,0,0,0,0,0c0,0.1,0.1,0.1,0.1,0.2c0,0.1,0,0.2,0,0.2
		c0,0.2,0.2,0.5,0.5,0.5c0.9-0.1,2-0.4,2.9-0.4c0.7,0,1,0.6,1.7,0.7c1.2,0.2,1.2-0.5,1.5-1.3c-0.2,1.8-0.7,3.5-1.4,5.1
		c-0.3,0.6,0.6,1.1,0.9,0.5c0.9-2.1,1.5-4.2,1.6-6.5C627.4,179.2,626.8,179.1,626.5,179.3z"/>
</g>
<g id="Layer_3">
	<line class="st9" x1="114" y1="224.6" x2="200.8" y2="199"/>
	<line class="st9" x1="117.2" y1="230.4" x2="203.4" y2="204.3"/>
	<line class="st9" x1="119.9" y1="236.8" x2="205.6" y2="210.1"/>
	<line class="st9" x1="123" y1="242.5" x2="208.1" y2="215.4"/>
	<line class="st9" x1="125.4" y1="248.8" x2="210.1" y2="221.1"/>
	<line class="st9" x1="128.5" y1="254.5" x2="213.1" y2="226.1"/>
	<line class="st9" x1="114" y1="224.6" x2="128.5" y2="254.5"/>
	<line class="st9" x1="200.7" y1="198.6" x2="212.6" y2="226.3"/>
	<line class="st9" x1="121.2" y1="222.4" x2="127.2" y2="234.5"/>
	<line class="st9" x1="133" y1="246.3" x2="135.8" y2="252"/>
	<line class="st9" x1="128.3" y1="219.9" x2="137" y2="237.7"/>
	<line class="st9" x1="140" y1="243.8" x2="142.8" y2="249.5"/>
	<line class="st9" x1="135.8" y1="218" x2="149.8" y2="247.3"/>
	<line class="st9" x1="143.2" y1="215.6" x2="154.5" y2="239.3"/>
	<line class="st9" x1="150.4" y1="213.3" x2="161.6" y2="237"/>
	<line class="st9" x1="158.4" y1="211.5" x2="169" y2="234"/>
	<line class="st9" x1="165.7" y1="209.4" x2="176.5" y2="232.3"/>
	<line class="st9" x1="172.6" y1="207.3" x2="183" y2="229.9"/>
	<line class="st9" x1="179.9" y1="205.2" x2="192.6" y2="233"/>
	<line class="st9" x1="187.2" y1="202.9" x2="194.9" y2="219.6"/>
	<line class="st9" x1="194.2" y1="200.8" x2="199.3" y2="211.9"/>
	<line class="st9" x1="197.4" y1="225.1" x2="199.9" y2="230.5"/>
	<line class="st9" x1="204.4" y1="222.9" x2="206.9" y2="228.4"/>
	<line class="st10" x1="72.4" y1="485.2" x2="742.6" y2="485.2"/>
</g>
<g id="Layer_3_copy">
	<line class="st11" x1="114" y1="223.6" x2="200.8" y2="198"/>
	<line class="st11" x1="117.2" y1="229.4" x2="203.4" y2="203.3"/>
	<line class="st11" x1="119.9" y1="235.8" x2="205.6" y2="209.1"/>
	<line class="st11" x1="123" y1="241.5" x2="208.1" y2="214.4"/>
	<line class="st11" x1="125.4" y1="247.8" x2="210.1" y2="220.1"/>
	<line class="st11" x1="128.5" y1="253.5" x2="213.1" y2="225.1"/>
	<line class="st11" x1="114" y1="223.6" x2="128.5" y2="253.5"/>
	<line class="st11" x1="200.7" y1="197.6" x2="212.6" y2="225.3"/>
	<line class="st11" x1="121.2" y1="221.4" x2="127.2" y2="233.5"/>
	<line class="st11" x1="133" y1="245.3" x2="135.8" y2="251"/>
	<line class="st11" x1="128.3" y1="218.9" x2="137" y2="236.7"/>
	<line class="st11" x1="140" y1="242.8" x2="142.8" y2="248.5"/>
	<line class="st11" x1="135.8" y1="217" x2="149.8" y2="246.3"/>
	<line class="st11" x1="143.2" y1="214.6" x2="154.5" y2="238.3"/>
	<line class="st11" x1="150.4" y1="212.3" x2="161.6" y2="236"/>
	<line class="st11" x1="158.4" y1="210.5" x2="169" y2="233.1"/>
	<line class="st11" x1="165.7" y1="208.4" x2="176.5" y2="231.3"/>
	<line class="st11" x1="172.6" y1="206.3" x2="183" y2="229"/>
	<line class="st11" x1="179.9" y1="204.2" x2="192.6" y2="232"/>
	<line class="st11" x1="187.2" y1="201.9" x2="194.9" y2="218.6"/>
	<line class="st11" x1="194.2" y1="199.8" x2="199.3" y2="210.9"/>
	<line class="st11" x1="197.4" y1="224.1" x2="199.9" y2="229.5"/>
	<line class="st11" x1="204.4" y1="221.9" x2="206.9" y2="227.4"/>
	<line class="st11" x1="113" y1="223.6" x2="199.8" y2="198"/>
	<line class="st11" x1="116.2" y1="229.4" x2="202.4" y2="203.3"/>
	<line class="st11" x1="118.9" y1="235.8" x2="204.6" y2="209.1"/>
	<line class="st11" x1="122" y1="241.5" x2="207.1" y2="214.4"/>
	<line class="st11" x1="124.4" y1="247.8" x2="209.1" y2="220.1"/>
	<line class="st11" x1="127.5" y1="253.5" x2="212.1" y2="225.1"/>
	<line class="st11" x1="113" y1="223.6" x2="127.5" y2="253.5"/>
	<line class="st11" x1="199.7" y1="197.6" x2="211.6" y2="225.3"/>
	<line class="st11" x1="120.2" y1="221.4" x2="126.2" y2="233.5"/>
	<line class="st11" x1="132" y1="245.3" x2="134.8" y2="251"/>
	<line class="st11" x1="127.3" y1="218.9" x2="136" y2="236.7"/>
	<line class="st11" x1="139" y1="242.8" x2="141.7" y2="248.5"/>
	<line class="st11" x1="134.8" y1="217" x2="148.8" y2="246.3"/>
	<line class="st11" x1="142.2" y1="214.6" x2="153.5" y2="238.3"/>
	<line class="st11" x1="149.4" y1="212.3" x2="160.6" y2="236"/>
	<line class="st11" x1="157.4" y1="210.5" x2="168" y2="233.1"/>
	<line class="st11" x1="164.7" y1="208.4" x2="175.5" y2="231.3"/>
	<line class="st11" x1="171.6" y1="206.3" x2="182" y2="229"/>
	<line class="st11" x1="178.9" y1="204.2" x2="191.6" y2="232"/>
	<line class="st11" x1="186.2" y1="201.9" x2="193.9" y2="218.6"/>
	<line class="st11" x1="193.2" y1="199.8" x2="198.3" y2="210.9"/>
	<line class="st11" x1="196.4" y1="224.1" x2="198.9" y2="229.5"/>
	<line class="st11" x1="203.4" y1="221.9" x2="205.9" y2="227.4"/>
</g>
</svg>
