<svg xmlns="http://www.w3.org/2000/svg" viewBox="0 0 819 651.8"><style><![CDATA[.B{stroke-miterlimit:10}.C{opacity:0.22}]]></style><defs><clipPath id="A"><path d="M-189-154h1444v640.17H-189z" fill="none"/></clipPath></defs><path d="M294.2 518.9l3.9 6.7c-2.6 1.2-1.5 4.1-1.6 6.6v15.4l-.7 30.3a22.4 22.4 0 0 1-1.1 6.1c-.3.8-1.5 1.3-2.6 2.3 3.5 1.4 2.7 4.2 2.8 6.8s.6 2.1.6 3.2-.3 3.4-.4 5.1l-.3 4a16.4 16.4 0 0 1-3.3 1.1 55.7 55.7 0 0 1-7.6.7 26.6 26.6 0 0 1-5.4-.8 1.6 1.6 0 0 1-.9-1.2 10.7 10.7 0 0 0-3.8-6.6 5.3 5.3 0 0 1-1.1-2.4c-.5-1.7-.2-3 1.8-3.5a1.9 1.9 0 0 0 1.2-1.4 2.6 2.6 0 0 0-1.4-1.4 6.3 6.3 0 0 0-2.4-.8c-3.7-.3-3.9-3.4-5-5.9l-3.3-7.5c-.9-2.5-2.9-5.8-7.2-5.1a4 4 0 0 1 .5-1.6c2.2-1.4 1.3-2.8.3-4.4s-1.2-2.7-2-3.9l-5.9-8.5c-2-2.8-2.3-2.5-3.9-4.3 0 1.3-.1 2 0 2.6.3 2.7 1.9 5.5-.5 8.1-.3.3-.1 1.2-.1 1.8V573a16.6 16.6 0 0 0 .6 2.9 3 3 0 0 1 .2 1.3c-1.4 4.3-.6 8.5-.2 12.8s.2 7.6.3 11.4a3.3 3.3 0 0 1-.5 1.3l-1.8 3.8.4.7-8.2.3a28.8 28.8 0 0 1-3.7-.4c-2-.2-3.5-.9-3.2-3.3s-.8-2.8-2.1-3.8-1.7-4.7.9-5.4 1.9-1.6 1.9-3l-.1-69.8a42 42 0 0 1 1.1-7.7 2.2 2.2 0 0 1 1.4-1.3 28.6 28.6 0 0 1 12.9.4 3.3 3.3 0 0 1 2.7 3.3c.2 2.4 1.2 3 3.7 2.8h3.3a7.5 7.5 0 0 0-1.4 1.7c-.4 1.1-1.2 2.7-.8 3.5l8.6 16.7c1.2 2.1 3.1 3.9 4 6.1s3.1 7.1 5.8 9.9a4.1 4.1 0 0 0 .9 1c4.4 1.9 6.2 5.8 7.6 9.9a1.6 1.6 0 0 0 1.2 1 17.4 17.4 0 0 0-.7-2.1 7.1 7.1 0 0 1 .5-7.3 7.7 7.7 0 0 0 1.1-6.6 34.7 34.7 0 0 1-1.3-11.8c.6-8.4.4-16.8.4-25.2 0-2 .5-2.8 2.6-2.7s6.8 0 10.3.1c.8 0 2.2.2 2.2.6a8.8 8.8 0 0 1-.2 3.4 4.6 4.6 0 0 1-1 1.4zm-191.4 87.8c-1.7.2-2.9.4-4.1.4H78.4c-2.8 0-3.4-.6-4-3.4a4.3 4.3 0 0 0-1.5-1.6l-1.7-1.3a4.5 4.5 0 0 1 1.4-1.4c4.6-1.5 5.5-5.3 5.6-9.2v-24.5c0-.9-.4-1.8-.5-2.7a2.6 2.6 0 0 1 .2-1.8c1.9-1.8 1.4-2.9-.8-3.8a6.2 6.2 0 0 1-1.3-1.4c4.1-.2 3.3-3 3.3-5.3v-21.2c0-1.5-.1-2.7-2-3.4s-2.4-1.7-1.3-4.1a18.3 18.3 0 0 0 1.3-4.4c.5-3.3 1.6-4.2 4.9-4.3 1.1 0 2.2-.7 3.4-.9a19.6 19.6 0 0 1 3.9-.3l5.5.4 5.4.9h1.8l18.8.4c2.3.2 4.6 1.7 6.9 2.4l5.9 1.7a3 3 0 0 1 1.4 1.3c.6 1 .8 2.3 1.6 3.2a24.2 24.2 0 0 1 5.4 13.5c1.2 11.8-1 23.5-.3 35.3.2 2.8.4 5.6.3 8.5-.1 4.5-1.7 8.4-3.1 12.4a104.1 104.1 0 0 1-4.6 10.3 5 5 0 0 1-4.5 3.2l-19.9 1.1-5.3.4a5.4 5.4 0 0 1-1.8-.4zm19.5-73.8c3-3.4 2.7-4.4-1.2-5.7a16.3 16.3 0 0 0-3.8-.9l-16-.6c-5.3 0-7 2.2-7.1 7.2v18c0 .6 0 1.5.4 1.7 2.1 1.2 1 2.3.2 3.6a6.4 6.4 0 0 0-1.1 2.7l-.7 13v11.8c0 1.8.3 3.6-.2 5.2-1.6 4.8.6 8.4 5.6 8.4l17.5-.4h.7a14.3 14.3 0 0 0 9.9-10.5 47.7 47.7 0 0 0 1.2-11v-24a53.5 53.5 0 0 0-.8-5.9 6.5 6.5 0 0 1 .1-1.1 75.7 75.7 0 0 0 .3-7.7 2.5 2.5 0 0 0-2.9-2.6 5.6 5.6 0 0 1-2.1-1.2zm90.7 25.3a6.1 6.1 0 0 1 1 1.9l.1 14 .1 20.5c.1 2.8-1.4 4.5-3.1 6.2s-2.5 1.8-3.7 2.8a14.7 14.7 0 0 1-9.8 3.5c-7.5-.1-14.9.3-22.4.4-3.2 0-6.5-.3-9.7-.5a2.6 2.6 0 0 1-1.3-.5l-10.8-8.1a4.9 4.9 0 0 1-1.2-3.3l-.4-18.4-.7-14.1-.1-24.4a74.8 74.8 0 0 1-.1-8.4c.9-10.1 3.2-12 12.5-15.7a26.8 26.8 0 0 1 10.2-1.4c4.1 0 8.2-.9 12.3-1.2s8.8-.3 13.2-.2a4 4 0 0 1 2.4 1.8 19.4 19.4 0 0 0 10.4 7.8 2.2 2.2 0 0 1 1.3 1.5q.5 17 .7 33.9a3.4 3.4 0 0 1-.9 1.9zm-14.8-23.1l-.3-6.2c-.2-2.1-2.2-4.4-4-4.4l-20.4-.5c-2.7-.1-5.4.5-6.4 2.9s-4.6 4.4-1.3 7.4a2.4 2.4 0 0 1 .1 1.4v21.7a5.6 5.6 0 0 1-.9 2 8.6 8.6 0 0 1 .9 2.7l.2 30.3a3.4 3.4 0 0 0 1.7 2.6 22.1 22.1 0 0 0 5.8 1.1c7.6.6 15.2 1.4 22.4-2.3a3.3 3.3 0 0 0 2.1-3.4v-21.2c0-1.2.3-2.4.3-3.6q.1-11.3.2-22.7a2.4 2.4 0 0 0-.3-1c-1.4-2.8-.3-4.8 2.8-4.9a8.2 8.2 0 0 0 2.1-.1 1.5 1.5 0 0 0 .7-1.1 1.3 1.3 0 0 0-.7-1zm337.3 48.7v13.3c-.1 4.4-1.5 7.2-4.8 9.5s-6.7 1.5-8.4-1.9a18.2 18.2 0 0 1-1.8-6.6l-1.7-35.6c-.2-5.6.1-11.2.3-16.8l.5-11.2.8-16.9a5.8 5.8 0 0 1 1.8-3.5c2.1-1.9 8.2-2.3 10.6-.8a3.9 3.9 0 0 1 1.6 2.2 38.5 38.5 0 0 1 .9 6.9l.4 23.1a26.8 26.8 0 0 0 .8 6.4 3.4 3.4 0 0 0 2.5 1.8 51.7 51.7 0 0 0 8.4 0 4.9 4.9 0 0 0 2.9-1.6c3.3-3.6 4.5-8.1 5-12.8l2.9-22.3a3.3 3.3 0 0 1 2.3-2 51.8 51.8 0 0 1 7.7-.1c2.3.1 4.3 3.7 2.7 5.2-3.4 3.1-1.7 6.2-.8 9.5a4.2 4.2 0 0 1 .2.9l1 18.5c.1 6.2-.9 10-.7 15s1.1 8.9 1.6 13.3l1.7 15.9a64.4 64.4 0 0 1 0 8.3 5.1 5.1 0 0 1-5 4.9 61.2 61.2 0 0 1-7 0 5 5 0 0 1-4.7-4.6l-.6-20.9a26 26 0 0 1 0-5.4c.9-5.1-2.2-7.8-5.7-10.5a2.5 2.5 0 0 0-1.2-.6c-4.7-.3-9.3.3-13.3 3.1-.6.5-.9 1.8-.9 2.7v13.5h.1zm158.6-22.3V524c0-7.2 3.6-9.6 9.8-10a197.4 197.4 0 0 1 24.9 0c5.9.4 11.9 2 14.7 8.1a29.4 29.4 0 0 1 2.4 10.5c.4 7.4.4 14.9.1 22.4-.3 5.9-2.7 10.2-9.1 11.7a55.7 55.7 0 0 1-21.4.9 4 4 0 0 0-4.9 4.3v31.5a13.7 13.7 0 0 1-1.3 5.5c-.4.8-1.9 1.5-3 1.6s-4.5 0-6.8.1a3.3 3.3 0 0 1-3.9-3.1 64.7 64.7 0 0 1-1.2-9.4l-.1-36.6h-.1zm35.9-21.2c0-2.3-.2-4.5 0-6.8.5-5.1-1.9-6.3-5.8-7.6s-5.8-.3-8.7-.1a2.5 2.5 0 0 0-2.4 2.9 12 12 0 0 1-.1 1.6l-1.6 19.4a4.4 4.4 0 0 0 2.9 4.6 15.4 15.4 0 0 0 10 .3c4.1-1.4 5.6-3.6 5.6-7.9q.1-3.2.1-6.4zm-67.7-27.7c2 .7 3.6 2 5.2 1.9 3.5-.3 4.7 1.7 5.3 4.4s1.3 8.2 2 12.2l1.7 9.1 1.2 5.9 4.6 18.4a64.5 64.5 0 0 1 1 7.3l1.2 10.8c.6 3.6 1.5 5.8 2.2 8.6s1.4 3.4 1.1 4.9-1.7 3.2-2.7 4.9a14.9 14.9 0 0 1 2.7 2.2 3.7 3.7 0 0 1 1 2.8 3.3 3.3 0 0 1-2.3 1.9 40.5 40.5 0 0 1-7.2 0 3.2 3.2 0 0 1-1.9-1.4 32 32 0 0 1-3.1-4.9c-1.2-2.4-3.1-3-5.5-3.1l-9.3-.6c-.6-.1-1.1-.9-1.7-1.3s-1.2-1.1-1.8-1.1a2.5 2.5 0 0 0-1.7 1.3l-5.3 10.9a2.5 2.5 0 0 1-1.8 1h-7.5c-2.2-.1-3.2-1.4-2.6-3.6a8.6 8.6 0 0 1 1.1-2.8c1.3-1.8 1-3.4.3-5.4a9.6 9.6 0 0 1-.1-4.3c.4-3.5 1.1-7 1.6-10.5s.6-7.8 1.1-11.7c.2-1.5 1.3-2.8 1.7-4.2l2.7-10.9 2.5-14.1 1.4-8.6c1.1-5.3.7-11.1 4.3-15.8 1.6-2.1 3-4.3 6.3-3.4.7.4 1.7-.5 2.3-.8zm-.2 39.7l-3.3 4.1c-2.7 3.4-1.7 7.7-2.5 11.6-1.2 5.7-.9 11.7-1.3 17.5-.1 1.9.5 2.8 2.5 2.6l12-1a3 3 0 0 0 1.7-2.2 66.9 66.9 0 0 0 .1-7.4 27 27 0 0 0-.4-5.8c-1-4.1-2.4-8.2-3.5-12.3s-1.7-5.5-5.3-7.1zm9.8 40.3l-2.5 2a27.6 27.6 0 0 0 3.8 2.5c.3.1 1.1-1.1 1.7-1.7zm-15.5.8v.8l3.6.3a2.5 2.5 0 0 0 .5-.9l-3.2-.7a2.1 2.1 0 0 0-.8.6zm-302.1-75.8c-1.6.8-3.1 2.1-4.8 2.4-4.8 1-9.7 1.7-14.6 2.4-3 .4-6 .5-9 1.1a2.8 2.8 0 0 0-1.8 2l-1.2 17.4c-.5 5.8 3.4 8.3 7.5 9.1a108 108 0 0 0 11 1.2c1.9.2 3.9.2 5.8.6s3.9 1.3 4.2 3.7-.6 5.6-3.3 6.7a23.9 23.9 0 0 1-6.1 1.3l-13.4.9c-4.4.3-4.6 1.8-4.4 4.8s1.1 5.3 1.2 7.9.3 5.7-.5 8.2-.1 4.9.7 7.1c.2.6 2 1 3 1h21.7a28.8 28.8 0 0 1 4.6.4c2.9.5 5.4 3.2 5.3 5.4s-2.8 4.8-5.7 5l-24.1 1.3c-5.6.1-11.1-.7-16.7-1.3a4 4 0 0 1-3.9-3.9l-1.7-20-.4-19.8q0-12.3.3-24.7l.9-18.6c.2-3.7 3.9-6.8 8.5-7.3 9.5-1 18.9.2 28.3.8a1.5 1.5 0 0 1 1 .4c1.7 2.5 4.2 3.5 7.2 3.4zm272 .5c-2.4 2.8-5.5 3.5-8.4 3.9l-19.5 2.4a3.2 3.2 0 0 0-2.2 2.1l-1.2 17.1c-.5 5.7 3.4 8.5 7.7 9.4s7.2.8 10.8 1.1a51.2 51.2 0 0 1 6 .7c2 .4 3.8 1.4 4 3.9s-.8 5.5-3.5 6.6a16.9 16.9 0 0 1-4.7 1.2l-13.2 1c-6.8.6-6.9 2.9-5.5 8.6a27.8 27.8 0 0 1 .1 13.4c-.5 1.9.3 4.2.9 6.2s1.9.9 2.9.9h21.2c1.8 0 3.5.3 5.3.4a5.8 5.8 0 0 1 5 5.5c-.1 2.5-2.6 4.8-5.6 4.9l-17.2.9a82.9 82.9 0 0 1-8.6.5 133.9 133.9 0 0 1-15.2-1.5c-1.3-.2-3-2.1-3.4-3.5a54.8 54.8 0 0 1-1.2-10.1l-.7-17.6-.4-13.7 1.2-41.6c.1-3.9 3.7-7 8.4-7.6 9.5-1.3 18.8.3 28.2.7a2 2 0 0 1 1.4.6 7.2 7.2 0 0 0 6.2 3.1 3.9 3.9 0 0 1 1.2.5zm-153.9 29.7q0 20.4 0 40.8c0 6.3 3.1 9.9 9.4 10.4a26.3 26.3 0 0 0 8.7-.8 5.7 5.7 0 0 0 4.5-5.5 15.6 15.6 0 0 1 .9-4.8 3.1 3.1 0 0 1 2.1-1.9 62.7 62.7 0 0 1 7.3.8c.8.1 1.5.4 2.3.4 3.5.2 4.1.7 3.5 4.3-1.3 8.4-5.6 13.3-13.7 15.8s-17.2 1.7-25.7-.1c-4.7-1-9-3.5-11.1-8.4a17.8 17.8 0 0 1-1.6-5.7l-.7-24.7.6-41.7a4.9 4.9 0 0 1 1.1-3.1l11-10.3a4.6 4.6 0 0 1 2.7-.9l8.2-.1c2.8-.2 3.5-.9 5.1-.7a60.5 60.5 0 0 1 8 1.8 48 48 0 0 1 7.5 2.1c4.9 2.1 7.4 6.5 9.2 11.3a16.8 16.8 0 0 1 1.1 4c.3 2.9-1.6 5.3-4.5 5.4a77.6 77.6 0 0 1-10.8-.8c-.7-.1-1.4-1.3-1.8-2.1-1.3-2.6 0-6-2.7-8.1a8.3 8.3 0 0 0-3.9-1.6 62.7 62.7 0 0 0-7-.1 9.1 9.1 0 0 0-9.2 9.4l.1 7.5v7.5h-.7zm55.7 77.3H495c-.4-1.6-.8-3.3-3-2.6-.5.2-.5 1.5-.9 2.7h-17.7a3.5 3.5 0 0 1-2-1 1.6 1.6 0 0 1 .1-1.4 3.9 3.9 0 0 1 1.2-.9l.7 1.6c1.1-3.4 4.5-.7 6.7-2.8l-5.7-1.1-4.1-1.2a21.3 21.3 0 0 0-3.5-.7c-2-.2-2.1 1.1-2.2 2.7s1.1 1.8 2.3 2a17.1 17.1 0 0 0 2.6 0l-.2 3.2-5.6-1.4c-1.2-.3-2.3-1-3.4-1.2a2.5 2.5 0 0 0-2.1.6c-1.4 2.3-3.4 1.6-5.3 1.6l-.5-.6 4.5-3.5a11.7 11.7 0 0 0 1.5-1.9c-.6-.4-1.1-1.2-1.7-1.2a4.6 4.6 0 0 0-2.8.8c-1.8 1.5-3.5 1.3-5.3.3a2.4 2.4 0 0 0-1.9-.3c-.4.3-.5 1.2-.7 2.1l-3.7 1.6c-2.9 1.3-3.9.7-4-2.4a16.8 16.8 0 0 0-.4-2.2 70.7 70.7 0 0 1 8.1-1h33.8c.9 0 1.9.7 2.8 1a4.9 4.9 0 0 0 2.2.1c1.3-.3 2.5-1.1 3.7-1.1h48.3l11.2.1a2.2 2.2 0 0 1 2.4 2c.2 1 .4 2.7 2.2 2a2 2 0 0 0 1-3.2 7.4 7.4 0 0 1-.4-1.3 24.9 24.9 0 0 0 3.8.7c1.1 0 2.1-.4 3.2-.4l17.5.3 14.9-.4c.7 0 1.8 0 2.2.4s3 1.1 4.6 0 5.4-.5 6.1.5l8.9-.9h41l-2.3 1.8.4.7 3.3-.8c-.7 1.6-1.1 2.5-2.8 1.7a3.7 3.7 0 0 0-3.1.1c-2.7 1.7-5.2 2.4-8.2.7-.6-.3-1.8.3-2.7.5l.7 3.2h-14.3l-1.7-1.7-2.4-2.3-1.5-1.1c-.3.7-1 1.9-.7 2.1s1 2.5 0 2.9-3.1.1-4.6-.1-1.9-.8-2.8-.6l-7 1.6-.4-.7 1.6-3.4-1.9-1.1a7.2 7.2 0 0 0-.6 2.4c.3 2.1-.7 2.5-2.5 2.5h-16.2l-2.6-.3.8-2.7-.4-.6c-.7.4-1.8.6-2.2 1.2s-2.3 2.3-4.2 2.2h-5.5l1.3-3.4a13.1 13.1 0 0 1-2.2-.6c-.9-.4-1.6-1-2.4-1.4a16.2 16.2 0 0 0-3.2-1 1.3 1.3 0 0 0-1 .7 2 2 0 0 0 .6 1.3 7.5 7.5 0 0 0 1.4.9c-2.5 2.4-5 4.4-8.8 3.6H556c-3.3.7-5.8-1-8.6-2.2s-4-.6-6-.6c-.3 0-.6 1.7-1 2.8H532a18.1 18.1 0 0 0-.8-4.2c-.4-.9-1.5-2.1-2.3-2.1s-3.4.6-4 1.6.2 2.9 1.8 3.8zm109.9-5.5c-1.2-.7-2-1.5-2.3-1.4a8 8 0 0 0-2 1.8c.5.4 1 1.1 1.3 1a14.4 14.4 0 0 0 3.1-1.4zm-40.8 2.5v.4l4.1.4-.4-2.5zm-41.6 2.9l1.8-1.6c-.4-.3-1-1-1.2-.9a8.1 8.1 0 0 0-1.8 1.3zm119.8-128.8l-2.7-1.5v-.5h39.4c4.3 0 5.8 1.4 6.3 5.7a1.9 1.9 0 0 0 1.3 1.3c1.2.1 3.3.1 3.6-.5 1-2.3 2.5-1.5 4-1.3s2.9-.1 2.4-2.4c1.7.2 3.3.1 3.8 2.3.1.5 1 .8 1.5 1.1a1.7 1.7 0 0 0 .8-.6c-.3-.5-.7-.9-1-1.4l-1.3-2a12.1 12.1 0 0 1 2.2 0l5.9 1.2c2 .3 2.6-1 2.4-3.6h17.9c3 0 4.4 1.3 4.5 4.3.1 1.3 0 2.6 0 4-4 .1-7.7.6-11.2-1.4-.5-.3-1.6.1-2.4.4s-1.7 1.1-2.5 1.1q-9.2.1-18.4 0a5.7 5.7 0 0 1-2.7-1.3c-1-.7-1.8-1.8-2.5.3a1.9 1.9 0 0 1-1.5 1h-28l-.9-.3.8-1.8c-.6-1.1-1-2.1-1.5-3a9.2 9.2 0 0 0-1.2-1.3 6.8 6.8 0 0 0-1.4 1.6c-.2.5.2 1.2.1 1.8-.4 2.2-1.5 3.4-3.9 3.1a36.7 36.7 0 0 0-4.8 0c.1-2.8-1.3-3.1-3.3-2a1.5 1.5 0 0 1-1.1.2c-2-1.9-4.8-.5-6.9-1.5s-2.3-.2-2.8 1.1a3 3 0 0 1-3.3 2.1h-8.9l1.3-2c1.1-1.4 2.2-2.6 2.3-4.5s1.4-2.3 3-1.6a51.2 51.2 0 0 1 6.3 3.2c2.2 1.6 3 1.5 4.4-1.3zM390.1 603.3l3.2-4.6c-2.2-1.9-3.3 1.7-5.2.9s.7-6.7 1.6-7.3a2.7 2.7 0 0 1 1.3-.2c2.1-.1 3-1.7 2-3.5s1.2-4.2 2.8-4.2c4.3 0 8.6.3 12.6-1.7a1.3 1.3 0 0 1 1.2.4 2.2 2.2 0 0 1-.2 1.2l-.3 1.6a6.7 6.7 0 0 0 1.9.2 5.3 5.3 0 0 1 6.3 4c1.3 5.5 1 10.7-2.9 15.3-.9 1.1-1.2 2.7-1.9 4s-1.2 2-1.9 2.1a46.1 46.1 0 0 1-9.1-.2c-1.9-.3-3.7-1.7-5.6-2.3s-5.2-2.7-5.8-5.7zm16.3 1c3.1 1.3 4.3.8 4.4-1.6zm11.5-76.2l1.4-.6.4.4c-2.5 5.2-1.7 10.8-1.9 16.2s-.1 9.2 0 13.7c0 1.6.7 3.1.9 4.7s.1 4 .4 6a20.2 20.2 0 0 0 1.3 3.4 2.8 2.8 0 0 1 .3 1.8 2 2 0 0 1-1.6.8l-8.6-1.2a2.3 2.3 0 0 0-1.5.2c-3.7 2.9-8 2.5-12.3 2.2-1.9-.1-3.8.1-5.7.1s-2.4-1.2-2.8-2.5l2.1-1.4c-1.1-1.3.5-3.4-1.7-4.5s-3.3-3.2-2.6-6a9.8 9.8 0 0 1 5.3-6.4c5.8-3.2 11.5-4.3 17.8-1.6l1.6.4c2.3.6 2.6.1 2.5-2.3a109.5 109.5 0 0 1 .2-11.5c.2-2.4.8-4.7-.9-6.9S410 531 408 531s-2.7-.2-2.6-1.9 1.2-2.5 2.8-2.5 4.7-.1 7 .1 1.6.8 2.7 1.4zm-7.6 32.8a31 31 0 0 1-3.2-1.6c-2.3-1.5-4.6-3.1-7.5-1.9a78.4 78.4 0 0 0-7.8 3.3c-.8.4-1.8 2.2-1.5 2.8a15.8 15.8 0 0 0 3.2 4c1.1 1.1 2.4 2 3.5 3s8.1 1.2 9.9-1.6a7.3 7.3 0 0 1 2.8-2.5c1.6-.8 1.4-2.1 1.3-3.4a8.5 8.5 0 0 0-.7-2.1zm3.4 9.6c-1.4-.6-.9-3.4-3.2-2.3a2.7 2.7 0 0 0-.8 2.5c1 1.1 2.4 1.2 4-.2zm-97.6 50.3a5.6 5.6 0 0 1-6 .6 4.4 4.4 0 0 0-1-.6 12.5 12.5 0 0 0-2.7-.4 1.7 1.7 0 0 0-.4 1.3 10.7 10.7 0 0 0 2.3 2.6c.5.3 1.4.1 2.1.1v.6h-1.9c-11.4 0-22.7.1-34.1-.1-1.6 0-3.3-1.1-4.9-1.6l-2-.3v1.9l-2.2-1.2c-2.3-1.4-3.8-1.2-5.8.8a1.1 1.1 0 0 1-.8.4c-5.1-1.1-10.2 1-15.5-.2l.6-2.2-1.1-.8c-.5-.4-1.3-.8-1.3-1.3-.1-3-2.7-1.9-4-2.1s-2 1.4-2.9 2.3a1.9 1.9 0 0 0 .1 1.6c1.1 2.1.8 2.8-1.6 2.8h-7.9c-.5-3.4-1.8-4.2-8.7-2.6l-5.7-5.6 1.7-.3H228c2.7 0 2.9.4 1.9 2.8a4.6 4.6 0 0 0 0 1.3c0 .4-.1.9-.2 1.7 2.3-.7 3.1-2.6 3.8-4a2.7 2.7 0 0 1 2.9-1.9c1.8.1 3.6-.1 5.4 0a33.9 33.9 0 0 1 4.5 1.1c.6-2.1 2.7-.9 4.4-1l.3.7-6.3 2.8c1.1 6.2 4.9 4 8.1 2.9.1-.7-.1-1.7.4-2.2s1.4-2.9-.9-3.9h19.6l-1.6 2.8c1.3.2 2.4.8 3.2.4s3.8-.7 3.3-3.4h14.3v.3a6.2 6.2 0 0 1-2.2.4 1.7 1.7 0 0 0-2.3 1.7 3.6 3.6 0 0 0 1 2.8c2.1 1.5 5.6 1.1 7.6-.7a2.2 2.2 0 0 0 .7-1.1 4 4 0 0 1 4-3.5h12.2c-.2 2.6 1 4.1 3.6 4.1zM198.9 495.6l-4.6.2v.9h2.2a6.5 6.5 0 0 1 2.4.3c1.6.8 3.4 1.7 1.6 4.1l2 1v.5a45.9 45.9 0 0 1-4.9-.1 2.2 2.2 0 0 1-1.3-1.4c-.6-2.1-1.6-1.5-2.9-.7a22.7 22.7 0 0 1-3.5 1.4 2.7 2.7 0 0 1-1.2.9h-27l-21.4.1c-4.4-.1-8.9-.7-13.3-.9-1.7-.1-3.4.5-5.1.7s-1.1-.4-2.2-1l2.3-.9 1.6-1.1a10.2 10.2 0 0 0-1.5-1.6l-4.1-2.6.3-.8H136a12.8 12.8 0 0 0-.8 1.8 2.5 2.5 0 0 0 0 1.4 1.1 1.1 0 0 0 1 .2 1.9 1.9 0 0 0 .8-1.2c-.8-3.1 1.3-2.4 2.9-2.4a1.2 1.2 0 0 1 .3.4c.1 3.5.1 3.5 3.4 2.4a2.8 2.8 0 0 1 1.6-.2 9.7 9.7 0 0 0 7-.7c.8-.4 1.5-1 2.4-1.3a2.9 2.9 0 0 1 2-.2c2 .9 4.2 1.6 3.6 4.3l9.1-.9a4.3 4.3 0 0 0 2.9-1.6c1.1-1.9 2.7-2.2 4.5-2.2h19.8a11 11 0 0 1 2.3.5v.9zM396 618.8l-1.7-1.9c4.9 1.4 7.8 2.6 7.3 7.7-.1.5.1 1.1 0 1.6s.7 2.6 2.5 2.2 2.7-.2 3.9-.5c2.9-.8 4.7 1 6.5 2.7a2.4 2.4 0 0 1 .3 1.5c-1 .3-2.3 1.1-3 .7-2.5-1.3-4.9-.8-7.3-.3s-3.3.9-3.1 3.3c.1.9-.6 1.9-1 2.8-1.3 3.6.6 8.9 5.7 8.5l6.9-.6a3.8 3.8 0 0 0 1.4-1l3.8-3 1 .5a75.8 75.8 0 0 1-1.1 7.5c-.2.6-1.6 1.4-2.4 1.3l-15.1-.9a5.9 5.9 0 0 1-5.8-6.3c.1-2.5.5-4.9.8-7.4s-.6-2.9-2.7-3.2a26.1 26.1 0 0 1-6.7-1.7c-.7-.3-1.3-2-1.2-3s1.3-1.2 2.5-1a27.6 27.6 0 0 0 6.9 0c1.7-.2 1.6-1.8 1.5-3.2s.1-4 .1-6.3zM205.5 502.2l-.8-7.8h7.8l.9 2.3c.8 2.6.9 2.7 3.4 1.3a2.4 2.4 0 0 1 1.5-.5c2.3 1.7 4.8-.2 7.1.4s2.9.1 3.2-2a2.6 2.6 0 0 1 1.9-1.6l12.3-.1v.7a27.2 27.2 0 0 1-3.2.5c-.8 0-1.7-.3-2.5-.2a6.4 6.4 0 0 0-1.9.9 5.2 5.2 0 0 0 1 2c1.6 1.1 3.1 2.3 5.3.8.6-.4 2.3 0 3.1.6 2.9 2.1 3.4 2.1 4.7-1.2.4-1 .9-1.6 2.1-1s2.4.1 2.3-1.5.5-1.8 1.9-1.4l-.5 2a11.4 11.4 0 0 1 3 .4 8.5 8.5 0 0 1 2 1.7l-1 3.9-3.6.2.2-.6a9 9 0 0 0-2.5-1.6c-1.2-.3-2.7-.6-3.1 1.4a1.4 1.4 0 0 1-1.1.6c-3.5.3-7 .1-10-2s-2.8-1.2-3.6.9a2.2 2.2 0 0 1-1.7 1H221a6.5 6.5 0 0 1-1.7-.5c-1-.3-1.9-.9-2.9-.8a6.7 6.7 0 0 1-6.4-2.4c-1.3-1.6-2.8-1.1-3.4.9a22.3 22.3 0 0 1-1.1 2.7zm-120.7-5.4l-1.5 2.5-9.1 3.2-.9.2H54.4c-.7-1.5-1.2-3.4-1.6-3.4a33.9 33.9 0 0 0-6.2 1.1c-1.9-1.1-3.6-2.8-2.1-6.3l12.5.5c2.3-.1 3.8 1.3 5.7 2s3.3 1.1 5.1-.1 2.5-.9 3-.4 2.3.8 3.2-.5a.9.9 0 0 1 .5-.4c2.9-.3 5.9-.6 8.9-.6.4-.1 1 1.5 1.4 2.2zm300 .5l-1.2-2.9H396l4.7-.2h16.7a1.9 1.9 0 0 1 1.3 1.1c-.5 2.3 1.1 2 2.5 2.3a3.3 3.3 0 0 1 2.1 1.1c.2.5-.3 1.5-.7 2.1s-1.2 1.7-1.4 1.6a29.5 29.5 0 0 1-4.1-2.1 7 7 0 0 0-1.6-1.1 2.2 2.2 0 0 1-2.1-2.3c-.1-1.6-1.1-2-2.4-1.2a26.7 26.7 0 0 0-4.1 3c-2.3 2.1-8 2.8-10.8.5a6.9 6.9 0 0 0-1.7-1.2c-1.8-.7-2.6-.1-2.8 1.9a1.6 1.6 0 0 1-.2.7l-4.4-1.5-.3 3.4-5.5-.6c-.8-3.1 1.6-3.6 3.6-4.6zm-90 2.9v2.3l-5.8-.4a2.5 2.5 0 0 0-.4-1.3 33.5 33.5 0 0 0-6.6-1.3 3.9 3.9 0 0 0-3 1.7c-1.1 2-2.7 1.3-4.3 1.4.5-3.3-.2-4-3.5-3.6a14 14 0 0 1-3.4-.5l2.5-2.7c-2.3.4-4.3 1.3-5.1-1.4h39.5c-.7 2.7-1.3 2.8-3.9 1.9s-3.4-.3-5.7-.4l1.7 4.9zm46.7-2.2c-.4 2.6-2.2 2.4-4.4 2.1l1.5-3.2c-1.7-2.1-5.3 1.4-6.4-3a6.8 6.8 0 0 0-.5 1.7c.3 1.7-.6 1.7-1.8 1.2s-1.1-.8-1.7-1.1a8.2 8.2 0 0 0-2-.7 2.1 2.1 0 0 0-.5.9l1.9 1.2c.7.4 1.7.7 2.1 1.4s.5 2 .9 3.7a15.7 15.7 0 0 1-3.8.2c-1.6-.3-1-1.7-1.1-2.8s-1.2-1.5-1.9-2.2-1.4 1.3-1.4 1.9c.2 2.7-1.8 3.2-3.5 3.3-3.7.2-7.5.1-11.2 0a6.4 6.4 0 0 1-2.2-.9l8.4-2.6-5.3-4.1a8.6 8.6 0 0 1 2.4-.8l25.9.3c2.5.1 5 1.2 7.5 2a2.2 2.2 0 0 1 1.2 1.9c-.1.6-1.1 1.1-1.7 1.7l-1.5-1.6zm306.1-.5c2.2.9 4.5 1.9 3.7 5h-28.1c1.7-2.7 3.8-3.4 6.6-2.3a3.2 3.2 0 0 0 1.5.4c1.5-2.4 4.3-1.1 6.4-2.3-.4-2-1.8-2.1-3.4-2.1s-4.3-.4-6.4-.7v-.9a10.7 10.7 0 0 1 2-.4h25.6a4.3 4.3 0 0 1 1.6.9c-.5.5-.9 1.5-1.4 1.5l-5.7.1-2.1.2zm-196.2 2.4a33.2 33.2 0 0 1-4.1-.5c-1-.2-2.5-3.7-2-4.5a1.7 1.7 0 0 1 1.3-.7h21a3.9 3.9 0 0 1 1.5.8c-.5.3-1 1-1.5 1-2.1-.3-2.2 1.2-2.7 2.4 2.1 2.5 4.9 2.6 7.7 2.7a7.2 7.2 0 0 1 2.1.8l-.2.8h-23.4a12.2 12.2 0 0 1-3.1-.9l.2-.9 3.3-.4v-.5zm66.2-1.3l-3.3.5v1h5.9l.3 1.2c-1.2.4-2.3 1.2-3.5 1.3-3.7.2-7.5.1-11.2.1s-3.3-.6-1.5-3.7a13.9 13.9 0 0 0-3.4-.2c-2.3.5-4.6 1.2-6.8 1.8-.6.2-1.2.7-1.8.9l-5.3 1.4-.2-.9 3.2-.4-2.9-6a7 7 0 0 1 2.1-1c.7-.1 2.1.2 2.2.5.9 3.1 4.2 1.5 5.7 3.2a4.4 4.4 0 0 0 1.2-1.6 2.4 2.4 0 0 1 2.8-2.4h6.8a1.2 1.2 0 0 1 .7 0c2 3.1 6.1 2.1 9 4.3zm148.3 118.1c1.8 0 3.7-.3 5.4.1s2.2 1.7 3.2 2.7 2.3 1.6 3.4.1l.4.4c1.2 2.8 2.8 3.8 5.6 1.8.8-.6 2.4 0 3.6 0s3.5-.3 4.7-2.6l-3.8-2 .3-.7 5.9 1.7a7 7 0 0 1-7.1 6.8h-9.4l-.9-.2-5.3-3-6.5-4.1zm-46-117.5l-1.7 1.6.2.5a5.5 5.5 0 0 1 1.7-.5 5.7 5.7 0 0 1 1.6.6c-.4.4-.8 1.1-1.3 1.1h-8.1c-2.9 0-5.9-.1-8.8 0s-3.1-.4-3.4-2.5c2.1-2.4 4.3 2.1 6.8-.3-2.5-1.7-6.9-.3-7.3-4.7 1-.9 4.8-1.8 5.5-.8s.6 2.1.8 3.4l3.6-.6c.7.5 1.6 1.4 2 1.2 2.9-1.3 5.4.2 8.4 1zM70.4 620.1l1.9.4c1.3.3 2.8.4 2.8 2.4a5.7 5.7 0 0 0 1 1.9 7.2 7.2 0 0 1-1.6.4c-3.3 0-6.6.1-10-.1a4.7 4.7 0 0 1-3.1-1.5c-1.4-1.7-3.2-1.6-5-1.7h.1c1.4-2.9 3.7-3.8 6.8-3.3.6.1 1.4-.7 2.1-1.1l-.2-.7h5l.3.4a20.1 20.1 0 0 0-1.9 1.6 11.7 11.7 0 0 0-1.2 1.7h2a3.7 3.7 0 0 0 1-.4zm245.8.7c3-4.5 7.4-4.5 12.1-3.9l-.6 1.6 3 4.8.7-.2c-.1 1.5-.8 2.1-2.4 2.1-3.6-.1-7.1 0-11.1 0 1.4-2.4 1.4-4.1-1.6-4.4zm210.3-118l1.5-6.9a56.6 56.6 0 0 1 7-1.7 62.7 62.7 0 0 1 7.7-.1 4.6 4.6 0 0 1 1.8.2 1.8 1.8 0 0 1 .8 1.2 1.2 1.2 0 0 1-.9.8 9.9 9.9 0 0 1-3.3-.6c-2.4-1.1-3.2-.7-3.4 1.8l-.4 4.4zm-428.1-5.4l-1.3 3.5 2.3 1.1c-3.7 1.8-7.4.8-10-2.4-.7-.9-2.2-1.3-3.6-2a12.2 12.2 0 0 1 6.5-3.4c3.1-.7 4.6 1.2 6.1 3.2zm450.1-3h17.1c.3 3 .3 3.1-2.5 2.9s-2.1.3-1.5 2.1c-1.7.1-3.6-1-5.1 1.1s-4.7-1.3-4.5-2.6 0-2.6-1.9-2.4c-.3.1-.7-.4-1.6-1.1zm-435.1.6c-.2 1.1-.7 2-.4 2.5a2.7 2.7 0 0 1-.6 3.7 4.6 4.6 0 0 1-3.6.4c-1.9-.6-3.8-1.3-3.8-4.2 0-.9-1.6-1.9-2.4-2.8 1.8-.9 9.7-.6 10.8.4z"/><path d="M167.7 625.1l1.7-1.8h-2.1l-1.4.4V622a32.4 32.4 0 0 0 4.7.6c.7 0 1.3-.8 2-1.2a20.7 20.7 0 0 0-2.4-2.3c-.4-.3-1.1 0-1.8.1 1.3-1.8 5.3-3.2 6.9-2.3a1.7 1.7 0 0 1 .6 1.6c-.6 1.3-.2 2 1 2.5a3.2 3.2 0 0 1 .8.8l-1 .6-1.7 1.1.4.9c1.7-.4 3.3-.8 5-1a5.1 5.1 0 0 1 1.9.5c-.5.4-1 1.2-1.5 1.2h-13zm178.6-130.8c1.3 0 2.9-1 3.3 1.2a2.2 2.2 0 0 0 1.3 0c.9-2 2.8-1.5 4.2-1.4s4.5.9 7.2 1.5l-1.2 1.9H353l.8 2.3-1.9 1.7a18.9 18.9 0 0 0-1.2-2.8 3.1 3.1 0 0 0-1.6-1.4c-1.6-.2-2.9-.7-2.8-3zm97.2 8.6l-5.1-1.4 1.4-1.9h-2.6l-2.3-2.1c1.8-1.7-.2-2.1-1.6-2.8l.3-.5a32.4 32.4 0 0 1 6.1.1 4.3 4.3 0 0 1 2.5 2.5 39.1 39.1 0 0 1 1.3 6.1zm-387.1 119A8.4 8.4 0 0 1 47 625a2 2 0 0 1-.8-1.6c.5-.7 1.4-1.6 2.1-1.5 3.4.5 3.5.5 2.7-2.9-.4-1.6.7-2.3 3.1-1.9-.3 2.2-.3 4.3 2.5 4.9h-.2zm152.3 1.4a8.7 8.7 0 0 1-1.8-2c-1.8-4-3.2-4.4-6.9-1.8-.9.6-1.8 1.1-2.8 1.6-1.8-2.6-1.3-4 1.6-4.2a46.8 46.8 0 0 1 8.1 0c.8.1 1.9 1.4 2.2 2.4s.1 2.4.1 3.6zm-50.8-6l-2.5 1.7 1.2 2.1c-.6 1.4-4.9 1.2-1.3 4h-5a10.5 10.5 0 0 0 .4-3.1c-.2-.8-.9-1.6-1.7-2.9l3.8.7.8-.9-2.9-1.1.5-.6h6.8zm28.1 4.8l1.4 2.8h-1.5l-1.8-3.9a2.8 2.8 0 0 1-.5-1.3c.3-2.4-.8-1.8-2.1-.9-.6-1.2-.8-2.1.8-2.2s5.2 0 8 0c-1.2 2.4-.7 5.4-4.3 5.5zm472.5 3h-.5c-1.2-.4-3 1-3.4-1.2s2.2-3.5 3.9-3.6h1.6c1.5-.2 3-.2 3.2 1.6s-1 3.2-3.2 3.2h-1.6zm-524.8-6l5.3-.5c-1.3 1-3.5 1.2-2.8 3.7a1.2 1.2 0 0 1-.3.9c-.6.8-.7 2.1-2.3 2.1s-3.6-.2-5-2.4l2.5-3.1 1.6 1.3 1.7.9-.4-1.8zm237.8-117.8c-4-4.5-4.3-6-1.1-6.9v1.9l1-.5a10 10 0 0 1 1.6-1.4 15.7 15.7 0 0 1 2.7 2.5 1.2 1.2 0 0 1-.3 1.1c-.7.5-1.5.8-2.2 1.3a12.6 12.6 0 0 0-1.7 2zm349.1 116.9l-1.7 2.3 5.3 3.6c-3.9 1.8-4.4-2.7-6.8-2.4l-2.3 3.7c-1.2-4.2 3.2-5.4 3-9zm-15.9 1.7c-1.7.6-3.2 1-1.7 3.2-2.5 3.6-5 2-7.8-.3l3-1.3a21.8 21.8 0 0 1 3.2-1.4 16.4 16.4 0 0 1 3.3-.2zM485.2 499l-6.4-2.4a4.6 4.6 0 0 0-2.6.3c-1.8.6-1.8.7-3.4-1 1.6-.5 3.4-1.8 4.3-1.3s4 .9 5.9 1.5 1.2 1.5 2.2 2.9zM94.1 616.9c2.5-.2 3.2.4 3.1 2.5s.9 2.9 3.1 1.9a11.8 11.8 0 0 1 3.1-.9c-4.5 4-8.1 2.5-9.3-3.5zm17.5 8.2h-5.4a3.6 3.6 0 0 1-1.3-.8 10.1 10.1 0 0 1 1.4-1.1l2-.9a6.4 6.4 0 0 1 1.8-.7 4.2 4.2 0 0 1 .7 1.4zm473-122.7h-4.2l2.4-5.1a2.1 2.1 0 0 1 1.1-.8 1.2 1.2 0 0 1 .6.7c.1 1.7.1 3.4.1 5.2zm14.8.1h-10.3c0-2.7 2.4-2.5 3.7-3.5l.4.4c-.2 2.9.2 3.2 3 2.2 1.1-.4 2.2-1.2 3.2.9zm-433.2 117c-2.7-.2-4.3.8-4 4h-.9c-.3-.9-1.1-1.8-.9-2.5s1.2-2.5 2.1-2.9 2.5.4 3.7.6v.9zm-43.1 3.8l-4 2.1c-.4-1.2-1.2-2.8-.9-3s3.5-1.3 4.9.9zm-45.7-4.1l4 .7-2.7 4.4zm353.4-124.7c-2.9 1.9-5.1 1.8-7.2-.3zm-16.9 7.7l-6.3.3a1.1 1.1 0 0 1-.7-.7.9.9 0 0 1 .4-.7c1.6-1 5.1-.4 6.6 1.1zm-148.7-.3l2.9-1.5c2.1-1 2.5-.7 2.5 2h-5.3v-.5zM92.3 622.2a10.6 10.6 0 0 1-1.2 2.1 2.4 2.4 0 0 1-1.6.7 12.5 12.5 0 0 1-2.6-.6l.9-1.6c1.5 1.5 2.5-.1 3.7-.6h.8zm656.6-1.4l-2.2.2c-.6 0-1.7-.1-1.8-.4a6.1 6.1 0 0 1 .1-2.3 6.9 6.9 0 0 1 1.9.5 15.9 15.9 0 0 1 2.1 1.8v.2zM609.4 494.4h5.6c-1.6 1.9-4.7 1.9-5.6 0zm8.8 0h7.2v.6h-7.2v-.6zM338.8 617.2c-2.1-.2-3.5 2.7-6.1 1.7 1.5-3.2 4-1.9 6.1-1.7zm26.4-114.7h-4.6l.6-2.9h.7l.4 2.5 2.4-1.7zM70.5 620.1c-.4-1.4.4-2 1.6-2.2l3.9-.5c-1.9 1.6-3.5 2.6-5.6 2.6h.1zm53.2-1l-2.9 1.8-.6-.4c.1-.7 0-2 .3-2.1a10.6 10.6 0 0 1 3-.1zm214.5 4.5l-2.3-1.8 3.7-2.2zm328.6-1.1l4.3 2c-2.7 1.4-4.4.7-4.3-2zM345.3 500.3a22.3 22.3 0 0 1 2.9-1.4 1.5 1.5 0 0 1 1 .9 1.4 1.4 0 0 1-.8 1.1 16.6 16.6 0 0 1-2.9.1zm91.6 124.4h-4.3v-.7h4.4v.8zm322.5-6.1c-2 2.6-2.2 2.7-4.1.4zm-22.1 2a2.9 2.9 0 0 1-2.2 4.2 11.2 11.2 0 0 0 1.3-1.7 19.6 19.6 0 0 0 .9-2.5z"/><g clip-path="url(#A)"><g stroke="#fff" fill="none" class="B"><path d="M135 250.4l2.1 6.7m11.7-11.2l2 6.6m-.7-14.6l2.2 7m-8-13.2l2.3 7.1m-4.7 9.1l2.2 6.9m-1.2-14.6l2.2 7m-7.6-13.5l2.3 7.2m24-7.1l2.2 7m-8-13.2l2.2 7.2m-3.2 1.1l2.3 7.3m-8.1-13.6l2.2 7.2m24.3-7.1l2.2 7m-8-13.1l2.2 7.1m-3.2 1l2.1 7m-7.9-13.2l2.2 7.2m23.7-7l2.2 7m-8-13.2l2.3 7.2m-3.2 1.3l2.1 7m-8-13.5l2.3 7.5m22.8.5l2.4 7.6m-1-15.5l2.2 7m-7.9-12.8l2.1 6.7m-2.5 15.7l.3 1m-2.4-7.6l2.1 6.6m-.7-14.6l2.2 7m-7.9-13l2.1 6.9m15.9 3l1.9 6.1m-6.3-20.3l2.2 7.2m-76.5 7.3l2.3 7.3m11.7-11.5l2.2 7.2m-9.1-5.4l2.3 7.4m18.3-12.9l2.1 6.9m-9-4.9l2.2 6.9m-2.5-7.9l.3 1m20.6-6.5l2.4 7.4m-9.1-5.3l2.2 7.2m17.8-13.5l2.4 7.5m-9.2-5.4l2.3 7.4m18.6-12.9l2.1 6.5m-8.9-4.4l2.2 6.9m-70 4.8l2.3 7.3m11.8-10.7l2 6.5m-8.8-4.4l2 6.4m18-14.1l2.5 8m-9.3-5.9l2.4 7.9m18.5-13.4l2.3 7.4m-9.1-5.3l2.2 7.2m17.8-13.5l2.4 7.5m-9.2-5.4l2.4 7.4m18.6-12.9l2.2 7.2m-9-5.1l2.1 6.9m11-12.5l2.6 8.2" class="C"/><path d="M119.1 223.7l89.1-26.5" class="C"/></g><g stroke="#000" fill="#fff"><path d="M123.4 236.9m81.8-24.4 7.2 5.7-86.1 25.7 87.7-18.5-85.6 25.5 87.8-18.4-85.9 25.7M172 215m-50.6 14.7 86.8-33.5-89.1 26.5 21.9 25.7l2.1 6.7m11.7-11.2l2 6.6m-.7-14.6l2.2 7m-8-13.2l2.3 7.1m-4.7 9.1l2.2 6.9m-.8-14.8l2.2 7m-8-13.3l2.3 7.2m24-7.1l2.2 7m-8-13.2l2.2 7.2m-3.2 1.1l2.3 7.3m-8.1-13.6l2.2 7.2m24.3-7.1l2.2 7m-8-13.1l2.2 7.1m-3.2 1l2.1 7m-7.9-13.2l2.2 7.2m23.7-7l2.2 7m-8-13.2l2.3 7.2m-3.2 1.3l2.1 7m-8-13.5l2.3 7.5m22.8.5l2.4 7.6m-1-15.5l2.2 7m-7.9-12.8l2.1 6.7m-2.5 15.7l.3 1m-2.4-7.6l2.1 6.6m-.7-14.6l2.2 7m-7.9-13l2.1 6.9m15.9 3l1.9 6.1m-6.3-20.3l2.2 7.2m-76.5 7.3l2.3 7.3m11.7-11.5l2.2 7.2m-9.1-5.4l2.3 7.4m18.3-12.9l2.1 6.9m-9-4.9l2.2 6.9m-2.5-7.9l.3 1m20.6-4.5l2.4 7.4m-9.1-7.3l2.2 7.2m17.8-13.5l2.4 7.5m-9.2-5.4l2.3 7.4m18.6-12.9l2.1 6.5m-8.9-4.4l2.2 6.9m-70 4.8l2.3 7.3m11.8-10.7l2 6.5m-8.8-4.4l2 6.4m18-14.1l2.5 8m-9.3-5.9l2.4 7.9m18.5-13.4l2.3 7.4m-9.1-5.3l2.2 7.2m17.8-13.5l2.4 7.5m-9.2-5.4l2.4 7.4m18.6-12.9l2.2 7.2m-9-5.1l2.1 6.9m11-12.5l2.6 8.2" class="B C"/><path d="M125.1 221.7l89.1-26.5m-84.8 39.7 81.8-24.4 7.2 5.7-86.1 25.7 87.7-18.5-85.6 25.5 87.8-18.4-85.9 25.7M178 213m-50.6 14.7-2.3-7 16.9 28.7l2.1 6.7m11.7-11.2l2 6.6m-.7-14.6l2.2 7m-8-13.2l2.3 7.1m-4.7 9.1l2.2 6.9m-.8-14.8l2.2 7m-8-13.3l2.3 7.2m24-7.1l2.2 7m-8-13.2l2.2 7.2m-3.2 1.1l2.3 7.3m-8.1-13.6l2.2 7.2m24.3-7.1l2.2 7m-8-12.1l2.2 7.1m-3.2 0l2.1 7m-7.9-13.2l2.2 7.2m23.7-7l2.2 7m-8-13.2l2.3 7.2m-3.2 1.3l2.1 7m-8-13.5l2.3 7.5m22.8.5l2.4 7.6m-1-15.5l2.2 7m-7.9-12.8l2.1 6.7m-2.5 15.7l.3 1m-2.4-7.6l2.1 6.6m-.7-14.6l2.2 7m-7.9-13l2.1 6.9m15.9 3l1.9 6.1m-6.3-20.3l2.2 7.2m-76.5 7.3l2.3 7.3m11.7-11.5l2.2 7.2m-9.1-5.4l2.3 7.4m18.3-12.9l2.1 6.9m-9-4.9l2.2 6.9m-2.5-7.9l.3 1m20.6-6.5l2.4 7.4m-9.1-5.3l2.2 7.2m17.8-13.5l2.4 7.5m-9.2-5.4l2.3 7.4m18.6-12.9l2.1 6.5m-8.9-4.4l2.2 6.9m-70 4.8l2.3 7.3m11.8-10.7l2 6.5m-8.8-4.4l2 6.4m18-14.1l2.5 8m-9.3-5.9l2.4 7.9m18.5-13.4l2.3 7.4m-9.1-5.3l2.2 7.2m17.8-13.5l2.4 7.5m-9.2-5.4l2.4 7.4m18.6-12.9l2.2 7.2m-9-5.1l2.1 6.9m11-12.5l2.6 8.2" class="B C"/><path d="M126.1 222.7l89.1-26.5m-84.8 39.7 81.8-24.4 7.2 5.7-86.1 25.7 87.7-18.5-85.6 25.5 87.8-18.4-85.9 25.7M179 214m-50.6 14.7-2.3-7" class="B C"/></g><path d="M134 251.4l2.1 6.7m5.8-16.9l2.2 7m-7.6-13.5l2.3 7.2m56.9-9.3l2.1 6.6m-67.1-10.4l2.3 7.3m-8.1-13.5l2.3 7.3" fill="none" stroke="#000" stroke-width="3" class="B C"/><path d="M584.9 45.6c-.7 3.4-1.1 7.4-2.5 11.1l-16.2 42.4c-2 5-5.4 9.5-10.4 11.7-3.1 1.4-6.8 1.5-10.2 1.8-6.5.5-12.1-3.1-18-5l-39-13.6c-2.8-1-2.8-1-1.8-3.9q14-40 27.9-79.9c.7-2.1 1.6-2.5 3.7-1.7l54.2 19.9a20.5 20.5 0 0 1 5 3.3 18.9 18.9 0 0 1 5.6 7.3c.8 1.7 1.1 3.9 1.7 6.6zM565 41.1c-.2-1.9-.2-3.6-2.2-4.3L535 26.6c-1.2-.4-2-.2-2.5 1.1l-8.6 23.9a2.1 2.1 0 0 0 1 2.9 31.9 31.9 0 0 1 4.3 3.1c2.1 1.8 2.8 3.9 1.7 6.7-1.9 4.6-3.4 9.3-5.1 13.9-.7 1.8-.2 2.6 1.5 3.2l14.8 5.3c4.8 2 6.2-.2 7.5-3.6l14.7-39.3a21 21 0 0 0 .7-2.7zM149.6 95c4-1.2 7.6 0 10.9 2.1 5 3 9.1 7 11.1 12.7.5 1.6 1.3 3 1.7 4.6s1.1 5.8-.4 8.7a7 7 0 0 0-.6 2.4c-.2 1.7.6 2.2 2.1 1.5 4.3-2 11.3-.2 14.2 3.5l10.6 13.8a5.9 5.9 0 0 1 1.2 2.1c.7 3.1 1.2 6.2 1.7 9.3a4.2 4.2 0 0 1-1.7 4.4c-2.8 2.1-5.4 4.5-8 6.8s-2.4 1.3-3.7-.3L170 142.7c-2.2-2.8-4-2.9-6.7-.6l-12.1 10.4c-1.7 1.4-1.6 2.5-.3 4.1l20 25c1.3 1.6 1.2 2.7-.4 4l-20.2 17.2c-1.5 1.3-2.4 1.2-3.7-.3l-50.4-62c-1.2-1.5-1.2-2.5.3-3.8l43.2-38c2.5-2.2 6.3-2.9 9.6-4.2zm9.7 34.9a17.7 17.7 0 0 0-1.4-2.9q-5.5-7.1-11.1-14.2c-1.9-2.4-3.9-2.6-6.2-.5l-20.9 18.4c-1.7 1.4-1.6 2.6-.3 4.2l12.7 15.8c1.7 2.2 2.7 2.2 4.9.3l19.9-17.4c1.1-1 1.7-2.5 2.5-3.7zm121.2-31.8c-.1 5.4-.5 9.1-2.9 12.6s-6.4 8.6-11.6 10.7a6.5 6.5 0 0 1-4 .5c-5.6-1.7-11.1-.6-16.6.5s-12.6 2.5-18.7 4.4-9 3.8-13.4 6c-1.5.7-2.2.6-3-.9q-15.7-29.4-31.5-58.7c-.9-1.7-.5-2.5 1-3.4l51.2-30c3.6-2 8.1-2.4 12.5-1.7s7.8 3.2 10.8 6.5c5.4 6 7.6 13.6 11.3 20.4s8.2 16 12 24.1c1.7 3.3 2.3 6.9 2.9 9zm-24-.6a20 20 0 0 0-.8-2.3L235.2 55c-1.3-2.4-3.2-2.9-5.5-1.5l-24.6 14.4c-2.5 1.5-2.7 1.9-1.3 4.5l7.9 14.9a43.3 43.3 0 0 0 3.2 5.5 3.4 3.4 0 0 0 2.6 1 58.7 58.7 0 0 0 6.4-1.1c2.4-.5 3.7.7 4.7 2.6l6.8 13.2c.7 1.4 1.5 2 3 1.1l16.1-9.5c.9-.5 1.4-1.7 2-2.5zm463.4 189.2a56.8 56.8 0 0 1-3.7-5.4L694 239.6c-1-1.8-.7-2.7 1-3.9l64.2-42.3c2.4-1.6 2.7-1.5 3.9 1q11.1 22.6 22.2 45.3c3.3 6.8.8 17.1-4.8 22.1-8 7.1-17.5 11.7-26.2 17.6l-11.3 7.3c-1.2.8-2 .9-3.1-.2a28.5 28.5 0 0 0-3.8-3.3c-3.1-2.3-6.3-1.1-9.4-.1s-4 2.2-6.8 3.6zm16.2-18.2a25.4 25.4 0 0 0 3-1.3l8.5-5.4L772 246c2.8-1.8 3.5-3.9 2.3-6.3l-10.9-22.1c-.9-2-2-2.1-3.7-1L742.2 228c-1.6 1-2.2 2.1-1.5 4a19.2 19.2 0 0 1 .7 4.2 5.1 5.1 0 0 1-2.7 5.7c-3.8 2.2-7.4 4.8-11.1 7.1-1.5.9-2 2-1.1 3.6l7.2 13.7c.5 1 1.6 1.5 2.4 2.2zm-89.7-97.2a18.5 18.5 0 0 1 3.2-10c5.3-8.5 13.6-14.1 20.4-21 4.8-4.9 9.9-9.5 14.9-14.1s8.8-6.2 14-6.3c3.2-.1 6.7 1.6 9.8 3.2 5.6 2.9 8.2 8.7 12 13.4l24.1 31c1.4 1.8 1.5 2.9-.3 4.3a36.9 36.9 0 0 0-3.9 3.5c-1.3 1.4-2.3 1.2-3.4-.3l-18.1-23.2-10.3-13.1c-1.8-2.2-4-2.4-6.1-.5l-14 13.1c-1.8 1.6-1.7 2.9-.3 4.7l16.1 20.2c1.3 1.6 1.3 2.7-.3 4s-2.7 2.4-4.1 3.7-2.2 1-3.2-.3l-10.1-12.7c-1.3-1.7-2.3-1.8-3.8-.3s-4 3.9-6.2 5.7-1.7 2.5-.3 4.2l23 28.4c1.5 1.8 1.4 2.8-.3 4.3l-13.4 12.1c-1.2 1.1-2 1.3-3.2-.1l-33.2-40.7c-2.6-3.9-2.9-8.7-3-13.2zm-609 78.6a34.3 34.3 0 0 1 11.7 3.8L96.4 280c2.6 1.4 2.7 1.8 1.5 4.5l-6.1 12.8c-.9 2-1.9 2.2-3.7 1.2l-49-26.9-6-3.3c-2.5-1.3-4.5-.7-5.6 1.8l-10.5 23c-.8 1.7-.5 2.8 1.2 3.7l17.8 9.5c1.5.8 2.7.8 3.7-.7a25.5 25.5 0 0 1 2.7-3c2-2 3.1-2.2 5.6-.8l20.5 11.1 10.5 5.6c1.6.8 1.8 1.7 1 3.3q-5.2 10.8-10.4 21.6c-.8 1.6-1.6 1.9-3.2 1.1l-52.6-28-12-6.5c-1.8-.9-2.2-2-1.3-3.8l20.9-46.9c2.1-4.8 10.1-9.8 16-9.4zM325.8 42l-1.6-6.2L317 9.6c-.6-2.1-.2-3 1.9-3.7L335.8.3c1.8-.6 2.6-.3 3.1 1.6l8.6 33.6c1.6 7.7 0 15-6.1 21-2.5 2.4-5.1 4.4-8.6 5.1s-2.6 1.6-2 3.7l7.2 26c.6 2 .1 2.9-1.9 3.5q-7.9 2.4-15.6 5.1c-2 .7-2.8.2-3.4-1.8L310 72.6c-.8-2.9-1.2-3-4-2.2-7.1 2-13.5.9-19.1-4.3a23.3 23.3 0 0 1-6.5-10.9l-8.9-30.5c-.8-2.9-.7-3 2-3.9l16-5.3c2-.7 2.8-.3 3.4 1.8l7.5 26.8a38.6 38.6 0 0 0 1.5 4.3c1 2.4 2.9 3.5 5.5 2.7l15-4.8c2.2-.7 3.1-2.3 3.4-4.3zm307.1 124.2l-.9-4.1a39.8 39.8 0 0 0-5.6-16.5c-3.2-5-5.6-10.7-10.6-14.2s-7.8-5-11.8-7.4c-6-3.7-12.4-2.8-18.9-1.8a37.1 37.1 0 0 0-5.5 1.5c-2 .6-3.2 0-3.3-2a12 12 0 0 1 .4-4.3 47.1 47.1 0 0 1 3.5-9.1q10.9-18.9 22.3-37.5c2.9-4.7 7-8.6 12.1-10.3 3.3-1.1 7.4-.7 11-.1 7.9 1.5 13.6 7.4 20.2 11.4l30.8 19.7c1.9 1.2 2.2 2.2.8 4a42.2 42.2 0 0 0-3.2 5c-.9 1.6-1.8 1.7-3.3.7L645.6 85l-15.2-9.7c-2.4-1.5-4.8-1-6.2 1.4l-10.7 17.5c-1.3 2.2-.1 3.2 1.5 4.2l22.4 14.1c1.9 1.2 2.2 2.1.9 3.9a35.4 35.4 0 0 0-2.8 4.5c-1 1.8-2 2.1-3.8.9l-14.1-8.9c-1.8-1.2-2.8-.9-3.8.9s-3 5.1-4.6 7.6-.8 2.9 1 4l30.8 19.2c4.7 3 4 2 1.5 6.1zm103.6 148.2c4.4-.6 6.8-3.3 7.6-7.5s1.3-5.9 1.6-8.9 1-2.3 2.2-2.3 1.5 1.1 1.8 1.8l11.7 36.5c1.1 3.4 1.1 3.4 4.4 1.9l5.6-2.5c1.9-.7 2.5-1.9 1.8-4l-7-22.7c-1.9-7.7-1.1-14.8 4.7-20.3a31.6 31.6 0 0 1 16.5-8.5c2.8-.5 6-.8 8.7 0 4.8 1.4 7.9 5.4 9.3 10.1l13.3 45.1c.6 2.1.4 3.3-1.8 4a28.8 28.8 0 0 0-3.1 1.4c-2.8 1.3-2.9 1.2-3.8-1.6l-8-26.9-3.7-12.5c-.8-2.7-2.5-3.6-5-2.5l-14.3 6.6c-2.4 1.2-3.3 3.9-2.4 6.9l7.6 24.9c2.4 8.3.1 15.7-6.2 20.3s-11.6 7-18.4 7.9c-5.3.7-9.5-1.9-12.5-6a31.8 31.8 0 0 1-3.6-7.5c-1.7-4.6-3-9.3-4.6-13.9a42.3 42.3 0 0 1-2.4-15.5v-4.3zm-624.4-94.9l-2.3 12.9c-.9 4-2 6.2-2.8 9.3s-1.3 7.9.3 11.8l3.2 6.7c-5.4 4-11 6.9-17.9 4.8a22.4 22.4 0 0 1-6.9-3.4l-33.2-25.8c-4-3.2-7.3-7.5-8.1-12.7-.5-3.3.1-6.8.8-10.1 1.4-6.5 6.2-11 9.8-16.3l22.7-33.1c2-2.8 2.2-2.9 4.9-.6l.9.7c5.1 4.1 4.7 3.1 1.2 8.3l-25.6 37c-1.7 2.5-1.6 4.8.7 6.7l14.9 11.8c1.6 1.3 2.6.4 3.6-1l13.5-19.2c3.4-4.9 3.4-4.9 8.2-1.2l1.1.8c1.9 1.3 1.8 2.6.5 4.3L92.5 224c-1.6 2.3-1.5 2.7.7 4.5l5.9 4.7c1.6 1.3 2.7 1.2 3.9-.6 2.7-4.3 5.8-8.4 9.1-13.1z"/><g class="B"><path d="M75.2,516.8A394.8,394.8,0,0,1,72,466.2C72,262.7,222.2,97.8,407.5,97.8S743.1,262.7,743.1,466.2a394.8,394.8,0,0,1-3.2,50.7H75.2Z" stroke="#231f20"/><g stroke="#000" fill="#fff"><path d="M202.1 285.3l-4.9 14.8-9.5 29.8a154.9 154.9 0 0 1-8.2 18.9c-.9 1.8-3.6 2.6-5.8 4.2a14.2 14.2 0 0 1-.3-2.4c.5-6.6-1.5-12.7-4.3-18.5-1.6-3.5-3.7-6.8-5.2-10.3-.7-1.6-.5-3.6-.9-5.4a20 20 0 0 0-1.6-4.4c-.9-1.7-1.9-3.3-3-4.9l-2.2-3.1a6 6 0 0 1 .5-7c4-5.3 8.3-10.5 15.3-13l5.2 10.2c.7-2.3-.4-4.6-1.4-6.9s-.7-2.2.3-3.9 5-5.1 5.9-8.9c.4-2 2.7-3.6 4.3-5.4 4-4.5 7.8-9.3 12.3-13.2s7.3-3.8 11.1-5.6a10.3 10.3 0 0 1 2.5-1.1c4.5-.8 7.5-3.5 9.3-8l7.3 7.6a3.5 3.5 0 0 1 .4 2.8l-3.6 12.5-2.1-5.5a2.2 2.2 0 0 0-.2.8c2.7 4.8.1 8.9-1.7 13.2s-2.9 9.5-4.6 14.2l-7.3 19.1-10.8 36.8c-.5 1.6-1.7 3-2.3 4.6s-.7 3.8-1.2 5.6l-6.8 23.8c-1.3 5-1.8 10.3-2.6 15.4a49 49 0 0 1-.9 5.5c-2.6 9.2-3.3 18.6-4.6 28-.7 5.1-2.3 10.1-3.4 15.2a15 15 0 0 0-.3 5.2l2.7 14.6c.2 1.5-.1 3-.3 5 2.1.7 4.7 1.3 7 2.3a19.3 19.3 0 0 0 7.3 1.1c8.3.2 16.7 1.5 25 1.7s17.2-.1 25.7-.7c5.5-.4 10.9-1.8 16-2.7-3-2.5-6.4-4.9-9.3-7.8a39.1 39.1 0 0 1-6.3-7.7l-13.9-24.4c-3.3-6.7-6.3-13.6-7.2-21.2a94.9 94.9 0 0 1-.4-19.8l3.5-40.6c.6-8.5 2.7-16.7 4.5-24.9 2.8-12.4 6.2-24.5 12.1-35.9 2.1-4.1 3.3-8.8 5.2-13.1a41.7 41.7 0 0 1 3.5-6.2c2.9-4.5 6.6-8.6 8.7-13.4 3.7-8.2 11.8-11.6 17.4-17.6 2.1-2.3 4.6-4.2 6.9-6.3l1.9-1.5 3.2 5 .5-.3-1.3-2.6 23.8 14-9.9 11.1c-5.3 5.7-10.8 11.4-12.2 19.4-.9 4.9-1.4 9.9-2.1 14.8l-.5 3.7c-.4 5.1.7 9.9 1.9 14.9a163.4 163.4 0 0 1 3.6 21c1.1 8.8 1.4 17.6 5.5 25.8.7 1.4.4 3.4.6 5.2a1.4 1.4 0 0 1 0 .2l-.9 13-12.6 2c-.4-1.7-1.4-3.9-1.4-6.1s1.3-3.1 2.6-4l8.1-5.4c-3.4-.4-5.8 2-8.6 3.3a1.9 1.9 0 0 1-.3-.6l-1-28.4c-.6-7.6-2-15.2-3-22.8-.1-.7-.3-1.4-.4-2.1-.6-4.3-1.4-8.3-4.3-12s-4.6-11.5-3.6-18a15.4 15.4 0 0 0-.1-5.3 23.5 23.5 0 0 0-1.8 12.4c.6 4.2 2.3 8.2 3.7 12.6l-9.3-7.8-.4.3c1 1.4 1.8 3.1 3.1 4.2a82.9 82.9 0 0 0 7.3 5.3 6.8 6.8 0 0 1 3.4 4.6 123.3 123.3 0 0 1 3.1 23.5l.9 20.2.8 9.7a10.9 10.9 0 0 1-.9 5.4c-2 3.4-1.3 6.7 0 10 .6 1.5.9 2.8-.9 3.9a4.5 4.5 0 0 0-1.6 3.2 43.3 43.3 0 0 0 3 19.5 5.4 5.4 0 0 0 .6-1.7l-1.9-12.3c-.2-2-.4-4.4.4-6.2s2.6-2.8 4.2-3.7a15.9 15.9 0 0 1 10.4-1.8c-2.9 4.7-.3 8.4 1.6 12.5a102.6 102.6 0 0 1 3.6 10.7l-18.9 3.1 1.3 11a45.9 45.9 0 0 1-.4 17.8c-.6 2.7-.2 5.7.3 8.5l5.1 26a90.6 90.6 0 0 0 5.6 15.3l-7.7-26.3h.5l7 5.5.3-.4a49.3 49.3 0 0 0-4.6-4.6c-2.7-2.1-3.3-5.2-4.1-8.1-1.6-6.2-1.1-12.5-.4-18.7s-.1-14.3-.9-21.5l-.6-4a24.7 24.7 0 0 0 4 .1c3.2-.4 6.4-1 9.6-1.6s4.7.1 6.4 3.1c2.8 5.1 7.2 8.6 12.1 11.4a2.2 2.2 0 0 1 1.4 2.5l-1.5 19.9c-.3 3-1.5 6-2.3 9l-5 19.5c-.5 1.9-1.5 1.4-2.5.7a34.7 34.7 0 0 0-4.4-2.7c1.6 1.8 3.4 3.5 4.8 5.5a11.9 11.9 0 0 1 2.7 8.4c-.2 2.3.8 4.8.7 7.1-.5 8.7-1.6 17.4-5.7 25.3-.9 1.8-1.3 4-2.3 5.8a32.2 32.2 0 0 1-3 4.2 3.5 3.5 0 0 0-.5.5c-2.1 5.3-7.2 4.7-11.2 4.7l-67.6.2c-12.7 0-25.5.1-38.2-.1a75.2 75.2 0 0 1-12.4-1.7c-2.9-.5-3.6-2-3.7-4.9-.4-10.6 1.3-21 3-31.4a43 43 0 0 0 .4-9.1c-3.2 4.6-3.8 9.9-4.7 15.7l-1.9-6.2-1.5-5.3a39.6 39.6 0 0 1-1.9-13.7c.2-6.6-.7-13.3.3-19.8 1.6-10.6 1.2-21.1 1.1-31.6a72.6 72.6 0 0 1 3.3-23.2c1.6-4.8 3.8-9.4 5.5-14.2l9.1-25.7c3.3-8.5 7.2-16.7 9.7-25.5l11.8-40.6a11.9 11.9 0 0 0 .2-1.8h-.1zm-1.5 199.2c11.3 1.8 22.4 2.3 33.7.5l-.5-7.4h-32.6zm64.2-11.1l-27.8 4.2.5 7.2 28-2.8zm33.3 15.8a36.1 36.1 0 0 0-19.6-13.2 29.5 29.5 0 0 1-5.3-2.3l-5.6-3 1.6 10.2 4.9-1.5 4.6-1.4 1.2 9.3c.6 3 1.8 5.9 2.7 8.8-.4-3.1-1.6-5.9-2-8.9s-.1-6.3-.1-9.6c7.4 2.3 12.6 6.8 17.7 11.7zm-116.5-6.7V474l-6.7-2c-.3 2.4-.6 4.2-.6 6a2.6 2.6 0 0 0 1 2c1.9 1 4 1.7 6.3 2.6zm114.9 16.9l-.4.4-8.6-6.6-.4.5c3.9 2.6 6.7 6.7 11.8 8.1-2.9-5.7-9.5-14-12.1-15zm-132.1-26h.6l-1.4-26.1h-1zm103-53.6c-7.1 5.1-14.1 10.3-22.3 13.4 8.7-2.2 15.8-7.3 22.3-13.3zM182.8 472l-.2 1.1 17.7 1.8v-.9zm79.2-39c5.1-2.7 7-8.1 10.9-11.9l-.6-.5zm-51-253.4l3.2 10.4a3.2 3.2 0 0 0 1.6 1.8c4.3 1.5 8.7 3.4 13.1 3.9s9.4-5.3 8-10.6a27.9 27.9 0 0 1-.4-3.1l18.9-8-.4-1-18.5 7.5c-2.5-3.2-6-4.6-10.5-4.4s-7.4-.4-11.2-.3c-1 0-2 1-3 1.5a2.8 2.8 0 0 1-1 .7 36.9 36.9 0 0 1-5.2-1c-1.9-.6-3.7-1.4-5.6-2.1v-7.8a1.9 1.9 0 0 0-.5-1.2c-3.7-3.3-3.3-7.7-3.7-12a11.8 11.8 0 0 0-.7-3.3 6 6 0 0 1 .9-6.7 42.4 42.4 0 0 1 11.4-9.3c9.1-5.2 19.3-6.7 29.2-9.1l9.1-1.8a17.6 17.6 0 0 1 12.6 2.9 133.9 133.9 0 0 1 14.6 10.9 28.7 28.7 0 0 1 9.1 15c1.2 4.9.2 9.6-.7 14.4l-4.7 24.5-2.4 11.5a60.1 60.1 0 0 1-3.5 10.9c-1.2 2.5-3.4 4.6-5.4 6.7s-4.1 3.8-6 5.8-6.7 4.4-10.5 6-7.8 3.9-11.8 5.3a20.9 20.9 0 0 1-8.6.9c-1.8-.2-3.5-1.9-5.7-3.2l-12.2 4.2-14.2 4.3-13.8 4.3-13.8 4.8c-4.5 1.9-9.3 3.1-14 4.5l-14.3 4.8-13.5 5 2.1.5c-1.9 1.5-.4 2.8.2 4.1a74.4 74.4 0 0 0 14.6 21.2 83.3 83.3 0 0 1 5.3 6.5l8.5 10.4c2.9 3.4 2.4 5.7 2.8 8.8.7 5.8 3.4 10.9 6.1 16 1.8 3.5 2.6 7.4 4.1 11 .7 1.9-.4 2.7-1.6 3.2a132.7 132.7 0 0 1-12.6 4.9 16.4 16.4 0 0 1-6.7.2c-2.1-.3-4.1-1.2-6.2-1.8a9.8 9.8 0 0 1-6.5-5.8l-11.7-29.1c-2.2-5.9-3.6-12.1-5.9-17.9l-8.7-20.8a6.7 6.7 0 0 1-.7-2.4c0-3.2-2.1-5.3-3.6-7.8a156.1 156.1 0 0 1-8.1-14.3 11 11 0 0 1 .3-9.7c2.6-5.1 3-10.7 3.8-16.2a31.8 31.8 0 0 1 1.6-5.6 2.4 2.4 0 0 1 1.5-.9l65.1-18.3 33.3-9.7a2.8 2.8 0 0 0 1.7-1.7 80.5 80.5 0 0 0 1.7-9.7c.8-3 .6-3 3.7-2.7zm-42.5 71.2a5.5 5.5 0 0 0 1.7 0l6.8-2.6 17.3-5.7 15.6-4.8c.3-.1.4-.9.5-1.4s-1.7-.6-2.4-.4l-33 10.4c-2.6.8-5.2 1.4-6.5 4.5zm-10.4 2.2c4.6.3 7.2-.9 9.1-3.9-3.7.3-8.4 2.3-9.1 3.9zm-1.9.4l-.4-.6c-3.8.5-4.2.7-3.8 2.4zm-32 6.6c1-1.8 1.7-3.5-1-4.5zm65.2 202.5l-8-13.7c-1.5-3-.9-6.3-.2-9.5l6.2-31 7-26.3 8.7-36.4 5.4-18.4c1.8-7.9 5.2-15.2 7.7-22.9 1.5-4.7 2.4-9.6 3.8-14.4.8-2.9 2.4-5.6 1.8-8.7-1.1-5.3.8-9.4 4.7-12.8a2.5 2.5 0 0 0 .9-2c-.8-3.6 1.1-6.7 1.7-10a21.5 21.5 0 0 1 .7-2.3h1v8.9a8.6 8.6 0 0 0 .9 2.4 8.1 8.1 0 0 0 1.8-1.7 63.5 63.5 0 0 1 3.6-6.3c.5 3.2 2.5 6.4 0 9.4s-1.7 3.5 0 5.5a3.1 3.1 0 0 1-.3 4.6c-5.6 5.2-8.4 11.9-10.3 19.1-.8 3.2-2.4 6.1-3.4 9.3a63.7 63.7 0 0 0-2.1 9.7l-2.3 21.4c-.5 7.2-.8 16.9-.8 25.3 0 5.6 1 11.1 1.4 16.7.3 4 .2 8 .3 12a5.8 5.8 0 0 1-.6 1.7l-7.2-4.8-1 13.5-.9 22.7a69.3 69.3 0 0 0 .4 10.7c.5 3.8-1.4 6.4-3.6 9l-14.1 16.7a15.7 15.7 0 0 1-3.2 2.6zm50.1-197.1c-.6-3.6-1.6-6.7-1.7-9.9a8.4 8.4 0 0 1 1.9-5.7c5.6-5.6 11.4-10.9 17.4-16.1s12.4-11 17.6-17.6l1.2-1.4 8.4 11.8-3.5 3.1c-6 5.3-11.4 11.4-18 15.8s-10.5 10.1-16.2 14.6c-1.6 1.2-3 2.6-4.6 3.9a18 18 0 0 1-2.5 1.5zm-16.8-87.8h5.6c1.9.1 5.4 1.4 6.7 4.5s1.2 8.4-2 11.2a5 5 0 0 1-2.6 1.1c-4.3.4-8.3-1.2-12.2-2.7s-3.4-4.6-4.1-7.4c-.2-.7-.2-1.5-.4-2.3-.5-2.6.8-4.3 3.5-4.4h5.6zm-17.2 13.1c-1.9-.1-3.9.3-5.1-.5a8.6 8.6 0 0 1-3.2-4.7c-.5-2.3-.1-4.8 0-7.2s.4-2.1 1.9-1.3h.5c7.5 1 6.5 1.5 6.6 9a31.4 31.4 0 0 1-.7 4.7z" stroke-width=".5"/><path d="M569.9 355.8c-1.2.6-2.4 1.6-3.6 1.7s-2.8-2.3-2.8-4a98.7 98.7 0 0 1 1-12.2 4 4 0 0 1 2.5-2.6c7.1-1.9 12.9-6 18.3-10.7 2.9-2.5 6-4.6 9-6.9l.8-.5c3.4-1.5 11.4 0 13.9 2.8s2.8 3.5 4.5 5l-3.5-5.2 12.6-4.1 18.5-5.8.4-.2c4.2-1.3 4.2-1.3 6 2.6l-.8-4.2 11.6-3.8c.8-.2 1.9.9 2.9 1.5a8.8 8.8 0 0 1-1.3 2 20.1 20.1 0 0 0-6.1 11.2 1.4 1.4 0 0 0 .4.9c1.5-5.7 3.4-11 10.5-12.8l-3.5 6.4.4.3a2.2 2.2 0 0 0 .6-.6c1.9-4.8 5.9-6.7 10.5-8l18.4-5.4 18-5.9c2.9-1 3.5-2.2 2.9-5.7l-51.3 15.8-2.4-2.8 2.5-1 51.2-15.5 8.1-2.7a6.2 6.2 0 0 0 1.9-1.3 33.8 33.8 0 0 1 2.5-2.4c6.4-4.5 13.2-3.1 17.1 3.7a8.6 8.6 0 0 1 .7 3.1c.6 4.9-.6 9.6-2.2 14.1a5.9 5.9 0 0 1-5.1 4.2 13.7 13.7 0 0 0-2.1.5v9.6q.5 12.8 1.3 25.6a3 3 0 0 0 1.2 2.2c4.7 2.1 5.8 6.1 5.3 10.6l-4 28.4a31.4 31.4 0 0 1-2.9 8.3c-2 4.3-5.7 6.1-10.4 7.2s-11.8-2-14.6-6.8c-3.8-6.4-3.8-13.2-3.2-20.1.8-9.2 5.4-16.8 11.3-23.6 3.2-3.7 7.2-7.3 13.2-5.8v-35.2l-8.5 2.5a2.3 2.3 0 0 0-.6 1.6c-.2 1.8 0 3.7-.6 5.3a9.3 9.3 0 0 1-3.3 4.4 73.3 73.3 0 0 1-9 4.2l-22.6 10-16.4 7.7a40.5 40.5 0 0 1-10.5 2.4l1.4-.5-.4-.4a2.2 2.2 0 0 0-.9.1c-3.2 1.8-6.6 1.3-10 1.2s-5.2-2.9-4.4-6.1a2 2 0 0 0-.3-1.4l-1 2.3c-.4-3.7 1.6-6.5 2.8-9.6s2-8.6 1.7-13l-1.8 12.8v.2c-1.2 2.2-2.8 4.2-3.5 6.5a125.2 125.2 0 0 0-3.2 14.8c-2.6 17.2-1.1 33.8 6.6 49.6a93.3 93.3 0 0 1 4.3 10.8 13.9 13.9 0 0 1 .4 5.2c-5-5.4-9.6-11-11.8-18.1-1.3 1.6-1.6 2.2-.4 4.1 2.4 3.9 4.7 7.9 7.7 11.3a31.4 31.4 0 0 1 7.5 14.5l9.4 36.2a23 23 0 0 1-4.9 20.7l-4.9-14.7-6.4-18.5-9.2-25.2c-2.3-6.2-4.5-12.5-5.1-19.2l-2.6-24.2c-.4-6.2-2.4-11.8-4.2-17.6s-2.5-13.4 0-20.1a39.2 39.2 0 0 0 1.9-10.1l-5 15.1a14.5 14.5 0 0 0 .3 6.4l3.9 17.3c.7 3.5 1 7.2 1.4 10.8l3.5 31.6a26.7 26.7 0 0 1-1.1 10.5l-13.1 36.4a38.4 38.4 0 0 1-2.9 6.8 5.8 5.8 0 0 1-3.5 2.5c-10.5 1.9-21.1 3-31.2 6.7-4.1 1.5-8.1 3.5-12.3 5.1l-22.8 8.9c-4.5 1.9-8.5 1.1-12.7-.7-2.3-1-4.9-1-7.4-1.5s-4.7-1.7-4.7-5.7c0-8-.4-16.1.6-24s1.2-16.4 1.5-24.6 1.7-16.4 2.9-24.5 1.9-13.4 3.8-19.9 1.4-10.3 1.4-15.5l-.7-.3c-5.5-.2-6.4-1-6.3-6.6.1-8.4-3.5-15.2-8.8-21.3a8.4 8.4 0 0 1-2.1-4.9l.7-20.9a120.1 120.1 0 0 0-.3-20.6c-1.2-10.5-4.8-20-9.9-29a37.2 37.2 0 0 1-2.7-4.6c-1.5-3.8-.3-7.5 1.5-10.9 4.5-8.5 11.8-14.3 19.9-18.7a63.1 63.1 0 0 0 14.6-11.6l1.8-1.8 1.3-.2-4.3 9.1 7.9 7.2a93.8 93.8 0 0 1 6.9 7.3c2.5 3 2.2 7.8-.3 10.1 3.2 4.7 7.2 5.1 13 2.4a42.5 42.5 0 0 0 14.4-11.1l11.6 10.9 11.1 9.9a32.4 32.4 0 0 1 8.6 9.8c3.7 6.6 8.2 12.8 12.1 19.3a48.2 48.2 0 0 1 3.9 10c.2.7-.9 2.4-1.7 2.7l-15.4 5.2a1.3 1.3 0 0 1-.8-.1c-7-3.2-12.8-.6-18 4s-8.9 8.2-14.5 10.7c-2.1 1-4.4 1.7-6.8 2.6-.3-3-2.2-3.9-4.5-4a94.6 94.6 0 0 0-24.1 2.2 4.5 4.5 0 0 0-1.6.7c9.4-.9 18.8-4 28.6-1a45 45 0 0 0-4 17.2c-.1 5.9.8 11.5 4.4 16.8l-24.5 7.4.2.5 16.4-4.6 7.1-2.1a3.3 3.3 0 0 0 2.7-3c.4-3.2 1-6.4 1.7-9.6a13.4 13.4 0 0 1 .9-2.4 17.1 17.1 0 0 1 1.9-1.3c2.2-1.2 4.4-2.7 6.7-3.3s4.4-.1 6.7-.1l-.5 1.3c-1.9 4.3-3.7 8.6-3.2 13.4a71 71 0 0 0 2 10.4 68.4 68.4 0 0 1 1.8 26.9l-2 17a4.6 4.6 0 0 1-.9 2.5L565 439.8a71.4 71.4 0 0 1-6.1 4.8c9.3-4.9 16.6-12.3 24.1-19.6a15.1 15.1 0 0 1-1.3 3.8 7.3 7.3 0 0 0-1 2.3v8.6c.2 2.8 1.7 2.9 4.3 2.8s3.5-.9 3.6-3.2.3-3.1.2-4.6a53.7 53.7 0 0 0-.7-5.9 26.8 26.8 0 0 1-.8-2.8 15.4 15.4 0 0 1 .4-4.1 7.5 7.5 0 0 1 1.5-3.4l14.7-15.3a46.1 46.1 0 0 0 4.7-6.3 5.3 5.3 0 0 0 .4-2.3l-16.2 8.6v.2l11.9-4 .3.3-16.5 17.1a4.2 4.2 0 0 1-.2-2.4c.7-5.1 1.7-10.2 2-15.4a71.1 71.1 0 0 0-2.6-24.6c-1.9-6.6-2.6-13.2.9-19.6a10.4 10.4 0 0 1 2.3-2.3 5.8 5.8 0 0 1-.1-1.9c.2-.7.9-1.3 1-2s.2-2.3-.4-2.8-2.5-.7-3.4.6l-.8 1.2a6.7 6.7 0 0 1-8.2 2.8 2.2 2.2 0 0 0-1.2-.4c-2.8 1.5-6 2.8-7.9 5.8zm13.2 48.4l-21.6 19.9a8.3 8.3 0 0 0-1.2 1.9c9.1-6.2 17.1-13.1 22.8-21.8zm131-93.1a14.4 14.4 0 0 0 3.7 8h.8l.8-8.6zm17.1 54.8c-2 2.4-1.7 4.7-.8 7.3 3-1.6 3.3-4.9.8-7.3zm-173.4-70.8l-.2-.3-2.1 1.3-.7-7.7v10.1zm-5.7 9.8h-.5l-1.9 12h.4zm-3.5-93.4c-4.1 1.3-7 4.6-11 5.1l-.4-.8 2.4-1.7h-1.8l2.7-8.2c-3.8 2-6.7 4.6-10.9 5.5 3.1-4.3 3.2-8.7 3.6-13.1a33.9 33.9 0 0 1 1.5-8.2c2.4-6.8 2.5-13.7 1.6-20.7a61.8 61.8 0 0 1 2.4-24.8c3.9-13.7 13.6-22.4 25.8-28.4 4.4-2.1 9.5-1.3 14.1.4a6.1 6.1 0 0 0 4.7.1 32.9 32.9 0 0 1 15.3-2.2 20 20 0 0 1 7.2 2.3 90 90 0 0 1 11.2 7 26.6 26.6 0 0 1 5.4 6c3.3 4.6 6.9 9 8.5 14.6a99.8 99.8 0 0 1 3.2 13.8c.3 2.7-.7 5.6-1.5 8.4l-.6-4.7-2.6 8.1c-.7 2.6-1.2 5.4-2.1 8a2.8 2.8 0 0 1-2.3 1.5c-3.5-.9-6.5.3-9.7 1.3a7.4 7.4 0 0 1-4.6.3c-9.8-4-19.9-3.1-30.1-1.8l-1 .5h5.4l-1.2 4.8-1.4 4.7c-.9 4.1 2 8.3 6.2 8.3 6 0 11.9-.7 17-4.4 1.4-1 2.2-2.7 3.2-4.2l3.4-5.1.7.2a50.3 50.3 0 0 1 .4 5.4c-.1 3.8 1.4 6.2 5.2 7.1l1 .5a48.2 48.2 0 0 0-3.5 6.2c-2 5-3.6 10.2-5.5 15.3s-3 8.3-6.6 11a15.1 15.1 0 0 1-5.2 2.1 18.7 18.7 0 0 1-5 .6c-3.1 0-4.2 2-5 4.4s-1.3 5 .8 7.6a80.4 80.4 0 0 1 7.2 11.1c2.8 4.9 5.3 10 7.8 15a4.4 4.4 0 0 1-.1 1.9 4.7 4.7 0 0 1-1.9-.7q-5.8-6.2-11.5-12.6c-4.3-4.9-8.3-10-13.5-14s-9-8.3-13.8-12.1-8.6-6.1-13-9a12 12 0 0 0-3.6-1.3c-1.8-.4-2-1.5-1.4-3s1.8-5.1 2.9-8.1zm-17.3 283.8a3.6 3.6 0 0 1 1.3.3c5.4 3.8 10.9 2 16.2-.1l23.5-10.1a111.8 111.8 0 0 1 40.7-8.8 2.6 2.6 0 0 0 1.9-1.1l5-11.2 6-14.8 6.3-20.1a39.6 39.6 0 0 0 .8-4.5l.8-.2 9.2 24c2.1 6 3.4 12.2 5.2 18.2l4 11.8 5.3 17.2a54.3 54.3 0 0 1 1.3 9.6l1.4 21.8a70.4 70.4 0 0 1-.5 7.4c-.1 1.5-.7 2.1-2.2 1.9l-11.4-2-20-2.6-30.9-1.5-34.2-.8c-8.9.2-17.7 1.3-26.6 2.1l-5.3.6c-1.4.2-1.7-.7-1.8-1.8a71.4 71.4 0 0 1 1.1-24.5zm110.4-192.6l2.1 5.5-18.4 5.8c-.7-2.8-1-5.5-2-7.8a75.4 75.4 0 0 0-5.7-10.9c-3.9-6-6.3-12.5-9.1-19a5.9 5.9 0 0 1 .8-6.8 83.4 83.4 0 0 0 4.9-8.2c2.3-4 4.6-5 9-3.7l2 .4c.7-3.6-2.7-4.8-3.6-7.7 4.8 2.8 10 5.2 14.3 8.7s7.8 7 10 11.4c4 7.8 6.9 16.3 10.1 24.5.9 2.1 1.3 4.4 2.2 6.6s.3 2-1.1 2.4l-11.1 3.5a2.3 2.3 0 0 1-2-.8 35.7 35.7 0 0 1-2.1-4.1zm-50.6-107c-5.3 0-8.3-3.7-7-7.9a16.3 16.3 0 0 1 2.5-5.7 6.8 6.8 0 0 1 4.5-2.2c5.2-.1 10.4-.4 15.4 1.4 2.7 1 3 1.5 2 4.2-1.8 4.9-5 8.3-10.5 8.9l-6.9 1.3zm31.2-14.4c3.2 0 3.7.4 2.9 3.4s-1.8 5.7-2.7 8.6-1.4 1.9-3.1 1.5c-4-1-4.7-1.7-4.7-5.8 0-6.6-.1-6.7 7.6-7.7zm-9.1 64.6l-10.5-5.8.3-.5 10.7 5.5z" stroke-width=".75"/><g stroke-width=".5"><path d="M508.8 352.5a8.1 8.1 0 0 0 1.5 1.3 18 18 0 0 1 9.8 11.3 33.3 33.3 0 0 1-.4 19c-.4 1.3-1.8 2.2-2.7 3.3a3.5 3.5 0 0 0-.7.9c-2 5.2-6.1 8.3-10.3 11.6s-10.5 5.1-16.1 6.1c-4.5 10.1-5.6 20.8-5.4 31.8l.3 26.6-.3 35 .1 20c.1 6.7-1.1 7.6-5.2 9a34.7 34.7 0 0 1-5.1 1.1l-12.4 2.3c-4.1.5-7.7.4-11.6.5a59.3 59.3 0 0 0-6.3 0c-4.1.6-6.4-1.9-8.7-4.6-4.3-4.9-5.2-10.9-5.8-17.2l-3.9-30c-1.2-7.2-2.9-14.4-4.4-21.6a1.3 1.3 0 0 0-.9-.9l2.5 16.4 4 25.6c.8 5.4 1.2 10.8 1.6 16.1a4.5 4.5 0 0 1-.7 2.4c-2.9 5.2-7.6 8.9-11.6 13.2-2.2 2.4-4.4 2.5-7.3 2.4-4.6-.2-9.2.2-13.8.4-7 .3-14 1.5-20.9.8a320.6 320.6 0 0 1-33.3-5.4c-7.5-1.6-13.7-6.3-19.6-11.1a2.4 2.4 0 0 1-.6-1.8c.6-5.9.8-12 2.1-17.7a79.3 79.3 0 0 0 1.5-22.9c-.4-6.3-.1-12.7-.5-19.1l-2.1-27.6c-.3-3.9-.1-7.9-.2-11.8 0-1.5.7-2.1 2.1-2.1h4a6.3 6.3 0 0 0 5.1-3.3 5.2 5.2 0 0 0-1.7.2c-3.7 2.5-7.2 1.9-11.2.2a24.6 24.6 0 0 1-12.8-12.3c-1.4-2.9-2.2-6.1-3.3-9.2l-2.8-7.7c-1.9-4.9.1-9.6.6-14.4l1.2-9a14.7 14.7 0 0 0-.5-4.8l-5.1-18.6a38 38 0 0 1-.3-10.4c.4-5.5-.7-10.6-1.9-15.9s-3.1-12.6-3.5-18.9a41.4 41.4 0 0 1 9.4-30.2l9.8-11.9c3.4-3.8 5.1-5.3 9.2-5.2 1 0 2-1.1 3-1.6 11-6 22.3-11.4 34.5-14.6l7.1-1.8a1.5 1.5 0 0 1 1.1.2c1.5 1.2 2.3.4 3.2-1.8l9.3 11.7 5.6 7.3a3.2 3.2 0 0 0 1.5.5 3.5 3.5 0 0 0-.1-1.6l-14.3-19.5 4.3-7.3 7.9 5.5 20.9 15.6a4.7 4.7 0 0 1 1.5 2l3.9 11a2.8 2.8 0 0 1-.5 2.1c-.8 1.2-1.9 2.2-2.7 3.4-1.9 2.8-1.9 4.4.6 6.5 4.4 3.8 5.4 8.9 5.7 14.2l.4 18.4-.4 22.8c-.3 5.2-1.2 10.5-1.8 15.7-.1.7.1 2 .4 2a4 4 0 0 0 2.8-.2c4.7-3.3 9.9-5.7 15.5-6.1s9.8-2.4 14.7-3.5a52.3 52.3 0 0 0 7.4-2.7c10.7-4.3 20.4-1.4 29.8 4.1 1.2.7 2.6 1.3 3.9 1.9l.5-.9a58.4 58.4 0 0 0-5.2-3.4c-6.2-3.2-12.5-5.6-19.7-5.4-4.8.1-9.1 2.1-13.5 3.7l-14.4 4.7-2.8-13c-3-13.4-6.4-26.7-12.5-39.2-.7-1.3-.3-2.2.4-3.6 2.3-4.3 4.4-8.7 6.3-13.2.8-1.9-1.5-5-4.6-7a92.5 92.5 0 0 1 16.6-25.9l3.1 9.4a4.1 4.1 0 0 1-.3 2.2l-3.8 11a21.3 21.3 0 0 0-.5 3.5l.8.2 7.2-17c6.3 2.9 12.7 5.3 18.5 8.8s11.8 8.8 17.7 13.2a107.5 107.5 0 0 0 10.2 6.9c6.7 3.8 11.1 9.6 14.7 16.2 7.2 13.1 8.6 27.3 8 41.8l-.2 12.1v13.9l-2.1-1.3-7-5a39.8 39.8 0 0 1-5.6-5.2c-2.6-3-6-4.4-9.6-5.3s-7.6-1.6-11.4-2.4l-.2.7 3.5 1c4.4 1.3 8.8 2.3 13 4 2.6 1 5.1 2.7 6.2 5.7.2.5 1.1.9 1.6 1.3l14 10.7c2.4 2.1 4 5 5.7 7.8-3.8-2.1-6.1-6.3-10.7-7.1-2.4-2.2-5-3.7-8.4-3.4zm-74.3-10.7l-.6-.4-30.5-7.1a35.4 35.4 0 0 0-3.6-.5l-14.5-1.7c-4.9-.3-11.9-1.2-17.5 1.8-2.6 1.5-5.5 2.5-8.4 3.7l.5-7.5c.1-2.5 0-5.1 0-7.7v-7.7c-.1-2.6-.5-4.7-.8-7.1h-.7v3.9l-.3 21.9a29.9 29.9 0 0 1-3 12.1 37.2 37.2 0 0 1-2.1 3.6l.4.6-8.7 1.8-7.5 1c-2.5.5-3.5.6-4 1.6-2.2 4.4-3.9 9-5.8 13.5l.6.2 5.1-10.9c.9-1.9 2.2-2.7 4.5-2.3a27.3 27.3 0 0 1-.7 3.4c-2.8 7.9-3.4 16.1-3.4 24.3a23.4 23.4 0 0 0 3.1 11.7l6.8 11.9a49 49 0 0 1-6.3 3 5.7 5.7 0 0 1-4.1-.4c-8.6-4.7-14.9-11.3-17.5-21a63 63 0 0 1-2.2-18.4 4 4 0 0 0-.8 2.3l1.7 15.2c.7 5 4.3 11.6 8.6 16.3a69.3 69.3 0 0 0 5.9 5.6c2.7 2.3 5.7 3.8 9.5 2.2a46.9 46.9 0 0 0 10.5-6.4c7.3-5.8 15-11.3 23.7-14.8a122.1 122.1 0 0 0 23.8-13c4-2.8 8.6-4.8 12.9-7.2a380.1 380.1 0 0 0 12.6 76.9l4.2-20.4c2.4-9.9 3.3-19.9 3.7-30l.4-11.6c.1-3.8 1.8-10.2 0-15.4l.4-.5a13.9 13.9 0 0 1 2.6 1.2l25.8 19.1c2 1.4 4.4 2.3 6.6 3.4l5.3 3.7c7.3 4.8 15.5 5.4 24 4.6a4.5 4.5 0 0 0 1.8-.6c13.5-7.6 16.2-19.4 8.6-32.4-2.8-4.8-7.4-7.8-11.9-10.9a46.1 46.1 0 0 0-26-8.3 58.7 58.7 0 0 1-11.6-1.4 111.7 111.7 0 0 1-11-3.6 3 3 0 0 1 1-.4c4.9 0 9.9-.3 14.8.2a9.8 9.8 0 0 0 8.4-2.7 8.9 8.9 0 0 1 4.2-2.6c6-.9 12-1.4 17.7 1.6l2.2 1.2-10.2 1.3v.5l14-1.2a4.6 4.6 0 0 0-.8-1c-5.7-3.1-11.6-5.6-18.3-4.8-3 .4-6.4 0-8.6 2.6s-6.8 3.7-11 3.2-7-1.2-10.1-.5-8.8 3-13.3 1.3zm32.2 72.6l.7.4 6.1-11.9-.6-.3zm-146-49.1v4.2h.2l1-6.2-4.9 3.7.2.4zm130-174.7c-1.8 9.6-6.4 18-11.5 26.3-3.5 5.6-8 10.3-12.1 15.3-2.7 3.2-5.9 4.9-10.5 3.5a38.5 38.5 0 0 1-15.8-9.1l-2.6-2.4c-4.8-4-10-7.7-14.4-12.1s-6.3-9.9-6.5-16c-.1-3.6.2-7.1-1.3-10.5a9 9 0 0 1-.3-2.3c-.4-2.8-1.1-5.6-1.2-8.4a111.5 111.5 0 0 1 .1-11.6l1.2-16.4c.1-5.4.7-11.9 3.5-17.3a33.7 33.7 0 0 0 2.2-4.8 14.7 14.7 0 0 1 7-8.6c5.6-3.3 11.6-5.6 18.2-6s12-1 17.9-.4a37.4 37.4 0 0 1 22.4 10.1c6.6 6.2 10.2 14.3 12.6 22.7 1.3 4.7.3 10.1 0 15.2-.1 1.5-1.3 2.8-1.7 4.3a79.4 79.4 0 0 0-1.9 10c-.2 2.3-1.3 2.3-3 2a64.7 64.7 0 0 0-19.9-1.4 7 7 0 0 0-2.8.9c-2.8 1.6-5.9.7-8.4-1.1a15.6 15.6 0 0 0-7.5-2.6c-5.6-.5-11.3-.4-17-.4-2.4 0-3.4 2-3.5 3.9a54.8 54.8 0 0 0 .5 8.8 5.2 5.2 0 0 0 5.1 4.6c5.6.4 11.1.3 16.7.2a4.6 4.6 0 0 0 2.8-1.4c1.9-1.8 3.6-3.8 5.3-5.9s2.8-1.7 3.8.7 2.2 4.2 3.2 6.4a3.6 3.6 0 0 0 3.3 2.1zm-42.7-5.5l-8.3-.4a3.6 3.6 0 0 1-3.5-3.4 56.7 56.7 0 0 1 .6-8.1 2 2 0 0 1 1.5-1.1h10.8a73.1 73.1 0 0 1 9.4 1.3 3.6 3.6 0 0 1 2.6 5.3c-2.7 6.1-4.2 6.7-9.4 6.3H408v.2zm30.8-10.2l13.8 1.6c2.6.2 3.1 2.3 3 3.9a22.9 22.9 0 0 1-2.1 6.8 2.9 2.9 0 0 1-2.3 1.1c-3.8-.1-7.6-.5-11.3-.8l-3.9-.6c-3.1-.7-6.2-5.8-5.5-8.9s2-2.5 3.6-2.6 3.1 0 4.7 0v-.3z"/><path d="M375.6 197a23.5 23.5 0 0 0 .3 3.2 49.9 49.9 0 0 0 1.8 7.1c1.1 3 .8 4.7-1.9 6.4s-3.8 4.4-5 7.1a7.9 7.9 0 0 1-2.3 2.7c-.9-3.8.1-7.1 1.7-10.2a7.5 7.5 0 0 0 .8-5.5c-1.3-4.6 1.8-7.7 4.6-10.8zm59 144.8l24.4 7.8c4.9 1.3 10.3 1.1 15.4 1.6 12.7 1.4 22.2 8.3 29.6 18.2a18.1 18.1 0 0 1 3.6 12.7c-.8 6.7-3.2 12.5-10.2 16.1s-15.4 1.2-22.9-1.3c-3.1-1-6-2.8-9.1-4.2l-10.7-8.9-16-11.9c-11.5-8.9-23.9-15.9-38.2-19.4-7.5-1.8-14.9-4.2-22.4-6.3-2-.5-4.1-1.3-6-1a11.3 11.3 0 0 0-5.3 2.8c-2.2 1.9-4.6 1.9-7.1 1.6h-.2c-1.1-.3-3.2-.6-3.2-.9a10.6 10.6 0 0 1 .9-4.9c2-3.7 5.5-5.6 9.2-7.4a31.1 31.1 0 0 1 17.5-2.8l21.9 3.3 14.9 2.3c2.7.4 5.3 1.1 7.9 1.6zm-15.1 20l-16.6 9.9-19.9 11.7a27.3 27.3 0 0 1-4.1 1.9 107.1 107.1 0 0 0-27.7 15.4 40 40 0 0 1-4.6 3.1 2.1 2.1 0 0 1-2-.2 44 44 0 0 1-3.1-3.4c-5.6-6.3-7-13.8-6.9-21.9a60.9 60.9 0 0 1 3.3-19.2c1.1-3.2 2.8-5.3 6.3-5.6l5.7-.7a8.7 8.7 0 0 0 3.5-1.1 6.9 6.9 0 0 1 6.2-.9c3.1.8 6 .5 8.4-1.9s5.4-2.1 8.2-1.4l25 7c4.9 1.5 9.7 3.5 14.6 5.4a35.5 35.5 0 0 1 3.7 1.9z"/></g></g><path d="M200.3 207.3l-83.5 24.9 83.5-24.9zm-80.5 32l88-26.2m-85.9 33.4l87.4-26.1m-85.5 33.5l87.8-26.2m-11.3-22.5l-83.5 24.9m3 7.2l88-26.2m-85.9 33.3l87.4-26.1m-85.5 33.5l87.8-26.2m-96.9-2.9c17-5.8 34.3-9.9 51.7-15m-51.6 17.1c17-5.8 34.3-9.9 51.7-15 11.2-4.1 22.5-7.1 33.5-10.4m-86.2 24.3c17-5.8 34.3-9.9 51.7-15 11.2-4.1 22.5-7.1 33.5-10.4" fill="#818991" stroke="#818991" stroke-opacity=".43"/></g></g></svg>